<svg xmlns:xlink="http://www.w3.org/1999/xlink" xmlns="http://www.w3.org/2000/svg" width="128" height="128" viewBox="0 0 128 128" fill="none" style="overflow: visible;"><g class="token" fill="none"><circle cx="64" cy="64" r="64" fill="color(display-p3 0.5951 0.587 1)" style=""></circle><path d="M52.1019 67.1211C57.5899 66.2303 61.3167 61.0592 60.4259 55.5712C59.535 50.0832 54.3639 46.3564 48.8759 47.2473C43.3879 48.1381 39.6611 53.3092 40.552 58.7972C41.4428 64.2852 46.6139 68.012 52.1019 67.1211Z" fill="#FFFFFF"></path><path d="M78.4144 67.1211C83.9024 66.2303 87.6292 61.0592 86.7384 55.5712C85.8475 50.0832 80.6764 46.3564 75.1884 47.2473C69.7004 48.1381 65.9736 53.3092 66.8645 58.7972C67.7553 64.2852 72.9264 68.012 78.4144 67.1211Z" fill="#FFFFFF"></path><path d="M63.628 15.628C36.2937 15.628 14.1325 38.2114 14.1397 66.0608H26.7824C26.7824 45.1898 43.1482 28.2684 63.628 28.2684C84.1079 28.2684 100.474 45.1898 100.474 66.0608H113.116C113.121 38.2114 90.9599 15.628 63.628 15.628Z" fill="#FFFFFF"></path></g></svg>