<svg xml:space="preserve" style="max-height: 500px" viewBox="0 246.456 215.16 149.96" y="0px" x="0px" xmlns:xlink="http://www.w3.org/1999/xlink" xmlns="http://www.w3.org/2000/svg" id="layer" version="1.1" width="215.16" height="149.96">
<style type="text/css">
	.st0{fill:#B5179E;}
</style>
<path d="M222.1,366.6c-0.7,0-1.3-0.3-2-0.8c-0.5-0.6-0.8-1.3-0.8-2c0-0.4,0-0.8,0.1-1.2l30.6-83.7c0.3-1,0.8-1.8,1.6-2.5&#10;&#9;c0.9-0.8,2-1.2,3.5-1.2h19.3c1.5,0,2.6,0.4,3.4,1.2c0.9,0.7,1.4,1.5,1.7,2.5l30.5,83.7c0.2,0.3,0.3,0.7,0.3,1.2c0,0.7-0.3,1.3-0.9,2&#10;&#9;c-0.5,0.5-1.2,0.8-2,0.8h-16c-1.3,0-2.3-0.3-3-0.9c-0.6-0.7-1-1.3-1.2-1.8l-5.1-13.3h-34.8l-5,13.3c-0.2,0.5-0.6,1.1-1.2,1.8&#10;&#9;c-0.6,0.6-1.7,0.9-3.1,0.9C238.2,366.6,222.1,366.6,222.1,366.6z M252.8,331.8H277l-12.3-34.4L252.8,331.8z M364,367.9&#10;&#9;c-5,0-9.7-0.6-14.2-1.8c-4.4-1.3-8.4-3.2-11.9-5.7c-3.4-2.5-6.3-5.7-8.3-9.4c-2-3.7-3.1-8.1-3.3-13c0-0.8,0.3-1.4,0.8-2&#10;&#9;c0.5-0.6,1.2-0.9,2.1-0.9h17.6c1.2,0,2.1,0.3,2.7,0.9c0.7,0.6,1.3,1.5,1.7,2.7c0.4,2.4,1.3,4.4,2.5,6c1.2,1.5,2.7,2.6,4.6,3.4&#10;&#9;c1.9,0.7,4,1,6.4,1c4.3,0,7.7-1.4,10-4.2c2.3-2.9,3.5-7,3.5-12.5v-37.7H336c-0.9,0-1.7-0.3-2.3-0.9c-0.6-0.6-0.9-1.4-0.9-2.3v-12.9&#10;&#9;c0-1,0.3-1.7,0.9-2.3c0.7-0.6,1.5-0.9,2.3-0.9h63.1c1,0,1.7,0.3,2.3,0.9c0.7,0.6,1,1.4,1,2.3v54.5c0,7.6-1.7,14-5,19.2&#10;&#9;c-3.3,5.1-7.8,9-13.6,11.7C378.2,366.6,371.5,367.9,364,367.9z M436.1,366.6c-1,0-1.7-0.3-2.3-0.9c-0.6-0.6-0.9-1.4-0.9-2.3v-84.8&#10;&#9;c0-1,0.3-1.7,0.9-2.3c0.6-0.6,1.4-0.9,2.3-0.9h13.8c1.5,0,2.5,0.3,3.1,1c0.7,0.6,1.1,1.1,1.3,1.4l31.8,50.2v-49.4&#10;&#9;c0-1,0.3-1.7,0.9-2.3c0.6-0.6,1.4-0.9,2.3-0.9h15.6c1,0,1.7,0.3,2.3,0.9c0.6,0.6,0.9,1.4,0.9,2.3v84.8c0,0.9-0.3,1.7-0.9,2.3&#10;&#9;c-0.6,0.6-1.4,0.9-2.3,0.9h-14c-1.4,0-2.4-0.3-3.1-1c-0.6-0.7-1-1.2-1.2-1.4L455,315.9v47.5c0,1-0.3,1.7-0.9,2.3&#10;&#9;c-0.6,0.6-1.4,0.9-2.3,0.9H436.1z M534.4,366.6c-0.7,0-1.3-0.3-2-0.8c-0.5-0.6-0.8-1.3-0.8-2c0-0.4,0-0.8,0.1-1.2l30.6-83.7&#10;&#9;c0.3-1,0.8-1.8,1.6-2.5c0.9-0.8,2-1.2,3.5-1.2h19.3c1.5,0,2.6,0.4,3.4,1.2c0.9,0.7,1.4,1.5,1.7,2.5l30.5,83.7&#10;&#9;c0.2,0.3,0.3,0.7,0.3,1.2c0,0.7-0.3,1.3-0.9,2c-0.5,0.5-1.2,0.8-2,0.8h-16c-1.3,0-2.3-0.3-3-0.9c-0.6-0.7-1-1.3-1.2-1.8l-5.1-13.3&#10;&#9;h-34.8l-5,13.3c-0.2,0.5-0.6,1.1-1.2,1.8c-0.6,0.6-1.7,0.9-3.1,0.9H534.4L534.4,366.6z M565,331.8h24.3L577,297.4L565,331.8&#10;&#9;L565,331.8z"/>
<path d="M101,265.6c25.2,0,49.9,12,74,34.8l0.1,0.1c2.4,2.4,4,6,4,9.7c0,0.7-0.1,1.3-0.4,1.9c-0.4,2.8-1.6,5.7-4.1,7.9&#10;&#9;c-1.5,1.4-2.9,2.7-4.4,4c-0.4,0.6-1,1.1-1.6,1.4c-21.2,18.5-42.8,28.5-65,29.3c-23.1,0.8-45.8-8.5-68-27c-0.6,0.5-1.1,1.1-1.7,1.6&#10;&#9;l-0.1,0.1c-1.1,1-1.4,3.1,0,4.6l0,0c22.8,21.7,45.1,32,66.9,32s44-10.3,66.9-32c2.1-2,5.3-1.9,7.3,0.2c2,2.1,1.9,5.3-0.2,7.3&#10;&#9;c0,0,0,0,0,0c-24,22.8-48.7,34.8-74,34.8c-25.1,0-49.6-11.8-73.4-34.3c-0.6-0.4-1.2-1-1.6-1.6c-4.5-5.5-4.1-13.6,1-18.4&#10;&#9;c1.9-1.9,3.7-3.5,5.5-4.9l0.1,0l0.1-0.1c22.4-19.6,45.2-29.9,68.5-29.9c22.1,0,43.8,9.2,65.1,26.9c0.6-0.5,1.1-1,1.7-1.6&#10;&#9;c0.1-0.1,0.1-0.1,0.2-0.2c0.3-0.3,0.7-0.9,0.7-2.1c0-0.3,0-0.7,0.1-1c-0.2-0.5-0.4-1-0.8-1.4c-22.8-21.7-45.1-31.9-66.8-31.9&#10;&#9;c-21.7,0-44,10.3-66.9,32c-2.1,2-5.3,1.9-7.3-0.2c-2-2.1-1.9-5.3,0.2-7.3c0,0,0,0,0,0C51.1,277.6,75.8,265.6,101,265.6z&#10;&#9; M158.1,320.9c-19.5-15.9-38.6-23.5-57.2-23.5c-18.7,0-37.7,7.6-57.3,23.6c20.4,16.6,40.3,24.2,59.7,23.5&#10;&#9;C121.2,343.9,139.5,336.3,158.1,320.9z M90.9,321c0-5.5,4.5-10,10-10l0,0c5.5,0,10,4.5,10,10c0,5.5-4.5,10-10,10&#10;&#9;C95.4,331,90.9,326.5,90.9,321L90.9,321z M100.9,300.8c-11.2,0-20.3,9.1-20.3,20.2c0,11.2,9.1,20.2,20.3,20.2&#10;&#9;c11.2,0,20.3-9.1,20.3-20.2S112.1,300.8,100.9,300.8L100.9,300.8z" class="st0"/>
</svg>