<svg fill="none" height="64" width="64" xmlns="http://www.w3.org/2000/svg" xmlns:xlink="http://www.w3.org/1999/xlink"><linearGradient id="a"><stop offset="0" stop-color="#f4837d"/><stop offset="1" stop-color="#fdceaa"/></linearGradient><linearGradient id="c" gradientUnits="userSpaceOnUse" x1="54.081" x2="21.274" xlink:href="#a" y1="25.893" y2="60.486"/><linearGradient id="d" gradientUnits="userSpaceOnUse" x1="58.503" x2="19.134" xlink:href="#a" y1="12.781" y2="54.292"/><clipPath id="b"><path d="M0 0h64v64H0z"/></clipPath><g clip-path="url(#b)" stroke="#1f2333" stroke-linejoin="round"><path d="M5.693 45.406l26.28-26.495 26.28 26.495-13.14 13.248-13.14-13.248-13.14 13.248z" fill="url(#c)"/><path d="M31.973 45.406l-13.14 13.25-2.628-6.561 15.768-15.897z" fill="#1f2333"/><path d="M5.691 45.404L18.833 58.65l-2.628-6.556L.437 36.198zm26.282.002l13.14 13.25 2.628-6.561-15.768-15.897z" fill="#fee0ca"/><path d="M58.254 45.404L45.113 58.65l2.628-6.556 15.768-15.897z" fill="#1f2333"/><path d="M.437 36.197L31.973 4.401l31.536 31.794-15.768 15.898-15.768-15.897-15.768 15.897z" fill="url(#d)"/></g></svg>