<svg fill="none" height="605" width="700" xmlns="http://www.w3.org/2000/svg"><path d="M346 1.4c-15.9 4.5-28.1 15.3-33.2 29.6-2.5 7-3 10-2.9 17.5.2 8.8 2 15.9 6.2 23.3 1.7 3.1 60 102.5 129.5 220.9S572 508.2 572 508.5s-24.4.4-54.1.3l-54.1-.3L374.6 353c-63.7-111-90.6-157-94.1-160.8-9.2-10.2-18.8-15-32-15.9-9.6-.7-16.2.6-25.5 5-9.9 4.6-16.9 12.4-26.4 29.2-4.4 7.7-10 17.6-12.6 22s-5.9 10-7.2 12.5c-1.4 2.5-6.9 12.1-12.3 21.5-5.4 9.3-19.5 33.9-31.3 54.5s-24.7 43.1-28.7 50c-8.9 15.5-11 20.6-12.4 29.6-1.9 12.2 1.9 25.7 10.3 36.5 1.9 2.4 5.1 7.3 7.1 10.9s19 33.7 37.7 67 35.7 63.2 37.9 66.5c8.6 13.5 19.3 20.2 35.6 22.5 7.2.9 8.9.8 15.3-.9 9.8-2.8 15-5.4 21-10.8 13.4-12.1 18.8-29.6 14.6-47-2-8.1 1.8-1-67-123.1l-9.8-17.3 22.3-38.7c12.2-21.3 23.5-40.7 25-43.1l2.7-4.4 1.5 2.4c5 8 143 249.8 146.1 256.1 4.9 9.9 13.7 18.6 23.3 23 5.3 2.4 9 3.2 16.8 3.9 5.5.4 59.1.8 119 .9 105.2 0 109.2-.1 114.3-1.9 13.8-5.1 24.6-15.3 29.6-28 6-15.5 6-31.5-.2-45.1-1.1-2.5-68.9-118.1-150.5-257C440 94.9 394.7 18.9 391.2 15 380.5 3.1 361-2.8 346 1.4zm-308.7 509C14.4 516-2.1 538.7.5 561.4c3.7 33.2 38.6 52.6 68.3 38 13.9-6.8 23.8-20.4 26.3-36 2.2-13.9-3-29.1-13.6-40-11.6-11.8-28.5-16.8-44.2-13z" fill="#bf3037"/></svg>