<svg width="69" height="69" viewBox="0 0 69 69" fill="none" xmlns="http://www.w3.org/2000/svg">
<path fill-rule="evenodd" clip-rule="evenodd" d="M40.2449 4.02438L35.9054 0.842102L13.6295 8.36384V59.2802L17.7472 62.2986L47.7666 52.6264V28.0361L43.7164 25.1431L40.2449 26.3003V4.02438ZM43.7164 29.2656V49.4441L17.6796 57.8337V37.8722L43.7164 29.2656ZM35.9054 27.4575V5.18157L17.6797 11.3291L17.6796 33.5327L35.9054 27.4575Z" fill="#4F5FEF"/>
<path fill-rule="evenodd" clip-rule="evenodd" d="M44.2207 7.03632L39.9556 3.80741L17.6797 11.3291V62.2455L21.7903 65.3719L51.8168 55.5917L51.7489 31.1285L47.7666 28.1084L44.295 29.2656L44.2207 7.03632ZM47.7666 32.2309V52.4094L21.7298 60.799V40.8375L47.7666 32.2309ZM39.9556 30.4228V8.14687L21.7298 14.2456V36.498L39.9556 30.4228Z" fill="#352AB8"/>
<path fill-rule="evenodd" clip-rule="evenodd" d="M48.2006 9.95496L43.8612 6.77269L21.5852 14.2944V65.2108L25.6354 68.3931L55.7224 58.557V33.9667L51.6722 31.0737L48.2006 32.2309V9.95496ZM51.6722 35.1962V55.3747L25.6354 63.7643V43.8028L51.6722 35.1962ZM43.8612 33.3881V11.1122L25.6354 17.1874V39.4633L43.8612 33.3881Z" fill="#21007F"/>
</svg>
