<?xml version="1.0" encoding="UTF-8" standalone="no"?>
<svg
   _ngcontent-kri-c98=""
   width="36"
   viewBox="0 0 408 36"
   fill="none"
   version="1.1"
   id="svg5"
   xml:space="preserve"
   height="36"
   xmlns="http://www.w3.org/2000/svg"
   xmlns:svg="http://www.w3.org/2000/svg"><rect
     style="fill:#000000;fill-opacity:1;stroke-width:10.6272"
     id="rect5"
     width="568.99829"
     height="574.75342"
     x="-73.439011"
     y="-245.95338" /><g
     _ngcontent-kri-c98=""
     filter="url(#filter0_d_356_14)"
     id="g3"
     transform="matrix(0.88322835,0,0,0.88322835,26.502763,-141.16382)"><path
       _ngcontent-kri-c98=""
       d="m 335.291,108.626 c 1.768,4.541 1.413,10.036 -1.399,16.408 -2.82,6.393 -8.001,13.375 -15.334,20.492 -14.655,14.221 -37.321,28.416 -64.557,39.019 -27.235,10.603 -53.533,15.471 -73.945,14.901 -10.216,-0.285 -18.754,-1.926 -25.154,-4.729 -6.38,-2.794 -10.357,-6.603 -12.125,-11.144 -1.768,-4.54 -1.413,-10.036 1.399,-16.408 2.82,-6.392 8.001,-13.375 15.335,-20.492 14.654,-14.221 37.32,-28.416 64.556,-39.019 27.236,-10.6032 53.533,-15.4707 73.946,-14.9011 10.215,0.2851 18.753,1.9262 25.153,4.7289 6.38,2.7942 10.357,6.6032 12.125,11.1442 z"
       stroke="#ffffff"
       stroke-width="8"
       id="path1" /><path
       _ngcontent-kri-c98=""
       fill-rule="evenodd"
       clip-rule="evenodd"
       d="m 270.614,135.398 c 56.656,-22.056 110.126,-20.565 119.428,3.33 9.302,23.895 -29.086,61.146 -85.742,83.202 -25.051,9.751 -49.47,14.892 -69.732,15.536 v 13.386 C 205.24,387.65 18.4882,342.051 16.0002,274.895 c 0,-58.988 126.1748,-171.058 201.1928,-110.572 14.4,-10.744 32.684,-20.853 53.421,-28.925 z M 111,259 c 9.941,0 18,-8.059 18,-18 0,-9.941 -8.059,-18 -18,-18 -9.941,0 -18,8.059 -18,18 0,9.941 8.059,18 18,18 z"
       fill="#ffffff"
       id="path2" /><path
       _ngcontent-kri-c98=""
       fill-rule="evenodd"
       clip-rule="evenodd"
       d="M 86.709,11.1481 C 84.0829,5.88449 76.104,8.68846 77.348,14.4377 l 4.6639,21.554 -0.0119,0.0085 2,9.5 0.0599,-0.0434 8.3395,38.5406 1.1005,5.5027 0.0759,-0.0658 7.0272,32.4757 -0.103,0.09 2.554,11.238 5.838,26.981 c 0.637,2.941 3.707,4.657 6.545,3.66 l 35.044,-12.315 c 2.839,-0.998 4.16,-4.258 2.817,-6.95 L 137.61,113.17 129.5,96.5001 129.356,96.6268 113.865,65.5771 109,55.5002 l -0.114,0.0987 z m 22.177,44.4508 4.979,9.9782 L 116,70.0001 93.5758,89.4343 92.3994,83.9974 90,72.0003 Z m 20.47,41.0279 -28.753,25.2832 2.451,11.328 2.446,10.762 33,-29 -0.89,-1.83 z m -45.2961,-51.17 14.44,-10.4566 -4,-8 -12.488,8.9915 z"
       fill="#ffffff"
       id="path3" /></g><defs
     _ngcontent-kri-c98=""
     id="defs5"><filter
       _ngcontent-kri-c98=""
       id="filter0_d_356_14"
       x="0.000244141"
       y="0.359375"
       width="407.431"
       height="363.20801"
       filterUnits="userSpaceOnUse"
       color-interpolation-filters="sRGB"><feFlood
         _ngcontent-kri-c98=""
         flood-opacity="0"
         result="BackgroundImageFix"
         id="feFlood3" /><feColorMatrix
         _ngcontent-kri-c98=""
         in="SourceAlpha"
         type="matrix"
         values="0 0 0 0 0 0 0 0 0 0 0 0 0 0 0 0 0 0 127 0"
         result="hardAlpha"
         id="feColorMatrix3" /><feOffset
         _ngcontent-kri-c98=""
         dy="8"
         id="feOffset3" /><feGaussianBlur
         _ngcontent-kri-c98=""
         stdDeviation="8"
         id="feGaussianBlur3" /><feComposite
         _ngcontent-kri-c98=""
         in2="hardAlpha"
         operator="out"
         id="feComposite3" /><feColorMatrix
         _ngcontent-kri-c98=""
         type="matrix"
         values="0 0 0 0 0 0 0 0 0 0 0 0 0 0 0 0 0 0 0.25 0"
         id="feColorMatrix4" /><feBlend
         _ngcontent-kri-c98=""
         mode="normal"
         in2="BackgroundImageFix"
         result="effect1_dropShadow_356_14"
         id="feBlend4" /><feBlend
         _ngcontent-kri-c98=""
         mode="normal"
         in="SourceGraphic"
         in2="effect1_dropShadow_356_14"
         result="shape"
         id="feBlend5" /></filter></defs></svg>
