<?xml version="1.0" encoding="utf-8"?>
<!-- Generator: Adobe Illustrator 26.5.0, SVG Export Plug-In . SVG Version: 6.00 Build 0)  -->
<svg version="1.1" id="Layer_1" xmlns="http://www.w3.org/2000/svg" xmlns:xlink="http://www.w3.org/1999/xlink" x="0px" y="0px"
	 viewBox="0 0 119.3 119.7" style="enable-background:new 0 0 119.3 119.7;" xml:space="preserve">
<style type="text/css">
	.st0{fill:#0B65FF;}
	.st1{fill:#FFFFFF;}
</style>
<path class="st0" d="M59.5,8c-3.4,0-6.8,0.9-9.9,2.6L20.1,26.9c-6.1,3.3-10,9.7-10.1,16.6v32.6c0,7,3.9,13.4,10,16.6l29.6,16.3
	c6.3,3.4,13.9,3.4,20.1,0l29.6-16.3c6.1-3.3,10-9.7,10.1-16.6V43.5c0-7-3.9-13.3-10-16.6L69.8,10.6C66.7,8.8,63.1,8,59.5,8z"/>
<path class="st1" d="M59.7,68.1v33.8c-0.1,2.8-2.5,4.9-5.2,4.8c-0.8,0-1.6-0.3-2.3-0.7L21.6,89.2c-4.6-2.5-7.5-7.2-7.5-12.4l0-33.7
	c0-2.7,2.2-4.8,4.9-4.8c0.9,0,1.8,0.2,2.6,0.6l30.6,16.9C56.8,58.2,59.7,62.9,59.7,68.1z"/>
</svg>
