<svg width="200" height="200" viewBox="0 0 200 200" fill="none" xmlns="http://www.w3.org/2000/svg">
<path d="M92.6764 125.208C79.0977 115.014 62.4516 108.572 45.3355 109.227C33.9332 109.441 23.0371 112.853 12.0695 115.63C8.97753 116.238 5.4232 117.104 2.5688 115.281C1.08246 114.154 0.345843 112.279 0.129782 110.473C-1.90906 99.2974 20.6339 94.7965 28.4312 91.4298C39.1346 87.7312 49.7547 83.8072 60.0005 79.0375C65.0728 76.6509 70.1999 74.3186 74.5472 70.7015C87.6783 59.8489 96.4633 45.0292 107.007 31.7379C113.415 23.6082 124.844 9.95855 135.797 18.9584C145.228 26.6849 147.352 39.4083 146.062 50.9058C142.289 81.2575 134.673 106.241 160.97 129.338C169.482 136.711 179.41 142.709 186.909 151.327C189.311 154.223 193.78 159.535 189.747 162.86C180.673 167.426 161.848 160.233 152.432 157.209C131.161 149.4 110.904 138.698 92.6764 125.208ZM92.6764 125.208C110.953 138.61 131.246 149.219 152.533 156.927C157.87 158.812 163.29 160.47 168.793 161.763C175.428 162.975 183.025 165.363 189.343 162.294C192.856 159.27 188.41 154.548 186.28 151.881C178.689 143.371 168.833 137.598 160.163 130.255C132.99 106.704 140.422 81.6893 144.167 50.747C145.371 39.834 143.344 27.7858 134.525 20.5621C132.479 18.8472 129.961 17.8068 127.4 18.0125C119.128 19.1539 113.696 26.8934 108.49 32.9202C97.9146 46.1106 88.9323 61.1942 75.5314 71.9503C71.0812 75.5757 65.7689 77.9485 60.5811 80.312C45.1083 87.4932 28.636 91.9923 12.7772 98.0762C8.05591 100.217 1.5204 102.58 0.666511 108.343C0.364737 116.291 5.59396 116.636 11.9751 115.189C42.8795 106.354 65.6359 105.155 92.6764 125.208Z" fill="#0000FF"/>
<path d="M141.411 25.7014C156.281 43.5987 141.859 68.5602 141.814 89.0409C140.699 105.401 147.268 121.724 159.535 132.566C163.522 136.184 168.006 139.351 172.066 143.015C176.271 147.063 188.635 157.139 184.412 163.394C177.181 170.195 153.038 160.784 144.522 157.657C124.232 149.622 105.029 138.622 87.8598 125.202C79.2176 118.814 69.312 114.042 58.7507 112.096C48.1877 110.032 37.2687 111.103 26.7613 113.551L18.8141 115.408C13.4477 116.715 5.49479 117.986 4.66764 110.262C2.24621 96.13 25.2963 90.9215 35.1217 86.376C45.2833 82.482 55.3688 78.4341 65.3317 74.0708C75.5054 70.138 83.8254 62.7541 91.4215 55.0524C99.0748 47.3186 105.813 38.7156 113.571 31.0482C121.097 23.5552 132.606 14.8914 141.411 25.7014ZM141.303 25.7932C132.519 15.119 121.212 23.7555 113.744 31.2263C106.022 38.8953 99.3138 47.5175 91.7401 55.3622C84.2145 63.1463 75.8837 70.6902 65.6398 74.7698C55.7104 79.2353 45.6443 83.408 35.5274 87.4074C26.5731 91.6754 3.68973 97.3683 6.1856 109.999C6.85029 116.514 13.8538 114.794 18.4457 113.763L26.3776 111.865C48.2287 106.03 70.9165 109.715 89.0688 123.533C110.394 140.277 134.497 153.642 160.448 161.481C165.641 162.921 170.951 164.212 176.278 164.375C178.684 164.392 181.695 164.328 183.381 162.539C186.65 157.291 174.903 147.4 171.29 143.893C167.293 140.226 162.878 137.063 158.826 133.332C146.467 122.259 139.886 105.516 141.158 89.0096C141.361 68.5222 155.953 43.6834 141.303 25.7932Z" fill="#004CFF"/>
<path d="M145.503 29.6502C158.884 47.3105 143.348 71.0285 142.339 90.5633C140.621 106.101 145.212 122.384 156.139 133.722C159.697 137.537 163.898 140.736 167.603 144.428C172.064 149.123 177.528 153.951 179.049 160.616C179.789 171.378 159.997 165.456 154.245 163.884C129.187 156.019 105.949 142.393 85.7505 125.783C42.8741 92.8458 8.67362 132.896 9.38926 105.727C10.1407 92.2213 28.857 86.9116 39.1176 81.9447C48.7802 77.8842 58.519 74.0359 68.2439 70.1455C77.9303 66.2591 86.4675 59.962 94.4073 53.1963C106.256 44.462 131.194 11.249 145.503 29.6502ZM145.273 29.8284C131.322 11.7064 106.214 44.9091 94.7363 53.5794C86.8323 60.4291 78.313 66.839 68.5304 70.8633C58.8448 74.835 49.154 78.806 39.5507 82.9601C29.9645 87.7276 11.4173 93.3459 10.9163 105.801C9.81524 129.773 43.4103 91.2828 86.993 124.12C107.071 140.835 129.844 154.376 154.697 162.377C159.523 163.792 178.352 169.335 177.666 160.799C176.199 154.569 171.023 149.927 166.715 145.336C163.022 141.601 158.864 138.389 155.299 134.504C144.269 122.903 139.687 106.2 141.563 90.4844C142.714 70.987 158.386 47.3713 145.273 29.8284Z" fill="#008CFF"/>
<path d="M149.6 33.6016C155.851 42.2282 154.25 53.5074 151.15 63.0176C148.193 72.7079 144.39 82.1596 142.917 92.1499C140.59 106.941 143.481 122.99 152.889 134.857C159.239 142.634 167.868 148.868 172.082 158.44C172.566 159.667 172.945 160.988 172.932 162.416C171.568 175.396 140.982 162.339 134.094 159.283C120.206 152.999 107.113 145.008 95.0623 135.675C91.0215 132.592 87.2431 129.117 83.3303 126.077C46.2659 96.8528 16.564 127.997 14.4005 108.368C12.231 96.2394 19.5671 89.0536 29.4606 83.8284C42.8416 76.5886 57.2775 71.563 71.463 66.2652C80.8321 62.5572 89.5163 57.2758 97.7672 51.4737C110.249 43.8362 136.63 15.4622 149.6 33.6016ZM149.229 33.8579C136.644 16.1261 110.191 44.4026 98.0953 51.9387C89.8635 57.8131 81.1789 63.1829 71.7505 66.9913C57.6072 72.4048 43.3358 77.5866 30.0793 84.9303C20.7609 90.0112 13.7407 96.7352 15.985 108.161C16.5114 114.622 21.4062 114.136 26.4535 113.298C36.3664 111.404 46.7475 109.878 56.8503 111.763C67.0132 113.482 76.5117 118.177 84.5992 124.42C88.6512 127.611 92.306 131.023 96.2911 134.1C108.163 143.408 121.102 151.408 134.807 157.706C140.733 160.701 176.584 175.146 170.726 158.981C166.666 149.681 158.171 143.454 151.899 135.63C142.387 123.463 139.53 107.019 142.018 92.0084C143.59 81.9021 147.487 72.4397 150.5 62.8178C153.621 53.4242 155.325 42.4238 149.229 33.8579Z" fill="#00D4FF"/>
<path d="M153.705 37.5596C159.33 46.2976 156.844 57.1602 153.212 66.1442C149.703 75.3141 145.499 84.2382 143.535 93.8133C140.591 107.952 142.076 123.603 149.808 135.99C155.286 144.215 163.459 150.469 166.457 160.307C166.781 161.555 166.984 162.907 166.699 164.299C163.163 176.033 135.817 163.413 128.587 159.994C115.318 153.481 102.922 145.233 91.6677 135.655C81.0595 125.789 69.4054 116.18 54.65 114.127C44.8777 112.097 35.2658 114.918 25.4499 114.912C22.6545 114.776 20.1626 112.496 19.6793 109.742C18.7734 104.71 18.0518 99.8355 18.9931 94.7711C22.0917 81.2114 42.7063 74.6287 54.1438 69.6499C57.6265 68.4579 64.5787 66.0116 68.0603 64.8284C79.7532 61.2488 90.8423 55.9804 101.475 49.9513C114.412 43.5758 142.273 19.6653 153.705 37.5596ZM153.177 37.8824C142.238 20.5624 114.33 44.4369 101.84 50.5961C91.198 56.6814 80.0283 61.9552 68.3086 65.6324C64.8845 66.8768 57.9368 69.3338 54.5134 70.5853C43.6252 75.4737 23.2598 82.2648 20.4545 95.0817C19.6115 99.6948 20.4206 104.785 21.2614 109.328C21.5899 110.387 21.9788 111.463 22.763 112.102C25.5509 114.195 29.3966 113.05 32.7439 112.75C58.3076 108.252 75.0359 116.567 92.9777 134.121C107.766 146.727 124.488 157.435 142.781 164.107C148.006 165.789 162.928 171.042 165.16 163.98C165.383 162.956 165.241 161.805 164.952 160.693C162.161 151.342 153.854 144.744 148.652 136.723C140.827 123.997 139.4 107.995 142.512 93.5926C144.58 83.887 148.882 74.9405 152.435 65.8452C156.058 57.0041 158.622 46.5085 153.177 37.8824Z" fill="#16FFE1"/>
<path d="M157.822 41.5244C162.826 50.4027 159.417 60.8258 155.272 69.2924C151.223 77.9496 146.63 86.374 144.187 95.558C139.404 113.709 141.687 134.641 154.81 148.948C156.141 150.958 157.397 153.03 158.471 155.22C160.599 159.36 162.812 166.402 157.525 169.174C147.641 173.103 131.871 165.079 122.904 160.619C114.42 156.109 106.457 150.687 98.9393 144.728C91.3568 138.973 84.9238 131.619 77.6334 125.649C48.0083 101.732 25.8677 125.476 24.0799 106.373C23.1628 100.47 21.2509 94.2975 22.9704 88.3281C25.704 79.9123 34.4001 75.6459 41.6767 71.8671C49.2723 68.3763 57.0844 65.2212 65.1145 62.8955C78.9697 59.3091 92.4559 54.5898 105.551 48.8177C118.64 43.8857 148.276 23.9268 157.822 41.5244ZM157.119 41.8991C148.108 25.0159 118.44 44.8514 105.872 49.5544C92.785 55.358 79.169 60.0043 65.3748 63.7738C57.4325 66.1702 49.6954 69.3932 42.198 72.9421C35.2319 76.6947 26.9376 80.7499 24.3809 88.7455C22.8398 94.4008 24.7844 100.431 25.6953 106.094C26.337 114.332 31.6973 112.992 38.0749 112.473C52.5485 110.629 67.6459 114.658 78.9312 124C86.3775 130.145 92.5389 137.333 100.17 143.188C107.573 149.111 115.426 154.508 123.772 158.992C132.038 163.324 140.907 167.411 150.206 168.478C152.475 168.662 154.87 168.628 156.75 167.68C162.786 163.98 156.103 154.157 153.49 149.825C150.892 145.822 147.619 142.164 145.613 137.777C139.506 124.619 139.316 109.099 143.039 95.2408C145.595 85.9103 150.291 77.4508 154.373 68.87C158.471 60.5742 161.922 50.6073 157.119 41.8991Z" fill="#3CFFBA"/>
<path d="M161.949 45.4997C166.333 54.5549 161.954 64.4964 157.327 72.4582C152.75 80.6124 147.775 88.5649 144.862 97.3841C140.697 110.45 139.99 125.19 144.264 138.292C147.408 147.115 155.109 154.346 154.93 164.271C152.905 180.051 124.7 165.746 117.09 161.161C104.943 153.964 94.042 144.805 84.443 134.477C75.4154 124.122 63.5557 115.547 49.5398 114.455C44.8324 113.879 40.3221 114.555 35.5264 114.102C34.2991 113.918 32.9721 113.544 31.8848 112.675C28.8595 110.135 29.3474 105.907 28.2052 102.47C25.6096 93.1811 21.9281 83.1303 30.9248 75.8087C45.6696 63.8657 65.0686 60.1604 82.9848 55.7533C92.0177 53.4346 101.007 50.9373 109.89 48.111C123.218 44.2762 136.275 37.167 150.522 37.7984C153.531 38.0057 156.465 39.1385 158.787 41.0893L160.007 42.4454C160.773 43.1578 161.38 44.6225 161.949 45.4997ZM161.054 45.9079C153.47 29.3887 122.882 45.7774 110.152 48.9392C101.241 51.7545 92.2342 54.2366 83.1846 56.5397C65.3668 60.9957 46.3655 64.9221 31.8501 76.8157C23.5015 83.6266 27.2836 93.2452 29.7966 102.063C31.0412 105.888 30.5035 112.002 35.7646 112.356C40.2639 112.728 45.1231 112.052 49.715 112.585C59.2205 113.34 68.3825 117.299 75.7716 123.246C83.1684 129.129 88.6896 136.758 95.8147 142.894C106.112 152.19 117.595 160.404 130.417 165.775C136.306 168.078 152.091 174.123 153.187 164.151C153.274 154.673 145.647 147.44 142.75 138.831C138.439 125.337 139.24 110.32 143.593 96.9524C146.627 87.9694 151.715 79.9682 156.315 71.888C160.855 64.1182 165.216 54.7145 161.054 45.9079Z" fill="#60FF97"/>
<path d="M166.076 49.4842C169.828 58.7462 164.46 68.1537 159.366 75.6355C154.276 83.2994 148.91 90.806 145.545 99.2927C140.695 111.918 139.26 126.237 141.757 139.527C143.712 148.529 150.856 156.51 148.939 166.221C145.52 177.227 130.741 171.435 123.365 168.358C110.647 162.629 99.6128 153.678 89.9864 143.703C77.0845 129.367 67.7451 115.277 46.4644 114.241C43.1052 113.906 38.7015 114.444 36.0821 111.524C35.1734 110.498 34.7418 109.25 34.4463 108.067C33.6493 103.474 32.1654 99.302 30.4355 95.0017C28.8225 90.7514 26.8119 86.2919 27.2129 81.3453C28.5595 71.4184 39.243 66.8922 47.264 63.1979C59.4306 57.5339 74.1907 55.3742 87.3299 52.9923C96.3668 51.3344 105.42 49.7646 114.409 47.9141C127.865 46.1378 159.222 32.1309 166.076 49.4842ZM164.974 49.9041C158.914 33.6378 127.199 47.1094 114.581 48.7517C105.568 50.5899 96.511 52.1423 87.4726 53.7825C69.6144 56.9274 50.9785 60.3127 35.8201 70.8755C26.4753 77.3543 27.7188 85.0418 31.9345 94.4034C33.6891 98.6002 35.3078 103.191 36.1296 107.644C37.0675 112.777 42.4668 112.096 46.5737 112.382C55.946 112.713 65.1938 116.22 72.5044 122.106C79.8744 127.819 85.0014 135.703 91.4485 142.299C97.7463 148.907 104.676 154.933 112.252 159.982C120.803 165.983 150.987 181.276 147.009 159.337C145.725 152.547 141.433 146.714 140.066 139.908C138.114 130.718 138.893 121.317 140.292 112.126C142.423 98.1938 150.425 86.1415 158.254 74.8936C163.209 67.6278 168.49 58.8253 164.974 49.9041Z" fill="#8DFF6A"/>
<path d="M170.216 53.4824C173.305 62.9427 166.964 71.7991 161.409 78.8173C155.816 86.0033 150.055 93.0881 146.239 101.27C140.694 113.489 138.604 127.49 139.433 140.83C139.936 147.704 143.612 153.889 143.849 160.85C144.361 165.584 142.497 171.495 137.45 173.049C126.534 175.852 113.832 168.118 105.245 162.01C97.8664 156.475 91.4224 149.826 85.6606 142.696C79.976 135.618 75.2829 127.773 68.0268 122.243C62.8172 118.046 56.6091 115.215 49.9848 114.263C46.7667 113.741 42.0645 113.53 40.2751 109.989C38.7659 106.773 38.7596 103.321 37.2252 100.1C34.3757 91.7697 26.4095 83.4755 29.395 74.0896C33.2703 65.2931 43.3582 61.856 51.5645 58.4075C73.0729 50.5326 96.5266 50.855 118.963 48.1564C132.267 47.7729 164.849 36.2474 170.216 53.4824ZM168.893 53.8889C164.263 37.9494 131.459 48.8214 119.058 49.086C96.5834 51.5686 73.3027 51.3812 51.9832 59.4966C43.0595 63.3738 27.9706 68.707 30.4835 80.91C32.7912 89.6902 39.2384 97.0077 40.8693 106.145C41.5279 111.557 45.7526 111.809 50.2737 112.377C57.2085 113.304 63.8575 116.25 69.32 120.597C76.7059 126.227 81.5921 134.307 87.2566 141.405C92.9248 148.441 99.2542 154.983 106.45 160.395C113.555 165.672 121.737 170.189 130.504 171.593C132.643 171.787 134.876 171.923 136.804 171.191C147.955 166.16 137.833 149.722 137.579 141.017C136.793 127.289 138.988 113.075 144.743 100.554C148.708 92.1707 154.608 85.0094 160.21 77.8805C165.568 71.0763 171.738 62.9617 168.893 53.8889Z" fill="#94FF63"/>
<path d="M174.365 57.4938C176.848 67.6802 168.81 76.0507 162.582 82.9224C156.179 89.9107 149.867 97.0415 145.725 105.499C141.466 113.921 139.645 123.361 138.031 132.574C137.329 137.225 136.903 141.936 137.272 146.578C138.334 155.434 142.151 168.409 132.209 173.632C119.468 178.514 102.214 165.953 93.8679 157.031C87.2338 150.083 81.8773 141.968 76.9702 133.921C71.8638 125.854 64.555 120.066 56.4154 115.189C41.9762 113.783 46.4605 108.03 40.7688 97.1192C37.1327 89.3823 29.9394 82.5353 29.8078 73.4854C30.6595 63.9924 41.0989 59.7972 48.6576 56.4814C56.6779 53.1114 65.2609 51.0932 73.9012 50.2574C91.1135 48.3795 108.519 47.7542 125.779 48.983C134.385 49.2755 142.98 48.211 151.657 47.8464C159.813 47.4928 172.069 47.5029 174.365 57.4938ZM172.809 57.859C170.636 48.6488 159.319 49.0566 151.7 49.1461C143.097 49.4086 134.446 50.3636 125.74 50.0177C108.494 48.6832 91.1565 49.0284 74.0147 51.2031C65.4235 52.1153 57.0301 54.1704 49.1169 57.6023C42.0482 60.7874 32.0387 64.8509 31.274 73.5463C31.1595 77.6408 33.3729 81.5278 35.54 85.1655C38.905 90.6795 42.8517 96.1443 44.947 102.401C46.1332 106.133 46.3366 111.027 50.9098 112.141C53.0297 112.886 55.4313 112.931 57.4921 113.514C65.7387 118.253 73.541 124.592 78.6702 132.792C83.6319 140.964 88.8069 148.823 95.301 155.666C103.152 164.115 119.539 176.199 131.41 171.926C140.367 166.908 136.208 154.96 135.459 146.718C135.086 141.865 135.541 137.035 136.265 132.298C137.94 122.853 139.814 113.325 144.184 104.725C148.466 96.035 154.948 88.7648 161.356 81.8011C167.307 75.14 175.052 67.5566 172.809 57.859Z" fill="#CAFF2C"/>
<path d="M178.512 61.5206C180.212 71.6681 171.637 79.2409 165.097 85.5226C158.38 91.8907 151.731 98.3784 147.017 106.255C142.115 114.101 139.785 123.136 137.406 131.993C135.726 138.666 134.344 145.47 134.605 152.348C134.919 159.343 134.643 167.575 129.167 172.683C117.875 181.971 99.2793 169.421 91.497 160.407C85.2505 153.311 80.6621 145.005 76.5879 136.67C72.5922 128.233 66.398 121.583 59.446 115.427L59.8565 115.664C57.7327 114.995 55.4735 114.431 53.3756 113.078C51.2228 111.736 49.9007 109.338 49.3279 107.068C48.5189 102.619 46.725 98.7246 44.3835 94.9329C38.2415 84.5226 21.831 70.1195 36.8339 59.68C63.8788 41.4319 98.2133 47.8735 128.732 49.9539C137.638 50.4007 146.572 49.8208 155.568 50.023C164.019 50.239 176.755 51.059 178.512 61.5206ZM176.716 61.8143C175.048 52.2622 163.332 51.9492 155.522 51.4724C146.625 51.1478 137.645 51.6087 128.671 51.0006C102.366 48.7398 74.4271 44.0613 49.279 54.4707C43.3644 57.0428 36.807 59.8195 33.3066 65.4457C28.145 74.9829 41.5657 85.9434 45.8721 94.0045C48.2954 97.7817 50.3279 102.169 51.1562 106.569C51.719 108.604 52.7438 110.378 54.4514 111.43C56.1954 112.549 58.4725 113.118 60.6599 113.775C67.735 119.896 74.3641 127.155 78.4109 135.751C86.7215 153.28 100.659 174.25 122.158 173.855C132.048 172.372 133.241 160.618 132.668 152.428C132.402 145.347 133.828 138.312 135.551 131.516C137.98 122.489 140.396 113.273 145.408 105.275C150.283 97.1541 157.104 90.5338 163.821 84.1783C170.021 78.108 178.186 71.375 176.716 61.8143Z" fill="#FFE200"/>
<path d="M182.66 65.5629C183.59 75.7049 174.479 82.5138 167.619 88.2618C160.578 94.06 153.597 99.9705 148.357 107.325C142.878 114.645 139.993 123.3 137.047 131.888C134.857 138.347 132.855 144.868 131.784 151.596C130.829 160.57 129.187 171.807 119.829 175.909C108.604 180.095 95.7214 172.041 88.5336 163.767C79.1851 153.056 76.868 138.916 70.1153 126.909C67.89 122.982 65.1792 119.36 62.4969 115.615L62.8789 115.941C60.8125 114.916 58.5502 113.78 56.8415 111.81C55.1158 109.864 54.3666 107.314 53.8791 105.057C52.8718 100.699 50.5645 96.6781 47.9304 92.9405C34.2375 74.8862 18.0962 62.4394 48.7284 50.3299C75.2087 39.6909 104.412 46.9143 131.425 51.1291C140.597 52.3248 149.88 52.263 159.189 52.8462C167.863 53.4981 181.484 54.4854 182.66 65.5629ZM180.617 65.7533C179.412 55.7715 166.96 55.5269 159.061 54.5347C149.855 53.7514 140.513 53.6104 131.272 52.2186C104.406 47.4318 75.4096 40.7006 49.1719 51.447C43.1505 54.1044 36.0075 56.9526 33.1915 63.2513C29.8165 72.7808 44.5647 84.1737 49.3736 91.9043C52.1127 95.7092 54.6011 99.8799 55.756 104.615C56.268 106.862 56.9403 108.927 58.3514 110.49C59.7676 112.112 61.904 113.16 64.0194 114.212C69.5744 121.575 74.6948 129.689 77.6432 138.527C80.771 147.053 84.3245 155.561 90.0994 162.436C102.762 176.809 125.051 183.022 128.879 158.08C130.143 144.223 134.867 131.151 139.845 118.253C145.122 105.229 155.625 95.2008 166.312 86.6764C172.764 81.1347 181.337 75.2061 180.617 65.7533Z" fill="#FFA300"/>
<path d="M186.817 69.6226C186.993 79.8027 177.327 85.8954 170.129 91.1783C162.741 96.4625 155.43 101.875 149.709 108.784C146.837 112.214 144.347 115.957 142.304 119.935C136.678 132.195 131.379 144.978 127.89 158.04C126.026 164.742 122.764 171.752 116.693 175.721C105.975 182.346 92.2797 175.521 84.858 166.95C78.8 159.709 76.3902 150.372 74.3125 141.427C72.4915 132.472 69.4464 124.049 65.5912 115.778L65.8714 116.148C63.9971 114.601 62.0793 112.771 60.8435 110.462C59.6053 108.279 59.1475 105.78 58.4791 103.405C57.1028 98.9559 54.4517 94.9152 51.4951 91.1783C48.5403 87.4151 45.2037 83.9223 41.9552 80.3252C37.439 74.9507 30.8603 68.9432 31.8027 61.1344C33.6001 53.4561 42.003 50.2042 48.4222 47.4413C76.1284 36.4329 106.454 45.6823 134.021 52.3001C143.448 54.2313 153.096 54.7047 162.742 55.6883C171.646 56.7859 186.264 57.8948 186.817 69.6226ZM184.524 69.6772C183.939 59.3037 170.428 59.001 162.525 57.5437C152.982 56.3218 143.268 55.6028 133.778 53.4211C106.426 46.2501 76.2568 37.1927 48.8367 48.4872C42.73 51.2141 34.8485 54.3133 33.1662 61.3711C32.4885 68.6016 38.7719 74.0798 43.1546 79.222C46.4279 82.7667 49.8255 86.2403 52.8938 90.0569C55.956 93.8479 58.7904 98.0086 60.3453 102.823C61.0157 105.028 61.461 107.487 62.6258 109.479C63.7272 111.522 65.4708 113.162 67.3696 114.708L67.4706 114.93C71.3655 123.181 74.5744 131.984 76.4187 140.94C78.4749 149.714 80.8833 158.699 86.5893 165.49C93.2798 173.165 105.839 179.639 115.403 173.708C120.921 170.028 123.748 163.667 125.534 157.388C129.136 144.026 134.404 131.383 140.182 118.836C142.312 114.705 144.908 110.814 147.893 107.26C153.855 100.084 161.374 94.5593 168.771 89.2798C175.502 84.213 184.498 79.0538 184.524 69.6772Z" fill="#FF6C00"/>
<path d="M190.966 73.6973C190.288 84.4829 179.247 89.7858 171.363 94.9372C163.216 99.9908 155.258 105.38 149.04 112.533C142.529 119.637 138.921 128.552 134.927 137.217L128.874 150.329C124.224 160.085 120.43 171.693 110.313 177.319C97.5922 184 81.0005 174.931 76.1009 162.284C70.7572 148.539 73.6698 133.301 69.9368 119.341C68.6836 114.669 65.503 110.817 64.2493 106.064C62.2511 96.5485 55.2275 89.5049 48.6821 82.7388C41.3855 74.7401 23.9923 61.8974 36.2961 51.022C58.0082 35.0169 87.1142 38.8534 111.512 45.6889C120.821 48.0909 129.851 51.7243 139.122 54.1195C148.432 56.4018 158.003 57.3219 167.569 58.6963C176.387 60.1481 191.214 61.8409 190.966 73.6973ZM188.425 73.5837C188.599 63.349 174.838 62.5181 167.238 60.7575C157.794 59.1219 148.16 57.9188 138.804 55.3481C106.814 44.6989 67.529 29.8886 37.1206 51.966C29.8625 58.1428 34.5092 65.6161 39.7495 71.2933C46.2013 78.4445 53.7654 84.5987 59.6879 92.3169C61.9068 95.2646 63.909 98.4641 65.163 101.98C66.165 105.537 67.0836 108.715 68.9815 111.926C77.3909 127.029 71.9079 145.705 78.2331 161.412C82.6978 172.782 97.7209 181.105 109.119 175.119C118.576 169.694 121.95 158.682 126.511 149.285L132.591 136.128C141.408 114.697 150.191 104.641 170.013 92.7646C177.345 87.8244 187.566 83.4212 188.425 73.5837Z" fill="#FF3000"/>
<path d="M195.12 77.7877C193.566 88.8625 181.659 93.3671 173.226 98.228C164.512 102.905 156.027 108.039 149.278 115.109C142.247 122.135 138.146 131.21 133.404 139.837C124.028 155.442 114.728 182.224 92.6945 180.809C53.3487 172.718 79.342 134.836 70.2773 109.567C69.748 107.499 68.8831 104.389 68.2859 102.428C64.8908 93.2267 57.0932 86.3373 50.1212 79.6559C43.0674 72.3336 24.9342 59.83 35.3607 48.9111C62.2577 27.6238 99.5262 39.2764 128.336 50.4228C132.982 52.2416 137.532 54.2421 142.27 55.6112C151.749 58.4565 161.575 59.85 171.395 61.5919C180.371 63.4355 196.127 65.4081 195.12 77.7877ZM192.334 77.4748C193.298 67.1894 178.371 65.8732 170.955 63.8423C156.357 61.0828 141.505 57.7674 127.972 51.333C99.7073 39.7938 62.6157 28.5749 36.2364 49.75C26.6895 59.6466 44.8462 71.8627 51.2357 78.4423C59.3524 86.0415 68.6569 94.0177 71.2293 105.429L72.236 109.009C78.2642 125.914 70.2605 143.863 72.9512 160.997C74.477 170.66 83.8038 177.096 92.9517 178.27C112.986 179.555 122.299 152.837 130.986 138.527C135.784 129.746 140.095 120.363 147.286 113.185C154.339 105.788 163.144 100.482 171.902 95.7731C179.704 91.1142 190.651 87.46 192.334 77.4748Z" fill="#DF0000"/>
<path d="M73.9369 177.488C63.3729 170.935 64.4829 158 67.5894 147.734C71.6491 133.036 77.5336 118.04 73.0922 103.023C67.5255 88.6019 53.3076 80.1809 42.4921 69.606C38.646 65.9042 34.7317 62.1894 32.5118 57.1279C27.6099 44.7781 43.7542 38.9775 52.7403 36.1095C78.5718 28.6467 104.419 40.0878 128.194 49.2746C137.657 52.9902 147.041 57.7313 156.968 60.0673C166.973 62.8143 177.194 64.2754 187.135 67.5545C196.208 70.3188 202.863 76.8222 197.41 86.6143C193.072 93.6884 184.781 96.6899 177.86 100.112C173.172 102.284 168.528 104.455 164.093 106.971C155.214 111.934 147.228 118.507 141.501 126.866C138.698 131.018 136.138 135.626 133.452 140.019C121.46 159.588 100.888 195.596 73.9369 177.488ZM75.6592 174.94C104.577 194.35 126.076 144.104 139.139 125.22C145.145 116.457 153.559 109.569 162.69 104.481C167.25 101.899 171.98 99.695 176.665 97.5277C183.309 94.2258 190.924 91.5723 194.965 85.198C199.48 77.1219 193.649 72.5731 186.216 70.2094C176.517 67.0058 166.168 65.4877 156.254 62.7549C146.129 60.3252 136.458 55.9315 127.517 50.7632C105.27 39.4486 78.1043 31.1603 53.4637 38.4447C46.0582 41.1432 30.8035 45.7649 34.9763 56.1017C36.9713 60.5705 40.8077 64.1948 44.3786 67.57C59.957 82.0615 80.12 93.4015 77.4917 118.038C76.7893 128.691 73.1659 138.654 70.4969 148.516C67.7946 157.729 66.3544 169.255 75.6592 174.94Z" fill="#AD0000"/>
</svg>
