<?xml version="1.0" encoding="UTF-8"?>
<svg id="Layer_1" xmlns="http://www.w3.org/2000/svg" version="1.1" viewBox="0 0 512 512">
  <!-- Generator: Adobe Illustrator 29.5.1, SVG Export Plug-In . SVG Version: 2.1.0 Build 141)  -->
  <defs>
    <style>
      .st0 {
        fill: #fff;
      }

      .st1 {
        fill: #6100a3;
      }

      .st2 {
        fill: #90f;
      }
    </style>
  </defs>
  <path class="st0" d="M499.4,26.9L9.9,227.5v57.5l492.3,201.2v-57.5l-.4-400.1c0-1.2-1.3-2.1-2.4-1.6Z"/>
  <polygon class="st2" points="501.8 25.9 9.9 227.5 502.2 428.6 501.8 25.9"/>
  <polygon class="st1" points="502.2 506.1 9.9 304.9 9.9 227.5 502.2 428.6 502.2 506.1"/>
  <polygon class="st0" points="271.8 127.3 72.6 208.7 271.8 290.2 271.8 127.3"/>
  <polygon class="st0" points="470.9 45.9 271.8 127.3 470.9 208.8 470.9 45.9"/>
  <polygon class="st0" points="470.9 208.8 271.8 290.2 470.9 371.6 470.9 208.8"/>
  <polygon class="st1" points="470.9 392.1 72.6 229.1 72.6 208.7 470.9 371.6 470.9 392.1"/>
  <polygon class="st1" points="452.7 216.2 271.8 143.8 271.8 127.3 470.9 208.8 452.7 216.2"/>
</svg>