<?xml version="1.0" encoding="UTF-8"?>
<svg id="Layer_1" data-name="Layer 1" xmlns="http://www.w3.org/2000/svg" width="1920" height="450" viewBox="0 0 1920 450">
  <defs>
    <style>
      .cls-1 {
        stroke-width: 0px;
      }
    </style>
  </defs>
  <g>
    <path class="cls-1" d="m500.85,353.96c-16.57,0-30.61-3.87-42.12-11.63-11.51-7.75-19.61-18.32-24.31-31.71-4.7-13.38-5.13-28.46-1.3-45.25,3.83-16.78,10.82-31.81,20.97-45.09,10.14-13.28,22.26-23.79,36.36-31.55,14.09-7.75,28.89-11.63,44.4-11.63,12.53,0,23.51,2.6,32.95,7.81,9.43,5.21,16.74,12.27,21.93,21.19l19.65-86.04c1.11-4.88,3.55-8.81,7.31-11.79,3.76-2.97,7.97-4.46,12.65-4.46s8.48,1.49,10.77,4.46c2.29,2.98,2.88,6.91,1.77,11.79l-33.18,145.31c-3.83,16.79-11.15,31.87-21.96,45.25-10.82,13.38-23.69,23.95-38.63,31.71-14.94,7.76-30.7,11.63-47.27,11.63Zm6.55-28.68c10.83,0,21.09-2.6,30.78-7.81,9.68-5.2,18.01-12.37,24.99-21.51,6.97-9.13,11.74-19.33,14.31-30.59,2.62-11.47,2.51-21.67-.34-30.59-2.85-8.92-7.93-15.98-15.23-21.19-7.31-5.2-16.38-7.81-27.22-7.81s-20.83,2.6-30.62,7.81c-9.8,5.21-18.21,12.27-25.23,21.19-7.03,8.92-11.85,19.12-14.47,30.59-2.57,11.27-2.41,21.46.5,30.59,2.9,9.14,8.07,16.31,15.48,21.51,7.41,5.21,16.43,7.81,27.05,7.81Z"/>
    <g>
      <path class="cls-1" d="m629.44,134.41c-4.46,0-8.13-1.43-10.99-4.3-2.87-2.87-4.3-6.53-4.3-10.99s1.43-8.13,4.3-10.99c2.87-2.87,6.53-4.3,10.99-4.3h170.48c4.46,0,8.13,1.43,10.99,4.3,2.87,2.87,4.3,6.53,4.3,10.99s-1.43,8.13-4.3,10.99c-2.87,2.87-6.53,4.3-10.99,4.3h-170.48Zm85.4,218.28c-4.68,0-8.61-1.59-11.79-4.78-3.18-3.19-4.78-7.12-4.78-11.79V103.82h33.14v232.3c0,4.67-1.59,8.6-4.78,11.79-3.19,3.19-7.12,4.78-11.79,4.78Z"/>
      <path class="cls-1" d="m868.43,352.69c-4.68,0-8.61-1.59-11.79-4.78-3.18-3.19-4.78-7.12-4.78-11.79V120.39c0-4.88,1.59-8.87,4.78-11.95,3.19-3.08,7.12-4.62,11.79-4.62h57.36c15.93,0,30.06,3.35,42.38,10.04,12.32,6.69,21.93,15.88,28.84,27.56,6.9,11.69,10.36,25.28,10.36,40.79,0,14.45-3.46,27.3-10.36,38.56-6.91,11.26-16.52,20.07-28.84,26.45-12.32,6.37-26.45,9.56-42.38,9.56h-40.79v79.35c0,4.67-1.54,8.6-4.62,11.79-3.08,3.19-7.07,4.78-11.95,4.78Zm16.57-126.51h40.79c9.77,0,18.37-1.86,25.81-5.58,7.43-3.71,13.27-8.92,17.53-15.61,4.25-6.69,6.37-14.28,6.37-22.78,0-9.35-2.13-17.63-6.37-24.86-4.25-7.22-10.09-12.85-17.53-16.89-7.44-4.03-16.04-6.05-25.81-6.05h-40.79v91.77Zm115.67,126.51c-2.98,0-5.69-.64-8.13-1.91-2.44-1.27-4.52-3.29-6.21-6.05l-57.36-92.41,32.18-9.24,52.26,84.12c3.82,6.16,4.35,11.95,1.59,17.37-2.76,5.42-7.54,8.13-14.34,8.13Z"/>
      <path class="cls-1" d="m1069.82,352.69c-4.68,0-8.61-1.59-11.79-4.78-3.18-3.19-4.78-7.12-4.78-11.79V120.39c0-4.88,1.59-8.87,4.78-11.95,3.19-3.08,7.12-4.62,11.79-4.62s8.87,1.54,11.95,4.62c3.08,3.08,4.62,7.07,4.62,11.95v215.73c0,4.67-1.54,8.6-4.62,11.79-3.08,3.19-7.07,4.78-11.95,4.78Z"/>
      <path class="cls-1" d="m1166.36,352.69c-4.68,0-8.55-1.59-11.63-4.78-3.08-3.19-4.62-7.12-4.62-11.79V120.39c0-4.88,1.54-8.87,4.62-11.95,3.08-3.08,6.95-4.62,11.63-4.62,5.1,0,9.34,2.02,12.75,6.05l138.94,184.82V120.39c0-4.88,1.59-8.87,4.78-11.95,3.19-3.08,7.11-4.62,11.79-4.62s8.81,1.54,11.79,4.62c2.97,3.08,4.46,7.07,4.46,11.95v215.73c0,4.67-1.49,8.6-4.46,11.79-2.98,3.19-6.91,4.78-11.79,4.78-2.13,0-4.41-.48-6.85-1.43-2.44-.96-4.41-2.39-5.89-4.3l-138.94-184.82v173.99c0,4.67-1.54,8.6-4.62,11.79-3.08,3.19-7.07,4.78-11.95,4.78Z"/>
      <path class="cls-1" d="m1431.16,352.69c-4.68,0-8.61-1.59-11.79-4.78-3.18-3.19-4.78-7.12-4.78-11.79V120.39c0-4.88,1.59-8.87,4.78-11.95,3.19-3.08,7.12-4.62,11.79-4.62s8.87,1.54,11.95,4.62c3.08,3.08,4.62,7.07,4.62,11.95v215.73c0,4.67-1.54,8.6-4.62,11.79-3.08,3.19-7.07,4.78-11.95,4.78Z"/>
      <path class="cls-1" d="m1499.67,134.41c-4.46,0-8.13-1.43-10.99-4.3-2.87-2.87-4.3-6.53-4.3-10.99s1.43-8.13,4.3-10.99c2.87-2.87,6.53-4.3,10.99-4.3h170.48c4.46,0,8.13,1.43,10.99,4.3,2.87,2.87,4.3,6.53,4.3,10.99s-1.43,8.13-4.3,10.99c-2.87,2.87-6.53,4.3-10.99,4.3h-170.48Zm85.4,218.28c-4.68,0-8.61-1.59-11.79-4.78-3.18-3.19-4.78-7.12-4.78-11.79V103.82h33.14v232.3c0,4.67-1.59,8.6-4.78,11.79-3.19,3.19-7.12,4.78-11.79,4.78Z"/>
      <path class="cls-1" d="m1796.66,352.69c-4.46,0-8.29-1.59-11.47-4.78-3.18-3.19-4.78-7.12-4.78-11.79v-74.25l-85.08-132.24c-2.76-4.46-3.82-8.65-3.18-12.59.64-3.93,2.49-7.12,5.57-9.56,3.08-2.44,6.64-3.66,10.68-3.66,3.61,0,6.48.8,8.61,2.39,2.12,1.59,4.14,3.88,6.05,6.85l80.94,128.42h-12.75l82.21-129.69c1.7-2.55,3.72-4.51,6.05-5.89,2.34-1.38,5.2-2.07,8.61-2.07,3.82,0,7.01,1.33,9.56,3.98,2.55,2.66,4.03,5.95,4.46,9.88.42,3.93-.64,7.92-3.18,11.95l-85.72,132.24v74.25c0,4.67-1.59,8.6-4.78,11.79-3.19,3.19-7.12,4.78-11.79,4.78Z"/>
    </g>
  </g>
  <polygon class="cls-1" points="17.78 225 336.44 408.98 336.44 225 177.11 316.99 177.11 133.01 336.44 225 336.44 41.02 17.78 225"/>
</svg>