<svg xmlns="http://www.w3.org/2000/svg" xmlns:xlink="http://www.w3.org/1999/xlink" width="500" zoomAndPan="magnify" viewBox="0 0 375 374.999991" height="500" preserveAspectRatio="xMidYMid meet" version="1.0"><defs><clipPath id="1b5241fe35"><path d="M 24 24 L 213 24 L 213 213 L 24 213 Z M 24 24 " clip-rule="nonzero"/></clipPath><clipPath id="3613690d4c"><path d="M 49.527344 222.945312 L 14.179688 187.601562 L 187.457031 14.324219 L 222.804688 49.667969 Z M 49.527344 222.945312 " clip-rule="nonzero"/></clipPath><clipPath id="6ff1ebd0d6"><path d="M 31.851562 205.273438 C 22.09375 195.511719 22.09375 179.6875 31.851562 169.929688 L 169.785156 31.996094 C 179.542969 22.238281 195.367188 22.238281 205.128906 31.996094 C 214.890625 41.757812 214.890625 57.582031 205.128906 67.34375 L 67.199219 205.273438 C 57.4375 215.035156 41.613281 215.035156 31.851562 205.273438 Z M 31.851562 205.273438 " clip-rule="nonzero"/></clipPath><clipPath id="b48d5e9e9d"><path d="M 162 24 L 351 24 L 351 213 L 162 213 Z M 162 24 " clip-rule="nonzero"/></clipPath><clipPath id="c703859dd5"><path d="M 152.191406 49.679688 L 187.539062 14.332031 L 360.816406 187.609375 L 325.46875 222.957031 Z M 152.191406 49.679688 " clip-rule="nonzero"/></clipPath><clipPath id="12c8896ac3"><path d="M 169.867188 32.003906 C 179.625 22.246094 195.449219 22.246094 205.210938 32.003906 L 343.140625 169.9375 C 352.902344 179.695312 352.902344 195.519531 343.140625 205.28125 C 333.382812 215.042969 317.558594 215.042969 307.796875 205.28125 L 169.867188 67.351562 C 160.105469 57.589844 160.105469 41.765625 169.867188 32.003906 Z M 169.867188 32.003906 " clip-rule="nonzero"/></clipPath><clipPath id="b03cc6968e"><path d="M 162 162 L 351 162 L 351 351 L 162 351 Z M 162 162 " clip-rule="nonzero"/></clipPath><clipPath id="f33705cfc8"><path d="M 187.539062 360.652344 L 152.125 325.238281 L 325.453125 151.910156 L 360.867188 187.324219 Z M 187.539062 360.652344 " clip-rule="nonzero"/></clipPath><clipPath id="3b5403dbc2"><path d="M 169.832031 342.945312 C 165.136719 338.25 162.496094 331.878906 162.496094 325.238281 C 162.496094 318.597656 165.136719 312.226562 169.832031 307.53125 L 307.695312 169.667969 C 312.390625 164.972656 318.761719 162.332031 325.402344 162.332031 C 332.042969 162.332031 338.414062 164.972656 343.109375 169.667969 C 347.804688 174.363281 350.441406 180.734375 350.441406 187.375 C 350.441406 194.015625 347.804688 200.382812 343.109375 205.082031 L 205.246094 342.945312 C 200.546875 347.640625 194.179688 350.277344 187.539062 350.277344 C 180.898438 350.277344 174.527344 347.640625 169.832031 342.945312 Z M 169.832031 342.945312 " clip-rule="nonzero"/></clipPath><clipPath id="6a7a48b941"><path d="M 71 209 L 213 209 L 213 351 L 71 351 Z M 71 209 " clip-rule="nonzero"/></clipPath><clipPath id="27e26554fc"><path d="M 60.992188 234.1875 L 96.339844 198.84375 L 222.808594 325.3125 L 187.464844 360.660156 Z M 60.992188 234.1875 " clip-rule="nonzero"/></clipPath><clipPath id="1118cfc3bd"><path d="M 78.664062 216.515625 C 88.425781 206.753906 104.25 206.753906 114.011719 216.515625 L 205.132812 307.636719 C 214.894531 317.398438 214.894531 333.222656 205.132812 342.984375 C 195.375 352.746094 179.550781 352.746094 169.789062 342.984375 L 78.664062 251.859375 C 68.90625 242.101562 68.90625 226.273438 78.664062 216.515625 Z M 78.664062 216.515625 " clip-rule="nonzero"/></clipPath><clipPath id="bc967a2262"><path d="M 125 200 L 223 200 L 223 297 L 125 297 Z M 125 200 " clip-rule="nonzero"/></clipPath><clipPath id="8928151916"><path d="M 150.921875 307.3125 L 115.542969 271.933594 L 197.355469 190.121094 L 232.734375 225.5 Z M 150.921875 307.3125 " clip-rule="nonzero"/></clipPath><clipPath id="0b3bef0287"><path d="M 133.234375 289.621094 C 123.464844 279.851562 123.464844 264.011719 133.234375 254.246094 L 179.546875 207.929688 C 189.316406 198.160156 205.15625 198.160156 214.925781 207.929688 C 224.695312 217.699219 224.695312 233.539062 214.925781 243.308594 L 168.609375 289.621094 C 158.839844 299.390625 143.003906 299.390625 133.234375 289.621094 Z M 133.234375 289.621094 " clip-rule="nonzero"/></clipPath><clipPath id="0ee9467c3a"><path d="M 71 129 L 201 129 L 201 259 L 71 259 Z M 71 129 " clip-rule="nonzero"/></clipPath><clipPath id="e9c96dcd14"><path d="M 96.578125 269.078125 L 60.988281 233.488281 L 175.960938 118.515625 L 211.550781 154.105469 Z M 96.578125 269.078125 " clip-rule="nonzero"/></clipPath><clipPath id="a6646390f3"><path d="M 78.785156 251.28125 C 68.957031 241.453125 68.957031 225.519531 78.785156 215.691406 L 158.035156 136.441406 C 167.863281 126.613281 183.796875 126.613281 193.625 136.441406 C 203.453125 146.269531 203.453125 162.203125 193.625 172.03125 L 114.375 251.28125 C 104.546875 261.109375 88.613281 261.109375 78.785156 251.28125 Z M 78.785156 251.28125 " clip-rule="nonzero"/></clipPath></defs><g clip-path="url(#1b5241fe35)"><g clip-path="url(#3613690d4c)"><g clip-path="url(#6ff1ebd0d6)"><path fill="#ffbd59" d="M 49.527344 222.945312 L 14.179688 187.601562 L 187.457031 14.324219 L 222.804688 49.667969 Z M 49.527344 222.945312 " fill-opacity="1" fill-rule="nonzero"/></g></g></g><g clip-path="url(#b48d5e9e9d)"><g clip-path="url(#c703859dd5)"><g clip-path="url(#12c8896ac3)"><path fill="#ff914d" d="M 152.191406 49.679688 L 187.539062 14.332031 L 360.816406 187.609375 L 325.46875 222.957031 Z M 152.191406 49.679688 " fill-opacity="1" fill-rule="nonzero"/></g></g></g><g clip-path="url(#b03cc6968e)"><g clip-path="url(#f33705cfc8)"><g clip-path="url(#3b5403dbc2)"><path fill="#004aad" d="M 187.539062 360.652344 L 152.125 325.238281 L 325.453125 151.910156 L 360.867188 187.324219 Z M 187.539062 360.652344 " fill-opacity="1" fill-rule="nonzero"/></g></g></g><g clip-path="url(#6a7a48b941)"><g clip-path="url(#27e26554fc)"><g clip-path="url(#1118cfc3bd)"><path fill="#004aad" d="M 60.992188 234.1875 L 96.339844 198.84375 L 222.808594 325.3125 L 187.464844 360.660156 Z M 60.992188 234.1875 " fill-opacity="1" fill-rule="nonzero"/></g></g></g><g clip-path="url(#bc967a2262)"><g clip-path="url(#8928151916)"><g clip-path="url(#0b3bef0287)"><path fill="#004aad" d="M 150.921875 307.3125 L 115.542969 271.933594 L 197.21875 190.257812 L 232.597656 225.636719 Z M 150.921875 307.3125 " fill-opacity="1" fill-rule="nonzero"/></g></g></g><g clip-path="url(#0ee9467c3a)"><g clip-path="url(#e9c96dcd14)"><g clip-path="url(#a6646390f3)"><path fill="#004aad" d="M 96.578125 269.078125 L 60.988281 233.488281 L 175.824219 118.652344 L 211.414062 154.242188 Z M 96.578125 269.078125 " fill-opacity="1" fill-rule="nonzero"/></g></g></g></svg>