<svg fill="none" height="82" width="82" xmlns="http://www.w3.org/2000/svg"><path d="M41 81.34c-22.091 0-40-17.909-40-40 0-22.092 17.909-40 40-40s40 17.908 40 40c0 22.091-17.909 40-40 40z" fill="#000" stroke="#000" stroke-miterlimit="11.339" stroke-width="1.237"/><path d="M63.067 19.091c1.686 1.77 3.078 3.26 3.092 3.289.014.042-1.504 1.532-3.373 3.303-1.87 1.785-3.5 3.345-3.612 3.443l-.211.197.38.632c3.33 5.51 4.019 12.144 1.925 18.244-.394 1.152-1.068 2.628-1.645 3.598-.28.478-.407.787-.38.843s1.73 1.855 3.782 4.005c2.052 2.137 3.724 3.922 3.752 3.95.014.042-5.734 5.594-6.282 6.043l-.211.183-3.247-3.387a2766.59 2766.59 0 0 1-3.71-3.893l-.478-.478-.45.281c-2.29 1.462-4.975 2.474-7.94 3.008-1.49.267-4.33.337-5.918.14-3.064-.351-6.1-1.377-8.587-2.88l-.647-.395-.688.675c-1.504 1.462-7.126 6.803-7.182 6.83s-6.227-6.422-6.213-6.507c.014-.042 4.245-4.104 6.83-6.535l.858-.815-.393-.647c-3.303-5.495-3.992-12.157-1.855-18.3.309-.899 1.25-2.922 1.799-3.85l.267-.464-3.613-3.78c-1.981-2.067-3.598-3.795-3.583-3.838.056-.14 6.38-6.113 6.465-6.113.056 0 1.644 1.616 3.542 3.612 1.897 1.981 3.471 3.612 3.513 3.626.028.014.211-.07.38-.197.478-.323 1.686-.984 2.36-1.293 2.053-.942 3.964-1.518 6.185-1.841 1.153-.169 4.61-.197 5.678-.042 2.558.365 4.652.998 6.789 2.066.618.295 1.335.688 1.616.857l.506.31.576-.563c.31-.31 1.715-1.63 3.106-2.966a349.34 349.34 0 0 0 3.149-3.007l.618-.605zm-23.598 9.164a13.02 13.02 0 0 0-6.072 2.319c-.941.66-2.347 2.066-3.008 3.008-3.752 5.312-3.035 12.536 1.687 16.964 4.034 3.766 9.867 4.61 14.772 2.108 3.541-1.813 6.043-5.13 6.844-9.108.253-1.265.253-3.626 0-4.877-.239-1.236-.562-2.122-1.166-3.359a12.896 12.896 0 0 0-13.057-7.055z" fill="#fff"/></svg>