<svg width="15" height="15" viewBox="0 0 15 15" fill="none" xmlns="http://www.w3.org/2000/svg">
<g clip-path="url(#clip0_7636_80920)">
<path d="M7.8335 14.5684C11.6995 14.5684 14.8335 11.4343 14.8335 7.56836C14.8335 3.70237 11.6995 0.568359 7.8335 0.568359C3.96751 0.568359 0.833496 3.70237 0.833496 7.56836C0.833496 11.4343 3.96751 14.5684 7.8335 14.5684Z" fill="#FF0025"/>
<path d="M7.79304 4.10547C7.65923 4.10547 7.55078 4.21391 7.55078 4.34772V10.8063C7.55078 10.9401 7.65923 11.0485 7.79304 11.0485C7.92682 11.0485 8.03529 10.9401 8.03529 10.8063V4.34772C8.03529 4.21391 7.92682 4.10547 7.79304 4.10547Z" fill="#1F2333"/>
<path d="M7.79304 4.10547C7.92682 4.10547 8.03529 4.21391 8.03529 4.34772V10.8063C8.03529 10.9401 7.92682 11.0485 7.79304 11.0485C7.65923 11.0485 7.55078 10.9401 7.55078 10.8063V4.34772C7.55078 4.21391 7.65923 4.10547 7.79304 4.10547Z" stroke="#1F2333"/>
<path d="M11.3195 7.56647C11.3195 7.43266 11.2111 7.32422 11.0773 7.32422H4.61872C4.48494 7.32422 4.37646 7.43266 4.37646 7.56647C4.37646 7.70026 4.48494 7.80873 4.61872 7.80873H11.0773C11.2111 7.80873 11.3195 7.70026 11.3195 7.56647Z" fill="#1F2333"/>
<path d="M11.3195 7.56647C11.3195 7.70026 11.2111 7.80873 11.0773 7.80873H4.61872C4.48494 7.80873 4.37646 7.70026 4.37646 7.56647C4.37646 7.43266 4.48494 7.32422 4.61872 7.32422H11.0773C11.2111 7.32422 11.3195 7.43266 11.3195 7.56647Z" stroke="#1F2333"/>
<path d="M10.3061 10.0449C10.4007 9.95029 10.4007 9.79691 10.3061 9.7023L5.73925 5.13541C5.64464 5.0408 5.49125 5.0408 5.39664 5.13541C5.30203 5.23 5.30203 5.38341 5.39664 5.47799L9.96353 10.0449C10.0581 10.1395 10.2115 10.1395 10.3061 10.0449Z" fill="#1F2333"/>
<path d="M10.3061 10.0449C10.2115 10.1395 10.0581 10.1395 9.96353 10.0449L5.39664 5.47799C5.30203 5.38341 5.30203 5.23 5.39664 5.13541C5.49125 5.0408 5.64464 5.0408 5.73925 5.13541L10.3061 9.7023C10.4007 9.79691 10.4007 9.95029 10.3061 10.0449Z" stroke="#1F2333"/>
<path d="M4.38199 10.9593C4.47658 11.0539 4.62999 11.0539 4.72457 10.9593L11.202 4.48193C11.2966 4.38731 11.2966 4.23393 11.202 4.13932C11.1073 4.04471 10.954 4.04471 10.8593 4.13932L4.38199 10.6167C4.28738 10.7113 4.28738 10.8647 4.38199 10.9593Z" fill="#1F2333"/>
<path d="M4.38199 10.9593C4.28738 10.8647 4.28738 10.7113 4.38199 10.6167L10.8593 4.13932C10.954 4.04471 11.1073 4.04471 11.202 4.13932C11.2966 4.23393 11.2966 4.38731 11.202 4.48193L4.72457 10.9593C4.62999 11.0539 4.47658 11.0539 4.38199 10.9593Z" stroke="#1F2333"/>
</g>
<defs>
<clipPath id="clip0_7636_80920">
<rect width="14" height="14" fill="white" transform="translate(0.833496 0.568359)"/>
</clipPath>
</defs>
</svg>
