<svg width="22" height="24" viewBox="0 0 22 24" fill="none" xmlns="http://www.w3.org/2000/svg">
<path d="M10.7145 0L21.429 6.18601V13.796C21.429 15.5309 21.429 16.3983 21.1767 17.1748C20.9534 17.8618 20.5883 18.4943 20.1049 19.0312C19.5586 19.6379 18.8074 20.0716 17.305 20.939L12.0032 24L12.0033 16.0836C12.0033 14.0907 13.7219 12.4751 15.7149 12.4751L15.6118 9.89762C13.6187 9.89762 11.8458 10.8402 10.7145 12.3038C9.58316 10.8402 7.81026 9.89762 5.81723 9.89762L5.71413 12.4751C7.70706 12.4751 9.42574 14.0907 9.42574 16.0836L9.42574 24L4.12401 20.939C2.62161 20.0716 1.87042 19.6379 1.32409 19.0312C0.840699 18.4943 0.475544 17.8618 0.252304 17.1748C0 16.3983 0 15.5309 0 13.7961V6.18601L10.7145 0Z" fill="#FF6C47"/>
</svg>
