<svg fill="none" height="2471" viewBox="0 0 5943 2471" width="5943" xmlns="http://www.w3.org/2000/svg" xmlns:xlink="http://www.w3.org/1999/xlink"><radialGradient id="a" cx="0" cy="0" gradientTransform="matrix(-5488.07866731 -171.89454431 554.9505496 -17717.91120441 5820.75 2282.88)" gradientUnits="userSpaceOnUse" r="1"><stop offset="0" stop-color="#ffbc95"/><stop offset=".4679" stop-color="#ff7a78"/><stop offset="1" stop-color="#664eff"/></radialGradient><g fill="#fff"><path d="m1422.14 16.6309-56.29 348.4581h-256.11l56.36-348.4581h-310.205l-162.35 1004.4291h310.205l56.78-351.423h256.11l-56.85 351.423h310.2l162.35-1004.4291z"/><path d="m1945.46 1092.13h-264.53l.07-.71h-310.13l-.14.71h-276.55l-48.22 304.55h275.56l-113 699.18h310.13l113-699.18h265.66z"/><path d="m3749.98 2095.86h-310.2l162.35-1004.44h310.2z"/><path d="m3553.12 1092.13h-264.59l.14-.71h-310.21l-.14.71h-276.55l-48.15 304.55h275.49l-113 699.18h310.21l112.99-699.18h265.66z"/><path d="m3062.33 717.507 113.27-700.8761h-310.13l-162.35 1004.4291h279.8 434.23l49.07-303.553z"/><path d="m2646.19 148.149c-172.74-199.897-504.65-196.2201-741.18 8.202-236.59 204.493-288.28 532.304-115.54 732.201 172.75 199.898 504.59 196.218 741.18-8.273 236.6-204.422 288.29-532.233 115.54-732.13zm-300.51 518.091c-96.66 83.579-232.29 85.064-302.92 3.394-70.64-81.67-49.5-215.665 47.23-299.244 96.66-83.579 232.28-85.064 302.92-3.394 70.57 81.741 49.43 215.736-47.23 299.244z"/><path d="m4833.32 1223.43c-172.74-199.89-504.58-196.22-741.18 8.28-236.59 204.49-288.28 532.3-115.54 732.2 172.75 199.9 504.59 196.22 741.18-8.27 236.53-204.5 288.29-532.31 115.54-732.21zm-300.59 518.1c-96.66 83.57-232.28 85.06-302.92 3.39s-49.49-215.67 47.24-299.24c96.66-83.58 232.28-85.07 302.92-3.4 70.64 81.74 49.5 215.67-47.24 299.25z"/><path d="m4081.75 16.6309h-152.24-310.2l-162.35 1004.4291h276.26 196.22c223.94 0 526.43-219.125 566.03-502.672 39.67-283.688-139.51-501.7571-413.72-501.7571zm101.96 520.9901c-34.65 137.602-158.03 175.856-213.47 175.856h-153.3l63.57-393.359h142.9c98.93.07 194.95 79.902 160.3 217.503z"/><path d="m1032.1 1197.91-48.862 358.99s-42.567-76.36-69.295-99.13c-26.729-22.77-105.924-76.23-185.119-73.75-79.195 2.47-93.549 26.23-37.618 53.95 55.932 27.72 191.554 60.38 255.405 159.38 63.849 98.99 66.329 380.63-210.857 483.58-277.183 102.96-440.876-65.97-471.211-104.29l55.437-352.07s58.052 105.29 141.207 148.85c83.155 43.55 186.745 33.65 213.19 19.16 26.375-14.5-105.569-48.86-182.785-95.67-77.215-46.88-183.492-121.76-124.095-364.3 59.467-242.61 482.807-360.408 664.603-134.7z"/><path d="m5632.42 1091.42-68.8 425.82-208.03-425.82h-310.14l-162.35 1004.44h310.14l70.35-435.08 206.48 435.08h4.17 306.03l162.35-1004.44z"/></g><path d="m1572.18 2218.96c-1583.331 47.51-1571.663867 225.7-1571.663867 225.7 162.066867-5.51 629.812867 3.4 1273.763867 12.31 741.47 10.25 1716.7 20.57 2728.35 8.76 1894.67-22.06 1780.4-206.54 1780.4-206.54-829.07-16.55-3052.69-58.05-3052.69-58.05-307.44-760.28-158.18-1109.58-158.18-1109.58-665.59 0-999.98 1127.4-999.98 1127.4z" fill="url(#a)"/></svg>