<svg xmlns="http://www.w3.org/2000/svg" xmlns:xlink="http://www.w3.org/1999/xlink" style="width: 100%; height: 100%" viewBox="0 0 28 30" preserveAspectRatio="none" width="28" height="30"><defs><svg width="28" height="30" viewBox="-3 -3 28 30" fill="none" xmlns="http://www.w3.org/2000/svg" id="svg1475461799_871">
<path opacity="0.6" fill-rule="evenodd" clip-rule="evenodd" d="M13.7223 7.98962H7.61287C7.37224 7.98962 7.17716 7.79455 7.17716 7.55391V1.0182C7.17716 0.777565 6.98209 0.582489 6.74145 0.582489H0.632003C0.391365 0.582489 0.196289 0.777565 0.196289 1.0182V22.8039C0.196289 23.0445 0.391365 23.2396 0.632003 23.2396H8.92258V19.287C7.87936 18.6843 7.17751 17.5579 7.17751 16.2677C7.17751 14.3426 8.74023 12.782 10.6679 12.782C12.5957 12.782 14.1584 14.3426 14.1584 16.2677C14.1584 17.558 13.4564 18.6845 12.413 19.2872V23.2396H20.7032C20.9438 23.2396 21.1389 23.0445 21.1389 22.8039V1.0182C21.1389 0.777566 20.9438 0.582489 20.7032 0.582489H14.5937C14.3531 0.582489 14.158 0.777565 14.158 1.0182V7.55391C14.158 7.79455 13.963 7.98962 13.7223 7.98962Z" fill="#DEF60A"></path>
</svg></defs><use href="#svg1475461799_871"></use></svg>