<?xml version="1.0" encoding="UTF-8" standalone="no"?>
<svg
   width="39"
   height="40"
   viewBox="0 0 39 40"
   fill="none"
   version="1.1"
   id="svg3"
   xmlns="http://www.w3.org/2000/svg"
   xmlns:svg="http://www.w3.org/2000/svg">
  <defs
     id="defs3" />
  <path
     d="m 13.3592,0.76443 c 0.2334,-0.297043 0.6812,-0.303485 0.923,-0.013278 l 5.1672,6.200628 c 0.1762,0.21142 0.184,0.5162 0.0189,0.73636 l -6.6652,8.88696 c -0.1121,0.1495 -0.2881,0.2375 -0.475,0.2375 H 1.97161 c -0.49544,0 -0.77297,-0.571 -0.46688,-0.9605 z"
     fill="#7f4afe"
     id="path1" />
  <path
     d="M 26.1408,0.76443 C 25.9074,0.467387 25.4596,0.460945 25.2178,0.751152 L 20.0506,6.95178 c -0.1762,0.21142 -0.184,0.5162 -0.0189,0.73636 l 6.6652,8.88696 c 0.1121,0.1495 0.2881,0.2375 0.475,0.2375 h 10.3565 c 0.4954,0 0.773,-0.571 0.4669,-0.9605 z"
     fill="#7f4afe"
     id="path2" />
  <path
     fill-rule="evenodd"
     clip-rule="evenodd"
     d="m 1.34368,20.375 c -0.32792,0 -0.594697,0.2673 -0.584614,0.595 C 1.0734,31.1881 9.45559,39.375 19.7499,39.375 c 10.2944,0 18.6766,-8.1869 18.9909,-18.405 0.0101,-0.3277 -0.2567,-0.595 -0.5846,-0.595 H 27.4687 c -0.3279,0 -0.5912,0.2668 -0.6181,0.5936 -0.3017,3.6573 -3.3655,6.5314 -7.1007,6.5314 -3.7351,0 -6.799,-2.8741 -7.1006,-6.5314 -0.027,-0.3268 -0.2902,-0.5936 -0.6181,-0.5936 z"
     fill="#0166ff"
     id="path3" />
</svg>
