<?xml version="1.0" encoding="UTF-8" standalone="no"?>
<svg
   width="39"
   height="40"
   viewBox="0 0 39 40"
   fill="none"
   version="1.1"
   id="svg3"
   xml:space="preserve"
   xmlns="http://www.w3.org/2000/svg"
   xmlns:svg="http://www.w3.org/2000/svg"><defs
     id="defs3"><linearGradient
       id="paint0_linear_135_35695"
       x1="4.1977301"
       y1="38.344101"
       x2="101.171"
       y2="-13.2873"
       gradientUnits="userSpaceOnUse"><stop
         stop-color="#DE6B38"
         id="stop4" /><stop
         offset="1"
         stop-color="#7163BB"
         id="stop5" /></linearGradient><linearGradient
       id="paint1_linear_135_35695"
       x1="50.7085"
       y1="16.246799"
       x2="58.384602"
       y2="11.7436"
       gradientUnits="userSpaceOnUse"><stop
         stop-color="#DE6B38"
         id="stop6" /><stop
         offset="1"
         stop-color="#7163BB"
         id="stop7" /></linearGradient><linearGradient
       id="paint2_linear_135_35695"
       x1="83.329597"
       y1="22.4739"
       x2="90.954002"
       y2="20.183399"
       gradientUnits="userSpaceOnUse"><stop
         stop-color="#DE6B38"
         id="stop8" /><stop
         offset="1"
         stop-color="#7163BB"
         id="stop9" /></linearGradient><linearGradient
       id="paint3_linear_135_35695"
       x1="25.7533"
       y1="49.8787"
       x2="27.814501"
       y2="46.188702"
       gradientUnits="userSpaceOnUse"><stop
         stop-color="#DE6B38"
         id="stop10" /><stop
         offset="1"
         stop-color="#7163BB"
         id="stop11" /></linearGradient></defs><rect
     style="fill:#0c0e0f;fill-opacity:1"
     id="rect3"
     width="65.244415"
     height="53.540775"
     x="-13.387775"
     y="-7.4885249" /><g
     style="fill:none"
     id="g3"
     transform="matrix(0.28038505,0,0,0.28038505,0.44896863,7.2452371)"><path
       d="m 81.0989,10.6301 c 0.4316,-0.81444 1.1215,-1.46704 1.965,-1.85872 1.1593,-0.53258 2.3321,-0.58641 3.4116,0.17385 0.3647,0.26081 0.6556,0.60937 0.8448,1.01226 0.9726,2.09791 1.9405,4.19951 2.8291,6.34031 1.4271,3.4579 3.3609,6.6719 4.941,10.0597 2.2441,4.8185 4.507,9.6261 6.7886,14.4227 1.307,2.7462 2.545,5.5543 4.187,8.1419 0.449,0.6817 0.941,1.3354 1.472,1.9573 0.224,0.2545 0.503,0.4569 0.816,0.5926 2.395,1.0908 4.975,1.2995 7.547,1.4595 1.312,0.0829 2.6,-0.0929 3.903,-0.0934 2.497,0.0043 4.993,0.0086 7.477,0.0938 1.645,0.0586 3.289,0.2472 4.926,0.4177 0.632,0.088 1.258,0.2188 1.873,0.3916 0.256,0.0718 0.504,0.1717 0.738,0.2977 1.335,0.6798 1.602,1.8197 0.682,2.9773 -0.766,0.9773 -1.758,1.7608 -2.892,2.2865 -2.419,1.0817 -4.941,1.9246 -7.529,2.5166 -2.552,0.6231 -5.085,1.3177 -7.6,2.0837 -3.847,1.2082 -7.791,2.0986 -11.79,2.6619 -2.662,0.3416 -5.345,0.5088 -8.0302,0.5007 -2.4143,0.0091 -4.8254,-0.1724 -7.2468,-0.2595 -3.6933,-0.1353 -7.3759,-0.4082 -11.0644,-0.7078 -5.3998,-0.3963 -10.824,0.2078 -15.9916,1.7812 -3.4889,1.0151 -6.9914,1.9941 -10.468,3.0973 -1.6378,0.5193 -3.2217,1.27 -4.7841,1.945 -2.0653,0.8846 -4.1077,1.8412 -6.192,2.6977 -5.0751,2.1084 -10.3605,3.4432 -15.9335,3.4623 -2.9257,0.0687 -5.8528,-0.1138 -8.748,-0.5454 -1.729,-0.2977 -3.4758,-0.4325 -5.1728,-1.0218 C 6.62176,75.5964 2.99882,72.0023 1.71156,66.3817 1.36278,64.9192 1.35004,63.3993 1.67432,61.9334 1.9986,60.4675 2.6517,59.0927 3.58574,57.9097 c 0.91539,-1.2014 1.79815,-2.4671 2.78423,-3.6304 1.9691,-2.3724 4.41923,-4.3132 7.19433,-5.6987 2.5822,-1.308 5.4052,-2.0935 8.3032,-2.3104 1.8531,-0.1749 3.7199,-0.1653 5.5722,0.0286 0.631,0.069 1.2517,0.2324 1.8789,0.3358 0.2916,0.0319 0.5744,0.0629 0.94,0.1029 0.0781,-0.2255 0.1374,-0.457 0.1771,-0.6922 0.1423,-1.9845 0.2672,-3.9709 0.4009,-5.9564 0.0572,-0.523 0.0836,-1.0451 0.1055,-1.5677 0.0444,-1.0494 0.0535,-2.0983 0.1192,-3.1411 0.1485,-2.3222 0.123,-4.6635 0.638,-6.9543 0.0724,-0.3602 0.1124,-0.726 0.1196,-1.0933 0.0762,-1.8225 0.7286,-3.4779 1.5087,-5.0932 0.0769,-0.1667 0.1681,-0.3265 0.2725,-0.4778 1.4931,-2.005 3.3106,-3.7539 5.3802,-5.1771 4.0088,-2.772 8.4685,-4.8512 13.1888,-6.1489 3.301,-0.91646 6.6781,-1.54563 10.0925,-1.88026 3.1534,-0.27588 6.3305,-0.17 9.4602,0.31529 1.0785,0.16576 2.1675,0.31533 3.2384,0.38916 1.861,0.12146 3.694,0.5166 5.4381,1.17231 0.2164,0.0757 0.4229,0.12 0.7006,0.1981 z M 32.7238,47.35 c 0.3416,0.1372 0.6762,0.2997 1.0304,0.4035 2.6117,0.7892 5.2268,1.5744 7.8453,2.3556 l 0.3845,0.0681 c -0.2754,-0.2112 -0.5911,-0.3653 -0.9281,-0.453 -1.9567,-0.5917 -3.9041,-1.1866 -5.8674,-1.7573 -0.8109,-0.2363 -1.6419,-0.4096 -2.4609,-0.6121 -0.16,-1.0327 -0.0692,-1.218 0.8797,-1.6391 0.4127,-0.1891 0.8302,-0.343 1.239,-0.5369 6.3239,-2.7514 12.9557,-4.7616 19.7596,-5.9894 5.1711,-0.9659 10.3988,-1.6166 15.6533,-1.9484 4.5095,-0.3179 9.0362,-0.3471 13.5514,-0.0872 3.4838,0.1593 6.9462,0.6356 10.3431,1.4228 1.557,0.3502 3.0776,0.8435 4.542,1.4733 0.521,0.2204 0.946,0.616 1.199,1.1161 0.6973,1.3562 1.4353,2.6953 2.1603,4.0414 l 3.257,6.0531 c 0.117,0.2167 0.34,0.4321 0.074,0.815 -0.571,-0.1753 -1.179,-0.3372 -1.768,-0.5449 -3.043,-1.0458 -6.19,-1.7684 -9.3868,-2.1555 -3.1596,-0.4239 -6.3492,-0.6949 -9.5327,-0.9002 -2.5149,-0.1581 -5.0471,-0.1186 -7.5727,-0.1391 -1.5145,-0.0491 -3.0304,-0.0195 -4.5413,0.0887 -2.8044,0.2744 -5.5935,0.6893 -8.3871,1.0256 l -13.6765,1.7526 c -0.1517,0.0181 -0.3005,0.0496 -0.4483,0.0724 l -0.0179,0.1629 c 2.0416,0.2535 4.0577,0.6803 6.0258,1.2757 -1.2381,-0.0748 -2.4678,-0.2267 -3.7016,-0.3401 -1.2339,-0.1134 -2.4869,-0.1724 -3.7373,-0.2963 -1.2504,-0.1238 -2.3784,-0.5206 -3.6201,-0.3615 0.2548,0.1866 0.5348,0.337 0.8319,0.4468 2.3716,0.9367 4.7952,1.7394 7.2587,2.4042 3.378,0.8426 6.7308,1.7953 10.0882,2.7051 1.2066,0.323 2.4008,0.7184 3.6287,0.9265 1.9886,0.3392 3.9964,0.585 6.0025,0.8046 1.4274,0.1562 2.8622,0.2438 4.2948,0.3529 1.1705,0.0891 2.3307,0.151 3.4973,0.2353 2.8694,0.2186 5.739,0.1943 8.6105,0.1529 4.495,-0.0547 8.9779,-0.4532 13.4079,-1.192 1.514,-0.2682 3.003,-0.6735 4.491,-1.0747 1.361,-0.3629 2.681,-0.8388 4.038,-1.2066 2.322,-0.6136 4.698,-0.3535 7.068,-0.1982 0.608,0.0362 1.212,0.1543 1.819,0.2424 0.789,0.1168 1.569,0.2716 2.362,0.3497 1.636,0.1791 3.28,0.3244 4.926,0.4177 1.536,0.0857 3.069,0.1234 4.621,0.1067 0.662,-0.0433 1.317,-0.1578 1.953,-0.3416 0.281,-0.0776 0.541,-0.215 0.762,-0.4025 0.647,-0.5235 0.609,-1.1352 -0.141,-1.4905 -0.597,-0.2864 -1.235,-0.4821 -1.891,-0.5802 -2.342,-0.3519 -4.707,-0.5237 -7.074,-0.514 -1.063,0.0139 -2.127,0.0405 -3.189,0.0415 -0.691,-0.0019 -1.383,-0.0386 -2.076,-0.0581 1.349,0.3472 2.709,0.5959 4.063,0.8569 1.251,0.2411 2.5,0.495 3.749,0.7531 0.259,0.0726 0.512,0.1627 0.759,0.2697 l -0.044,0.1557 c -0.177,0.0067 -0.355,0.0262 -0.53,0.0157 -0.504,-0.0247 -1.011,-0.0542 -1.513,-0.1005 -1.643,-0.1495 -3.287,-0.2643 -4.919,-0.4777 -1.633,-0.2134 -3.359,-0.5368 -5.039,-0.7945 -1.551,-0.2392 -3.113,-0.4145 -4.655,-0.6874 -1.899,-0.3573 -3.757,-0.9024 -5.547,-1.6267 -0.402,-0.1422 -0.735,-0.428 -0.934,-0.8008 -1.574,-2.9229 -3.194,-5.8206 -4.739,-8.7621 -1.7393,-3.3054 -3.4309,-6.6404 -5.1224,-9.9754 -1.2752,-2.5128 -2.5595,-5.0222 -3.7607,-7.566 -1.7091,-3.6579 -3.3746,-7.3111 -5.0277,-10.9976 -0.5444,-1.2223 -1.2129,-2.3975 -1.3531,-3.7318 -1.072,-0.42537 -2.6793,-0.0243 -3.3353,0.8194 0.8234,0.524 1.9713,0.3763 2.8197,1.2761 -0.2441,0.123 -0.5059,0.2084 -0.7764,0.2534 -0.4509,-0.0095 -0.8993,-0.0688 -1.3371,-0.1767 -1.0289,-0.2558 -2.0288,-0.6559 -3.073,-0.8526 -1.7717,-0.3501 -3.5615,-0.6155 -5.3441,-0.9061 -1.8403,-0.2848 -3.703,-0.4 -5.564,-0.3443 -2.043,0.0367 -4.0984,-0.0148 -6.1378,0.07 -6.6996,0.334 -12.9332,2.3243 -18.8901,5.2472 -1.9398,0.983 -3.7914,2.1257 -5.5353,3.4161 -1.0553,0.7189 -1.9038,1.6944 -2.4635,2.8324 -1.5782,3.3545 -2.1813,6.9329 -2.4047,10.5833 -0.115,1.9354 -0.2309,3.8794 -0.3662,5.7996 -0.1353,1.9202 -0.29,3.8166 -0.4457,5.7216 -0.0854,0.7803 -0.1713,1.5648 -0.2262,2.3484 -0.1188,0.3211 -0.1715,0.6407 0.1054,0.8879 z M 133.784,57.4877 c -0.75,0.2563 -1.484,0.5622 -2.248,0.7475 -0.97,0.271 -1.963,0.4528 -2.966,0.543 -1.946,0.1125 -3.867,-0.241 -5.791,-0.4863 -1.924,-0.2453 -3.741,-0.5049 -5.61,-0.7702 -0.926,-0.1109 -1.863,-0.0773 -2.777,0.0996 -2.162,0.362 -4.171,1.218 -6.263,1.8178 -1.246,0.3582 -2.478,0.7917 -3.743,1.0828 -1.703,0.3949 -3.443,0.6383 -5.1507,1.0327 -2.1382,0.4233 -4.3166,0.6212 -6.4987,0.5903 -3.2504,0.0434 -6.4782,-0.2405 -9.7173,-0.4215 -1.8032,-0.102 -3.6085,-0.1043 -5.4169,-0.1591 -2.0212,-0.0824 -4.0427,-0.1214 -6.0498,-0.3325 -1.7668,-0.1933 -3.5153,-0.5539 -5.2671,-0.8845 -1.9859,-0.371 -3.9401,-0.8938 -5.8445,-1.5639 -3.2606,-1.1508 -6.5178,-2.2926 -9.8057,-3.3554 -4.1964,-1.3588 -8.4086,-2.6674 -12.6366,-3.9256 -3.2576,-0.977 -6.5287,-1.912 -9.8265,-2.7633 -1.2363,-0.3174 -2.5097,-0.4699 -3.7861,-0.4534 -3.0171,0.0678 -5.9832,0.7665 -8.7018,2.0498 -1.6111,0.7467 -3.1741,1.5898 -4.6802,2.5247 -1.17365,0.719 -2.27559,1.5455 -3.29129,2.4685 -2.31708,2.1524 -3.91592,4.9482 -4.58582,8.0191 -0.54065,2.1645 -0.2088,4.454 0.92584,6.3879 0.95577,1.5815 2.1775,2.9917 3.61274,4.1701 0.09473,0.0743 0.19478,0.1418 0.29936,0.2019 C 7.7049,73.6196 7.39191,73.1605 7.03145,72.7387 5.94085,71.4418 5.08018,69.9731 4.48587,68.3948 3.70642,66.1011 3.73143,63.8608 4.97093,61.7101 5.83091,60.2922 7.0064,59.0858 8.40905,58.1816 10.9449,56.4591 13.8079,55.4883 16.771,54.8104 c 3.959,-0.9256 8.0094,-1.4264 12.0804,-1.4935 1.7241,-0.0195 3.4503,0.0219 5.1783,0.0462 1.0113,0.0153 2.0263,-0.0038 3.0281,0.0972 1.7215,0.1195 3.4337,0.3489 5.1258,0.6868 1.8546,0.4373 3.6491,1.1414 5.4584,1.7516 3.7293,1.2542 7.4601,2.4956 11.1712,3.7955 3.0283,1.0786 6.1452,1.8959 9.3154,2.4427 3.9445,0.5996 7.9255,0.9295 11.9145,0.9875 2.5238,0.0766 5.0482,0.1881 7.5696,0.2471 1.805,0.0458 3.6218,0.1448 5.419,0.0205 4.2994,-0.293 8.5693,-0.7975 12.7163,-2.0356 1.603,-0.4797 3.218,-0.9103 4.816,-1.3905 0.811,-0.2453 1.594,-0.6021 2.411,-0.8208 2.669,-0.7274 5.376,-0.4311 8.075,-0.1443 0.896,0.0981 1.781,0.3034 2.678,0.3929 0.898,0.0896 1.806,0.0805 2.703,0.1701 1.085,0.1012 2.178,0.0869 3.259,-0.0424 1.617,-0.1658 2.883,-0.9861 4.083,-1.9741 z"
       fill="url(#paint0_linear_135_35695)"
       id="path1"
       style="fill:url(#paint0_linear_135_35695)" /><path
       d="m 51.0109,19.2462 c -0.187,-0.1419 -0.4997,-0.2629 -0.5583,-0.4516 -0.0586,-0.1886 0.1135,-0.4735 0.2579,-0.6659 0.1478,-0.1507 0.324,-0.2714 0.5189,-0.3554 1.8506,-1.0854 3.8487,-1.9067 5.9347,-2.4395 1.2567,-0.2963 2.5395,-0.5897 3.808,-0.8327 0.2608,-0.0444 0.5272,-0.0474 0.7892,-0.009 0.0612,0.0162 0.1175,0.0466 0.1642,0.0887 0.0468,0.0422 0.0826,0.0947 0.1044,0.1533 -9e-4,0.0732 -0.0185,0.1452 -0.0516,0.2107 -0.0331,0.0655 -0.0808,0.1228 -0.1395,0.1675 -0.2939,0.1286 -0.5998,0.2288 -0.9135,0.2992 -1.3068,0.3515 -2.6147,0.7001 -3.9238,1.0456 -0.8797,0.2308 -1.6806,0.6882 -2.3205,1.3252 -0.5888,0.5691 -1.3295,0.9618 -2.1365,1.1328 -0.4762,0.1258 -0.966,0.2154 -1.5336,0.3311 z"
       fill="url(#paint1_linear_135_35695)"
       id="path2"
       style="fill:url(#paint1_linear_135_35695)" /><path
       d="m 91.4868,27.4164 c -0.5549,-0.0114 -1.0867,-0.2241 -1.4936,-0.5974 -0.5575,-0.4029 -1.0815,-0.8491 -1.567,-1.3342 -1.6824,-1.7139 -3.1475,-3.6225 -4.363,-5.6839 -0.1448,-0.2193 -0.2566,-0.4581 -0.332,-0.7088 -0.0193,-0.0845 -0.019,-0.1721 9e-4,-0.2564 0.0199,-0.0842 0.0589,-0.1628 0.114,-0.23 0.0726,-0.0498 0.1564,-0.0815 0.2443,-0.0922 0.0879,-0.0108 0.1771,-4e-4 0.2601,0.0303 0.2131,0.1015 0.399,0.2512 0.5423,0.4368 0.5175,0.664 0.9906,1.3709 1.5408,2.0169 1.1995,1.4329 2.4367,2.8438 3.6454,4.2734 0.4207,0.5016 0.8169,1.0265 1.2077,1.5596 0.0877,0.1877 0.1548,0.3842 0.2001,0.5859 z"
       fill="url(#paint2_linear_135_35695)"
       id="path3"
       style="fill:url(#paint2_linear_135_35695)" /><path
       d="m 25.8982,48.9977 c 0.2528,0.006 0.5047,0.0336 0.7528,0.0825 3.1334,0.878 6.2662,1.7618 9.3984,2.6513 0.1457,0.0408 0.2784,0.1181 0.385,0.2244 C 32.74,51.6296 29.2998,50.3897 25.8142,49.3226 Z"
       fill="url(#paint3_linear_135_35695)"
       id="path4"
       style="fill:url(#paint3_linear_135_35695)" /></g></svg>
