<svg width="355" height="354" viewBox="0 0 355 354" fill="none" xmlns="http://www.w3.org/2000/svg">
<rect width="353.67" height="353.67" transform="translate(0.76123)" fill="#121212"/>
<path fill-rule="evenodd" clip-rule="evenodd" d="M160.198 86.9387V153.009C160.198 155.981 162.607 158.391 165.58 158.391C168.552 158.391 170.962 155.981 170.962 153.009L170.962 86.9387H258.42C263.43 86.9387 267.491 91.0002 267.491 96.0102V171.453L197.517 171.453C194.545 171.453 192.135 173.862 192.135 176.835C192.135 179.807 194.545 182.217 197.517 182.217L267.491 182.217V257.66C267.491 262.67 263.43 266.731 258.42 266.731H96.7702C91.7602 266.731 87.6987 262.67 87.6987 257.66V96.0102C87.6987 91.0002 91.7602 86.9387 96.7702 86.9387H160.198ZM165.58 196.282C168.552 196.282 170.962 198.692 170.962 201.664V266.729H160.198V201.664C160.198 198.692 162.607 196.282 165.58 196.282Z" fill="#FF4500"/>
</svg>
