<svg width="400" height="400" viewBox="0 0 400 400" fill="none" xmlns="http://www.w3.org/2000/svg">
<g clip-path="url(#clip0_4639_94418)">
<path d="M400 0H0V400H400V0Z" fill="#0B0B13"/>
<path fill-rule="evenodd" clip-rule="evenodd" d="M149.769 254.615H210.923V290H84V110H127.846V145.128V182.821V214.872V254.615H149.769ZM295.549 197.692C305.985 199.923 314.344 205.077 320.677 213.205C327.01 221.333 330.164 230.59 330.164 241.026C330.164 256.077 324.908 268 314.395 276.795C303.882 285.59 289.215 290 270.421 290H246.002V254.615H262.728C270.087 254.615 275.754 252.949 279.78 249.615C283.805 246.282 285.805 241.462 285.805 235.128C285.805 228.795 283.703 223.846 279.523 220.256C275.344 216.667 269.575 214.872 262.216 214.872H162.926V182.821H259.139C266.318 182.821 271.831 181.231 275.677 178.077C279.523 174.923 281.446 170.256 281.446 164.103C281.446 157.949 279.523 153.256 275.677 150C271.831 146.744 266.318 145.128 259.139 145.128H162.926V110H267.6C285.882 110 300.215 114.179 310.549 122.564C320.882 130.949 326.062 142.308 326.062 156.667C326.062 167.256 323.292 176.077 317.728 183.077C312.164 190.077 304.78 194.949 295.549 197.692Z" fill="white"/>
</g>
<defs>
<clipPath id="clip0_4639_94418">
<rect width="400" height="400" fill="white"/>
</clipPath>
</defs>
</svg>
