<svg width="136" height="136" fill="none" xmlns="http://www.w3.org/2000/svg"><circle cx="68" cy="68" r="68" fill="#1F2333"/><path fill="#B9AAFD" d="M82.143 55.111H101V64.444H82.143z"/><path fill="#fff" d="M93.143 70.665H112V81.554H93.143z"/><path fill="#fff" d="M58.572 38H77.429V47.333H58.572z"/><path fill="#B9AAFD" d="M93.143 87.776H112V93.99799999999999H93.143z"/><path fill="#fff" d="M71.143 70.665H88.429V81.554H71.143z"/><path fill="#fff" d="M71.143 87.776H88.429V93.99799999999999H71.143z"/><path fill="#B9AAFD" d="M47.571 70.665H64.857V81.554H47.571z"/><path fill="#fff" d="M47.571 87.776H64.857V93.99799999999999H47.571z"/><path fill="#fff" d="M24 70.665H42.857V81.554H24z"/><path fill="#fff" d="M35 55.111H53.857V64.444H35z"/><path fill="#fff" d="M24 87.776H42.857V93.99799999999999H24z"/></svg>