<svg width="896" height="896" viewBox="0 0 896 896" fill="none" xmlns="http://www.w3.org/2000/svg">
<g clip-path="url(#clip0_488_22)">
<path d="M896 448C896 200.576 695.424 0 448 0C200.576 0 0 200.576 0 448C0 695.424 200.576 896 448 896C695.424 896 896 695.424 896 448Z" fill="url(#paint0_linear_488_22)"/>
<path d="M403.194 393.302C390.986 395.29 382.701 406.801 384.689 419.012C386.68 431.222 398.191 439.508 410.402 437.517L403.194 393.302ZM651.44 487.41C651.44 499.78 661.469 509.81 673.84 509.81C686.21 509.81 696.24 499.78 696.24 487.41H651.44ZM230.238 444.231C222.715 434.412 208.655 432.547 198.834 440.07C189.012 447.591 187.149 461.653 194.671 471.472L230.238 444.231ZM434.473 517.628L443.999 537.902C450.738 534.736 455.465 528.424 456.607 521.063C457.75 513.705 455.16 506.26 449.697 501.197L434.473 517.628ZM425.18 421.408C427.871 409.332 420.263 397.362 408.187 394.674C396.113 391.983 384.143 399.591 381.452 411.664L425.18 421.408ZM654.92 448C654.92 560.722 561.316 652.96 444.78 652.96V697.76C585.102 697.76 699.72 586.412 699.72 448H654.92ZM444.78 652.96C328.244 652.96 234.64 560.722 234.64 448H189.84C189.84 586.412 304.458 697.76 444.78 697.76V652.96ZM234.64 448C234.64 335.278 328.244 243.04 444.78 243.04V198.24C304.458 198.24 189.84 309.588 189.84 448H234.64ZM444.78 243.04C561.316 243.04 654.92 335.278 654.92 448H699.72C699.72 309.588 585.102 198.24 444.78 198.24V243.04ZM410.402 437.517C440.882 432.55 503.622 417.2 560.476 419.16C588.759 420.134 611.932 425.424 627.488 435.856C641.452 445.22 651.44 460.093 651.44 487.41H696.24C696.24 446.424 679.823 417.01 652.439 398.647C626.643 381.349 593.522 375.472 562.019 374.385C499.304 372.224 428.526 389.172 403.194 393.302L410.402 437.517ZM194.671 471.472C243.292 534.951 300.149 555.156 348.306 557.054C395.332 558.911 432.46 543.323 443.999 537.902L424.948 497.356C416.438 501.351 386.879 513.744 350.073 512.291C314.392 510.882 270.262 496.488 230.238 444.231L194.671 471.472ZM449.697 501.197C437.335 489.742 427.806 478.246 425.082 467.659L381.696 478.822C387.94 503.093 406.501 522.25 419.25 534.058L449.697 501.197ZM425.082 467.659C421.59 454.084 421.408 438.337 425.18 421.408L381.452 411.664C376.351 434.563 376.219 457.537 381.696 478.822L425.082 467.659Z" fill="#F5F6FC"/>
</g>
<defs>
<linearGradient id="paint0_linear_488_22" x1="-47.3656" y1="28.2523" x2="464.638" y2="886.068" gradientUnits="userSpaceOnUse">
<stop stop-color="#332F2F"/>
<stop offset="1" stop-color="#1B1919"/>
</linearGradient>
<clipPath id="clip0_488_22">
<rect width="896" height="896" fill="white"/>
</clipPath>
</defs>
</svg>
