<svg width="538" height="538" viewBox="0 0 538 538" fill="none" xmlns="http://www.w3.org/2000/svg">
<path d="M159.378 375.157C187.99 403.312 226.797 419.129 267.262 419.129C307.712 419.083 346.493 403.251 375.095 375.107C403.698 346.962 419.787 308.803 419.834 269H363.063C363.063 287.644 357.445 305.87 346.918 321.372C336.391 336.874 321.429 348.957 303.924 356.092C286.419 363.227 267.156 365.093 248.573 361.456C229.989 357.819 212.919 348.84 199.521 335.657C186.123 322.473 176.998 305.677 173.302 287.391C169.605 269.105 171.503 250.151 178.754 232.925C186.005 215.7 198.284 200.978 214.038 190.62C229.792 180.261 248.314 174.733 267.262 174.733V118.871C226.797 118.871 187.99 134.688 159.378 162.843C130.765 190.997 114.69 229.183 114.69 269C114.69 308.817 130.765 347.003 159.378 375.157Z" fill="#FF611E"/>
<path d="M270.738 269H327.509C327.509 243.999 337.602 220.022 355.568 202.343C373.534 184.665 397.902 174.733 423.31 174.733V118.871C382.863 118.926 344.088 134.761 315.487 162.904C286.887 191.046 270.794 229.2 270.738 269Z" fill="#FF611E"/>
</svg>
