<svg fill="none" height="72" width="72" xmlns="http://www.w3.org/2000/svg"><path d="M36.379 71.147c19.627 0 35.538-15.91 35.538-35.538C71.917 15.982 56.006.071 36.379.071S.84 15.982.84 35.61s15.91 35.538 35.538 35.538z" fill="#fff"/><g clip-rule="evenodd" fill-rule="evenodd"><path d="M16.436 33.818c3.512-2.92 7.642-4.184 12.12-4.464 2.946-.185 5.851.159 8.715.864.355.087.708.308 1.17.06-.812-2.06-2.867-2.765-4.607-4.172 4.594-.343 8.764.477 12.55 2.558 7.377 4.057 11.381 10.415 11.633 18.849.246 8.177-5.223 14.754-13.789 17.057C27 69.203 9.441 57.67 6.716 39.947c-.197-1.278-.469-2.542-.268-3.843.517.37.681.964.941 1.495 1.056 2.147 2.297 4.176 3.812 6.036 6.643 8.153 17.357 9.119 24.49 4.283 1.61-1.091 2.894-2.445 3.821-4.134 1.71-3.112.592-7.651-2.327-8.976-3.485-1.58-7.165-2.043-10.952-1.338-1.063.199-2.113.424-2.878 1.335-.755.897.175 1.685.201 2.658-2.904-.415-5.389-1.28-7.12-3.645z" fill="#172c5f"/><path d="M16.436 33.818c1.731 2.364 4.216 3.229 7.121 3.646-.026-.974-.956-1.761-.2-2.658.764-.911 1.814-1.136 2.877-1.335 3.788-.705 7.467-.242 10.952 1.338 2.92 1.324 4.036 5.863 2.327 8.976-.927 1.688-2.21 3.043-3.82 4.134-7.134 4.836-17.848 3.87-24.49-4.283-1.516-1.86-2.757-3.89-3.813-6.036-.26-.531-.425-1.124-.94-1.495C6.59 15.085 27.07.462 46.48 7.712c-1.784 2.342-3.92 4.193-6.308 5.78-.49.325-.754.262-.868-.381-.162-.906-.443-1.783-1.117-2.63-2.203 3.738-6.108 4.795-9.644 6.409-1.59.725-2.648 1.784-2.882 3.612-.144 1.127 1.045 1.533 1.328 2.824-1.367-1.13-2.049-.313-2.832.402-.552.504-1.22.9-1.884 1.257-.82.44-1.737.82-2.613.235-.845-.565-.343-1.475-.315-2.26-4.022 1.424-6.234 7.358-4.406 11.793l1.497-.935z" fill="#428ac9"/><path d="M49.396 9.077c5.214 2.23 9.092 6.014 12.09 10.702 4.518 7.064 5.558 14.761 3.77 22.904-.488-2.442-.987-4.866-1.954-7.183-1.48-3.54-3.944-6.296-6.722-8.827 1.987-.19 3.774.922 5.834 1.001-.108-.276-.124-.458-.223-.546-.317-.28-.664-.525-1-.783.16-.959-.62-1.29-1.184-1.759-4.785-3.968-10.303-6.229-16.44-7.052.789-.79 1.638-1.51 2.388-2.354 1.597-1.798 2.46-3.976 3.44-6.103z" fill="#428ac9"/><path d="M49.396 9.077c-.98 2.126-1.843 4.304-3.44 6.103-.75.844-1.6 1.563-2.388 2.354-2.026 1.084-3.715 2.803-6.093 3.178.091-.193.228-.426.314-.676.701-2.027 2.134-3.24 4.04-4.21 2.227-1.13 4.01-2.899 5.388-5.024.137-.063.283-.159.152-.307-.05-.056-.253.024-.386.042-.36.01-.697.335-1.199.013 1.853-2 3.033-4.382 4.111-7.28.51 2.275-.518 4-.499 5.807zm11.795 17.27c.336.257.683.502 1 .782.1.088.115.27.223.546-2.06-.079-3.847-1.19-5.834-1-2.063-1.239-4.056-2.612-6.397-3.384 2.055-.37 3.757.816 5.611 1.307.128.033.256.068.383.104l-.006-.433c.317-.47.335-.503.66-.327 1.458.79 2.907 1.6 4.36 2.404zm-27.743-8.115c.666-.439 1.34-.86 2.148-1.035-.092 2.416-2.022 4.051-5.149 4.398-.1-.74.608-.63.953-.832 1.017-.595 1.812-1.324 2.048-2.53z" fill="#172c5f"/><path d="M33.448 18.232c-.236 1.207-1.03 1.936-2.048 2.531-.345.201-1.053.092-.953.832-.506.281-1.116.444-1.44-.09-.323-.53.128-1.052.531-1.413 1.114-1 2.462-1.544 3.91-1.86zM16.884 29.066c.433-1.39.938-2.11 2.124-2.106.386 0 .753-.12.788.433.03.464-.052.965-.64.844-.812-.168-1.396.264-2.272.829z" fill="#428ac9"/></g></svg>