<svg width="32" height="22" viewBox="0 0 36 24" fill="none" xmlns="http://www.w3.org/2000/svg"><path d="M20.8345 0.214855L19.0851 8.25336H16.8754L16.4981 6.51864L16.2193 5.2176L15.0903 0.0346369C17.0069 -0.0460118 18.9268 0.014223 20.8345 0.214855Z" fill="#C6FAFD"></path><path d="M15.2813 8.2533L12.4126 0.331408C11.1102 0.528755 9.8319 0.860779 8.59827 1.32213L11.7912 6.51858L12.8526 8.2533H15.2813Z" fill="#C6FAFD"></path><path d="M32.0114 9.98801L33.275 13.4574H24.5034L24.7881 9.98801H32.0114Z" fill="#C6FAFD"></path><path d="M35.204 18.6618H24.0683L24.354 15.1923H33.9358L35.204 18.6618Z" fill="#C6FAFD"></path><path d="M32.5459 24H23.5974L23.9874 20.5084H36L32.5459 24Z" fill="#C6FAFD"></path><path d="M12.4026 24H3.45411L0 20.5084H12.0126L12.4026 24Z" fill="#C6FAFD"></path><path d="M11.4955 13.4574L11.2109 9.98801H3.96652L2.70947 13.4574H11.4955Z" fill="#C6FAFD"></path><path d="M11.9307 18.6618H0.7912L2.05272 15.1923H11.6451L11.9307 18.6618Z" fill="#C6FAFD"></path><path d="M26.6298 2.61549L27.3834 1.40118C27.3834 1.40118 25.8222 0.979067 23.4562 0.597428L20.6792 8.25333H23.1079L24.1905 6.51861L25.0059 5.21757L26.6298 2.61549Z" fill="#C6FAFD"></path><path d="M28.7359 2.61546L24.8605 8.2533H31.2237L29.1026 2.61546H28.7359Z" fill="#C6FAFD"></path><path d="M11.0999 8.2533L7.22452 2.61546H6.85781L4.73675 8.2533H11.0999Z" fill="#C6FAFD"></path></svg>