<svg width="64" height="26" viewBox="0 0 64 26" fill="none" xmlns="http://www.w3.org/2000/svg">
<path fill-rule="evenodd" clip-rule="evenodd" d="M4.36467 5.34447L4.39085 11.0945L17.7225 24.7446H11.5553L0.00292841 12.9161L0 0.856445H17.7225V5.34447L11.0814 13.1385L7.9738 9.99434L11.8 5.34447H4.36467ZM0.00336527 24.8565V17.8727L4.63577 22.5055L2.64133 24.8565H0.00336527Z" fill="#696EFF"/>
<path d="M0.0195312 18.0488V25.1441H2.71244L4.74843 22.7556L0.0195312 18.0488Z" fill="#696EFF"/>
<path fill-rule="evenodd" clip-rule="evenodd" d="M21.4785 0.856445H39.8311V5.34767H21.4785V0.856445ZM25.9961 13.2071L25.9961 24.8562H21.4785L21.4785 13.2071H25.9961ZM21.4785 8.71577H36.5883L41.1059 13.207H21.4785V8.71577ZM45.1957 8.71577V12.5093L41.3799 8.71577H45.1957Z" fill="white"/>
<path fill-rule="evenodd" clip-rule="evenodd" d="M33.4242 0.856448L39.813 0.856445L63.9536 24.8564L57.5649 24.8564L33.4242 0.856448ZM33.3359 24.8563L43.0975 15.1887L46.2988 18.3714L39.7759 24.8563L33.3359 24.8563ZM51.5054 7.1067C51.2864 7.11454 51.1154 7.28203 51.1242 7.47999C51.1329 7.67794 51.3182 7.83253 51.5371 7.82454C51.7561 7.81669 51.9271 7.64921 51.9183 7.45125C51.9096 7.2533 51.7243 7.09871 51.5054 7.1067ZM54.1129 4.65948C54.1066 4.5167 54.2298 4.39597 54.3878 4.39026C54.5457 4.38455 54.6793 4.49598 54.6856 4.63876C54.6919 4.78153 54.5686 4.90226 54.4107 4.90797C54.2527 4.91368 54.1192 4.80225 54.1129 4.65948ZM54.8701 3.96295C54.738 3.96773 54.6349 4.06867 54.6402 4.18807C54.6455 4.30747 54.7573 4.40071 54.8892 4.39592C55.0213 4.39114 55.1244 4.2902 55.1192 4.1708C55.1139 4.0514 55.0021 3.95817 54.8701 3.96295ZM55.0967 3.76604C55.092 3.65992 55.1837 3.57014 55.3011 3.56589C55.4185 3.56164 55.5178 3.64452 55.5225 3.75063C55.5272 3.85675 55.4355 3.94654 55.3181 3.95079C55.2007 3.95504 55.1014 3.87216 55.0967 3.76604ZM55.6916 3.21858C55.5936 3.22216 55.517 3.29707 55.521 3.38566C55.525 3.47425 55.6078 3.54344 55.7058 3.53986C55.8038 3.53627 55.8804 3.46136 55.8764 3.37278C55.8724 3.28419 55.7896 3.21499 55.6916 3.21858ZM56.23 2.70963C56.2264 2.63034 56.2949 2.56327 56.3826 2.56008C56.4703 2.5569 56.5445 2.61879 56.548 2.69808C56.5516 2.77737 56.4831 2.84444 56.3954 2.84763C56.3077 2.85082 56.2335 2.78892 56.23 2.70963ZM56.0433 2.89079C55.9555 2.89397 55.8871 2.96105 55.8906 3.04034C55.8941 3.11963 55.9683 3.18152 56.056 3.17833C56.1438 3.17514 56.2122 3.10807 56.2087 3.02878C56.2052 2.94949 56.131 2.8876 56.0433 2.89079ZM57.5117 1.49366C57.509 1.43456 57.5601 1.38449 57.6257 1.3821C57.6911 1.37984 57.7464 1.42593 57.7491 1.48516C57.7516 1.54427 57.7006 1.59434 57.6351 1.59673C57.5697 1.59899 57.5143 1.55277 57.5117 1.49366ZM57.3109 1.69233C57.2471 1.69459 57.1971 1.74346 57.1996 1.8011C57.2021 1.85875 57.2562 1.9039 57.3201 1.90151C57.3839 1.89925 57.4338 1.85038 57.4312 1.79274C57.4287 1.73496 57.3746 1.68994 57.3109 1.69233ZM56.8876 2.09507C56.8849 2.03119 56.9399 1.97727 57.0105 1.97474C57.0811 1.97222 57.1408 2.02203 57.1436 2.08578C57.1464 2.14966 57.0913 2.20358 57.0208 2.20611C56.9502 2.20863 56.8904 2.15882 56.8876 2.09507ZM56.7087 2.2595C56.632 2.26229 56.5721 2.32087 56.5752 2.39033C56.5782 2.45966 56.6432 2.51385 56.7199 2.51106C56.7966 2.50827 56.8565 2.4497 56.8534 2.38037C56.8503 2.31104 56.7856 2.25685 56.7089 2.25964L56.7087 2.2595ZM58.1247 0.931506C58.1229 0.891797 58.1571 0.858218 58.201 0.856619C58.245 0.85502 58.2821 0.885934 58.2839 0.925643C58.2856 0.965352 58.2514 0.998931 58.2075 1.00053C58.1636 1.00213 58.1264 0.971215 58.1247 0.931506ZM57.9258 1.10017C57.8672 1.1023 57.8213 1.14719 57.8237 1.20018C57.826 1.25317 57.8757 1.29461 57.9343 1.29249C57.9929 1.29036 58.0388 1.24547 58.0364 1.19248C58.0341 1.13948 57.9844 1.09805 57.9258 1.10017ZM53.5634 5.21496C53.5294 5.03178 53.6945 4.87014 53.8991 4.88624C54.0386 4.89715 54.1551 4.99439 54.1782 5.11918C54.2122 5.30223 54.0471 5.464 53.8426 5.44791C53.703 5.437 53.5865 5.33975 53.5634 5.21496ZM53.313 5.41849C53.1411 5.42474 53.0069 5.55604 53.0138 5.71142C53.0207 5.86681 53.1661 5.98813 53.3378 5.98188C53.5097 5.97563 53.6439 5.84433 53.637 5.68894C53.6301 5.53356 53.4847 5.41223 53.313 5.41849ZM52.4205 6.26532C52.413 6.09597 52.5595 5.95256 52.7469 5.94577C52.9343 5.93899 53.0929 6.07136 53.1004 6.24084C53.1079 6.41019 52.9615 6.5536 52.774 6.56039C52.5867 6.56717 52.428 6.4348 52.4205 6.26532ZM52.1456 6.51208C51.9452 6.51926 51.7886 6.67265 51.7965 6.85384C51.8045 7.03503 51.9742 7.17658 52.1746 7.1694C52.375 7.16221 52.5316 7.00883 52.5237 6.82763C52.5157 6.64644 52.346 6.5049 52.1456 6.51208ZM51.9294 8.24084C51.9197 8.02027 52.1103 7.83349 52.3544 7.82471C52.5985 7.81593 52.805 7.98821 52.8147 8.20891C52.8244 8.42948 52.6339 8.61626 52.3897 8.62504C52.1456 8.63382 51.9391 8.46154 51.9294 8.24084ZM55.5683 4.79659C55.392 4.80298 55.2543 4.93787 55.2613 5.09725C55.2684 5.25662 55.4175 5.38114 55.5939 5.37475C55.7702 5.36837 55.908 5.23347 55.9009 5.0741C55.8938 4.91473 55.7446 4.79021 55.5683 4.79659ZM55.8487 4.57005C55.8428 4.43697 55.9578 4.32434 56.1051 4.31903C56.2523 4.31372 56.3769 4.41771 56.3827 4.55079C56.3886 4.68387 56.2736 4.7965 56.1264 4.80181C55.9791 4.80713 55.8546 4.70313 55.8487 4.57005ZM56.5863 3.87709C56.4555 3.88187 56.3533 3.98188 56.3584 4.10022C56.3637 4.21856 56.4743 4.31087 56.6052 4.30622C56.736 4.30144 56.8383 4.20143 56.8331 4.08309C56.8278 3.96475 56.7172 3.87244 56.5863 3.87709ZM56.8305 3.6755C56.8263 3.57682 56.9115 3.49328 57.0208 3.48929H57.0207C57.1298 3.48544 57.2222 3.56261 57.2267 3.66129C57.2311 3.75997 57.1457 3.84351 57.0365 3.84749C56.9274 3.85135 56.835 3.77431 56.8305 3.6755ZM57.7912 2.7552C57.6935 2.75879 57.6171 2.83357 57.6211 2.92189C57.625 3.01021 57.7076 3.07927 57.8055 3.07569C57.9032 3.0721 57.9796 2.99733 57.9756 2.909C57.9716 2.82068 57.8891 2.75162 57.7912 2.7552ZM57.2436 3.29161C57.2397 3.20329 57.3161 3.12851 57.4138 3.12493C57.5116 3.12134 57.5942 3.19041 57.5982 3.27873C57.6021 3.36705 57.5257 3.44183 57.428 3.44541C57.3302 3.449 57.2476 3.37993 57.2436 3.29161ZM59.1768 1.44211C59.1038 1.44477 59.0468 1.50055 59.0497 1.56656C59.0527 1.63257 59.1144 1.68397 59.1874 1.68145C59.2604 1.67879 59.3173 1.62301 59.3145 1.557C59.3116 1.49099 59.2499 1.43946 59.1768 1.44211ZM58.7026 1.90923C58.6996 1.84482 58.7553 1.79036 58.8264 1.78784L58.8266 1.78797C58.8977 1.78531 58.9579 1.83565 58.9607 1.89993C58.9637 1.96422 58.908 2.01867 58.8369 2.02119C58.7656 2.02385 58.7054 1.97351 58.7026 1.90923ZM58.4914 2.10402C58.4128 2.10681 58.3512 2.16697 58.3544 2.23816C58.3575 2.30922 58.4241 2.36473 58.5028 2.36195C58.5814 2.35916 58.6429 2.29899 58.6398 2.2278C58.6367 2.15675 58.5701 2.1011 58.4914 2.10402ZM58.0063 2.5663C58.0028 2.489 58.0696 2.42352 58.1551 2.42047L58.1553 2.4206C58.2408 2.41741 58.3131 2.47784 58.3165 2.55514C58.3198 2.63231 58.2531 2.69778 58.1676 2.70084C58.0821 2.70389 58.0097 2.6436 58.0063 2.5663ZM59.8184 0.856622C59.7695 0.858355 59.7313 0.895798 59.7332 0.940037C59.7352 0.984277 59.7766 1.01879 59.8255 1.01706C59.8745 1.01532 59.9126 0.977881 59.9107 0.933641C59.9088 0.889402 59.8674 0.85489 59.8184 0.856622ZM59.3984 1.23906C59.3957 1.17996 59.4468 1.12989 59.5122 1.1275C59.5778 1.12511 59.633 1.17133 59.6356 1.23043C59.6383 1.28966 59.5872 1.3396 59.5218 1.34199C59.4563 1.34438 59.401 1.29816 59.3984 1.23906ZM55.0231 5.34828C54.795 5.33032 54.6109 5.51058 54.6489 5.71465C54.6748 5.8538 54.8046 5.96223 54.9601 5.97447C55.1882 5.99243 55.3723 5.81216 55.3344 5.60796C55.3085 5.46881 55.1787 5.36038 55.0231 5.34828ZM54.0353 6.26994C54.0276 6.09673 54.1773 5.95026 54.3689 5.94334C54.5605 5.93642 54.7225 6.07158 54.7302 6.24479C54.7378 6.418 54.5882 6.56447 54.3966 6.57139C54.2049 6.57831 54.0429 6.44315 54.0353 6.26994ZM53.738 6.5305C53.529 6.53808 53.3658 6.69786 53.3742 6.88676C53.3826 7.07567 53.5593 7.2232 53.7683 7.21575C53.9772 7.20817 54.1405 7.0484 54.1321 6.85949C54.1237 6.67058 53.9469 6.52305 53.738 6.53063V6.5305ZM52.6789 7.54185C52.6699 7.3399 52.8444 7.16896 53.068 7.16084C53.2914 7.15273 53.4805 7.3105 53.4895 7.51258C53.4984 7.71453 53.3239 7.88547 53.1004 7.89359C52.877 7.9017 52.6878 7.74393 52.6789 7.54185ZM53.387 8.6798C53.113 8.68965 52.8988 8.89931 52.9099 9.14702C52.9208 9.39472 53.1527 9.58829 53.4267 9.57831C53.7008 9.56847 53.9149 9.3588 53.9038 9.1111C53.893 8.86339 53.661 8.66983 53.387 8.6798ZM56.6515 5.61785C56.6435 5.43892 56.7982 5.28753 56.9961 5.28035L56.9963 5.28048C57.1942 5.2733 57.3617 5.41312 57.3696 5.59205C57.3774 5.77098 57.2228 5.92237 57.0248 5.92955C56.8269 5.9366 56.6594 5.79692 56.6515 5.61785ZM57.5989 4.74487C57.4336 4.75085 57.3045 4.87729 57.3111 5.02671C57.3177 5.17612 57.4576 5.29287 57.6229 5.28689C57.7882 5.28091 57.9173 5.15447 57.9107 5.00506C57.9041 4.85564 57.7642 4.7389 57.5989 4.74487ZM57.8828 4.49831C57.877 4.36549 57.9917 4.25313 58.1386 4.24782C58.2856 4.24251 58.4099 4.34624 58.4157 4.47905C58.4216 4.61187 58.3069 4.72423 58.1599 4.72954C58.013 4.73485 57.8887 4.63112 57.8828 4.49831ZM58.6267 3.8132C58.504 3.81758 58.4082 3.91148 58.4131 4.02225C58.4179 4.13315 58.5218 4.21974 58.6445 4.21536C58.7672 4.21098 58.863 4.11708 58.858 4.00618C58.8531 3.89528 58.7492 3.80868 58.6267 3.8132ZM59.3008 3.17551C59.2963 3.07629 59.3822 2.99235 59.4919 2.98837C59.6017 2.98438 59.6945 3.06195 59.6989 3.16116C59.7032 3.26037 59.6175 3.34431 59.5078 3.3483C59.398 3.35228 59.3052 3.27472 59.3008 3.17551ZM59.0671 3.40297C58.9573 3.40695 58.8715 3.49089 58.8759 3.5901C58.8804 3.68932 58.9732 3.76688 59.083 3.7629C59.1927 3.75891 59.2784 3.67497 59.2741 3.57576C59.2697 3.47655 59.1769 3.39898 59.0671 3.40297ZM60.9052 1.65403C60.902 1.57992 60.9659 1.51723 61.0479 1.51431C61.1298 1.51139 61.1992 1.56916 61.2024 1.64327C61.2057 1.71738 61.1417 1.78007 61.0598 1.78299C60.9778 1.78592 60.9084 1.72814 60.9052 1.65403ZM60.6537 1.90344C60.5738 1.90636 60.5113 1.96745 60.5146 2.03971C60.5178 2.11196 60.5854 2.16827 60.6653 2.16548C60.7453 2.16256 60.8075 2.10147 60.8045 2.02935C60.8012 1.9571 60.7336 1.90065 60.6537 1.90357V1.90344ZM60.124 2.40744C60.1204 2.32762 60.1895 2.26002 60.2778 2.25683L60.2776 2.25669C60.3661 2.25351 60.4407 2.31593 60.4443 2.39575C60.4478 2.47557 60.3789 2.54318 60.2906 2.54636C60.2023 2.54955 60.1275 2.48726 60.124 2.40744ZM59.9001 2.6129C59.8041 2.61636 59.729 2.6898 59.7329 2.77653C59.7367 2.86326 59.8179 2.93113 59.9139 2.92754C60.0098 2.92409 60.0849 2.85064 60.0809 2.76391C60.0771 2.67719 59.9959 2.60932 59.8999 2.61277L59.9001 2.6129ZM61.6722 0.950309C61.67 0.900607 61.7129 0.858633 61.7679 0.856634C61.8229 0.854635 61.8693 0.893411 61.8715 0.943114C61.8737 0.992816 61.8308 1.03479 61.7758 1.03679C61.7209 1.03879 61.6744 1.00001 61.6722 0.950309ZM61.4237 1.16123C61.3503 1.16389 61.293 1.22007 61.2959 1.28648C61.2989 1.35289 61.361 1.40482 61.4345 1.40216C61.5079 1.3995 61.5652 1.34332 61.5623 1.27691C61.5594 1.21051 61.4972 1.15871 61.4237 1.16137V1.16123ZM55.9634 6.31142C55.9209 6.08234 56.1276 5.87999 56.3837 5.90008V5.89995C56.5582 5.91365 56.7041 6.03537 56.7331 6.19156C56.7756 6.42077 56.5688 6.62312 56.3128 6.60303C56.1382 6.58933 55.9924 6.4676 55.9634 6.31142ZM55.6491 6.56722C55.4341 6.57493 55.266 6.73949 55.2745 6.93386C55.2831 7.12835 55.4651 7.28014 55.6803 7.27243C55.8954 7.26471 56.0633 7.10015 56.0548 6.90579C56.0463 6.71129 55.8642 6.5595 55.6491 6.56722ZM54.5324 7.62722C54.523 7.41517 54.7063 7.2357 54.9409 7.22719C55.1755 7.21868 55.374 7.38444 55.3834 7.59649C55.3929 7.80855 55.2095 7.98801 54.9749 7.99652C54.7403 8.00504 54.5418 7.83928 54.5324 7.62722ZM54.1881 7.93544C53.9372 7.94449 53.7411 8.13645 53.7512 8.36328C53.7612 8.5901 53.9735 8.7673 54.2244 8.75825C54.4754 8.74921 54.6714 8.55724 54.6614 8.33042C54.6514 8.10359 54.439 7.92639 54.1881 7.93544ZM53.8785 10.0624C53.8665 9.7876 54.1041 9.55518 54.4085 9.54415C54.7128 9.53325 54.9702 9.74787 54.9824 10.0227C54.9945 10.2975 54.7568 10.5299 54.4525 10.541C54.1481 10.5519 53.8908 10.3372 53.8785 10.0624ZM58.4155 5.76792C58.1956 5.7759 58.024 5.94406 58.0327 6.14267C58.0415 6.34143 58.2274 6.49668 58.4473 6.48869C58.6671 6.48071 58.8389 6.31256 58.8301 6.11381C58.8212 5.91505 58.6352 5.7598 58.4153 5.76779L58.4155 5.76792ZM58.7656 5.48768C58.7582 5.32139 58.902 5.18077 59.0858 5.17412C59.2698 5.1676 59.4253 5.29731 59.4327 5.4636C59.44 5.62989 59.2963 5.77051 59.1124 5.77716C58.9285 5.78381 58.7729 5.65397 58.7656 5.48768ZM59.6848 4.62232C59.5217 4.62816 59.3942 4.75301 59.4008 4.90043C59.4073 5.04785 59.5454 5.16314 59.7085 5.15729C59.8716 5.15145 59.9991 5.0266 59.9925 4.87918C59.986 4.73175 59.8479 4.61647 59.6848 4.62245V4.62232ZM59.9891 4.37119C59.9837 4.24807 60.0901 4.14395 60.2263 4.13903C60.3625 4.13412 60.4777 4.23028 60.4831 4.3534C60.4885 4.47652 60.3822 4.58064 60.246 4.58556C60.1098 4.59047 59.9946 4.49431 59.9891 4.37119ZM61.1871 3.22397C61.0652 3.22835 60.97 3.32159 60.975 3.43183C60.9798 3.54193 61.083 3.62799 61.2049 3.62361C61.3269 3.61923 61.4219 3.52599 61.4171 3.41576C61.4122 3.30565 61.3091 3.21959 61.1871 3.22397ZM60.5043 3.89326C60.4993 3.78302 60.5945 3.68979 60.7164 3.6854C60.8384 3.68089 60.9415 3.76695 60.9464 3.87719C60.9512 3.98743 60.8562 4.08066 60.7342 4.08504C60.6123 4.08943 60.5091 4.00336 60.5043 3.89326ZM62.9146 1.587C62.8236 1.59032 62.7525 1.65992 62.7562 1.74213C62.7598 1.82434 62.8368 1.88863 62.9278 1.88531C63.0187 1.88199 63.0898 1.81239 63.0862 1.73018C63.0825 1.64797 63.0056 1.58368 62.9146 1.587ZM62.3235 2.16995C62.32 2.08973 62.3894 2.02186 62.4781 2.01868H62.478C62.5667 2.01536 62.6418 2.07804 62.6453 2.15826C62.6488 2.23848 62.5796 2.30635 62.4909 2.30954C62.4021 2.31273 62.3271 2.25017 62.3235 2.16995ZM62.0602 2.41133C61.9621 2.41492 61.8855 2.48983 61.8895 2.57855C61.8934 2.66713 61.9765 2.73646 62.0745 2.73288C62.1726 2.72929 62.2492 2.65438 62.2452 2.56566C62.2412 2.47694 62.1584 2.40775 62.0602 2.41133ZM61.4549 2.98812C61.4507 2.89183 61.534 2.81028 61.6406 2.80643C61.7472 2.80258 61.8374 2.87775 61.8416 2.97417C61.8459 3.07046 61.7627 3.15201 61.6561 3.15586C61.5494 3.15972 61.4592 3.08441 61.4549 2.98812ZM63.7146 0.856636C63.6538 0.858893 63.6063 0.905379 63.6086 0.960364C63.6111 1.01535 63.6626 1.05825 63.7234 1.05612C63.7842 1.05387 63.8317 1.00738 63.8293 0.952395C63.8268 0.89741 63.7754 0.854511 63.7146 0.856636ZM63.1907 1.33388C63.1875 1.26017 63.2513 1.19775 63.3328 1.19483C63.4143 1.1919 63.4834 1.24955 63.4866 1.32326C63.4899 1.39697 63.4261 1.45939 63.3445 1.46231C63.263 1.46524 63.194 1.4076 63.1907 1.33388ZM57.7357 6.45775C57.4514 6.4354 57.2218 6.66009 57.2691 6.91459C57.3013 7.08806 57.4632 7.22322 57.657 7.23839C57.9413 7.26074 58.1709 7.03605 58.1237 6.78155C58.0914 6.60808 57.9295 6.47292 57.7357 6.45775ZM56.5049 7.60563C56.4954 7.38972 56.682 7.20706 56.9208 7.19842C57.1597 7.18977 57.3617 7.35846 57.3713 7.57437C57.3808 7.79028 57.1942 7.97294 56.9554 7.98158C56.7165 7.9901 56.5145 7.82155 56.5049 7.60563ZM56.1339 7.93057C55.8735 7.94001 55.6699 8.1393 55.6802 8.37477C55.6907 8.61024 55.9111 8.79435 56.1716 8.78491C56.4321 8.77546 56.6356 8.57618 56.6253 8.34071C56.6149 8.10524 56.3944 7.92126 56.1339 7.93057ZM54.8131 9.19242C54.802 8.94058 55.0197 8.72747 55.2983 8.71735C55.5769 8.70738 55.8126 8.90413 55.8238 9.15596C55.8348 9.4078 55.6172 9.62092 55.3386 9.63103C55.06 9.64101 54.8243 9.44425 54.8131 9.19242Z" fill="white"/>
</svg>
