<svg fill="none" height="391" width="471" xmlns="http://www.w3.org/2000/svg"><path clip-rule="evenodd" d="M98.42 249.595l7.027 48.532L70.3 305.06l-28.12-6.933L0 228.798l14.06-124.801L63.267 41.6l63.266-6.932L189.8 0l84.367 41.6-21.094 20.797C313.998 71.64 353.836 78.58 372.58 83.201c28.12 6.932 77.333 41.6 84.36 48.532 7.033 6.932 3.679 38.801 0 62.397-2.457 15.731-7.142 27.285-14.06 34.668L471 388.26h-63.267l14.06-13.864-56.24-117.869-154.66 20.804-56.227 110.929H91.4l21.087-34.668 42.179-145.597-28.12-27.73-63.28 13.865-7.032 55.465 21.086 20.803 21.093-20.803zm98.891 81.885l21.004-42.583 28.005-7.095 21.004 106.458h-70.013l14.002-7.095zm134.935-48.206l21.004-13.997 35.007 59.492-7.002 59.491h-63.012l14.003-20.997z" fill="#fff" fill-rule="evenodd"/></svg>