<svg width="921" height="787" viewBox="0 0 921 787" fill="none" xmlns="http://www.w3.org/2000/svg">
<path d="M73.8376 519.807C72.8199 510.022 64.6006 504.386 52.389 504.464C39.4729 504.386 31.8016 510.648 31.7233 519.18C31.645 528.731 41.743 532.644 51.1366 534.836L61.7825 537.654C78.6909 541.568 94.973 550.492 94.973 570.219C94.973 590.102 79.2388 603.722 52.0759 603.722C25.6958 603.722 8.94398 591.041 8.08291 568.653H28.1224C29.0618 580.473 39.0033 586.266 51.9193 586.344C65.3051 586.266 74.5421 579.769 74.6204 570.062C74.5421 561.138 66.401 557.381 54.1112 554.25L41.2734 550.962C22.6429 546.109 11.0575 536.715 11.0575 520.433C11.0575 500.393 28.8269 487.086 52.7021 487.086C76.7339 487.086 93.0943 500.628 93.4074 519.807H73.8376ZM136.831 602V488.651H157.183V536.715H209.943V488.651H230.453V602H209.943V553.78H157.183V602H136.831ZM377.518 545.326C377.596 581.96 355.208 603.566 325.54 603.566C295.716 603.566 273.484 581.882 273.563 545.326C273.484 508.691 295.716 487.086 325.54 487.086C355.208 487.086 377.596 508.691 377.518 545.326ZM294.072 545.326C293.994 571.236 307.066 585.248 325.54 585.248C344.092 585.248 357.087 571.236 357.008 545.326C357.087 519.415 344.092 505.403 325.54 505.403C307.066 505.403 293.994 519.415 294.072 545.326ZM420.628 602V488.651H494.367V505.716H440.98V536.715H490.453V553.78H440.98V584.779H494.68V602H420.628ZM538.886 602V488.651H582.253C606.832 488.651 618.966 501.176 619.044 518.085C618.966 531.862 610.277 539.533 599.161 542.195V543.29C611.216 543.917 623.427 553.936 623.427 571.158C623.427 588.771 610.668 602 584.757 602H538.886ZM559.238 584.935H581.626C596.499 584.935 602.683 578.594 602.762 569.592C602.683 559.416 594.777 551.666 582.096 551.588H559.238V584.935ZM559.238 536.872H579.748C590.472 536.872 598.613 530.688 598.691 520.589C598.613 511.9 592.351 505.56 580.217 505.56H559.238V536.872ZM685.325 488.651V602H664.972V488.651H685.325ZM731.409 602V488.651H751.762V584.779H801.861V602H731.409ZM843.092 602V488.651H863.444V584.779H913.543V602H843.092ZM56.8791 763V649.651H129.522V666.716H77.2318V697.715H124.513V714.78H77.2318V763H56.8791ZM192.046 649.651V763H171.693V649.651H192.046ZM331.283 649.651V763H313.122L259.422 685.503H258.483V763H238.13V649.651H256.604L309.991 727.148H311.087V649.651H331.283ZM391.614 763H369.853L409.775 649.651H434.824L474.903 763H453.142L443.67 734.976H401.008L391.614 763ZM406.487 718.537H438.19L422.769 672.822H421.83L406.487 718.537ZM606.469 649.651V763H588.308L534.609 685.503H533.669V763H513.317V649.651H531.791L585.177 727.148H586.273V649.651H606.469ZM728.798 687.852C726.371 674.231 715.49 666.403 701.713 666.403C683.161 666.403 670.01 680.65 670.088 706.326C670.01 732.393 683.239 746.248 701.713 746.248C715.177 746.248 726.058 738.733 728.798 725.426H749.307C746.176 747.188 728.25 764.566 701.4 764.566C671.497 764.566 649.501 742.882 649.579 706.326C649.501 669.691 671.732 648.086 701.4 648.086C726.449 648.086 745.784 662.646 749.307 687.852H728.798ZM791.791 763V649.651H865.53V666.716H812.143V697.715H861.616V714.78H812.143V745.779H865.843V763H791.791Z" fill="url(#paint0_linear_3880_3182)"/>
<path d="M73.8376 519.807C72.8199 510.022 64.6006 504.386 52.389 504.464C39.4729 504.386 31.8016 510.648 31.7233 519.18C31.645 528.731 41.743 532.644 51.1366 534.836L61.7825 537.654C78.6909 541.568 94.973 550.492 94.973 570.219C94.973 590.102 79.2388 603.722 52.0759 603.722C25.6958 603.722 8.94398 591.041 8.08291 568.653H28.1224C29.0618 580.473 39.0033 586.266 51.9193 586.344C65.3051 586.266 74.5421 579.769 74.6204 570.062C74.5421 561.138 66.401 557.381 54.1112 554.25L41.2734 550.962C22.6429 546.109 11.0575 536.715 11.0575 520.433C11.0575 500.393 28.8269 487.086 52.7021 487.086C76.7339 487.086 93.0943 500.628 93.4074 519.807H73.8376ZM136.831 602V488.651H157.183V536.715H209.943V488.651H230.453V602H209.943V553.78H157.183V602H136.831ZM377.518 545.326C377.596 581.96 355.208 603.566 325.54 603.566C295.716 603.566 273.484 581.882 273.563 545.326C273.484 508.691 295.716 487.086 325.54 487.086C355.208 487.086 377.596 508.691 377.518 545.326ZM294.072 545.326C293.994 571.236 307.066 585.248 325.54 585.248C344.092 585.248 357.087 571.236 357.008 545.326C357.087 519.415 344.092 505.403 325.54 505.403C307.066 505.403 293.994 519.415 294.072 545.326ZM420.628 602V488.651H494.367V505.716H440.98V536.715H490.453V553.78H440.98V584.779H494.68V602H420.628ZM538.886 602V488.651H582.253C606.832 488.651 618.966 501.176 619.044 518.085C618.966 531.862 610.277 539.533 599.161 542.195V543.29C611.216 543.917 623.427 553.936 623.427 571.158C623.427 588.771 610.668 602 584.757 602H538.886ZM559.238 584.935H581.626C596.499 584.935 602.683 578.594 602.762 569.592C602.683 559.416 594.777 551.666 582.096 551.588H559.238V584.935ZM559.238 536.872H579.748C590.472 536.872 598.613 530.688 598.691 520.589C598.613 511.9 592.351 505.56 580.217 505.56H559.238V536.872ZM685.325 488.651V602H664.972V488.651H685.325ZM731.409 602V488.651H751.762V584.779H801.861V602H731.409ZM843.092 602V488.651H863.444V584.779H913.543V602H843.092ZM56.8791 763V649.651H129.522V666.716H77.2318V697.715H124.513V714.78H77.2318V763H56.8791ZM192.046 649.651V763H171.693V649.651H192.046ZM331.283 649.651V763H313.122L259.422 685.503H258.483V763H238.13V649.651H256.604L309.991 727.148H311.087V649.651H331.283ZM391.614 763H369.853L409.775 649.651H434.824L474.903 763H453.142L443.67 734.976H401.008L391.614 763ZM406.487 718.537H438.19L422.769 672.822H421.83L406.487 718.537ZM606.469 649.651V763H588.308L534.609 685.503H533.669V763H513.317V649.651H531.791L585.177 727.148H586.273V649.651H606.469ZM728.798 687.852C726.371 674.231 715.49 666.403 701.713 666.403C683.161 666.403 670.01 680.65 670.088 706.326C670.01 732.393 683.239 746.248 701.713 746.248C715.177 746.248 726.058 738.733 728.798 725.426H749.307C746.176 747.188 728.25 764.566 701.4 764.566C671.497 764.566 649.501 742.882 649.579 706.326C649.501 669.691 671.732 648.086 701.4 648.086C726.449 648.086 745.784 662.646 749.307 687.852H728.798ZM791.791 763V649.651H865.53V666.716H812.143V697.715H861.616V714.78H812.143V745.779H865.843V763H791.791Z" fill="url(#paint1_linear_3880_3182)"/>
<g clip-path="url(#clip0_3880_3182)">
<path d="M502.493 385.449L491.654 415.892C496.086 415.602 500.47 415.138 504.799 414.506V378.972L502.491 385.451L502.493 385.449Z" fill="#26292B"/>
<path d="M531.917 336.179H524.469L531.917 360.799V336.179Z" fill="#26292B"/>
<path d="M531.917 336.179H524.469L531.917 360.799V336.179Z" fill="url(#paint2_linear_3880_3182)"/>
<path d="M524.473 336.179H505.502L509.395 337.816L524.473 336.179Z" fill="#26292B"/>
<path d="M524.473 336.179H505.502L509.395 337.816L524.473 336.179Z" fill="url(#paint3_linear_3880_3182)"/>
<path d="M509.663 365.283L504.789 378.973V414.507C509.288 413.85 513.731 413.013 518.104 411.997L509.663 365.283V365.283Z" fill="#26292B"/>
<path d="M518.138 341.496L509.667 365.287L518.109 412.001C522.789 410.916 527.394 409.631 531.913 408.155V360.797L524.465 336.179L509.387 337.816L518.138 341.496V341.496Z" fill="#26292B"/>
<path d="M518.138 341.496L509.667 365.287L518.109 412.001C522.789 410.916 527.394 409.631 531.913 408.155V360.797L524.465 336.179L509.387 337.816L518.138 341.496V341.496Z" fill="url(#paint4_linear_3880_3182)"/>
<path d="M502.488 385.451L504.796 378.972L502.488 385.451Z" fill="#26292B"/>
<path d="M502.488 385.451L504.796 378.972L502.488 385.451Z" fill="url(#paint5_linear_3880_3182)"/>
<path d="M492.142 332.852L504.798 336.653V336.178H505.497L492.851 330.86L464.029 411.812L474.281 416.122C475.7 416.179 477.125 416.217 478.555 416.235L492.144 332.852H492.142Z" fill="#26292B"/>
<path d="M504.789 336.654L508.851 337.874L509.382 337.816L505.489 336.179H504.789V336.654Z" fill="#26292B"/>
<path d="M504.789 336.654L508.851 337.874L509.382 337.816L505.489 336.179H504.789V336.654Z" fill="url(#paint6_linear_3880_3182)"/>
<path d="M504.789 336.654L508.851 337.874L509.382 337.816L505.489 336.179H504.789V336.654Z" fill="url(#paint7_linear_3880_3182)"/>
<path d="M509.399 337.811L508.867 337.869L511.204 338.571L509.975 364.452L509.679 365.284L518.15 341.491L509.399 337.811Z" fill="#26292B"/>
<path d="M509.399 337.811L508.867 337.869L511.204 338.571L509.975 364.452L509.679 365.284L518.15 341.491L509.399 337.811Z" fill="url(#paint8_linear_3880_3182)"/>
<path d="M509.399 337.811L508.867 337.869L511.204 338.571L509.975 364.452L509.679 365.284L518.15 341.491L509.399 337.811Z" fill="url(#paint9_linear_3880_3182)"/>
<path d="M491.654 415.897L502.493 385.454L491.654 415.897Z" fill="#26292B"/>
<path d="M504.809 338.315V336.653L492.153 332.852L478.564 416.234C479.316 416.245 480.069 416.25 480.823 416.25C484.465 416.25 488.078 416.131 491.662 415.898L502.501 385.455L504.809 378.976V338.315V338.315Z" fill="#26292B"/>
<path d="M504.809 338.315V336.653L492.153 332.852L478.564 416.234C479.316 416.245 480.069 416.25 480.823 416.25C484.465 416.25 488.078 416.131 491.662 415.898L502.501 385.455L504.809 378.976V338.315V338.315Z" fill="url(#paint10_linear_3880_3182)"/>
<path d="M504.789 378.973L509.663 365.286L504.789 338.312V378.973Z" fill="#26292B"/>
<path d="M504.789 378.973L509.663 365.286L504.789 338.312V378.973Z" fill="url(#paint11_linear_3880_3182)"/>
<path d="M504.789 378.973L509.663 365.286L504.789 338.312V378.973Z" fill="url(#paint12_linear_3880_3182)"/>
<path d="M508.851 337.871L504.789 336.651V338.313L508.851 337.871Z" fill="#26292B"/>
<path d="M508.851 337.871L504.789 336.651V338.313L508.851 337.871Z" fill="url(#paint13_linear_3880_3182)"/>
<path d="M508.851 337.871L504.789 336.651V338.313L508.851 337.871Z" fill="url(#paint14_linear_3880_3182)"/>
<path d="M504.789 338.313L509.663 365.286L509.959 364.454L511.188 338.573L508.851 337.871L504.789 338.313Z" fill="#26292B"/>
<path d="M504.789 338.313L509.663 365.286L509.959 364.454L511.188 338.573L508.851 337.871L504.789 338.313Z" fill="url(#paint15_linear_3880_3182)"/>
<path d="M504.789 338.313L509.663 365.286L509.959 364.454L511.188 338.573L508.851 337.871L504.789 338.313Z" fill="url(#paint16_linear_3880_3182)"/>
<path d="M502.493 385.452L491.654 415.895C496.086 415.605 500.47 415.141 504.799 414.508V378.975L502.491 385.454L502.493 385.452Z" fill="#26292B"/>
<path d="M531.917 336.181H524.469L531.917 360.801V336.181Z" fill="#26292B"/>
<path d="M531.917 336.181H524.469L531.917 360.801V336.181Z" fill="url(#paint17_linear_3880_3182)"/>
<path d="M524.465 336.181H505.494L509.388 337.818L524.465 336.181Z" fill="#26292B"/>
<path d="M524.465 336.181H505.494L509.388 337.818L524.465 336.181Z" fill="url(#paint18_linear_3880_3182)"/>
<path d="M509.663 365.288L504.789 378.978V414.512C509.288 413.855 513.731 413.018 518.104 412.002L509.663 365.288V365.288Z" fill="#26292B"/>
<path d="M518.138 341.498L509.667 365.289L518.109 412.003C522.789 410.918 527.394 409.632 531.913 408.157V360.799L524.465 336.181L509.387 337.818L518.138 341.498V341.498Z" fill="#26292B"/>
<path d="M518.138 341.498L509.667 365.289L518.109 412.003C522.789 410.918 527.394 409.632 531.913 408.157V360.799L524.465 336.181L509.387 337.818L518.138 341.498V341.498Z" fill="url(#paint19_linear_3880_3182)"/>
<path d="M502.488 385.454L504.796 378.975L502.488 385.454Z" fill="#26292B"/>
<path d="M502.488 385.454L504.796 378.975L502.488 385.454Z" fill="url(#paint20_linear_3880_3182)"/>
<path d="M492.142 332.855L504.798 336.656V336.181H505.497L492.851 330.863L464.029 411.815L474.281 416.125C475.7 416.181 477.125 416.22 478.555 416.238L492.144 332.855H492.142Z" fill="#26292B"/>
<path d="M504.789 336.656L508.851 337.876L509.382 337.818L505.489 336.181H504.789V336.656Z" fill="#26292B"/>
<path d="M504.789 336.656L508.851 337.876L509.382 337.818L505.489 336.181H504.789V336.656Z" fill="url(#paint21_linear_3880_3182)"/>
<path d="M504.789 336.656L508.851 337.876L509.382 337.818L505.489 336.181H504.789V336.656Z" fill="url(#paint22_linear_3880_3182)"/>
<path d="M509.389 337.812L508.857 337.87L511.194 338.572L509.965 364.453L509.669 365.285L518.14 341.492L509.389 337.812Z" fill="#26292B"/>
<path d="M509.389 337.812L508.857 337.87L511.194 338.572L509.965 364.453L509.669 365.285L518.14 341.492L509.389 337.812Z" fill="url(#paint23_linear_3880_3182)"/>
<path d="M509.389 337.812L508.857 337.87L511.194 338.572L509.965 364.453L509.669 365.285L518.14 341.492L509.389 337.812Z" fill="url(#paint24_linear_3880_3182)"/>
<path d="M491.654 415.9L502.493 385.457L491.654 415.9Z" fill="#26292B"/>
<path d="M504.809 338.314V336.652L492.153 332.851L478.564 416.233C479.316 416.244 480.069 416.249 480.823 416.249C484.465 416.249 488.078 416.13 491.662 415.897L502.501 385.454L504.809 378.975V338.314V338.314Z" fill="#26292B"/>
<path d="M504.809 338.314V336.652L492.153 332.851L478.564 416.233C479.316 416.244 480.069 416.249 480.823 416.249C484.465 416.249 488.078 416.13 491.662 415.897L502.501 385.454L504.809 378.975V338.314V338.314Z" fill="url(#paint25_linear_3880_3182)"/>
<path d="M504.789 378.976L509.663 365.289L504.789 338.315V378.976Z" fill="#26292B"/>
<path d="M504.789 378.976L509.663 365.289L504.789 338.315V378.976Z" fill="url(#paint26_linear_3880_3182)"/>
<path d="M504.789 378.976L509.663 365.289L504.789 338.315V378.976Z" fill="url(#paint27_linear_3880_3182)"/>
<path d="M508.851 337.873L504.789 336.653V338.315L508.851 337.873Z" fill="#26292B"/>
<path d="M508.851 337.873L504.789 336.653V338.315L508.851 337.873Z" fill="url(#paint28_linear_3880_3182)"/>
<path d="M508.851 337.873L504.789 336.653V338.315L508.851 337.873Z" fill="url(#paint29_linear_3880_3182)"/>
<path d="M504.789 338.314L509.663 365.287L509.959 364.455L511.188 338.574L508.851 337.872L504.789 338.314Z" fill="#26292B"/>
<path d="M504.789 338.314L509.663 365.287L509.959 364.455L511.188 338.574L508.851 337.872L504.789 338.314Z" fill="url(#paint30_linear_3880_3182)"/>
<path d="M504.789 338.314L509.663 365.287L509.959 364.455L511.188 338.574L508.851 337.872L504.789 338.314Z" fill="url(#paint31_linear_3880_3182)"/>
<path d="M455.135 27.5856C455.135 27.5856 474.198 21.5303 473.525 0C473.525 0 482.496 21.9788 468.143 33.4167L455.135 27.5856Z" fill="#B61C0C"/>
<path d="M462.727 32.9353C462.727 32.9353 482.644 34.7654 490.393 14.666C490.393 14.666 490.117 38.4031 472.447 43.3641L462.727 32.9353Z" fill="#B61C0C"/>
<path d="M440.783 20.1826C440.783 20.1826 460.502 23.5399 469.773 4.09766C469.773 4.09766 467.669 27.7428 449.669 31.329L440.781 20.1826H440.783Z" fill="#B61C0C"/>
<mask id="mask0_3880_3182" style="mask-type:luminance" maskUnits="userSpaceOnUse" x="346" y="18" width="271" height="396">
<path d="M406.323 86.1024C410.926 92.6758 417.331 97.8947 424.821 101.041L424.804 101.034C423.151 140.195 346.768 128.589 346.768 206.705C346.768 226.278 353.657 244.24 365.145 258.3C369.217 263.285 373.869 267.78 378.996 271.682L388.294 277.807L593.572 413.015C607.896 391.267 616.232 365.224 616.232 337.235C616.232 291.754 594.224 251.417 560.276 226.287C523.446 199.024 489.549 196.23 445.746 203.148C444.172 203.397 442.557 203.527 440.913 203.527C423.848 203.527 410.188 189.674 410.188 172.802C410.188 131.489 485.725 146.643 485.725 71.3698C485.725 57.9605 481.004 18.8809 441.357 18.8809C429.825 18.8809 418.858 23.5031 410.809 31.7295C403.269 39.4355 398.62 49.9831 398.62 61.6184C398.62 70.7262 401.468 79.1656 406.323 86.1001" fill="white"/>
</mask>
<g mask="url(#mask0_3880_3182)">
<path d="M616.224 18.8848H346.76V413.016H616.224V18.8848Z" fill="url(#paint32_linear_3880_3182)"/>
</g>
<mask id="mask1_3880_3182" style="mask-type:luminance" maskUnits="userSpaceOnUse" x="398" y="18" width="88" height="125">
<path d="M406.342 86.104C410.944 92.6775 417.35 97.8963 424.84 101.043L424.822 101.036L430.47 120.68L434.426 142.228C456.519 130.03 485.746 118.195 485.746 71.3737C485.746 57.9644 481.025 18.8848 441.378 18.8848C429.846 18.8848 418.879 23.507 410.83 31.7334C403.29 39.4394 398.641 49.987 398.641 61.6223C398.641 70.7301 401.489 79.1695 406.344 86.104" fill="white"/>
</mask>
<g mask="url(#mask1_3880_3182)">
<path d="M485.748 18.8848H398.643V142.228H485.748V18.8848Z" fill="url(#paint33_linear_3880_3182)"/>
</g>
<path fill-rule="evenodd" clip-rule="evenodd" d="M467.136 121.012C477.836 110.615 485.746 95.7298 485.746 71.3737C485.746 57.9644 481.025 18.8848 441.378 18.8848C429.846 18.8848 418.879 23.507 410.83 31.7334C403.29 39.4394 398.641 49.987 398.641 61.6223C398.641 65.2488 399.094 68.7677 399.941 72.1295C399.964 72.1161 465.878 27.9746 467.136 121.01" fill="#51F4E9"/>
<mask id="mask2_3880_3182" style="mask-type:luminance" maskUnits="userSpaceOnUse" x="402" y="198" width="233" height="244">
<path d="M541.087 375.415L604.16 441.619C623.198 416.244 634.479 384.714 634.479 350.548C634.479 284.818 592.726 228.839 534.296 207.686C518.155 201.843 500.743 198.656 482.588 198.656C458.873 198.656 436.428 204.09 416.432 213.781C393.883 224.708 401.688 229.097 416.559 244.706L541.089 375.417L541.087 375.415Z" fill="white"/>
</mask>
<g mask="url(#mask2_3880_3182)">
<path d="M634.489 198.652H393.893V441.615H634.489V198.652Z" fill="url(#paint34_linear_3880_3182)"/>
</g>
<path fill-rule="evenodd" clip-rule="evenodd" d="M541.121 375.414L604.194 441.617C612.954 429.944 620.068 416.965 625.199 403.029L405.012 232.273C407.544 235.62 411.682 239.549 416.591 244.703L541.121 375.414V375.414Z" fill="#3E005D"/>
<mask id="mask3_3880_3182" style="mask-type:luminance" maskUnits="userSpaceOnUse" x="346" y="101" width="98" height="183">
<path d="M397.234 283.694C345.743 187.907 429.112 145.266 429.112 145.266C430.814 144.236 432.586 143.229 434.405 142.225C454.648 116.666 434.34 105.053 427.129 101.932C425.831 101.369 424.958 101.082 424.821 101.039L424.804 101.032C423.151 140.193 346.768 128.586 346.768 206.703C346.768 226.276 353.657 244.238 365.145 258.297C369.217 263.283 373.869 267.777 378.996 271.68L388.294 277.805L397.234 283.692V283.694Z" fill="white"/>
</mask>
<g mask="url(#mask3_3880_3182)">
<path d="M454.628 101.032H345.723V283.692H454.628V101.032Z" fill="url(#paint35_linear_3880_3182)"/>
</g>
<path fill-rule="evenodd" clip-rule="evenodd" d="M384.827 253.899C363.151 179.017 429.119 145.272 429.119 145.272C429.119 145.272 356.223 177.606 384.809 253.854L384.827 253.899V253.899Z" fill="#FFCE4B"/>
<path fill-rule="evenodd" clip-rule="evenodd" d="M398.945 131.334C376.221 144.288 346.768 158.197 346.768 206.708C346.768 222.097 351.029 236.489 358.432 248.775C332.266 169.799 398.945 131.336 398.945 131.336V131.334Z" fill="#FFBBD7"/>
<path fill-rule="evenodd" clip-rule="evenodd" d="M411.123 31.4297C415.956 30.3688 473.518 18.8501 483.337 69.7513C484.238 74.4251 484.739 79.6238 484.757 85.4078C485.398 81.1107 485.741 76.4458 485.741 71.3705C485.741 66.2952 485.12 58.2819 482.444 49.7618C481.778 47.6424 480.984 45.5051 480.042 43.3991C474.317 30.5976 463.078 18.8838 441.373 18.8838C432.38 18.8838 423.729 21.6962 416.537 26.8365C414.763 28.1059 413.088 29.5076 411.531 31.0282C411.394 31.1605 411.26 31.2951 411.123 31.4297" fill="#5EF9F6"/>
<path fill-rule="evenodd" clip-rule="evenodd" d="M397.251 283.701C397.251 283.701 374.725 223.022 421.035 196.226C414.397 190.574 410.207 182.155 410.207 172.812C410.207 159.313 418.272 151.842 429.132 145.275C429.132 145.275 345.762 187.917 397.253 283.704" fill="#102770"/>
<path fill-rule="evenodd" clip-rule="evenodd" d="M406.295 233.879C418.81 253.716 458.726 318.533 442.917 313.772L548.873 383.561L541.108 375.411L416.578 244.7C412.434 240.349 408.836 236.871 406.293 233.879" fill="url(#paint36_linear_3880_3182)"/>
<path fill-rule="evenodd" clip-rule="evenodd" d="M524.19 213.505C586.536 236.076 631.088 295.807 631.088 365.944C631.088 374.199 630.471 382.309 629.28 390.233C632.696 377.581 634.517 364.275 634.517 350.543C634.517 284.813 592.764 228.834 534.334 207.681C518.193 201.838 500.78 198.651 482.625 198.651C462.36 198.651 443.023 202.621 425.346 209.822C439.239 205.945 453.885 203.872 469.014 203.872C488.387 203.872 506.968 207.272 524.19 213.507" fill="#FCE2A6"/>
<path fill-rule="evenodd" clip-rule="evenodd" d="M427.144 101.935C434.354 105.057 454.662 116.67 434.419 142.228C436.696 140.97 439.048 139.719 441.437 138.431C454.297 116.547 438.248 106.387 429.624 102.727C426.989 101.608 425.047 101.097 424.836 101.045C424.973 101.088 425.847 101.375 427.144 101.938" fill="#1296DF"/>
<path fill-rule="evenodd" clip-rule="evenodd" d="M431.051 123.879C434.685 131.285 434.42 142.229 434.42 142.229C454.663 116.671 434.355 105.058 427.145 101.936C425.846 101.374 424.974 101.086 424.837 101.044L424.819 101.037C424.523 108.046 421.834 113.428 417.615 117.99C424.577 115.66 428.658 119.001 431.051 123.879" fill="#102770"/>
<path fill-rule="evenodd" clip-rule="evenodd" d="M541.1 375.414L548.862 383.559L408.624 228.712C408.624 228.712 402.295 222.194 415.476 214.253C394.125 224.836 401.916 229.322 416.57 244.703L541.1 375.414Z" fill="#FCE2A6"/>
<path d="M410.828 31.6483V31.5059H410.799C410.804 31.556 410.809 31.6088 410.815 31.6589L410.828 31.6483V31.6483Z" fill="url(#paint37_linear_3880_3182)"/>
<path d="M410.816 31.7389V32.0332C411.057 31.7749 411.299 31.5143 411.547 31.2626C411.54 31.1863 411.531 31.1099 411.524 31.0312L410.816 31.6288V31.7367V31.7389Z" fill="#FCE2A6"/>
<path d="M400.08 50.5764L400.67 50.1121L400.822 50.0516C402.657 43.218 406.142 37.0639 410.825 32.0379V31.7441C405.761 36.9181 402.007 43.375 400.082 50.5786L400.08 50.5764Z" fill="#FCE2A6"/>
<path d="M410.822 31.7567V31.6279L410.809 31.6387C410.814 31.6789 410.817 31.7192 410.822 31.7567Z" fill="#FCE2A6"/>
<path d="M279.832 145.387C293.414 144.916 337.302 138.852 406.345 86.1025C401.489 79.168 398.641 70.7264 398.641 61.6208C398.641 57.797 399.146 54.0942 400.088 50.5664L279.832 145.387Z" fill="url(#paint38_linear_3880_3182)"/>
<path d="M410.812 31.6359C410.807 31.5933 410.803 31.5485 410.798 31.5059L275.992 145.376C276.042 145.378 276.095 145.381 276.149 145.385L410.812 31.6359Z" fill="url(#paint39_linear_3880_3182)"/>
<path d="M279.814 145.392L400.07 50.5741C401.994 43.3704 405.751 36.9136 410.812 31.7396C410.808 31.706 410.806 31.6723 410.801 31.6387L276.141 145.388C276.881 145.424 278.108 145.453 279.814 145.392Z" fill="#FCE2A6"/>
</g>
<defs>
<linearGradient id="paint0_linear_3880_3182" x1="0" y1="465" x2="804.34" y2="465" gradientUnits="userSpaceOnUse">
<stop stop-color="#6DB4F9"/>
<stop offset="1" stop-color="#EF9DFF"/>
</linearGradient>
<linearGradient id="paint1_linear_3880_3182" x1="0" y1="465" x2="750.598" y2="607.298" gradientUnits="userSpaceOnUse">
<stop stop-color="#FFCE4B"/>
<stop offset="0.484375" stop-color="#00FFF0"/>
<stop offset="1" stop-color="#E8A6FF"/>
</linearGradient>
<linearGradient id="paint2_linear_3880_3182" x1="532.345" y1="372.715" x2="543.418" y2="470.11" gradientUnits="userSpaceOnUse">
<stop stop-color="#0067AF"/>
<stop offset="1" stop-color="#3AB6A8"/>
</linearGradient>
<linearGradient id="paint3_linear_3880_3182" x1="519.308" y1="374.198" x2="530.381" y2="471.594" gradientUnits="userSpaceOnUse">
<stop stop-color="#0067AF"/>
<stop offset="1" stop-color="#3AB6A8"/>
</linearGradient>
<linearGradient id="paint4_linear_3880_3182" x1="522.022" y1="373.888" x2="533.095" y2="471.283" gradientUnits="userSpaceOnUse">
<stop stop-color="#0067AF"/>
<stop offset="1" stop-color="#3AB6A8"/>
</linearGradient>
<linearGradient id="paint5_linear_3880_3182" x1="519.81" y1="332.998" x2="479.068" y2="457.226" gradientUnits="userSpaceOnUse">
<stop stop-color="#0067AF"/>
<stop offset="1" stop-color="#3AB6A8"/>
</linearGradient>
<linearGradient id="paint6_linear_3880_3182" x1="511.389" y1="375.097" x2="522.462" y2="472.493" gradientUnits="userSpaceOnUse">
<stop stop-color="#0067AF"/>
<stop offset="1" stop-color="#3AB6A8"/>
</linearGradient>
<linearGradient id="paint7_linear_3880_3182" x1="509.526" y1="329.633" x2="468.783" y2="453.862" gradientUnits="userSpaceOnUse">
<stop stop-color="#0067AF"/>
<stop offset="1" stop-color="#3AB6A8"/>
</linearGradient>
<linearGradient id="paint8_linear_3880_3182" x1="516.318" y1="374.533" x2="527.39" y2="471.928" gradientUnits="userSpaceOnUse">
<stop stop-color="#0067AF"/>
<stop offset="1" stop-color="#3AB6A8"/>
</linearGradient>
<linearGradient id="paint9_linear_3880_3182" x1="516.121" y1="331.786" x2="475.381" y2="456.015" gradientUnits="userSpaceOnUse">
<stop stop-color="#0067AF"/>
<stop offset="1" stop-color="#3AB6A8"/>
</linearGradient>
<linearGradient id="paint10_linear_3880_3182" x1="507.36" y1="328.916" x2="466.62" y2="453.143" gradientUnits="userSpaceOnUse">
<stop stop-color="#0067AF"/>
<stop offset="1" stop-color="#3AB6A8"/>
</linearGradient>
<linearGradient id="paint11_linear_3880_3182" x1="507.61" y1="375.524" x2="518.683" y2="472.917" gradientUnits="userSpaceOnUse">
<stop stop-color="#0067AF"/>
<stop offset="1" stop-color="#3AB6A8"/>
</linearGradient>
<linearGradient id="paint12_linear_3880_3182" x1="514.037" y1="331.11" x2="473.295" y2="455.337" gradientUnits="userSpaceOnUse">
<stop stop-color="#0067AF"/>
<stop offset="1" stop-color="#3AB6A8"/>
</linearGradient>
<linearGradient id="paint13_linear_3880_3182" x1="511.031" y1="375.135" x2="522.103" y2="472.53" gradientUnits="userSpaceOnUse">
<stop stop-color="#0067AF"/>
<stop offset="1" stop-color="#3AB6A8"/>
</linearGradient>
<linearGradient id="paint14_linear_3880_3182" x1="509.364" y1="329.577" x2="468.623" y2="453.807" gradientUnits="userSpaceOnUse">
<stop stop-color="#0067AF"/>
<stop offset="1" stop-color="#3AB6A8"/>
</linearGradient>
<linearGradient id="paint15_linear_3880_3182" x1="512.145" y1="375.009" x2="523.218" y2="472.404" gradientUnits="userSpaceOnUse">
<stop stop-color="#0067AF"/>
<stop offset="1" stop-color="#3AB6A8"/>
</linearGradient>
<linearGradient id="paint16_linear_3880_3182" x1="514.046" y1="331.112" x2="473.305" y2="455.341" gradientUnits="userSpaceOnUse">
<stop stop-color="#0067AF"/>
<stop offset="1" stop-color="#3AB6A8"/>
</linearGradient>
<linearGradient id="paint17_linear_3880_3182" x1="532.345" y1="372.717" x2="543.418" y2="470.112" gradientUnits="userSpaceOnUse">
<stop stop-color="#0067AF"/>
<stop offset="1" stop-color="#3AB6A8"/>
</linearGradient>
<linearGradient id="paint18_linear_3880_3182" x1="519.3" y1="374.2" x2="530.373" y2="471.596" gradientUnits="userSpaceOnUse">
<stop stop-color="#0067AF"/>
<stop offset="1" stop-color="#3AB6A8"/>
</linearGradient>
<linearGradient id="paint19_linear_3880_3182" x1="522.022" y1="373.89" x2="533.095" y2="471.285" gradientUnits="userSpaceOnUse">
<stop stop-color="#0067AF"/>
<stop offset="1" stop-color="#3AB6A8"/>
</linearGradient>
<linearGradient id="paint20_linear_3880_3182" x1="519.81" y1="333.001" x2="479.068" y2="457.229" gradientUnits="userSpaceOnUse">
<stop stop-color="#0067AF"/>
<stop offset="1" stop-color="#3AB6A8"/>
</linearGradient>
<linearGradient id="paint21_linear_3880_3182" x1="511.389" y1="375.099" x2="522.462" y2="472.495" gradientUnits="userSpaceOnUse">
<stop stop-color="#0067AF"/>
<stop offset="1" stop-color="#3AB6A8"/>
</linearGradient>
<linearGradient id="paint22_linear_3880_3182" x1="509.526" y1="329.635" x2="468.783" y2="453.864" gradientUnits="userSpaceOnUse">
<stop stop-color="#0067AF"/>
<stop offset="1" stop-color="#3AB6A8"/>
</linearGradient>
<linearGradient id="paint23_linear_3880_3182" x1="516.308" y1="374.534" x2="527.38" y2="471.929" gradientUnits="userSpaceOnUse">
<stop stop-color="#0067AF"/>
<stop offset="1" stop-color="#3AB6A8"/>
</linearGradient>
<linearGradient id="paint24_linear_3880_3182" x1="516.112" y1="331.787" x2="475.371" y2="456.016" gradientUnits="userSpaceOnUse">
<stop stop-color="#0067AF"/>
<stop offset="1" stop-color="#3AB6A8"/>
</linearGradient>
<linearGradient id="paint25_linear_3880_3182" x1="507.36" y1="328.915" x2="466.62" y2="453.142" gradientUnits="userSpaceOnUse">
<stop stop-color="#0067AF"/>
<stop offset="1" stop-color="#3AB6A8"/>
</linearGradient>
<linearGradient id="paint26_linear_3880_3182" x1="507.61" y1="375.527" x2="518.683" y2="472.92" gradientUnits="userSpaceOnUse">
<stop stop-color="#0067AF"/>
<stop offset="1" stop-color="#3AB6A8"/>
</linearGradient>
<linearGradient id="paint27_linear_3880_3182" x1="514.037" y1="331.113" x2="473.295" y2="455.339" gradientUnits="userSpaceOnUse">
<stop stop-color="#0067AF"/>
<stop offset="1" stop-color="#3AB6A8"/>
</linearGradient>
<linearGradient id="paint28_linear_3880_3182" x1="511.031" y1="375.137" x2="522.103" y2="472.532" gradientUnits="userSpaceOnUse">
<stop stop-color="#0067AF"/>
<stop offset="1" stop-color="#3AB6A8"/>
</linearGradient>
<linearGradient id="paint29_linear_3880_3182" x1="509.364" y1="329.579" x2="468.623" y2="453.809" gradientUnits="userSpaceOnUse">
<stop stop-color="#0067AF"/>
<stop offset="1" stop-color="#3AB6A8"/>
</linearGradient>
<linearGradient id="paint30_linear_3880_3182" x1="512.145" y1="375.01" x2="523.218" y2="472.405" gradientUnits="userSpaceOnUse">
<stop stop-color="#0067AF"/>
<stop offset="1" stop-color="#3AB6A8"/>
</linearGradient>
<linearGradient id="paint31_linear_3880_3182" x1="514.046" y1="331.113" x2="473.305" y2="455.342" gradientUnits="userSpaceOnUse">
<stop stop-color="#0067AF"/>
<stop offset="1" stop-color="#3AB6A8"/>
</linearGradient>
<linearGradient id="paint32_linear_3880_3182" x1="417.565" y1="277.824" x2="490.959" y2="206.79" gradientUnits="userSpaceOnUse">
<stop stop-color="#15FF86"/>
<stop offset="1" stop-color="#1887C8"/>
</linearGradient>
<linearGradient id="paint33_linear_3880_3182" x1="425.683" y1="125.886" x2="465.801" y2="15.7472" gradientUnits="userSpaceOnUse">
<stop stop-color="#0067AF"/>
<stop offset="1" stop-color="#51F4E9"/>
</linearGradient>
<linearGradient id="paint34_linear_3880_3182" x1="491.393" y1="171.787" x2="529.988" y2="422.917" gradientUnits="userSpaceOnUse">
<stop stop-color="#FFCE4B"/>
<stop offset="1" stop-color="#BC25C1"/>
</linearGradient>
<linearGradient id="paint35_linear_3880_3182" x1="413.949" y1="198.416" x2="360.3" y2="174.834" gradientUnits="userSpaceOnUse">
<stop stop-color="#003780"/>
<stop offset="1" stop-color="#C13FF9"/>
</linearGradient>
<linearGradient id="paint36_linear_3880_3182" x1="406.295" y1="308.721" x2="548.873" y2="308.721" gradientUnits="userSpaceOnUse">
<stop offset="0.07" stop-color="#188FC4"/>
<stop offset="1" stop-color="#15FF86"/>
</linearGradient>
<linearGradient id="paint37_linear_3880_3182" x1="161.625" y1="160.976" x2="445.969" y2="13.3648" gradientUnits="userSpaceOnUse">
<stop stop-color="#FFCE4B"/>
<stop offset="1" stop-color="#B91C58"/>
</linearGradient>
<linearGradient id="paint38_linear_3880_3182" x1="213.887" y1="170.302" x2="455.618" y2="44.7936" gradientUnits="userSpaceOnUse">
<stop stop-color="#FFCE4B"/>
<stop offset="1" stop-color="#B91C58"/>
</linearGradient>
<linearGradient id="paint39_linear_3880_3182" x1="207.918" y1="158.826" x2="449.649" y2="33.3203" gradientUnits="userSpaceOnUse">
<stop stop-color="#FFCE4B"/>
<stop offset="1" stop-color="#B91C58"/>
</linearGradient>
<clipPath id="clip0_3880_3182">
<rect width="369.32" height="441.615" fill="white" transform="translate(276)"/>
</clipPath>
</defs>
</svg>
