<svg width="417" height="363" viewBox="0 0 417 363" fill="none" xmlns="http://www.w3.org/2000/svg">
<path fill-rule="evenodd" clip-rule="evenodd" d="M174.319 130.4C174.319 121.432 181.589 114.163 190.556 114.163H214.166C322.02 114.163 396.908 221.574 359.61 322.774C352.232 342.793 333.158 356.091 311.823 356.091H75.3317C13.7977 356.091 -16.2634 281.023 28.2623 238.551L78.973 190.179C85.4617 183.99 95.7394 184.233 101.929 190.721C108.118 197.21 107.876 207.488 101.387 213.677L50.6764 262.049C27.3533 284.296 43.0998 323.617 75.3317 323.617H311.823C319.554 323.617 326.466 318.798 329.14 311.544C358.624 231.545 299.425 146.636 214.166 146.636H190.556C181.589 146.636 174.319 139.367 174.319 130.4Z" fill="white" stroke="white" stroke-width="13.0909" stroke-linecap="round"/>
<path fill-rule="evenodd" clip-rule="evenodd" d="M242.923 232.691C242.923 241.659 235.654 248.928 226.686 248.928H203.076C95.2217 248.928 20.3346 141.517 57.6322 40.3173C65.0102 20.2983 84.0841 6.99998 105.419 6.99998H341.91C403.444 6.99998 433.506 82.0676 388.98 124.54L338.269 172.912C331.78 179.101 321.503 178.858 315.313 172.37C309.124 165.881 309.366 155.603 315.855 149.414L366.566 101.042C389.889 78.7946 374.142 39.4736 341.91 39.4736H105.419C97.688 39.4736 90.7759 44.2926 88.1023 51.5471C58.6185 131.546 117.817 216.455 203.076 216.455H226.686C235.654 216.455 242.923 223.724 242.923 232.691Z" fill="white" stroke="white" stroke-width="13.0909" stroke-linecap="round"/>
</svg>
