<svg width="389" height="380" viewBox="0 0 389 380" fill="none" xmlns="http://www.w3.org/2000/svg">
<g clip-path="url(#clip0_83_118)">
<path d="M199.991 256.283C200.497 256.645 201.003 256.999 201.509 257.36C201.343 257.534 201.061 257.888 201.018 257.859C200.469 257.526 199.948 257.129 199.428 256.753L199.991 256.276V256.283Z" fill="#080706"/>
<path d="M138.687 298.934C132.204 296.802 126.017 295.429 121.261 291.518C116.635 287.724 114.937 289.979 112.682 293.932C102.375 311.98 95.1689 331.278 93.1306 351.834C92.0826 362.422 88.7362 367.764 78.4439 370.879C69.1274 373.697 66.764 382.436 71.6788 389.794C73.2111 392.092 75.8709 393.957 71.7222 395.98C68.8528 397.383 67.0964 401.264 62.4201 397.701C42.356 382.407 20.2103 387.221 7.80027 409.308C0.312364 422.622 -1.13318 437.019 0.731571 452.053C1.8085 460.741 6.35473 466.27 14.1823 469.002C53.6673 482.756 93.0295 486.493 132.139 467.318C137.776 464.557 140.357 461.102 140.443 454.641C140.675 436.579 136.931 419.369 130.758 402.55C129.898 400.201 127.6 398.387 130.397 395.272C140.703 383.838 139.287 375.215 125.33 369.91C117.878 367.077 117.452 362.885 118.435 356.676C121.622 336.525 128.243 317.574 138.694 298.941L138.687 298.934Z" fill="#2432F4"/>
<path d="M265.309 439.499C265.439 441.833 265.649 446.748 265.996 451.656C266.35 456.722 268.699 460.538 273.744 461.926C301.462 469.566 327.872 468.951 350.791 448.743C374.549 427.79 383.273 399.659 388.021 369.722C388.766 365.031 386.482 361.605 383.186 358.404C371.853 347.403 357.925 341.296 343.195 336.547C340.08 335.542 336.791 335.282 334.247 332.434C326.911 324.209 320.262 321.969 311.928 328.033C301.824 335.391 296.02 330.57 289.681 323.732C286.32 320.111 283.935 315.847 281.369 311.655C278.464 306.899 280.451 298.515 275.724 297.134C270.976 295.747 264.774 300.387 259.101 300.77C251.96 301.261 252.451 304.767 253.478 309.826C256.954 326.941 266.408 340.197 280.141 350.374C284.629 353.698 286.617 356.149 285.055 362.198C282.988 370.214 285.46 377.42 294.003 381.113C296.013 381.98 299.272 381.366 298.868 385.247C298.485 388.991 295.695 389.389 292.919 389.736C281.955 391.102 275.659 398.264 270.976 407.371C266.206 416.652 265.266 426.705 265.302 439.491L265.309 439.499Z" fill="#2432F4"/>
<path d="M118.876 373.502C125.265 374.912 133.013 376.834 132.464 384.416C131.575 396.638 119.44 393.53 111.215 396.964C123.017 394.723 124.514 403.418 126.884 410.725C131.062 423.627 133.584 436.832 133.44 450.506C133.382 455.696 131.467 458.515 126.689 460.835C99.1081 474.257 70.4358 474.567 41.2214 468.482C33.1336 466.798 25.2192 464.254 17.276 461.926C12.578 460.553 9.03638 457.814 8.27024 452.552C5.85619 435.914 7.20777 419.977 18.1578 406.294C25.306 397.368 34.5719 392.099 46.3531 394.658C58.221 397.231 65.7522 404.618 68.4193 417.989C67.7326 402.478 73.3124 393.494 89.8856 394.737C86.3584 393.299 82.6868 392.135 79.3403 390.357C75.3 388.211 71.8163 385.204 75.3 380.166C78.6754 375.295 83.7926 373.314 89.6398 373.379C90.0879 373.379 90.6228 374.717 90.9336 375.512C94.9161 385.594 104.536 389.15 114.612 384.879C120.444 382.407 116.606 377.181 118.876 373.495V373.502ZM14.7246 449.169C14.5873 448.952 14.4644 448.707 14.2837 448.526C14.2403 448.483 13.9801 448.656 13.8284 448.728C14.1753 448.793 14.5294 448.866 14.8764 448.931C15.1366 453.116 18.9383 453.463 21.5692 454.923C40.8817 465.648 61.6975 461.745 82.7952 461.991C81.9062 460.517 81.7255 459.83 81.3135 459.628C80.5112 459.237 79.5644 458.898 78.6898 458.927C56.7754 459.541 35.338 457.076 14.7246 449.169ZM124.297 450.152C114.055 452.957 103.806 455.761 93.5645 458.558C104.926 459.527 115.081 456.404 124.297 450.152Z" fill="#2432F4"/>
<path d="M331.32 352.289C335.281 344.705 341.328 342.488 349.462 345.639C359.255 349.448 368.406 354.313 376.212 361.519C379.095 364.179 380.91 366.889 380.274 371.095C376.269 397.433 367.589 421.639 348.276 440.886C328.162 460.929 303.739 461.948 277.951 456.158C275.66 455.645 273.181 454.865 272.776 451.721C270.947 437.619 269.574 423.532 275.732 410.046C281.731 396.906 292.067 392.041 306.674 394.723C310.721 395.467 314.422 398.539 319.185 396.927C317.349 392.468 313.28 391.608 309.644 390.415C302.735 388.153 301.593 384.286 306.985 379.306C310.121 376.408 313.858 374.16 315.802 370.141C316.98 369.129 319.604 368.371 317.877 366.47C316.793 365.277 315.318 367.156 314.429 368.385C311.169 370.662 308.105 373.3 304.607 375.107C301.173 376.885 297.213 378.988 293.707 375.006C290.476 371.334 289.255 367.164 290.643 362.241C291.51 359.162 292.775 358.194 295.774 359.871C302.619 363.709 308.719 363.579 312.796 355.859C316.858 348.162 316.641 341.158 308.141 335.658C310.931 334.053 313.121 332.398 315.585 331.444C325.639 327.57 332.824 333.381 331.327 344.035C330.988 346.449 330.503 348.841 330.084 351.241C328.588 352.007 327.649 353.778 328.884 354.58C330.706 355.751 330.496 353.113 331.335 352.282L331.32 352.289ZM355.107 413.804C337.045 441.652 311.039 451.027 277.055 446.141C304.816 460.358 344.453 443.344 355.107 413.804ZM362.096 398.965C362.905 399.161 363.722 399.363 364.532 399.558C369.822 391.485 371.203 382.19 371.376 372.498C368.283 381.323 365.189 390.14 362.096 398.965Z" fill="#2432F4"/>
<path d="M314.43 368.385C315.319 367.156 316.793 365.284 317.877 366.47C319.605 368.371 316.981 369.13 315.803 370.141C315.348 369.556 314.885 368.971 314.43 368.385Z" fill="#0C0B09"/>
<path d="M331.32 352.289C330.482 353.12 330.691 355.758 328.87 354.587C327.634 353.785 328.574 352.014 330.07 351.248C330.482 351.595 330.901 351.942 331.32 352.289Z" fill="#0C0B09"/>
</g>
<path d="M271.938 46.1435C264.521 43.5581 257.26 44.2553 249.989 46.5115C243.618 48.4965 237.557 51.2853 231.457 53.9676C219.684 59.1385 208.588 55.2942 203.466 44.3327C198.693 34.1265 203.069 22.0224 214.097 16.7837C225.202 11.5064 237.082 8.45612 249.321 7.19729C271.405 4.9314 292.299 8.9887 311.625 20.1148C318.945 24.327 323.544 30.5631 323.476 39.3942C323.408 47.5766 319.458 53.619 312.467 57.5795C305.98 61.2494 299.416 60.9008 293.035 57.0856C290.586 55.6234 288.165 54.1032 286.597 53.1348C281.175 50.346 276.789 47.8284 271.938 46.1435Z" fill="#2432F4"/>
<mask id="mask0_83_118" style="mask-type:luminance" maskUnits="userSpaceOnUse" x="157" y="75" width="163" height="230">
<path d="M157.949 75.4847H319.814V304.02H157.949V75.4847Z" fill="white"/>
</mask>
<g mask="url(#mask0_83_118)">
<path d="M174.651 264.868C188.099 288.398 207.725 302.245 229.916 303.853C252.117 305.47 273.689 294.625 290.652 273.312C306.773 253.045 316.949 225.457 319.302 195.603C321.635 165.75 315.894 137 303.113 114.632C289.665 91.1012 270.039 77.2637 247.848 75.6466C214.928 73.2452 183.52 98.8865 167.825 140.951C162.8 154.42 159.644 168.877 158.462 183.896C156.129 213.75 161.861 242.499 174.651 264.868ZM246.531 92.4568C262.632 93.6285 277.281 104.396 287.777 122.766C298.94 142.297 303.926 167.715 301.845 194.344C299.763 220.974 290.836 245.385 276.749 263.076C263.494 279.722 247.335 288.234 231.233 287.062C219.586 286.21 208.713 280.332 199.602 270.184C246.095 274.735 279.528 190.907 279.528 190.907L221.096 197.085C220.166 197.182 219.692 195.991 220.457 195.41L267.619 159.581C246.202 116.859 219.44 115.687 188.893 135.886C202.555 107.592 224.369 90.8494 246.531 92.4665V92.4471V92.4568Z" fill="#2432F4"/>
</g>
<mask id="mask1_83_118" style="mask-type:luminance" maskUnits="userSpaceOnUse" x="48" y="75" width="163" height="230">
<path d="M48.1637 75.4851H210.029V304.021H48.1637V75.4851Z" fill="white"/>
</mask>
<g mask="url(#mask1_83_118)">
<path d="M64.8651 264.868C78.3136 288.398 97.9393 302.245 120.131 303.853C142.332 305.47 163.904 294.625 180.867 273.312C196.987 253.044 207.163 225.457 209.516 195.603C211.849 165.75 206.118 137 193.327 114.631C179.879 91.101 160.253 77.2636 138.062 75.6465C105.143 73.245 73.734 98.8864 58.0393 140.951C53.0143 154.42 49.8579 168.877 48.6767 183.896C46.3433 213.75 52.0751 242.499 64.8651 264.868ZM136.745 92.4567C152.847 93.6284 167.496 104.396 177.991 122.765C189.154 142.297 194.141 167.715 192.059 194.344C189.977 220.973 181.051 245.385 166.963 263.076C153.708 279.722 137.549 288.234 121.447 287.062C109.8 286.21 98.9268 280.332 89.816 270.184C136.309 274.735 169.742 190.907 169.742 190.907L111.31 197.085C110.381 197.182 109.906 195.991 110.671 195.41L157.833 159.581C136.416 116.859 109.655 115.687 79.1076 135.886C92.769 107.592 114.583 90.8493 136.745 92.4664V92.447V92.4567Z" fill="#2432F4"/>
</g>
<path d="M111.685 40.9486C104.211 40.4935 97.7333 43.3016 91.6723 47.6978C86.3568 51.5518 81.5351 56.132 76.6457 60.6057C67.2153 69.2335 56.0421 68.5847 48.4513 59.0079C41.3834 50.0896 42.2064 36.6105 50.9397 28.1182C59.7213 19.5679 69.8101 13.0413 80.6928 8.21903C100.338 -0.48625 120.554 -2.45196 141.196 3.16435C149.019 5.29468 154.877 10.2525 157.143 19.1805C159.234 27.4597 157.211 34.7028 151.847 40.7355C146.87 46.3228 140.761 47.8721 133.906 45.8774C131.272 45.1124 128.658 44.2796 126.964 43.7567C121.261 42.5173 116.575 41.2487 111.685 40.9582V40.9486Z" fill="#2432F4"/>
<defs>
<clipPath id="clip0_83_118">
</clipPath>
</defs>
</svg>
