<svg xmlns:xlink="http://www.w3.org/1999/xlink" xmlns="http://www.w3.org/2000/svg" width="112" height="56" viewBox="0 0 112 56" fill="none">
<g clip-path="url(#clip0_107_1149)">
<path d="M73.1203 36.8189C68.4813 39.2441 63.8422 41.8898 59.2032 44.315C56.1105 46.2992 53.0178 48.063 49.7041 49.6063C46.1696 51.811 42.856 54.0157 38.6588 55.1181C36.2288 56.6614 33.7988 55.7795 31.8107 54.4567C21.2071 48.5039 10.6036 42.1102 0 35.4961C5.08087 35.2756 9.94083 34.6142 14.5799 37.7008C19.8817 41.2283 25.4043 44.0945 30.927 47.4016C32.0316 48.063 33.357 48.7244 34.6824 49.1653C38.4379 49.8268 41.0888 47.8425 44.1815 46.2992C45.0651 45.8583 45.9487 45.4173 47.0533 44.9764C50.146 42.9921 53.2387 41.2283 56.5523 39.685C61.4122 35.2756 67.1558 36.378 73.1203 36.8189Z" fill="white"/>
<path d="M91.0138 29.7638C83.9448 29.9843 77.0966 29.9843 70.2485 29.5433H55.0059C50.146 30.2047 45.0651 29.7638 40.2051 29.5433C35.1243 29.5433 29.8225 29.5433 24.7416 29.5433C22.5325 29.5433 20.5444 28.441 18.998 26.8976C18.5562 26.4567 18.1144 26.2362 18.3353 25.5748C18.5562 24.9134 19.2189 24.9134 19.6608 24.9134C25.6252 24.9134 31.8107 24.4724 37.7752 25.1339C42.856 24.6929 47.9369 24.6929 53.0178 25.1339C57.8777 24.6929 62.9586 24.6929 67.8185 25.1339C73.3412 24.6929 78.643 24.6929 84.1657 25.1339C86.8166 25.3543 89.0256 26.8976 91.0138 29.7638Z" fill="white"/>
<path d="M112 19.8425C104.931 21.1654 98.7456 20.063 93.4438 15.4331C90.1302 13.6693 87.0375 11.9055 83.9448 9.70079C81.073 8.37796 78.4221 6.17323 75.1085 6.17323C71.574 6.83465 68.7022 9.03937 65.6095 10.5827C60.5286 13.4488 55.6686 16.5354 50.3669 18.9606C48.5996 19.8425 46.8324 19.6221 44.8442 19.4016H38.6588C40.426 17.8583 42.4142 16.9764 44.1815 16.0945C51.0296 12.3465 57.8777 8.59843 64.7258 4.8504C67.8185 2.86615 70.6903 0.440948 74.4458 3.53903e-06C78.4221 -0.661414 81.5148 1.54331 84.6075 3.52756C87.7002 5.51182 91.0138 7.27559 94.1065 9.25985C100.071 12.7874 105.815 16.0945 112 19.8425Z" fill="white"/>
</g>
<defs>
<clipPath id="clip0_107_1149">
<rect width="112" height="56" fill="white"/>
</clipPath>
</defs>
</svg>