<?xml version="1.0" encoding="UTF-8" standalone="no"?>
<svg
   viewBox="0 0 193.8 193.8"
   version="1.1"
   id="svg4"
   width="193.8"
   height="193.8"
   xmlns:xlink="http://www.w3.org/1999/xlink"
   xmlns="http://www.w3.org/2000/svg"
   xmlns:svg="http://www.w3.org/2000/svg">
  <defs
     id="defs4">
    <linearGradient
       id="linearGradient4">
      <stop
         style="stop-color:#ffd8ea;stop-opacity:1;"
         offset="0"
         id="stop4" />
      <stop
         style="stop-color:#ffd8ea;stop-opacity:1;"
         offset="1"
         id="stop5" />
    </linearGradient>
    <linearGradient
       xlink:href="#linearGradient4"
       id="linearGradient5"
       x1="-2.125478"
       y1="97.497612"
       x2="196.43263"
       y2="97.497612"
       gradientUnits="userSpaceOnUse" />
  </defs>
  <rect
     style="fill:url(#linearGradient5);stroke-width:0.825446"
     id="rect4"
     width="198.55812"
     height="198.54419"
     x="-2.125478"
     y="-1.7744819" />
  <g
     fill="#ff007a"
     id="g4"
     transform="matrix(0.81747699,0,0,0.81747699,18.689071,3.1682546)">
    <path
       d="m 66,44.1 c -2.1,-0.3 -2.2,-0.4 -1.2,-0.5 1.9,-0.3 6.3,0.1 9.4,0.8 7.2,1.7 13.7,6.1 20.6,13.8 l 1.8,2.1 2.6,-0.4 c 11.1,-1.8 22.5,-0.4 32,4 2.6,1.2 6.7,3.6 7.2,4.2 0.2,0.2 0.5,1.5 0.7,2.8 0.7,4.7 0.4,8.2 -1.1,10.9 -0.8,1.5 -0.8,1.9 -0.3,3.2 0.4,1 1.6,1.7 2.7,1.7 2.4,0 4.9,-3.8 6.1,-9.1 l 0.5,-2.1 0.9,1 c 5.1,5.7 9.1,13.6 9.7,19.2 l 0.2,1.5 -0.9,-1.3 c -1.5,-2.3 -2.9,-3.8 -4.8,-5.1 -3.4,-2.3 -7,-3 -16.5,-3.5 C 127,86.8 122.1,86.1 117.3,84.5 109.1,81.8 104.9,78.3 95.2,65.4 90.9,59.7 88.2,56.6 85.5,54 79.6,48.3 73.7,45.3 66,44.1 Z"
       id="path1" />
    <path
       d="m 140.5,56.8 c 0.2,-3.8 0.7,-6.3 1.8,-8.6 0.4,-0.9 0.8,-1.7 0.9,-1.7 0.1,0 -0.1,0.7 -0.4,1.5 -0.8,2.2 -0.9,5.3 -0.4,8.8 0.7,4.5 1,5.1 5.8,10 2.2,2.3 4.8,5.2 5.8,6.4 l 1.7,2.2 -1.7,-1.6 c -2.1,-2 -6.9,-5.8 -8,-6.3 -0.7,-0.4 -0.8,-0.4 -1.3,0.1 -0.4,0.4 -0.5,1 -0.5,3.9 -0.1,4.5 -0.7,7.3 -2.2,10.2 -0.8,1.5 -0.9,1.2 -0.2,-0.5 0.5,-1.3 0.6,-1.9 0.6,-6.2 0,-8.7 -1,-10.8 -7.1,-14.3 -1.5,-0.9 -4.1,-2.2 -5.6,-2.9 -1.6,-0.7 -2.8,-1.3 -2.7,-1.3 0.2,-0.2 6.1,1.5 8.4,2.5 3.5,1.4 4.1,1.5 4.5,1.4 0.3,-0.3 0.5,-1.1 0.6,-3.6 z M 70.1,71.7 C 65.9,65.9 63.2,56.9 63.8,50.2 l 0.2,-2.1 1,0.2 c 1.8,0.3 4.9,1.5 6.4,2.4 4,2.4 5.8,5.7 7.5,13.9 0.5,2.4 1.2,5.2 1.5,6.1 0.5,1.5 2.4,5 4,7.2 1.1,1.6 0.4,2.4 -2.1,2.2 -3.8,-0.4 -8.9,-3.9 -12.2,-8.4 z m 65.3,43.5 c -19.8,-8 -26.8,-14.9 -26.8,-26.6 0,-1.7 0.1,-3.1 0.1,-3.1 0.1,0 0.8,0.6 1.7,1.3 4,3.2 8.5,4.6 21,6.4 7.3,1.1 11.5,1.9 15.3,3.2 12.1,4 19.6,12.2 21.4,23.3 0.5,3.2 0.2,9.3 -0.6,12.5 -0.7,2.5 -2.7,7.1 -3.2,7.2 -0.1,0 -0.3,-0.5 -0.3,-1.3 -0.2,-4.2 -2.3,-8.2 -5.8,-11.3 -4.2,-3.6 -9.6,-6.3 -22.8,-11.6 z m -14,3.3 c -0.2,-1.5 -0.7,-3.4 -1,-4.2 l -0.5,-1.5 0.9,1.1 c 1.3,1.5 2.3,3.3 3.2,5.8 0.7,1.9 0.7,2.5 0.7,5.6 0,3 -0.1,3.7 -0.7,5.4 -1,2.7 -2.2,4.6 -4.2,6.7 -3.6,3.7 -8.3,5.7 -15,6.6 -1.2,0.1 -4.6,0.4 -7.6,0.6 -7.5,0.4 -12.5,1.2 -17,2.8 -0.6,0.2 -1.2,0.4 -1.3,0.3 -0.2,-0.2 2.9,-2 5.4,-3.2 3.5,-1.7 7.1,-2.6 15,-4 3.9,-0.6 7.9,-1.4 8.9,-1.8 9.9,-3.1 14.8,-10.8 13.2,-20.2 z"
       id="path2" />
    <path
       d="m 130.5,134.6 c -2.6,-5.7 -3.2,-11.1 -1.8,-16.2 0.2,-0.5 0.4,-1 0.6,-1 0.2,0 0.8,0.3 1.4,0.7 1.2,0.8 3.7,2.2 10.1,5.7 8.1,4.4 12.7,7.8 15.9,11.7 2.8,3.4 4.5,7.3 5.3,12.1 0.5,2.7 0.2,9.2 -0.5,11.9 -2.2,8.5 -7.2,15.3 -14.5,19.2 -1.1,0.6 -2,1 -2.1,1 -0.1,0 0.3,-1 0.9,-2.2 2.4,-5.1 2.7,-10 0.9,-15.5 -1.1,-3.4 -3.4,-7.5 -8,-14.4 -5.5,-8 -6.8,-10.1 -8.2,-13 z M 56,165.2 c 7.4,-6.2 16.5,-10.6 24.9,-12 3.6,-0.6 9.6,-0.4 12.9,0.5 5.3,1.4 10.1,4.4 12.6,8.1 2.4,3.6 3.5,6.7 4.6,13.6 0.4,2.7 0.9,5.5 1,6.1 0.8,3.6 2.4,6.4 4.4,7.9 3.1,2.3 8.5,2.4 13.8,0.4 0.9,-0.3 1.7,-0.6 1.7,-0.5 0.2,0.2 -2.5,2 -4.3,2.9 -2.5,1.3 -4.5,1.7 -7.2,1.7 -4.8,0 -8.9,-2.5 -12.2,-7.5 -0.7,-1 -2.1,-3.9 -3.3,-6.6 -3.5,-8.1 -5.3,-10.5 -9.4,-13.2 -3.6,-2.3 -8.2,-2.8 -11.7,-1.1 -4.6,2.2 -5.8,8.1 -2.6,11.7 1.3,1.5 3.7,2.7 5.7,3 3.7,0.5 6.9,-2.4 6.9,-6.1 0,-2.4 -0.9,-3.8 -3.3,-4.9 -3.2,-1.4 -6.7,0.2 -6.6,3.3 0,1.3 0.6,2.1 1.9,2.7 0.8,0.4 0.8,0.4 0.2,0.3 -2.9,-0.6 -3.6,-4.2 -1.3,-6.5 2.8,-2.8 8.7,-1.6 10.7,2.3 0.8,1.6 0.9,4.8 0.2,6.8 -1.7,4.4 -6.5,6.7 -11.4,5.4 -3.3,-0.9 -4.7,-1.8 -8.7,-5.9 -7,-7.2 -9.7,-8.6 -19.7,-10.1 l -1.9,-0.3 z"
       id="path3" />
    <path
       d="m 3.4,4.3 c 23.3,28.3 59.2,72.3 61,74.7 1.5,2 0.9,3.9 -1.6,5.3 -1.4,0.8 -4.3,1.6 -5.7,1.6 -1.6,0 -3.5,-0.8 -4.8,-2.1 C 51.4,82.9 47.5,77.2 38.7,63.5 32,53 26.3,44.3 26.2,44.2 25.8,44 25.8,44 38,65.8 45.7,79.5 48.2,84.4 48.2,85 c 0,1.3 -0.4,2 -2,3.8 -2.7,3 -3.9,6.4 -4.8,13.5 -1,7.9 -3.7,13.5 -11.4,23 -4.5,5.6 -5.2,6.6 -6.3,8.9 -1.4,2.8 -1.8,4.4 -2,8 -0.2,3.8 0.2,6.2 1.3,9.8 1,3.2 2.1,5.3 4.8,9.4 2.3,3.6 3.7,6.3 3.7,7.3 0,0.8 0.2,0.8 3.8,0 8.6,-2 15.7,-5.4 19.6,-9.6 2.4,-2.6 3,-4 3,-7.6 0,-2.3 -0.1,-2.8 -0.7,-4.2 -1,-2.2 -2.9,-4 -7,-6.8 -5.4,-3.7 -7.7,-6.7 -8.3,-10.7 -0.5,-3.4 0.1,-5.7 3.1,-12 3.1,-6.5 3.9,-9.2 4.4,-15.8 0.3,-4.2 0.8,-5.9 2,-7.2 1.3,-1.4 2.4,-1.9 5.5,-2.3 5.1,-0.7 8.4,-2 11,-4.5 2.3,-2.1 3.3,-4.2 3.4,-7.3 L 71.4,78.4 70.1,77 C 65.4,71.6 0.3,0 0,0 -0.1,0 1.5,1.9 3.4,4.3 Z m 30.7,142.2 c 1.1,-1.9 0.5,-4.3 -1.3,-5.5 -1.7,-1.1 -4.3,-0.6 -4.3,0.9 0,0.4 0.2,0.8 0.8,1 0.9,0.5 1,1 0.3,2.1 -0.7,1.1 -0.7,2.1 0.2,2.8 1.4,1.1 3.3,0.5 4.3,-1.3 z M 74.6,93.9 c -2.4,0.7 -4.7,3.3 -5.4,5.9 -0.4,1.6 -0.2,4.5 0.5,5.4 1.1,1.4 2.1,1.8 4.9,1.8 5.5,0 10.2,-2.4 10.7,-5.3 0.5,-2.4 -1.6,-5.7 -4.5,-7.2 -1.5,-0.8 -4.6,-1.1 -6.2,-0.6 z m 6.4,5 c 0.8,-1.2 0.5,-2.5 -1,-3.4 -2.7,-1.7 -6.8,-0.3 -6.8,2.3 0,1.3 2.1,2.7 4.1,2.7 1.3,0 3.1,-0.8 3.7,-1.6 z"
       clip-rule="evenodd"
       fill-rule="evenodd"
       id="path4" />
  </g>
</svg>
