<svg width="196" height="195" viewBox="0 0 196 195" fill="none" xmlns="http://www.w3.org/2000/svg">
<circle cx="97.9059" cy="97.4469" r="97.1349" fill="url(#paint0_linear_3180_39636)"/>
<g opacity="0.7">
<path d="M151.027 84.0695L97.9707 29.8913L44.9092 84.0695L71.4374 111.156L97.9707 84.0695L124.499 111.156L151.027 84.0695Z" fill="white"/>
</g>
<path d="M107.02 154.707C108.068 152.832 108.585 150.635 108.585 148.129V127.245V126.866H108.206H102.134H101.755V127.245V148.313C101.755 150.199 101.213 151.642 100.164 152.691L100.164 152.691L100.161 152.695C99.1496 153.734 97.6518 154.282 95.6024 154.282C93.5549 154.282 92.0394 153.735 90.9963 152.693C89.9779 151.645 89.4494 150.201 89.4494 148.313V127.245V126.866H89.0704H82.9984H82.6194V127.245V148.129C82.6194 150.633 83.1205 152.829 84.1372 154.704L84.1371 154.704L84.1409 154.71C85.19 156.554 86.6856 157.985 88.6183 158.998L88.6183 158.999L88.6249 159.002C90.59 159.984 92.9201 160.468 95.6024 160.468C98.2844 160.468 100.6 159.984 102.536 159.001L102.538 159C104.502 157.986 106 156.554 107.02 154.707ZM107.02 154.707C107.019 154.707 107.019 154.708 107.019 154.708L106.688 154.523M107.02 154.707C107.02 154.707 107.02 154.706 107.02 154.706L106.688 154.523M106.688 154.523C105.707 156.301 104.266 157.681 102.364 158.663L89.0704 148.313C89.0704 150.275 89.6224 151.824 90.7264 152.959C91.861 154.093 93.4864 154.661 95.6024 154.661C97.7184 154.661 99.3284 154.093 100.432 152.959C101.567 151.824 102.134 150.275 102.134 148.313V127.624V127.245H102.513H107.827H108.206V127.624V148.129C108.206 150.582 107.7 152.713 106.688 154.523ZM49.3327 159.445V159.824H49.7117H70.6877H71.0667V159.445V153.925V153.546H70.6877H56.1627V146.346H69.1237H69.5027V145.967V140.447V140.068H69.1237H56.1627V133.144H70.4117H70.7907V132.765V127.245V126.866H70.4117H49.7117H49.3327V127.245V159.445ZM121.71 159.445V159.824H122.089H128.161H128.54V159.445V147.68H136.625C137.459 147.68 137.949 147.896 138.215 148.228L138.219 148.233L138.224 148.239C138.551 148.616 138.73 149.12 138.73 149.785V159.445V159.824H139.109H145.181H145.56V159.445V148.911C145.56 147.557 145.204 146.433 144.455 145.581C143.772 144.774 142.84 144.318 141.696 144.191V143.963C143.006 143.382 144.115 142.499 145.021 141.322C146.005 140.043 146.48 138.391 146.48 136.399V135.847C146.48 134.037 146.05 132.445 145.177 131.088C144.308 129.735 143.085 128.693 141.524 127.96C139.961 127.226 138.14 126.866 136.073 126.866H122.089H121.71V127.245V159.445ZM138.565 134.229L138.565 134.229L138.57 134.234C139.281 134.917 139.65 135.839 139.65 137.043V137.503C139.65 138.701 139.268 139.641 138.524 140.358C137.816 141.038 136.803 141.402 135.429 141.402H128.54V133.144H135.429C136.832 133.144 137.858 133.522 138.565 134.229Z" fill="#1F2333" stroke="#1F2333" stroke-width="0.758025"/>
<circle cx="97.9058" cy="43.9739" r="36.0291" fill="white"/>
<g clip-path="url(#clip0_3180_39636)">
<path d="M104.303 41.5566L108.501 34.5989L119.816 51.8129L119.821 55.1165L119.784 32.3836C119.758 31.8277 119.456 31.3193 118.974 31.0194L98.6025 19.5741C98.1263 19.3452 97.5217 19.348 97.0462 19.5813C96.9818 19.6129 96.9217 19.6469 96.864 19.6843L96.7929 19.728L77.0193 30.9204L76.9427 30.9548C76.8438 30.9987 76.7443 31.0554 76.6504 31.1207C76.2754 31.3832 76.0264 31.7717 75.9459 32.207C75.9339 32.273 75.9248 32.3403 75.9209 32.4084L75.9519 50.9334L86.4913 34.9775C87.818 32.8619 90.7091 32.1799 93.3932 32.2173L96.5428 32.2984L77.9834 61.3714L80.1711 62.6016L98.9529 32.328L107.255 32.2984L88.5214 63.3362L96.3279 67.7224L97.2607 68.246C97.6553 68.4026 98.1203 68.4105 98.5181 68.27L119.176 56.5767L115.226 58.8122L104.303 41.5566ZM105.905 64.0889L98.0201 52.0008L102.833 44.0227L113.189 59.9655L105.905 64.0889Z" fill="#2D374B"/>
<path d="M98.0195 52.0011L105.904 64.0889L113.188 59.9658L102.833 44.023L98.0195 52.0011Z" fill="#28A0F0"/>
<path d="M119.821 55.1168L119.816 51.8132L108.501 34.5992L104.303 41.5569L115.226 58.8125L119.176 56.5769C119.563 56.2698 119.798 55.8187 119.822 55.3322L119.821 55.1168Z" fill="#28A0F0"/>
<path d="M72.406 58.2322L77.9833 61.3713L96.5427 32.2984L93.393 32.2173C90.7094 32.1802 87.8182 32.8618 86.4912 34.9775L75.9517 50.9333L72.406 56.2547V58.2322Z" fill="white"/>
<path d="M107.254 32.2984L98.9526 32.3279L80.1709 62.6016L86.7358 66.2935L88.5208 63.3361L107.254 32.2984Z" fill="white"/>
<path d="M123.319 32.2565C123.25 30.5607 122.31 29.0085 120.838 28.1046L100.2 16.5115C98.7431 15.7952 96.9236 15.7942 95.4643 16.5112C95.292 16.5961 75.3943 27.8682 75.3943 27.8682C75.1189 27.997 74.8537 28.1506 74.6043 28.3251C73.2899 29.2455 72.4887 30.6754 72.406 32.2462V56.2551L75.9517 50.9337L75.9208 32.4083C75.925 32.3406 75.9338 32.2737 75.9458 32.208C76.026 31.7721 76.2753 31.3835 76.6503 31.1207C76.7442 31.0554 96.9813 19.6128 97.0457 19.5812C97.5216 19.348 98.1258 19.3452 98.6021 19.574L118.973 31.0193C119.455 31.3193 119.757 31.8277 119.784 32.3836V55.3316C119.759 55.818 119.562 56.2691 119.175 56.5763L115.226 58.8118L113.188 59.9655L105.904 64.0885L98.5177 68.2696C98.1199 68.4101 97.6545 68.4022 97.2602 68.2456L88.521 63.3358L86.7356 66.2931L94.5896 70.7099C94.8492 70.8542 95.0806 70.982 95.2705 71.0865C95.5646 71.2476 95.7651 71.3551 95.8358 71.3888C96.3939 71.6537 97.1969 71.8076 97.9208 71.8076C98.5841 71.8076 99.2313 71.6887 99.8437 71.4544L121.298 59.3182C122.53 58.3861 123.254 56.9807 123.319 55.4583V32.2565Z" fill="#96BEDC"/>
</g>
<defs>
<linearGradient id="paint0_linear_3180_39636" x1="97.771" y1="0.575726" x2="1.33705" y2="108.039" gradientUnits="userSpaceOnUse">
<stop stop-color="#87DCC9"/>
<stop offset="1" stop-color="#FDCEAA"/>
</linearGradient>
<clipPath id="clip0_3180_39636">
<rect width="51" height="56" fill="white" transform="translate(72.406 15.9739)"/>
</clipPath>
</defs>
</svg>
