<svg width="196" height="195" viewBox="0 0 196 195" fill="none" xmlns="http://www.w3.org/2000/svg">
<circle cx="98.0321" cy="97.4469" r="97.1349" fill="url(#paint0_linear_3180_39637)"/>
<g opacity="0.7">
<path d="M151.153 84.0695L98.0967 29.8913L45.0352 84.0695L71.5634 111.156L98.0967 84.0695L124.625 111.156L151.153 84.0695Z" fill="white"/>
</g>
<path d="M107.146 154.707C108.194 152.832 108.711 150.635 108.711 148.129V127.245V126.866H108.332H102.26H101.881V127.245V148.313C101.881 150.199 101.339 151.642 100.29 152.691L100.29 152.691L100.287 152.695C99.2756 153.734 97.7777 154.282 95.7284 154.282C93.6809 154.282 92.1653 153.735 91.1223 152.693C90.1039 151.645 89.5754 150.201 89.5754 148.313V127.245V126.866H89.1964H83.1244H82.7453V127.245V148.129C82.7453 150.633 83.2465 152.829 84.2632 154.704L84.2631 154.704L84.2669 154.71C85.316 156.554 86.8116 157.985 88.7443 158.998L88.7442 158.999L88.7509 159.002C90.716 159.984 93.046 160.468 95.7284 160.468C98.4104 160.468 100.726 159.984 102.662 159.001L102.664 159C104.628 157.986 106.126 156.554 107.146 154.707ZM107.146 154.707C107.145 154.707 107.145 154.708 107.145 154.708L106.814 154.523M107.146 154.707C107.146 154.707 107.146 154.706 107.146 154.706L106.814 154.523M106.814 154.523C105.833 156.301 104.392 157.681 102.49 158.663L89.1964 148.313C89.1964 150.275 89.7483 151.824 90.8523 152.959C91.987 154.093 93.6124 154.661 95.7284 154.661C97.8444 154.661 99.4543 154.093 100.558 152.959C101.693 151.824 102.26 150.275 102.26 148.313V127.624V127.245H102.639H107.953H108.332V127.624V148.129C108.332 150.582 107.826 152.713 106.814 154.523ZM49.4586 159.445V159.824H49.8376H70.8136H71.1927V159.445V153.925V153.546H70.8136H56.2887V146.346H69.2496H69.6287V145.967V140.447V140.068H69.2496H56.2887V133.144H70.5376H70.9167V132.765V127.245V126.866H70.5376H49.8376H49.4586V127.245V159.445ZM121.836 159.445V159.824H122.215H128.287H128.666V159.445V147.68H136.751C137.585 147.68 138.075 147.896 138.341 148.228L138.345 148.233L138.35 148.239C138.677 148.616 138.856 149.12 138.856 149.785V159.445V159.824H139.235H145.307H145.686V159.445V148.911C145.686 147.557 145.33 146.433 144.581 145.581C143.898 144.774 142.966 144.318 141.822 144.191V143.963C143.132 143.382 144.241 142.499 145.147 141.322C146.131 140.043 146.606 138.391 146.606 136.399V135.847C146.606 134.037 146.176 132.445 145.303 131.088C144.434 129.735 143.211 128.693 141.65 127.96C140.087 127.226 138.266 126.866 136.199 126.866H122.215H121.836V127.245V159.445ZM138.691 134.229L138.691 134.229L138.696 134.234C139.407 134.917 139.776 135.839 139.776 137.043V137.503C139.776 138.701 139.394 139.641 138.65 140.358C137.942 141.038 136.929 141.402 135.555 141.402H128.666V133.144H135.555C136.958 133.144 137.984 133.522 138.691 134.229Z" fill="#1F2333" stroke="#1F2333" stroke-width="0.758025"/>
<g clip-path="url(#clip0_3180_39637)">
<path d="M98.0322 80.022C117.914 80.022 134.032 63.9042 134.032 44.022C134.032 24.1397 117.914 8.02197 98.0322 8.02197C78.15 8.02197 62.0322 24.1397 62.0322 44.022C62.0322 63.9042 78.15 80.022 98.0322 80.022Z" fill="#FF0420"/>
<path d="M87.5395 53.5902C85.3959 53.5902 83.6397 53.0857 82.2707 52.077C80.9196 51.0503 80.2441 49.5913 80.2441 47.6999C80.2441 47.3036 80.2892 46.8171 80.3792 46.2407C80.6135 44.9438 80.9467 43.3856 81.379 41.5663C82.6039 36.6127 85.7652 34.1359 90.863 34.1359C92.25 34.1359 93.4929 34.3701 94.5917 34.8384C95.6906 35.2886 96.5552 35.9732 97.1856 36.8919C97.816 37.7925 98.1314 38.8734 98.1314 40.1342C98.1314 40.5125 98.0863 40.9899 97.9962 41.5663C97.726 43.1695 97.4017 44.7277 97.0235 46.2407C96.393 48.7086 95.3032 50.5549 93.7541 51.7798C92.2049 52.9867 90.1335 53.5902 87.5395 53.5902ZM87.9178 49.6993C88.9266 49.6993 89.7821 49.4021 90.4847 48.8077C91.2053 48.2132 91.7186 47.3036 92.0248 46.0787C92.4391 44.3854 92.7544 42.9083 92.9706 41.6474C93.0426 41.2691 93.0786 40.8819 93.0786 40.4855C93.0786 38.8463 92.2229 38.0267 90.5118 38.0267C89.5029 38.0267 88.6383 38.3239 87.9178 38.9183C87.2153 39.5129 86.7109 40.4225 86.4047 41.6474C86.0805 42.8543 85.7562 44.3314 85.432 46.0787C85.3599 46.4389 85.3239 46.8171 85.3239 47.2134C85.3239 48.8707 86.1886 49.6993 87.9178 49.6993Z" fill="white"/>
<path d="M99.3718 53.32C99.1736 53.32 99.0204 53.257 98.9124 53.1308C98.8223 52.9867 98.7954 52.8247 98.8314 52.6445L102.56 35.0816C102.596 34.8834 102.695 34.7213 102.857 34.5951C103.019 34.4691 103.191 34.4061 103.371 34.4061H110.558C112.557 34.4061 114.161 34.8204 115.367 35.6489C116.592 36.4777 117.205 37.6754 117.205 39.2426C117.205 39.6929 117.151 40.1613 117.043 40.6476C116.592 42.7192 115.683 44.2503 114.314 45.2411C112.963 46.2318 111.107 46.7271 108.748 46.7271H105.1L103.857 52.6445C103.821 52.8427 103.722 53.0047 103.56 53.1308C103.398 53.257 103.227 53.32 103.047 53.32H99.3718ZM108.937 42.9984C109.693 42.9984 110.351 42.7912 110.909 42.3769C111.486 41.9626 111.864 41.3682 112.044 40.5936C112.098 40.2873 112.125 40.0172 112.125 39.783C112.125 39.2606 111.972 38.8643 111.666 38.5942C111.36 38.3059 110.837 38.1619 110.099 38.1619H106.856L105.829 42.9984H108.937Z" fill="white"/>
</g>
<defs>
<linearGradient id="paint0_linear_3180_39637" x1="97.8973" y1="0.575726" x2="1.46327" y2="108.039" gradientUnits="userSpaceOnUse">
<stop stop-color="#87DCC9"/>
<stop offset="1" stop-color="#FDCEAA"/>
</linearGradient>
<clipPath id="clip0_3180_39637">
<rect width="72" height="72" fill="white" transform="translate(62.0322 8.02197)"/>
</clipPath>
</defs>
</svg>
