<?xml version="1.0" standalone="no"?>
<!DOCTYPE svg PUBLIC "-//W3C//DTD SVG 20010904//EN"
 "http://www.w3.org/TR/2001/REC-SVG-20010904/DTD/svg10.dtd">
<svg version="1.0" xmlns="http://www.w3.org/2000/svg"
 width="1230.000000pt" height="1100.000000pt" viewBox="0 0 1230.000000 1100.000000"
 preserveAspectRatio="xMidYMid meet">

<g transform="translate(0.000000,1100.000000) scale(0.100000,-0.100000)"
fill="#000000" stroke="none">
<path d="M0 5500 l0 -5500 6150 0 6150 0 0 5500 0 5500 -6150 0 -6150 0 0
-5500z m7029 3645 c359 -45 701 -181 991 -396 97 -72 275 -248 369 -365 200
-246 350 -560 415 -865 40 -187 49 -292 43 -507 -5 -213 -23 -338 -75 -517
-78 -269 -213 -528 -390 -744 l-60 -74 60 -71 c181 -214 335 -519 409 -810 79
-311 79 -691 0 -1016 -90 -366 -274 -687 -562 -982 -298 -304 -641 -481 -1114
-575 -82 -16 -188 -18 -1265 -20 l-1174 -4 -693 693 -693 693 1812 5 1813 5
80 23 c383 108 636 415 670 812 13 145 -34 348 -111 485 -36 64 -90 133 -80
102 3 -10 10 -58 16 -105 13 -114 0 -238 -37 -355 l-15 -49 -39 79 c-92 188
-256 322 -455 373 -75 19 -115 20 -1170 20 l-1093 0 -695 691 c-383 380 -696
695 -696 700 0 5 816 10 1828 11 l1827 3 85 29 c104 35 201 83 266 131 389
292 484 811 222 1213 -22 34 -42 61 -44 60 -1 -2 2 -24 8 -48 25 -108 10 -314
-33 -447 l-10 -32 -46 92 c-38 75 -62 108 -132 177 -92 92 -169 139 -296 181
l-70 24 -1110 3 -1111 3 -694 694 -695 695 1810 0 c1564 0 1827 -2 1934 -15z"/>
</g>
</svg>
