<svg height="1100pt" preserveAspectRatio="xMidYMid meet" viewBox="0 0 1230 1100" width="1230pt" xmlns="http://www.w3.org/2000/svg"><path d="m0 5500v-5500h6150 6150v5500 5500h-6150-6150zm7029 3645c359-45 701-181 991-396 97-72 275-248 369-365 200-246 350-560 415-865 40-187 49-292 43-507-5-213-23-338-75-517-78-269-213-528-390-744l-60-74 60-71c181-214 335-519 409-810 79-311 79-691 0-1016-90-366-274-687-562-982-298-304-641-481-1114-575-82-16-188-18-1265-20l-1174-4-693 693-693 693 1812 5 1813 5 80 23c383 108 636 415 670 812 13 145-34 348-111 485-36 64-90 133-80 102 3-10 10-58 16-105 13-114 0-238-37-355l-15-49-39 79c-92 188-256 322-455 373-75 19-115 20-1170 20h-1093l-695 691c-383 380-696 695-696 700s816 10 1828 11l1827 3 85 29c104 35 201 83 266 131 389 292 484 811 222 1213-22 34-42 61-44 60-1-2 2-24 8-48 25-108 10-314-33-447l-10-32-46 92c-38 75-62 108-132 177-92 92-169 139-296 181l-70 24-1110 3-1111 3-694 694-695 695h1810c1564 0 1827-2 1934-15z" transform="matrix(.1 0 0 -.1 0 1100)"/></svg>