<svg width="24" height="24" fill="none" xmlns="http://www.w3.org/2000/svg"><g clip-path="url(#clip0_842_16397)"><path d="M11.998 23.995c6.626 0 11.997-5.371 11.997-11.997C23.995 5.372 18.624 0 11.998 0 5.372 0 0 5.372 0 11.998c0 6.626 5.372 11.997 11.998 11.997z" fill="url(#paint0_linear_842_16397)"/><path d="M3.9 9.846l8.098-8.047 8.098 8.047-3.974 3.948-4.046-4.02-.073-.073-.073.072-4.05 4.024L3.9 9.845z" fill="#FAF1E7"/><path d="M7.388 20.698c-.624 0-1.119-.172-1.483-.518-.365-.35-.547-.85-.547-1.497v-1.21c0-.647.182-1.144.547-1.49.364-.35.859-.525 1.483-.525.619 0 1.096.17 1.432.51.34.337.511.8.511 1.39v.043h-.936v-.072c0-.297-.084-.542-.251-.734-.164-.192-.416-.288-.756-.288-.336 0-.6.104-.792.31-.192.206-.288.487-.288.842v1.238c0 .35.096.631.288.843.192.206.456.309.792.309.34 0 .592-.096.756-.288.167-.197.251-.442.251-.734v-.13h.936v.101c0 .59-.17 1.056-.51 1.397-.337.335-.814.503-1.433.503zm2.717-.1v-5.04h.95v2.081h1.872v-2.08h.95v5.039h-.95v-2.095h-1.871v2.095h-.95zm4.725 0v-5.04h3.167v.864H15.78v1.217h2.044v.864H15.78v2.095h-.95z" fill="#1F2333"/></g><defs><linearGradient id="paint0_linear_842_16397" x1="22.091" y1="4.215" x2="2.753" y2="19.633" gradientUnits="userSpaceOnUse"><stop stop-color="#F4837D"/><stop offset="1" stop-color="#FDCEAA"/></linearGradient><clipPath id="clip0_842_16397"><path fill="#fff" d="M0 0H23.995V23.995H0z"/></clipPath></defs></svg>