<svg fill="none" height="44" width="44" xmlns="http://www.w3.org/2000/svg" xmlns:xlink="http://www.w3.org/1999/xlink"><linearGradient id="a" gradientUnits="userSpaceOnUse" x1="39.636" x2="4.982" y1="8.204" y2="35.833"><stop offset="0" stop-color="#f4837d"/><stop offset="1" stop-color="#fdceaa"/></linearGradient><clipPath id="b"><path d="m0 0h43v43h-43z" transform="translate(.049 .65)"/></clipPath><g clip-path="url(#b)"><path d="m21.549 43.65c11.874 0 21.5-9.626 21.5-21.5s-9.626-21.5-21.5-21.5c-11.875 0-21.5 9.625-21.5 21.5 0 11.874 9.625 21.5 21.5 21.5z" fill="url(#a)"/><path d="m7.036 18.293 14.514-14.42 14.512 14.42-7.121 7.076-7.252-7.206-.13-.13-.13.13-7.257 7.21-7.135-7.08z" fill="#faf1e7"/><path d="m10.42 37.56v-9.03h5.805v1.549h-4.103v2.154h3.742v1.548h-3.742v2.232h4.18v1.548h-5.882zm10.626.181c-.74 0-1.377-.133-1.91-.4a2.925 2.925 0 0 1 -1.212-1.16c-.276-.508-.413-1.106-.413-1.794v-5.856h1.703v5.908c0 .55.155.985.464 1.303.318.318.774.477 1.367.477.594 0 1.045-.159 1.355-.477.318-.318.477-.753.477-1.303v-5.908h1.703v5.856c0 .688-.142 1.286-.426 1.794-.275.498-.679.885-1.212 1.16-.525.267-1.157.4-1.896.4zm5.184-.18v-9.03h3.921c.568 0 1.062.099 1.484.297.421.197.748.477.98.838s.349.787.349 1.277v.155c0 .542-.13.98-.387 1.316-.258.335-.577.58-.955.735v.232c.344.017.61.138.8.361.189.215.284.504.284.865v2.954h-1.703v-2.71a.74.74 0 0 0 -.168-.502c-.103-.13-.28-.194-.529-.194h-2.373v3.406zm1.703-4.954h2.038c.404 0 .718-.107.941-.322.233-.224.349-.516.349-.877v-.13c0-.36-.112-.649-.336-.864-.223-.223-.541-.335-.954-.335h-2.038z" fill="#1f2333"/></g></svg>