<svg width="40" height="40" fill="none" xmlns="http://www.w3.org/2000/svg"><g clip-path="url(#clip0_6536_275464)"><circle cx="20" cy="20" r="20" fill="url(#paint0_linear_6536_275464)"/><path d="M30.91 17.246L19.984 6.09 9.06 17.246l5.462 5.577 5.463-5.577 5.462 5.577 5.462-5.577z" fill="#fff"/><path fill-rule="evenodd" clip-rule="evenodd" d="M8.164 32.065c.233.413.544.731.934.953l.002.001a2.7 2.7 0 0 0 1.308.32c.351 0 .64-.042.859-.133.208-.088.374-.2.486-.341.069-.082.126-.162.172-.241v.582h1.41v-3.662h-3.07v1.316h1.584c-.005.33-.102.596-.285.806-.177.205-.47.32-.908.32-.43 0-.75-.13-.976-.379-.23-.259-.35-.602-.35-1.043v-1.64c0-.448.12-.787.349-1.032.226-.243.54-.37.958-.37.284 0 .509.054.682.155h.001l.002.001a.906.906 0 0 1 .387.395l.001.002v.001c.092.171.139.364.139.581v.2h1.487v-.162c0-.77-.235-1.393-.715-1.853-.474-.467-1.142-.693-1.984-.693-.85 0-1.538.24-2.05.73-.514.488-.763 1.182-.763 2.064v1.602c0 .588.111 1.096.34 1.518v.002zm7.044-5.187c-.527.488-.783 1.182-.783 2.065v1.602c0 .883.256 1.581.783 2.074.525.484 1.225.72 2.087.72.863 0 1.563-.236 2.087-.72.528-.493.784-1.19.784-2.074v-1.602c0-.883-.256-1.577-.784-2.065-.524-.49-1.224-.729-2.087-.729-.863 0-1.563.24-2.087.73zm3.095 4.717c-.232.243-.562.372-1.008.372-.438 0-.769-.128-1.008-.372-.234-.246-.356-.579-.356-1.011v-1.679c0-.433.122-.765.356-1.011.24-.244.57-.372 1.008-.372.446 0 .776.128 1.008.371.234.246.357.579.357 1.012v1.678c0 .434-.123.766-.357 1.012z" fill="#1F2333"/><path d="M22.815 26.283h-1.506v6.923h4.558v-1.392h-3.052v-5.531z" fill="#1F2333"/><path fill-rule="evenodd" clip-rule="evenodd" d="M27.45 31.852h-.877v1.354h2.87c.916 0 1.633-.231 2.127-.712.503-.489.744-1.203.744-2.12v-1.26c0-.916-.241-1.627-.744-2.11-.494-.487-1.21-.721-2.127-.721h-2.87v1.353h.878v4.216zm3.036-3.82v.002c.209.23.322.572.322 1.043v1.335c0 .464-.113.806-.322 1.044-.204.23-.535.358-1.024.358h-.505v-4.14h.505c.49 0 .82.128 1.024.359z" fill="#1F2333"/></g><defs><linearGradient id="paint0_linear_6536_275464" x1="10.192" y1="36.547" x2="36.444" y2="10.295" gradientUnits="userSpaceOnUse"><stop stop-color="#FDCEAA"/><stop offset=".997" stop-color="#DCA660"/></linearGradient><clipPath id="clip0_6536_275464"><path fill="#fff" d="M0 0H40V40H0z"/></clipPath></defs></svg>