<svg width="201" height="201" viewBox="0 0 201 201" fill="none" xmlns="http://www.w3.org/2000/svg">
<g clip-path="url(#clip0_10699_68109)">
<path d="M199.428 100.177C199.428 155.209 154.816 199.822 99.7834 199.822C44.7513 199.822 0.138916 155.209 0.138916 100.177C0.138916 45.1451 44.7513 0.532715 99.7834 0.532715C154.816 0.532715 199.428 45.1451 199.428 100.177Z" fill="url(#paint0_linear_10699_68109)"/>
<path d="M154.139 86.4552L99.7114 30.8772L45.2789 86.4552L72.4926 114.242L99.7114 86.4552L126.925 114.242L154.139 86.4552Z" fill="white"/>
<path d="M63.3783 165.042C60.6804 165.042 58.3589 164.556 56.4138 163.584C54.5002 162.58 53.0257 161.168 51.9904 159.348C50.9866 157.497 50.4846 155.317 50.4846 152.807V131.443H56.6962V152.996C56.6962 155.003 57.2609 156.588 58.3902 157.748C59.551 158.909 61.2137 159.49 63.3783 159.49C65.543 159.49 67.19 158.909 68.3194 157.748C69.4801 156.588 70.0605 155.003 70.0605 152.996V131.443H76.2721V152.807C76.2721 155.317 75.7544 157.497 74.7192 159.348C73.7153 161.168 72.2408 162.58 70.2958 163.584C68.3821 164.556 66.0763 165.042 63.3783 165.042Z" fill="#1F2333"/>
<path fill-rule="evenodd" clip-rule="evenodd" d="M56.0327 164.309C53.9847 163.235 52.3928 161.714 51.2773 159.753L51.269 159.738C50.1886 157.746 49.6641 155.426 49.6641 152.806V130.621H57.517V152.994C57.517 154.84 58.0307 156.198 58.9747 157.171C59.9371 158.131 61.3623 158.668 63.3785 158.668C65.3989 158.668 66.8031 158.129 67.7313 157.175L67.7391 157.167C68.7129 156.193 69.2399 154.836 69.2399 152.994V130.621H77.0929V152.806C77.0929 155.429 76.5512 157.752 75.4367 159.746C74.35 161.714 72.753 163.238 70.6723 164.311C68.6176 165.356 66.1732 165.862 63.3785 165.862C60.5831 165.862 58.1301 165.358 56.0469 164.316L56.0327 164.309ZM58.3902 157.748C57.2609 156.588 56.6962 155.003 56.6962 152.996V131.443H50.4846V152.807C50.4846 155.317 50.9866 157.497 51.9904 159.348C53.0257 161.168 54.5002 162.58 56.4138 163.584C58.3589 164.556 60.6804 165.042 63.3783 165.042C66.0763 165.042 68.3821 164.556 70.2958 163.584C72.2408 162.58 73.7153 161.168 74.7192 159.348C75.7544 157.497 76.2721 155.317 76.2721 152.807V131.443H70.0605V152.996C70.0605 155.003 69.4801 156.588 68.3194 157.748C67.19 158.909 65.543 159.49 63.3783 159.49C61.2137 159.49 59.551 158.909 58.3902 157.748Z" fill="#1F2333"/>
<path d="M100.288 165.044C97.747 165.044 95.5039 164.589 93.5589 163.68C91.6138 162.77 90.0923 161.468 88.9943 159.774C87.8963 158.08 87.3473 156.041 87.3473 153.656V152.339H93.4648V153.656C93.4648 155.633 94.0765 157.123 95.3 158.127C96.5235 159.099 98.1862 159.586 100.288 159.586C102.421 159.586 104.006 159.162 105.041 158.315C106.108 157.468 106.641 156.386 106.641 155.068C106.641 154.158 106.374 153.421 105.841 152.856C105.339 152.292 104.586 151.837 103.582 151.492C102.61 151.115 101.417 150.77 100.006 150.456L98.9234 150.221C96.6647 149.719 94.7196 149.092 93.0883 148.339C91.4883 147.555 90.2492 146.535 89.3708 145.28C88.5237 144.025 88.1002 142.394 88.1002 140.386C88.1002 138.378 88.5708 136.669 89.5119 135.257C90.4845 133.814 91.8334 132.716 93.5589 131.963C95.3157 131.179 97.3705 130.786 99.7234 130.786C102.076 130.786 104.162 131.194 105.982 132.01C107.833 132.794 109.276 133.986 110.311 135.586C111.378 137.155 111.911 139.131 111.911 141.515V142.927H105.794V141.515C105.794 140.261 105.543 139.257 105.041 138.504C104.57 137.72 103.88 137.155 102.97 136.81C102.061 136.433 100.978 136.245 99.7234 136.245C97.8411 136.245 96.4451 136.606 95.5353 137.327C94.6569 138.018 94.2177 138.974 94.2177 140.198C94.2177 141.014 94.4216 141.704 94.8294 142.268C95.2686 142.833 95.9117 143.304 96.7588 143.68C97.6058 144.057 98.6881 144.386 100.006 144.668L101.088 144.904C103.441 145.406 105.48 146.049 107.206 146.833C108.962 147.617 110.327 148.653 111.3 149.939C112.272 151.225 112.758 152.872 112.758 154.88C112.758 156.888 112.241 158.66 111.205 160.197C110.202 161.703 108.758 162.895 106.876 163.774C105.025 164.621 102.829 165.044 100.288 165.044Z" fill="#1F2333"/>
<path fill-rule="evenodd" clip-rule="evenodd" d="M86.5261 151.521H94.2849V153.659C94.2849 155.453 94.8309 156.681 95.8152 157.491C96.8501 158.311 98.3106 158.767 100.288 158.767C102.337 158.767 103.697 158.356 104.521 157.682L104.53 157.675C105.408 156.977 105.82 156.128 105.82 155.071C105.82 154.332 105.609 153.809 105.244 153.422L105.227 153.404C104.849 152.979 104.236 152.587 103.315 152.27L103.285 152.26C102.363 151.903 101.214 151.568 99.8291 151.26C99.8285 151.26 99.8297 151.261 99.8291 151.26L98.7486 151.026C96.4481 150.514 94.441 149.87 92.7439 149.086L92.7265 149.078C91.0225 148.243 89.668 147.139 88.6979 145.753L88.69 145.742C87.7259 144.314 87.279 142.508 87.279 140.389C87.279 138.249 87.7821 136.374 88.8286 134.804C89.8948 133.222 91.3723 132.025 93.227 131.215C95.1091 130.375 97.2812 129.968 99.7229 129.968C102.168 129.968 104.369 130.392 106.31 131.26C108.296 132.104 109.867 133.396 110.995 135.135C112.172 136.87 112.731 139.015 112.731 141.518V143.75H104.973V141.518C104.973 140.365 104.741 139.537 104.358 138.962L104.336 138.929C103.966 138.313 103.428 137.864 102.679 137.58L102.656 137.571C101.869 137.245 100.898 137.068 99.7229 137.068C97.9192 137.068 96.7436 137.419 96.0447 137.973C95.385 138.491 95.0378 139.201 95.0378 140.2C95.0378 140.867 95.2007 141.378 95.4858 141.779C95.8214 142.205 96.3394 142.598 97.0916 142.933C97.8693 143.278 98.8925 143.593 100.177 143.868L101.259 144.104C101.259 144.104 101.258 144.103 101.259 144.104C103.653 144.614 105.752 145.274 107.542 146.087C109.4 146.917 110.883 148.031 111.954 149.446C113.058 150.907 113.578 152.74 113.578 154.882C113.578 157.039 113.02 158.974 111.886 160.658C110.787 162.305 109.219 163.588 107.223 164.52C105.241 165.427 102.918 165.867 100.288 165.867C97.6481 165.867 95.2827 165.395 93.2107 164.425C91.1357 163.455 89.4921 162.054 88.3051 160.223C87.1064 158.373 86.5261 156.172 86.5261 153.659V151.521ZM111.205 160.2C112.24 158.663 112.758 156.89 112.758 154.882C112.758 152.875 112.272 151.228 111.299 149.941C110.326 148.655 108.962 147.62 107.205 146.836C105.48 146.051 103.44 145.408 101.088 144.906L100.005 144.671C98.6876 144.389 97.6053 144.059 96.7583 143.683C95.9112 143.306 95.2681 142.836 94.8289 142.271C94.4211 141.706 94.2172 141.016 94.2172 140.2C94.2172 138.977 94.6564 138.02 95.5348 137.33C96.4446 136.608 97.8406 136.248 99.7229 136.248C100.978 136.248 102.06 136.436 102.97 136.812C103.88 137.157 104.57 137.722 105.04 138.506C105.542 139.259 105.793 140.263 105.793 141.518V142.93H111.911V141.518C111.911 139.134 111.377 137.157 110.311 135.589C109.276 133.989 107.832 132.797 105.982 132.012C104.162 131.197 102.076 130.789 99.7229 130.789C97.37 130.789 95.3152 131.181 93.5584 131.965C91.8329 132.718 90.484 133.816 89.5114 135.259C88.5703 136.671 88.0997 138.381 88.0997 140.389C88.0997 142.396 88.5232 144.028 89.3703 145.283C90.2487 146.537 91.4878 147.557 93.0878 148.341C94.7191 149.094 96.6642 149.722 98.9229 150.224L100.005 150.459C101.417 150.773 102.609 151.118 103.582 151.494C104.585 151.839 105.338 152.294 105.84 152.859C106.374 153.424 106.64 154.161 106.64 155.071C106.64 156.388 106.107 157.47 105.04 158.318C104.005 159.165 102.421 159.588 100.288 159.588C98.1857 159.588 96.523 159.102 95.2995 158.129C94.076 157.125 93.4643 155.635 93.4643 153.659V152.341H87.3468V153.659C87.3468 156.043 87.8958 158.082 88.9938 159.776C90.0918 161.47 91.6133 162.772 93.5584 163.682C95.5034 164.592 97.7465 165.047 100.288 165.047C102.829 165.047 105.025 164.623 106.876 163.776C108.758 162.898 110.201 161.706 111.205 160.2Z" fill="#1F2333"/>
<path d="M123.833 164.382V158.923H128.162V136.9H123.833V131.441H137.385C141.809 131.441 145.166 132.571 147.456 134.83C149.777 137.057 150.938 140.382 150.938 144.806V151.017C150.938 155.441 149.777 158.782 147.456 161.041C145.166 163.268 141.809 164.382 137.385 164.382H123.833ZM134.374 158.735H137.48C139.989 158.735 141.825 158.076 142.985 156.758C144.146 155.441 144.726 153.59 144.726 151.206V144.617C144.726 142.202 144.146 140.351 142.985 139.065C141.825 137.747 139.989 137.088 137.48 137.088H134.374V158.735Z" fill="#1F2333"/>
<path fill-rule="evenodd" clip-rule="evenodd" d="M123.012 165.203V158.103H127.341V137.721H123.012V130.621H137.385C141.939 130.621 145.534 131.785 148.028 134.242C150.561 136.675 151.758 140.248 151.758 144.806V151.018C151.758 155.58 150.559 159.166 148.028 161.629C145.533 164.055 141.939 165.203 137.385 165.203H123.012ZM128.162 136.901V158.924H123.833V164.382H137.385C141.808 164.382 145.165 163.268 147.455 161.041C149.777 158.782 150.938 155.441 150.938 151.018V144.806C150.938 140.383 149.777 137.058 147.455 134.83C145.165 132.571 141.808 131.442 137.385 131.442H123.833V136.901H128.162ZM142.369 139.608C141.422 138.532 139.857 137.91 137.479 137.91H135.194V157.915H137.479C139.857 157.915 141.422 157.292 142.369 156.216C143.357 155.095 143.905 153.463 143.905 151.206V144.618C143.905 142.325 143.355 140.7 142.376 139.615L142.369 139.608ZM137.479 158.735C139.989 158.735 141.824 158.076 142.985 156.759C144.146 155.441 144.726 153.59 144.726 151.206V144.618C144.726 142.202 144.146 140.352 142.985 139.065C141.824 137.748 139.989 137.089 137.479 137.089H134.373V158.735H137.479Z" fill="#1F2333"/>
</g>
<defs>
<linearGradient id="paint0_linear_10699_68109" x1="32.4528" y1="160.563" x2="143.756" y2="61.57" gradientUnits="userSpaceOnUse">
<stop offset="0.0729167" stop-color="#C3EEE4"/>
<stop offset="1" stop-color="#2AC8A5"/>
</linearGradient>
<clipPath id="clip0_10699_68109">
<rect width="200" height="200" fill="white" transform="translate(0.158203 0.549072)"/>
</clipPath>
</defs>
</svg>
