<svg xmlns="http://www.w3.org/2000/svg" width="924.75" height="992.46" xmlns:xlink="http://www.w3.org/1999/xlink"><defs><linearGradient id="j" x1="462.37" y1="991.48" x2="462.37" y2="66.73" gradientUnits="userSpaceOnUse"><stop offset=".06" stop-color="#1932a7"/><stop offset=".26" stop-color="#1833a8"/><stop offset=".33" stop-color="#1838af"/><stop offset=".38" stop-color="#1740bb"/><stop offset=".42" stop-color="#174ccc"/><stop offset=".46" stop-color="#165ce1"/><stop offset=".53" stop-color="#1662e2"/><stop offset=".63" stop-color="#1975e6"/><stop offset=".75" stop-color="#1d94ec"/><stop offset=".88" stop-color="#24bff6"/><stop offset="1" stop-color="#2aeaff"/></linearGradient><linearGradient id="a" x1="162.5" y1="883.93" x2="460.98" y2="883.93" gradientUnits="userSpaceOnUse"><stop offset=".11" stop-color="#230330"/><stop offset=".29" stop-color="#4248bd"/><stop offset=".65" stop-color="#bbcfff"/></linearGradient><linearGradient id="k" x1="162.5" y1="883.93" x2="460.98" y2="883.93" gradientTransform="matrix(-1 0 0 1 921.58 0)" xlink:href="#a"/><linearGradient id="l" x1="460.79" y1="875.29" x2="460.79" y2="186.43" gradientUnits="userSpaceOnUse"><stop offset=".35" stop-color="#bbcfff"/><stop offset=".53" stop-color="#694ab7"/><stop offset=".7" stop-color="#381679"/><stop offset="1" stop-color="#3d1d7b"/></linearGradient><linearGradient id="m" x1="460.98" y1="783.32" x2="460.98" y2="689.83" gradientUnits="userSpaceOnUse"><stop offset=".19" stop-color="#5c14e3" stop-opacity=".75"/><stop offset=".23" stop-color="#6d32e8" stop-opacity=".7"/><stop offset=".35" stop-color="#9d84f5" stop-opacity=".55"/><stop offset=".41" stop-color="#b0a4fb" stop-opacity=".5"/><stop offset=".69" stop-color="#f6f7fe" stop-opacity="0"/></linearGradient><linearGradient id="b" x1="320.61" y1="494.17" x2="294.84" y2="538.8" gradientUnits="userSpaceOnUse"><stop offset="0" stop-color="#170024"/><stop offset=".48" stop-color="#19003b"/><stop offset=".72" stop-color="#1d1185"/><stop offset="1" stop-color="#131aab"/></linearGradient><linearGradient id="c" x1="264.28" y1="513.79" x2="363.7" y2="513.79" gradientUnits="userSpaceOnUse"><stop offset="0" stop-color="#20229e"/><stop offset=".04" stop-color="#3a5db8"/><stop offset=".08" stop-color="#affffc"/><stop offset=".81" stop-color="#7cfffe"/><stop offset=".9" stop-color="#22a8f0"/><stop offset=".97" stop-color="#172fb2"/></linearGradient><linearGradient id="n" x1="320.61" y1="494.17" x2="294.84" y2="538.8" gradientTransform="matrix(-1 0 0 1 921.58 0)" xlink:href="#b"/><linearGradient id="o" x1="264.28" y1="513.79" x2="363.7" y2="513.79" gradientTransform="matrix(-1 0 0 1 921.58 0)" xlink:href="#c"/><linearGradient id="d" x1="310.17" y1="538.35" x2="326.29" y2="510.43" gradientTransform="rotate(-3.9 318.085 524.832)" gradientUnits="userSpaceOnUse"><stop offset=".09" stop-color="#b2bbff"/><stop offset=".85" stop-color="#0e09b7" stop-opacity=".5"/></linearGradient><linearGradient id="p" x1="310.17" y1="538.35" x2="326.29" y2="510.43" gradientTransform="scale(-1 1) rotate(-3.9 -142.71 14058.89)" xlink:href="#d"/><linearGradient id="q" x1="299.99" y1="200.31" x2="390.36" y2="290.68" gradientUnits="userSpaceOnUse"><stop offset=".35" stop-color="#170222"/><stop offset="1" stop-color="#3d1d7b"/></linearGradient><linearGradient id="r" x1="299.99" y1="200.31" x2="390.36" y2="290.68" gradientTransform="matrix(-1 0 0 1 921.58 0)" gradientUnits="userSpaceOnUse"><stop offset=".35" stop-color="#170222"/><stop offset="1" stop-color="#3d1d7b"/></linearGradient><radialGradient id="e" cx="313.7" cy="226.15" fx="313.7" fy="226.15" r="20.46" gradientTransform="rotate(51.21 313.697 226.14)" gradientUnits="userSpaceOnUse"><stop offset="0" stop-color="#0b3e7d"/><stop offset="1" stop-color="#011561"/></radialGradient><radialGradient id="s" cx="313.7" cy="226.15" fx="313.7" fy="226.15" r="20.46" gradientTransform="scale(1 -1) rotate(51.21 932.693 306.921)" xlink:href="#e"/><linearGradient id="f" x1="215.34" y1="360.94" x2="390.83" y2="360.94" gradientUnits="userSpaceOnUse"><stop offset=".31"/><stop offset=".42" stop-color="#000103"/><stop offset=".5" stop-color="#00040c"/><stop offset=".57" stop-color="#020b1c"/><stop offset=".64" stop-color="#031333"/><stop offset=".71" stop-color="#061f51"/><stop offset=".77" stop-color="#082c76"/><stop offset=".83" stop-color="#0b3da0"/><stop offset=".85" stop-color="#0d43b0"/><stop offset="1" stop-color="#0d43b0"/></linearGradient><linearGradient id="t" x1="215.34" y1="360.94" x2="390.83" y2="360.94" gradientTransform="matrix(-1 0 0 1 921.58 0)" xlink:href="#f"/><linearGradient id="g" x1="306.26" y1="356.32" x2="303.1" y2="320.2" gradientUnits="userSpaceOnUse"><stop offset="0" stop-color="#0d43b0"/><stop offset=".15" stop-color="#0d43b0"/><stop offset=".17" stop-color="#0b3da0"/><stop offset=".23" stop-color="#082c76"/><stop offset=".29" stop-color="#061f51"/><stop offset=".36" stop-color="#031333"/><stop offset=".43" stop-color="#020b1c"/><stop offset=".5" stop-color="#00040c"/><stop offset=".58" stop-color="#000103"/><stop offset=".69"/></linearGradient><linearGradient id="u" x1="306.26" y1="356.32" x2="303.1" y2="320.2" gradientTransform="matrix(-1 0 0 1 921.58 0)" xlink:href="#g"/><radialGradient id="v" cx="460.79" cy="331.2" fx="460.79" fy="331.2" r="58.73" gradientUnits="userSpaceOnUse"><stop offset="0" stop-color="#381679"/><stop offset="1" stop-color="#290851"/></radialGradient><linearGradient id="h" x1="450.56" y1="252.24" x2="450.56" y2="237.14" gradientUnits="userSpaceOnUse"><stop offset="0" stop-color="#0d43b0"/><stop offset=".15" stop-color="#0d43b0"/><stop offset=".36" stop-color="#09349c"/><stop offset=".77" stop-color="#021b7c"/><stop offset="1" stop-color="#001270"/></linearGradient><linearGradient id="w" x1="450.56" y1="252.24" x2="450.56" y2="237.14" gradientTransform="matrix(-1 0 0 1 921.58 0)" xlink:href="#h"/><linearGradient id="i" x1="278.81" y1="358.39" x2="277.23" y2="340.33" gradientUnits="userSpaceOnUse"><stop offset=".12" stop-color="#0d43b0"/><stop offset=".18" stop-color="#1d4fb5"/><stop offset=".3" stop-color="#4971c3"/><stop offset=".47" stop-color="#8fa8da"/><stop offset=".68" stop-color="#eff2f9"/><stop offset=".72" stop-color="#fff"/></linearGradient><linearGradient id="x" x1="278.81" y1="358.39" x2="277.23" y2="340.33" gradientTransform="matrix(-1 0 0 1 921.58 0)" xlink:href="#i"/><linearGradient id="y" x1="461.76" y1="529.8" x2="461.76" y2="408" gradientUnits="userSpaceOnUse"><stop offset="0" stop-color="#181b7d"/><stop offset=".69" stop-color="#270d4a"/><stop offset="1" stop-color="#0d43b0"/></linearGradient></defs><circle cx="462.37" cy="529.11" r="462.37" fill="url(#j)"/><circle cx="40.57" cy="515.82" r="34.02" fill="#19a9fc"/><circle cx="40.57" cy="515.82" r="32.44" fill="#fff"/><circle cx="40.57" cy="515.82" r="26.64" fill="#e1f6fe"/><circle cx="40.57" cy="515.82" r="22.94" fill="#fff"/><circle cx="40.57" cy="515.82" r="18.46" fill="#2bf3fd"/><circle cx="40.57" cy="515.82" r="15.39" fill="#37fcff"/><ellipse cx="40.57" cy="515.82" rx="8.7" ry="11.34" fill="#0bb0e8"/><circle cx="884.18" cy="515.82" r="34.02" fill="#19a9fc"/><circle cx="884.18" cy="515.82" r="32.44" fill="#fff"/><circle cx="884.18" cy="515.82" r="26.64" fill="#e1f6fe"/><circle cx="884.18" cy="515.82" r="22.94" fill="#fff"/><circle cx="884.18" cy="515.82" r="18.46" fill="#2bf3fd"/><circle cx="884.18" cy="515.82" r="15.39" fill="#37fcff"/><ellipse cx="884.18" cy="515.82" rx="8.7" ry="11.34" fill="#0bb0e8"/><g fill="none" stroke="#fff" stroke-linecap="round" stroke-miterlimit="10" stroke-width="4"><path d="M10.37 483.38l9.5-22.02h47.34l13.58 18.59v41.94l-11.47 20.57m49.05-53.28H80.79m-48.92-79.65v32.84h3.03m16.22-78.73v81.5h12.39m-4.48-16.62h-7.91"/><path d="M59.03 373.14l-7.32-7.32h-9.29l-5.84 5.83m-8.8 192.96V584m8.8-17.02V584m-16.71-19.39v52.62h22.55m0 34.02v13.05l13.54 24.93v42.33l52.52 81.49m-5.58-87.71l-38.8 19.87m46-9.93l-38.8 19.87m45.47-9.94l-38.81 19.88m44.34-9.94l-38.8 19.87m71.27 5.2l-41.14 37.58M51.91 651.25v14.64l16.75 16.74m0-31.38l4.35 11.26 7.78 20.12m-24.83-20.7l17.05.58m26.57-201.15h-8.11l-13.65-13.65h-4.81v-69.82l31.39-31.39h11.34"/><path d="M93.71 371.03v6.06h9.89l5.15 5.15-17.54 17.54h-18.2m19.39 30.06l-6.8-6.79H73.01m12.07-57.23v-23.54l29.7-29.7v-19.35l-25.37-25.37"/><path d="M78.29 287.42l13.12 13.13v12.72l-5.11 5.11h-9.86l-7.57-7.57 6.95-6.94m37.81 480.7l7.64 7.65-6.19 6.19m7.22-39.43l7.55 7.55-4.57 4.58 12.37 12.37 7.89-7.88M40.57 409.53v16.42l-3.26 3.27m10.38 123.26h8.7v8.7h-8.7zm863.52-69.1l-9.5-22.02h-47.34l-13.58 18.59v41.94l11.47 20.57m-49.05-53.28h37.58m48.92-79.65v32.84h-3.03m-16.22-78.73v81.5h-12.39m4.48-16.62h7.91"/><path d="M862.55 373.14l7.32-7.32h9.29l5.84 5.83m8.8 192.96V584m-8.8-17.02V584m16.71-19.39v52.62h-22.55m0 34.02v13.05l-13.54 24.93v42.33l-52.52 81.49m5.58-87.71l38.81 19.87m-46.01-9.93l38.8 19.87m-45.46-9.94l38.8 19.88m-44.34-9.94l38.8 19.87m-71.27 5.2l41.15 37.58m61.71-166.55v14.64l-16.75 16.74m0-31.38l-4.35 11.26-7.78 20.12m24.83-20.7l-17.05.58M822 461.36h8.11l13.65-13.65h4.81v-69.82l-31.38-31.39h-11.34"/><path d="M827.87 371.03v6.06h-9.89l-5.14 5.15 17.53 17.54h18.2m-19.38 30.06l6.79-6.79h12.59m-12.06-57.23v-23.54l-29.71-29.7v-19.35l25.37-25.37"/><path d="M843.3 287.42l-13.12 13.13v12.72l5.11 5.11h9.85l7.57-7.57-6.95-6.94m-37.8 480.7l-7.65 7.65 6.2 6.19m-7.23-39.43l-7.55 7.55 4.58 4.58-12.38 12.37-7.89-7.88m104.97-366.07v16.42l3.26 3.27m-10.38 131.96h-8.7v-8.7h8.7z"/></g><circle cx="460.79" cy="120.35" r="15.74" fill="#fff"/><path fill="none" stroke="#fff" stroke-linecap="round" stroke-miterlimit="10" stroke-width="4" d="M393.71 124.7h133.32M400.04 72.08v32.53h6.83m13.35-3.65v-9.1m13.32 4.55l6.8-6.8V78.68L437.66 76m-28.12 76.39v8.97m7.25-8.97v8.97m9.1-8.44v6.46m12.4-6.46v7.38M380 131.03v40.95m-5.27-45.3l-9.96-9.96m7.45-19.45l-24.54 24.54M368 89.09L341.1 116m23.67-33.89l-30.76 30.75m187.53-40.78v32.53h-6.83m-13.35-3.65v-9.1m-13.32 4.55l-6.8-6.8V78.68l2.68-2.68m28.12 76.39v8.97m-7.25-8.97v8.97m-9.1-8.44v6.46m-12.39-6.46v7.38m58.28-29.27v40.95m5.28-45.3l9.95-9.96m-7.45-19.45l24.55 24.54m-20.33-32.72l26.9 26.91m-23.67-33.89l30.76 30.75M440.34 84.61h40.9"/><path d="M170.59 757.27l-23.74 63.69c-3.95 19.31-.41 33.7 11.87 42.33l20.97-97.71-9.1-8.31zm582.33 0l23.74 63.69c3.95 19.31.41 33.7-11.87 42.33l-20.97-97.71 9.1-8.31z"/><path d="M176.73 773.69l-19.38 95.54c.97 5.8 3.87 9.69 9.69 10.68l17.41-106.22h-7.71zm570.06 0l19.38 95.54c-.97 5.8-3.87 9.69-9.69 10.68l-17.41-106.22h7.71z" fill="#ffffdc"/><path d="M180.77 775.47l-18.26 102.24C228.49 944.45 325.6 984.66 460.8 992.4l.19-136.09-280.22-80.84z" fill="url(#a)"/><path d="M740.82 775.47l18.26 102.24C693.1 944.45 595.99 984.66 460.79 992.4l-.19-136.09 280.22-80.84z" fill="url(#k)"/><path d="M642.89 951.51c37.63-33.37 64.78-71.26 77.14-115.52-14.23 25.89-30.14 45.96-47.87 59.74 23.4-21.11 38.83-56.39 50.64-98.11-19.53 38.54-45.68 69.27-82.98 86.81l-178.91-16.78L282 884.43c-37.31-17.53-63.45-48.27-82.98-86.81 11.81 41.72 27.24 76.99 50.64 98.11-17.73-13.77-33.64-33.85-47.87-59.74 12.36 44.26 39.52 82.14 77.14 115.52-35.15-26.85-62.85-61.51-82.68-104.44 11.63 41.65 31.52 75.11 60.92 99.11 60.87 30 128.55 45.89 203.74 46.28 75.18-.39 142.87-16.28 203.74-46.28 29.41-24 49.29-57.46 60.92-99.11-19.83 42.93-47.53 77.59-82.68 104.44z" fill="#e2edff"/><path d="M708.83 809.78L460.9 862.63l-247.93-52.85c13.26 34.05 39.99 59.09 75.93 77.96l-24.24-10.41c31.22 24.61 64.94 43.97 103.38 53.34l-41.93-9.49c34.92 20.96 78.74 33.14 134.78 33.23 56.05-.09 99.86-12.27 134.78-33.23l-41.93 9.49c38.45-9.37 72.16-28.73 103.38-53.34l-24.24 10.41c35.94-18.88 62.67-43.91 75.93-77.96z" fill="#8b9cff"/><path d="M460.91 957.58c-47.71 1.02-92.61-9.89-135.58-29.01 41.94 22.14 86.33 36.88 135.58 35.08 49.24 1.8 93.63-12.94 135.58-35.08-42.97 19.13-87.87 30.03-135.58 29.01z" fill="#8b9cff"/><path d="M500.18 876.35c203.11-43.09 339.86-137.88 348.92-275.93.76-11.57-2.06-23.17-5.62-34.6-.33-1.44-16.28-47.87-32.25-73.89-.97-1.58-1.9-3.06-2.79-4.49-.98-218.46-152.43-303.06-336.82-315.11-7.2-.47-14.43-.47-21.63 0-184.39 12.05-335.84 96.65-336.82 315.11-.9 1.42-1.82 2.91-2.79 4.49-15.97 26.02-31.92 72.44-32.25 73.89-3.57 11.43-6.38 23.03-5.62 34.6 9.07 138.06 145.81 232.84 348.92 275.93 25.83 5.52 52.09 5.56 78.77 0z" fill="#270751" stroke="#000" stroke-miterlimit="10" stroke-width="12"/><path d="M145.01 354.68C104.09 331 129.27 81.81 171.77 22.27c43.32-47.43 92.28-13.08 148.89 82.38l61.71 109.71-237.36 140.31z" fill="#371b72"/><path d="M147.65 311.42c1.76-237.17 53.16-354.12 145.05-91.25-23.26 42.33-48.55 86.12-143.63 130.09l-1.42-38.83z" fill="#4b35b5"/><path d="M182.03 345.31c-10.15-12.56-25.53-31.53-31.85-44.9-6.88 15.08.02 45.99 16.88 67.78l14.97-22.88z" fill="#3b0d75"/><path d="M196.31 306.68c-.08-.21-.16-.41-.23-.62-7.06-18.53-16.8-35.48-28.64-51.2l11.34 24.33c.59 3.09-.21 4.33-3.03 2.9l-13.78-14.31c8.69 13.1 16.23 25.48 19.32 35.08 1.66 4.96-.14 4.86-3.3 2.77l-24.53-24.4 18.99 24.92c.36 3.37-.4 5.4-3.96 4.09l-19.25-23.6 22.95 40.62 4.09 19.78 34.55-26.11-14.74-14.86" fill="#300751"/><path d="M147.65 359.09c-13.76-12.64-22.47-36.98-23.67-67.48-1.66-42.15 2.49-101.59 10.57-151.43 7.28-44.93 21.1-103.64 45.59-128.17C188.45 3.69 197.56-.34 207.21.02c32.99 1.23 70.84 32.73 112.52 93.62 31.37 45.83 54.21 93.06 57.41 100.47l-16.99 4.76c-3.12-7.23-25.46-53.4-56.29-98.45C265 43.65 235.34 20.37 206.77 19.3c-6.27-.23-12.19 2.54-18.12 8.48-39.99 40.07-55.54 190.21-52.67 263.37 1.09 27.67 9.44 49.6 19.79 59.11l-8.12 8.84z"/><path d="M194.59 308.79c-4.66-47.95-3.85-101.29 3.69-130.21 15.05 27.04 28.42 55.67 40.09 85.9l22.68-30.07 3.16-18.46 3.16 14.24 8.97-12.66c13.04-64.39-7.45-112.81-40.88-155.08-40.05-52.65-75.5-2.57-100.48 176.18 1.96-79.79 18.8-170.21 51.64-203.04 28.18-28.18 69.52 21.42 98.36 90.57 2.03 4.88 3.66 9.92 4.71 15.1 4.18 20.54 4.26 43.38 4.33 65.33 16.38-10.69 29.03-8.95 37.98 5.14l-54.2 64.09-58.55 40.75-24.66-7.78z" fill="#17001b"/><path d="M776.57 354.68C817.49 331 792.25 83.76 749.76 24.22c-43.32-47.43-92.22-15.03-148.84 80.44l-61.71 109.71 237.36 140.31z" fill="#371b72"/><path d="M773.93 311.42c-1.76-237.17-53.16-354.12-145.05-91.25 23.26 42.33 48.55 86.12 143.63 130.09l1.42-38.83z" fill="#4b35b5"/><path d="M739.55 345.31c10.15-12.56 25.53-31.53 31.85-44.9 6.88 15.08-.02 45.99-16.88 67.78l-14.97-22.88z" fill="#3b0d75"/><path d="M725.27 306.68c.08-.21.16-.41.23-.62 7.06-18.53 16.8-35.48 28.64-51.2l-11.34 24.33c-.59 3.09.21 4.33 3.03 2.9l13.78-14.31c-8.69 13.1-16.23 25.48-19.32 35.08-1.66 4.96.14 4.86 3.3 2.77l24.53-24.4-18.99 24.92c-.36 3.37.4 5.4 3.96 4.09l19.25-23.6-22.95 40.62-4.09 19.78-34.55-26.11 14.74-14.86" fill="#300751"/><path d="M773.93 359.09c13.76-12.64 22.47-36.98 23.67-67.48 1.66-42.15-2.49-101.59-10.57-151.43-7.28-44.93-21.1-103.64-45.59-128.17-8.3-8.32-17.41-12.35-27.06-11.99-32.99 1.23-70.84 32.73-112.52 93.62-31.37 45.83-54.21 93.06-57.41 100.47l16.99 4.76c3.12-7.23 25.46-53.4 56.29-98.45 38.86-56.77 68.52-80.05 97.09-81.12 6.27-.23 12.19 2.54 18.12 8.48 39.99 40.07 55.54 190.21 52.67 263.37-1.09 27.67-9.44 49.6-19.79 59.11l8.12 8.84z"/><path d="M726.99 308.79c4.66-47.95 3.85-101.29-3.69-130.21-15.05 27.04-28.42 55.67-40.09 85.9l-22.68-30.07-3.16-18.46-3.16 14.24-8.97-12.66c-13.04-64.39 7.45-112.81 40.88-155.08 40.05-52.65 75.5-2.57 100.48 176.18-1.96-79.79-18.8-170.21-51.64-203.04-28.18-28.18-69.52 21.42-98.36 90.57-2.03 4.88-3.66 9.92-4.71 15.1-4.18 20.54-4.26 43.38-4.33 65.33-16.38-10.69-29.03-8.95-37.98 5.14l54.2 64.09 58.55 40.75 24.66-7.78z" fill="#17001b"/><path d="M160.41 110.92c-2.7 9.06-5.34 19.06-7.91 30-10.84 113.26-18.6 193.03 2 211.91l3.35 3.3-1.51-6.33c-19.51-35.17-11.44-129.09 4.06-238.88zm600.76 0c15.5 109.78 23.57 203.71 4.06 238.88l-1.51 6.33 3.35-3.3c20.6-18.88 12.84-98.65 2-211.91-2.57-10.95-5.2-20.94-7.91-30zm-46.4-83.26c7.18-.69 14 1.74 20.19 7.93 11.86 11.86 21.63 31.23 29.37 54.9-.23-2.48-.45-4.96-.68-7.46-.91-10.08-3-19.3-7.63-28.29-41.6-84.03-108.54-24.11-192.86 134.48-37.86-11.32-67.98-14.34-102.37-14.08-34.39-.25-64.51 2.76-102.37 14.08C274.11 30.63 207.16-29.29 165.57 54.74c-4.63 8.99-6.72 18.21-7.63 28.29-.23 2.5-.45 4.99-.68 7.46 7.74-23.67 17.51-43.04 29.37-54.9 6.19-6.19 13-8.62 20.19-7.93 16.54-.62 35.94 12.8 57.94 38.89 25.09 30.78 56.47 68.54 82.92 139.79 72.83-26.07 147.99-27.02 226.68 0 26.45-71.25 57.39-109.01 82.48-139.79 21.99-26.09 41.4-39.5 57.94-38.89z" fill="#ffffdc"/><g fill="none" stroke="#000" stroke-miterlimit="10" stroke-width="8"><path d="M256.65 92.06l35.21-26.11m-28.88 36.97l35.21-26.11m366.74 15.25l-35.21-26.11m28.88 36.97l-35.21-26.11"/></g><g><path d="M842.41 561.44c-5.28-20.31-15.22-43.5-31.19-69.52-11.79-19.2-18.07-26.2-24.78-41.94-3.07-7.2-5.11-14.79-6.18-22.53-15.6-112.7-130.46-232.68-319.47-241.02-195.45 8.34-303.87 128.32-319.47 241.02-1.07 7.75-3.12 15.34-6.18 22.53-6.7 15.74-12.99 22.74-24.78 41.94-15.97 26.02-25.91 49.21-31.19 69.52-5.37 20.63-5.57 38.2-2.84 59.34C87.77 747.82 268.47 858.83 457.8 875.29c1 0 1.99 0 2.99-.02 1 0 1.99.02 2.99.02 189.34-16.46 370.04-127.47 381.47-254.51 2.72-21.14 2.52-38.71-2.84-59.34z" fill="url(#l)"/><path d="M145.08 440.59c-8.49 30.56-25.36 58.99-40.68 84.41-8.85 14.69-13.31 26.54-16.88 40.67-3.2 12.68-7.09 24.77-5.74 34.35 5.36 27.92 13.19 53.17 24.2 74.97 10.87 11.72 10.46 8.82 4.88-.79-19.72-32.39-24.13-76.75-24.13-76.75s11.9 62.83 57.76 110.77c42.54 44.47 97.82 85.61 135.3 109.58-97.8-43.5-174.41-103.88-197.41-184.75-12.75-36.42-7.15-73.37 13.85-110.77 18.8-33.82 37.92-68.12 45.49-85.05l2.24-10.15 1.12 13.52zm631.36 0c8.49 30.56 25.36 58.99 40.68 84.41 8.85 14.69 13.31 26.54 16.88 40.67 3.2 12.68 7.09 24.77 5.74 34.35-5.36 27.92-13.19 53.17-24.2 74.97-10.87 11.72-10.46 8.82-4.88-.79 19.72-32.39 24.13-76.75 24.13-76.75s-11.9 62.83-57.76 110.77c-42.54 44.47-97.82 85.61-135.3 109.58 97.8-43.5 174.41-103.88 197.41-184.75 12.75-36.42 7.15-73.37-13.85-110.77-18.8-33.82-37.92-68.12-45.49-85.05l-2.24-10.15-1.12 13.52z" fill="#ffffdc" fill-rule="evenodd"/><path d="M787.26 533c-32.5-31.37-73.36-36.99-99.96-25.75-7.38 3.12-11.82 8.82-16.66 14.34-17.02 22.57-2.46 36.3-39.91 58.45-9.77 5.78-39.43.13-53.9-6.23-3.42-1.51-13.15-6.92-21.66-12.56-3.16-2.09-6.5-2.51-8.57-3.49-.72 20.99-4.43 42-11.08 63.03-20.06-20.37-45.53-29.1-74.73-29.8-29.2.7-54.66 9.43-74.73 29.8-6.64-21.03-10.36-42.04-11.08-63.03-2.07.99-5.41 1.4-8.57 3.49-8.51 5.64-18.23 11.05-21.66 12.56-14.47 6.36-44.13 12.01-53.9 6.23-37.45-22.15-22.89-35.88-39.91-58.45-4.84-5.52-9.29-11.22-16.66-14.34-26.6-11.24-67.46-5.62-99.96 25.75-13.55 13.07-21.97 30.77-22.35 49.59-1.34 65.82 85.14 127.47 200.78 187.74 22.66 11.61 53.12 22.28 80.51 30.69a230.1 230.1 0 0 0 135.06 0c27.4-8.41 57.86-19.08 80.51-30.69 115.63-60.27 202.12-121.92 200.78-187.74-.38-18.82-8.81-36.51-22.35-49.59z" fill="#fff"/><path d="M353.07 567.97c-51.47 13.93-74.75 7.39-84.07-9.3 16.95 16.7 41.27 18.66 70.91 9.99-40.12 7.29-59.82.96-68.74-12.56 11.18 9.77 27.17 14.97 50.54 13.15-18.75-.09-33.48-5.13-45.4-13.65 10.05 3.98 20.27 6.45 30.66 7.62-9.83-2.15-20.71-7.55-30.36-16.02-8.83-7.75-18.7-16.38-26.11-28.09-3.67-5.8-10.52-8.79-16.22-11.87-9.52 10.74-10.31 22.79 1.98 36.79 13.92 18.38 30.85 31.03 50.44 38.58 2.46.95 5.06 1.49 7.69 1.63 26.17 1.36 50.67-4.44 72.15-23.07-21.92 14.23-43.45 20.54-64.65 19.96-5.58-.15-11.07-1.41-16.18-3.64l-9.63-4.2c23.38 10.88 49.29 7.73 76.98-5.34zm215.45 0c51.47 13.93 74.75 7.39 84.07-9.3-16.95 16.7-41.27 18.66-70.91 9.99 40.12 7.29 59.82.96 68.74-12.56-11.18 9.77-27.17 14.97-50.54 13.15 18.75-.09 33.48-5.13 45.4-13.65-10.05 3.98-20.27 6.45-30.66 7.62 9.83-2.15 20.71-7.55 30.36-16.02 8.83-7.75 18.7-16.38 26.11-28.09 3.67-5.8 10.52-8.79 16.22-11.87 9.52 10.74 10.31 22.79-1.98 36.79-13.92 18.38-30.85 31.03-50.44 38.58-2.46.95-5.06 1.49-7.69 1.63-26.17 1.36-50.67-4.44-72.15-23.07 21.92 14.23 43.45 20.54 64.65 19.96 5.58-.15 11.07-1.41 16.18-3.64l9.63-4.2c-23.38 10.88-49.29 7.73-76.98-5.34z" fill="#ffe6ba"/><path d="M616.22 694.7c-1.55-4.82-7.93-5.97-11.3-2.19C498.78 775.98 496.06 701 496.06 701H425.9s-2.73 74.98-108.86-8.49c-3.37-3.79-9.74-2.64-11.3 2.19-1.72 5.35.15 12.93 5.22 22.51 17.15 32.47 60.43 64.79 99.52 66.07 13.89.45 27.74-2.49 39.99-9.06 3.94-2.11 7.47-4.43 10.51-7.01 3.04 2.58 6.58 4.9 10.51 7.01 12.25 6.57 26.1 9.51 39.99 9.06 39.09-1.28 82.37-33.6 99.52-66.07 5.08-9.57 6.95-17.16 5.22-22.51z" fill="url(#m)" opacity=".8"/><path d="M597.97 709.86c-1.65-2.36-3.58-2.2-6.01 2.18-5.4 9.72-8.12 16.53-14.64 24.86-4.35 5.56-12.74 12.71-18.83 16.27-28.08 16.44-57.58 19.27-88.78 1.74a5.915 5.915 0 0 1-3.02-5.15V719.3l-5.89-3.82-5.89 3.82v30.46c0 2.13-1.16 4.1-3.02 5.15-31.21 17.54-60.71 14.7-88.78-1.74-6.09-3.57-14.48-10.71-18.83-16.27-6.51-8.32-9.24-15.14-14.64-24.86-2.43-4.38-4.37-4.54-6.01-2.18-1.46 2.09-1.67 4.81-.77 7.2 9.92 26.45 28.29 47.43 64.6 56.82 3.73.97 7.56 1.56 11.42 1.75 21.71 1.08 42.31.49 55.4-11.28 1.6-1.44 3.71-2.19 5.87-2.19h1.33c2.16 0 4.26.75 5.87 2.19 13.09 11.76 33.68 12.36 55.4 11.28 3.85-.19 7.68-.78 11.42-1.75 36.31-9.39 54.69-30.37 64.6-56.82.9-2.39.68-5.11-.77-7.2z" fill="#1a0033"/><path d="M529.19 644c-5.26-22.96-30.69-31.75-68.4-31.91-37.71.16-63.14 8.95-68.4 31.91-1.95 9.54-2.83 23.84.26 30.59 13.8 34.92 37.22 46.43 68.13 47.21 30.91-.78 54.33-12.29 68.13-47.21 3.09-6.75 2.22-21.05.26-30.59z" fill="#1a0033"/><path d="M499.19 688.83c-13.76 2.66-26.73 3.14-38.4 0-11.67 3.14-24.64 2.66-38.4 0-4.09-.38-7.01.83-6.92 6.13 12.85 13.98 27.96 21.89 45.32 23.74 17.36-1.85 32.47-9.76 45.32-23.74.09-5.31-2.83-6.51-6.92-6.13z" fill="#260366"/><path d="M483.45 636.35h-45.32c-5.39.91-6.69 5.32-6.44 11.08h58.2c.26-5.75-1.05-10.17-6.44-11.08zm.19-18.99c14.82 1.26 24.01 7.69 29.91 17.14-16.21-3.61-33.47-5.37-52.57-3.82-19.11-1.54-36.36.21-52.57 3.82 5.9-9.45 15.09-15.88 29.91-17.14 15.35-1.95 30.48-2.09 45.32 0zm-75.42 53.78c3.04-.58 6.1-.73 9.17-.79l-.53.18c2.56-1.99 5.72-3.15 8.83-3.91 1.57-.36 3.22-.58 4.9-.29 4.33.7 7.13 4.98 8.1 8.98.57 2.4.35 4.98.13 7.33-.13 1.58-.33 3.16-.59 4.74-.02.11-.18.11-.2 0-.57-3.1-.64-6.28-.99-9.39-.71-6.21-5.26-13.25-12.32-10.44-2.53 1-4.58 2.89-6.8 4.41l-.27.18h-.27c-3.07-.07-6.13-.22-9.17-.8-.1-.02-.11-.18 0-.2zm105.14.2c-3.13.59-6.28.74-9.44.8l-.27-.18c-2.22-1.52-4.27-3.41-6.8-4.41-7.05-2.81-11.6 4.24-12.32 10.44-.35 3.11-.42 6.28-.99 9.39-.01.11-.19.11-.2 0-.26-1.58-.46-3.16-.59-4.74-.22-2.35-.43-4.93.13-7.33.97-4 3.77-8.28 8.1-8.98 1.68-.29 3.33-.07 4.9.29 3.11.76 6.27 1.92 8.83 3.91l-.53-.18c3.07.06 6.13.22 9.17.79.1.02.11.18 0 .2zm-37.74 40.46c-1.05.54-2.87 1.56-4.05 1.56l-10.78.99-10.78-.99c-1.18 0-3-1.02-4.05-1.56-4.41-2.27-4.3-1.89-1.67 1.81a7.515 7.515 0 0 0 4.86 3.04c4.08.7 8.02 1.2 11.65 1.25 3.62-.05 7.56-.55 11.65-1.25a7.54 7.54 0 0 0 4.86-3.04c2.63-3.7 2.74-4.08-1.67-1.81zM301.54 392.13c4.14-6.78 11.64-16.11 23.54-19.98 26.69-8.68 58.43 15.71 64.48 40.75.96 3.96 4.16 17.2-3.76 26.7-4.81 5.78-13.09 9.4-20.57 8.11-6.05-1.05-7.1-4.54-15.03-10.48-13.2-9.88-18.49-6.33-35.01-17.6-8.99-6.13-12.03-10.33-13.45-14.84-1.59-5.04-.93-9.7-.2-12.66zm318.5 0c-4.14-6.78-11.64-16.11-23.54-19.98-26.69-8.68-58.43 15.71-64.48 40.75-.96 3.96-4.16 17.2 3.76 26.7 4.81 5.78 13.09 9.4 20.57 8.11 6.05-1.05 7.1-4.54 15.03-10.48 13.2-9.88 18.49-6.33 35.01-17.6 8.99-6.13 12.03-10.33 13.45-14.84 1.59-5.04.93-9.7.2-12.66z" fill="#fff"/><path d="M376.94 536.13c1.05 7.45-.31 12.44-5.78 13.25-31.23 17.96-62.18 17.99-88.25 1.83-4.3-2.67-8.1-6.08-11.21-10.08-16.8-21.59-31.51-34.09-48.89-43.16-2.3-3.34-1.73-6.29 1.19-8.92l10.98-3.82a27.33 27.33 0 0 0 11.76-7.97c57.73-66.9 122.9-43.08 129.47 51.2.18 2.56.37 5.13.73 7.67zm167.7 0c-1.05 7.45.31 12.44 5.78 13.25 31.23 17.96 62.18 17.99 88.25 1.83 4.3-2.67 8.1-6.08 11.21-10.08 16.8-21.59 31.51-34.09 48.89-43.16 2.3-3.34 1.73-6.29-1.19-8.92l-10.98-3.82a27.33 27.33 0 0 1-11.76-7.97c-57.73-66.9-122.9-43.08-129.47 51.2-.18 2.56-.37 5.13-.73 7.67z" fill="#15001c"/><path d="M280.18 471.45c-4.45.67-6.81 13.49-6.53 23.34.16 5.57.99 34.35 25.32 46.29 16.27 7.98 36.36 5.14 49.25-6.13 6.34-5.54 13.99-13.85 11.87-17.6-2.36-4.17-13.44 3-28.88 0-18.29-3.56-30.86-19.1-35.41-24.73-9.84-12.17-11.67-21.76-15.63-21.16z" fill="url(#b)"/><path d="M352.07 545.57a19.305 19.305 0 0 1-5.11 4.1c-18.4 10.2-37.31 8.52-57.69-6.02-18.49-12.7-26.76-26.61-24.68-49.15.66-7.11 3.73-13.83 8.85-18.8 1.94-1.89 3.9-3.47 5.81-4.27-3.61 25.3.26 46.92 14.85 60.08 11.18 10.09 27.19 13.28 41.42 8.33 10.64-3.7 16.96-11 22.55-20.15.59-.96 1.54-1.71 2.66-1.86 1.62-.23 2.38.82 2.79 3.06.15.83.21 1.67.19 2.51-2.14 8.52-6.07 15.88-11.62 22.17z" fill="url(#c)"/><path d="M641.41 471.45c4.45.67 6.81 13.49 6.53 23.34-.16 5.57-.99 34.35-25.32 46.29-16.27 7.98-36.36 5.14-49.25-6.13-6.34-5.54-13.99-13.85-11.87-17.6 2.36-4.17 13.44 3 28.88 0 18.29-3.56 30.86-19.1 35.41-24.73 9.84-12.17 11.67-21.76 15.63-21.16z" fill="url(#n)"/><path d="M569.51 545.57c1.45 1.65 3.19 3.03 5.11 4.1 18.4 10.2 37.31 8.52 57.69-6.02 18.49-12.7 26.76-26.61 24.68-49.15-.66-7.11-3.73-13.83-8.85-18.8-1.94-1.89-3.9-3.47-5.81-4.27 3.61 25.3-.26 46.92-14.85 60.08-11.18 10.09-27.19 13.28-41.42 8.33-10.64-3.7-16.96-11-22.55-20.15-.59-.96-1.54-1.71-2.66-1.86-1.62-.23-2.38.82-2.79 3.06-.15.83-.21 1.67-.19 2.51 2.14 8.52 6.07 15.88 11.62 22.17z" fill="url(#o)"/><path d="M290.66 470.85c5.85-1.86 12.67 6.62 14.04 5.34.86-.8-1.87-4.04-3.16-5.24-4.22-3.92-4.47-5.48-4.75-7.48-.53-3.76 5.77-8.83 10.88-10.42 7.27-2.26 17.2 1.02 19.98 8.31 2.42 6.34-1.74 12.66-3.56 15.43-.81 1.23-6.43 9.46-16.81 10.68-1.5.18-7.55.73-13.45-2.77-1.36-.81-8.07-4.79-7.32-9.3.33-1.98 2.07-3.88 4.15-4.55zm340.26 0c-5.85-1.86-12.67 6.62-14.04 5.34-.86-.8 1.87-4.04 3.16-5.24 4.22-3.92 4.47-5.48 4.75-7.48.53-3.76-5.77-8.83-10.88-10.42-7.27-2.26-17.2 1.02-19.98 8.31-2.42 6.34 1.74 12.66 3.56 15.43.81 1.23 6.43 9.46 16.81 10.68 1.5.18 7.55.73 13.45-2.77 1.36-.81 8.07-4.79 7.32-9.3-.33-1.98-2.07-3.88-4.15-4.55z" fill="#fff"/><path d="M295.18 518.74c2.08-4.16 6.24-7.42 10.33-8.44 12.87-3.21 26.94 15.28 30.57 12.19 1.62-1.38-.25-5.89 1.15-6.42 1.02-.39 3.01 1.62 4.02 3.69 2.33 4.76.45 11.82-3.87 15.93-3.8 3.61-8.46 3.94-13.39 4.28-10.59.74-18.08-3.53-22.42-6.01-6.2-3.54-7.27-6.06-7.64-7.41-.94-3.44.64-6.59 1.25-7.82z" fill="url(#d)" opacity=".75"/><path d="M626.4 518.74c-2.08-4.16-6.24-7.42-10.33-8.44-12.87-3.21-26.94 15.28-30.57 12.19-1.62-1.38.25-5.89-1.15-6.42-1.02-.39-3.01 1.62-4.02 3.69-2.33 4.76-.45 11.82 3.87 15.93 3.8 3.61 8.46 3.94 13.39 4.28 10.59.74 18.08-3.53 22.42-6.01 6.2-3.54 7.27-6.06 7.64-7.41.94-3.44-.64-6.59-1.25-7.82z" fill="url(#p)" opacity=".75"/></g><g><path d="M280.62 233.81c-44.11 26.73-123.7 80.95-139.3 193.65-1.07 7.75-3.12 15.34-6.18 22.53-6.7 15.74-12.99 22.74-24.78 41.94-15.97 26.02-25.91 49.21-31.19 69.52-5.37 20.63-5.57 38.2-2.84 59.34C87.77 747.83 268.47 858.84 457.8 875.3h5.98c189.34-16.46 370.04-127.47 381.47-254.51 2.72-21.14 2.52-38.71-2.84-59.34-5.28-20.31-15.22-43.5-31.19-69.52-11.79-19.2-18.07-26.2-24.78-41.94-3.07-7.2-5.11-14.79-6.18-22.53-15.6-112.7-94.15-165.88-138.26-192.61" fill="none" stroke="#000" stroke-miterlimit="10" stroke-width="4"/><path fill="url(#q)" d="M415.41 255.07l-40.78-36.56-31.65-4.75-19.52-18.99h-17.93L277.57 228l6.33 14.24 22.16 14.77 2.63 12.66 68.22 34.46 38.5-49.06z"/><path fill="url(#r)" d="M506.17 255.07l40.78-36.56 31.65-4.75 19.52-18.99h17.93L644.01 228l-6.33 14.24-22.15 14.77-2.64 12.66-68.22 34.46-38.5-49.06z"/><path d="M388.06 265.74l-33.82-28.03-18.73 23.69c-1.55 2.03-3.63 3.26-5.43 1.46l-2.01-1.41a4.211 4.211 0 0 1-.22-5.72l21.57-25.63 5.26.64 35.47 31.85-2.09 3.15z" fill="#b7f9ff"/><rect x="356.89" y="246.72" width="17.23" height="35.58" rx="4.31" ry="4.31" transform="rotate(-51.21 365.491 264.499)" fill="#b7f9ff"/><rect x="355.05" y="258.14" width="2.54" height="35.58" rx="1.27" ry="1.27" transform="rotate(-51.21 356.306 275.929)" fill="#b7f9ff"/><rect x="297.9" y="210.35" width="31.6" height="31.6" rx="4.31" ry="4.31" transform="rotate(-51.21 313.69 226.152)" fill="url(#e)"/><rect x="303.31" y="215.76" width="20.79" height="20.79" rx="4.31" ry="4.31" transform="rotate(-51.21 313.69 226.152)" fill="#b7f9ff"/><path fill="#fff" d="M286.8 235.92l-4.22 4.48 22.69 18.46 1.84 9.76h6.59v-10.55l-26.9-22.15zm33.83-40.98l-.4 2.67 19.25 18.99 4.84 1.31-.81-5.2-20.05-17.94-2.83.17z"/><rect x="352.29" y="261.58" width="2.54" height="35.58" rx="1.27" ry="1.27" transform="rotate(-51.21 353.543 279.364)" fill="#b7f9ff"/><path d="M533.52 265.74l33.82-28.03 18.73 23.69c1.55 2.03 3.63 3.26 5.43 1.46l2.01-1.41a4.211 4.211 0 0 0 .22-5.72l-21.57-25.63-5.26.64-35.47 31.85 2.09 3.15z" fill="#b7f9ff"/><rect x="547.46" y="246.72" width="17.23" height="35.58" rx="4.31" ry="4.31" transform="rotate(-128.79 556.085 264.5)" fill="#b7f9ff"/><rect x="563.99" y="258.14" width="2.54" height="35.58" rx="1.27" ry="1.27" transform="rotate(-128.79 565.265 275.92)" fill="#b7f9ff"/><rect x="592.08" y="210.35" width="31.6" height="31.6" rx="4.31" ry="4.31" transform="rotate(-128.79 607.89 226.141)" fill="url(#s)"/><rect x="597.49" y="215.76" width="20.79" height="20.79" rx="4.31" ry="4.31" transform="rotate(-128.79 607.89 226.141)" fill="#b7f9ff"/><path fill="#fff" d="M634.78 235.92l4.22 4.48-22.68 18.46-1.85 9.76h-6.59v-10.55l26.9-22.15zm-33.83-40.98l.4 2.67-19.25 18.99-4.84 1.31.81-5.2 20.05-17.94 2.83.17z"/><rect x="566.76" y="261.58" width="2.54" height="35.58" rx="1.27" ry="1.27" transform="rotate(-128.79 568.034 279.364)" fill="#b7f9ff"/><path d="M213.75 306.68c-6.68 0-17.27 2.33-21.69 6.83-9.91 10.1-18.74 23.18-23.28 39.72h89.94c0-25.71-20.13-46.55-44.97-46.55zm494.08 0c6.68 0 17.27 2.33 21.69 6.83 9.91 10.1 18.74 23.18 23.28 39.72h-89.94c0-25.71 20.13-46.55 44.97-46.55z"/><path fill-rule="evenodd" d="M383.12 319.27L216.84 334.7v-15.43l173.02-17.87-6.74 17.87zm155.35 0l166.27 15.43v-15.43L531.73 301.4l6.74 17.87z"/><path d="M381.67 367.34l-12.51-57.5-123.18 15.79c-7.94-8.81-19.44-14.34-32.23-14.34-23.96 0-43.39 19.43-43.39 43.39s19.43 43.39 43.39 43.39c18.29 0 33.92-11.32 40.31-27.32l127.61-3.41zm158.24 0l12.51-57.5 123.18 15.79c7.94-8.81 19.44-14.34 32.23-14.34 23.96 0 43.39 19.43 43.39 43.39s-19.43 43.39-43.39 43.39c-18.29 0-33.92-11.32-40.31-27.32l-127.61-3.41z" fill="#fff" fill-rule="evenodd"/><path fill="#fff" d="M250.327 368.806l46.985-1.189.085 3.359-46.985 1.19z"/><path fill="url(#f)" fill-rule="evenodd" d="M384 350.32l-168.66 5.81v15.43l175.49-3.36-6.83-17.88z"/><path fill="url(#t)" fill-rule="evenodd" d="M537.58 350.32l168.67 5.81v15.43l-175.5-3.36 6.83-17.88z"/><path d="M366.73 351.03l-120.01 9.9-6.24-30.99 125.62-15.26c-1.13 7.21-2.18 19.92.63 36.35z" fill="url(#g)" fill-rule="evenodd"/><path d="M554.85 351.03l120.01 9.9 6.24-30.99-125.62-15.26c1.13 7.21 2.18 19.92-.63 36.35z" fill="url(#u)" fill-rule="evenodd"/><path d="M368.31 347.51h-26.29l-1.61-20.36h27.9v20.36z"/><path fill="#00007b" d="M339.448 317.863l27.694-3.38 2.104 17.231-27.694 3.381zm240.596 17.23l-27.694-3.38 2.103-17.233 27.695 3.38z"/><path fill="none" stroke="#fff" stroke-miterlimit="10" stroke-width="6" d="M368.21 328.9l-27.27 3.32m27.28 13.9l-26.1 3.18"/><path d="M553.27 347.51h26.29l1.61-20.36h-27.9v20.36z"/><path fill="none" stroke="#fff" stroke-miterlimit="10" stroke-width="6" d="M553.37 328.9l27.28 3.32m-27.29 13.9l26.1 3.18"/><path fill="#fff" stroke="#000" stroke-miterlimit="10" stroke-width="6" d="M233.61 331.63l54.62-1.39"/><circle cx="213.75" cy="354.68" r="40.09" fill="#0b2f72"/><circle cx="707.83" cy="354.68" r="40.09" fill="#0b2f72"/><circle cx="213.75" cy="354.68" r="29.01" fill="#fff"/><circle cx="707.83" cy="354.68" r="29.01" fill="#fff"/><circle cx="213.75" cy="354.68" r="16.88" fill="#369acb"/><circle cx="707.83" cy="354.68" r="16.88" fill="#369acb"/><path d="M205.92 338.31c4.28 9.77 5.14 15.75 10.92 15.65-4.25-4.92-3.28-10.47-4-17.23l-6.92 1.59zm509.74 0c-4.28 9.77-5.14 15.75-10.92 15.65 4.25-4.92 3.28-10.47 4-17.23l6.92 1.59z" fill="#fff" fill-rule="evenodd"/><path fill-rule="evenodd" d="M298.47 356.67l-7.7.67-4.96-40.7 7.67-.93 4.99 40.96zm324.64 0l7.7.67 4.97-40.7-7.68-.93-4.99 40.96z"/><circle cx="460.79" cy="331.2" r="94.07" fill="#81f7fe" stroke="#001270" stroke-miterlimit="10" stroke-width="4"/><circle cx="460.79" cy="331.2" r="58.73" fill="url(#v)"/><circle cx="460.79" cy="331.2" r="76.79" fill="#99fafe"/><circle cx="460.79" cy="331.2" r="55.08" fill="#fff"/><circle cx="460.79" cy="331.2" r="53.92" fill="none" stroke="#0074f6" stroke-miterlimit="10" stroke-width="5"/><circle cx="460.79" cy="331.2" r="73.1" fill="none" stroke="#005cd1" stroke-miterlimit="10" stroke-width="4"/><circle cx="460.79" cy="331.2" r="79.12" fill="none" stroke="#0d43b0" stroke-miterlimit="10" stroke-width="8"/><circle cx="460.79" cy="331.2" r="33.54" fill="#16ffff"/><path fill="url(#h)" d="M457.76 237.14l-14.4.52 7.2 14.58 7.2-.16v-14.94z"/><path fill="url(#w)" d="M463.82 237.14l14.4.52-7.2 14.58-7.2-.16v-14.94z"/><circle cx="460.79" cy="331.2" r="25.49" fill="none" stroke="#fff" stroke-miterlimit="10" stroke-width="5"/><path fill="url(#i)" fill-rule="evenodd" d="M265.34 342.17l23.24-2.83 2.19 18-23.36 1.8-2.07-16.97z"/><path fill="url(#x)" fill-rule="evenodd" d="M656.24 342.17l-23.23-2.83-2.2 18 23.36 1.8 2.07-16.97z"/><g fill-rule="evenodd"><path fill="#81f7fe" d="M461.76 416.3h-20.05l2.38 113.5h35.34l2.37-113.5h-20.04z"/><path fill="url(#y)" d="M461.76 408h-17.67l3.18 121.8h28.98l3.18-121.8h-17.67z"/></g><path d="M445.47 588.26l-8.68-5.99v-48.46c0-3.04 2.48-5.52 5.52-5.52h36.97c3.04 0 5.52 2.48 5.52 5.52v48.46l-8.68 5.99h-30.65z" fill="#1d2572" fill-rule="evenodd"/><path d="M479.27 529.8c2.22 0 4.02 1.8 4.02 4.02v47.67l-7.65 5.27h-29.71l-7.65-5.27v-47.67c0-2.22 1.8-4.02 4.02-4.02h36.97m0-3H442.3c-3.87 0-7.02 3.15-7.02 7.02v49.25l1.3.89 7.65 5.27.77.53h31.58l.77-.53 7.65-5.27 1.3-.89v-49.25c0-3.87-3.15-7.02-7.02-7.02z" fill="#fff"/><path fill="#1d2572" d="M451.99 553.52h17.6v20.46h-17.6z"/><path d="M464.59 558.52v10.46h-7.6v-10.46h7.6m10-10h-27.6v27.69l2.77 2.77h22.07l2.77-2.77v-27.69z" fill="#fff"/><path fill="#fff" fill-rule="evenodd" d="M460.79 540.48h-13.8v2.9h27.6v-2.9h-13.8z"/><path fill="#fff" d="M460.79 409.17h-7.87v15.99h15.74v-15.99h-7.87z"/><g fill="#4a3a98" fill-rule="evenodd"><path d="M326.02 319.67l-31.6 3.73 4.05 33.27 33.08-2.72-5.53-34.28zm269.55 0l31.59 3.73-4.05 33.27-33.08-2.72 5.54-34.28z"/></g><g><path d="M329.29 319.16c1.22 14.47 2.87 27.42 5.98 34.46l7.96-.65c-2.32-5.12-4.91-20.73-7.1-34.65l-6.84.84z" fill="#07adf7"/><path d="M324.2 319.89l5.11-.62c.52 12.09 2.42 23.57 5.96 34.35l-5.14.45c-2.3-9.79-4.19-21.37-5.93-34.18zm11.93-1.57l5.11-.67c.52 12.09 2.9 24.17 6.44 34.95l-4.44.37c-2.5-5.82-6.26-19.64-7.1-34.65z"/><path d="M592.29 319.16c-1.22 14.47-2.87 27.42-5.98 34.46l-7.96-.65c2.32-5.12 4.91-20.73 7.1-34.65l6.84.84z" fill="#07adf7"/><path d="M597.39 319.89l-5.11-.62c-.52 12.09-2.42 23.57-5.96 34.35l5.14.45c2.3-9.79 4.19-21.37 5.93-34.18zm-11.94-1.57l-5.11-.67c-.52 12.09-2.9 24.17-6.44 34.95l4.44.37c2.5-5.82 6.26-19.64 7.1-34.65z"/></g><path fill="#fff" d="M460.79 443.66h-7.87l.97 50.8h13.8l.97-50.8h-7.87zm0 73h-6.99l.86 3.25h12.27l.86-3.25h-7z"/></g><g><path d="M138.77 349.7c-12.56 30.76-29.12 95.08-25.41 146.04l13.71-12.43c-7.53-28.61-12.19-51.1 17.59-124.22l-5.89-9.4zm644.04 0c12.56 30.76 29.12 95.08 25.41 146.04l-13.71-12.43c7.53-28.61 12.19-51.1-17.59-124.22l5.89-9.4z" fill="#ffffdc"/></g></svg>