<svg width="379" height="100" viewBox="0 0 379 100" fill="none" xmlns="http://www.w3.org/2000/svg">
<g clip-path="url(#clip0_174_246)">
<path d="M19 72.84L27.06 72.94L50.09 33.06L73.09 72.89L81.19 72.85L50.09 18.98L19 72.84Z" fill="url(#paint0_linear_174_246)"/>
<path d="M5.94 50C5.94 25.71 25.7 5.94 50 5.94C74.3 5.94 94.06 25.7 94.06 50C94.06 74.3 74.3 94.06 50 94.06C25.7 94.06 5.94 74.29 5.94 50ZM50 0C22.43 0 0 22.43 0 50C0 77.57 22.43 100 50 100C77.57 100 100 77.57 100 50C100 22.43 77.57 0 50 0Z" fill="url(#paint1_linear_174_246)"/>
<path d="M164.18 60.19H143.19L138.29 73.17H130L148.72 24.83H158.66L177.37 73.17H169.08L164.18 60.19ZM161.35 52.8L153.68 32.57L146.02 52.8H161.35Z" fill="white"/>
<path d="M215.62 73.17L195.18 50.11V73.17H187.37V24.83H195.18V46.93L214.72 24.83H224.53L203.67 48.38L225.5 73.17H215.62Z" fill="white"/>
<path d="M250.76 55.15H243.3V73.17H235.5V24.83H255.46C265.96 24.83 271.9 31.05 271.9 40.16C271.9 48.1 267.41 53.28 259.75 54.73L274.18 73.17H264.58L250.77 55.15H250.76ZM243.3 48.24H254.63C261.05 48.24 264.02 44.93 264.02 40.23C264.02 35.53 260.98 32.29 254.63 32.29H243.3V48.24Z" fill="white"/>
<path d="M331.51 49C331.44 63.28 320.55 74.1 306.34 74.1C292.13 74.1 281.17 63.28 281.17 49C281.17 34.72 292.13 23.9 306.34 23.9C320.55 23.9 331.44 34.72 331.51 49ZM289.08 49C289.08 59.12 296.5 66.61 306.35 66.61C316.2 66.61 323.55 59.12 323.55 49C323.55 38.88 316.13 31.39 306.35 31.39C296.57 31.39 289.08 38.88 289.08 49Z" fill="white"/>
<path d="M371.18 24.83V45.07L371.87 62.12L347.7 24.83H338.51V73.17H346.31V52.94L345.56 35.81L369.73 73.17H378.98V24.83H371.18Z" fill="white"/>
</g>
<defs>
<linearGradient id="paint0_linear_174_246" x1="14.06" y1="103.37" x2="135.12" y2="-31.46" gradientUnits="userSpaceOnUse">
<stop stop-color="#66CCCC"/>
<stop offset="0.48" stop-color="#6699FF"/>
<stop offset="0.78" stop-color="#6666FF"/>
<stop offset="0.99" stop-color="#6633FF"/>
<stop offset="1" stop-color="#6633FF"/>
</linearGradient>
<linearGradient id="paint1_linear_174_246" x1="12.98" y1="91.23" x2="109.46" y2="-16.22" gradientUnits="userSpaceOnUse">
<stop stop-color="#66CCCC"/>
<stop offset="0.48" stop-color="#6699FF"/>
<stop offset="0.78" stop-color="#6666FF"/>
<stop offset="0.99" stop-color="#6633FF"/>
<stop offset="1" stop-color="#6633FF"/>
</linearGradient>
<clipPath id="clip0_174_246">
<rect width="378.98" height="100" fill="white"/>
</clipPath>
</defs>
</svg>
