<svg width="100" height="100" viewBox="0 0 100 100" fill="none" xmlns="http://www.w3.org/2000/svg">
<g clip-path="url(#clip0_174_247)">
<path d="M19 72.84L27.06 72.94L50.09 33.06L73.09 72.89L81.19 72.85L50.09 18.98L19 72.84Z" fill="url(#paint0_linear_174_247)"/>
<path d="M5.94 50C5.94 25.71 25.7 5.94 50 5.94C74.3 5.94 94.06 25.7 94.06 50C94.06 74.3 74.3 94.06 50 94.06C25.7 94.06 5.94 74.29 5.94 50ZM50 0C22.43 0 0 22.43 0 50C0 77.57 22.43 100 50 100C77.57 100 100 77.57 100 50C100 22.43 77.57 0 50 0Z" fill="url(#paint1_linear_174_247)"/>
</g>
<defs>
<linearGradient id="paint0_linear_174_247" x1="14.06" y1="103.37" x2="135.12" y2="-31.46" gradientUnits="userSpaceOnUse">
<stop stop-color="#66CCCC"/>
<stop offset="0.48" stop-color="#6699FF"/>
<stop offset="0.78" stop-color="#6666FF"/>
<stop offset="0.99" stop-color="#6633FF"/>
<stop offset="1" stop-color="#6633FF"/>
</linearGradient>
<linearGradient id="paint1_linear_174_247" x1="12.98" y1="91.23" x2="109.46" y2="-16.22" gradientUnits="userSpaceOnUse">
<stop stop-color="#66CCCC"/>
<stop offset="0.48" stop-color="#6699FF"/>
<stop offset="0.78" stop-color="#6666FF"/>
<stop offset="0.99" stop-color="#6633FF"/>
<stop offset="1" stop-color="#6633FF"/>
</linearGradient>
<clipPath id="clip0_174_247">
<rect width="100" height="100" fill="white"/>
</clipPath>
</defs>
</svg>
