<svg fill="none" height="194" width="194" xmlns="http://www.w3.org/2000/svg"><linearGradient id="a" gradientUnits="userSpaceOnUse" x1="166.044" x2="28.074" y1="82.299" y2="82.299"><stop offset="0" stop-color="#faf1e7"/><stop offset=".26" stop-color="#fdceaa"/><stop offset=".612" stop-color="#f4837d"/><stop offset="1" stop-color="#b9aafd"/></linearGradient><clipPath id="b"><path d="M0 0h46v50H0z" transform="translate(74.123 20.055)"/></clipPath><circle cx="97" cy="97" fill="#faf1e7" r="97"/><path d="M154.547 119.309L97.06 62.162l-57.488 57.147 28.744 28.573 28.744-28.573 28.743 28.573z" fill="#fff"/><g stroke="#1f2333" stroke-linejoin="round" stroke-width="1.713"><path d="M97.06 119.308l28.743 28.577 5.749-14.151-34.493-34.288v19.862z" fill="#faf1e7"/><path d="M154.551 119.302l-28.747 28.574 5.749-14.142 34.492-34.288zm-57.49.006l-28.745 28.577-5.749-14.151L97.06 99.446v19.862z" fill="#1f2333"/><path d="M39.568 119.302l28.748 28.574-5.75-14.142-34.492-34.288z" fill="#faf1e7"/><path d="M166.045 99.444L97.059 30.868 28.074 99.444l34.493 34.288L97.06 99.444l34.492 34.288z" fill="url(#a)"/></g><circle cx="97.029" cy="45.029" fill="#fff" r="36.029"/><g clip-path="url(#b)"><path d="M102.893 42.897l3.787-6.212 10.205 15.37.005 2.949-.033-20.297a1.52 1.52 0 0 0-.732-1.218l-18.374-10.22a1.67 1.67 0 0 0-1.403.007 1.584 1.584 0 0 0-.165.092l-.064.039L78.284 33.4l-.069.03c-.09.04-.179.09-.264.15a1.518 1.518 0 0 0-.657 1.149l.027 16.54 9.507-14.246c1.196-1.89 3.804-2.498 6.225-2.465l2.84.073-16.74 25.958 1.974 1.098 16.94-27.03 7.488-.026-16.896 27.712 7.04 3.916.842.468c.356.14.776.147 1.134.021l18.632-10.44-3.562 1.996zm1.445 20.118l-7.112-10.793 4.342-7.123 9.339 14.234z" fill="#2d374b"/><path d="M97.226 52.222l7.112 10.793 6.569-3.681-9.34-14.235zm19.664 2.782l-.005-2.95-10.205-15.37-3.787 6.213 9.853 15.407 3.562-1.996a1.51 1.51 0 0 0 .583-1.111z" fill="#28a0f0"/><path d="M74.123 57.786l5.03 2.803 16.74-25.958-2.84-.073c-2.42-.033-5.028.576-6.225 2.465L77.32 51.269l-3.198 4.751v1.766zm31.432-23.155l-7.488.026-16.94 27.03 5.921 3.296 1.61-2.64z" fill="#fff"/><path d="M120.045 34.593c-.062-1.514-.91-2.9-2.238-3.707l-18.615-10.35a4.991 4.991 0 0 0-4.271-.001c-.155.076-18.102 10.14-18.102 10.14a4.787 4.787 0 0 0-.713.408c-1.185.822-1.908 2.099-1.983 3.501V56.02l3.198-4.75-.028-16.541a1.511 1.511 0 0 1 .658-1.15c.085-.058 18.338-10.275 18.396-10.303a1.67 1.67 0 0 1 1.404-.006l18.374 10.219c.435.267.707.721.731 1.218v20.489c-.022.434-.2.837-.549 1.111l-3.562 1.996-1.838 1.03-6.57 3.682-6.662 3.733a1.666 1.666 0 0 1-1.134-.022l-7.883-4.383-1.61 2.64 7.084 3.944.614.336c.265.144.446.24.51.27.504.236 1.228.374 1.88.374a4.88 4.88 0 0 0 1.735-.316l19.351-10.835a4.525 4.525 0 0 0 1.823-3.447z" fill="#96bedc"/></g></svg>