<svg fill="none" height="194" width="194" xmlns="http://www.w3.org/2000/svg"><linearGradient id="a" gradientUnits="userSpaceOnUse" x1="166.044" x2="28.074" y1="82.299" y2="82.299"><stop offset="0" stop-color="#faf1e7"/><stop offset=".26" stop-color="#fdceaa"/><stop offset=".612" stop-color="#f4837d"/><stop offset="1" stop-color="#b9aafd"/></linearGradient><circle cx="97" cy="97" fill="#faf1e7" r="97"/><path d="M154.547 119.309L97.06 62.162l-57.488 57.147 28.744 28.573 28.744-28.573 28.743 28.573z" fill="#fff"/><g stroke="#1f2333" stroke-linejoin="round" stroke-width="1.713"><path d="M97.06 119.308l28.744 28.577 5.748-14.151L97.06 99.446z" fill="#faf1e7"/><path d="M154.551 119.302l-28.747 28.574 5.749-14.142 34.492-34.288zm-57.49.006l-28.745 28.577-5.749-14.151L97.06 99.446z" fill="#1f2333"/><path d="M39.568 119.302l28.748 28.574-5.75-14.142-34.492-34.288z" fill="#faf1e7"/><path d="M166.045 99.444L97.06 30.868 28.074 99.444l34.493 34.288L97.06 99.444l34.492 34.288z" fill="url(#a)"/></g><circle cx="97.029" cy="47.029" fill="#fff" opacity=".9" r="36.029"/><path d="M84.602 30.664l13.2-7.199 13.201 7.2-4.853 2.66-8.347-4.54-8.348 4.54-4.853-2.66zm26.401 9.08l-4.853-2.66-8.347 4.54-8.348-4.54-4.853 2.66v5.318l8.347 4.54v9.08l4.854 2.658 4.853-2.659v-9.08l8.348-4.539v-5.318zm0 14.398v-5.32l-4.853 2.66v5.32l4.854-2.66zm3.446 1.88l-8.347 4.54v5.318l13.201-7.199V44.282l-4.854 2.66v9.08zm-4.853-20.817l4.853 2.659v5.319l4.854-2.66v-5.319l-4.854-2.66-4.853 2.66zM92.949 62.487v5.319l4.854 2.66 4.853-2.66v-5.32l-4.853 2.66zm-8.347-8.345l4.854 2.66v-5.32l-4.854-2.66zm8.348-18.938l4.853 2.66 4.854-2.66-4.854-2.66zm-11.793 2.66l4.853-2.66-4.853-2.66-4.854 2.66v5.318l4.853 2.66v-5.318zm0 9.078l-4.854-2.66v14.4l13.2 7.198V60.56l-8.347-4.54v-9.079z" fill="#f1b90c"/></svg>