<svg fill="none" height="64" viewBox="0 0 64 64" width="64" xmlns="http://www.w3.org/2000/svg" xmlns:xlink="http://www.w3.org/1999/xlink"><linearGradient id="a"><stop offset="0" stop-color="#f4837d"/><stop offset="1" stop-color="#fdceaa"/></linearGradient><linearGradient id="b" gradientUnits="userSpaceOnUse" x1="54.0812" x2="21.2736" xlink:href="#a" y1="25.893" y2="60.4862"/><linearGradient id="c" gradientUnits="userSpaceOnUse" x1="58.503" x2="19.134" xlink:href="#a" y1="12.7806" y2="54.2925"/><clipPath id="d"><path d="m0 0h64v64h-64z"/></clipPath><g clip-path="url(#d)" stroke="#1f2333" stroke-linejoin="round"><path d="m5.69263 45.4063 26.28007-26.4952 26.2802 26.4952-13.1403 13.2477-13.14-13.2476-13.1399 13.2475z" fill="url(#b)"/><path d="m31.9729 45.4062-13.1401 13.2493-2.628-6.5607 15.7681-15.897z" fill="#1f2333"/><path d="m5.69097 45.4035 13.14153 13.2479-2.6279-6.5566-15.768077-15.897z" fill="#fee0ca"/><path d="m31.9727 45.4062 13.1401 13.2493 2.6279-6.5607-15.768-15.897z" fill="#fee0ca"/><path d="m58.2543 45.4035-13.1415 13.2479 2.6279-6.5566 15.7681-15.897z" fill="#1f2333"/><path d="m.436768 36.1965 31.536132-31.79416 31.5361 31.79416-15.7682 15.8973-15.7681-15.8971-15.7679 15.8969z" fill="url(#c)"/></g></svg>