<svg height="469" width="469" xmlns="http://www.w3.org/2000/svg" xmlns:xlink="http://www.w3.org/1999/xlink"><linearGradient id="a" x1=".00001" x2="1" y1=".49999" y2=".49999"><stop offset=".099" stop-color="#27363b"/><stop offset=".3091" stop-color="#eb4960"/><stop offset=".5063" stop-color="#f4837d"/><stop offset=".6881" stop-color="#fcd5b4"/><stop offset=".9603" stop-color="#99b998"/></linearGradient><path d="m1.2457715 264.4668355 21.84001159 50.16003418 105.22997666 102.31002807-13.49999237-44.14001464z" fill="#fff"/><path d="m233.7957651 259.65682268 3.17999268 52.51005554 109.74002075 102.20001221 7.09002686-44.36001587z" fill="#fff"/><path d="m1.03500366 261.53169107 232.56999207-211.77001571 234.36003113 206.46001816-113.32000733 113.25003051-120.01002502-110.35006714-118.98001099 113.14007569z" fill="url(#a)"/><g fill="#27363b" stroke="#27363b"><path d="m233.605 51.17999-232.57 211.77" stroke-linecap="round" stroke-linejoin="round" stroke-width="3"/><path d="m467.965 257.63999-234.36-206.46" stroke-linecap="round" stroke-linejoin="round" stroke-width="3"/><path d="m115.655 373.67999 118.98-113.39" stroke-linecap="round" stroke-linejoin="round" stroke-width="3"/><path d="m234.635 260.28999 120.01 110.6" stroke-linecap="round" stroke-linejoin="round" stroke-width="3"/><path d="m354.645 370.88999 113.32-113.25" stroke-linecap="round" stroke-linejoin="round" stroke-width="3"/><path d="m1.035 262.94999 114.62 110.73" stroke-linecap="round" stroke-linejoin="round" stroke-width="3"/><path d="m237.815 313.04999-108.66 104.77" stroke-linecap="round" stroke-linejoin="round" stroke-width="3"/><path d="m347.555 415.24999-109.74-102.2" stroke-linecap="round" stroke-linejoin="round" stroke-width="3"/><path d="m451.485 310.58999-103.93 104.66" stroke-linecap="round" stroke-linejoin="round" stroke-width="3"/><path d="m129.155 417.81999-105.23-102.31" stroke-linecap="round" stroke-linejoin="round" stroke-width="3"/><path d="m1.035 262.94999 22.89 52.56" stroke-linecap="round" stroke-linejoin="round" stroke-width="3"/><path d="m451.485 310.58999 16.48-52.95" stroke-linecap="round" stroke-linejoin="round" stroke-width="3"/><path d="m234.635 260.28999 3.18 52.76" stroke-linecap="round" stroke-linejoin="round" stroke-width="3"/><path d="m115.655 373.67999 13.5 44.14" stroke-linecap="round" stroke-linejoin="round" stroke-width="3"/><path d="m354.645 370.88999-7.09 44.36" stroke-linecap="round" stroke-linejoin="round" stroke-width="3"/><path d="m115.22393036 374.02137232 13.49999237 44.14001465 108.66000366-104.77001953-3.17999267-52.76004029z" stroke-miterlimit="10"/><path d="m355.0302847 370.45381403-7.09002685 44.36001587 103.92996216-104.66003418 13.82003784-50.30001831z" stroke-miterlimit="10"/></g></svg>