<svg fill="none" height="105" width="105" xmlns="http://www.w3.org/2000/svg"><linearGradient id="a" gradientUnits="userSpaceOnUse" x1="89.866" x2="15.671" y1="44.841" y2="44.841"><stop offset="0" stop-color="#faf1e7"/><stop offset=".26" stop-color="#fdceaa"/><stop offset=".612" stop-color="#f4837d"/><stop offset="1" stop-color="#b9aafd"/></linearGradient><clipPath id="b"><path d="M0 0h38.719v38.719H0z" transform="translate(33.377 5.423)"/></clipPath><circle cx="52.737" cy="52.746" fill="#faf1e7" r="52.163"/><path d="M83.684 64.743L52.769 34.012 21.854 64.743l15.458 15.366 15.457-15.366L68.226 80.11l15.458-15.366z" fill="#fff"/><g stroke="#1f2333" stroke-linejoin="round" stroke-width=".921"><path d="M52.769 64.743L68.226 80.11l3.092-7.61-18.55-18.438v10.68z" fill="#faf1e7"/><path d="M83.686 64.74l-15.46 15.366 3.092-7.605 18.549-18.44zm-30.917.003L37.312 80.11 34.22 72.5l18.55-18.438v10.68z" fill="#1f2333"/><path d="M21.852 64.74l15.46 15.366L34.22 72.5 15.671 54.06l6.181 10.679z" fill="#faf1e7"/><path d="M89.867 54.06L52.769 17.183 15.67 54.06 34.22 72.5l18.548-18.44 18.55 18.44z" fill="url(#a)"/></g><g clip-path="url(#b)"><path d="M52.737 44.142c10.692 0 19.36-8.668 19.36-19.36 0-10.691-8.668-19.359-19.36-19.359s-19.36 8.668-19.36 19.36c0 10.691 8.668 19.359 19.36 19.359z" fill="#ff0420"/><path d="M47.094 29.928c-1.153 0-2.097-.271-2.833-.814-.727-.552-1.09-1.337-1.09-2.354 0-.213.024-.474.073-.784.126-.698.305-1.536.537-2.514.66-2.664 2.36-3.996 5.1-3.996.746 0 1.415.126 2.006.378a3.05 3.05 0 0 1 1.395 1.104c.339.485.508 1.066.508 1.744 0 .203-.024.46-.072.77-.146.862-.32 1.7-.524 2.514-.339 1.327-.925 2.32-1.758 2.978-.833.65-1.947.974-3.342.974zm.204-2.093c.542 0 1.002-.16 1.38-.479.388-.32.664-.809.828-1.468.223-.91.393-1.705.509-2.383a3.3 3.3 0 0 0 .058-.624c0-.882-.46-1.323-1.38-1.323-.543 0-1.008.16-1.395.48-.378.32-.65.809-.814 1.468a31.602 31.602 0 0 0-.523 2.383 3.1 3.1 0 0 0-.058.61c0 .89.465 1.337 1.395 1.337zm6.16 1.948a.307.307 0 0 1-.248-.102.347.347 0 0 1-.043-.262l2.005-9.444a.416.416 0 0 1 .16-.262.443.443 0 0 1 .276-.102h3.865c1.075 0 1.937.223 2.586.669.659.445.988 1.09.988 1.932 0 .242-.029.494-.087.756-.242 1.114-.731 1.937-1.467 2.47-.727.533-1.725.8-2.994.8h-1.961l-.669 3.181a.416.416 0 0 1-.16.262.443.443 0 0 1-.276.102h-1.976zm5.143-5.551c.407 0 .76-.111 1.06-.334.31-.223.514-.543.611-.96.03-.164.044-.31.044-.435 0-.281-.083-.494-.247-.64-.165-.154-.446-.232-.843-.232h-1.744l-.552 2.601z" fill="#fff"/></g></svg>