<svg fill="none" height="194" width="194" xmlns="http://www.w3.org/2000/svg"><linearGradient id="a" gradientUnits="userSpaceOnUse" x1="166.044" x2="28.074" y1="82.299" y2="82.299"><stop offset="0" stop-color="#faf1e7"/><stop offset=".26" stop-color="#fdceaa"/><stop offset=".612" stop-color="#f4837d"/><stop offset="1" stop-color="#b9aafd"/></linearGradient><circle cx="97" cy="97" fill="#faf1e7" r="97"/><path d="M154.547 119.309L97.06 62.162l-57.488 57.147 28.744 28.573 28.744-28.573 28.743 28.573z" fill="#fff"/><g stroke="#1f2333" stroke-linejoin="round" stroke-width="1.713"><path d="M97.06 119.308l28.743 28.577 5.749-14.151-34.493-34.288z" fill="#faf1e7"/><path d="M154.551 119.302l-28.747 28.574 5.749-14.142 34.492-34.288zm-57.49.006l-28.745 28.577-5.749-14.151L97.06 99.446z" fill="#1f2333"/><path d="M39.568 119.302l28.748 28.574-5.75-14.142-34.492-34.288z" fill="#faf1e7"/><path d="M166.045 99.444L97.059 30.868 28.074 99.444l34.493 34.288L97.06 99.444l34.492 34.288z" fill="url(#a)"/></g><circle cx="97.029" cy="45.029" fill="#fff" r="36.029"/><path d="M106.254 39.882c-.667-.391-1.537-.391-2.277 0l-5.222 3.025-3.546 1.972-5.222 3.025c-.667.391-1.538.391-2.277 0l-4.149-2.365c-.667-.391-1.138-1.116-1.138-1.907v-4.663c0-.79.399-1.509 1.138-1.908l4.083-2.299c.668-.391 1.538-.391 2.278 0l4.083 2.3c.667.39 1.138 1.116 1.138 1.907v3.024l3.547-2.038V36.93c0-.79-.4-1.509-1.139-1.908l-7.557-4.337c-.667-.391-1.537-.391-2.277 0l-7.688 4.337a2.116 2.116 0 0 0-1.138 1.908v8.739c0 .79.399 1.508 1.138 1.907l7.695 4.337c.667.392 1.538.392 2.277 0l5.222-2.959 3.547-2.038 5.221-2.959c.668-.391 1.538-.391 2.278 0l4.083 2.3c.667.391 1.138 1.116 1.138 1.907v4.663c0 .79-.398 1.509-1.138 1.907l-4.083 2.365c-.668.391-1.538.391-2.278 0l-4.083-2.3c-.667-.39-1.138-1.116-1.138-1.907V49.87l-3.547 2.038v3.024c0 .79.399 1.509 1.139 1.908l7.695 4.337c.667.391 1.537.391 2.277 0l7.695-4.337c.667-.392 1.138-1.117 1.138-1.908v-8.739c0-.79-.398-1.508-1.138-1.907z" fill="#8247e5"/></svg>