<svg fill="none" height="194" width="194" xmlns="http://www.w3.org/2000/svg"><linearGradient id="a" gradientUnits="userSpaceOnUse" x1="166.044" x2="28.074" y1="82.299" y2="82.299"><stop offset="0" stop-color="#faf1e7"/><stop offset=".26" stop-color="#fdceaa"/><stop offset=".612" stop-color="#f4837d"/><stop offset="1" stop-color="#b9aafd"/></linearGradient><circle cx="97" cy="97" fill="#faf1e7" r="97"/><path d="M154.547 119.309L97.06 62.162l-57.488 57.147 28.744 28.573 28.744-28.573 28.743 28.573z" fill="#fff"/><g stroke="#1f2333" stroke-linejoin="round" stroke-width="1.713"><path d="M97.06 119.308l28.743 28.577 5.749-14.151-34.493-34.288z" fill="#faf1e7"/><path d="M154.551 119.302l-28.747 28.574 5.749-14.142 34.492-34.288zm-57.49.006l-28.745 28.577-5.749-14.151L97.06 99.446z" fill="#1f2333"/><path d="M39.568 119.302l28.748 28.574-5.75-14.142-34.492-34.288z" fill="#faf1e7"/><path d="M166.045 99.444L97.059 30.868 28.074 99.444l34.493 34.288L97.06 99.444l34.492 34.288z" fill="url(#a)"/></g><circle cx="97.029" cy="47.029" fill="#fff" opacity=".9" r="36.029"/><path d="M107.513 46.1c.958-1.522 2.488-1.522 3.446 0l5.934 9.606c.958 1.522.176 2.76-1.728 2.76h-11.968c-1.882 0-2.664-1.238-1.728-2.76zM96.03 27.607c.958-1.522 2.466-1.522 3.424 0l1.321 2.2 3.116 5.053a4.88 4.88 0 0 1 0 4.575l-10.47 16.718c-.958 1.359-2.532 2.221-4.294 2.312h-8.686c-1.905 0-2.687-1.217-1.729-2.759z" fill="#e84142"/></svg>