<svg fill="none" height="174" width="174" xmlns="http://www.w3.org/2000/svg"><path d="M87 174c48.049 0 87-38.951 87-87S135.049 0 87 0 0 38.951 0 87s38.951 87 87 87z" fill="#00f99b"/><g fill="#0c0c15"><path d="M112.854 53.54h-22.53c-17.981 0-32.558 14.576-32.558 32.557v8.544c0 .22.178.397.397.397h4.543c.22 0 .397-.178.397-.397v-8.544c0-15.033 12.188-27.22 27.221-27.22h30.407a.383.383 0 0 0 .332-.585c-1.73-2.754-4.321-4.75-8.202-4.753h-.007z"/><path d="M123.957 66.677a.394.394 0 0 0-.389-.328H90.325c-11.201 0-20.282 9.081-20.282 20.283v8.01c0 .219.178.396.397.396h3.352c.877 0 1.588-.711 1.588-1.589v-6.817c0-8.254 6.692-14.945 14.945-14.945h33.745c.227 0 .408-.19.395-.416a42.229 42.229 0 0 0-.508-4.594zm-61.73 53.785h22.53c17.981 0 32.558-14.577 32.558-32.558l.001-8.543a.397.397 0 0 0-.398-.398h-4.543a.397.397 0 0 0-.397.398v8.543c0 15.034-12.188 27.221-27.221 27.221H54.35a.383.383 0 0 0-.332.585c1.73 2.753 4.322 4.75 8.202 4.752z"/><path d="M51.124 107.324c.032.19.197.328.39.328h33.242c11.201 0 20.282-9.08 20.282-20.282v-8.01a.397.397 0 0 0-.397-.397h-3.351a1.59 1.59 0 0 0-1.59 1.589v6.817c0 8.254-6.69 14.945-14.944 14.945H51.01a.395.395 0 0 0-.395.417 42.5 42.5 0 0 0 .508 4.593z"/></g></svg>