<?xml version="1.0" encoding="UTF-8"?>
<svg id="Layer_1" xmlns="http://www.w3.org/2000/svg" version="1.1" xmlns:xlink="http://www.w3.org/1999/xlink" viewBox="0 0 512 512">
  <!-- Generator: Adobe Illustrator 29.5.1, SVG Export Plug-In . SVG Version: 2.1.0 Build 141)  -->
  <defs>
    <style>
      .st0 {
        fill: url(#radial-gradient1);
      }

      .st0, .st1, .st2, .st3, .st4 {
        fill-rule: evenodd;
      }

      .st1 {
        fill: url(#linear-gradient1);
      }

      .st2 {
        fill: #4a28d3;
      }

      .st3 {
        fill: url(#radial-gradient);
      }

      .st4 {
        fill: url(#linear-gradient);
      }
    </style>
    <linearGradient id="linear-gradient" x1="309.23" y1="256.5" x2="500.08" y2="256.5" gradientUnits="userSpaceOnUse">
      <stop offset="0" stop-color="#4a28ff"/>
      <stop offset="1" stop-color="#9ed6ff"/>
    </linearGradient>
    <radialGradient id="radial-gradient" cx="476.05" cy="255.68" fx="476.05" fy="255.68" r="168.32" gradientUnits="userSpaceOnUse">
      <stop offset=".1" stop-color="#9ed6ff"/>
      <stop offset=".9" stop-color="#9ed6ff" stop-opacity="0"/>
    </radialGradient>
    <linearGradient id="linear-gradient1" x1="12.92" y1="256.5" x2="477.46" y2="256.5" gradientUnits="userSpaceOnUse">
      <stop offset="0" stop-color="#4a28ff"/>
      <stop offset=".9" stop-color="#9ed6ff"/>
    </linearGradient>
    <radialGradient id="radial-gradient1" cx="111.98" cy="255.49" fx="150.98" fy="255.49" r="90.08" gradientUnits="userSpaceOnUse">
      <stop offset="0" stop-color="#9ed6ff"/>
      <stop offset="1" stop-color="#9ed6ff" stop-opacity="0"/>
    </radialGradient>
  </defs>
  <g>
    <path class="st4" d="M403.8,139.93c-47.01,0-86.14,40.81-94.58,94.75h45.98c6.6-28.72,25.86-49.51,48.6-49.51,28.19,0,51.03,31.94,51.03,71.34s-22.85,71.33-51.03,71.33c-22.74,0-42-20.79-48.6-49.51h-45.98c8.44,53.95,47.57,94.75,94.58,94.75,53.17,0,96.27-52.19,96.27-116.57s-43.1-116.57-96.27-116.57Z"/>
    <path class="st3" d="M403.8,139.93c-47.01,0-86.14,40.81-94.58,94.75h45.98c6.6-28.72,25.86-49.51,48.6-49.51,28.19,0,51.03,31.94,51.03,71.34s-22.85,71.33-51.03,71.33c-22.74,0-42-20.79-48.6-49.51h-45.98c8.44,53.95,47.57,94.75,94.58,94.75,53.17,0,96.27-52.19,96.27-116.57s-43.1-116.57-96.27-116.57Z"/>
    <path class="st1" d="M452.21,233.88h-248.56c-8.7-53.55-47.68-93.95-94.45-93.95-53.17,0-96.27,52.19-96.27,116.57s43.1,116.57,96.27,116.57c46.78,0,85.76-40.4,94.45-93.95h248.56l25.24-22.62-25.24-22.62ZM109.2,327.83c-28.19,0-51.03-31.94-51.03-71.33s22.85-71.34,51.03-71.34,51.03,31.94,51.03,71.34-22.85,71.33-51.03,71.33Z"/>
    <path class="st0" d="M109.2,139.93c-53.17,0-96.27,52.19-96.27,116.57s43.1,116.57,96.27,116.57,96.27-52.19,96.27-116.57-43.1-116.57-96.27-116.57ZM109.2,327.84h0c-28.19,0-51.03-31.94-51.03-71.33s22.85-71.33,51.03-71.33h0c28.19,0,51.03,31.94,51.03,71.33s-22.85,71.33-51.03,71.33Z"/>
  </g>
  <path class="st2" d="M321.41,196.2c-5.71,11.42-9.86,24.13-12.06,37.68h46.05c1.48-6.21,3.56-12.03,6.14-17.34-4.04,6.19-11.02,10.28-18.96,10.28-12.49,0-22.62-10.13-22.62-22.62,0-2.82.52-5.5,1.46-7.99h0ZM321.41,316.8c-5.71-11.42-9.86-24.13-12.06-37.68h46.05c1.48,6.21,3.56,12.03,6.14,17.34-4.04-6.19-11.02-10.27-18.96-10.27-12.49,0-22.62,10.12-22.62,22.62,0,2.82.52,5.5,1.46,7.99Z"/>
</svg>