<svg height="1080" width="1080" xmlns="http://www.w3.org/2000/svg"><g fill-rule="evenodd"><path d="M539 255.718c-50.993 2.472-104.824 18.936-151.628 46.375-10.871 6.373-31.737 20.466-39.945 26.979l-6.073 4.818 3.795 17.305c2.087 9.518 5.2 23.83 6.917 31.805s3.334 15.288 3.595 16.25c.333 1.229 1.482 1.75 3.858 1.75 2.866 0 3.841-.663 6.361-4.326 7.593-11.036 27.033-25.088 51.567-37.276 15.758-7.828 30.147-12.972 47.543-16.997 13.019-3.012 36.747-4.19 51.557-2.56 45.58 5.018 79.498 35.138 88.577 78.659 1.664 7.976 1.632 28.592-.055 35.5-5.585 22.871-23.44 33.636-82.687 49.849-12.035 3.294-29.532 7.83-38.882 10.08-35.907 8.64-53.198 13.784-74.827 22.261-57.109 22.385-90.3 56.582-101.226 104.294-2.318 10.123-4.447 28.602-4.447 38.6v8.66l13.75.529c14.424.555 21.262 2.035 32.425 7.018 19.064 8.509 36.529 27.306 43.594 46.922 4.324 12.004 5.582 20.583 4.969 33.879-.579 12.54-2.308 20.17-6.721 29.652-3.36 7.219-3.679 6.76 6.983 10.036 17.684 5.433 39.58 8.323 63.396 8.367 31.781.058 55.172-4.561 76.69-15.145 20.845-10.252 43.544-28.826 59.914-49.025a2704.71 2704.71 0 0 1 9.526-11.706l2.027-2.452 4.738 10.906c20.06 46.172 51.774 67.183 101.747 67.41 29.445.134 49.702-4.999 101.212-25.647 1.545-.62 1.75-2.274 1.75-14.095V771h-7.776c-10.81 0-23.389-1.716-29.591-4.036-13.988-5.234-21.918-16.758-26.425-38.404-1.443-6.927-1.681-15.226-1.693-59.06-.008-28.05.435-70.575.985-94.5s1-70.5 1-103.5c0-65.162-.234-68.718-6.06-92-16.642-66.5-66.544-107.774-144.94-119.877-20.144-3.11-47.837-4.761-65.5-3.905m61.5 269.376c-9.526 5.236-27.423 12.765-42.5 17.878-32.429 10.997-53.454 22.493-68.59 37.505-21.538 21.361-29.49 43.835-29.552 83.523-.053 33.864 6.396 54.3 22.113 70.068C493.975 746.111 506.183 751 524.252 751c24.848 0 45.545-9.841 60.708-28.866 14.924-18.726 21.647-42.603 22.552-80.103.957-39.613 1.448-121.027.729-120.908-.407.068-3.891 1.854-7.741 3.971M305 719.67c-14.924 2.373-30.908 14.28-37.984 28.297-16.911 33.501 6.29 73.469 43.984 75.77 29.695 1.812 55-22.221 55-52.237 0-32.127-29.148-56.894-61-51.83" fill="#fbfbfb"/><path d="M499 1.107C423.094 7.101 346.359 30.22 280.605 66.908 166.596 130.519 80.629 231.097 35.219 354 18.866 398.262 7.981 448.98 4.014 499.395c-1.307 16.622-1.307 64.588 0 81.21C14.169 709.683 67.61 827.84 156.806 918.423c62.036 63 132.042 106.928 213.694 134.088 40.253 13.389 76.307 21.136 119.5 25.675 16.822 1.768 86.012 1.78 103 .017 120.795-12.533 230.881-62.388 316.557-143.363 48.93-46.244 84.727-94.415 114.323-153.84 31.307-62.861 49.466-128.804 55.062-199.95 1.363-17.326 1.363-64.774 0-82.1-8.151-103.633-44.968-201.823-106.283-283.45C878.763 90.498 737.582 12.982 582.05 1.033 566.529-.159 514.451-.113 499 1.107m40 254.611c-50.993 2.472-104.824 18.936-151.628 46.375-10.871 6.373-31.737 20.466-39.945 26.979l-6.073 4.818 3.795 17.305c2.087 9.518 5.2 23.83 6.917 31.805s3.334 15.288 3.595 16.25c.333 1.229 1.482 1.75 3.858 1.75 2.866 0 3.841-.663 6.361-4.326 7.593-11.036 27.033-25.088 51.567-37.276 15.758-7.828 30.147-12.972 47.543-16.997 13.019-3.012 36.747-4.19 51.557-2.56 45.58 5.018 79.498 35.138 88.577 78.659 1.664 7.976 1.632 28.592-.055 35.5-5.585 22.871-23.44 33.636-82.687 49.849-12.035 3.294-29.532 7.83-38.882 10.08-35.907 8.64-53.198 13.784-74.827 22.261-57.109 22.385-90.3 56.582-101.226 104.294-2.318 10.123-4.447 28.602-4.447 38.6v8.66l13.75.529c14.424.555 21.262 2.035 32.425 7.018 19.064 8.509 36.529 27.306 43.594 46.922 4.324 12.004 5.582 20.583 4.969 33.879-.579 12.54-2.308 20.17-6.721 29.652-3.36 7.219-3.679 6.76 6.983 10.036 17.684 5.433 39.58 8.323 63.396 8.367 31.781.058 55.172-4.561 76.69-15.145 20.845-10.252 43.544-28.826 59.914-49.025a2704.71 2704.71 0 0 1 9.526-11.706l2.027-2.452 4.738 10.906c20.06 46.172 51.774 67.183 101.747 67.41 29.445.134 49.702-4.999 101.212-25.647 1.545-.62 1.75-2.274 1.75-14.095V771h-7.776c-10.81 0-23.389-1.716-29.591-4.036-13.988-5.234-21.918-16.758-26.425-38.404-1.443-6.927-1.681-15.226-1.693-59.06-.008-28.05.435-70.575.985-94.5s1-70.5 1-103.5c0-65.162-.234-68.718-6.06-92-16.642-66.5-66.544-107.774-144.94-119.877-20.144-3.11-47.837-4.761-65.5-3.905m61.5 269.376c-9.526 5.236-27.423 12.765-42.5 17.878-32.429 10.997-53.454 22.493-68.59 37.505-21.538 21.361-29.49 43.835-29.552 83.523-.053 33.864 6.396 54.3 22.113 70.068C493.975 746.111 506.183 751 524.252 751c24.848 0 45.545-9.841 60.708-28.866 14.924-18.726 21.647-42.603 22.552-80.103.957-39.613 1.448-121.027.729-120.908-.407.068-3.891 1.854-7.741 3.971M305 719.67c-14.924 2.373-30.908 14.28-37.984 28.297-16.911 33.501 6.29 73.469 43.984 75.77 29.695 1.812 55-22.221 55-52.237 0-32.127-29.148-56.894-61-51.83" fill="#bc943c"/></g></svg>