<svg xmlns="http://www.w3.org/2000/svg" width="1080" height="1080" viewBox="0 0 1080 1080" version="1.1"><path d="M 539 255.718 C 488.007 258.190, 434.176 274.654, 387.372 302.093 C 376.501 308.466, 355.635 322.559, 347.427 329.072 L 341.354 333.890 345.149 351.195 C 347.236 360.713, 350.349 375.025, 352.066 383 C 353.783 390.975, 355.400 398.288, 355.661 399.250 C 355.994 400.479, 357.143 401, 359.519 401 C 362.385 401, 363.360 400.337, 365.880 396.674 C 373.473 385.638, 392.913 371.586, 417.447 359.398 C 433.205 351.570, 447.594 346.426, 464.990 342.401 C 478.009 339.389, 501.737 338.211, 516.547 339.841 C 562.127 344.859, 596.045 374.979, 605.124 418.500 C 606.788 426.476, 606.756 447.092, 605.069 454 C 599.484 476.871, 581.629 487.636, 522.382 503.849 C 510.347 507.143, 492.850 511.679, 483.500 513.929 C 447.593 522.569, 430.302 527.713, 408.673 536.190 C 351.564 558.575, 318.373 592.772, 307.447 640.484 C 305.129 650.607, 303 669.086, 303 679.084 L 303 687.744 316.750 688.273 C 331.174 688.828, 338.012 690.308, 349.175 695.291 C 368.239 703.800, 385.704 722.597, 392.769 742.213 C 397.093 754.217, 398.351 762.796, 397.738 776.092 C 397.159 788.632, 395.430 796.262, 391.017 805.744 C 387.657 812.963, 387.338 812.504, 398 815.780 C 415.684 821.213, 437.580 824.103, 461.396 824.147 C 493.177 824.205, 516.568 819.586, 538.086 809.002 C 558.931 798.750, 581.630 780.176, 598 759.977 C 602.125 754.887, 606.412 749.619, 607.526 748.271 L 609.553 745.819 614.291 756.725 C 634.351 802.897, 666.065 823.908, 716.038 824.135 C 745.483 824.269, 765.740 819.136, 817.250 798.488 C 818.795 797.868, 819 796.214, 819 784.393 L 819 771 811.224 771 C 800.414 771, 787.835 769.284, 781.633 766.964 C 767.645 761.730, 759.715 750.206, 755.208 728.560 C 753.765 721.633, 753.527 713.334, 753.515 669.500 C 753.507 641.450, 753.950 598.925, 754.500 575 C 755.050 551.075, 755.500 504.500, 755.500 471.500 C 755.500 406.338, 755.266 402.782, 749.440 379.500 C 732.798 313, 682.896 271.726, 604.500 259.623 C 584.356 256.513, 556.663 254.862, 539 255.718 M 600.500 525.094 C 590.974 530.330, 573.077 537.859, 558 542.972 C 525.571 553.969, 504.546 565.465, 489.410 580.477 C 467.872 601.838, 459.920 624.312, 459.858 664 C 459.805 697.864, 466.254 718.300, 481.971 734.068 C 493.975 746.111, 506.183 751, 524.252 751 C 549.100 751, 569.797 741.159, 584.960 722.134 C 599.884 703.408, 606.607 679.531, 607.512 642.031 C 608.469 602.418, 608.960 521.004, 608.241 521.123 C 607.834 521.191, 604.350 522.977, 600.500 525.094 M 305 719.670 C 290.076 722.043, 274.092 733.950, 267.016 747.967 C 250.105 781.468, 273.306 821.436, 311 823.737 C 340.695 825.549, 366 801.516, 366 771.500 C 366 739.373, 336.852 714.606, 305 719.670" stroke="none" fill="#fbfbfb" fill-rule="evenodd"/><path d="M 499 1.107 C 423.094 7.101, 346.359 30.220, 280.605 66.908 C 166.596 130.519, 80.629 231.097, 35.219 354 C 18.866 398.262, 7.981 448.980, 4.014 499.395 C 2.707 516.017, 2.707 563.983, 4.014 580.605 C 14.169 709.683, 67.610 827.840, 156.806 918.423 C 218.842 981.423, 288.848 1025.351, 370.500 1052.511 C 410.753 1065.900, 446.807 1073.647, 490 1078.186 C 506.822 1079.954, 576.012 1079.966, 593 1078.203 C 713.795 1065.670, 823.881 1015.815, 909.557 934.840 C 958.487 888.596, 994.284 840.425, 1023.880 781 C 1055.187 718.139, 1073.346 652.196, 1078.942 581.050 C 1080.305 563.724, 1080.305 516.276, 1078.942 498.950 C 1070.791 395.317, 1033.974 297.127, 972.659 215.500 C 878.763 90.498, 737.582 12.982, 582.050 1.033 C 566.529 -0.159, 514.451 -0.113, 499 1.107 M 539 255.718 C 488.007 258.190, 434.176 274.654, 387.372 302.093 C 376.501 308.466, 355.635 322.559, 347.427 329.072 L 341.354 333.890 345.149 351.195 C 347.236 360.713, 350.349 375.025, 352.066 383 C 353.783 390.975, 355.400 398.288, 355.661 399.250 C 355.994 400.479, 357.143 401, 359.519 401 C 362.385 401, 363.360 400.337, 365.880 396.674 C 373.473 385.638, 392.913 371.586, 417.447 359.398 C 433.205 351.570, 447.594 346.426, 464.990 342.401 C 478.009 339.389, 501.737 338.211, 516.547 339.841 C 562.127 344.859, 596.045 374.979, 605.124 418.500 C 606.788 426.476, 606.756 447.092, 605.069 454 C 599.484 476.871, 581.629 487.636, 522.382 503.849 C 510.347 507.143, 492.850 511.679, 483.500 513.929 C 447.593 522.569, 430.302 527.713, 408.673 536.190 C 351.564 558.575, 318.373 592.772, 307.447 640.484 C 305.129 650.607, 303 669.086, 303 679.084 L 303 687.744 316.750 688.273 C 331.174 688.828, 338.012 690.308, 349.175 695.291 C 368.239 703.800, 385.704 722.597, 392.769 742.213 C 397.093 754.217, 398.351 762.796, 397.738 776.092 C 397.159 788.632, 395.430 796.262, 391.017 805.744 C 387.657 812.963, 387.338 812.504, 398 815.780 C 415.684 821.213, 437.580 824.103, 461.396 824.147 C 493.177 824.205, 516.568 819.586, 538.086 809.002 C 558.931 798.750, 581.630 780.176, 598 759.977 C 602.125 754.887, 606.412 749.619, 607.526 748.271 L 609.553 745.819 614.291 756.725 C 634.351 802.897, 666.065 823.908, 716.038 824.135 C 745.483 824.269, 765.740 819.136, 817.250 798.488 C 818.795 797.868, 819 796.214, 819 784.393 L 819 771 811.224 771 C 800.414 771, 787.835 769.284, 781.633 766.964 C 767.645 761.730, 759.715 750.206, 755.208 728.560 C 753.765 721.633, 753.527 713.334, 753.515 669.500 C 753.507 641.450, 753.950 598.925, 754.500 575 C 755.050 551.075, 755.500 504.500, 755.500 471.500 C 755.500 406.338, 755.266 402.782, 749.440 379.500 C 732.798 313, 682.896 271.726, 604.500 259.623 C 584.356 256.513, 556.663 254.862, 539 255.718 M 600.500 525.094 C 590.974 530.330, 573.077 537.859, 558 542.972 C 525.571 553.969, 504.546 565.465, 489.410 580.477 C 467.872 601.838, 459.920 624.312, 459.858 664 C 459.805 697.864, 466.254 718.300, 481.971 734.068 C 493.975 746.111, 506.183 751, 524.252 751 C 549.100 751, 569.797 741.159, 584.960 722.134 C 599.884 703.408, 606.607 679.531, 607.512 642.031 C 608.469 602.418, 608.960 521.004, 608.241 521.123 C 607.834 521.191, 604.350 522.977, 600.500 525.094 M 305 719.670 C 290.076 722.043, 274.092 733.950, 267.016 747.967 C 250.105 781.468, 273.306 821.436, 311 823.737 C 340.695 825.549, 366 801.516, 366 771.500 C 366 739.373, 336.852 714.606, 305 719.670" stroke="none" fill="#bc943c" fill-rule="evenodd"/></svg>