<svg height="512" width="512" xmlns="http://www.w3.org/2000/svg"><path d="M0 0h512v512H0z" fill="none"/><path d="M441.623 106.551L257.589 212.827 73.562 106.551V319.04l111.414 64.34h-.051v128.619h.051l72.619-41.936 72.617 41.936h.025V383.38h-.025l111.411-64.34z" fill="#2fd3c7"/><path d="M257.589 212.83L73.562 106.552 257.589.276l184.029 106.276z" fill="#42e8e0"/><path d="M257.589 212.827L73.562 106.551V319.04l111.414 64.34h-.051v128.619h.051l72.619-41.936V212.824z" fill="#41cbc1"/><path d="M257.588 212.809l-111.364-64.294v128.588l111.364 64.293 111.364-64.294V148.515z" fill="#efeff0"/><path d="M368.946 277.134l-111.364 64.294V212.809l111.364-64.294z" fill="#fdfdfe"/><path d="M257.588 212.816l-111.364-64.294 111.364-64.29 111.364 64.29z" fill="#fff"/></svg>