<?xml version="1.0" encoding="UTF-8"?>
<svg id="Layer_2" data-name="Layer 2" xmlns="http://www.w3.org/2000/svg" viewBox="0 0 400 400">
  <defs>
    <style>
      .cls-1 {
        fill: #fff;
      }

      .cls-2 {
        fill: #333;
      }

      .cls-3 {
        fill: #1a1a1a;
      }
    </style>
  </defs>
  <g id="Layer_3" data-name="Layer 3">
    <g>
      <circle class="cls-3" cx="200" cy="200" r="200"/>
      <path class="cls-1" d="M39.81,259.39L6.08,200.95l19.17-33.19,14.56,54.4v37.22ZM14.88,200.95l17.31,29.99v-7.77l-9.55-35.66-7.76,13.44Z"/>
      <path class="cls-1" d="M170.96,369.71h-67.45l-19.15-33.17,54.38,14.57,32.22,18.6ZM107.91,362.09h34.61l-6.72-3.88-35.64-9.55,7.75,13.42Z"/>
      <path class="cls-1" d="M69.78,90.59l33.74-58.4h38.31l-39.81,39.81-32.24,18.59ZM107.91,39.81l-17.31,29.98,6.74-3.88,26.09-26.09h-15.52Z"/>
      <path class="cls-1" d="M298.39,369.71h-38.31l39.81-39.81,32.24-18.59-33.74,58.4ZM278.47,362.09h15.52l17.31-29.98-6.74,3.88-26.09,26.09Z"/>
      <path class="cls-1" d="M317.54,65.35l-54.38-14.57-32.21-18.6h67.45l19.15,33.16ZM266.1,43.69l35.64,9.55-7.75-13.43h-34.61l6.72,3.88Z"/>
      <path class="cls-1" d="M376.66,234.14l-14.56-54.4v-37.22l33.73,58.43-19.17,33.19ZM369.71,178.74l9.55,35.66,7.76-13.44-17.31-29.99v7.77Z"/>
      <path class="cls-1" d="M39.81,259.39l-19.95-34.58,10.31-38.58,9.65,35.94v37.22ZM28.03,223.73l4.16,7.21v-7.77l-2.01-7.49-2.15,8.05Z"/>
      <path class="cls-1" d="M69.78,90.59l19.98-34.57,38.57-10.33-26.31,26.31-32.24,18.59ZM94.78,62.57l-4.17,7.22,6.74-3.88,5.5-5.5-8.06,2.16Z"/>
      <path class="cls-1" d="M170.96,369.71h-39.91l-28.21-28.21,35.91,9.62,32.22,18.6ZM134.21,362.09h8.32l-6.72-3.88-7.48-2,5.88,5.88Z"/>
      <path class="cls-1" d="M299.07,60.4l-35.91-9.62-32.21-18.6h39.91l28.21,28.21ZM266.1,43.69l7.48,2-5.88-5.88h-8.32l6.72,3.88Z"/>
      <path class="cls-1" d="M273.58,356.22l26.31-26.31,32.24-18.59-19.98,34.57-38.57,10.34ZM304.57,336l-5.5,5.5,8.06-2.16,4.17-7.22-6.74,3.88Z"/>
      <path class="cls-1" d="M371.74,215.68l-9.65-35.94v-37.22l19.95,34.58-10.31,38.58ZM369.71,178.74l2.01,7.49,2.15-8.05-4.16-7.21v7.77Z"/>
      <path class="cls-1" d="M90.59,332.13l-58.4-33.74v-38.31l39.81,39.81,18.59,32.24ZM39.81,293.99l29.98,17.31-3.88-6.73-26.09-26.09v15.52Z"/>
      <path class="cls-1" d="M32.19,170.96v-67.45l33.17-19.14-14.57,54.38-18.6,32.22ZM39.81,107.91v34.61l3.88-6.72,9.55-35.64-13.43,7.75Z"/>
      <path class="cls-1" d="M200.95,395.83l-33.19-19.17,54.4-14.56h37.22l-58.43,33.73ZM187.51,379.27l13.44,7.76,29.99-17.32h-7.77l-35.66,9.55Z"/>
      <path class="cls-1" d="M179.74,39.81h-37.22L200.95,6.08l33.19,19.17-54.4,14.56ZM170.97,32.19h7.77l35.65-9.55-13.44-7.76-29.98,17.31Z"/>
      <path class="cls-1" d="M336.55,317.54l14.57-54.38,18.6-32.22v67.45l-33.17,19.15ZM358.22,266.1l-9.55,35.64,13.43-7.75v-34.61l-3.88,6.72Z"/>
      <path class="cls-1" d="M369.71,141.83l-39.81-39.81-18.59-32.24,58.4,33.74v38.31ZM336,97.34l26.09,26.09v-15.52l-29.98-17.31,3.88,6.73Z"/>
      <path class="cls-1" d="M32.19,170.96v-39.91l28.21-28.21-9.61,35.91-18.6,32.22ZM39.81,134.21v8.32l3.88-6.72,2-7.48-5.88,5.88Z"/>
      <path class="cls-1" d="M90.59,332.13l-34.57-19.98-10.34-38.57,26.31,26.31,18.59,32.24ZM62.57,307.13l7.22,4.17-3.88-6.73-5.5-5.5,2.16,8.06Z"/>
      <path class="cls-1" d="M179.74,39.81h-37.22l34.58-19.95,38.58,10.31-35.94,9.65ZM170.97,32.19h7.77l7.49-2.01-8.05-2.15-7.21,4.16Z"/>
      <path class="cls-1" d="M224.81,382.05l-38.58-10.31,35.94-9.65h37.22l-34.58,19.95ZM215.68,371.72l8.05,2.15,7.21-4.16h-7.77l-7.49,2.01Z"/>
      <path class="cls-1" d="M356.22,128.33l-26.31-26.31-18.59-32.24,34.57,19.98,10.34,38.57ZM336,97.34l5.5,5.5-2.16-8.06-7.22-4.17,3.88,6.73Z"/>
      <path class="cls-1" d="M341.5,299.07l9.61-35.91,18.6-32.22v39.91l-28.21,28.21ZM358.22,266.1l-2,7.48,5.88-5.88v-8.32l-3.88,6.72Z"/>
    </g>
    <circle class="cls-2" cx="200" cy="200" r="142.5"/>
  </g>
</svg>