<!--?xml version="1.0" encoding="UTF-8"?--><svg version="1.1" xmlns="http://www.w3.org/2000/svg" width="869" height="868">
<path d="M0 0 C1.23062164 0.00182281 2.46124329 0.00364563 3.72915649 0.00552368 C22.51786452 0.05231142 40.95512048 0.54892194 59.5625 3.3125 C60.76680664 3.48942383 61.97111328 3.66634766 63.21191406 3.84863281 C157.98604634 18.20234 242.87673354 61.9620746 310.71343994 129.28820801 C311.72066232 130.28738861 312.72936031 131.28508441 313.73968506 132.28112793 C319.68061425 138.14695589 325.2408907 144.17135538 330.45385742 150.70751953 C332.45415001 153.17864631 334.52908396 155.54350395 336.6640625 157.8984375 C340.69260471 162.38544814 344.34308795 167.0988684 347.9375 171.9375 C348.58960449 172.812854 349.24170898 173.68820801 349.91357422 174.59008789 C354.91982611 181.35514277 359.74215389 188.20317605 364.27294922 195.29541016 C365.17752791 196.71033427 366.08858152 198.12112987 367.00439453 199.52880859 C386.78148657 229.99246967 402.0291119 262.91958002 413.5625 297.3125 C414.10801514 298.92898438 414.10801514 298.92898438 414.66455078 300.578125 C429.54784941 345.19368009 436.69440023 393.28719057 435.5625 440.3125 C435.54993164 441.09915039 435.53736328 441.88580078 435.52441406 442.69628906 C434.41838603 504.79186278 419.43412842 564.97576007 393.5625 621.3125 C393.13501465 622.24352539 392.7075293 623.17455078 392.26708984 624.13378906 C376.51141632 657.96688907 354.98163201 689.1911125 330.5625 717.3125 C329.92828125 718.04726563 329.2940625 718.78203125 328.640625 719.5390625 C326.95979248 721.47433296 325.2620435 723.39366057 323.5625 725.3125 C322.98242188 725.98539063 322.40234375 726.65828125 321.8046875 727.3515625 C316.44141379 733.47200427 310.74378107 739.23800047 305 745 C304.1965918 745.80800049 303.39318359 746.61600098 302.56542969 747.44848633 C297.72514381 752.27636885 292.75621564 756.86925401 287.5625 761.3125 C286.46767603 762.27351746 285.37387679 763.23570394 284.28125 764.19921875 C275.69869456 771.69738352 266.78986608 778.62799571 257.5625 785.3125 C256.80195312 785.86695801 256.04140625 786.42141602 255.2578125 786.99267578 C242.48448843 796.26642315 229.30149814 804.54892041 215.5625 812.3125 C214.61391113 812.85261719 213.66532227 813.39273438 212.68798828 813.94921875 C160.04807473 843.77112436 99.94895724 862.47456465 39.5625 867.3125 C38.56186523 867.39790039 37.56123047 867.48330078 36.53027344 867.57128906 C-52.45186444 874.4160689 -142.72830289 854.88926708 -280.6706543 765.4465332 C-288.89502959 758.3904145 -296.85781204 751.05897816 -304.4375 743.3125 C-307.16394962 740.57197232 -309.90721684 737.85030856 -312.671875 735.1484375 C-318.89249761 729.04224547 -324.83723047 722.91571903 -330.24609375 716.0625 C-332.21022339 713.59770986 -334.24351158 711.21210216 -336.31323242 708.8359375 C-353.53064302 688.96663581 -367.7650997 666.28826335 -380.4375 643.3125 C-380.94249023 642.39968262 -381.44748047 641.48686523 -381.96777344 640.54638672 C-410.48794526 588.53436876 -428.26122506 529.57892864 -432.4375 470.3125 C-432.5214502 469.19399658 -432.60540039 468.07549316 -432.69189453 466.9230957 C-433.43315229 456.27961553 -433.68006901 445.66800914 -433.6875 435 C-433.68817474 434.11565277 -433.68884949 433.23130554 -433.68954468 432.32015991 C-433.57347469 335.29541356 -400.44825366 242.65526438 -301.69921875 121.5234375 C-299.40612279 119.24454428 -297.08543922 117.03692669 -294.625 114.9375 C-291.63519527 112.36501027 -288.71540107 109.73259885 -285.8125 107.0625 C-280.1549035 101.95939994 -274.19169829 97.29841373 -268.16064453 92.65039062 C-266.59350887 91.43362901 -265.04376487 90.19455044 -263.49609375 88.953125 C-248.15067239 76.77486784 -231.46462064 65.99002364 -214.4375 56.3125 C-213.67953125 55.87550781 -212.9215625 55.43851563 -212.140625 54.98828125 C-179.60021326 36.31335942 -144.70510869 22.76749997 -108.4375 13.3125 C-107.37241211 13.03422363 -106.30732422 12.75594727 -105.20996094 12.46923828 C-92.14800957 9.11986449 -79.00739026 6.60482775 -65.6875 4.5625 C-64.39884033 4.36374268 -63.11018066 4.16498535 -61.7824707 3.96020508 C-41.19312604 0.94690973 -20.80141376 -0.0640843 0 0 Z " fill="#002ED2" transform="translate(433.4375,-0.3125)"></path>
<path d="M0 0 C0.03440186 0.75168457 0.06880371 1.50336914 0.10424805 2.27783203 C3.36420428 69.14484124 25.2020952 130.62305648 70.74609375 180.5234375 C72.2742196 182.20252205 73.78685858 183.89580823 75.28515625 185.6015625 C79.90137549 190.84330716 84.6462019 195.52615141 90 200 C90.91007812 200.79792969 91.82015625 201.59585938 92.7578125 202.41796875 C130.87774443 235.70398453 178.26958104 256.72832757 228 265 C228.68739258 265.11472656 229.37478516 265.22945313 230.08300781 265.34765625 C242.95726046 267.41171705 255.99057233 267.6171867 269 268 C270.02086368 291.8485098 266.82294205 316.13023848 260 339 C259.64784424 340.19689453 259.64784424 340.19689453 259.28857422 341.41796875 C257.63512815 346.9832802 255.85753795 352.49972591 254 358 C253.7829541 358.65323242 253.5659082 359.30646484 253.34228516 359.97949219 C240.20253965 399.02503878 216.65330616 432.38941077 187.875 461.375 C186.96886963 462.29055664 186.06273926 463.20611328 185.12915039 464.14941406 C169.7607298 479.44416853 151.94941772 492.474452 133 503 C132.18499023 503.45729492 131.36998047 503.91458984 130.53027344 504.38574219 C94.21675346 524.58655253 54.0524687 535.97150228 12.5234375 537.65625 C8.98073812 538.00187921 6.23561881 538.51564231 3 540 C1.41153614 541.94963843 1.41153614 541.94963843 0.4375 544.3125 C-1.44810722 548.38071485 -3.77203826 550.88933338 -7 554 C-8.33374856 555.49872789 -9.66725222 556.9976944 -10.99365234 558.50292969 C-17.65041334 565.98137407 -24.86103507 572.18871131 -33 578 C-33.83072021 578.59506348 -33.83072021 578.59506348 -34.67822266 579.20214844 C-65.95206559 601.23326424 -104.96196656 609.45637881 -142.6875 609.4375 C-143.51938843 609.43790283 -144.35127686 609.43830566 -145.20837402 609.4387207 C-158.3359891 609.40219388 -170.57413513 608.59884822 -183 604 C-184.15653076 603.57388428 -184.15653076 603.57388428 -185.33642578 603.13916016 C-201.70036367 596.87926685 -217.62352113 587.4496453 -230 575 C-230.00808685 575.71313858 -230.01617371 576.42627716 -230.02450562 577.161026 C-230.10357888 583.99699486 -230.19117018 590.83281167 -230.28752708 597.66855717 C-230.33674502 601.17996119 -230.38305683 604.69134525 -230.421875 608.20288086 C-230.90756618 651.53712797 -230.90756618 651.53712797 -235.3125 672 C-235.6384314 673.55968506 -235.6384314 673.55968506 -235.97094727 675.15087891 C-241.97855613 702.97855613 -241.97855613 702.97855613 -251 712 C-253.52976535 712.1878075 -255.94907405 712.25191906 -258.47900391 712.22705078 C-259.24982803 712.22734283 -260.02065216 712.22763489 -260.81483459 712.22793579 C-263.36885745 712.22653974 -265.92259046 712.21096579 -268.4765625 712.1953125 C-270.24490194 712.19158334 -272.01324345 712.18873591 -273.78158569 712.18673706 C-278.44069095 712.17909293 -283.09967194 712.15943778 -287.75872803 712.1373291 C-292.51100992 712.11688744 -297.26331184 712.10773894 -302.015625 712.09765625 C-311.34380466 712.07619259 -320.67189201 712.04204728 -330 712 C-329.74438293 711.43963547 -329.48876587 710.87927094 -329.22540283 710.30192566 C-328.0483072 707.71696231 -326.87569699 705.12998704 -325.703125 702.54296875 C-325.10008545 701.221297 -325.10008545 701.221297 -324.48486328 699.8729248 C-313.6087694 675.83365619 -308.84629505 650.43285742 -308.85523987 624.11991882 C-308.85210066 622.62482654 -308.8485246 621.12973511 -308.84455246 619.63464481 C-308.83491163 615.54760695 -308.83131336 611.46058307 -308.82870948 607.37353551 C-308.82479779 602.95676538 -308.81516112 598.54000739 -308.80615234 594.12324524 C-308.79124258 586.4732507 -308.7796846 578.82325711 -308.77020454 571.17325401 C-308.75629237 560.08986997 -308.73509775 549.00650844 -308.71177601 537.92314062 C-308.67388608 519.90929633 -308.63891925 501.89544796 -308.60717773 483.8815918 C-308.60527724 482.80417155 -308.60337675 481.72675131 -308.60141867 480.61668197 C-308.57462059 465.34688913 -308.55073558 450.07709311 -308.52803367 434.80729369 C-308.52643637 433.73320855 -308.52483906 432.65912341 -308.52319336 431.55249023 C-308.52159989 430.47972455 -308.52000643 429.40695886 -308.51836468 428.30168512 C-308.49152763 410.36682373 -308.45709897 392.43198629 -308.41653961 374.49715072 C-308.39186582 363.4534231 -308.37348288 352.40972115 -308.363384 341.36597041 C-308.35595046 333.78482544 -308.34136073 326.20371498 -308.32131977 318.62259295 C-308.31001457 314.25950962 -308.30178868 309.89648171 -308.30232811 305.53338242 C-308.30256472 262.42979448 -308.30256472 262.42979448 -303.8125 242 C-303.59819336 241.00782471 -303.38388672 240.01564941 -303.16308594 238.9934082 C-295.0982685 203.16086537 -277.29766899 167.69455064 -246.0625 146.8125 C-245.32837891 146.34980713 -244.59425781 145.88711426 -243.83789062 145.41040039 C-239.31230365 142.43460757 -236.92010037 139.8967847 -234.88452148 134.83862305 C-233.885714 132.76243779 -232.63885541 131.59917757 -231 130 C-230.484375 128.96875 -229.96875 127.9375 -229.4375 126.875 C-228 124 -228 124 -226 123 C-226 122.01 -226 121.02 -226 120 C-225.34 120 -224.68 120 -224 120 C-224 119.01 -224 118.02 -224 117 C-223.34 117 -222.68 117 -222 117 C-222 116.01 -222 115.02 -222 114 C-221.34 113.67 -220.68 113.34 -220 113 C-219.71125 112.21625 -219.4225 111.4325 -219.125 110.625 C-218 108 -218 108 -216.0625 106.625 C-213.11777239 104.30491158 -212.40557137 101.42226072 -211 98 C-209.5 96.0625 -209.5 96.0625 -208 95 C-207.01 95 -206.02 95 -205 95 C-204.73227783 94.41154297 -204.46455566 93.82308594 -204.1887207 93.21679688 C-202.98526113 90.97251408 -201.71413505 89.38731424 -199.98046875 87.53125 C-199.07578857 86.56022339 -199.07578857 86.56022339 -198.15283203 85.56958008 C-197.50427246 84.88661865 -196.85571289 84.20365723 -196.1875 83.5 C-195.51315918 82.78803467 -194.83881836 82.07606934 -194.14404297 81.3425293 C-164.89549897 50.7295115 -128.19391294 27.31423366 -88 14 C-87.0925 13.69320312 -86.185 13.38640625 -85.25 13.0703125 C-83.87450994 12.60703981 -82.49742429 12.14842956 -81.11767578 11.69799805 C-79.73771193 11.24315407 -78.36084937 10.77875555 -76.98779297 10.3034668 C-52.28911746 1.80992043 -25.98823271 -0.75207104 0 0 Z " fill="#D9FE00" transform="translate(564,32)"></path>
<path d="M0 0 C0.03440186 0.75168457 0.06880371 1.50336914 0.10424805 2.27783203 C3.36420428 69.14484124 25.2020952 130.62305648 70.74609375 180.5234375 C72.2742196 182.20252205 73.78685858 183.89580823 75.28515625 185.6015625 C79.90137549 190.84330716 84.6462019 195.52615141 90 200 C90.91007812 200.79792969 91.82015625 201.59585938 92.7578125 202.41796875 C130.87774443 235.70398453 178.26958104 256.72832757 228 265 C228.68739258 265.11472656 229.37478516 265.22945313 230.08300781 265.34765625 C242.95726046 267.41171705 255.99057233 267.6171867 269 268 C270.02086368 291.8485098 266.82294205 316.13023848 260 339 C259.76522949 339.79792969 259.53045898 340.59585937 259.28857422 341.41796875 C257.63512815 346.9832802 255.85753795 352.49972591 254 358 C253.7829541 358.65323242 253.5659082 359.30646484 253.34228516 359.97949219 C240.20253965 399.02503878 216.65330616 432.38941077 187.875 461.375 C186.96886963 462.29055664 186.06273926 463.20611328 185.12915039 464.14941406 C169.7607298 479.44416853 151.94941772 492.474452 133 503 C132.18499023 503.45729492 131.36998047 503.91458984 130.53027344 504.38574219 C91.12005023 526.30921436 48.81559181 536.39197264 4 538 C4.50789062 537.01902344 5.01578125 536.03804687 5.5390625 535.02734375 C23.51144485 499.9638791 31.70473733 461.32403963 19.375 422.875 C13.01110589 404.33440943 2.37424735 389.19802345 -11 375 C-11.5878125 374.34773438 -12.175625 373.69546875 -12.78125 373.0234375 C-29.38946216 355.3225798 -53.77295029 342.16274656 -76 333 C-74.69193326 329.07579977 -73.28093533 328.80454893 -69.6875 326.875 C-59.06170554 320.87514453 -49.86694049 313.33988459 -41 305 C-40.38640625 304.45085937 -39.7728125 303.90171875 -39.140625 303.3359375 C-26.1251868 291.21605698 -17.16405162 273.0945277 -13 256 C-12.77570313 255.09765625 -12.55140625 254.1953125 -12.3203125 253.265625 C-9.13015417 237.79554213 -10.11328076 221.9334282 -15 207 C-15.350625 205.89527344 -15.70125 204.79054687 -16.0625 203.65234375 C-20.58579438 190.72640181 -28.10448542 179.32738816 -37 169 C-37.88365234 167.89978516 -37.88365234 167.89978516 -38.78515625 166.77734375 C-61.2041313 139.78889608 -98.73938553 126.90293626 -132.54408264 123.21687317 C-136.49515708 122.86796809 -140.43385976 122.81760854 -144.3984375 122.796875 C-145.27287506 122.79117493 -146.14731262 122.78547485 -147.04824829 122.77960205 C-148.89201676 122.77021295 -150.73580155 122.76364252 -152.57958984 122.75976562 C-155.33332539 122.75014559 -158.08628535 122.71909902 -160.83984375 122.6875 C-176.36367327 122.59398348 -191.50305152 124.20850136 -206.4375 128.625 C-207.71113403 128.99262451 -207.71113403 128.99262451 -209.01049805 129.36767578 C-218.72930405 132.31309366 -227.88353224 136.565442 -237 141 C-236.690625 140.236875 -236.38125 139.47375 -236.0625 138.6875 C-235.32106407 136.81210323 -234.63771783 134.91315348 -234 133 C-233.54625 132.566875 -233.0925 132.13375 -232.625 131.6875 C-230.7707011 129.9297811 -230.7707011 129.9297811 -229.4375 126.875 C-228 124 -228 124 -226 123 C-226 122.01 -226 121.02 -226 120 C-225.34 120 -224.68 120 -224 120 C-224 119.01 -224 118.02 -224 117 C-223.34 117 -222.68 117 -222 117 C-222 116.01 -222 115.02 -222 114 C-221.01 113.505 -221.01 113.505 -220 113 C-219.566875 111.824375 -219.566875 111.824375 -219.125 110.625 C-218 108 -218 108 -216.0625 106.625 C-213.11777239 104.30491158 -212.40557137 101.42226072 -211 98 C-209.5 96.0625 -209.5 96.0625 -208 95 C-207.01 95 -206.02 95 -205 95 C-204.73227783 94.41154297 -204.46455566 93.82308594 -204.1887207 93.21679688 C-202.98526113 90.97251408 -201.71413505 89.38731424 -199.98046875 87.53125 C-199.07578857 86.56022339 -199.07578857 86.56022339 -198.15283203 85.56958008 C-197.50427246 84.88661865 -196.85571289 84.20365723 -196.1875 83.5 C-195.51315918 82.78803467 -194.83881836 82.07606934 -194.14404297 81.3425293 C-164.89549897 50.7295115 -128.19391294 27.31423366 -88 14 C-87.0925 13.69320312 -86.185 13.38640625 -85.25 13.0703125 C-83.87450994 12.60703981 -82.49742429 12.14842956 -81.11767578 11.69799805 C-79.73771193 11.24315407 -78.36084937 10.77875555 -76.98779297 10.3034668 C-52.28911746 1.80992043 -25.98823271 -0.75207104 0 0 Z " fill="#EA3324" transform="translate(564,32)"></path>
<path d="M0 0 C1.32 0 2.64 0 4 0 C4.04581473 46.6086715 4.08103814 93.2173406 4.10213066 139.82603019 C4.10463196 145.33323892 4.10722062 150.84044759 4.10986328 156.34765625 C4.1103879 157.44400552 4.11091252 158.54035479 4.11145304 159.66992676 C4.12014687 177.40327322 4.1359112 195.13660666 4.15430559 212.86994541 C4.1730331 231.07678165 4.18412275 249.2836111 4.18817699 267.49045658 C4.19091613 278.71780669 4.199556 289.94511999 4.21583293 301.17245877 C4.22643502 308.87979694 4.22959334 316.5871162 4.22700275 324.29446113 C4.22572647 328.7358529 4.2276317 333.17718053 4.23841095 337.61856079 C4.24823227 341.69529673 4.24857811 345.77192615 4.24179779 349.84866726 C4.24096133 351.31327818 4.24342263 352.77789609 4.24976636 354.24249351 C4.35185714 379.29628571 4.35185714 379.29628571 1 386 C-3.02718391 384.65760536 -4.34511171 381.99615076 -6.625 378.625 C-11.12558855 372.15339292 -15.87573944 365.99667051 -21 360 C-21.63679687 359.25105469 -22.27359375 358.50210937 -22.9296875 357.73046875 C-34.73763318 344.24551911 -47.46043122 331.51334647 -62 321 C-62.66354492 320.51337891 -63.32708984 320.02675781 -64.01074219 319.52539062 C-73.68403608 312.44868327 -83.57069872 305.9065893 -94 300 C-94.59458008 299.6601709 -95.18916016 299.3203418 -95.80175781 298.97021484 C-132.31915337 278.25456804 -174.37742718 267.71714029 -216.1640625 266.2109375 C-219.24472071 266.04153267 -222.01156591 265.72053154 -225 265 C-227.98775819 205.13417842 -201.76297644 142.38361313 -164 97 C-163.58057129 96.49033691 -163.16114258 95.98067383 -162.72900391 95.45556641 C-151.68800586 82.07768211 -139.76766215 69.60020001 -126 59 C-124.70135327 57.97324999 -123.403214 56.94585794 -122.10546875 55.91796875 C-112.78023425 48.59199904 -103.22554778 42.00025586 -93 36 C-91.97084473 35.38777588 -91.97084473 35.38777588 -90.92089844 34.76318359 C-68.41883864 21.45612793 -43.95329926 11.66252595 -18.4453125 5.921875 C-15.8457052 5.22628847 -13.74702708 4.49801538 -11.33203125 3.40234375 C-8.35605776 2.14985315 -6.70826759 1.64693328 -3.5625 1.8125 C-1.7990625 1.9053125 -1.7990625 1.9053125 0 2 C0 1.34 0 0.68 0 0 Z " fill="#0051FE" transform="translate(252,303)"></path>
<path d="M0 0 C3.32439079 0.60545583 6.64668767 1.2217501 9.96875 1.83984375 C10.89913086 2.00915405 11.82951172 2.17846436 12.78808594 2.35290527 C30.93906018 5.75025269 30.93906018 5.75025269 38.28125 10.46484375 C40.79332194 11.88329817 42.82892469 12.60120488 45.58203125 13.37890625 C51.51439437 15.07214494 57.05683666 17.43325224 62.6875 19.9375 C63.77256836 20.41985107 64.85763672 20.90220215 65.97558594 21.39916992 C109.65949802 41.06961074 109.65949802 41.06961074 124 56 C118.58353309 55.11291004 113.16938039 54.21816804 107.76953125 53.234375 C107.0417749 53.10264893 106.31401855 52.97092285 105.56420898 52.83520508 C104.14776025 52.57788435 102.73186184 52.31750755 101.31665039 52.0534668 C84.60566256 49.02835668 62.9611588 46.61147429 47.25 54.35546875 C44.81224229 56.13723263 43.95872198 57.1662085 43 60 C42.43041179 64.13506246 42.60040951 67.87615175 44 71.8125 C51.33108934 79.83087897 63.8284488 80.43714736 74 81 C75.45212891 81.08121094 75.45212891 81.08121094 76.93359375 81.1640625 C90.23714017 81.52229753 103.6400394 79.49019144 116.75390625 77.40234375 C126.59606947 76.18243664 126.59606947 76.18243664 131.2734375 78.90625 C132.32346248 79.7511206 133.35701903 80.61678229 134.375 81.5 C134.93243896 81.95777832 135.48987793 82.41555664 136.06420898 82.88720703 C137.19285494 83.81500733 138.31563066 84.74999927 139.43212891 85.69238281 C141.58840855 87.49073749 143.83083794 89.17160577 146.0625 90.875 C170.33085366 110.57333901 181.73712545 136.19159501 185 167 C188.23392878 203.01927572 182.95258855 242.11273571 160 271.375 C158.68037502 272.92841681 157.34700376 274.47026317 156 276 C155.31421875 276.81726563 154.6284375 277.63453125 153.921875 278.4765625 C144.79662963 289.07891593 134.15112685 297.14741567 122 304 C120.55173828 304.81791016 120.55173828 304.81791016 119.07421875 305.65234375 C100.0862511 315.75013981 77.09150663 319.62061177 56 314.5 C44.41570337 310.81645399 33.00139182 305.25127584 24 297 C23.04609375 296.13761719 22.0921875 295.27523438 21.109375 294.38671875 C13.63142153 287.39468447 8.07402208 279.89839117 3 271 C2.21174096 269.74874486 2.21174096 269.74874486 1.40755749 268.47221184 C-0.5440356 263.65795403 -0.40513729 259.36517542 -0.36076355 254.2180481 C-0.36332682 253.13078017 -0.3658901 252.04351225 -0.36853105 250.92329681 C-0.37347293 247.27960567 -0.35696878 243.63632876 -0.34057617 239.99267578 C-0.33972999 237.38098663 -0.34020487 234.76929677 -0.34190369 232.15760803 C-0.34347539 226.5345951 -0.33407703 220.91168674 -0.31719017 215.2887001 C-0.29279069 207.15886133 -0.28499394 199.02907304 -0.2812262 190.89920162 C-0.2746632 177.70848857 -0.25470615 164.51783124 -0.22631836 151.32714844 C-0.19877387 138.51497679 -0.1775422 125.70282029 -0.16479492 112.890625 C-0.16361267 111.70565877 -0.16361267 111.70565877 -0.16240653 110.49675383 C-0.15849136 106.53359885 -0.15470025 102.57044376 -0.15097082 98.6072886 C-0.11987963 65.73815184 -0.06704796 32.86908338 0 0 Z " fill="#002DD2" transform="translate(333,300)"></path>
<path d="M0 0 C-1.26696577 27.16276605 -5.78840649 53.37492476 -15 79 C-15.2578125 79.73202637 -15.515625 80.46405273 -15.78125 81.21826172 C-21.41045331 97.14201719 -27.50817463 113.39285788 -38.15625 126.65625 C-43.56444181 133.51082659 -43.56444181 133.51082659 -48 141 C-48.66 141 -49.32 141 -50 141 C-50.27199219 141.55945313 -50.54398438 142.11890625 -50.82421875 142.6953125 C-54.71409131 150.31997965 -59.12049412 157.15476537 -65.2109375 163.19140625 C-67.92898554 165.92848824 -70.54802241 168.73436912 -73.16235352 171.56958008 C-84.22954072 183.54113977 -96.00047358 194.17002103 -109 204 C-110.56234375 205.19882812 -110.56234375 205.19882812 -112.15625 206.421875 C-148.76497761 233.91357273 -193.64231886 250.85278027 -239 256 C-239.79744629 256.09498779 -240.59489258 256.18997559 -241.41650391 256.2878418 C-247.33964123 256.94641709 -253.16882346 257.12318205 -259.125 257.0625 C-259.98609375 257.05798828 -260.8471875 257.05347656 -261.734375 257.04882812 C-263.82294785 257.03722494 -265.91148407 257.0192984 -268 257 C-268.09704224 255.57627075 -268.09704224 255.57627075 -268.19604492 254.1237793 C-270.23349473 224.83636779 -274.37458594 197.33665376 -283.3449707 169.27709961 C-284 167 -284 167 -284 165 C-273.11 165 -262.22 165 -251 165 C-250.34 163.35 -249.68 161.7 -249 160 C-247.90209141 157.93416191 -246.7972262 155.87201403 -245.6875 153.8125 C-230.83795777 124.93795998 -231.74225181 89.26833878 -231.39910889 57.67987061 C-231.35825466 54.09183479 -231.30754612 50.5039374 -231.2578125 46.91601562 C-231.16255166 39.9441131 -231.07769756 32.97212234 -231 26 C-227.94261637 27.98255284 -225.22117098 29.77364243 -222.66796875 32.38671875 C-212.07416701 42.76337082 -196.8289147 49.99196153 -183 55 C-182.26813477 55.2695752 -181.53626953 55.53915039 -180.78222656 55.81689453 C-142.0158055 69.31003935 -90.17843869 58.82288126 -54.14453125 41.75 C-36.14815225 32.85242489 -19.22502353 20.29742476 -6.5 4.65625 C-2.28301887 0 -2.28301887 0 0 0 Z " fill="#0051FE" transform="translate(564,580)"></path>
<path d="M0 0 C2.51573275 1.93828526 4.85349336 3.96694554 7.18359375 6.125 C7.66812012 6.56859863 8.15264648 7.01219727 8.65185547 7.46923828 C15.7342455 14.01484836 21.49965474 20.61332589 26.18359375 29.125 C26.6425 29.93453125 27.10140625 30.7440625 27.57421875 31.578125 C41.48945127 57.5644026 39.65067214 90.90070749 31.66015625 118.5234375 C26.80209509 134.24146757 18.73464005 149.77524211 9.18359375 163.125 C5.80893925 162.49404477 3.57306744 161.22729214 0.76171875 159.28125 C-0.09019043 158.69899658 -0.94209961 158.11674316 -1.81982422 157.5168457 C-2.72619629 156.89253662 -3.63256836 156.26822754 -4.56640625 155.625 C-23.37746344 142.91139749 -43.33437186 132.75428483 -64.31640625 124.0625 C-64.97954834 123.78776855 -65.64269043 123.51303711 -66.32592773 123.22998047 C-69.37850973 121.99857463 -72.39838405 120.95950006 -75.56640625 120.05859375 C-78.81640625 119.125 -78.81640625 119.125 -82.31640625 117.25 C-91.89275156 112.28653779 -103.43466009 110.68952646 -113.96484375 108.73828125 C-116.81640625 108.125 -116.81640625 108.125 -117.81640625 107.125 C-120.10187921 72.48277047 -114.79712269 37.25451266 -91.69140625 10.125 C-65.84056247 -17.71105048 -31.0695476 -20.68430354 0 0 Z " fill="#E93323" transform="translate(450.81640625,192.875)"></path>
<path d="M0 0 C1.12390023 0.94654707 2.24543331 1.89590527 3.3659668 2.84643555 C3.99077438 3.37480515 4.61558197 3.90317474 5.25932312 4.44755554 C8.96939148 7.75642643 11.62869594 11.84849802 14.44995117 15.90966797 C19.19927666 22.73243147 24.32350896 28.91651526 30 35 C31.1088261 36.28766902 32.21319121 37.5791964 33.3125 38.875 C41.44358018 48.1703457 50.31197841 56.35690512 60 64 C61.07507813 64.91072266 61.07507813 64.91072266 62.171875 65.83984375 C85.1238473 85.08857229 114.16396724 101.64688111 143 110 C143.88816406 110.28359375 144.77632812 110.5671875 145.69140625 110.859375 C150.46987401 112.36911444 155.02540613 113.31721261 160 114 C162.9375 115.0625 162.9375 115.0625 165 116 C163.08459783 122.66059449 159.44485438 126.81049817 155 132 C154.30519531 132.83015625 153.61039063 133.6603125 152.89453125 134.515625 C143.76362153 145.09350949 133.1395724 153.15393176 121 160 C120.03449219 160.54527344 119.06898438 161.09054687 118.07421875 161.65234375 C99.0862511 171.75013981 76.09150663 175.62061177 55 170.5 C43.41570337 166.81645399 32.00139182 161.25127584 23 153 C22.04609375 152.13761719 21.0921875 151.27523437 20.109375 150.38671875 C12.63142153 143.39468447 7.07402208 135.89839117 2 127 C1.47120239 126.15784439 0.94240479 125.31568878 0.39758301 124.44801331 C-1.51256289 119.73544278 -1.32919434 115.63605712 -1.20117188 110.60522461 C-1.18799675 109.59364005 -1.17482162 108.58205549 -1.16124725 107.53981686 C-1.13277931 105.41472246 -1.09808483 103.28970321 -1.0574646 101.16480637 C-0.98556085 97.20477784 -0.95697694 93.24511097 -0.92946625 89.28456974 C-0.89277816 84.295054 -0.83520895 79.30575958 -0.78125 74.31640625 C-0.75872578 72.1520956 -0.73630769 69.98778385 -0.71398926 67.82347107 C-0.65585525 62.2128487 -0.59631046 56.60224223 -0.53643799 50.99163818 C-0.47523682 45.23206483 -0.41541663 39.47247714 -0.35546875 33.71289062 C-0.23830547 22.47524624 -0.11964684 11.2376182 0 0 Z " fill="#0051FD" transform="translate(334,444)"></path>
<path d="M0 0 C0.66 0 1.32 0 2 0 C3.39498465 1.72268578 4.7148448 3.50639796 6 5.3125 C9.90193825 10.68466426 14.12761191 15.6013414 18.65234375 20.46875 C20.71412015 22.69176348 22.71137286 24.95114963 24.6875 27.25 C30.33331737 33.70797672 36.37591025 39.25496459 43.0703125 44.625 C44.98596684 46.17795711 46.87809412 47.76051457 48.7421875 49.375 C72.32064322 69.75305592 100.83789385 84.41011109 130 95 C129.67 95.66 129.34 96.32 129 97 C96.27781993 84.41724977 66.27482263 68.459362 40 45 C39.49130371 44.5477002 38.98260742 44.09540039 38.45849609 43.62939453 C24.0243625 30.74161186 10.88854564 17.08063144 0 1 C0 0.67 0 0.34 0 0 Z " fill="#0037DE" transform="translate(347,458)"></path>
</svg>
