<svg width="16" height="16" viewBox="0 0 16 16" fill="none" xmlns="http://www.w3.org/2000/svg">
<g clip-path="url(#clip0_19209_38955)">
<rect width="16" height="16" rx="8" fill="black"/>
<path fill-rule="evenodd" clip-rule="evenodd" d="M6.82766 8.46459H8.18744C9.34325 8.46459 9.88716 8.75921 9.88716 9.59773C9.88716 10.6402 8.86733 10.7762 8.14211 10.7762H6.82766V8.46459ZM5.3999 12H8.27809C9.7965 12 11.2923 11.4561 11.2923 9.71105C11.2923 8.69122 10.567 7.89802 9.56987 7.7847V7.76204C10.3857 7.51275 10.9523 6.92351 10.9523 6.017C10.9523 4.56657 9.70585 4 8.50472 4H5.3999V12ZM6.82766 5.2238H8.00614C9.07129 5.2238 9.54721 5.56374 9.54721 6.24363C9.54721 6.83286 9.07129 7.24079 8.11945 7.24079H6.82766V5.2238Z" fill="white"/>
</g>
<defs>
<clipPath id="clip0_19209_38955">
<rect width="16" height="16" fill="white"/>
</clipPath>
</defs>
</svg>
