<?xml version="1.0" encoding="UTF-8" standalone="no"?><!DOCTYPE svg PUBLIC "-//W3C//DTD SVG 1.1//EN" "http://www.w3.org/Graphics/SVG/1.1/DTD/svg11.dtd"><svg width="100%" height="100%" viewBox="0 0 128 128" version="1.1" xmlns="http://www.w3.org/2000/svg" xmlns:xlink="http://www.w3.org/1999/xlink" xml:space="preserve" xmlns:serif="http://www.serif.com/" style="fill-rule:evenodd;clip-rule:evenodd;stroke-linejoin:round;stroke-miterlimit:2;"><rect id="bHIGH" x="0" y="0" width="128" height="128" style="fill:none;"/><clipPath id="_clip1"><rect id="bHIGH1" serif:id="bHIGH" x="0" y="0" width="128" height="128"/></clipPath><g clip-path="url(#_clip1)"><circle cx="64" cy="64" r="64" style="fill:#565d6a;"/><path d="M98.881,10.341l-11.435,45.299l-1.298,-0.567l10.344,-45.607c-1.553,-0.514 -3.144,-0.874 -4.758,-1.085l-2.015,-2.99c2.126,0.936 4.223,1.996 6.28,3.184c0.982,0.567 1.943,1.156 2.882,1.766Zm-98.356,52.788c0.331,1.601 0.816,3.159 1.439,4.663l-1.581,3.239c-0.253,-2.309 -0.383,-4.655 -0.383,-7.031c0,-1.133 0.03,-2.26 0.088,-3.378l44.948,-12.747l0.158,1.408l-44.669,13.846Zm92.504,57.91l-33.512,-32.553l1.14,-0.841l34.325,31.762c1.221,-1.088 2.328,-2.286 3.319,-3.578l3.596,-0.25c-1.874,1.373 -3.84,2.659 -5.898,3.847c-0.981,0.566 -1.972,1.104 -2.97,1.613Zm-50.669,-66.454c-13.022,5.043 -26.043,10.085 -39.064,15.128c-0.402,-0.676 -0.769,-1.367 -1.102,-2.07l39.859,-14.411l0.307,1.353Zm5.364,-9.958l-47.207,11.173c0.122,-0.951 0.266,-1.9 0.432,-2.848c15.591,-3.263 31.183,-6.526 46.775,-9.789l-0,1.464Zm2.306,-4.184c-16.04,2.662 -32.08,5.323 -48.12,7.985c0.252,-1.001 0.528,-2 0.83,-2.994l47.461,-6.511l-0.171,1.52Zm2.142,-3.835l-47.998,4.634c0.397,-1.039 0.822,-2.072 1.276,-3.097l47.079,-3.109l-0.357,1.572Zm2.019,-3.575c-15.631,0.428 -31.262,0.856 -46.892,1.284c0.407,-0.777 0.832,-1.549 1.275,-2.316c0.161,-0.278 0.323,-0.555 0.487,-0.83l45.692,0.246l-0.562,1.616Zm1.931,-3.382c-14.954,-0.637 -29.909,-1.274 -44.863,-1.91c0.736,-1.072 1.499,-2.115 2.289,-3.129l43.363,3.391l-0.789,1.648Zm-25.535,48.092l-8.946,5.939c-0.651,-0.221 -1.292,-0.456 -1.922,-0.706l10.107,-6.45l0.761,1.217Zm4.678,-9.441l-21.193,11.901c-0.616,-0.369 -1.217,-0.753 -1.8,-1.152l22.391,-12.006l0.602,1.257Zm3.842,-7.51l-31.225,14.687c-0.537,-0.522 -1.051,-1.059 -1.54,-1.611l32.311,-14.378l0.454,1.302Zm18.914,-34.38c-13.994,-1.602 -27.987,-3.203 -41.981,-4.805c0.923,-1.045 1.876,-2.055 2.856,-3.029l40.215,6.178c-0.374,0.54 -0.737,1.092 -1.09,1.656Zm2.127,-3.091l-38.527,-7.296c1.119,-0.987 2.268,-1.931 3.445,-2.832l36.391,8.478c-0.447,0.536 -0.884,1.086 -1.309,1.65Zm2.409,-2.914c-11.536,-3.098 -23.071,-6.197 -34.607,-9.296c0.068,-0.046 0.136,-0.092 0.204,-0.137c1.25,-0.844 2.527,-1.64 3.828,-2.39l32.119,10.208c-0.526,0.521 -1.041,1.059 -1.544,1.615Zm2.688,-2.705c-10.1,-3.574 -20.201,-7.148 -30.302,-10.721c1.503,-0.764 3.034,-1.467 4.589,-2.109l27.507,11.28c-0.609,0.496 -1.207,1.012 -1.794,1.55Zm2.965,-2.465l-25.728,-11.499c1.673,-0.596 3.37,-1.123 5.086,-1.579l22.699,11.632c-0.696,0.456 -1.383,0.938 -2.057,1.446Zm3.237,-2.188c-7.009,-3.859 -14.018,-7.719 -21.027,-11.579c1.815,-0.394 3.648,-0.711 5.493,-0.948l17.871,11.231c-0.789,0.401 -1.568,0.833 -2.337,1.296Zm3.511,-1.866l-16.369,-10.947c1.92,-0.165 3.85,-0.244 5.784,-0.235l13.217,10.092c-0.885,0.324 -1.763,0.688 -2.632,1.09Zm3.785,-1.489l-11.938,-9.636c1.978,0.085 3.958,0.261 5.933,0.532c2.984,2.765 5.968,5.53 8.952,8.294c-0.987,0.222 -1.971,0.492 -2.947,0.81Zm4.062,-1.038l-7.934,-7.737c1.981,0.341 3.954,0.776 5.914,1.31l5.297,6c-1.092,0.081 -2.186,0.223 -3.277,0.427Zm4.337,-0.486l-4.56,-5.424c1.917,0.583 3.819,1.26 5.699,2.033l2.471,3.491c-1.194,-0.112 -2.4,-0.144 -3.61,-0.1Zm-4.168,41.798c2.143,-13.799 4.286,-27.597 6.43,-41.395c0.786,-0.01 1.568,0.017 2.344,0.081l-7.449,41.724l-1.325,-0.41Zm5.941,9.623l13.928,-46.467c0.762,0.58 1.512,1.179 2.25,1.797c-4.97,15.134 -9.94,30.268 -14.91,45.403l-1.268,-0.733Zm2.471,4.09c5.714,-15.222 11.429,-30.444 17.144,-45.665c0.742,0.718 1.468,1.456 2.178,2.215l-18.091,44.358l-1.231,-0.908Zm2.25,3.772l19.985,-43.884c0.702,0.863 1.384,1.748 2.045,2.654l-20.847,42.325l-1.183,-1.095Zm2.087,3.537c7.444,-13.751 14.889,-27.502 22.333,-41.253c0.47,0.742 0.926,1.496 1.369,2.263c0.16,0.278 0.319,0.557 0.475,0.837l-23.06,39.448l-1.117,-1.295Zm1.963,3.363c8.029,-12.632 16.057,-25.265 24.086,-37.897c0.56,1.172 1.082,2.355 1.565,3.546l-24.619,35.858l-1.032,-1.507Zm-28.882,-46.16l-0.67,-10.717c0.517,-0.453 1.041,-0.891 1.572,-1.312l0.533,11.978l-1.435,0.051Zm5.837,8.771l0.29,-24.303c0.628,-0.349 1.261,-0.677 1.898,-0.984l-0.798,25.394l-1.39,-0.107Zm4.584,7.083l2.892,-34.385c0.721,-0.205 1.443,-0.381 2.166,-0.529l-3.704,35.172l-1.354,-0.258Zm20.317,33.57c8.383,-11.318 16.767,-22.636 25.151,-33.954c0.444,1.322 0.842,2.652 1.195,3.988l-25.457,31.738c-0.281,-0.594 -0.578,-1.185 -0.889,-1.772Zm1.613,3.387l25.581,-29.717c0.296,1.463 0.539,2.93 0.731,4.399l-25.538,27.277c-0.24,-0.655 -0.498,-1.308 -0.774,-1.959Zm1.319,3.543c8.451,-8.44 16.902,-16.881 25.353,-25.322c0.006,0.082 0.012,0.164 0.018,0.245c0.105,1.505 0.156,3.009 0.155,4.511l-24.899,22.712c-0.189,-0.716 -0.398,-1.432 -0.627,-2.146Zm0.999,3.681c8.145,-6.96 16.29,-13.921 24.435,-20.881c-0.09,1.684 -0.246,3.361 -0.468,5.028l-23.523,18.182c-0.124,-0.775 -0.272,-1.552 -0.444,-2.329Zm0.652,3.8l22.822,-16.531c-0.32,1.747 -0.713,3.48 -1.176,5.194l-21.423,13.842c-0.047,-0.831 -0.121,-1.667 -0.223,-2.505Zm0.275,3.898c6.848,-4.14 13.695,-8.281 20.542,-12.421c-0.566,1.77 -1.208,3.515 -1.926,5.232l-18.661,9.861c0.047,-0.883 0.063,-1.775 0.045,-2.672Zm-0.139,3.973l17.665,-8.702c-0.816,1.745 -1.713,3.456 -2.688,5.127l-15.349,6.4c0.162,-0.929 0.286,-1.871 0.372,-2.825Zm-0.603,4.022l14.314,-5.52c-1.062,1.671 -2.205,3.297 -3.426,4.872c-3.887,1.202 -7.773,2.404 -11.66,3.606c0.302,-0.966 0.56,-1.953 0.772,-2.958Zm-1.131,4.037l10.667,-3.002c-1.285,1.545 -2.65,3.036 -4.091,4.467l-7.845,1.587c0.476,-0.986 0.899,-2.005 1.269,-3.052Zm-1.749,4l6.978,-1.238c-1.463,1.369 -3,2.678 -4.61,3.92l-4.259,0.394c0.694,-0.978 1.325,-2.006 1.891,-3.076Zm-34.113,-24.509c10.878,8.755 21.756,17.51 32.634,26.266c-0.385,0.686 -0.799,1.349 -1.243,1.989l-32.409,-27.313l1.018,-0.942Zm-11.305,0.333l33.279,35.296c-0.884,0.369 -1.778,0.72 -2.682,1.05c-10.622,-11.871 -21.243,-23.742 -31.865,-35.614l1.268,-0.732Zm-4.777,0.095c10.325,12.56 20.65,25.12 30.975,37.68c-0.993,0.283 -1.995,0.543 -3.007,0.779l-29.37,-37.847l1.402,-0.612Zm-4.392,0.063l28.012,39.25c-1.098,0.176 -2.205,0.324 -3.321,0.444l-26.231,-39.217l1.54,-0.477Zm-4.106,0.039c8.186,13.322 16.372,26.645 24.559,39.967c-0.877,0.036 -1.758,0.054 -2.644,0.054c-0.321,0 -0.642,-0.002 -0.962,-0.007l-22.633,-39.694l1.68,-0.32Zm-3.895,0.018c6.926,13.269 13.852,26.539 20.778,39.808c-1.296,-0.101 -2.581,-0.241 -3.854,-0.418l-18.745,-39.25l1.821,-0.14Zm54.418,-1.932l9.615,4.778c0.135,0.674 0.251,1.347 0.351,2.018l-10.64,-5.528l0.674,-1.268Zm-10.515,0.669l20.902,12.403c-0.011,0.718 -0.044,1.431 -0.097,2.136l-21.593,-13.389l0.788,-1.15Zm-8.426,0.429l28.332,19.697c-0.183,0.727 -0.392,1.44 -0.625,2.14l-28.607,-20.794l0.9,-1.043Zm-39.231,0.809c5.61,12.92 11.22,25.839 16.829,38.759c-1.366,-0.277 -2.717,-0.597 -4.05,-0.959l-14.758,-37.916c0.655,0.054 1.315,0.093 1.979,0.116Zm-3.74,-0.296l12.945,37.013c-1.414,-0.475 -2.807,-0.998 -4.175,-1.567l-10.854,-35.755c0.688,0.119 1.383,0.223 2.084,0.309Zm-3.728,-0.63c3.084,11.54 6.169,23.079 9.253,34.618c-0.074,-0.035 -0.148,-0.071 -0.221,-0.107c-1.355,-0.661 -2.684,-1.369 -3.984,-2.121l-7.219,-32.92c0.714,0.196 1.438,0.372 2.171,0.53Zm-3.687,-0.975c1.955,10.534 3.911,21.068 5.866,31.603c-1.413,-0.92 -2.788,-1.894 -4.121,-2.92l-3.984,-29.462c0.734,0.28 1.48,0.54 2.239,0.779Zm-3.617,-1.335l2.906,28.03c-1.353,-1.151 -2.658,-2.357 -3.911,-3.615l-1.276,-25.474c0.743,0.375 1.504,0.729 2.281,1.059Zm-3.513,-1.71c0.162,8 0.324,16 0.486,23.999c-1.25,-1.374 -2.44,-2.803 -3.568,-4.283l0.791,-21.092c0.741,0.483 1.505,0.942 2.291,1.376Zm-3.371,-2.107l-1.297,19.649c-1.103,-1.58 -2.136,-3.212 -3.096,-4.891l2.132,-16.493c0.723,0.604 1.478,1.183 2.261,1.735Zm-3.183,-2.533l-2.376,15.156c-0.916,-1.755 -1.753,-3.558 -2.506,-5.404c0.903,-3.967 1.805,-7.933 2.708,-11.9c0.685,0.744 1.411,1.461 2.174,2.148Zm-2.93,-2.999l-2.733,10.739c-0.696,-1.885 -1.305,-3.812 -1.823,-5.776l2.548,-7.588c0.615,0.905 1.286,1.781 2.008,2.625Zm-2.589,-3.514l-2.417,6.662c-0.454,-1.952 -0.819,-3.937 -1.089,-5.953l1.787,-3.885c0.501,1.09 1.075,2.151 1.719,3.176Z" style="fill:url(#_Radial2);"/><g transform="matrix(1,0,0,1,-20.0404,11.4048)"><g transform="matrix(34,0,0,34,34.0094,64.4952)"><path d="M0.354,0.014c-0.051,0 -0.09,-0.01 -0.118,-0.029c-0.029,-0.019 -0.049,-0.041 -0.062,-0.066l-0.014,0l0,0.081l-0.077,-0l0,-0.7l0.079,0l0,0.288l0.014,0c0.008,-0.015 0.019,-0.03 0.034,-0.043c0.015,-0.014 0.034,-0.025 0.058,-0.034c0.023,-0.01 0.052,-0.014 0.086,-0.014c0.043,0 0.081,0.01 0.116,0.03c0.036,0.021 0.063,0.05 0.084,0.087c0.021,0.038 0.031,0.083 0.031,0.135l-0,0.013c-0,0.052 -0.011,0.097 -0.032,0.135c-0.02,0.038 -0.048,0.067 -0.084,0.087c-0.034,0.02 -0.073,0.03 -0.115,0.03Zm-0.021,-0.07c0.051,-0 0.092,-0.016 0.124,-0.049c0.031,-0.032 0.047,-0.077 0.047,-0.135l0,-0.009c0,-0.058 -0.016,-0.103 -0.047,-0.136c-0.032,-0.032 -0.073,-0.048 -0.124,-0.048c-0.05,-0 -0.091,0.016 -0.124,0.048c-0.032,0.033 -0.048,0.078 -0.048,0.136l-0,0.009c-0,0.058 0.016,0.103 0.048,0.135c0.033,0.033 0.074,0.049 0.124,0.049Z" style="fill:#fff;fill-rule:nonzero;"/></g><g transform="matrix(34,0,0,34,55.9054,64.4952)"><path d="M0.066,-0l0,-0.7l0.132,0l0,0.289l0.26,0l0,-0.289l0.132,0l-0,0.7l-0.132,-0l-0,-0.291l-0.26,0l-0,0.291l-0.132,-0Z" style="fill:#fff;fill-rule:nonzero;"/></g><g transform="matrix(34,0,0,34,78.2094,64.4952)"><rect x="0.066" y="-0.7" width="0.132" height="0.7" style="fill:#fff;fill-rule:nonzero;"/></g><g transform="matrix(34,0,0,34,87.1854,64.4952)"><path d="M0.308,0.014c-0.048,0 -0.092,-0.011 -0.131,-0.033c-0.039,-0.021 -0.069,-0.053 -0.092,-0.095c-0.023,-0.041 -0.035,-0.092 -0.035,-0.152l0,-0.168c0,-0.09 0.025,-0.159 0.076,-0.207c0.051,-0.049 0.119,-0.073 0.206,-0.073c0.086,0 0.152,0.023 0.199,0.069c0.047,0.045 0.071,0.107 0.071,0.185l-0,0.004l-0.13,0l-0,-0.008c-0,-0.025 -0.005,-0.047 -0.016,-0.067c-0.01,-0.02 -0.025,-0.036 -0.046,-0.047c-0.021,-0.012 -0.047,-0.018 -0.078,-0.018c-0.047,0 -0.083,0.014 -0.11,0.043c-0.027,0.029 -0.04,0.068 -0.04,0.117l-0,0.172c-0,0.049 0.013,0.088 0.04,0.118c0.027,0.029 0.064,0.044 0.112,0.044c0.048,0 0.083,-0.013 0.105,-0.038c0.022,-0.025 0.033,-0.057 0.033,-0.096l-0,-0.01l-0.166,0l-0,-0.112l0.296,0l-0,0.358l-0.122,0l-0,-0.067l-0.018,0c-0.005,0.011 -0.012,0.023 -0.023,0.036c-0.01,0.013 -0.025,0.023 -0.046,0.032c-0.021,0.009 -0.049,0.013 -0.085,0.013Z" style="fill:#fff;fill-rule:nonzero;"/></g><g transform="matrix(34,0,0,34,109.693,64.4952)"><path d="M0.066,-0l0,-0.7l0.132,0l0,0.289l0.26,0l0,-0.289l0.132,0l-0,0.7l-0.132,-0l-0,-0.291l-0.26,0l-0,0.291l-0.132,-0Z" style="fill:#fff;fill-rule:nonzero;"/></g></g></g><defs><radialGradient id="_Radial2" cx="0" cy="0" r="1" gradientUnits="userSpaceOnUse" gradientTransform="matrix(64,0,0,64.0001,64,64)"><stop offset="0" style="stop-color:#1c1f26;stop-opacity:0"/><stop offset="0.48" style="stop-color:#1c1f26;stop-opacity:0.27"/><stop offset="1" style="stop-color:#1c1f26;stop-opacity:1"/></radialGradient></defs></svg>