<svg clip-rule="evenodd" fill-rule="evenodd" stroke-linejoin="round" stroke-miterlimit="2" viewBox="0 0 128 128" xmlns="http://www.w3.org/2000/svg"><radialGradient id="b" cx="0" cy="0" gradientTransform="matrix(64 0 0 64.0001 64 64)" gradientUnits="userSpaceOnUse" r="1"><stop offset="0" stop-color="#1c1f26" stop-opacity="0"/><stop offset=".48" stop-color="#1c1f26" stop-opacity=".27"/><stop offset="1" stop-color="#1c1f26"/></radialGradient><clipPath id="a"><path d="M0 0h128v128H0z"/></clipPath><path d="M0 0h128v128H0z" fill="none"/><g clip-path="url(#a)"><circle cx="64" cy="64" fill="#565d6a" r="64"/><path d="M98.881 10.341L87.446 55.64l-1.298-.567L96.492 9.466a25.75 25.75 0 0 0-4.758-1.085l-2.015-2.99a64.607 64.607 0 0 1 9.162 4.95zM.525 63.129a25.863 25.863 0 0 0 1.439 4.663L.383 71.031a64.537 64.537 0 0 1-.295-10.409l44.948-12.747.158 1.408zm92.504 57.91L59.517 88.486l1.14-.841 34.325 31.762a25.888 25.888 0 0 0 3.319-3.578l3.596-.25a64.744 64.744 0 0 1-8.868 5.46zM42.36 54.585L3.296 69.713a24.922 24.922 0 0 1-1.102-2.07l39.859-14.411zm5.364-9.958L.517 55.8c.122-.951.266-1.9.432-2.848l46.775-9.789zm2.306-4.184L1.91 48.428c.252-1.001.528-2 .83-2.994l47.461-6.511zm2.142-3.835L4.174 41.242a64.452 64.452 0 0 1 1.276-3.097l47.079-3.109zm2.019-3.575L7.299 34.317a64.084 64.084 0 0 1 1.762-3.146l45.692.246zm1.931-3.382l-44.863-1.91a64.388 64.388 0 0 1 2.289-3.129l43.363 3.391zM30.587 77.743l-8.946 5.939a40.558 40.558 0 0 1-1.922-.706l10.107-6.45zm4.678-9.441L14.072 80.203a35.365 35.365 0 0 1-1.8-1.152l22.391-12.006zm3.842-7.51L7.882 75.479a29.88 29.88 0 0 1-1.54-1.611L38.653 59.49zm18.914-34.38L16.04 21.607a64.08 64.08 0 0 1 2.856-3.029l40.215 6.178a42.63 42.63 0 0 0-1.09 1.656zm2.127-3.091l-38.527-7.296a64.217 64.217 0 0 1 3.445-2.832l36.391 8.478a42.696 42.696 0 0 0-1.309 1.65zm2.409-2.914L27.95 11.111l.204-.137a63.616 63.616 0 0 1 3.828-2.39l32.119 10.208a40.782 40.782 0 0 0-1.544 1.615zm2.688-2.705L34.943 6.981a64.16 64.16 0 0 1 4.589-2.109l27.507 11.28a40.595 40.595 0 0 0-1.794 1.55zm2.965-2.465L42.482 3.738a64.577 64.577 0 0 1 5.086-1.579l22.699 11.632c-.696.456-1.383.938-2.057 1.446zm3.237-2.188L50.42 1.47a64.838 64.838 0 0 1 5.493-.948l17.871 11.231c-.789.401-1.568.833-2.337 1.296zm3.511-1.866L58.589.236c1.92-.165 3.85-.244 5.784-.235L77.59 10.093c-.885.324-1.763.688-2.632 1.09zm3.785-1.489L66.805.058c1.978.085 3.958.261 5.933.532l8.952 8.294c-.987.222-1.971.492-2.947.81zm4.062-1.038L74.871.919c1.981.341 3.954.776 5.914 1.31l5.297 6a29.838 29.838 0 0 0-3.277.427zm4.337-.486l-4.56-5.424a63.8 63.8 0 0 1 5.699 2.033l2.471 3.491a27.829 27.829 0 0 0-3.61-.1zm-4.168 41.798l6.43-41.395c.786-.01 1.568.017 2.344.081l-7.449 41.724zm5.941 9.623l13.928-46.467c.762.58 1.512 1.179 2.25 1.797l-14.91 45.403zm2.471 4.09l17.144-45.665a62.392 62.392 0 0 1 2.178 2.215L92.617 64.589zm2.25 3.772l19.985-43.884a63.733 63.733 0 0 1 2.045 2.654L94.819 68.548zm2.087 3.537l22.333-41.253a64.703 64.703 0 0 1 1.844 3.1L96.84 72.285zm1.963 3.363l24.086-37.897a64.121 64.121 0 0 1 1.565 3.546L98.718 75.86zm-28.882-46.16l-.67-10.717a41.675 41.675 0 0 1 1.572-1.312l.533 11.978zm5.837 8.771l.29-24.303a36.782 36.782 0 0 1 1.898-.984l-.798 25.394zm4.584 7.083l2.892-34.385a29.683 29.683 0 0 1 2.166-.529l-3.704 35.172zm20.317 33.57l25.151-33.954a63.373 63.373 0 0 1 1.195 3.988l-25.457 31.738a43.743 43.743 0 0 0-.889-1.772zm1.613 3.387l25.581-29.717c.296 1.463.539 2.93.731 4.399l-25.538 27.277a42.32 42.32 0 0 0-.774-1.959zm1.319 3.543l25.353-25.322.018.245c.105 1.505.156 3.009.155 4.511l-24.899 22.712a42.777 42.777 0 0 0-.627-2.146zm.999 3.681l24.435-20.881a63.93 63.93 0 0 1-.468 5.028l-23.523 18.182a40.067 40.067 0 0 0-.444-2.329zm.652 3.8l22.822-16.531a64.444 64.444 0 0 1-1.176 5.194l-21.423 13.842a38.934 38.934 0 0 0-.223-2.505zm.275 3.898l20.542-12.421a64.404 64.404 0 0 1-1.926 5.232l-18.661 9.861c.047-.883.063-1.775.045-2.672zm-.139 3.973l17.665-8.702a63.798 63.798 0 0 1-2.688 5.127l-15.349 6.4a34.44 34.44 0 0 0 .372-2.825zm-.603 4.022l14.314-5.52a63.854 63.854 0 0 1-3.426 4.872l-11.66 3.606c.302-.966.56-1.953.772-2.958zm-1.131 4.037l10.667-3.002a63.721 63.721 0 0 1-4.091 4.467l-7.845 1.587c.476-.986.899-2.005 1.269-3.052zm-1.749 4l6.978-1.238a63.617 63.617 0 0 1-4.61 3.92l-4.259.394a27.67 27.67 0 0 0 1.891-3.076zM66.665 87.449l32.634 26.266a24.657 24.657 0 0 1-1.243 1.989L65.647 88.391zm-11.305.333l33.279 35.296a63.42 63.42 0 0 1-2.682 1.05L54.092 88.514zm-4.777.095l30.975 37.68c-.993.283-1.995.543-3.007.779l-29.37-37.847zm-4.392.063l28.012 39.25a64.65 64.65 0 0 1-3.321.444L44.651 88.417zm-4.106.039l24.559 39.967a64.447 64.447 0 0 1-3.606.047L40.405 88.299zm-3.895.018l20.778 39.808a64.206 64.206 0 0 1-3.854-.418l-18.745-39.25zm54.418-1.932l9.615 4.778c.135.674.251 1.347.351 2.018l-10.64-5.528zm-10.515.669l20.902 12.403a35.826 35.826 0 0 1-.097 2.136L81.305 87.884zm-8.426.429l28.332 19.697c-.183.727-.392 1.44-.625 2.14L72.767 88.206zm-39.231.809l16.829 38.759a63.948 63.948 0 0 1-4.05-.959L32.457 87.856c.655.054 1.315.093 1.979.116zm-3.74-.296l12.945 37.013a63.653 63.653 0 0 1-4.175-1.567L28.612 87.367c.688.119 1.383.223 2.084.309zm-3.728-.63l9.253 34.618a63.975 63.975 0 0 1-4.205-2.228l-7.219-32.92c.714.196 1.438.372 2.171.53zm-3.687-.975l5.866 31.603a64.082 64.082 0 0 1-4.121-2.92l-3.984-29.462c.734.28 1.48.54 2.239.779zm-3.617-1.335l2.906 28.03a64.586 64.586 0 0 1-3.911-3.615l-1.276-25.474c.743.375 1.504.729 2.281 1.059zm-3.513-1.71l.486 23.999a64.135 64.135 0 0 1-3.568-4.283l.791-21.092c.741.483 1.505.942 2.291 1.376zm-3.371-2.107l-1.297 19.649a64.305 64.305 0 0 1-3.096-4.891l2.132-16.493a34.823 34.823 0 0 0 2.261 1.735zm-3.183-2.533L7.221 93.542a63.571 63.571 0 0 1-2.506-5.404l2.708-11.9a32.663 32.663 0 0 0 2.174 2.148zm-2.93-2.999L3.934 86.126a63.224 63.224 0 0 1-1.823-5.776l2.548-7.588a29.854 29.854 0 0 0 2.008 2.625zm-2.589-3.514l-2.417 6.662a63.45 63.45 0 0 1-1.089-5.953l1.787-3.885a27.772 27.772 0 0 0 1.719 3.176z" fill="url(#b)"/><g fill="#fff" fill-rule="nonzero"><path d="M26.005 76.376c-1.734 0-3.06-.34-4.012-.986-.986-.646-1.666-1.394-2.108-2.244h-.476V75.9h-2.618V52.1h2.686v9.792h.476c.272-.51.646-1.02 1.156-1.462.51-.476 1.156-.85 1.972-1.156.782-.34 1.768-.476 2.924-.476 1.462 0 2.754.34 3.944 1.02 1.224.714 2.142 1.7 2.856 2.958.714 1.292 1.054 2.822 1.054 4.59v.442c0 1.768-.374 3.298-1.088 4.59-.68 1.292-1.632 2.278-2.856 2.958-1.156.68-2.482 1.02-3.91 1.02zm-.714-2.38c1.734 0 3.128-.544 4.216-1.666 1.054-1.088 1.598-2.618 1.598-4.59v-.306c0-1.972-.544-3.502-1.598-4.624-1.088-1.088-2.482-1.632-4.216-1.632-1.7 0-3.094.544-4.216 1.632-1.088 1.122-1.632 2.652-1.632 4.624v.306c0 1.972.544 3.502 1.632 4.59 1.122 1.122 2.516 1.666 4.216 1.666zM38.109 75.9V52.1h4.488v9.826h8.84V52.1h4.488v23.8h-4.488v-9.894h-8.84V75.9z"/><path d="M60.413 52.1h4.488v23.8h-4.488z"/><path d="M77.617 76.376c-1.632 0-3.128-.374-4.454-1.122-1.326-.714-2.346-1.802-3.128-3.23-.782-1.394-1.19-3.128-1.19-5.168v-5.712c0-3.06.85-5.406 2.584-7.038 1.734-1.666 4.046-2.482 7.004-2.482 2.924 0 5.168.782 6.766 2.346 1.598 1.53 2.414 3.638 2.414 6.29v.136h-4.42v-.272c0-.85-.17-1.598-.544-2.278a3.552 3.552 0 0 0-1.564-1.598c-.714-.408-1.598-.612-2.652-.612-1.598 0-2.822.476-3.74 1.462s-1.36 2.312-1.36 3.978v5.848c0 1.666.442 2.992 1.36 4.012.918.986 2.176 1.496 3.808 1.496s2.822-.442 3.57-1.292 1.122-1.938 1.122-3.264v-.34h-5.644v-3.808h10.064V75.9h-4.148v-2.278h-.612c-.17.374-.408.782-.782 1.224-.34.442-.85.782-1.564 1.088s-1.666.442-2.89.442zm14.28-.476V52.1h4.488v9.826h8.84V52.1h4.488v23.8h-4.488v-9.894h-8.84V75.9z"/></g></g></svg>