<?xml version="1.0" encoding="UTF-8" standalone="no"?>
<!DOCTYPE svg PUBLIC "-//W3C//DTD SVG 1.1//EN" "http://www.w3.org/Graphics/SVG/1.1/DTD/svg11.dtd">
<svg width="100%" height="100%" viewBox="0 0 400 400" version="1.1" xmlns="http://www.w3.org/2000/svg" xmlns:xlink="http://www.w3.org/1999/xlink" xml:space="preserve" xmlns:serif="http://www.serif.com/" style="fill-rule:evenodd;clip-rule:evenodd;stroke-linejoin:round;stroke-miterlimit:2;">
    <g id="bIB01-Curves" serif:id="bIB01 Curves">
        <g>
            <g transform="matrix(3.29863,0,0,3.78214,-278.85,-408.442)">
                <ellipse cx="145.166" cy="160.872" rx="60.48" ry="52.748" style="fill:white;"/>
            </g>
            <g transform="matrix(3.29037,0,0,3.77266,-277.65,-406.917)">
                <ellipse cx="145.166" cy="160.872" rx="60.48" ry="52.748" style="fill:rgb(0,0,13);"/>
            </g>
        </g>
        <g transform="matrix(3.80166,0,0,3.80365,-5.68095,-6.29064)">
            <path d="M66.209,14.349L67.322,12.755L57.673,4.283C56.379,4.28 53.736,4.302 53.518,4.42C53.299,4.539 61.887,11.089 66.209,14.349ZM70.865,12.527L68.957,13.563C65.589,10.633 59.009,4.745 59.626,4.636C60.244,4.527 63.01,5.201 64.259,5.512L70.865,12.527ZM72.141,12.953L74.626,13.17L70.685,6.969C69.236,6.461 66.221,5.464 65.758,5.546C65.295,5.628 69.75,10.482 72.141,12.953ZM75.227,12.664L77.691,13.124L76.456,9.754L71.632,7.645L75.227,12.664ZM77.157,9.816L78.493,13.508L83.446,14.166C77.543,10.021 77.157,9.816 77.157,9.816ZM64.029,13.837L62.995,15.318C56.774,11.629 46.965,5.082 46.965,5.082C47.167,4.794 49.967,4.417 51.212,4.33L64.029,13.837ZM60.302,16.282L61.373,15.176L45.151,4.982L41.174,6.107L60.302,16.282ZM59.134,16.909L58.439,18.212L35.359,8.135L38.812,6.825L59.134,16.909ZM55.67,19.923L56.427,18.531L33.114,8.98L30.028,10.863L55.67,19.923ZM54.36,20.59L53.693,21.844L25.029,13.925L27.999,11.781L54.36,20.59ZM51.776,24.327L51.959,22.948L22.659,15.576L20.531,17.63L51.776,24.327ZM50.153,25.302L50.044,26.548L16.255,21.983L18.13,19.628L50.153,25.302ZM48.044,29.164L48.429,27.942L14.121,24.103L12.673,26.348L48.044,29.164ZM46.535,30.514L46.16,31.778L9.564,31.668L10.623,29.1L46.535,30.514ZM44.667,34.739L45.156,33.554L7.791,34.434L7.12,36.848L44.667,34.739ZM21.864,67.621L24.909,66.213L23.472,68.32L21.864,67.621ZM38.113,44.062L5.91,51.515L4.547,47.688C3.917,54.889 4.185,56.587 4.185,56.587L6.423,53.053L6.541,53.309L38.124,45.258L38.113,44.062ZM6.349,54.125L7.686,56.335L4.769,62.639L4.125,57.28L6.349,54.125ZM8.027,57.202L8.753,58.233L8.214,57.02L35.321,48.637L35.684,49.571L8.928,58.481L9.389,59.136C8.449,62.449 6.495,68.986 6.193,68.624C5.891,68.263 5.245,65.146 4.96,63.632L8.027,57.202ZM11.862,62.673L11.481,62.025C10.619,66.471 8.867,74.88 8.47,74.405C8.067,73.923 7.268,71.183 6.913,69.943L9.67,60.695L11.283,61.689L11.011,61.227L32.421,53.471L32.738,54.713L11.862,62.673ZM11.636,63.658L13.57,63.827C12.913,69.212 11.547,79.949 11.336,79.819C11.124,79.689 9.785,77.404 9.141,76.278L11.636,63.658ZM16.011,66.134L14.216,65.977L12.409,81.867C13.106,82.904 14.831,85.148 15.18,85.179C15.18,85.179 15.934,73.384 16.011,66.134ZM17.019,67.339L18.688,67.345L18.959,89.696L16.415,86.962L17.019,67.339ZM21.353,68.695L19.834,68.562L20.759,91.388L23.614,93.731L21.353,68.695ZM22.661,69.646L24.318,69.791L28.883,97.123L25.967,95.472L22.661,69.646ZM27.043,70.448L25.776,70.617L31.259,98.587L34.338,99.972L27.043,70.448ZM28.915,71.31L30.056,70.991L40.13,102.154L37.267,101.484L28.915,71.31ZM33.232,71.269L31.815,71.564L43.245,103.124L46.007,103.365L33.232,71.269ZM35.129,71.853L36.786,71.998L51.92,104.162L49.296,103.932L35.129,71.853ZM39.86,71.849L38.581,72.155L55.396,104.187L57.918,103.989L39.86,71.849ZM46.408,78.411L48.197,78.647L63.85,102.973L61.43,103.598L46.408,78.411ZM46.464,72.707L47.617,72.249L69.555,101.38L67.399,102.168L46.464,72.707ZM74.747,72.251L73.606,72.57L82.45,79.624L82.608,77.823L74.747,72.251ZM66.618,72.936L67.531,72.039L82.741,84.254L81.917,85.717L66.618,72.936ZM81.139,89.835L61.407,72.061L60.782,72.844L80.19,91.148L81.139,89.835ZM55.235,72.638L56.262,72.03L78.08,94.591L76.968,96.168L55.235,72.638ZM50.504,72.642L51.531,72.034L74.606,99.006L77.031,96.153L81.242,96.339C81.242,96.339 79.908,97.419 73.368,100.461L74.527,99.098L72.864,100.135L50.504,72.642ZM42.261,38.006L42.444,36.777L5.901,40.128L5.503,42.394L42.261,38.006ZM40.565,41.486L40.554,40.29L4.695,45.958L4.762,48.042L40.565,41.486ZM29.475,59.154L29.179,60.305L17.392,66.222L15.916,65.186L29.475,59.154ZM75.378,55.505L76.154,56.522L93.482,23.513L91.772,22.387L75.378,55.505ZM77.82,59.541L76.918,58.582L95.425,26.753L96.936,28.56L77.82,59.541ZM78.503,61.136L79.22,62.488L100.043,33.716L98.489,31.487L78.503,61.136ZM80.715,65.077L79.894,64.327L100.465,37.52L101.49,40.122L80.715,65.077ZM80.821,66.659L81.498,68.096L102.803,46.098L101.948,42.953L80.821,66.659ZM82.627,70.568L81.851,69.55L103.747,48.487L104.081,51.855L82.627,70.568ZM82.639,72.248L83.338,73.761L104.022,58.011L103.998,54.651L82.639,72.248ZM83.808,76.76L83.167,75.373L103.688,60.924L103.083,64.576L83.808,76.76ZM83.326,78.363L84.151,79.818L101.417,70.56L102.516,66.985L83.326,78.363ZM84.369,82.934L83.611,81.295C89.918,77.748 100.491,72.523 100.491,72.523C100.638,72.842 99.556,75.46 99.006,76.584L84.369,82.934ZM82.832,84.568L83.647,86.334L95.8,82.212C96.454,81.091 97.762,78.787 97.77,78.538C97.777,78.29 87.814,82.455 82.832,84.568ZM82.065,89.521L82.129,87.346C86.348,85.894 94.731,83.138 94.515,83.729C94.299,84.32 92.328,86.381 91.432,87.308L82.065,89.521ZM80.856,90.543L79.862,92.691L86.948,92.152C88.114,91.15 90.488,89.034 90.65,88.592C90.812,88.148 84.188,89.708 80.856,90.543ZM79.282,93.42L78.037,95.685L81.871,96.046L86.184,92.814L79.282,93.42ZM74.637,52.844L73.668,52.07L87.693,18.124L89.447,19.606L74.637,52.844ZM69.204,44.969L70.241,45.559L79.723,13.794L77.928,13.637L69.204,44.969ZM71.501,48.938L72.537,49.528L85.217,15.502L83.386,14.515L71.501,48.938ZM67.886,39.917L66.898,39.763L72.154,13.132L74.2,13.311L67.886,39.917ZM63.796,35.323L65.026,35.67L68.607,13.892L66.932,13.905L63.796,35.323ZM61.867,30.23L60.311,30.094L61.499,16.515L63.134,15.754L61.867,30.23ZM57.78,19.686L57.489,23.01L56.128,21.077L57.78,19.686Z" style="fill:white;"/>
        </g>
        <g>
            <g transform="matrix(1.77561,0,0,1.64413,-137.228,-131.59)">
                <ellipse cx="189.922" cy="201.681" rx="78.846" ry="85.151" style="fill:white;"/>
            </g>
            <g transform="matrix(2.23216,0,0,2.55935,-124.034,-211.728)">
                <ellipse cx="145.166" cy="160.872" rx="60.48" ry="52.748" style="fill:rgb(0,0,13);"/>
            </g>
        </g>
        <g id="White-Text" serif:id="White Text" transform="matrix(1,0,0,1,-0.239251,-0.995555)">
            <path d="M247.778,281.358L247.778,229.004L235.679,233.832L235.679,227.159L247.778,221.571L254.939,221.571L254.939,281.358L247.778,281.358Z" style="fill:white;fill-rule:nonzero;"/>
            <path d="M150.327,283.888C143.852,283.888 138.599,281.049 134.566,275.37C130.533,269.692 128.517,261.969 128.517,252.204C128.517,242.438 130.533,234.716 134.566,229.038C138.599,223.359 143.852,220.52 150.327,220.52C156.873,220.52 162.154,223.359 166.169,229.038C170.183,234.716 172.191,242.438 172.191,252.204C172.191,261.969 170.183,269.692 166.169,275.37C162.154,281.049 156.873,283.888 150.327,283.888ZM150.327,277.92C155.39,277.92 159.052,275.316 161.313,270.108C163.574,264.899 164.704,258.931 164.704,252.204C164.704,245.513 163.574,239.554 161.313,234.327C159.052,229.101 155.39,226.488 150.327,226.488C145.299,226.488 141.655,229.101 139.395,234.327C137.134,239.554 136.004,245.513 136.004,252.204C136.004,258.931 137.134,264.899 139.395,270.108C141.655,275.316 145.299,277.92 150.327,277.92Z" style="fill:white;fill-rule:nonzero;"/>
            <path d="M255.176,150.302C259.914,151.459 263.341,153.403 265.457,156.134C267.573,158.865 268.631,161.948 268.631,165.384C268.631,168.241 267.899,170.927 266.434,173.441C264.969,175.954 262.889,177.962 260.195,179.463C257.5,180.964 252.843,181.714 246.224,181.714L228.266,181.714L228.266,121.927L244.163,121.927C251.397,121.927 256.252,122.451 258.73,123.5C261.207,124.549 263.079,126.086 264.345,128.112C265.611,130.137 266.244,132.38 266.244,134.839C266.244,137.588 265.448,140.319 263.857,143.032C262.265,145.744 259.372,148.168 255.176,150.302ZM236.079,147.914L243.566,147.914C247.4,147.914 250.275,147.408 252.192,146.395C254.109,145.383 255.637,143.918 256.777,142.001C257.916,140.084 258.486,138.113 258.486,136.087C258.486,133.845 257.59,131.928 255.8,130.336C254.01,128.745 250.8,127.949 246.17,127.949L236.079,127.949L236.079,147.914ZM236.079,175.746L247.038,175.746C252.247,175.746 255.8,174.779 257.699,172.844C259.598,170.909 260.547,168.621 260.547,165.981C260.547,163.847 259.932,161.876 258.703,160.067C257.473,158.259 255.646,156.785 253.223,155.645C250.8,154.506 247.002,153.937 241.83,153.937L236.079,153.937L236.079,175.746Z" style="fill:white;fill-rule:nonzero;"/>
            <rect x="146.254" y="122.391" width="7.813" height="59.787" style="fill:white;fill-rule:nonzero;"/>
        </g>
    </g>
</svg>
