<svg fill="none" height="24" width="24" xmlns="http://www.w3.org/2000/svg"><circle cx="12" cy="12" fill="#f1b90c" r="12"/><path d="M7.316 5.757L12.094 3l4.777 2.757-1.756 1.019-3.021-1.739-3.021 1.739zm9.555 3.477l-1.756-1.018-3.021 1.738-3.021-1.738-1.757 1.018v2.037l3.021 1.739v3.477l1.757 1.018 1.756-1.018V13.01l3.021-1.739zm0 5.515V12.71l-1.756 1.019v2.037l1.756-1.019zm1.248.72l-3.021 1.738v2.037l4.777-2.757v-5.514l-1.756 1.018v3.477zm-1.757-7.973l1.757 1.018v2.037l1.756-1.018V7.496l-1.756-1.019zm-6.025 10.448v2.038L12.094 21l1.756-1.018v-2.038l-1.756 1.019zm-3.02-3.196l1.756 1.019V13.73l-1.757-1.02v2.037zm3.02-7.252l1.757 1.018 1.756-1.018-1.756-1.019zM6.07 8.514l1.757-1.018L6.07 6.477 4.314 7.496v2.037l1.756 1.018zm0 3.477l-1.756-1.018v5.514l4.777 2.757v-2.037L6.07 15.468z" fill="#fff"/></svg>