<svg xmlns="http://www.w3.org/2000/svg" viewBox="0 0 800 800"><path fill="#022028" d="M361 1c26.354 0 52.708 0 79.74.31 4.193 1.052 7.677 2.045 11.231 2.5C500.368 10 546.074 24.488 589.142 47.5c44.699 23.884 83.507 54.95 116.461 93.465 20.564 24.032 38.075 50.089 52.379 78.225 21.004 41.318 34.614 84.99 40.266 131.08.445 3.634 1.813 7.156 2.752 10.73 0 26.354 0 52.708-.31 79.74-1.174 5.686-2.137 10.682-2.891 15.71-7.026 46.828-21.07 91.297-43.501 133.15-23.06 43.027-52.772 80.716-89.428 112.816-29.334 25.688-61.768 46.757-97.371 62.893-36.815 16.685-75.149 27.846-115.272 32.886-3.8.477-7.487 1.849-11.227 2.805-26.354 0-52.708 0-79.74-.31-5.686-1.174-10.682-2.138-15.71-2.892-46.827-7.024-91.297-21.068-133.15-43.5-43.027-23.06-80.715-52.772-112.816-89.428-25.688-29.334-46.756-61.769-62.892-97.372-16.686-36.814-27.846-75.148-32.886-115.27-.478-3.8-1.85-7.488-2.806-11.228 0-26.354 0-52.708.31-79.74 1.175-5.686 2.138-10.682 2.892-15.71 7.024-46.828 21.069-91.298 43.5-133.15 23.062-43.027 52.773-80.716 89.429-112.816 29.334-25.688 61.768-46.757 97.371-62.892C271.317 20.008 309.65 8.845 349.773 3.806c3.8-.477 7.487-1.85 11.227-2.806m60.5 329.927h-75.568c0 2.787-.095 4.773.015 6.748 1.346 24.105 2.155 48.257 4.223 72.3 3.096 36 15.201 69.06 34.808 99.402 20.603 31.883 48.555 55.454 82.169 72.54 35.974 18.288 74.352 27.929 114.466 30.825 8.71.629 17.505.092 26.687.092v-5.429c0-28.997-.12-57.995.117-86.99.04-4.912-1.708-6.048-6.204-6.394-14.11-1.086-28.235-2.263-42.258-4.125-21.776-2.89-42.108-10.776-60.288-22.638-20.412-13.32-32.288-34.105-42.521-55.691-.325-.685-.214-1.577-.357-2.816 2.043-.09 3.835-.231 5.627-.235 9.833-.023 19.672.226 29.496-.054 38.698-1.105 70.33-17.083 93.76-47.555 23.293-30.294 26.928-65.429 19.641-101.753-7.944-39.6-32.384-66.672-68.117-84.097-16.39-7.992-33.568-11.534-52.084-11.441-92.988.47-185.98.215-278.971.215h-7.285v301.79h98.474V281.467c1.73-.127 2.877-.284 4.022-.285 62.16-.012 124.322-.021 186.482.03 2.127.002 4.373.29 6.36 1.009 9.941 3.59 18.252 18.21 16.329 28.416-1.881 9.98-14.56 20.279-25.03 20.286-20.997.014-41.995.004-63.993.004z"/><path d="M360.531 1c-3.27.957-6.958 2.329-10.758 2.806-40.123 5.039-78.456 16.202-115.27 32.886-35.604 16.135-68.038 37.204-97.372 62.892-36.656 32.1-66.367 69.789-89.428 112.816-22.432 41.852-36.477 86.322-43.5 133.15-.755 5.028-1.718 10.024-2.894 15.242C1 241.072 1 121.146 1 1h359.531zM801 360.531c-.94-3.105-2.307-6.627-2.752-10.261-5.652-46.09-19.262-89.762-40.266-131.08-14.304-28.136-31.815-54.193-52.379-78.225-32.954-38.514-71.762-69.581-116.46-93.465C546.073 24.488 500.367 10 451.97 3.81c-3.554-.455-7.038-1.448-10.763-2.5C560.928 1 680.854 1 801 1v359.531zM1 441.47c.957 3.27 2.328 6.958 2.806 10.758 5.04 40.123 16.2 78.457 32.886 115.271 16.136 35.603 37.204 68.038 62.892 97.372 32.1 36.656 69.79 66.367 112.816 89.428 41.853 22.432 86.323 36.476 133.15 43.5 5.028.754 10.024 1.718 15.242 2.893C241.072 801 121.146 801 1 801V441.469zM441.469 801c3.27-.956 6.958-2.328 10.758-2.805 40.123-5.04 78.457-16.201 115.272-32.886 35.603-16.136 68.037-37.205 97.37-62.893 36.657-32.1 66.368-69.789 89.429-112.816 22.431-41.853 36.475-86.322 43.5-133.15.755-5.028 1.718-10.024 2.893-15.242C801 560.928 801 680.854 801 801H441.469z"/><path fill="#00E07C" d="M422 330.927c21.498 0 42.496.01 63.494-.004 10.468-.007 23.148-10.305 25.029-20.286 1.923-10.207-6.388-24.826-16.328-28.416-1.988-.718-4.234-1.007-6.36-1.009-62.161-.051-124.322-.042-186.483-.03-1.145 0-2.291.158-4.022.285v204.154h-98.474V183.83h7.285c92.99 0 185.983.254 278.971-.215 18.516-.093 35.694 3.449 52.084 11.441 35.733 17.425 60.173 44.497 68.117 84.097 7.287 36.324 3.652 71.459-19.64 101.753-23.43 30.472-55.063 46.45-93.76 47.555-9.825.28-19.664.031-29.497.054-1.792.004-3.584.146-5.627.235.143 1.24.032 2.13.357 2.816 10.233 21.586 22.11 42.371 42.521 55.69 18.18 11.863 38.512 19.749 60.288 22.64 14.023 1.86 28.148 3.038 42.258 4.124 4.496.346 6.244 1.482 6.204 6.394-.237 28.995-.117 57.993-.117 86.99v5.429c-9.182 0-17.977.537-26.687-.092-40.114-2.896-78.492-12.537-114.466-30.824-33.614-17.087-61.566-40.658-82.169-72.541-19.607-30.342-31.712-63.401-34.808-99.402-2.068-24.043-2.877-48.195-4.223-72.3-.11-1.975-.015-3.961-.015-6.748H422z"/></svg>