<svg id="svg" version="1.1" xmlns="http://www.w3.org/2000/svg" xmlns:xlink="http://www.w3.org/1999/xlink" width="400" height="400" viewBox="0, 0, 400,400"><g id="svgg"><path id="path0" d="M-0.000 74.433 C -0.000 150.877,0.063 153.969,1.456 145.769 C 1.715 144.246,2.212 142.460,2.561 141.800 C 2.910 141.140,3.197 140.150,3.200 139.600 C 3.203 139.050,3.473 138.085,3.801 137.456 C 4.129 136.827,4.657 135.387,4.975 134.256 C 5.292 133.125,6.031 130.940,6.618 129.400 C 7.204 127.860,8.006 125.700,8.400 124.600 C 8.794 123.500,9.404 122.060,9.756 121.400 C 10.107 120.740,10.396 120.011,10.398 119.781 C 10.399 119.550,11.109 117.915,11.976 116.146 C 12.843 114.378,13.670 112.459,13.815 111.882 C 13.960 111.305,14.322 110.631,14.619 110.384 C 14.916 110.138,15.372 109.275,15.632 108.468 C 15.892 107.661,16.245 106.820,16.417 106.600 C 16.786 106.129,19.674 100.898,20.834 98.600 C 21.279 97.720,22.166 96.190,22.806 95.200 C 23.446 94.210,24.228 92.837,24.544 92.149 C 24.860 91.461,25.328 90.768,25.584 90.610 C 25.840 90.452,26.217 89.935,26.421 89.461 C 26.732 88.743,28.414 86.206,30.904 82.702 C 31.177 82.318,31.850 81.367,32.400 80.588 C 34.171 78.079,39.233 71.452,40.739 69.672 C 41.542 68.722,42.650 67.384,43.200 66.698 C 46.394 62.717,56.163 52.608,60.882 48.400 C 62.733 46.750,65.406 44.368,66.823 43.106 C 69.185 41.005,77.177 34.805,80.625 32.400 C 81.414 31.850,82.361 31.124,82.729 30.786 C 83.098 30.449,84.210 29.656,85.200 29.024 C 86.190 28.392,87.488 27.543,88.084 27.137 C 88.680 26.732,89.341 26.400,89.553 26.400 C 89.765 26.400,90.449 25.995,91.072 25.500 C 91.696 25.005,92.565 24.385,93.003 24.121 C 95.849 22.412,100.918 19.550,102.053 19.011 C 104.121 18.029,105.739 17.198,106.400 16.776 C 106.730 16.566,107.450 16.196,108.000 15.954 C 108.550 15.712,109.270 15.359,109.600 15.169 C 110.889 14.427,115.143 12.425,118.000 11.217 C 119.650 10.519,121.540 9.706,122.200 9.409 C 122.860 9.113,124.210 8.566,125.200 8.194 C 126.190 7.823,128.170 7.076,129.600 6.535 C 131.030 5.994,133.190 5.276,134.400 4.939 C 135.610 4.602,136.792 4.168,137.027 3.975 C 137.262 3.781,138.432 3.417,139.627 3.165 C 140.822 2.913,142.018 2.532,142.284 2.318 C 142.550 2.104,144.068 1.710,145.658 1.442 C 153.838 0.064,150.687 -0.000,74.433 -0.000 L 0.000 0.000 -0.000 74.433 M251.298 0.493 C 251.388 0.764,252.730 1.198,254.280 1.458 C 255.830 1.717,257.436 2.110,257.849 2.330 C 258.738 2.805,262.978 4.206,265.800 4.959 C 266.900 5.252,268.340 5.785,269.000 6.143 C 269.660 6.502,270.522 6.796,270.916 6.798 C 271.310 6.799,272.338 7.160,273.200 7.600 C 274.062 8.040,275.000 8.402,275.284 8.404 C 275.568 8.406,276.700 8.850,277.800 9.391 C 278.900 9.932,279.932 10.381,280.092 10.387 C 280.647 10.411,293.668 16.646,296.800 18.387 C 297.570 18.815,299.910 20.107,302.000 21.257 C 304.090 22.407,305.890 23.470,306.000 23.618 C 306.110 23.767,306.740 24.196,307.400 24.572 C 310.376 26.266,311.811 27.180,315.615 29.800 C 321.288 33.708,321.493 33.856,325.669 37.076 C 334.972 44.246,347.778 56.222,354.227 63.781 C 356.780 66.772,357.629 67.750,358.763 69.000 C 359.533 69.849,365.253 77.278,366.600 79.178 C 367.040 79.799,368.114 81.363,368.986 82.653 C 369.859 83.944,370.678 85.090,370.807 85.200 C 371.191 85.528,373.419 88.951,373.670 89.600 C 373.798 89.930,374.734 91.439,375.751 92.953 C 376.768 94.467,377.600 95.853,377.600 96.033 C 377.600 96.213,378.135 97.153,378.790 98.123 C 379.444 99.092,380.352 100.676,380.807 101.643 C 381.916 103.997,382.763 105.672,383.212 106.400 C 384.051 107.759,389.600 119.401,389.600 119.801 C 389.600 119.972,389.936 120.852,390.348 121.756 C 391.585 124.478,392.847 127.715,393.249 129.200 C 393.457 129.970,393.875 131.050,394.177 131.600 C 394.479 132.150,394.854 133.277,395.009 134.104 C 395.164 134.932,395.630 136.275,396.045 137.089 C 396.460 137.903,396.800 138.987,396.800 139.497 C 396.800 140.008,397.088 141.095,397.439 141.913 C 397.791 142.731,398.296 144.648,398.562 146.174 C 399.939 154.083,400.000 151.056,400.000 74.633 L 400.000 0.000 325.567 0.000 C 266.765 0.000,251.168 0.104,251.298 0.493 M195.441 132.983 C 194.583 133.510,189.809 137.959,184.832 142.871 C 179.855 147.782,174.305 153.240,172.498 155.000 C 162.292 164.944,162.317 165.038,179.668 182.469 C 194.845 197.715,193.715 196.445,193.230 197.720 C 193.012 198.296,187.290 204.312,180.516 211.089 C 165.787 225.827,165.865 225.732,165.894 228.824 C 165.926 232.267,166.225 232.639,180.588 247.132 C 200.351 267.074,197.635 267.073,217.466 247.137 C 235.323 229.185,235.546 228.607,227.596 220.930 C 226.278 219.658,225.200 218.508,225.200 218.374 C 225.200 218.240,220.813 213.730,215.451 208.352 C 207.886 200.765,205.636 198.276,205.409 197.243 C 205.120 195.923,205.231 195.798,217.922 183.056 C 237.176 163.726,237.204 166.396,217.544 146.764 C 201.927 131.169,200.172 130.076,195.441 132.983 M399.021 251.300 C 398.936 251.575,398.754 252.597,398.617 253.571 C 398.370 255.323,397.373 258.726,395.971 262.600 C 395.573 263.700,395.054 265.350,394.817 266.267 C 394.581 267.183,394.121 268.443,393.796 269.067 C 393.471 269.690,393.204 270.493,393.202 270.852 C 393.200 271.431,392.256 273.812,390.607 277.400 C 390.303 278.060,389.934 279.050,389.786 279.600 C 389.336 281.275,384.780 290.744,381.607 296.600 C 380.535 298.580,379.364 300.740,379.007 301.400 C 378.081 303.110,377.094 304.813,376.224 306.200 C 375.810 306.860,375.083 308.030,374.608 308.800 C 373.881 309.977,372.302 312.365,368.400 318.186 C 366.766 320.624,366.001 321.675,363.444 325.000 C 360.691 328.580,360.303 329.059,358.905 330.613 C 358.503 331.060,357.213 332.590,356.039 334.013 C 350.094 341.217,337.139 353.949,331.021 358.600 C 330.442 359.040,329.661 359.688,329.284 360.039 C 328.553 360.722,321.974 365.812,320.539 366.804 C 314.333 371.098,311.319 373.137,310.193 373.800 C 309.447 374.240,307.644 375.320,306.187 376.200 C 302.430 378.470,300.258 379.690,296.600 381.587 C 294.840 382.499,293.130 383.403,292.800 383.595 C 292.470 383.787,290.801 384.610,289.092 385.424 C 287.382 386.238,285.895 387.046,285.787 387.221 C 285.679 387.396,285.088 387.649,284.474 387.784 C 283.860 387.919,282.482 388.472,281.411 389.014 C 280.340 389.557,279.194 390.000,278.864 390.000 C 278.533 390.000,277.979 390.252,277.631 390.560 C 277.284 390.868,276.370 391.310,275.600 391.541 C 274.830 391.773,272.670 392.519,270.800 393.200 C 268.930 393.881,266.770 394.621,266.000 394.845 C 265.230 395.068,263.700 395.587,262.600 395.996 C 258.899 397.375,255.414 398.377,253.233 398.690 C 252.041 398.862,250.991 399.226,250.900 399.501 C 250.767 399.899,265.897 400.000,325.367 400.000 L 400.000 400.000 400.000 325.400 C 400.000 255.562,399.906 248.429,399.021 251.300 M0.000 325.567 L 0.000 400.000 74.633 400.000 C 150.953 400.000,154.229 399.935,146.140 398.572 C 144.595 398.311,142.987 397.920,142.566 397.702 C 142.145 397.484,140.810 397.075,139.600 396.792 C 138.390 396.510,137.040 396.056,136.600 395.784 C 136.160 395.512,135.101 395.167,134.246 395.017 C 133.391 394.866,132.044 394.396,131.252 393.972 C 130.460 393.547,129.447 393.200,129.000 393.200 C 128.553 393.200,127.561 392.864,126.794 392.453 C 126.027 392.043,124.827 391.581,124.128 391.428 C 123.428 391.274,122.656 390.909,122.413 390.616 C 122.170 390.323,121.309 389.959,120.499 389.807 C 119.690 389.656,118.571 389.209,118.014 388.815 C 117.456 388.422,116.427 387.976,115.728 387.824 C 115.028 387.673,114.241 387.290,113.979 386.974 C 113.717 386.658,113.318 386.400,113.093 386.400 C 112.500 386.400,106.881 383.654,106.624 383.239 C 106.505 383.046,105.940 382.771,105.369 382.628 C 104.797 382.484,103.333 381.789,102.116 381.084 C 100.899 380.378,98.800 379.203,97.451 378.474 C 96.103 377.745,94.370 376.739,93.600 376.238 C 92.138 375.288,90.263 374.096,89.144 373.405 C 88.402 372.947,80.897 367.823,79.177 366.600 C 77.075 365.105,69.956 359.597,68.800 358.570 C 67.546 357.457,66.475 356.526,63.781 354.209 C 60.219 351.147,48.914 339.838,45.796 336.219 C 42.954 332.921,42.206 332.066,41.229 331.000 C 40.501 330.205,34.345 322.185,33.199 320.539 C 30.385 316.497,26.928 311.428,26.608 310.876 C 26.392 310.504,25.467 309.030,24.551 307.600 C 23.636 306.170,22.050 303.470,21.027 301.600 C 20.004 299.730,18.999 297.930,18.792 297.600 C 17.388 295.354,10.549 280.932,10.168 279.414 C 10.027 278.852,9.763 278.301,9.582 278.189 C 9.401 278.077,8.955 276.961,8.591 275.710 C 8.227 274.459,7.675 273.072,7.365 272.628 C 7.054 272.185,6.800 271.454,6.800 271.005 C 6.800 270.556,6.464 269.561,6.053 268.794 C 5.643 268.027,5.179 266.770,5.023 266.000 C 4.868 265.230,4.416 263.700,4.020 262.600 C 2.571 258.573,1.850 256.147,1.415 253.828 C 0.058 246.602,0.000 249.541,0.000 325.567 " stroke="none" fill="#f9f9f9" fill-rule="evenodd"></path><path id="path1" d="M196.200 65.075 C 193.703 65.399,188.584 66.496,188.200 66.790 C 187.980 66.958,187.080 67.326,186.200 67.609 C 184.564 68.133,184.213 68.322,180.400 70.728 C 177.038 72.849,148.018 101.944,148.814 102.395 C 149.152 102.587,168.142 102.828,191.014 102.932 C 217.355 103.051,233.480 103.274,235.000 103.539 C 236.320 103.770,239.020 104.219,241.000 104.537 C 242.980 104.854,245.590 105.416,246.800 105.785 C 248.010 106.154,250.129 106.803,251.508 107.228 C 254.324 108.095,255.200 108.184,255.200 107.602 C 255.200 106.986,221.041 73.002,218.686 71.274 C 212.652 66.849,203.015 64.192,196.200 65.075 M280.184 134.327 C 282.625 144.150,283.083 154.089,281.422 161.207 C 280.331 165.879,278.966 170.318,278.415 170.982 C 278.216 171.222,277.500 172.468,276.825 173.752 C 273.195 180.653,263.298 188.691,253.953 192.327 C 252.058 193.064,252.252 195.600,254.203 195.600 C 255.995 195.600,268.800 200.880,268.800 201.619 C 268.800 201.785,269.295 202.097,269.900 202.312 C 273.216 203.489,280.547 210.225,283.492 214.800 C 284.271 216.010,285.211 217.450,285.583 218.000 C 290.147 224.762,292.702 239.307,291.276 250.400 C 290.529 256.203,290.057 256.536,308.032 238.592 C 329.569 217.092,330.614 215.682,332.629 205.390 C 334.123 197.760,332.408 186.648,329.248 183.488 C 329.002 183.242,328.800 182.832,328.800 182.577 C 328.800 181.227,322.944 174.969,303.328 155.357 C 282.497 134.530,279.574 131.874,280.184 134.327 M92.383 157.900 C 70.187 180.212,69.614 180.886,67.055 187.691 C 64.588 194.250,64.413 204.347,66.674 209.596 C 67.007 210.368,67.429 211.494,67.611 212.098 C 68.126 213.802,71.462 219.209,73.229 221.203 C 78.004 226.593,112.998 261.220,113.560 261.112 C 114.143 261.000,114.209 255.473,114.301 199.419 C 114.403 137.705,114.394 137.241,113.188 137.206 C 113.071 137.203,103.708 146.515,92.383 157.900 M247.800 294.039 C 243.952 295.225,240.346 295.329,195.200 295.562 L 149.000 295.800 149.082 296.623 C 149.155 297.359,174.623 323.157,177.800 325.713 C 190.458 335.897,207.678 336.025,220.147 326.027 C 223.972 322.960,252.124 294.524,251.821 294.033 C 251.502 293.518,249.479 293.521,247.800 294.039 " stroke="none" fill="#04e879" fill-rule="evenodd"></path><path id="path2" d="M153.600 0.420 C 153.600 1.051,151.294 1.862,148.666 2.155 C 147.382 2.298,145.852 2.660,145.266 2.960 C 144.679 3.260,143.391 3.640,142.402 3.804 C 141.413 3.969,139.976 4.440,139.208 4.852 C 138.440 5.263,137.357 5.600,136.800 5.600 C 136.243 5.600,135.161 5.931,134.394 6.336 C 133.627 6.741,132.102 7.295,131.005 7.566 C 129.908 7.837,128.828 8.202,128.605 8.377 C 128.382 8.553,127.480 8.925,126.600 9.205 C 125.720 9.485,124.645 9.958,124.211 10.257 C 123.777 10.556,123.147 10.802,122.811 10.804 C 122.475 10.806,121.300 11.250,120.200 11.791 C 119.100 12.332,118.020 12.778,117.800 12.781 C 117.454 12.787,110.900 15.898,109.200 16.864 C 108.870 17.052,107.970 17.512,107.200 17.887 C 106.430 18.262,105.530 18.778,105.200 19.034 C 104.870 19.290,103.925 19.716,103.100 19.980 C 102.275 20.245,101.600 20.601,101.600 20.770 C 101.600 20.940,100.925 21.375,100.100 21.737 C 99.275 22.099,97.880 22.835,97.000 23.372 C 96.120 23.910,94.851 24.676,94.180 25.075 C 91.562 26.631,90.233 27.463,87.755 29.100 C 86.339 30.035,85.005 30.800,84.791 30.800 C 84.576 30.800,84.400 30.962,84.400 31.160 C 84.400 31.359,83.815 31.889,83.100 32.338 C 82.385 32.788,81.080 33.703,80.200 34.371 C 79.320 35.039,78.330 35.708,78.000 35.858 C 77.670 36.008,77.130 36.374,76.800 36.672 C 76.470 36.971,74.940 38.208,73.400 39.422 C 71.860 40.637,70.135 42.028,69.566 42.515 C 68.997 43.002,67.377 44.390,65.966 45.600 C 62.789 48.323,47.129 63.980,45.146 66.415 C 44.347 67.397,42.234 70.000,40.452 72.200 C 38.670 74.400,36.969 76.470,36.671 76.800 C 36.374 77.130,36.008 77.670,35.858 78.000 C 35.708 78.330,35.045 79.320,34.383 80.200 C 32.550 82.639,29.468 87.167,28.838 88.347 C 28.529 88.926,28.149 89.490,27.994 89.600 C 27.839 89.710,27.412 90.385,27.046 91.100 C 26.679 91.815,26.231 92.400,26.050 92.400 C 25.869 92.400,25.419 93.075,25.050 93.900 C 23.859 96.564,22.802 98.400,22.460 98.400 C 22.277 98.400,21.911 99.120,21.647 100.000 C 21.384 100.880,21.022 101.600,20.845 101.600 C 20.667 101.600,20.223 102.275,19.859 103.100 C 19.495 103.925,18.899 105.140,18.534 105.800 C 17.386 107.878,17.253 108.135,15.811 111.089 C 15.035 112.677,14.400 114.240,14.400 114.560 C 14.400 114.881,14.157 115.386,13.860 115.682 C 13.564 115.979,13.086 116.933,12.800 117.801 C 12.513 118.670,11.946 119.925,11.541 120.590 C 11.135 121.256,10.802 122.192,10.801 122.671 C 10.801 123.151,10.544 123.799,10.232 124.111 C 9.919 124.424,9.451 125.472,9.193 126.440 C 8.934 127.408,8.573 128.382,8.390 128.605 C 8.208 128.828,7.837 129.908,7.566 131.005 C 7.295 132.102,6.741 133.627,6.336 134.394 C 5.931 135.161,5.600 136.246,5.600 136.805 C 5.600 137.364,5.321 138.220,4.981 138.706 C 4.641 139.192,4.113 140.807,3.809 142.295 C 3.505 143.783,2.981 145.720,2.645 146.600 C 2.310 147.480,2.027 148.758,2.018 149.440 C 1.993 151.206,1.220 153.200,0.561 153.200 C -0.488 153.200,-0.254 245.860,0.797 246.736 C 1.346 247.194,1.706 248.208,1.956 250.000 C 2.155 251.430,2.696 253.719,3.159 255.087 C 3.621 256.455,4.000 257.941,4.000 258.389 C 4.000 258.837,4.360 259.875,4.800 260.696 C 5.240 261.516,5.600 262.643,5.600 263.200 C 5.600 263.757,5.931 264.839,6.336 265.606 C 6.741 266.373,7.291 267.884,7.558 268.963 C 7.825 270.043,8.304 271.298,8.622 271.752 C 8.940 272.206,9.201 272.943,9.203 273.389 C 9.204 273.835,9.563 274.740,10.000 275.400 C 10.437 276.060,10.796 276.853,10.797 277.161 C 10.799 277.470,11.237 278.646,11.771 279.774 C 12.304 280.903,12.864 282.315,13.014 282.913 C 13.164 283.511,13.440 284.000,13.627 284.000 C 13.815 284.000,14.186 284.765,14.453 285.700 C 14.720 286.635,15.163 287.670,15.438 288.000 C 15.713 288.330,16.059 289.088,16.208 289.684 C 16.357 290.280,16.722 290.969,17.019 291.216 C 17.316 291.462,17.777 292.325,18.043 293.132 C 18.309 293.939,18.820 295.050,19.179 295.600 C 20.318 297.344,20.789 298.158,21.611 299.800 C 22.051 300.680,22.853 302.120,23.392 303.000 C 23.931 303.880,24.656 305.140,25.003 305.800 C 25.351 306.460,26.080 307.630,26.624 308.400 C 28.085 310.470,28.380 310.914,28.915 311.851 C 29.182 312.320,30.255 313.940,31.300 315.451 C 32.344 316.963,33.507 318.650,33.883 319.200 C 34.260 319.750,35.250 321.035,36.084 322.056 C 36.918 323.076,37.600 324.117,37.600 324.368 C 37.600 324.619,37.877 324.931,38.215 325.061 C 38.553 325.191,39.085 325.770,39.397 326.348 C 39.709 326.927,40.647 328.169,41.482 329.108 C 42.317 330.047,43.360 331.274,43.800 331.834 C 46.005 334.641,48.453 337.243,55.619 344.396 C 63.669 352.431,66.598 355.200,67.049 355.200 C 67.192 355.200,67.717 355.605,68.216 356.100 C 69.367 357.240,70.108 357.860,72.400 359.600 C 73.414 360.370,74.504 361.224,74.822 361.497 C 75.941 362.459,79.814 365.434,80.960 366.213 C 81.597 366.646,82.516 367.270,83.000 367.600 C 84.100 368.350,85.730 369.424,87.800 370.764 C 88.680 371.334,89.580 371.938,89.800 372.106 C 91.320 373.267,97.087 376.708,99.926 378.147 C 100.737 378.558,101.490 379.033,101.600 379.202 C 101.710 379.372,102.430 379.797,103.200 380.147 C 103.970 380.497,104.870 380.957,105.200 381.168 C 105.530 381.379,107.186 382.195,108.880 382.981 C 110.573 383.767,112.069 384.588,112.203 384.805 C 112.337 385.022,112.740 385.200,113.097 385.200 C 113.723 385.200,114.518 385.537,119.832 388.050 C 121.169 388.682,122.475 389.200,122.733 389.200 C 122.991 389.200,123.875 389.560,124.696 390.000 C 125.516 390.440,126.412 390.800,126.686 390.800 C 127.237 390.800,131.677 392.473,134.244 393.648 C 135.148 394.061,136.318 394.401,136.844 394.402 C 137.370 394.404,138.287 394.659,138.883 394.970 C 139.479 395.281,141.009 395.756,142.283 396.025 C 143.557 396.295,144.994 396.757,145.476 397.052 C 145.958 397.346,147.398 397.704,148.676 397.846 C 151.296 398.138,153.600 398.950,153.600 399.580 C 153.600 400.501,245.965 400.128,246.736 399.203 C 247.210 398.635,248.238 398.290,250.324 398.001 C 251.931 397.779,253.731 397.348,254.324 397.045 C 254.916 396.742,256.210 396.368,257.200 396.213 C 258.190 396.059,259.630 395.614,260.400 395.226 C 261.170 394.837,262.640 394.394,263.667 394.240 C 264.694 394.086,265.736 393.718,265.982 393.422 C 266.227 393.126,267.089 392.760,267.896 392.608 C 268.703 392.457,270.039 391.988,270.865 391.567 C 271.692 391.145,272.690 390.794,273.084 390.787 C 273.478 390.781,274.700 390.332,275.800 389.791 C 276.900 389.250,278.093 388.806,278.451 388.804 C 278.809 388.802,279.311 388.548,279.567 388.239 C 279.823 387.931,280.515 387.558,281.103 387.410 C 282.150 387.147,286.008 385.496,287.200 384.801 C 287.530 384.609,289.150 383.797,290.800 382.998 C 292.450 382.198,294.070 381.379,294.400 381.178 C 294.730 380.977,295.623 380.532,296.385 380.191 C 297.147 379.849,298.047 379.328,298.385 379.032 C 298.723 378.736,299.413 378.369,299.917 378.215 C 300.421 378.061,302.020 377.140,303.470 376.168 C 304.920 375.195,306.352 374.400,306.653 374.400 C 306.954 374.400,307.200 374.247,307.200 374.061 C 307.200 373.874,307.920 373.397,308.800 373.000 C 309.680 372.603,310.400 372.138,310.400 371.966 C 310.400 371.794,310.738 371.547,311.151 371.416 C 311.564 371.284,312.419 370.733,313.051 370.189 C 313.683 369.646,314.397 369.201,314.638 369.200 C 314.879 369.200,315.402 368.840,315.800 368.400 C 316.198 367.960,316.757 367.600,317.042 367.600 C 317.327 367.600,317.704 367.356,317.880 367.058 C 318.056 366.761,318.635 366.288,319.167 366.009 C 320.042 365.549,323.699 362.784,325.200 361.448 C 325.530 361.155,326.635 360.285,327.655 359.515 C 330.098 357.672,330.699 357.175,331.784 356.100 C 332.283 355.605,332.803 355.200,332.939 355.200 C 333.840 355.200,355.200 333.777,355.200 332.873 C 355.200 332.702,355.889 331.844,356.732 330.967 C 357.574 330.090,358.429 329.085,358.632 328.734 C 358.834 328.382,359.665 327.308,360.479 326.347 C 363.099 323.250,365.487 320.158,366.004 319.192 C 366.281 318.674,366.661 318.059,366.848 317.825 C 367.035 317.591,367.641 316.834,368.194 316.142 C 368.747 315.450,369.200 314.730,369.200 314.542 C 369.201 314.354,369.606 313.714,370.100 313.119 C 370.595 312.524,371.540 311.114,372.200 309.986 C 372.860 308.857,373.625 307.691,373.900 307.395 C 374.175 307.099,374.400 306.688,374.400 306.482 C 374.400 306.275,375.165 304.951,376.100 303.540 C 377.035 302.129,378.504 299.585,379.365 297.887 C 380.226 296.189,381.081 294.800,381.265 294.800 C 381.449 294.800,381.600 294.574,381.600 294.297 C 381.600 294.020,382.406 292.176,383.390 290.198 C 384.375 288.220,385.286 286.118,385.416 285.528 C 385.545 284.938,385.909 284.242,386.223 283.981 C 386.537 283.720,386.992 282.763,387.234 281.853 C 387.476 280.944,387.908 279.930,388.193 279.600 C 388.478 279.270,388.841 278.370,389.000 277.600 C 389.159 276.830,389.522 275.930,389.807 275.600 C 390.092 275.270,390.540 274.190,390.802 273.200 C 391.064 272.210,391.427 271.218,391.610 270.995 C 391.792 270.772,392.159 269.692,392.427 268.595 C 392.694 267.498,393.149 266.325,393.437 265.990 C 393.726 265.654,394.082 264.574,394.228 263.590 C 394.375 262.605,394.723 261.433,395.001 260.984 C 395.280 260.535,395.730 259.095,396.000 257.784 C 396.270 256.473,396.740 254.916,397.044 254.324 C 397.348 253.731,397.779 251.931,398.001 250.324 C 398.290 248.238,398.635 247.210,399.203 246.736 C 400.128 245.965,400.501 153.600,399.580 153.600 C 398.950 153.600,398.138 151.296,397.846 148.676 C 397.704 147.398,397.346 145.958,397.052 145.476 C 396.757 144.994,396.290 143.520,396.013 142.200 C 395.737 140.880,395.371 139.620,395.200 139.400 C 395.029 139.180,394.660 137.920,394.380 136.600 C 394.099 135.280,393.653 133.930,393.389 133.600 C 393.124 133.270,392.780 132.466,392.624 131.814 C 392.469 131.162,391.995 129.866,391.571 128.936 C 391.147 128.005,390.800 127.006,390.800 126.716 C 390.800 126.426,390.464 125.561,390.053 124.794 C 389.643 124.027,389.181 122.827,389.028 122.128 C 388.874 121.428,388.506 120.654,388.209 120.408 C 387.913 120.162,387.457 119.069,387.195 117.980 C 386.934 116.891,386.565 116.000,386.376 116.000 C 386.187 116.000,385.814 115.235,385.547 114.300 C 385.280 113.365,384.850 112.330,384.591 112.000 C 383.924 111.149,381.600 106.230,381.600 105.668 C 381.600 105.411,381.439 105.200,381.242 105.200 C 381.045 105.200,380.100 103.652,379.142 101.760 C 376.272 96.093,376.091 95.773,375.433 95.227 C 375.085 94.938,374.797 94.499,374.793 94.251 C 374.786 93.824,373.113 91.122,371.802 89.419 C 371.471 88.989,371.200 88.486,371.200 88.302 C 371.200 88.117,370.435 86.939,369.500 85.683 C 368.565 84.427,367.620 83.109,367.400 82.753 C 366.537 81.356,365.351 79.705,363.698 77.600 C 362.749 76.390,361.703 75.040,361.374 74.600 C 359.338 71.877,356.222 68.152,355.753 67.880 C 355.449 67.704,355.200 67.387,355.200 67.175 C 355.200 65.784,335.361 46.314,329.185 41.643 C 327.763 40.568,326.164 39.218,325.630 38.644 C 325.097 38.070,324.492 37.600,324.286 37.600 C 324.080 37.600,323.076 36.917,322.056 36.082 C 321.035 35.247,319.678 34.212,319.040 33.782 C 317.377 32.660,316.358 31.961,314.407 30.600 C 313.460 29.940,312.306 29.182,311.843 28.915 C 310.909 28.377,310.450 28.072,308.400 26.624 C 307.630 26.080,306.460 25.351,305.800 25.003 C 305.140 24.656,303.880 23.931,303.000 23.392 C 301.522 22.486,300.101 21.721,297.000 20.162 C 296.340 19.830,295.530 19.386,295.200 19.174 C 294.870 18.963,293.880 18.434,293.000 18.000 C 292.120 17.566,291.130 17.052,290.800 16.859 C 289.713 16.223,285.726 14.400,285.423 14.400 C 285.260 14.400,284.669 14.040,284.109 13.600 C 283.550 13.160,282.801 12.798,282.446 12.796 C 282.091 12.794,280.900 12.350,279.800 11.809 C 278.700 11.268,277.498 10.819,277.129 10.813 C 276.759 10.806,276.201 10.544,275.889 10.232 C 275.576 9.919,274.528 9.451,273.560 9.193 C 272.592 8.934,271.620 8.575,271.400 8.397 C 271.180 8.218,269.841 7.772,268.424 7.405 C 267.007 7.039,265.482 6.482,265.035 6.169 C 264.588 5.856,263.764 5.600,263.205 5.600 C 262.646 5.600,261.560 5.263,260.792 4.852 C 260.024 4.440,258.587 3.970,257.598 3.807 C 256.609 3.644,255.179 3.255,254.421 2.943 C 253.662 2.630,251.772 2.199,250.221 1.984 C 248.228 1.708,247.205 1.360,246.736 0.797 C 245.965 -0.128,153.600 -0.501,153.600 0.420 M206.755 65.430 C 209.630 66.074,209.533 66.037,214.200 68.235 C 218.833 70.417,220.810 72.186,239.392 90.776 C 258.467 109.861,258.447 109.829,250.000 107.061 C 239.098 103.488,238.394 103.442,190.920 103.208 C 147.469 102.993,147.020 102.975,148.446 101.464 C 148.751 101.141,155.480 94.363,163.400 86.401 C 178.750 70.969,180.689 69.341,186.414 67.068 C 188.777 66.129,192.770 65.100,195.800 64.649 C 197.767 64.356,203.920 64.794,206.755 65.430 M202.525 131.228 C 204.997 131.914,232.978 160.091,233.336 162.253 C 234.375 168.543,234.541 168.288,219.576 183.321 C 209.211 193.732,206.535 196.630,206.701 197.264 C 206.816 197.704,211.250 202.441,216.555 207.790 C 233.437 224.815,233.589 225.003,233.634 228.862 C 233.680 232.836,233.685 232.830,219.260 247.330 C 203.482 263.191,203.364 263.285,199.188 263.347 C 194.885 263.411,194.300 262.953,178.937 247.499 C 164.479 232.956,164.743 233.305,164.743 228.651 C 164.743 225.273,165.117 224.804,178.569 211.324 C 185.693 204.185,191.623 197.956,191.747 197.481 C 191.934 196.764,189.717 194.350,178.642 183.209 L 165.311 169.800 164.891 167.387 C 164.374 164.417,164.857 161.448,166.090 160.023 C 166.945 159.036,191.052 134.987,193.523 132.656 C 195.351 130.932,199.238 130.315,202.525 131.228 M326.165 178.000 C 328.536 180.903,328.954 181.615,331.443 187.000 C 336.671 198.308,333.425 213.055,323.400 223.545 C 313.862 233.525,292.126 254.853,291.276 255.067 C 290.337 255.302,290.309 255.252,290.553 253.756 C 293.398 236.274,289.453 220.756,279.522 210.360 C 272.993 203.526,262.654 197.613,254.073 195.804 C 251.148 195.188,251.860 192.979,255.483 191.434 C 275.619 182.844,284.998 164.910,281.442 141.800 C 281.069 139.380,280.503 136.721,280.182 135.892 C 279.567 134.299,279.415 132.318,279.873 131.860 C 280.209 131.524,323.216 174.389,326.165 178.000 M114.433 137.200 C 114.654 137.200,114.800 161.962,114.800 199.574 L 114.800 261.947 113.703 261.748 C 111.443 261.338,71.593 220.706,69.579 216.759 C 69.157 215.931,68.643 215.150,68.436 215.022 C 68.230 214.895,67.754 213.848,67.378 212.695 C 67.002 211.543,66.561 210.420,66.399 210.200 C 64.767 207.991,64.160 197.115,65.372 191.800 C 66.263 187.893,69.369 181.308,71.597 178.600 C 74.882 174.608,112.999 136.792,113.533 136.996 C 113.826 137.108,114.231 137.200,114.433 137.200 M252.571 293.954 C 252.737 294.222,224.380 322.857,220.836 326.000 C 217.996 328.519,212.004 331.685,208.350 332.598 C 206.948 332.948,205.080 333.424,204.200 333.656 C 199.184 334.975,188.352 332.902,182.504 329.504 C 178.377 327.106,177.667 326.458,161.700 310.550 C 150.005 298.898,147.448 296.071,148.100 295.515 C 148.155 295.468,169.620 295.321,195.800 295.189 C 237.847 294.977,243.633 294.874,245.400 294.310 C 247.576 293.615,252.220 293.385,252.571 293.954 " stroke="none" fill="#101010" fill-rule="evenodd"></path><path id="path3" d="M151.200 0.559 C 151.200 0.937,150.325 1.267,148.500 1.579 C 147.015 1.832,144.720 2.384,143.400 2.805 C 136.681 4.948,128.508 7.669,127.800 7.997 C 127.360 8.201,125.380 8.995,123.400 9.761 C 116.127 12.575,102.774 19.238,93.663 24.600 C 93.289 24.820,92.419 25.405,91.730 25.900 C 91.041 26.395,90.374 26.800,90.249 26.800 C 88.645 26.800,71.389 39.915,62.618 47.800 C 52.676 56.738,40.709 69.989,34.228 79.239 C 32.518 81.679,25.550 92.113,24.504 93.800 C 19.847 101.312,12.822 115.389,9.799 123.271 C 9.012 125.322,8.198 127.360,7.989 127.800 C 7.000 129.887,2.304 144.946,1.727 147.884 C 1.297 150.070,0.892 151.200,0.537 151.200 C 0.231 151.200,0.000 151.629,0.000 152.200 C 0.000 152.791,0.229 153.200,0.561 153.200 C 1.220 153.200,1.993 151.206,2.018 149.440 C 2.027 148.758,2.310 147.480,2.645 146.600 C 2.981 145.720,3.505 143.783,3.809 142.295 C 4.113 140.807,4.641 139.192,4.981 138.706 C 5.321 138.220,5.600 137.364,5.600 136.805 C 5.600 136.246,5.931 135.161,6.336 134.394 C 6.741 133.627,7.295 132.102,7.566 131.005 C 7.837 129.908,8.208 128.828,8.390 128.605 C 8.573 128.382,8.934 127.408,9.193 126.440 C 9.451 125.472,9.919 124.424,10.232 124.111 C 10.544 123.799,10.801 123.151,10.801 122.671 C 10.802 122.192,11.135 121.256,11.541 120.590 C 11.946 119.925,12.513 118.670,12.800 117.801 C 13.086 116.933,13.564 115.979,13.860 115.682 C 14.157 115.386,14.400 114.881,14.400 114.560 C 14.400 114.240,15.035 112.677,15.811 111.089 C 17.253 108.135,17.386 107.878,18.534 105.800 C 18.899 105.140,19.495 103.925,19.859 103.100 C 20.223 102.275,20.667 101.600,20.845 101.600 C 21.022 101.600,21.384 100.880,21.647 100.000 C 21.911 99.120,22.277 98.400,22.460 98.400 C 22.802 98.400,23.859 96.564,25.050 93.900 C 25.419 93.075,25.869 92.400,26.050 92.400 C 26.231 92.400,26.679 91.815,27.046 91.100 C 27.412 90.385,27.839 89.710,27.994 89.600 C 28.149 89.490,28.529 88.926,28.838 88.347 C 29.468 87.167,32.550 82.639,34.383 80.200 C 35.045 79.320,35.708 78.330,35.858 78.000 C 36.008 77.670,36.374 77.130,36.671 76.800 C 36.969 76.470,38.670 74.400,40.452 72.200 C 42.234 70.000,44.347 67.397,45.146 66.415 C 47.129 63.980,62.789 48.323,65.966 45.600 C 67.377 44.390,68.997 43.002,69.566 42.515 C 70.135 42.028,71.860 40.637,73.400 39.422 C 74.940 38.208,76.470 36.971,76.800 36.672 C 77.130 36.374,77.670 36.008,78.000 35.858 C 78.330 35.708,79.320 35.039,80.200 34.371 C 81.080 33.703,82.385 32.788,83.100 32.338 C 83.815 31.889,84.400 31.359,84.400 31.160 C 84.400 30.962,84.576 30.800,84.791 30.800 C 85.005 30.800,86.339 30.035,87.755 29.100 C 90.233 27.463,91.562 26.631,94.180 25.075 C 94.851 24.676,96.120 23.910,97.000 23.372 C 97.880 22.835,99.275 22.099,100.100 21.737 C 100.925 21.375,101.600 20.940,101.600 20.770 C 101.600 20.601,102.275 20.245,103.100 19.980 C 103.925 19.716,104.870 19.290,105.200 19.034 C 105.530 18.778,106.430 18.262,107.200 17.887 C 107.970 17.512,108.870 17.052,109.200 16.864 C 110.900 15.898,117.454 12.787,117.800 12.781 C 118.020 12.778,119.100 12.332,120.200 11.791 C 121.300 11.250,122.475 10.806,122.811 10.804 C 123.147 10.802,123.777 10.556,124.211 10.257 C 124.645 9.958,125.720 9.485,126.600 9.205 C 127.480 8.925,128.382 8.553,128.605 8.377 C 128.828 8.202,129.908 7.837,131.005 7.566 C 132.102 7.295,133.627 6.741,134.394 6.336 C 135.161 5.931,136.243 5.600,136.800 5.600 C 137.357 5.600,138.440 5.263,139.208 4.852 C 139.976 4.440,141.413 3.969,142.402 3.804 C 143.391 3.640,144.679 3.260,145.266 2.960 C 145.852 2.660,147.382 2.298,148.666 2.155 C 152.542 1.723,155.527 0.000,152.400 0.000 C 151.639 0.000,151.200 0.205,151.200 0.559 M246.400 0.351 C 246.400 1.103,247.575 1.599,250.252 1.979 C 251.786 2.197,253.662 2.630,254.421 2.943 C 255.179 3.255,256.609 3.644,257.598 3.807 C 258.587 3.970,260.024 4.440,260.792 4.852 C 261.560 5.263,262.646 5.600,263.205 5.600 C 263.764 5.600,264.588 5.856,265.035 6.169 C 265.482 6.482,267.007 7.039,268.424 7.405 C 269.841 7.772,271.180 8.218,271.400 8.397 C 271.620 8.575,272.592 8.934,273.560 9.193 C 274.528 9.451,275.576 9.919,275.889 10.232 C 276.201 10.544,276.759 10.806,277.129 10.813 C 277.498 10.819,278.700 11.268,279.800 11.809 C 280.900 12.350,282.091 12.794,282.446 12.796 C 282.801 12.798,283.550 13.160,284.109 13.600 C 284.669 14.040,285.260 14.400,285.423 14.400 C 285.726 14.400,289.713 16.223,290.800 16.859 C 291.356 17.184,292.823 17.941,295.800 19.438 C 296.460 19.770,297.270 20.214,297.600 20.426 C 297.930 20.637,298.920 21.170,299.800 21.611 C 300.680 22.051,302.120 22.853,303.000 23.392 C 303.880 23.931,305.140 24.656,305.800 25.003 C 306.460 25.351,307.630 26.080,308.400 26.624 C 310.450 28.072,310.909 28.377,311.843 28.915 C 312.306 29.182,313.460 29.940,314.407 30.600 C 316.358 31.961,317.377 32.660,319.040 33.782 C 319.678 34.212,321.035 35.247,322.056 36.082 C 323.076 36.917,324.080 37.600,324.286 37.600 C 324.492 37.600,325.097 38.070,325.630 38.644 C 326.164 39.218,327.763 40.568,329.185 41.643 C 335.361 46.314,355.200 65.784,355.200 67.175 C 355.200 67.387,355.449 67.704,355.753 67.880 C 356.222 68.152,359.338 71.877,361.374 74.600 C 361.703 75.040,362.749 76.390,363.698 77.600 C 365.351 79.705,366.537 81.356,367.400 82.753 C 367.620 83.109,368.565 84.427,369.500 85.683 C 370.435 86.939,371.200 88.117,371.200 88.302 C 371.200 88.486,371.471 88.989,371.802 89.419 C 373.113 91.122,374.786 93.824,374.793 94.251 C 374.797 94.499,375.085 94.938,375.433 95.227 C 376.091 95.773,376.272 96.093,379.142 101.760 C 380.100 103.652,381.045 105.200,381.242 105.200 C 381.439 105.200,381.600 105.411,381.600 105.668 C 381.600 106.230,383.924 111.149,384.591 112.000 C 384.850 112.330,385.280 113.365,385.547 114.300 C 385.814 115.235,386.187 116.000,386.376 116.000 C 386.565 116.000,386.934 116.891,387.195 117.980 C 387.457 119.069,387.913 120.162,388.209 120.408 C 388.506 120.654,388.874 121.428,389.028 122.128 C 389.181 122.827,389.643 124.027,390.053 124.794 C 390.464 125.561,390.800 126.426,390.800 126.716 C 390.800 127.006,391.147 128.005,391.571 128.936 C 391.995 129.866,392.469 131.162,392.624 131.814 C 392.780 132.466,393.124 133.270,393.389 133.600 C 393.653 133.930,394.099 135.280,394.380 136.600 C 394.660 137.920,395.029 139.180,395.200 139.400 C 395.371 139.620,395.737 140.880,396.013 142.200 C 396.290 143.520,396.757 144.994,397.052 145.476 C 397.346 145.958,397.704 147.398,397.846 148.676 C 398.138 151.296,398.950 153.600,399.580 153.600 C 400.223 153.600,400.081 151.317,399.422 151.064 C 399.104 150.942,398.731 150.158,398.593 149.321 C 398.333 147.749,396.303 140.315,395.556 138.200 C 395.323 137.540,394.891 136.190,394.597 135.200 C 394.303 134.210,393.497 131.960,392.807 130.200 C 392.117 128.440,391.314 126.280,391.023 125.400 C 390.373 123.439,389.500 121.389,386.511 114.800 C 384.016 109.301,378.648 98.980,377.756 97.969 C 377.450 97.621,377.200 97.203,377.200 97.039 C 377.200 96.623,370.778 86.391,368.389 83.000 C 364.820 77.935,355.604 66.160,354.768 65.597 C 354.602 65.485,353.897 64.675,353.201 63.797 C 351.724 61.932,345.537 55.576,340.745 51.000 C 330.619 41.329,319.623 32.892,306.855 24.995 C 304.194 23.350,300.011 20.973,296.800 19.282 C 294.710 18.182,292.460 16.996,291.800 16.646 C 289.122 15.229,278.563 10.409,278.088 10.386 C 277.930 10.379,277.080 10.025,276.200 9.600 C 275.320 9.175,274.447 8.821,274.260 8.814 C 274.074 8.806,273.354 8.541,272.660 8.224 C 269.216 6.649,254.690 2.148,251.200 1.573 C 249.990 1.374,248.800 0.938,248.556 0.605 C 248.083 -0.040,246.400 -0.238,246.400 0.351 M195.800 64.649 C 192.770 65.100,188.777 66.129,186.414 67.068 C 183.773 68.116,183.290 68.377,179.800 70.632 C 178.342 71.574,154.675 94.846,148.474 101.435 C 147.905 102.041,148.157 102.804,148.924 102.794 C 149.209 102.790,149.160 102.636,148.801 102.409 C 148.327 102.110,151.330 98.912,163.201 87.073 C 178.627 71.690,181.773 69.027,186.200 67.609 C 187.080 67.326,187.980 66.958,188.200 66.790 C 188.679 66.424,194.096 65.340,197.257 64.977 C 200.020 64.661,207.359 65.736,210.200 66.874 C 214.115 68.441,214.308 68.497,213.424 67.807 C 212.996 67.473,212.484 67.200,212.284 67.200 C 212.084 67.200,211.354 66.938,210.660 66.618 C 207.715 65.258,199.245 64.136,195.800 64.649 M218.443 71.112 C 221.094 73.094,255.200 106.927,255.200 107.575 C 255.200 107.776,254.885 108.033,254.500 108.145 C 254.079 108.267,254.186 108.318,254.769 108.274 C 255.301 108.233,255.797 108.018,255.870 107.796 C 256.195 106.808,217.664 69.200,216.327 69.200 C 216.084 69.200,217.036 70.060,218.443 71.112 M168.700 103.100 C 179.315 103.159,196.685 103.159,207.300 103.100 C 217.915 103.041,209.230 102.992,188.000 102.992 C 166.770 102.992,158.085 103.041,168.700 103.100 M230.505 103.487 C 231.114 103.579,232.014 103.577,232.505 103.482 C 232.997 103.387,232.500 103.311,231.400 103.314 C 230.300 103.317,229.897 103.395,230.505 103.487 M234.900 103.876 C 235.285 103.976,235.915 103.976,236.300 103.876 C 236.685 103.775,236.370 103.693,235.600 103.693 C 234.830 103.693,234.515 103.775,234.900 103.876 M243.400 105.139 C 244.637 105.668,246.710 106.077,246.000 105.651 C 245.670 105.454,244.770 105.180,244.000 105.044 C 243.056 104.877,242.860 104.908,243.400 105.139 M251.200 107.369 C 251.750 107.701,252.470 107.973,252.800 107.974 C 253.603 107.976,252.652 107.416,251.200 107.032 L 250.200 106.767 251.200 107.369 M196.068 131.197 C 194.483 131.572,195.446 130.680,179.643 146.400 C 163.177 162.780,163.907 161.740,164.891 167.387 L 165.311 169.800 178.642 183.209 C 189.717 194.350,191.934 196.764,191.747 197.481 C 191.623 197.956,185.693 204.185,178.569 211.324 C 165.117 224.804,164.743 225.273,164.743 228.651 C 164.743 233.305,164.479 232.956,178.937 247.499 C 194.300 262.953,194.885 263.411,199.188 263.347 C 203.364 263.285,203.482 263.191,219.260 247.330 C 233.685 232.830,233.680 232.836,233.634 228.862 C 233.589 225.003,233.437 224.815,216.555 207.790 C 211.250 202.441,206.816 197.704,206.701 197.264 C 206.535 196.630,209.211 193.732,219.576 183.321 C 233.639 169.194,233.609 169.233,233.596 165.123 C 233.582 161.062,234.146 161.773,218.565 146.179 C 202.066 129.666,202.191 129.749,196.068 131.197 M203.255 132.227 C 204.711 132.978,230.994 159.049,232.228 160.965 C 233.385 162.763,233.277 167.317,232.027 169.409 C 231.504 170.284,225.410 176.698,218.485 183.661 C 207.358 194.850,205.922 196.436,206.139 197.300 C 206.274 197.839,210.742 202.689,216.092 208.105 C 238.427 230.716,238.229 227.402,218.443 247.341 C 204.170 261.726,202.833 262.800,199.203 262.800 C 195.465 262.800,194.854 262.311,180.114 247.527 C 160.293 227.646,160.343 230.382,179.448 211.187 C 189.335 201.252,192.400 197.943,192.400 197.200 C 192.400 196.458,189.334 193.142,179.467 183.213 C 160.411 164.038,160.455 166.123,178.718 148.035 C 194.387 132.514,194.488 132.421,196.287 131.751 C 198.151 131.057,201.420 131.280,203.255 132.227 M279.873 131.860 C 279.409 132.324,279.606 134.538,280.222 135.800 C 280.838 137.060,280.841 137.110,280.126 134.127 C 279.949 133.386,280.051 133.288,280.799 133.484 C 281.945 133.784,324.383 176.207,326.888 179.557 C 327.940 180.964,328.800 181.919,328.800 181.681 C 328.800 180.210,280.602 131.131,279.873 131.860 M93.121 156.696 C 68.345 181.504,67.468 182.614,65.372 191.800 C 64.160 197.115,64.767 207.991,66.399 210.200 C 66.561 210.420,67.002 211.543,67.378 212.695 C 67.754 213.848,68.230 214.895,68.436 215.022 C 68.643 215.150,69.157 215.931,69.579 216.759 C 71.593 220.706,111.443 261.338,113.703 261.748 L 114.800 261.947 114.800 199.574 C 114.800 161.962,114.654 137.200,114.433 137.200 C 114.231 137.200,113.826 137.108,113.533 136.996 C 113.211 136.873,105.120 144.682,93.121 156.696 M113.901 137.531 C 114.760 138.076,114.421 260.946,113.560 261.112 C 112.998 261.220,78.004 226.593,73.229 221.203 C 71.462 219.209,68.126 213.802,67.611 212.098 C 67.429 211.494,67.007 210.368,66.674 209.596 C 63.499 202.227,64.874 190.488,69.928 181.800 C 71.570 178.978,112.122 137.175,113.188 137.206 C 113.304 137.209,113.626 137.355,113.901 137.531 M281.475 142.600 C 281.604 143.920,281.862 145.360,282.050 145.800 C 282.452 146.746,282.122 143.725,281.589 141.594 C 281.329 140.553,281.300 140.808,281.475 142.600 M281.800 157.600 C 281.646 158.510,281.611 159.344,281.721 159.454 C 281.831 159.564,282.046 158.910,282.200 158.000 C 282.354 157.090,282.389 156.256,282.279 156.146 C 282.169 156.036,281.954 156.690,281.800 157.600 M278.294 170.503 L 277.588 171.800 278.394 170.856 C 279.080 170.052,279.446 169.194,279.100 169.203 C 279.045 169.204,278.682 169.789,278.294 170.503 M328.813 182.620 C 328.806 182.851,329.002 183.242,329.248 183.488 C 332.201 186.441,334.097 197.538,332.812 204.343 C 331.802 209.686,331.937 210.630,333.034 205.901 C 334.400 200.014,333.579 190.523,331.400 187.013 C 331.122 186.566,330.786 185.728,330.653 185.151 C 330.397 184.046,328.836 181.898,328.813 182.620 M266.200 185.049 L 264.200 186.881 266.300 185.203 C 268.118 183.751,268.695 183.176,268.300 183.208 C 268.245 183.213,267.300 184.041,266.200 185.049 M256.000 191.200 C 255.230 191.622,254.780 191.966,255.000 191.966 C 255.220 191.966,256.030 191.622,256.800 191.200 C 257.570 190.778,258.020 190.434,257.800 190.434 C 257.580 190.434,256.770 190.778,256.000 191.200 M261.200 198.200 C 261.750 198.514,262.380 198.772,262.600 198.772 C 262.820 198.772,262.550 198.514,262.000 198.200 C 261.450 197.886,260.820 197.628,260.600 197.628 C 260.380 197.628,260.650 197.886,261.200 198.200 M271.133 203.300 C 274.193 205.384,277.574 208.247,280.146 210.933 C 282.747 213.648,282.786 213.673,280.884 211.400 C 277.952 207.897,271.464 202.433,270.206 202.408 C 269.989 202.404,270.406 202.805,271.133 203.300 M329.712 214.253 C 328.783 216.094,328.084 217.600,328.158 217.600 C 328.695 217.600,331.894 211.317,331.517 211.003 C 331.453 210.950,330.640 212.412,329.712 214.253 M284.400 216.666 C 284.400 216.874,284.850 217.655,285.400 218.400 C 285.950 219.145,286.400 219.638,286.400 219.495 C 286.400 219.353,285.950 218.572,285.400 217.762 C 284.850 216.951,284.400 216.459,284.400 216.666 M326.065 220.100 C 322.219 225.050,292.084 254.568,291.431 254.026 C 291.035 253.697,290.881 253.124,291.010 252.454 C 291.182 251.559,291.155 251.521,290.834 252.200 C 290.051 253.857,290.302 255.311,291.326 255.054 C 292.619 254.730,325.573 221.804,327.311 219.100 C 328.447 217.334,327.831 217.828,326.065 220.100 M288.028 223.692 C 287.982 224.165,289.286 227.248,289.458 227.075 C 289.545 226.988,289.266 226.125,288.837 225.158 C 288.408 224.191,288.044 223.531,288.028 223.692 M290.662 232.600 C 290.796 233.480,290.972 234.275,291.053 234.367 C 291.356 234.710,291.129 232.568,290.781 231.800 C 290.529 231.242,290.493 231.485,290.662 232.600 M291.320 237.200 C 291.320 238.410,291.395 238.905,291.487 238.300 C 291.578 237.695,291.578 236.705,291.487 236.100 C 291.395 235.495,291.320 235.990,291.320 237.200 M291.314 247.400 C 291.317 248.500,291.395 248.903,291.487 248.295 C 291.579 247.686,291.577 246.786,291.482 246.295 C 291.387 245.803,291.311 246.300,291.314 247.400 M0.000 247.357 C 0.000 247.884,0.260 248.414,0.578 248.536 C 0.896 248.658,1.262 249.442,1.392 250.279 C 1.804 252.930,3.955 260.404,5.973 266.200 C 8.932 274.694,9.165 275.317,9.805 276.462 C 10.132 277.046,10.400 277.715,10.400 277.950 C 10.400 278.184,10.871 279.417,11.447 280.688 C 12.022 281.960,12.935 283.990,13.474 285.200 C 16.386 291.730,21.931 302.124,25.044 306.887 C 26.010 308.365,26.800 309.659,26.800 309.762 C 26.800 310.577,36.567 324.071,41.132 329.563 C 48.761 338.739,55.412 345.624,65.248 354.524 C 66.212 355.396,74.253 361.886,77.485 364.400 C 79.445 365.925,90.715 373.541,94.600 375.967 C 98.657 378.500,109.838 384.316,115.000 386.578 C 116.320 387.157,118.066 387.984,118.879 388.415 C 119.693 388.847,120.593 389.201,120.879 389.202 C 121.166 389.204,121.940 389.489,122.600 389.837 C 124.082 390.618,134.334 394.340,138.400 395.573 C 140.050 396.074,142.480 396.813,143.800 397.216 C 145.120 397.619,147.246 398.155,148.525 398.408 C 149.808 398.661,150.948 399.121,151.068 399.434 C 151.318 400.084,153.600 400.215,153.600 399.580 C 153.600 398.950,151.296 398.138,148.676 397.846 C 147.398 397.704,145.958 397.346,145.476 397.052 C 144.994 396.757,143.557 396.295,142.283 396.025 C 141.009 395.756,139.479 395.281,138.883 394.970 C 138.287 394.659,137.370 394.404,136.844 394.402 C 136.318 394.401,135.148 394.061,134.244 393.648 C 131.677 392.473,127.237 390.800,126.686 390.800 C 126.412 390.800,125.516 390.440,124.696 390.000 C 123.875 389.560,122.991 389.200,122.733 389.200 C 122.475 389.200,121.169 388.682,119.832 388.050 C 114.518 385.537,113.723 385.200,113.097 385.200 C 112.740 385.200,112.337 385.022,112.203 384.805 C 112.069 384.588,110.573 383.767,108.880 382.981 C 107.186 382.195,105.530 381.379,105.200 381.168 C 104.870 380.957,103.970 380.497,103.200 380.147 C 102.430 379.797,101.710 379.372,101.600 379.202 C 101.490 379.033,100.737 378.558,99.926 378.147 C 97.087 376.708,91.320 373.267,89.800 372.106 C 89.580 371.938,88.680 371.334,87.800 370.764 C 85.730 369.424,84.100 368.350,83.000 367.600 C 82.516 367.270,81.597 366.646,80.960 366.213 C 79.814 365.434,75.941 362.459,74.822 361.497 C 74.504 361.224,73.414 360.370,72.400 359.600 C 70.108 357.860,69.367 357.240,68.216 356.100 C 67.717 355.605,67.192 355.200,67.049 355.200 C 66.598 355.200,63.669 352.431,55.619 344.396 C 48.453 337.243,46.005 334.641,43.800 331.834 C 43.360 331.274,42.317 330.047,41.482 329.108 C 40.647 328.169,39.709 326.927,39.397 326.348 C 39.085 325.770,38.553 325.191,38.215 325.061 C 37.877 324.931,37.600 324.619,37.600 324.368 C 37.600 324.117,36.918 323.076,36.084 322.056 C 35.250 321.035,34.260 319.750,33.883 319.200 C 33.507 318.650,32.344 316.963,31.300 315.451 C 30.255 313.940,29.182 312.320,28.915 311.851 C 28.380 310.914,28.085 310.470,26.624 308.400 C 26.080 307.630,25.351 306.460,25.003 305.800 C 24.656 305.140,23.931 303.880,23.392 303.000 C 22.853 302.120,22.051 300.680,21.611 299.800 C 20.789 298.158,20.318 297.344,19.179 295.600 C 18.820 295.050,18.309 293.939,18.043 293.132 C 17.777 292.325,17.316 291.462,17.019 291.216 C 16.722 290.969,16.357 290.280,16.208 289.684 C 16.059 289.088,15.713 288.330,15.438 288.000 C 15.163 287.670,14.720 286.635,14.453 285.700 C 14.186 284.765,13.815 284.000,13.627 284.000 C 13.440 284.000,13.164 283.511,13.014 282.913 C 12.864 282.315,12.304 280.903,11.771 279.774 C 11.237 278.646,10.799 277.470,10.797 277.161 C 10.796 276.853,10.437 276.060,10.000 275.400 C 9.563 274.740,9.204 273.835,9.203 273.389 C 9.201 272.943,8.940 272.206,8.622 271.752 C 8.304 271.298,7.825 270.043,7.558 268.963 C 7.291 267.884,6.741 266.373,6.336 265.606 C 5.931 264.839,5.600 263.757,5.600 263.200 C 5.600 262.643,5.240 261.516,4.800 260.696 C 4.360 259.875,4.000 258.837,4.000 258.389 C 4.000 257.941,3.621 256.455,3.159 255.087 C 2.696 253.719,2.152 251.444,1.951 250.031 C 1.494 246.836,0.000 244.788,0.000 247.357 M398.857 246.931 C 398.615 247.223,398.232 248.764,398.006 250.354 C 397.781 251.945,397.348 253.731,397.044 254.324 C 396.740 254.916,396.270 256.473,396.000 257.784 C 395.730 259.095,395.280 260.535,395.001 260.984 C 394.723 261.433,394.375 262.605,394.228 263.590 C 394.082 264.574,393.726 265.654,393.437 265.990 C 393.149 266.325,392.694 267.498,392.427 268.595 C 392.159 269.692,391.792 270.772,391.610 270.995 C 391.427 271.218,391.064 272.210,390.802 273.200 C 390.540 274.190,390.092 275.270,389.807 275.600 C 389.522 275.930,389.159 276.830,389.000 277.600 C 388.841 278.370,388.478 279.270,388.193 279.600 C 387.908 279.930,387.476 280.944,387.234 281.853 C 386.992 282.763,386.537 283.720,386.223 283.981 C 385.909 284.242,385.545 284.938,385.416 285.528 C 385.286 286.118,384.375 288.220,383.390 290.198 C 382.406 292.176,381.600 294.020,381.600 294.297 C 381.600 294.574,381.449 294.800,381.265 294.800 C 381.081 294.800,380.226 296.189,379.365 297.887 C 378.504 299.585,377.035 302.129,376.100 303.540 C 375.165 304.951,374.400 306.275,374.400 306.482 C 374.400 306.688,374.175 307.099,373.900 307.395 C 373.625 307.691,372.860 308.857,372.200 309.986 C 371.540 311.114,370.595 312.524,370.100 313.119 C 369.606 313.714,369.201 314.354,369.200 314.542 C 369.200 314.730,368.747 315.450,368.194 316.142 C 367.641 316.834,367.035 317.591,366.848 317.825 C 366.661 318.059,366.281 318.674,366.004 319.192 C 365.487 320.158,363.099 323.250,360.479 326.347 C 359.665 327.308,358.834 328.382,358.632 328.734 C 358.429 329.085,357.574 330.090,356.732 330.967 C 355.889 331.844,355.200 332.702,355.200 332.873 C 355.200 333.777,333.840 355.200,332.939 355.200 C 332.803 355.200,332.283 355.605,331.784 356.100 C 330.699 357.175,330.098 357.672,327.655 359.515 C 326.635 360.285,325.530 361.155,325.200 361.448 C 323.699 362.784,320.042 365.549,319.167 366.009 C 318.635 366.288,318.056 366.761,317.880 367.058 C 317.704 367.356,317.327 367.600,317.042 367.600 C 316.757 367.600,316.198 367.960,315.800 368.400 C 315.402 368.840,314.879 369.200,314.638 369.200 C 314.397 369.201,313.683 369.646,313.051 370.189 C 312.419 370.733,311.564 371.284,311.151 371.416 C 310.738 371.547,310.400 371.794,310.400 371.966 C 310.400 372.138,309.680 372.603,308.800 373.000 C 307.920 373.397,307.200 373.874,307.200 374.061 C 307.200 374.247,306.954 374.400,306.653 374.400 C 306.352 374.400,304.920 375.195,303.470 376.168 C 302.020 377.140,300.421 378.061,299.917 378.215 C 299.413 378.369,298.723 378.736,298.385 379.032 C 298.047 379.328,297.147 379.849,296.385 380.191 C 295.623 380.532,294.730 380.977,294.400 381.178 C 294.070 381.379,292.450 382.198,290.800 382.998 C 289.150 383.797,287.530 384.609,287.200 384.801 C 286.008 385.496,282.150 387.147,281.103 387.410 C 280.515 387.558,279.823 387.931,279.567 388.239 C 279.311 388.548,278.809 388.802,278.451 388.804 C 278.093 388.806,276.900 389.250,275.800 389.791 C 274.700 390.332,273.478 390.781,273.084 390.787 C 272.690 390.794,271.692 391.145,270.865 391.567 C 270.039 391.988,268.703 392.457,267.896 392.608 C 267.089 392.760,266.227 393.126,265.982 393.422 C 265.736 393.718,264.694 394.086,263.667 394.240 C 262.640 394.394,261.170 394.837,260.400 395.226 C 259.630 395.614,258.190 396.059,257.200 396.213 C 256.210 396.368,254.916 396.742,254.324 397.045 C 253.731 397.348,251.945 397.781,250.354 398.006 C 246.704 398.524,244.665 400.000,247.600 400.000 C 248.349 400.000,248.800 399.794,248.800 399.452 C 248.800 399.099,249.688 398.730,251.300 398.415 C 254.272 397.834,260.697 396.048,261.731 395.515 C 262.133 395.308,263.303 394.897,264.331 394.601 C 265.359 394.305,267.730 393.501,269.600 392.813 C 271.470 392.125,273.630 391.372,274.400 391.139 C 275.170 390.906,276.250 390.473,276.800 390.176 C 277.350 389.879,279.150 389.080,280.800 388.399 C 290.265 384.496,305.540 376.137,314.727 369.832 C 316.997 368.274,319.247 366.730,319.727 366.400 C 323.608 363.733,332.848 356.341,336.400 353.061 C 343.660 346.357,352.885 336.899,356.003 332.962 C 356.335 332.543,357.866 330.670,359.404 328.800 C 362.609 324.905,366.221 320.133,367.731 317.800 C 368.300 316.920,369.527 315.120,370.458 313.800 C 372.815 310.459,378.397 301.205,380.751 296.734 C 381.833 294.680,383.008 292.460,383.361 291.800 C 383.911 290.773,386.404 285.438,388.221 281.400 C 388.518 280.740,389.145 279.210,389.616 278.000 C 390.086 276.790,390.827 274.900,391.262 273.800 C 392.287 271.207,393.899 266.682,394.611 264.400 C 394.919 263.410,395.462 261.700,395.816 260.600 C 397.442 255.552,397.983 253.625,398.427 251.300 C 398.736 249.682,399.097 248.800,399.452 248.800 C 399.794 248.800,400.000 248.349,400.000 247.600 C 400.000 246.318,399.573 246.068,398.857 246.931 M245.600 294.200 C 244.610 294.487,244.070 294.736,244.400 294.753 C 244.730 294.770,245.900 294.534,247.000 294.228 C 248.100 293.922,248.640 293.673,248.200 293.675 C 247.760 293.677,246.590 293.913,245.600 294.200 M251.811 294.100 C 251.989 294.581,222.680 324.113,219.400 326.757 C 218.354 327.600,218.213 327.797,218.993 327.323 C 221.167 326.006,252.894 294.475,252.571 293.954 C 252.236 293.411,251.601 293.534,251.811 294.100 M240.305 295.083 C 240.802 295.179,241.522 295.175,241.905 295.075 C 242.287 294.975,241.880 294.896,241.000 294.901 C 240.120 294.905,239.807 294.987,240.305 295.083 M170.700 295.500 C 182.415 295.559,201.585 295.559,213.300 295.500 C 225.015 295.441,215.430 295.393,192.000 295.393 C 168.570 295.393,158.985 295.441,170.700 295.500 M148.000 296.250 C 148.000 296.817,173.070 322.196,176.795 325.400 C 181.114 329.115,184.929 331.111,191.400 333.046 C 194.673 334.024,204.235 334.050,206.600 333.087 C 208.586 332.278,207.758 332.245,204.600 333.008 C 196.531 334.956,185.585 331.977,177.800 325.713 C 174.195 322.812,149.102 297.313,149.054 296.500 C 148.993 295.482,148.000 295.246,148.000 296.250 M214.000 329.839 C 212.130 330.820,210.060 331.782,209.400 331.976 C 208.525 332.233,208.424 332.338,209.029 332.364 C 209.961 332.404,216.961 329.111,217.378 328.435 C 217.732 327.862,217.892 327.796,214.000 329.839 " stroke="none" fill="#6e6e6e" fill-rule="evenodd"></path><path id="path4" d="M148.678 0.541 C 148.556 0.859,147.524 1.193,146.173 1.352 C 144.909 1.500,143.318 1.881,142.638 2.197 C 141.957 2.513,140.507 2.968,139.416 3.207 C 138.325 3.445,137.245 3.795,137.016 3.984 C 136.787 4.172,135.610 4.602,134.400 4.939 C 133.190 5.276,131.030 5.994,129.600 6.535 C 128.170 7.076,126.190 7.823,125.200 8.194 C 124.210 8.566,122.860 9.113,122.200 9.409 C 121.540 9.706,119.650 10.519,118.000 11.217 C 115.143 12.425,110.889 14.427,109.600 15.169 C 109.270 15.359,108.550 15.723,108.000 15.977 C 106.341 16.744,104.635 17.619,104.000 18.029 C 103.670 18.242,102.794 18.694,102.053 19.033 C 101.311 19.373,99.151 20.549,97.253 21.647 C 92.468 24.413,92.347 24.488,91.072 25.500 C 90.449 25.995,89.765 26.400,89.553 26.400 C 89.341 26.400,88.680 26.732,88.084 27.137 C 87.488 27.543,86.190 28.392,85.200 29.024 C 84.210 29.656,83.098 30.449,82.729 30.786 C 82.361 31.124,81.414 31.850,80.625 32.400 C 77.177 34.805,69.185 41.005,66.823 43.106 C 65.406 44.368,62.733 46.750,60.882 48.400 C 56.163 52.608,46.394 62.717,43.200 66.698 C 42.650 67.384,41.542 68.722,40.739 69.672 C 39.233 71.452,34.171 78.079,32.400 80.588 C 31.850 81.367,31.177 82.318,30.904 82.702 C 28.414 86.206,26.732 88.743,26.421 89.461 C 26.217 89.935,25.840 90.452,25.584 90.610 C 25.328 90.768,24.860 91.461,24.544 92.149 C 24.228 92.837,23.446 94.210,22.806 95.200 C 22.166 96.190,21.279 97.720,20.834 98.600 C 19.674 100.898,16.786 106.129,16.417 106.600 C 16.245 106.820,15.892 107.661,15.632 108.468 C 15.372 109.275,14.916 110.138,14.619 110.384 C 14.322 110.631,13.960 111.305,13.815 111.882 C 13.670 112.459,12.843 114.378,11.976 116.146 C 11.109 117.915,10.399 119.550,10.398 119.781 C 10.396 120.011,10.107 120.740,9.756 121.400 C 9.404 122.060,8.794 123.500,8.400 124.600 C 8.006 125.700,7.204 127.860,6.618 129.400 C 6.031 130.940,5.292 133.125,4.975 134.256 C 4.657 135.387,4.129 136.827,3.801 137.456 C 3.473 138.085,3.204 139.015,3.202 139.522 C 3.201 140.029,2.857 141.199,2.439 142.122 C 2.020 143.045,1.547 144.849,1.389 146.132 C 1.217 147.519,0.877 148.549,0.550 148.675 C -0.170 148.951,-0.181 151.200,0.537 151.200 C 0.892 151.200,1.297 150.070,1.727 147.884 C 2.304 144.946,7.000 129.887,7.989 127.800 C 8.198 127.360,9.012 125.322,9.799 123.271 C 12.822 115.389,19.847 101.312,24.504 93.800 C 25.550 92.113,32.518 81.679,34.228 79.239 C 44.803 64.147,62.615 46.357,79.353 34.170 C 84.090 30.721,89.887 26.800,90.249 26.800 C 90.374 26.800,91.041 26.395,91.730 25.900 C 92.419 25.405,93.289 24.820,93.663 24.600 C 102.774 19.238,116.127 12.575,123.400 9.761 C 125.380 8.995,127.360 8.201,127.800 7.997 C 128.508 7.669,136.681 4.948,143.400 2.805 C 144.720 2.384,147.015 1.832,148.500 1.579 C 150.325 1.267,151.200 0.937,151.200 0.559 C 151.200 -0.173,148.958 -0.189,148.678 0.541 M248.497 0.500 C 248.587 0.775,249.367 1.146,250.230 1.325 C 255.083 2.331,269.434 6.744,272.660 8.223 C 273.354 8.540,274.074 8.806,274.260 8.814 C 274.447 8.821,275.320 9.175,276.200 9.600 C 277.080 10.025,277.930 10.379,278.088 10.386 C 278.563 10.409,289.122 15.229,291.800 16.646 C 292.460 16.996,294.710 18.182,296.800 19.282 C 300.011 20.973,304.194 23.350,306.855 24.995 C 319.623 32.892,330.619 41.329,340.745 51.000 C 345.537 55.576,351.724 61.932,353.201 63.797 C 353.897 64.675,354.602 65.485,354.768 65.597 C 355.604 66.160,364.820 77.935,368.389 83.000 C 370.778 86.391,377.200 96.623,377.200 97.039 C 377.200 97.203,377.450 97.621,377.756 97.969 C 378.648 98.980,384.016 109.301,386.511 114.800 C 389.500 121.389,390.373 123.439,391.023 125.400 C 391.314 126.280,392.117 128.440,392.807 130.200 C 393.497 131.960,394.303 134.210,394.597 135.200 C 394.891 136.190,395.323 137.540,395.556 138.200 C 396.103 139.749,398.208 147.334,398.655 149.370 C 398.845 150.233,399.225 151.013,399.500 151.103 C 400.192 151.329,400.152 149.344,399.459 149.078 C 399.144 148.957,398.809 147.941,398.657 146.644 C 398.513 145.419,398.036 143.506,397.598 142.394 C 397.159 141.281,396.800 139.965,396.800 139.470 C 396.800 138.974,396.460 137.903,396.045 137.089 C 395.630 136.275,395.164 134.932,395.009 134.104 C 394.854 133.277,394.479 132.150,394.177 131.600 C 393.875 131.050,393.457 129.970,393.249 129.200 C 392.847 127.715,391.585 124.478,390.348 121.756 C 389.936 120.852,389.600 119.972,389.600 119.801 C 389.600 119.417,387.821 115.673,382.879 105.656 C 382.593 105.075,382.186 104.330,381.974 104.000 C 381.763 103.670,381.228 102.609,380.785 101.643 C 380.342 100.676,379.444 99.092,378.790 98.123 C 378.135 97.153,377.600 96.213,377.600 96.033 C 377.600 95.853,376.768 94.467,375.751 92.953 C 374.734 91.439,373.798 89.930,373.670 89.600 C 373.419 88.951,371.191 85.528,370.807 85.200 C 370.678 85.090,369.859 83.944,368.986 82.653 C 368.114 81.363,367.040 79.799,366.600 79.178 C 365.253 77.278,359.533 69.849,358.763 69.000 C 357.629 67.750,356.780 66.772,354.227 63.781 C 351.000 59.997,340.223 49.273,335.737 45.379 C 330.526 40.857,329.834 40.286,325.669 37.076 C 321.493 33.856,321.288 33.708,315.615 29.800 C 311.811 27.180,310.376 26.266,307.400 24.572 C 306.740 24.196,306.110 23.767,306.000 23.618 C 305.890 23.470,304.090 22.407,302.000 21.257 C 299.910 20.107,297.570 18.815,296.800 18.387 C 293.668 16.646,280.647 10.411,280.092 10.387 C 279.932 10.381,278.900 9.932,277.800 9.391 C 276.700 8.850,275.568 8.406,275.284 8.404 C 275.000 8.402,274.062 8.040,273.200 7.600 C 272.338 7.160,271.310 6.799,270.916 6.798 C 270.522 6.796,269.660 6.502,269.000 6.143 C 268.340 5.785,266.900 5.252,265.800 4.959 C 263.286 4.288,258.975 2.867,257.400 2.188 C 256.740 1.904,255.151 1.543,253.868 1.386 C 252.478 1.215,251.451 0.878,251.325 0.550 C 251.051 -0.164,248.263 -0.213,248.497 0.500 M196.287 131.751 C 194.488 132.421,194.387 132.514,178.718 148.035 C 160.455 166.123,160.411 164.038,179.467 183.213 C 189.334 193.142,192.400 196.458,192.400 197.200 C 192.400 197.943,189.335 201.252,179.448 211.187 C 165.707 224.992,165.200 225.619,165.200 228.793 C 165.200 232.462,165.618 232.987,180.114 247.527 C 200.475 267.949,197.982 267.961,218.443 247.341 C 238.229 227.402,238.427 230.716,216.092 208.105 C 210.742 202.689,206.274 197.839,206.139 197.300 C 205.922 196.436,207.358 194.850,218.485 183.661 C 232.768 169.299,232.978 169.029,232.978 164.974 C 232.978 161.159,233.555 161.877,218.039 146.361 C 202.400 130.721,201.206 129.919,196.287 131.751 M203.074 133.064 C 205.247 134.338,229.724 158.662,231.299 161.114 C 234.388 165.921,233.438 167.478,217.922 183.056 C 205.231 195.798,205.120 195.923,205.409 197.243 C 205.636 198.276,207.886 200.765,215.451 208.352 C 220.813 213.730,225.200 218.240,225.200 218.374 C 225.200 218.508,226.278 219.658,227.596 220.930 C 235.546 228.607,235.323 229.185,217.466 247.137 C 197.635 267.073,200.351 267.074,180.588 247.132 C 166.225 232.639,165.926 232.267,165.894 228.824 C 165.865 225.732,165.787 225.827,180.516 211.089 C 187.290 204.312,193.012 198.296,193.230 197.720 C 193.715 196.445,194.845 197.715,179.668 182.469 C 166.485 169.225,165.834 168.413,165.834 165.200 C 165.834 162.009,166.763 160.588,172.498 155.000 C 174.305 153.240,179.855 147.782,184.832 142.871 C 196.703 131.157,198.328 130.283,203.074 133.064 M-0.000 249.724 C -0.000 250.523,0.230 251.203,0.541 251.322 C 0.838 251.436,1.200 252.400,1.344 253.465 C 1.594 255.308,2.443 258.207,4.022 262.600 C 4.417 263.700,4.868 265.230,5.023 266.000 C 5.179 266.770,5.643 268.027,6.053 268.794 C 6.464 269.561,6.800 270.556,6.800 271.005 C 6.800 271.454,7.054 272.185,7.365 272.628 C 7.675 273.072,8.227 274.459,8.591 275.710 C 8.955 276.961,9.401 278.077,9.582 278.189 C 9.763 278.301,10.027 278.852,10.168 279.414 C 10.549 280.932,17.388 295.354,18.792 297.600 C 18.999 297.930,20.004 299.730,21.027 301.600 C 22.050 303.470,23.636 306.170,24.551 307.600 C 25.467 309.030,26.392 310.504,26.608 310.876 C 26.928 311.428,30.385 316.497,33.199 320.539 C 34.345 322.185,40.501 330.205,41.229 331.000 C 42.206 332.066,42.954 332.921,45.796 336.219 C 48.914 339.838,60.219 351.147,63.781 354.209 C 66.475 356.526,67.546 357.457,68.800 358.570 C 69.956 359.597,77.075 365.105,79.177 366.600 C 80.897 367.823,88.402 372.947,89.144 373.405 C 90.263 374.096,92.138 375.288,93.600 376.238 C 94.370 376.739,96.103 377.745,97.451 378.474 C 98.800 379.203,100.899 380.378,102.116 381.084 C 103.333 381.789,104.797 382.484,105.369 382.628 C 105.940 382.771,106.505 383.046,106.624 383.239 C 106.881 383.654,112.500 386.400,113.093 386.400 C 113.318 386.400,113.717 386.658,113.979 386.974 C 114.241 387.290,115.028 387.673,115.728 387.824 C 116.427 387.976,117.456 388.422,118.014 388.815 C 118.571 389.209,119.690 389.656,120.499 389.807 C 121.309 389.959,122.170 390.323,122.413 390.616 C 122.656 390.909,123.428 391.274,124.128 391.428 C 124.827 391.581,126.027 392.043,126.794 392.453 C 127.561 392.864,128.553 393.200,129.000 393.200 C 129.447 393.200,130.460 393.547,131.252 393.972 C 132.044 394.396,133.391 394.869,134.246 395.023 C 135.101 395.177,136.250 395.546,136.800 395.842 C 137.350 396.138,138.880 396.672,140.200 397.027 C 141.520 397.382,143.494 397.926,144.587 398.236 C 145.680 398.546,147.081 398.800,147.700 398.800 C 148.331 398.800,148.926 399.063,149.055 399.400 C 149.336 400.132,151.342 400.230,151.103 399.500 C 151.013 399.225,149.963 398.774,148.770 398.497 C 142.025 396.933,125.945 391.614,122.600 389.841 C 121.940 389.491,121.166 389.204,120.879 389.202 C 120.593 389.201,119.693 388.847,118.879 388.415 C 118.066 387.984,116.320 387.157,115.000 386.578 C 109.838 384.316,98.657 378.500,94.600 375.967 C 90.715 373.541,79.445 365.925,77.485 364.400 C 74.253 361.886,66.212 355.396,65.248 354.524 C 55.412 345.624,48.761 338.739,41.132 329.563 C 36.567 324.071,26.800 310.577,26.800 309.762 C 26.800 309.659,26.010 308.365,25.044 306.887 C 21.931 302.124,16.386 291.730,13.474 285.200 C 12.935 283.990,12.022 281.960,11.447 280.688 C 10.871 279.417,10.400 278.184,10.400 277.950 C 10.400 277.715,10.132 277.046,9.805 276.462 C 9.165 275.317,8.932 274.694,5.973 266.200 C 4.163 261.000,2.108 253.933,1.330 250.230 C 0.899 248.180,0.000 247.837,-0.000 249.724 M398.427 251.300 C 397.983 253.625,397.442 255.552,395.816 260.600 C 395.462 261.700,394.919 263.410,394.611 264.400 C 393.899 266.682,392.287 271.207,391.262 273.800 C 390.827 274.900,390.086 276.790,389.616 278.000 C 389.145 279.210,388.518 280.740,388.221 281.400 C 386.404 285.438,383.911 290.773,383.361 291.800 C 383.008 292.460,381.833 294.680,380.751 296.734 C 378.397 301.205,372.815 310.459,370.458 313.800 C 369.527 315.120,368.300 316.920,367.731 317.800 C 366.221 320.133,362.609 324.905,359.404 328.800 C 357.866 330.670,356.335 332.543,356.003 332.962 C 352.885 336.899,343.660 346.357,336.400 353.061 C 332.848 356.341,323.608 363.733,319.727 366.400 C 319.247 366.730,316.997 368.274,314.727 369.832 C 305.540 376.137,290.265 384.496,280.800 388.399 C 279.150 389.080,277.350 389.879,276.800 390.176 C 276.250 390.473,275.170 390.906,274.400 391.139 C 273.630 391.372,271.470 392.125,269.600 392.813 C 267.730 393.501,265.359 394.305,264.331 394.601 C 263.303 394.897,262.133 395.308,261.731 395.515 C 260.697 396.048,254.272 397.834,251.300 398.415 C 249.688 398.730,248.800 399.099,248.800 399.452 C 248.800 400.165,250.649 400.172,250.922 399.460 C 251.039 399.154,252.021 398.814,253.189 398.676 C 255.229 398.434,258.735 397.436,262.600 395.996 C 263.700 395.587,265.230 395.068,266.000 394.845 C 266.770 394.621,268.930 393.881,270.800 393.200 C 272.670 392.519,274.830 391.773,275.600 391.541 C 276.370 391.310,277.284 390.868,277.631 390.560 C 277.979 390.252,278.533 390.000,278.864 390.000 C 279.194 390.000,280.340 389.557,281.411 389.014 C 282.482 388.472,283.860 387.919,284.474 387.784 C 285.088 387.649,285.679 387.396,285.787 387.221 C 285.895 387.046,287.382 386.238,289.092 385.424 C 290.801 384.610,292.470 383.787,292.800 383.595 C 293.130 383.403,294.840 382.499,296.600 381.587 C 300.258 379.690,302.430 378.470,306.187 376.200 C 307.644 375.320,309.447 374.240,310.193 373.800 C 311.319 373.137,314.333 371.098,320.539 366.804 C 321.974 365.812,328.553 360.722,329.284 360.039 C 329.661 359.688,330.442 359.040,331.021 358.600 C 337.139 353.949,350.094 341.217,356.039 334.013 C 357.213 332.590,358.503 331.060,358.905 330.613 C 360.303 329.059,360.691 328.580,363.444 325.000 C 366.001 321.675,366.766 320.624,368.400 318.186 C 372.302 312.365,373.881 309.977,374.608 308.800 C 375.083 308.030,375.810 306.860,376.224 306.200 C 377.094 304.813,378.081 303.110,379.007 301.400 C 379.364 300.740,380.535 298.580,381.607 296.600 C 384.780 290.744,389.336 281.275,389.786 279.600 C 389.934 279.050,390.303 278.060,390.607 277.400 C 392.256 273.812,393.200 271.431,393.202 270.852 C 393.204 270.493,393.471 269.690,393.796 269.067 C 394.121 268.443,394.581 267.183,394.817 266.267 C 395.054 265.350,395.573 263.700,395.971 262.600 C 397.505 258.361,398.457 255.035,398.684 253.121 C 398.816 252.004,399.157 251.038,399.460 250.922 C 400.172 250.649,400.165 248.800,399.452 248.800 C 399.097 248.800,398.736 249.682,398.427 251.300 " stroke="none" fill="#848484" fill-rule="evenodd"></path></g></svg>