<?xml version="1.0" standalone="no"?>
<!DOCTYPE svg PUBLIC "-//W3C//DTD SVG 20010904//EN"
 "http://www.w3.org/TR/2001/REC-SVG-20010904/DTD/svg10.dtd">
<svg version="1.0" xmlns="http://www.w3.org/2000/svg"
 width="55.000000pt" height="58.000000pt" viewBox="0 0 55.000000 58.000000"
 preserveAspectRatio="xMidYMid meet">

<g transform="translate(0.000000,58.000000) scale(0.100000,-0.100000)"
fill="#000000" stroke="none">
<path d="M0 290 l0 -290 275 0 275 0 0 290 0 290 -275 0 -275 0 0 -290z m328
205 l37 -34 -87 -1 c-49 0 -88 4 -88 9 0 16 60 61 81 61 11 0 36 -16 57 -35z
m-23 -115 l29 -30 -27 -27 -27 -27 27 -28 27 -28 -32 -33 -32 -32 -32 32 -32
33 27 28 27 28 -27 27 -27 27 29 30 c16 16 32 30 35 30 3 0 19 -14 35 -30z
m-185 -92 l0 -113 -45 47 c-25 26 -45 56 -45 68 0 17 73 110 86 110 2 0 4 -51
4 -112z m390 2 c0 -11 -15 -37 -34 -57 l-34 -37 -7 32 c-3 17 -18 41 -32 52
l-25 19 21 27 c12 15 21 38 21 53 0 25 2 24 45 -21 25 -26 45 -56 45 -68z
m-182 -205 c-21 -19 -46 -35 -57 -35 -21 0 -81 45 -81 61 0 5 39 9 88 9 l87
-1 -37 -34z"/>
</g>
</svg>
