<svg height="400" viewBox="0 0 400 400" width="400" xmlns="http://www.w3.org/2000/svg"><g fill-rule="evenodd"><path d="m-0 74.433c0 76.444.063 79.536 1.456 71.336.259-1.523.756-3.309 1.105-3.969s.636-1.65.639-2.2.273-1.515.601-2.144.856-2.069 1.174-3.2c.317-1.131 1.056-3.316 1.643-4.856.586-1.54 1.388-3.7 1.782-4.8s1.004-2.54 1.356-3.2c.351-.66.64-1.389.642-1.619.001-.231.711-1.866 1.578-3.635.867-1.768 1.694-3.687 1.839-4.264s.507-1.251.804-1.498c.297-.246.753-1.109 1.013-1.916s.613-1.648.785-1.868c.369-.471 3.257-5.702 4.417-8 .445-.88 1.332-2.41 1.972-3.4s1.422-2.363 1.738-3.051.784-1.381 1.04-1.539.633-.675.837-1.149c.311-.718 1.993-3.255 4.483-6.759.273-.384.946-1.335 1.496-2.114 1.771-2.509 6.833-9.136 8.339-10.916.803-.95 1.911-2.288 2.461-2.974 3.194-3.981 12.963-14.09 17.682-18.298 1.851-1.65 4.524-4.032 5.941-5.294 2.362-2.101 10.354-8.301 13.802-10.706.789-.55 1.736-1.276 2.104-1.614.369-.337 1.481-1.13 2.471-1.762s2.288-1.481 2.884-1.887c.596-.405 1.257-.737 1.469-.737s.896-.405 1.519-.9c.624-.495 1.493-1.115 1.931-1.379 2.846-1.709 7.915-4.571 9.05-5.11 2.068-.982 3.686-1.813 4.347-2.235.33-.21 1.05-.58 1.6-.822s1.27-.595 1.6-.785c1.289-.742 5.543-2.744 8.4-3.952 1.65-.698 3.54-1.511 4.2-1.808.66-.296 2.01-.843 3-1.215.99-.371 2.97-1.118 4.4-1.659s3.59-1.259 4.8-1.596 2.392-.771 2.627-.964c.235-.194 1.405-.558 2.6-.81s2.391-.633 2.657-.847 1.784-.608 3.374-.876c8.18-1.378 5.029-1.442-71.225-1.442h-74.433zm251.298-73.94c.09.271 1.432.705 2.982.965 1.55.259 3.156.652 3.569.872.889.475 5.129 1.876 7.951 2.629 1.1.293 2.54.826 3.2 1.184.66.359 1.522.653 1.916.655.394.001 1.422.362 2.284.802s1.8.802 2.084.804 1.416.446 2.516.987 2.132.99 2.292.996c.555.024 13.576 6.259 16.708 8 .77.428 3.11 1.72 5.2 2.87s3.89 2.213 4 2.361c.11.149.74.578 1.4.954 2.976 1.694 4.411 2.608 8.215 5.228 5.673 3.908 5.878 4.056 10.054 7.276 9.303 7.17 22.109 19.146 28.558 26.705 2.553 2.991 3.402 3.969 4.536 5.219.77.849 6.49 8.278 7.837 10.178.44.621 1.514 2.185 2.386 3.475.873 1.291 1.692 2.437 1.821 2.547.384.328 2.612 3.751 2.863 4.4.128.33 1.064 1.839 2.081 3.353s1.849 2.9 1.849 3.08.535 1.12 1.19 2.09c.654.969 1.562 2.553 2.017 3.52 1.109 2.354 1.956 4.029 2.405 4.757.839 1.359 6.388 13.001 6.388 13.401 0 .171.336 1.051.748 1.955 1.237 2.722 2.499 5.959 2.901 7.444.208.77.626 1.85.928 2.4s.677 1.677.832 2.504c.155.828.621 2.171 1.036 2.985s.755 1.898.755 2.408c0 .511.288 1.598.639 2.416.352.818.857 2.735 1.123 4.261 1.377 7.909 1.438 4.882 1.438-71.541v-74.633h-74.433c-58.802 0-74.399.104-74.269.493m-55.857 132.49c-.858.527-5.632 4.976-10.609 9.888-4.977 4.911-10.527 10.369-12.334 12.129-10.206 9.944-10.181 10.038 7.17 27.469 15.177 15.246 14.047 13.976 13.562 15.251-.218.576-5.94 6.592-12.714 13.369-14.729 14.738-14.651 14.643-14.622 17.735.032 3.443.331 3.815 14.694 18.308 19.763 19.942 17.047 19.941 36.878.005 17.857-17.952 18.08-18.53 10.13-26.207-1.318-1.272-2.396-2.422-2.396-2.556s-4.387-4.644-9.749-10.022c-7.565-7.587-9.815-10.076-10.042-11.109-.289-1.32-.178-1.445 12.513-14.187 19.254-19.33 19.282-16.66-.378-36.292-15.617-15.595-17.372-16.688-22.103-13.781m203.58 118.317c-.085.275-.267 1.297-.404 2.271-.247 1.752-1.244 5.155-2.646 9.029-.398 1.1-.917 2.75-1.154 3.667-.236.916-.696 2.176-1.021 2.8-.325.623-.592 1.426-.594 1.785-.002.579-.946 2.96-2.595 6.548-.304.66-.673 1.65-.821 2.2-.45 1.675-5.006 11.144-8.179 17-1.072 1.98-2.243 4.14-2.6 4.8-.926 1.71-1.913 3.413-2.783 4.8-.414.66-1.141 1.83-1.616 2.6-.727 1.177-2.306 3.565-6.208 9.386-1.634 2.438-2.399 3.489-4.956 6.814-2.753 3.58-3.141 4.059-4.539 5.613-.402.447-1.692 1.977-2.866 3.4-5.945 7.204-18.9 19.936-25.018 24.587-.579.44-1.36 1.088-1.737 1.439-.731.683-7.31 5.773-8.745 6.765-6.206 4.294-9.22 6.333-10.346 6.996-.746.44-2.549 1.52-4.006 2.4-3.757 2.27-5.929 3.49-9.587 5.387-1.76.912-3.47 1.816-3.8 2.008s-1.999 1.015-3.708 1.829c-1.71.814-3.197 1.622-3.305 1.797s-.699.428-1.313.563-1.992.688-3.063 1.23c-1.071.543-2.217.986-2.547.986-.331 0-.885.252-1.233.56-.347.308-1.261.75-2.031.981-.77.232-2.93.978-4.8 1.659s-4.03 1.421-4.8 1.645c-.77.223-2.3.742-3.4 1.151-3.701 1.379-7.186 2.381-9.367 2.694-1.192.172-2.242.536-2.333.811-.133.398 14.997.499 74.467.499h74.633v-74.6c0-69.838-.094-76.971-.979-74.1m-399.021 74.267v74.433h74.633c76.32 0 79.596-.065 71.507-1.428-1.545-.261-3.153-.652-3.574-.87s-1.756-.627-2.966-.91c-1.21-.282-2.56-.736-3-1.008s-1.499-.617-2.354-.767c-.855-.151-2.202-.621-2.994-1.045-.792-.425-1.805-.772-2.252-.772s-1.439-.336-2.206-.747c-.767-.41-1.967-.872-2.666-1.025-.7-.154-1.472-.519-1.715-.812s-1.104-.657-1.914-.809c-.809-.151-1.928-.598-2.485-.992-.558-.393-1.587-.839-2.286-.991-.7-.151-1.487-.534-1.749-.85s-.661-.574-.886-.574c-.593 0-6.212-2.746-6.469-3.161-.119-.193-.684-.468-1.255-.611-.572-.144-2.036-.839-3.253-1.544-1.217-.706-3.316-1.881-4.665-2.61-1.348-.729-3.081-1.735-3.851-2.236-1.462-.95-3.337-2.142-4.456-2.833-.742-.458-8.247-5.582-9.967-6.805-2.102-1.495-9.221-7.003-10.377-8.03-1.254-1.113-2.325-2.044-5.019-4.361-3.562-3.062-14.867-14.371-17.985-17.99-2.842-3.298-3.59-4.153-4.567-5.219-.728-.795-6.884-8.815-8.03-10.461-2.814-4.042-6.271-9.111-6.591-9.663-.216-.372-1.141-1.846-2.057-3.276-.915-1.43-2.501-4.13-3.524-6s-2.028-3.67-2.235-4c-1.404-2.246-8.243-16.668-8.624-18.186-.141-.562-.405-1.113-.586-1.225s-.627-1.228-.991-2.479-.916-2.638-1.226-3.082c-.311-.443-.565-1.174-.565-1.623s-.336-1.444-.747-2.211c-.41-.767-.874-2.024-1.03-2.794-.155-.77-.607-2.3-1.003-3.4-1.449-4.027-2.17-6.453-2.605-8.772-1.357-7.226-1.415-4.287-1.415 71.739" fill="#f9f9f9"/><path d="m196.2 65.075c-2.497.324-7.616 1.421-8 1.715-.22.168-1.12.536-2 .819-1.636.524-1.987.713-5.8 3.119-3.362 2.121-32.382 31.216-31.586 31.667.338.192 19.328.433 42.2.537 26.341.119 42.466.342 43.986.607 1.32.231 4.02.68 6 .998 1.98.317 4.59.879 5.8 1.248s3.329 1.018 4.708 1.443c2.816.867 3.692.956 3.692.374 0-.616-34.159-34.6-36.514-36.328-6.034-4.425-15.671-7.082-22.486-6.199m83.984 69.252c2.441 9.823 2.899 19.762 1.238 26.88-1.091 4.672-2.456 9.111-3.007 9.775-.199.24-.915 1.486-1.59 2.77-3.63 6.901-13.527 14.939-22.872 18.575-1.895.737-1.701 3.273.25 3.273 1.792 0 14.597 5.28 14.597 6.019 0 .166.495.478 1.1.693 3.316 1.177 10.647 7.913 13.592 12.488.779 1.21 1.719 2.65 2.091 3.2 4.564 6.762 7.119 21.307 5.693 32.4-.747 5.803-1.219 6.136 16.756-11.808 21.537-21.5 22.582-22.91 24.597-33.202 1.494-7.63-.221-18.742-3.381-21.902-.246-.246-.448-.656-.448-.911 0-1.35-5.856-7.608-25.472-27.22-20.831-20.827-23.754-23.483-23.144-21.03m-187.801 23.573c-22.196 22.312-22.769 22.986-25.328 29.791-2.467 6.559-2.642 16.656-.381 21.905.333.772.755 1.898.937 2.502.515 1.704 3.851 7.111 5.618 9.105 4.775 5.39 39.769 40.017 40.331 39.909.583-.112.649-5.639.741-61.693.102-61.714.093-62.178-1.113-62.213-.117-.003-9.48 9.309-20.805 20.694m155.417 136.139c-3.848 1.186-7.454 1.29-52.6 1.523l-46.2.238.082.823c.073.736 25.541 26.534 28.718 29.09 12.658 10.184 29.878 10.312 42.347.314 3.825-3.067 31.977-31.503 31.674-31.994-.319-.515-2.342-.512-4.021.006" fill="#04e879"/><path d="m153.6.42c0 .631-2.306 1.442-4.934 1.735-1.284.143-2.814.505-3.4.805-.587.3-1.875.68-2.864.844-.989.165-2.426.636-3.194 1.048-.768.411-1.851.748-2.408.748s-1.639.331-2.406.736-2.292.959-3.389 1.23-2.177.636-2.4.811c-.223.176-1.125.548-2.005.828s-1.955.753-2.389 1.052-1.064.545-1.4.547-1.511.446-2.611.987-2.18.987-2.4.99c-.346.006-6.9 3.117-8.6 4.083-.33.188-1.23.648-2 1.023s-1.67.891-2 1.147-1.275.682-2.1.946c-.825.265-1.5.621-1.5.79 0 .17-.675.605-1.5.967s-2.22 1.098-3.1 1.635c-.88.538-2.149 1.304-2.82 1.703-2.618 1.556-3.947 2.388-6.425 4.025-1.416.935-2.75 1.7-2.964 1.7-.215 0-.391.162-.391.36 0 .199-.585.729-1.3 1.178-.715.45-2.02 1.365-2.9 2.033s-1.87 1.337-2.2 1.487-.87.516-1.2.814c-.33.299-1.86 1.536-3.4 2.75-1.54 1.215-3.265 2.606-3.834 3.093s-2.189 1.875-3.6 3.085c-3.177 2.723-18.837 18.38-20.82 20.815-.799.982-2.912 3.585-4.694 5.785s-3.483 4.27-3.781 4.6c-.297.33-.663.87-.813 1.2s-.813 1.32-1.475 2.2c-1.833 2.439-4.915 6.967-5.545 8.147-.309.579-.689 1.143-.844 1.253s-.582.785-.948 1.5c-.367.715-.815 1.3-.996 1.3s-.631.675-1 1.5c-1.191 2.664-2.248 4.5-2.59 4.5-.183 0-.549.72-.813 1.6-.263.88-.625 1.6-.802 1.6-.178 0-.622.675-.986 1.5s-.96 2.04-1.325 2.7c-1.148 2.078-1.281 2.335-2.723 5.289-.776 1.588-1.411 3.151-1.411 3.471 0 .321-.243.826-.54 1.122-.296.297-.774 1.251-1.06 2.119-.287.869-.854 2.124-1.259 2.789-.406.666-.739 1.602-.74 2.081 0 .48-.257 1.128-.569 1.44-.313.313-.781 1.361-1.039 2.329-.259.968-.62 1.942-.803 2.165-.182.223-.553 1.303-.824 2.4s-.825 2.622-1.23 3.389-.736 1.852-.736 2.411-.279 1.415-.619 1.901-.868 2.101-1.172 3.589-.828 3.425-1.164 4.305c-.335.88-.618 2.158-.627 2.84-.025 1.766-.798 3.76-1.457 3.76-1.049 0-.815 92.66.236 93.536.549.458.909 1.472 1.159 3.264.199 1.43.74 3.719 1.203 5.087.462 1.368.841 2.854.841 3.302s.36 1.486.8 2.307c.44.82.8 1.947.8 2.504s.331 1.639.736 2.406.955 2.278 1.222 3.357c.267 1.08.746 2.335 1.064 2.789s.579 1.191.581 1.637c.001.446.36 1.351.797 2.011s.796 1.453.797 1.761c.002.309.44 1.485.974 2.613.533 1.129 1.093 2.541 1.243 3.139s.426 1.087.613 1.087c.188 0 .559.765.826 1.7s.71 1.97.985 2.3.621 1.088.77 1.684.514 1.285.811 1.532c.297.246.758 1.109 1.024 1.916s.777 1.918 1.136 2.468c1.139 1.744 1.61 2.558 2.432 4.2.44.88 1.242 2.32 1.781 3.2s1.264 2.14 1.611 2.8c.348.66 1.077 1.83 1.621 2.6 1.461 2.07 1.756 2.514 2.291 3.451.267.469 1.34 2.089 2.385 3.6 1.044 1.512 2.207 3.199 2.583 3.749.377.55 1.367 1.835 2.201 2.856.834 1.02 1.516 2.061 1.516 2.312s.277.563.615.693.87.709 1.182 1.287c.312.579 1.25 1.821 2.085 2.76s1.878 2.166 2.318 2.726c2.205 2.807 4.653 5.409 11.819 12.562 8.05 8.035 10.979 10.804 11.43 10.804.143 0 .668.405 1.167.9 1.151 1.14 1.892 1.76 4.184 3.5 1.014.77 2.104 1.624 2.422 1.897 1.119.962 4.992 3.937 6.138 4.716.637.433 1.556 1.057 2.04 1.387 1.1.75 2.73 1.824 4.8 3.164.88.57 1.78 1.174 2 1.342 1.52 1.161 7.287 4.602 10.126 6.041.811.411 1.564.886 1.674 1.055.11.17.83.595 1.6.945s1.67.81 2 1.021 1.986 1.027 3.68 1.813c1.693.786 3.189 1.607 3.323 1.824s.537.395.894.395c.626 0 1.421.337 6.735 2.85 1.337.632 2.643 1.15 2.901 1.15s1.142.36 1.963.8c.82.44 1.716.8 1.99.8.551 0 4.991 1.673 7.558 2.848.904.413 2.074.753 2.6.754.526.002 1.443.257 2.039.568s2.126.786 3.4 1.055c1.274.27 2.711.732 3.193 1.027.482.294 1.922.652 3.2.794 2.62.292 4.924 1.104 4.924 1.734 0 .921 92.365.548 93.136-.377.474-.568 1.502-.913 3.588-1.202 1.607-.222 3.407-.653 4-.956.592-.303 1.886-.677 2.876-.832.99-.154 2.43-.599 3.2-.987.77-.389 2.24-.832 3.267-.986s2.069-.522 2.315-.818c.245-.296 1.107-.662 1.914-.814.807-.151 2.143-.62 2.969-1.041.827-.422 1.825-.773 2.219-.78.394-.006 1.616-.455 2.716-.996s2.293-.985 2.651-.987.86-.256 1.116-.565c.256-.308.948-.681 1.536-.829 1.047-.263 4.905-1.914 6.097-2.609.33-.192 1.95-1.004 3.6-1.803 1.65-.8 3.27-1.619 3.6-1.82s1.223-.646 1.985-.987c.762-.342 1.662-.863 2-1.159s1.028-.663 1.532-.817 2.103-1.075 3.553-2.047c1.45-.973 2.882-1.768 3.183-1.768s.547-.153.547-.339c0-.187.72-.664 1.6-1.061s1.6-.862 1.6-1.034.338-.419.751-.55c.413-.132 1.268-.683 1.9-1.227.632-.543 1.346-.988 1.587-.989.241 0 .764-.36 1.162-.8s.957-.8 1.242-.8.662-.244.838-.542c.176-.297.755-.77 1.287-1.049.875-.46 4.532-3.225 6.033-4.561.33-.293 1.435-1.163 2.455-1.933 2.443-1.843 3.044-2.34 4.129-3.415.499-.495 1.019-.9 1.155-.9.901 0 22.261-21.423 22.261-22.327 0-.171.689-1.029 1.532-1.906.842-.877 1.697-1.882 1.9-2.233.202-.352 1.033-1.426 1.847-2.387 2.62-3.097 5.008-6.189 5.525-7.155.277-.518.657-1.133.844-1.367s.793-.991 1.346-1.683 1.006-1.412 1.006-1.6c.001-.188.406-.828.9-1.423.495-.595 1.44-2.005 2.1-3.133.66-1.129 1.425-2.295 1.7-2.591s.5-.707.5-.913c0-.207.765-1.531 1.7-2.942s2.404-3.955 3.265-5.653 1.716-3.087 1.9-3.087.335-.226.335-.503.806-2.121 1.79-4.099c.985-1.978 1.896-4.08 2.026-4.67.129-.59.493-1.286.807-1.547s.769-1.218 1.011-2.128c.242-.909.674-1.923.959-2.253s.648-1.23.807-2 .522-1.67.807-2 .733-1.41.995-2.4.625-1.982.808-2.205c.182-.223.549-1.303.817-2.4.267-1.097.722-2.27 1.01-2.605.289-.336.645-1.416.791-2.4.147-.985.495-2.157.773-2.606.279-.449.729-1.889.999-3.2s.74-2.868 1.044-3.46c.304-.593.735-2.393.957-4 .289-2.086.634-3.114 1.202-3.588.925-.771 1.298-93.136.377-93.136-.63 0-1.442-2.304-1.734-4.924-.142-1.278-.5-2.718-.794-3.2-.295-.482-.762-1.956-1.039-3.276-.276-1.32-.642-2.58-.813-2.8s-.54-1.48-.82-2.8c-.281-1.32-.727-2.67-.991-3-.265-.33-.609-1.134-.765-1.786-.155-.652-.629-1.948-1.053-2.878-.424-.931-.771-1.93-.771-2.22s-.336-1.155-.747-1.922c-.41-.767-.872-1.967-1.025-2.666-.154-.7-.522-1.474-.819-1.72-.296-.246-.752-1.339-1.014-2.428-.261-1.089-.63-1.98-.819-1.98s-.562-.765-.829-1.7-.697-1.97-.956-2.3c-.667-.851-2.991-5.77-2.991-6.332 0-.257-.161-.468-.358-.468s-1.142-1.548-2.1-3.44c-2.87-5.667-3.051-5.987-3.709-6.533-.348-.289-.636-.728-.64-.976-.007-.427-1.68-3.129-2.991-4.832-.331-.43-.602-.933-.602-1.117 0-.185-.765-1.363-1.7-2.619s-1.88-2.574-2.1-2.93c-.863-1.397-2.049-3.048-3.702-5.153-.949-1.21-1.995-2.56-2.324-3-2.036-2.723-5.152-6.448-5.621-6.72-.304-.176-.553-.493-.553-.705 0-1.391-19.839-20.861-26.015-25.532-1.422-1.075-3.021-2.425-3.555-2.999-.533-.574-1.138-1.044-1.344-1.044s-1.21-.683-2.23-1.518c-1.021-.835-2.378-1.87-3.016-2.3-1.663-1.122-2.682-1.821-4.633-3.182-.947-.66-2.101-1.418-2.564-1.685-.934-.538-1.393-.843-3.443-2.291-.77-.544-1.94-1.273-2.6-1.621-.66-.347-1.92-1.072-2.8-1.611-1.478-.906-2.899-1.671-6-3.23-.66-.332-1.47-.776-1.8-.988-.33-.211-1.32-.74-2.2-1.174s-1.87-.948-2.2-1.141c-1.087-.636-5.074-2.459-5.377-2.459-.163 0-.754-.36-1.314-.8-.559-.44-1.308-.802-1.663-.804s-1.546-.446-2.646-.987-2.302-.99-2.671-.996c-.37-.007-.928-.269-1.24-.581-.313-.313-1.361-.781-2.329-1.039-.968-.259-1.94-.618-2.16-.796-.22-.179-1.559-.625-2.976-.992-1.417-.366-2.942-.923-3.389-1.236s-1.271-.569-1.83-.569-1.645-.337-2.413-.748c-.768-.412-2.205-.882-3.194-1.045s-2.419-.552-3.177-.864c-.759-.313-2.649-.744-4.2-.959-1.993-.276-3.016-.624-3.485-1.187-.771-.925-93.136-1.298-93.136-.377m53.155 65.01c2.875.644 2.778.607 7.445 2.805 4.633 2.182 6.61 3.951 25.192 22.541 19.075 19.085 19.055 19.053 10.608 16.285-10.902-3.573-11.606-3.619-59.08-3.853-43.451-.215-43.9-.233-42.474-1.744.305-.323 7.034-7.101 14.954-15.063 15.35-15.432 17.289-17.06 23.014-19.333 2.363-.939 6.356-1.968 9.386-2.419 1.967-.293 8.12.145 10.955.781m-4.23 65.798c2.472.686 30.453 28.863 30.811 31.025 1.039 6.29 1.205 6.035-13.76 21.068-10.365 10.411-13.041 13.309-12.875 13.943.115.44 4.549 5.177 9.854 10.526 16.882 17.025 17.034 17.213 17.079 21.072.046 3.974.051 3.968-14.374 18.468-15.778 15.861-15.896 15.955-20.072 16.017-4.303.064-4.888-.394-20.251-15.848-14.458-14.543-14.194-14.194-14.194-18.848 0-3.378.374-3.847 13.826-17.327 7.124-7.139 13.054-13.368 13.178-13.843.187-.717-2.03-3.131-13.105-14.272l-13.331-13.409-.42-2.413c-.517-2.97-.034-5.939 1.199-7.364.855-.987 24.962-25.036 27.433-27.367 1.828-1.724 5.715-2.341 9.002-1.428m123.64 46.772c2.371 2.903 2.789 3.615 5.278 9 5.228 11.308 1.982 26.055-8.043 36.545-9.538 9.98-31.274 31.308-32.124 31.522-.939.235-.967.185-.723-1.311 2.845-17.482-1.1-33-11.031-43.396-6.529-6.834-16.868-12.747-25.449-14.556-2.925-.616-2.213-2.825 1.41-4.37 20.136-8.59 29.515-26.524 25.959-49.634-.373-2.42-.939-5.079-1.26-5.908-.615-1.593-.767-3.574-.309-4.032.336-.336 43.343 42.529 46.292 46.14m-211.732-40.8c.221 0 .367 24.762.367 62.374v62.373l-1.097-.199c-2.26-.41-42.11-41.042-44.124-44.989-.422-.828-.936-1.609-1.143-1.737-.206-.127-.682-1.174-1.058-2.327-.376-1.152-.817-2.275-.979-2.495-1.632-2.209-2.239-13.085-1.027-18.4.891-3.907 3.997-10.492 6.225-13.2 3.285-3.992 41.402-41.808 41.936-41.604.293.112.698.204.9.204m138.138 156.754c.166.268-28.191 28.903-31.735 32.046-2.84 2.519-8.832 5.685-12.486 6.598-1.402.35-3.27.826-4.15 1.058-5.016 1.319-15.848-.754-21.696-4.152-4.127-2.398-4.837-3.046-20.804-18.954-11.695-11.652-14.252-14.479-13.6-15.035.055-.047 21.52-.194 47.7-.326 42.047-.212 47.833-.315 49.6-.879 2.176-.695 6.82-.925 7.171-.356" fill="#101010"/><path d="m151.2.559c0 .378-.875.708-2.7 1.02-1.485.253-3.78.805-5.1 1.226-6.719 2.143-14.892 4.864-15.6 5.192-.44.204-2.42.998-4.4 1.764-7.273 2.814-20.626 9.477-29.737 14.839-.374.22-1.244.805-1.933 1.3s-1.356.9-1.481.9c-1.604 0-18.86 13.115-27.631 21-9.942 8.938-21.909 22.189-28.39 31.439-1.71 2.44-8.678 12.874-9.724 14.561-4.657 7.512-11.682 21.589-14.705 29.471-.787 2.051-1.601 4.089-1.81 4.529-.989 2.087-5.685 17.146-6.262 20.084-.43 2.186-.835 3.316-1.19 3.316-.306 0-.537.429-.537 1 0 .591.229 1 .561 1 .659 0 1.432-1.994 1.457-3.76.009-.682.292-1.96.627-2.84.336-.88.86-2.817 1.164-4.305s.832-3.103 1.172-3.589.619-1.342.619-1.901.331-1.644.736-2.411.959-2.292 1.23-3.389.642-2.177.824-2.4c.183-.223.544-1.197.803-2.165.258-.968.726-2.016 1.039-2.329.312-.312.569-.96.569-1.44.001-.479.334-1.415.74-2.081.405-.665.972-1.92 1.259-2.789.286-.868.764-1.822 1.06-2.119.297-.296.54-.801.54-1.122 0-.32.635-1.883 1.411-3.471 1.442-2.954 1.575-3.211 2.723-5.289.365-.66.961-1.875 1.325-2.7s.808-1.5.986-1.5c.177 0 .539-.72.802-1.6.264-.88.63-1.6.813-1.6.342 0 1.399-1.836 2.59-4.5.369-.825.819-1.5 1-1.5s.629-.585.996-1.3c.366-.715.793-1.39.948-1.5s.535-.674.844-1.253c.63-1.18 3.712-5.708 5.545-8.147.662-.88 1.325-1.87 1.475-2.2s.516-.87.813-1.2c.298-.33 1.999-2.4 3.781-4.6s3.895-4.803 4.694-5.785c1.983-2.435 17.643-18.092 20.82-20.815 1.411-1.21 3.031-2.598 3.6-3.085s2.294-1.878 3.834-3.093c1.54-1.214 3.07-2.451 3.4-2.75.33-.298.87-.664 1.2-.814s1.32-.819 2.2-1.487 2.185-1.583 2.9-2.033c.715-.449 1.3-.979 1.3-1.178 0-.198.176-.36.391-.36.214 0 1.548-.765 2.964-1.7 2.478-1.637 3.807-2.469 6.425-4.025.671-.399 1.94-1.165 2.82-1.703.88-.537 2.275-1.273 3.1-1.635s1.5-.797 1.5-.967c0-.169.675-.525 1.5-.79.825-.264 1.77-.69 2.1-.946s1.23-.772 2-1.147 1.67-.835 2-1.023c1.7-.966 8.254-4.077 8.6-4.083.22-.003 1.3-.449 2.4-.99s2.275-.985 2.611-.987.966-.248 1.4-.547 1.509-.772 2.389-1.052 1.782-.652 2.005-.828c.223-.175 1.303-.54 2.4-.811s2.622-.825 3.389-1.23 1.849-.736 2.406-.736 1.64-.337 2.408-.748c.768-.412 2.205-.883 3.194-1.048.989-.164 2.277-.544 2.864-.844.586-.3 2.116-.662 3.4-.805 3.876-.432 6.861-2.155 3.734-2.155-.761 0-1.2.205-1.2.559m95.2-.208c0 .752 1.175 1.248 3.852 1.628 1.534.218 3.41.651 4.169.964.758.312 2.188.701 3.177.864s2.426.633 3.194 1.045c.768.411 1.854.748 2.413.748s1.383.256 1.83.569 1.972.87 3.389 1.236c1.417.367 2.756.813 2.976.992.22.178 1.192.537 2.16.796.968.258 2.016.726 2.329 1.039.312.312.87.574 1.24.581.369.006 1.571.455 2.671.996s2.291.985 2.646.987 1.104.364 1.663.804c.56.44 1.151.8 1.314.8.303 0 4.29 1.823 5.377 2.459.556.325 2.023 1.082 5 2.579.66.332 1.47.776 1.8.988.33.211 1.32.744 2.2 1.185.88.44 2.32 1.242 3.2 1.781s2.14 1.264 2.8 1.611c.66.348 1.83 1.077 2.6 1.621 2.05 1.448 2.509 1.753 3.443 2.291.463.267 1.617 1.025 2.564 1.685 1.951 1.361 2.97 2.06 4.633 3.182.638.43 1.995 1.465 3.016 2.3 1.02.835 2.024 1.518 2.23 1.518s.811.47 1.344 1.044c.534.574 2.133 1.924 3.555 2.999 6.176 4.671 26.015 24.141 26.015 25.532 0 .212.249.529.553.705.469.272 3.585 3.997 5.621 6.72.329.44 1.375 1.79 2.324 3 1.653 2.105 2.839 3.756 3.702 5.153.22.356 1.165 1.674 2.1 2.93s1.7 2.434 1.7 2.619c0 .184.271.687.602 1.117 1.311 1.703 2.984 4.405 2.991 4.832.004.248.292.687.64.976.658.546.839.866 3.709 6.533.958 1.892 1.903 3.44 2.1 3.44s.358.211.358.468c0 .562 2.324 5.481 2.991 6.332.259.33.689 1.365.956 2.3s.64 1.7.829 1.7.558.891.819 1.98c.262 1.089.718 2.182 1.014 2.428.297.246.665 1.02.819 1.72.153.699.615 1.899 1.025 2.666.411.767.747 1.632.747 1.922s.347 1.289.771 2.22c.424.93.898 2.226 1.053 2.878.156.652.5 1.456.765 1.786.264.33.71 1.68.991 3 .28 1.32.649 2.58.82 2.8s.537 1.48.813 2.8c.277 1.32.744 2.794 1.039 3.276.294.482.652 1.922.794 3.2.292 2.62 1.104 4.924 1.734 4.924.643 0 .501-2.283-.158-2.536-.318-.122-.691-.906-.829-1.743-.26-1.572-2.29-9.006-3.037-11.121-.233-.66-.665-2.01-.959-3s-1.1-3.24-1.79-5-1.493-3.92-1.784-4.8c-.65-1.961-1.523-4.011-4.512-10.6-2.495-5.499-7.863-15.82-8.755-16.831-.306-.348-.556-.766-.556-.93 0-.416-6.422-10.648-8.811-14.039-3.569-5.065-12.785-16.84-13.621-17.403-.166-.112-.871-.922-1.567-1.8-1.477-1.865-7.664-8.221-12.456-12.797-10.126-9.671-21.122-18.108-33.89-26.005-2.661-1.645-6.844-4.022-10.055-5.713-2.09-1.1-4.34-2.286-5-2.636-2.678-1.417-13.237-6.237-13.712-6.26-.158-.007-1.008-.361-1.888-.786s-1.753-.779-1.94-.786c-.186-.008-.906-.273-1.6-.59-3.444-1.575-17.97-6.076-21.46-6.651-1.21-.199-2.4-.635-2.644-.968-.473-.645-2.156-.843-2.156-.254m-50.6 64.298c-3.03.451-7.023 1.48-9.386 2.419-2.641 1.048-3.124 1.309-6.614 3.564-1.458.942-25.125 24.214-31.326 30.803-.569.606-.317 1.369.45 1.359.285-.004.236-.158-.123-.385-.474-.299 2.529-3.497 14.4-15.336 15.426-15.383 18.572-18.046 22.999-19.464.88-.283 1.78-.651 2-.819.479-.366 5.896-1.45 9.057-1.813 2.763-.316 10.102.759 12.943 1.897 3.915 1.567 4.108 1.623 3.224.933-.428-.334-.94-.607-1.14-.607s-.93-.262-1.624-.582c-2.945-1.36-11.415-2.482-14.86-1.969m22.643 6.463c2.651 1.982 36.757 35.815 36.757 36.463 0 .201-.315.458-.7.57-.421.122-.314.173.269.129.532-.041 1.028-.256 1.101-.478.325-.988-38.206-38.596-39.543-38.596-.243 0 .709.86 2.116 1.912m-49.743 31.988c10.615.059 27.985.059 38.6 0s1.93-.108-19.3-.108-29.915.049-19.3.108m61.805.387c.609.092 1.509.09 2-.005.492-.095-.005-.171-1.105-.168s-1.503.081-.895.173m4.395.389c.385.1 1.015.1 1.4 0 .385-.101.07-.183-.7-.183s-1.085.082-.7.183m8.5 1.263c1.237.529 3.31.938 2.6.512-.33-.197-1.23-.471-2-.607-.944-.167-1.14-.136-.6.095m7.8 2.23c.55.332 1.27.604 1.6.605.803.002-.148-.558-1.6-.942l-1-.265zm-55.132 23.828c-1.585.375-.622-.517-16.425 15.203-16.466 16.38-15.736 15.34-14.752 20.987l.42 2.413 13.331 13.409c11.075 11.141 13.292 13.555 13.105 14.272-.124.475-6.054 6.704-13.178 13.843-13.452 13.48-13.826 13.949-13.826 17.327 0 4.654-.264 4.305 14.194 18.848 15.363 15.454 15.948 15.912 20.251 15.848 4.176-.062 4.294-.156 20.072-16.017 14.425-14.5 14.42-14.494 14.374-18.468-.045-3.859-.197-4.047-17.079-21.072-5.305-5.349-9.739-10.086-9.854-10.526-.166-.634 2.51-3.532 12.875-13.943 14.063-14.127 14.033-14.088 14.02-18.198-.014-4.061.55-3.35-15.031-18.944-16.499-16.513-16.374-16.43-22.497-14.982m7.187 1.03c1.456.751 27.739 26.822 28.973 28.738 1.157 1.798 1.049 6.352-.201 8.444-.523.875-6.617 7.289-13.542 14.252-11.127 11.189-12.563 12.775-12.346 13.639.135.539 4.603 5.389 9.953 10.805 22.335 22.611 22.137 19.297 2.351 39.236-14.273 14.385-15.61 15.459-19.24 15.459-3.738 0-4.349-.489-19.089-15.273-19.821-19.881-19.771-17.145-.666-36.34 9.887-9.935 12.952-13.244 12.952-13.987 0-.742-3.066-4.058-12.933-13.987-19.056-19.175-19.012-17.09-.749-35.178 15.669-15.521 15.77-15.614 17.569-16.284 1.864-.694 5.133-.471 6.968.476m76.618-.367c-.464.464-.267 2.678.349 3.94.616 1.26.619 1.31-.096-1.673-.177-.741-.075-.839.673-.643 1.146.3 43.584 42.723 46.089 46.073 1.052 1.407 1.912 2.362 1.912 2.124 0-1.471-48.198-50.55-48.927-49.821m-186.752 24.836c-24.776 24.808-25.653 25.918-27.749 35.104-1.212 5.315-.605 16.191 1.027 18.4.162.22.603 1.343.979 2.495.376 1.153.852 2.2 1.058 2.327.207.128.721.909 1.143 1.737 2.014 3.947 41.864 44.579 44.124 44.989l1.097.199v-62.373c0-37.612-.146-62.374-.367-62.374-.202 0-.607-.092-.9-.204-.322-.123-8.413 7.686-20.412 19.7m20.78-19.165c.859.545.52 123.415-.341 123.581-.562.108-35.556-34.519-40.331-39.909-1.767-1.994-5.103-7.401-5.618-9.105-.182-.604-.604-1.73-.937-2.502-3.175-7.369-1.8-19.108 3.254-27.796 1.642-2.822 42.194-44.625 43.26-44.594.116.003.438.149.713.325m167.574 5.069c.129 1.32.387 2.76.575 3.2.402.946.072-2.075-.461-4.206-.26-1.041-.289-.786-.114 1.006m.325 15c-.154.91-.189 1.744-.079 1.854s.325-.544.479-1.454.189-1.744.079-1.854-.325.544-.479 1.454m-3.506 12.903-.706 1.297.806-.944c.686-.804 1.052-1.662.706-1.653-.055.001-.418.586-.806 1.3m50.519 12.117c-.007.231.189.622.435.868 2.953 2.953 4.849 14.05 3.564 20.855-1.01 5.343-.875 6.287.222 1.558 1.366-5.887.545-15.378-1.634-18.888-.278-.447-.614-1.285-.747-1.862-.256-1.105-1.817-3.253-1.84-2.531m-62.613 2.429-2 1.832 2.1-1.678c1.818-1.452 2.395-2.027 2-1.995-.055.005-1 .833-2.1 1.841m-10.2 6.151c-.77.422-1.22.766-1 .766s1.03-.344 1.8-.766 1.22-.766 1-.766-1.03.344-1.8.766m5.2 7c.55.314 1.18.572 1.4.572s-.05-.258-.6-.572-1.18-.572-1.4-.572.05.258.6.572m9.933 5.1c3.06 2.084 6.441 4.947 9.013 7.633 2.601 2.715 2.64 2.74.738.467-2.932-3.503-9.42-8.967-10.678-8.992-.217-.004.2.397.927.892m58.579 10.953c-.929 1.841-1.628 3.347-1.554 3.347.537 0 3.736-6.283 3.359-6.597-.064-.053-.877 1.409-1.805 3.25m-45.312 2.413c0 .208.45.989 1 1.734s1 1.238 1 1.095c0-.142-.45-.923-1-1.733-.55-.811-1-1.303-1-1.096m41.665 3.434c-3.846 4.95-33.981 34.468-34.634 33.926-.396-.329-.55-.902-.421-1.572.172-.895.145-.933-.176-.254-.783 1.657-.532 3.111.492 2.854 1.293-.324 34.247-33.25 35.985-35.954 1.136-1.766.52-1.272-1.246 1m-38.037 3.592c-.046.473 1.258 3.556 1.43 3.383.087-.087-.192-.95-.621-1.917s-.793-1.627-.809-1.466m2.634 8.908c.134.88.31 1.675.391 1.767.303.343.076-1.799-.272-2.567-.252-.558-.288-.315-.119.8m.658 4.6c0 1.21.075 1.705.167 1.1.091-.605.091-1.595 0-2.2-.092-.605-.167-.11-.167 1.1m-.006 10.2c.003 1.1.081 1.503.173.895.092-.609.09-1.509-.005-2-.095-.492-.171.005-.168 1.105m-291.314-.043c0 .527.26 1.057.578 1.179s.684.906.814 1.743c.412 2.651 2.563 10.125 4.581 15.921 2.959 8.494 3.192 9.117 3.832 10.262.327.584.595 1.253.595 1.488 0 .234.471 1.467 1.047 2.738.575 1.272 1.488 3.302 2.027 4.512 2.912 6.53 8.457 16.924 11.57 21.687.966 1.478 1.756 2.772 1.756 2.875 0 .815 9.767 14.309 14.332 19.801 7.629 9.176 14.28 16.061 24.116 24.961.964.872 9.005 7.362 12.237 9.876 1.96 1.525 13.23 9.141 17.115 11.567 4.057 2.533 15.238 8.349 20.4 10.611 1.32.579 3.066 1.406 3.879 1.837.814.432 1.714.786 2 .787.287.002 1.061.287 1.721.635 1.482.781 11.734 4.503 15.8 5.736 1.65.501 4.08 1.24 5.4 1.643s3.446.939 4.725 1.192c1.283.253 2.423.713 2.543 1.026.25.65 2.532.781 2.532.146 0-.63-2.304-1.442-4.924-1.734-1.278-.142-2.718-.5-3.2-.794-.482-.295-1.919-.757-3.193-1.027-1.274-.269-2.804-.744-3.4-1.055s-1.513-.566-2.039-.568c-.526-.001-1.696-.341-2.6-.754-2.567-1.175-7.007-2.848-7.558-2.848-.274 0-1.17-.36-1.99-.8-.821-.44-1.705-.8-1.963-.8s-1.564-.518-2.901-1.15c-5.314-2.513-6.109-2.85-6.735-2.85-.357 0-.76-.178-.894-.395s-1.63-1.038-3.323-1.824c-1.694-.786-3.35-1.602-3.68-1.813s-1.23-.671-2-1.021-1.49-.775-1.6-.945c-.11-.169-.863-.644-1.674-1.055-2.839-1.439-8.606-4.88-10.126-6.041-.22-.168-1.12-.772-2-1.342-2.07-1.34-3.7-2.414-4.8-3.164-.484-.33-1.403-.954-2.04-1.387-1.146-.779-5.019-3.754-6.138-4.716-.318-.273-1.408-1.127-2.422-1.897-2.292-1.74-3.033-2.36-4.184-3.5-.499-.495-1.024-.9-1.167-.9-.451 0-3.38-2.769-11.43-10.804-7.166-7.153-9.614-9.755-11.819-12.562-.44-.56-1.483-1.787-2.318-2.726s-1.773-2.181-2.085-2.76c-.312-.578-.844-1.157-1.182-1.287s-.615-.442-.615-.693-.682-1.292-1.516-2.312c-.834-1.021-1.824-2.306-2.201-2.856-.376-.55-1.539-2.237-2.583-3.749-1.045-1.511-2.118-3.131-2.385-3.6-.535-.937-.83-1.381-2.291-3.451-.544-.77-1.273-1.94-1.621-2.6-.347-.66-1.072-1.92-1.611-2.8s-1.341-2.32-1.781-3.2c-.822-1.642-1.293-2.456-2.432-4.2-.359-.55-.87-1.661-1.136-2.468s-.727-1.67-1.024-1.916c-.297-.247-.662-.936-.811-1.532s-.495-1.354-.77-1.684-.718-1.365-.985-2.3-.638-1.7-.826-1.7c-.187 0-.463-.489-.613-1.087s-.71-2.01-1.243-3.139c-.534-1.128-.972-2.304-.974-2.613-.001-.308-.36-1.101-.797-1.761s-.796-1.565-.797-2.011c-.002-.446-.263-1.183-.581-1.637s-.797-1.709-1.064-2.789c-.267-1.079-.817-2.59-1.222-3.357s-.736-1.849-.736-2.406-.36-1.684-.8-2.504c-.44-.821-.8-1.859-.8-2.307s-.379-1.934-.841-3.302c-.463-1.368-1.007-3.643-1.208-5.056-.457-3.195-1.951-5.243-1.951-2.674m398.857-.426c-.242.292-.625 1.833-.851 3.423-.225 1.591-.658 3.377-.962 3.97-.304.592-.774 2.149-1.044 3.46s-.72 2.751-.999 3.2c-.278.449-.626 1.621-.773 2.606-.146.984-.502 2.064-.791 2.4-.288.335-.743 1.508-1.01 2.605-.268 1.097-.635 2.177-.817 2.4-.183.223-.546 1.215-.808 2.205s-.71 2.07-.995 2.4-.648 1.23-.807 2-.522 1.67-.807 2-.717 1.344-.959 2.253c-.242.91-.697 1.867-1.011 2.128s-.678.957-.807 1.547c-.13.59-1.041 2.692-2.026 4.67-.984 1.978-1.79 3.822-1.79 4.099s-.151.503-.335.503-1.039 1.389-1.9 3.087-2.33 4.242-3.265 5.653-1.7 2.735-1.7 2.942c0 .206-.225.617-.5.913s-1.04 1.462-1.7 2.591c-.66 1.128-1.605 2.538-2.1 3.133-.494.595-.899 1.235-.9 1.423 0 .188-.453.908-1.006 1.6s-1.159 1.449-1.346 1.683-.567.849-.844 1.367c-.517.966-2.905 4.058-5.525 7.155-.814.961-1.645 2.035-1.847 2.387-.203.351-1.058 1.356-1.9 2.233-.843.877-1.532 1.735-1.532 1.906 0 .904-21.36 22.327-22.261 22.327-.136 0-.656.405-1.155.9-1.085 1.075-1.686 1.572-4.129 3.415-1.02.77-2.125 1.64-2.455 1.933-1.501 1.336-5.158 4.101-6.033 4.561-.532.279-1.111.752-1.287 1.049-.176.298-.553.542-.838.542s-.844.36-1.242.8-.921.8-1.162.8c-.241.001-.955.446-1.587.989-.632.544-1.487 1.095-1.9 1.227-.413.131-.751.378-.751.55s-.72.637-1.6 1.034-1.6.874-1.6 1.061c0 .186-.246.339-.547.339s-1.733.795-3.183 1.768c-1.45.972-3.049 1.893-3.553 2.047s-1.194.521-1.532.817-1.238.817-2 1.159c-.762.341-1.655.786-1.985.987s-1.95 1.02-3.6 1.82c-1.65.799-3.27 1.611-3.6 1.803-1.192.695-5.05 2.346-6.097 2.609-.588.148-1.28.521-1.536.829-.256.309-.758.563-1.116.565s-1.551.446-2.651.987-2.322.99-2.716.996c-.394.007-1.392.358-2.219.78-.826.421-2.162.89-2.969 1.041-.807.152-1.669.518-1.914.814-.246.296-1.288.664-2.315.818s-2.497.597-3.267.986c-.77.388-2.21.833-3.2.987-.99.155-2.284.529-2.876.832-.593.303-2.379.736-3.97.961-3.65.518-5.689 1.994-2.754 1.994.749 0 1.2-.206 1.2-.548 0-.353.888-.722 2.5-1.037 2.972-.581 9.397-2.367 10.431-2.9.402-.207 1.572-.618 2.6-.914s3.399-1.1 5.269-1.788 4.03-1.441 4.8-1.674 1.85-.666 2.4-.963 2.35-1.096 4-1.777c9.465-3.903 24.74-12.262 33.927-18.567 2.27-1.558 4.52-3.102 5-3.432 3.881-2.667 13.121-10.059 16.673-13.339 7.26-6.704 16.485-16.162 19.603-20.099.332-.419 1.863-2.292 3.401-4.162 3.205-3.895 6.817-8.667 8.327-11 .569-.88 1.796-2.68 2.727-4 2.357-3.341 7.939-12.595 10.293-17.066 1.082-2.054 2.257-4.274 2.61-4.934.55-1.027 3.043-6.362 4.86-10.4.297-.66.924-2.19 1.395-3.4.47-1.21 1.211-3.1 1.646-4.2 1.025-2.593 2.637-7.118 3.349-9.4.308-.99.851-2.7 1.205-3.8 1.626-5.048 2.167-6.975 2.611-9.3.309-1.618.67-2.5 1.025-2.5.342 0 .548-.451.548-1.2 0-1.282-.427-1.532-1.143-.669m-153.257 47.269c-.99.287-1.53.536-1.2.553s1.5-.219 2.6-.525 1.64-.555 1.2-.553-1.61.238-2.6.525m6.211-.1c.178.481-29.131 30.013-32.411 32.657-1.046.843-1.187 1.04-.407.566 2.174-1.317 33.901-32.848 33.578-33.369-.335-.543-.97-.42-.76.146m-11.506.983c.497.096 1.217.092 1.6-.008.382-.1-.025-.179-.905-.174-.88.004-1.193.086-.695.182m-69.605.417c11.715.059 30.885.059 42.6 0s2.13-.107-21.3-.107-33.015.048-21.3.107m-22.7.75c0 .567 25.07 25.946 28.795 29.15 4.319 3.715 8.134 5.711 14.605 7.646 3.273.978 12.835 1.004 15.2.041 1.986-.809 1.158-.842-2-.079-8.069 1.948-19.015-1.031-26.8-7.295-3.605-2.901-28.698-28.4-28.746-29.213-.061-1.018-1.054-1.254-1.054-.25m66 33.589c-1.87.981-3.94 1.943-4.6 2.137-.875.257-.976.362-.371.388.932.04 7.932-3.253 8.349-3.929.354-.573.514-.639-3.378 1.404" fill="#6e6e6e"/><path d="m148.678.541c-.122.318-1.154.652-2.505.811-1.264.148-2.855.529-3.535.845-.681.316-2.131.771-3.222 1.01-1.091.238-2.171.588-2.4.777-.229.188-1.406.618-2.616.955s-3.37 1.055-4.8 1.596-3.41 1.288-4.4 1.659c-.99.372-2.34.919-3 1.215-.66.297-2.55 1.11-4.2 1.808-2.857 1.208-7.111 3.21-8.4 3.952-.33.19-1.05.554-1.6.808-1.659.767-3.365 1.642-4 2.052-.33.213-1.206.665-1.947 1.004-.742.34-2.902 1.516-4.8 2.614-4.785 2.766-4.906 2.841-6.181 3.853-.623.495-1.307.9-1.519.9s-.873.332-1.469.737c-.596.406-1.894 1.255-2.884 1.887s-2.102 1.425-2.471 1.762c-.368.338-1.315 1.064-2.104 1.614-3.448 2.405-11.44 8.605-13.802 10.706-1.417 1.262-4.09 3.644-5.941 5.294-4.719 4.208-14.488 14.317-17.682 18.298-.55.686-1.658 2.024-2.461 2.974-1.506 1.78-6.568 8.407-8.339 10.916-.55.779-1.223 1.73-1.496 2.114-2.49 3.504-4.172 6.041-4.483 6.759-.204.474-.581.991-.837 1.149s-.724.851-1.04 1.539-1.098 2.061-1.738 3.051-1.527 2.52-1.972 3.4c-1.16 2.298-4.048 7.529-4.417 8-.172.22-.525 1.061-.785 1.868s-.716 1.67-1.013 1.916c-.297.247-.659.921-.804 1.498s-.972 2.496-1.839 4.264c-.867 1.769-1.577 3.404-1.578 3.635-.002.23-.291.959-.642 1.619-.352.66-.962 2.1-1.356 3.2s-1.196 3.26-1.782 4.8c-.587 1.54-1.326 3.725-1.643 4.856-.318 1.131-.846 2.571-1.174 3.2s-.597 1.559-.599 2.066c-.001.507-.345 1.677-.763 2.6-.419.923-.892 2.727-1.05 4.01-.172 1.387-.512 2.417-.839 2.543-.72.276-.731 2.525-.013 2.525.355 0 .76-1.13 1.19-3.316.577-2.938 5.273-17.997 6.262-20.084.209-.44 1.023-2.478 1.81-4.529 3.023-7.882 10.048-21.959 14.705-29.471 1.046-1.687 8.014-12.121 9.724-14.561 10.575-15.092 28.387-32.882 45.125-45.069 4.737-3.449 10.534-7.37 10.896-7.37.125 0 .792-.405 1.481-.9s1.559-1.08 1.933-1.3c9.111-5.362 22.464-12.025 29.737-14.839 1.98-.766 3.96-1.56 4.4-1.764.708-.328 8.881-3.049 15.6-5.192 1.32-.421 3.615-.973 5.1-1.226 1.825-.312 2.7-.642 2.7-1.02 0-.732-2.242-.748-2.522-.018m99.819-.041c.09.275.87.646 1.733.825 4.853 1.006 19.204 5.419 22.43 6.898.694.317 1.414.583 1.6.591.187.007 1.06.361 1.94.786s1.73.779 1.888.786c.475.023 11.034 4.843 13.712 6.26.66.35 2.91 1.536 5 2.636 3.211 1.691 7.394 4.068 10.055 5.713 12.768 7.897 23.764 16.334 33.89 26.005 4.792 4.576 10.979 10.932 12.456 12.797.696.878 1.401 1.688 1.567 1.8.836.563 10.052 12.338 13.621 17.403 2.389 3.391 8.811 13.623 8.811 14.039 0 .164.25.582.556.93.892 1.011 6.26 11.332 8.755 16.831 2.989 6.589 3.862 8.639 4.512 10.6.291.88 1.094 3.04 1.784 4.8s1.496 4.01 1.79 5 .726 2.34.959 3c.547 1.549 2.652 9.134 3.099 11.17.19.863.57 1.643.845 1.733.692.226.652-1.759-.041-2.025-.315-.121-.65-1.137-.802-2.434-.144-1.225-.621-3.138-1.059-4.25-.439-1.113-.798-2.429-.798-2.924 0-.496-.34-1.567-.755-2.381s-.881-2.157-1.036-2.985c-.155-.827-.53-1.954-.832-2.504s-.72-1.63-.928-2.4c-.402-1.485-1.664-4.722-2.901-7.444-.412-.904-.748-1.784-.748-1.955 0-.384-1.779-4.128-6.721-14.145-.286-.581-.693-1.326-.905-1.656-.211-.33-.746-1.391-1.189-2.357-.443-.967-1.341-2.551-1.995-3.52-.655-.97-1.19-1.91-1.19-2.09s-.832-1.566-1.849-3.08-1.953-3.023-2.081-3.353c-.251-.649-2.479-4.072-2.863-4.4-.129-.11-.948-1.256-1.821-2.547-.872-1.29-1.946-2.854-2.386-3.475-1.347-1.9-7.067-9.329-7.837-10.178-1.134-1.25-1.983-2.228-4.536-5.219-3.227-3.784-14.004-14.508-18.49-18.402-5.211-4.522-5.903-5.093-10.068-8.303-4.176-3.22-4.381-3.368-10.054-7.276-3.804-2.62-5.239-3.534-8.215-5.228-.66-.376-1.29-.805-1.4-.954-.11-.148-1.91-1.211-4-2.361s-4.43-2.442-5.2-2.87c-3.132-1.741-16.153-7.976-16.708-8-.16-.006-1.192-.455-2.292-.996s-2.232-.985-2.516-.987-1.222-.364-2.084-.804-1.89-.801-2.284-.802c-.394-.002-1.256-.296-1.916-.655-.66-.358-2.1-.891-3.2-1.184-2.514-.671-6.825-2.092-8.4-2.771-.66-.284-2.249-.645-3.532-.802-1.39-.171-2.417-.508-2.543-.836-.274-.714-3.062-.763-2.828-.05m-52.21 131.251c-1.799.67-1.9.763-17.569 16.284-18.263 18.088-18.307 16.003.749 35.178 9.867 9.929 12.933 13.245 12.933 13.987 0 .743-3.065 4.052-12.952 13.987-13.741 13.805-14.248 14.432-14.248 17.606 0 3.669.418 4.194 14.914 18.734 20.361 20.422 17.868 20.434 38.329-.186 19.786-19.939 19.984-16.625-2.351-39.236-5.35-5.416-9.818-10.266-9.953-10.805-.217-.864 1.219-2.45 12.346-13.639 14.283-14.362 14.493-14.632 14.493-18.687 0-3.815.577-3.097-14.939-18.613-15.639-15.64-16.833-16.442-21.752-14.61m6.787 1.313c2.173 1.274 26.65 25.598 28.225 28.05 3.089 4.807 2.139 6.364-13.377 21.942-12.691 12.742-12.802 12.867-12.513 14.187.227 1.033 2.477 3.522 10.042 11.109 5.362 5.378 9.749 9.888 9.749 10.022s1.078 1.284 2.396 2.556c7.95 7.677 7.727 8.255-10.13 26.207-19.831 19.936-17.115 19.937-36.878-.005-14.363-14.493-14.662-14.865-14.694-18.308-.029-3.092-.107-2.997 14.622-17.735 6.774-6.777 12.496-12.793 12.714-13.369.485-1.275 1.615-.005-13.562-15.251-13.183-13.244-13.834-14.056-13.834-17.269 0-3.191.929-4.612 6.664-10.2 1.807-1.76 7.357-7.218 12.334-12.129 11.871-11.714 13.496-12.588 18.242-9.807m-203.074 116.66c0 .799.23 1.479.541 1.598.297.114.659 1.078.803 2.143.25 1.843 1.099 4.742 2.678 9.135.395 1.1.846 2.63 1.001 3.4.156.77.62 2.027 1.03 2.794.411.767.747 1.762.747 2.211s.254 1.18.565 1.623c.31.444.862 1.831 1.226 3.082s.81 2.367.991 2.479.445.663.586 1.225c.381 1.518 7.22 15.94 8.624 18.186.207.33 1.212 2.13 2.235 4s2.609 4.57 3.524 6c.916 1.43 1.841 2.904 2.057 3.276.32.552 3.777 5.621 6.591 9.663 1.146 1.646 7.302 9.666 8.03 10.461.977 1.066 1.725 1.921 4.567 5.219 3.118 3.619 14.423 14.928 17.985 17.99 2.694 2.317 3.765 3.248 5.019 4.361 1.156 1.027 8.275 6.535 10.377 8.03 1.72 1.223 9.225 6.347 9.967 6.805 1.119.691 2.994 1.883 4.456 2.833.77.501 2.503 1.507 3.851 2.236 1.349.729 3.448 1.904 4.665 2.61 1.217.705 2.681 1.4 3.253 1.544.571.143 1.136.418 1.255.611.257.415 5.876 3.161 6.469 3.161.225 0 .624.258.886.574s1.049.699 1.749.85c.699.152 1.728.598 2.286.991.557.394 1.676.841 2.485.992.81.152 1.671.516 1.914.809s1.015.658 1.715.812c.699.153 1.899.615 2.666 1.025.767.411 1.759.747 2.206.747s1.46.347 2.252.772c.792.424 2.139.897 2.994 1.051s2.004.523 2.554.819 2.08.83 3.4 1.185 3.294.899 4.387 1.209 2.494.564 3.113.564c.631 0 1.226.263 1.355.6.281.732 2.287.83 2.048.1-.09-.275-1.14-.726-2.333-1.003-6.745-1.564-22.825-6.883-26.17-8.656-.66-.35-1.434-.637-1.721-.639-.286-.001-1.186-.355-2-.787-.813-.431-2.559-1.258-3.879-1.837-5.162-2.262-16.343-8.078-20.4-10.611-3.885-2.426-15.155-10.042-17.115-11.567-3.232-2.514-11.273-9.004-12.237-9.876-9.836-8.9-16.487-15.785-24.116-24.961-4.565-5.492-14.332-18.986-14.332-19.801 0-.103-.79-1.397-1.756-2.875-3.113-4.763-8.658-15.157-11.57-21.687-.539-1.21-1.452-3.24-2.027-4.512-.576-1.271-1.047-2.504-1.047-2.738 0-.235-.268-.904-.595-1.488-.64-1.145-.873-1.768-3.832-10.262-1.81-5.2-3.865-12.267-4.643-15.97-.431-2.05-1.33-2.393-1.33-.506m398.427 1.576c-.444 2.325-.985 4.252-2.611 9.3-.354 1.1-.897 2.81-1.205 3.8-.712 2.282-2.324 6.807-3.349 9.4-.435 1.1-1.176 2.99-1.646 4.2-.471 1.21-1.098 2.74-1.395 3.4-1.817 4.038-4.31 9.373-4.86 10.4-.353.66-1.528 2.88-2.61 4.934-2.354 4.471-7.936 13.725-10.293 17.066-.931 1.32-2.158 3.12-2.727 4-1.51 2.333-5.122 7.105-8.327 11-1.538 1.87-3.069 3.743-3.401 4.162-3.118 3.937-12.343 13.395-19.603 20.099-3.552 3.28-12.792 10.672-16.673 13.339-.48.33-2.73 1.874-5 3.432-9.187 6.305-24.462 14.664-33.927 18.567-1.65.681-3.45 1.48-4 1.777s-1.63.73-2.4.963-2.93.986-4.8 1.674-4.241 1.492-5.269 1.788-2.198.707-2.6.914c-1.034.533-7.459 2.319-10.431 2.9-1.612.315-2.5.684-2.5 1.037 0 .713 1.849.72 2.122.008.117-.306 1.099-.646 2.267-.784 2.04-.242 5.546-1.24 9.411-2.68 1.1-.409 2.63-.928 3.4-1.151.77-.224 2.93-.964 4.8-1.645s4.03-1.427 4.8-1.659c.77-.231 1.684-.673 2.031-.981.348-.308.902-.56 1.233-.56.33 0 1.476-.443 2.547-.986 1.071-.542 2.449-1.095 3.063-1.23s1.205-.388 1.313-.563 1.595-.983 3.305-1.797c1.709-.814 3.378-1.637 3.708-1.829s2.04-1.096 3.8-2.008c3.658-1.897 5.83-3.117 9.587-5.387 1.457-.88 3.26-1.96 4.006-2.4 1.126-.663 4.14-2.702 10.346-6.996 1.435-.992 8.014-6.082 8.745-6.765.377-.351 1.158-.999 1.737-1.439 6.118-4.651 19.073-17.383 25.018-24.587 1.174-1.423 2.464-2.953 2.866-3.4 1.398-1.554 1.786-2.033 4.539-5.613 2.557-3.325 3.322-4.376 4.956-6.814 3.902-5.821 5.481-8.209 6.208-9.386.475-.77 1.202-1.94 1.616-2.6.87-1.387 1.857-3.09 2.783-4.8.357-.66 1.528-2.82 2.6-4.8 3.173-5.856 7.729-15.325 8.179-17 .148-.55.517-1.54.821-2.2 1.649-3.588 2.593-5.969 2.595-6.548.002-.359.269-1.162.594-1.785.325-.624.785-1.884 1.021-2.8.237-.917.756-2.567 1.154-3.667 1.534-4.239 2.486-7.565 2.713-9.479.132-1.117.473-2.083.776-2.199.712-.273.705-2.122-.008-2.122-.355 0-.716.882-1.025 2.5" fill="#848484"/></g></svg>