<?xml version="1.0" encoding="UTF-8"?>
<svg id="Layer_1" data-name="Layer 1" xmlns="http://www.w3.org/2000/svg" xmlns:xlink="http://www.w3.org/1999/xlink" viewBox="0 0 500 500">
  <defs>
    <style>
      .cls-1 {
        fill: url(#radial-gradient);
      }

      .cls-1, .cls-2, .cls-3, .cls-4 {
        stroke-width: 0px;
      }

      .cls-5 {
        fill: url(#linear-gradient);
        stroke: #7af1f3;
        stroke-miterlimit: 10;
        stroke-width: 2.4px;
      }

      .cls-2 {
        fill: url(#radial-gradient-2);
      }

      .cls-3 {
        fill: url(#linear-gradient-2);
        fill-rule: evenodd;
      }

      .cls-4 {
        fill: #52f7ff;
      }
    </style>
    <radialGradient id="radial-gradient" cx="476.02" cy="-3992.12" fx="476.02" fy="-3992.12" r="223.06" gradientTransform="translate(-226.02 -3742.13) scale(1 -1)" gradientUnits="userSpaceOnUse">
      <stop offset=".83" stop-color="#143438"/>
      <stop offset=".9" stop-color="#16363a" stop-opacity="1"/>
      <stop offset=".93" stop-color="#1f3e42" stop-opacity=".99"/>
      <stop offset=".94" stop-color="#304c50" stop-opacity=".97"/>
      <stop offset=".96" stop-color="#476064" stop-opacity=".94"/>
      <stop offset=".97" stop-color="#657b7d" stop-opacity=".91"/>
      <stop offset=".98" stop-color="#8a9b9d" stop-opacity=".87"/>
      <stop offset=".99" stop-color="#b7c2c4" stop-opacity=".82"/>
      <stop offset="1" stop-color="#e9edee" stop-opacity=".77"/>
      <stop offset="1" stop-color="#fcfeff" stop-opacity=".75"/>
    </radialGradient>
    <radialGradient id="radial-gradient-2" cx="250" cy="250" fx="250" fy="250" r="239.21" gradientUnits="userSpaceOnUse">
      <stop offset=".6" stop-color="#018f92" stop-opacity="0"/>
      <stop offset=".74" stop-color="#018f93" stop-opacity="0"/>
      <stop offset=".8" stop-color="#049396" stop-opacity=".04"/>
      <stop offset=".84" stop-color="#09999c" stop-opacity=".08"/>
      <stop offset=".88" stop-color="#0fa2a6" stop-opacity=".15"/>
      <stop offset=".9" stop-color="#18adb1" stop-opacity=".24"/>
      <stop offset=".93" stop-color="#23bbc0" stop-opacity=".35"/>
      <stop offset=".96" stop-color="#30cbd1" stop-opacity=".48"/>
      <stop offset=".98" stop-color="#3fdee5" stop-opacity=".63"/>
      <stop offset="1" stop-color="#4ff3fb" stop-opacity=".79"/>
      <stop offset="1" stop-color="#52f7ff" stop-opacity=".82"/>
    </radialGradient>
    <linearGradient id="linear-gradient" x1="10.53" y1="28.01" x2="535.28" y2="514.46" gradientUnits="userSpaceOnUse">
      <stop offset="0" stop-color="#ff7fc7"/>
      <stop offset=".03" stop-color="#d581be"/>
      <stop offset=".06" stop-color="#a484b4"/>
      <stop offset=".1" stop-color="#7887aa"/>
      <stop offset=".14" stop-color="#5389a3"/>
      <stop offset=".18" stop-color="#358b9c"/>
      <stop offset=".22" stop-color="#1e8d98"/>
      <stop offset=".26" stop-color="#0d8e94"/>
      <stop offset=".31" stop-color="#048e92"/>
      <stop offset=".38" stop-color="#018f92"/>
      <stop offset=".5" stop-color="#039295"/>
      <stop offset=".62" stop-color="#0c9ea1"/>
      <stop offset=".74" stop-color="#1bb1b5"/>
      <stop offset=".85" stop-color="#30cbd1"/>
      <stop offset=".97" stop-color="#4aedf4"/>
      <stop offset="1" stop-color="#52f7ff"/>
    </linearGradient>
    <linearGradient id="linear-gradient-2" x1="198.73" y1="208.74" x2="324.19" y2="355.51" gradientUnits="userSpaceOnUse">
      <stop offset="0" stop-color="#52f7ff"/>
      <stop offset=".18" stop-color="#50f3fb"/>
      <stop offset=".34" stop-color="#4be9f0"/>
      <stop offset=".48" stop-color="#42d9de"/>
      <stop offset=".63" stop-color="#36c1c5"/>
      <stop offset=".76" stop-color="#26a3a5"/>
      <stop offset=".9" stop-color="#137e7d"/>
      <stop offset="1" stop-color="#035e5b"/>
    </linearGradient>
  </defs>
  <g>
    <circle class="cls-1" cx="250" cy="250" r="223.06"/>
    <path class="cls-4" d="m250,474.26c-59.9,0-116.22-23.33-158.58-65.69-42.36-42.36-65.69-98.67-65.69-158.58s23.33-116.22,65.69-158.58S190.09,25.73,250,25.73s116.22,23.33,158.58,65.68c42.36,42.36,65.68,98.68,65.68,158.58s-23.33,116.22-65.68,158.58-98.68,65.69-158.58,65.69Zm0-446.13c-59.26,0-114.98,23.08-156.88,64.98S28.13,190.73,28.13,250s23.08,114.98,64.98,156.88,97.62,64.98,156.88,64.98,114.98-23.08,156.88-64.98,64.98-97.62,64.98-156.88-23.08-114.98-64.98-156.88S309.26,28.13,250,28.13Z"/>
  </g>
  <g>
    <path class="cls-2" d="m473.06,250c0,14.5-1.39,28.67-4.03,42.4-19.78,102.9-110.35,180.67-219.04,180.67-123.19,0-223.05-99.88-223.05-223.07S126.8,26.93,249.99,26.93c107.3,0,196.9,75.75,218.22,176.68,3.19,14.96,4.85,30.47,4.85,46.39Z"/>
    <path class="cls-4" d="m249.99,474.27c-59.9,0-116.21-23.33-158.57-65.69-42.35-42.36-65.68-98.68-65.68-158.58s23.32-116.22,65.68-158.58C133.77,49.06,190.09,25.73,249.99,25.73c51.72,0,102.19,18.03,142.11,50.76,39.38,32.29,66.82,77.35,77.28,126.87,3.24,15.16,4.88,30.85,4.88,46.63,0,14.29-1.36,28.64-4.06,42.63-20.23,105.25-112.85,181.64-220.22,181.64Zm0-446.14c-59.26,0-114.97,23.08-156.87,64.99C51.22,135.02,28.14,190.74,28.14,250s23.08,114.98,64.97,156.88c41.9,41.91,97.61,64.99,156.87,64.99,106.22,0,197.84-75.57,217.86-179.7,2.66-13.84,4.01-28.03,4.01-42.17,0-15.62-1.62-31.14-4.82-46.13-10.35-49-37.5-93.57-76.46-125.52-39.49-32.38-89.42-50.22-140.59-50.22Z"/>
  </g>
  <path class="cls-5" d="m486.72,177.73C454.95,73.77,356.42-1.31,241.33,2.64,110.16,7.14,4.5,115,2.53,246.22c-2.07,138.19,109.73,251.29,247.46,251.29,112.82,0,208.23-75.85,237.93-179.23,6.24-21.7,9.58-44.61,9.58-68.28,0-25.14-3.77-49.41-10.78-72.27Zm-236.73,293.71c-125.03,0-226.18-104.16-221.27-230.24C33.31,123.39,130.93,29.15,248.83,28.54c97.31-.5,180.36,62.1,210.52,149.19,7.85,22.64,12.1,46.96,12.1,72.27,0,23.82-3.77,46.77-10.78,68.28-28.84,88.81-112.39,153.16-210.68,153.16Z"/>
  <g>
    <path class="cls-3" d="m331.36,196.01c-3.27-28.52-28.23-37.74-59.72-39.82l-.59-39.82-24.36.3.59,38.63c-6.24,0-12.78.3-19.31.59l-.59-38.92-24.36.3.59,39.82c-5.35.3-10.4.3-15.45.59h0l-33.58.59.59,25.85s17.83-.59,17.53-.3c9.81-.3,13.07,5.35,14.26,10.4l.89,45.16h2.67-2.67l1.19,63.29c-.3,2.97-2.08,8.02-8.91,8.02.3.3-17.53.3-17.53.3l-4.46,29.12,31.5-.59h17.53l.59,40.11,24.36-.3-.59-39.82c6.54,0,13.07,0,19.31-.3l.59,39.52,24.36-.3-.59-40.11c40.71-2.97,69.23-13.67,72.2-52,2.38-30.9-12.48-44.27-35.66-49.32,13.37-7.43,21.99-20.21,19.61-41Zm-95.38,114.1c19.91,0,63.29-.3,62.99-27.63-.59-28.23-42.19-26.44-62.7-25.55-2.38,0-4.16.3-5.94.3l.89,53.19c1.49-.3,2.97-.3,4.75-.3Zm50.22-102.51c.3,24.96-35.66,24.96-52.3,24.96h-3.86l-.89-48.43c1.49,0,2.97,0,5.05-.3,16.94-.3,51.7-1.78,52,23.77Z"/>
    <path class="cls-4" d="m207.76,380.84c-.66,0-1.19-.53-1.2-1.18l-.58-38.93h-16.35l-31.47.59c-.35-.02-.69-.14-.93-.41s-.34-.62-.28-.97l4.46-29.12c.09-.59.59-1.02,1.19-1.02,5.94,0,15.6-.06,17.1-.22.13-.05.28-.08.43-.08,6.27,0,7.49-4.75,7.71-6.87l-1.19-63.22h0s-.89-45.03-.89-45.03c-1.58-6.51-5.82-9.57-13.03-9.35-.14,0-.29-.02-.42-.06-1.5-.11-11.16.16-17.11.36-.31,0-.63-.11-.86-.33-.23-.22-.37-.52-.38-.84l-.59-25.85c0-.32.11-.63.33-.86.22-.23.53-.36.84-.37l33.58-.59c2.53-.15,5.05-.22,7.71-.3,2.13-.06,4.32-.12,6.54-.23l-.58-38.66c0-.32.12-.63.34-.85s.53-.36.85-.36l24.36-.3c.7-.02,1.21.52,1.21,1.18l.58,37.69c5.64-.26,11.41-.5,16.91-.54l-.58-37.41c0-.32.12-.63.34-.86s.53-.36.85-.36l24.37-.3h.01c.66,0,1.19.53,1.2,1.18l.58,38.71c37.87,2.72,56.86,15.71,59.73,40.8h0c2.08,18.22-3.85,31.88-17.64,40.66,24.76,6.39,35.78,22.74,33.69,49.9-1.43,18.5-8.8,31.65-22.51,40.19-11.25,7-27.05,11.09-49.67,12.83l.58,38.98c0,.32-.12.63-.34.85s-.53.36-.85.36l-24.36.3c-.69,0-1.21-.52-1.21-1.18l-.58-38.28c-5.5.23-11.28.24-16.91.24l.58,38.6c0,.32-.12.63-.34.85s-.53.36-.85.36l-24.36.3h-.01Zm-7.43-42.51h6.83c.66,0,1.19.53,1.2,1.18l.58,38.92,21.96-.27-.58-38.61c0-.32.12-.63.34-.86.23-.23.53-.36.86-.36,6.41,0,13.05,0,19.26-.3.34,0,.64.1.88.32.24.22.37.53.38.86l.58,38.32,21.96-.27-.58-38.91c0-.64.48-1.17,1.11-1.21,59.35-4.33,69.24-27.02,71.09-50.89,2.09-27.17-8.94-42.44-34.71-48.06-.49-.11-.86-.5-.93-1-.07-.49.17-.98.6-1.22,14.69-8.16,21.09-21.56,19-39.82h0c-2.75-23.98-21.37-36.29-58.61-38.75-.62-.04-1.11-.55-1.12-1.18l-.58-38.62-21.96.27.58,37.42c0,.32-.12.63-.34.86-.23.23-.53.36-.86.36-6.21,0-12.84.3-19.26.59-.32.02-.64-.1-.88-.33-.24-.22-.37-.53-.38-.86l-.58-37.73-21.96.27.58,38.61c0,.64-.49,1.18-1.13,1.22-2.65.15-5.25.22-7.76.29-2.65.08-5.15.15-7.69.3l-32.42.58.54,23.43c10.82-.36,14.77-.47,16.32-.25h0c8.32-.24,13.66,3.66,15.47,11.32.02.08.03.17.03.25l.87,43.99h1.5c.66,0,1.2.54,1.2,1.2s-.54,1.2-1.2,1.2h-1.45l1.17,62.07s0,.09,0,.14c-.44,4.4-3.33,9.1-10.11,9.1h0c-1.55.26-5.53.3-16.5.3l-4.08,26.69,30.07-.57h10.72Zm30.9-26.72c-.27,0-.54-.09-.75-.27-.28-.22-.44-.56-.45-.91l-.89-53.19c0-.32.12-.63.34-.86.23-.23.53-.36.86-.36.78,0,1.59-.06,2.45-.13,1.02-.08,2.17-.17,3.49-.17,15.28-.67,43.83-1.91,56.89,10.34,4.51,4.23,6.87,9.74,7.01,16.39.07,6.2-2.02,11.48-6.2,15.71-13,13.15-43.39,13.15-57.99,13.15-1.76,0-3.15,0-4.52.27-.08.02-.16.02-.24.02Zm.33-53.22l.85,50.64c1.13-.11,2.29-.11,3.58-.11,14.28,0,43.98,0,56.28-12.43,3.72-3.76,5.57-8.46,5.51-13.99-.13-5.97-2.23-10.91-6.25-14.68-12.33-11.56-40.21-10.34-55.2-9.69-1.28,0-2.34.08-3.36.16-.48.04-.95.07-1.41.1Zm2.35-24.62h-3.86c-.65,0-1.19-.52-1.2-1.18l-.89-48.43c0-.32.12-.63.34-.86.23-.23.53-.36.86-.36,1.48,0,2.88,0,4.88-.29.05,0,.1-.01.15-.01l1.63-.03c13-.25,34.77-.66,45.37,9.62,4.05,3.93,6.14,9.1,6.22,15.37h0c.07,6.01-1.88,11.07-5.8,15.04-11,11.13-34.87,11.13-47.69,11.13Zm-2.68-2.4h2.68c12.47,0,35.69,0,45.99-10.42,3.45-3.5,5.17-7.98,5.11-13.32h0c-.07-5.61-1.91-10.21-5.49-13.67-9.89-9.59-31.03-9.18-43.66-8.94l-1.56.03c-1.55.22-2.79.28-3.92.29l.85,46.04Z"/>
  </g>
</svg>