<?xml version="1.0" encoding="UTF-8"?>
<svg version="1.1" xmlns="http://www.w3.org/2000/svg" width="3000" height="3000">
<path d="M0 0 C990 0 1980 0 3000 0 C3000 990 3000 1980 3000 3000 C2010 3000 1020 3000 0 3000 C0 2010 0 1020 0 0 Z " fill="#000000" transform="translate(0,0)"/>
<path d="M0 0 C990 0 1980 0 3000 0 C3000 990 3000 1980 3000 3000 C2010 3000 1020 3000 0 3000 C0 2010 0 1020 0 0 Z M1261.25683594 300.32714844 C1257.70997748 301.0599177 1254.15678495 301.75429743 1250.6015625 302.4453125 C1233.33876343 305.82956484 1216.25317214 309.79396998 1199.1875 314.0625 C1197.68689529 314.4366655 1197.68689529 314.4366655 1196.15597534 314.81838989 C1182.35426959 318.26984494 1168.65383564 322.00455111 1155 326 C1153.93789307 326.30848877 1152.87578613 326.61697754 1151.78149414 326.93481445 C1101.37418511 341.69083058 1051.11114998 359.63364172 1003.48828125 381.84277344 C1000.63319512 383.17059018 997.77006016 384.48017028 994.90625 385.7890625 C974.23272207 395.2548899 953.6144525 404.82995701 933.58789062 415.61035156 C930.69405021 417.16428926 927.79245729 418.70322815 924.890625 420.2421875 C910.04401945 428.14202184 895.44799297 436.39456268 881 445 C879.93120605 445.63212402 878.86241211 446.26424805 877.76123047 446.91552734 C859.28959721 457.85756454 841.3909991 469.5590643 823.60131836 481.57324219 C820.25596353 483.83105111 816.89709548 486.06774333 813.53515625 488.30078125 C808.95834682 491.34852899 804.42389399 494.44581316 799.9375 497.625 C799.22980469 498.12588135 798.52210938 498.6267627 797.79296875 499.14282227 C775.53505645 514.9582947 753.71131052 531.47146073 732.6328125 548.83203125 C730.88270474 550.27314373 729.12750388 551.70809403 727.3671875 553.13671875 C717.08350797 561.48658682 707.02846738 570.09409372 697.21875 578.99609375 C695.20691607 580.81311982 693.17339566 582.59944392 691.125 584.375 C686.72647616 588.2082517 682.43568634 592.1570836 678.14453125 596.109375 C676.08749301 598.00386451 674.02263268 599.88907528 671.94921875 601.765625 C666.93027728 606.31708421 662.01204961 610.92920052 657.25 615.75 C654.29045618 618.74327081 651.33304959 621.65017127 648.125 624.375 C640.16610977 631.18518442 632.77036392 638.78987116 626.00390625 646.77734375 C623.12279755 649.97295945 620.05739847 652.97390054 617 656 C612.78384172 660.17732741 608.66438997 664.35685731 604.828125 668.890625 C602.83826089 671.18662205 600.77711131 673.40347755 598.703125 675.62329102 C593.65110254 681.03092458 588.84666803 686.5465687 584.2109375 692.3203125 C581.8906505 695.13253315 579.46928866 697.81797263 577 700.5 C572.58622888 705.3064072 568.4363969 710.27110083 564.34130859 715.34960938 C562.79812963 717.248388 561.23809203 719.13255739 559.67578125 721.015625 C553.113656 728.92713996 546.66095546 736.88592916 540.45654297 745.08251953 C538.74081688 747.3412042 537.01311272 749.59050237 535.28515625 751.83984375 C526.6569861 763.08754054 518.19024003 774.42928777 510 786 C509.08831055 787.28632324 509.08831055 787.28632324 508.15820312 788.59863281 C474.52304487 836.18299121 444.36277766 886.1779195 417.95697021 938.11859131 C416.95429386 940.08985853 415.9491165 942.05983888 414.94384766 944.02978516 C383.6063257 1005.51550753 358.01787319 1069.95269449 338 1136 C337.73203613 1136.88091309 337.46407227 1137.76182617 337.18798828 1138.66943359 C326.06315583 1175.46993979 317.51297277 1212.74535804 309.75 1250.375 C309.58909882 1251.15314056 309.42819763 1251.93128113 309.26242065 1252.73300171 C305.08868955 1272.97609509 301.45505341 1293.27382712 298.625 1313.75 C298.47825836 1314.80816925 298.33151672 1315.8663385 298.18032837 1316.95657349 C295.58709595 1335.87186466 293.60672024 1354.82584977 291.87865448 1373.83613586 C291.69212181 1375.88669237 291.50364892 1377.93706379 291.31500244 1379.98742676 C288.25677716 1413.55507763 286.66501022 1446.94351002 286.80438232 1480.6506958 C286.81527816 1483.97179554 286.81480417 1487.29285528 286.81437397 1490.6139698 C286.81497276 1509.43216808 287.09009366 1528.20012786 288 1547 C288.05844769 1548.34354788 288.11609837 1549.6871309 288.17260742 1551.03076172 C290.04749893 1593.06335356 294.6716374 1635.2465642 301.62176514 1676.73419189 C302.00808264 1679.04841888 302.38791075 1681.36363305 302.76611328 1683.67919922 C305.57986159 1700.87564276 308.64088695 1717.99517196 312.35693359 1735.02294922 C313.04333448 1738.20061526 313.70503467 1741.38279367 314.36328125 1744.56640625 C319.54237715 1769.46039335 325.54102877 1794.1590526 332.93505859 1818.49316406 C333.71103882 1821.04845522 334.48224167 1823.60489496 335.24853516 1826.16308594 C342.89060978 1851.6540668 351.15636612 1876.90052691 360 1902 C360.40250977 1903.14355957 360.80501953 1904.28711914 361.21972656 1905.46533203 C382.60311718 1965.60245662 410.49565172 2024.71690828 442.2890625 2080.01953125 C444.07641845 2083.13312164 445.85111523 2086.25371764 447.625 2089.375 C456.0522223 2104.1535403 464.84230225 2118.66315448 474 2133 C474.55397461 2133.86818359 475.10794922 2134.73636719 475.67871094 2135.63085938 C495.10511875 2165.98972613 515.82543362 2195.5821091 538 2224 C538.63470215 2224.81597656 538.63470215 2224.81597656 539.28222656 2225.6484375 C548.97751742 2238.10663508 558.87454235 2250.4028561 569.1171875 2262.41601562 C571.96384154 2265.75792088 574.74580852 2269.14417724 577.5 2272.5625 C581.62807319 2277.63751471 586.00345591 2282.44015416 590.44921875 2287.234375 C592.48401883 2289.44055947 594.47646238 2291.66632261 596.4375 2293.9375 C600.38739886 2298.48643565 604.48138141 2302.90100654 608.58129883 2307.31420898 C610.72455617 2309.62237933 612.86158379 2311.93598922 614.99243164 2314.25561523 C624.17804441 2324.21787964 633.68648683 2333.84049449 643.27929688 2343.40966797 C645.8957064 2346.02066355 648.50665546 2348.6370356 651.1171875 2351.25390625 C652.80436657 2352.94042528 654.49185542 2354.62663449 656.1796875 2356.3125 C657.33149002 2357.46733887 657.33149002 2357.46733887 658.50656128 2358.64550781 C662.63714898 2362.75838127 666.85633454 2366.70051354 671.27209473 2370.50567627 C673.27464887 2372.23752131 675.20363902 2374.03366442 677.11328125 2375.8671875 C677.79817627 2376.52050049 678.48307129 2377.17381348 679.1887207 2377.84692383 C679.88956787 2378.51618896 680.59041504 2379.1854541 681.3125 2379.875 C686.84235211 2385.12173136 692.42512515 2390.12207368 698.39453125 2394.86328125 C701.36701762 2397.30098747 704.18753244 2399.88208311 707 2402.5 C711.50259907 2406.67965206 716.12410672 2410.65172004 720.91015625 2414.50390625 C723.24611168 2416.39098023 725.56368697 2418.29340728 727.87109375 2420.21484375 C736.3296259 2427.25145046 744.9109254 2434.07451892 753.68359375 2440.71484375 C757.39914544 2443.53006591 761.06897606 2446.39982339 764.73291016 2449.28173828 C773.28727003 2456.00104702 782.02570448 2462.3754542 790.96142578 2468.57617188 C792.8799731 2469.91616804 794.78427142 2471.27356114 796.68359375 2472.640625 C817.87947972 2487.85974 839.74441068 2502.37873647 862 2516 C862.75861328 2516.4645459 863.51722656 2516.9290918 864.29882812 2517.40771484 C887.12400391 2531.33295069 910.35782654 2544.51519468 934 2557 C935.67473389 2557.88872803 935.67473389 2557.88872803 937.38330078 2558.79541016 C982.2425146 2582.54890938 1029.06226309 2604.25546602 1077.1484375 2620.66796875 C1080.49088084 2621.81009741 1083.79377289 2623.04100787 1087.09741211 2624.2902832 C1097.35417792 2628.15536447 1107.73094942 2631.65102587 1118.125 2635.125 C1119.25949081 2635.50570648 1119.25949081 2635.50570648 1120.41690063 2635.894104 C1131.21001908 2639.51126038 1142.05457511 2642.87445831 1153 2646 C1154.03755432 2646.29686707 1154.03755432 2646.29686707 1155.09606934 2646.59973145 C1187.50452416 2655.85255006 1219.97705529 2664.02459663 1253.03742981 2670.5977478 C1257.8512175 2671.55779191 1262.65493316 2672.55810246 1267.45518494 2673.58361816 C1275.27999641 2675.25406447 1283.09037908 2676.77987384 1291 2678 C1292.4734062 2678.23571071 1293.94670419 2678.47209828 1295.41992188 2678.70898438 C1319.27589966 2682.52447213 1343.16417666 2685.74729906 1367.1875 2688.3125 C1368.32513794 2688.43524292 1369.46277588 2688.55798584 1370.6348877 2688.68444824 C1387.73022506 2690.51589272 1404.83805439 2691.95954451 1422 2693 C1422.95553772 2693.05875305 1423.91107544 2693.1175061 1424.89556885 2693.17803955 C1445.94405408 2694.40377985 1467.05611758 2694.18729271 1488.1315918 2694.18530273 C1492.3920521 2694.18522195 1496.65240376 2694.19210162 1500.9128418 2694.20581055 C1537.66274572 2694.32196416 1574.16113721 2693.31073795 1610.75 2689.6875 C1611.85292389 2689.58117249 1612.95584778 2689.47484497 1614.0921936 2689.36529541 C1638.53321278 2687.00456854 1662.8695762 2683.92908207 1687.05859375 2679.67578125 C1690.26788595 2679.125526 1693.47514231 2678.62792791 1696.6953125 2678.1484375 C1705.97687999 2676.72843416 1715.20608728 2675.02415232 1724.4375 2673.3125 C1725.38441711 2673.13703644 1726.33133423 2672.96157288 1727.3069458 2672.78079224 C1742.81335688 2669.89422922 1758.16198605 2666.62618472 1773.48046875 2662.85888672 C1777.12795794 2661.96877386 1780.78149795 2661.10833947 1784.4375 2660.25390625 C1799.78712642 2656.64967888 1814.92017177 2652.59750861 1830 2648 C1831.45108937 2647.56059984 1832.90226657 2647.12148965 1834.35351562 2646.68261719 C1883.90693725 2631.68405382 1932.56176239 2614.81402068 1980 2594 C1980.71575195 2593.68649597 1981.43150391 2593.37299194 1982.16894531 2593.04998779 C2016.03876544 2578.18741669 2049.71424023 2562.10304987 2081.62451172 2543.37353516 C2085.76657894 2540.97854336 2089.98213878 2538.71881327 2094.1875 2536.4375 C2104.30072215 2530.90997397 2114.17843496 2525.02822229 2124 2519 C2125.37599365 2518.15743652 2125.37599365 2518.15743652 2126.77978516 2517.29785156 C2150.05712631 2503.00690511 2172.75152418 2487.84361157 2195 2472 C2195.74475586 2471.47132324 2196.48951172 2470.94264648 2197.25683594 2470.39794922 C2223.1194386 2452.00940145 2248.2704265 2432.47434092 2272.41821289 2411.88061523 C2275.73698236 2409.05313305 2279.10184014 2406.29377712 2282.5 2403.5625 C2287.88285937 2399.1854888 2292.94271342 2394.50445873 2298.01171875 2389.7734375 C2300.3035841 2387.63645686 2302.62758757 2385.54776652 2305 2383.5 C2310.17180785 2379.0163329 2315.17507724 2374.3500329 2320.18408203 2369.68652344 C2321.95962515 2368.03749791 2323.74314011 2366.39745694 2325.52734375 2364.7578125 C2335.63189132 2355.41264973 2345.38546423 2345.72242007 2355.125 2336 C2356.14892853 2334.97995377 2356.14892853 2334.97995377 2357.19354248 2333.93930054 C2366.7258889 2324.47703284 2366.7258889 2324.47703284 2375.71435547 2314.50390625 C2377.37535283 2312.56092414 2379.16182854 2310.77478623 2381 2309 C2384.17089998 2305.87154036 2387.1256996 2302.63144648 2390.02734375 2299.25390625 C2391.9648538 2297.04015714 2393.9514439 2294.87757752 2395.95239258 2292.72119141 C2400.78184895 2287.51462801 2405.3644026 2282.18264588 2409.8203125 2276.6484375 C2411.97757399 2274.02724881 2414.21311 2271.50845719 2416.5 2269 C2421.20458343 2263.82495823 2425.6061739 2258.43932438 2430 2253 C2431.03443444 2251.73378497 2432.06963622 2250.46819657 2433.10546875 2249.203125 C2439.36869942 2241.54497371 2445.52927572 2233.82966748 2451.51416016 2225.95117188 C2453.27818222 2223.63469729 2455.05126629 2221.32527135 2456.82421875 2219.015625 C2463.97033572 2209.69265709 2471.04435492 2200.34149553 2477.78710938 2190.72216797 C2479.06142549 2188.91278273 2480.34974997 2187.11401044 2481.640625 2185.31640625 C2501.16902485 2158.03368351 2519.54690295 2129.76036695 2536.39355469 2100.75244141 C2538.02047365 2097.96492098 2539.66790641 2095.19044603 2541.3203125 2092.41796875 C2564.8033722 2052.87163321 2585.99916008 2011.31842086 2604 1969 C2604.44925842 1967.94522461 2604.44925842 1967.94522461 2604.90759277 1966.86914062 C2612.25386294 1949.601038 2619.53256323 1932.29971541 2626.00585938 1914.68212891 C2627.10324212 1911.72145924 2628.23105669 1908.77323252 2629.359375 1905.82421875 C2635.50149827 1889.60720408 2640.95614153 1873.19893741 2646.25 1856.6875 C2646.58402832 1855.64961334 2646.91805664 1854.61172668 2647.26220703 1853.54238892 C2653.69029924 1833.52601083 2659.44949148 1813.33228398 2664.703125 1792.9765625 C2665.62233297 1789.42143263 2666.57698838 1785.87756505 2667.546875 1782.3359375 C2679.55570854 1737.98321876 2687.5492177 1692.37826606 2693.49316406 1646.84472656 C2693.9333501 1643.5055889 2694.39337942 1640.17043156 2694.8671875 1636.8359375 C2696.95290392 1621.96035201 2698.25483487 1607.02280951 2699.49253845 1592.05749512 C2699.82691941 1588.02037659 2700.18207804 1583.9861491 2700.5625 1579.953125 C2705.68069725 1524.2335706 2706.36838565 1466.80267621 2702 1411 C2701.90998718 1409.83593628 2701.81997437 1408.67187256 2701.72723389 1407.47253418 C2698.7937247 1369.78448065 2695.03752254 1332.33588144 2689 1295 C2688.85220093 1294.07828003 2688.70440186 1293.15656006 2688.55212402 1292.20690918 C2683.75381006 1262.30086453 2677.89718457 1232.7284207 2670.9375 1203.25 C2670.72966888 1202.3657132 2670.52183777 1201.48142639 2670.30770874 1200.57034302 C2667.8641057 1190.20697845 2665.18715022 1179.96570511 2662.1184082 1169.77001953 C2660.64880786 1164.81617355 2659.37830395 1159.82432428 2658.125 1154.8125 C2655.18982369 1143.38499378 2651.70401624 1132.19863611 2648 1121 C2647.54306801 1119.61075148 2647.08637721 1118.22142362 2646.62988281 1116.83203125 C2638.56971549 1092.30317707 2638.56971549 1092.30317707 2629.76367188 1068.03515625 C2628.99201831 1065.97872911 2628.24996308 1063.91377389 2627.515625 1061.84375 C2618.32791277 1036.07694745 2607.3624947 1010.87000494 2596 986 C2595.45907715 984.81519043 2594.9181543 983.63038086 2594.36083984 982.40966797 C2582.17948083 955.79112634 2569.2878487 929.55753697 2555 904 C2553.98824686 902.17319613 2552.9765287 900.34637288 2551.96484375 898.51953125 C2543.98011963 884.17946578 2535.51297791 870.15410739 2526.93603516 856.1640625 C2525.22313036 853.36466197 2523.52038256 850.55956282 2521.82421875 847.75 C2516.47771914 838.90604842 2510.93165491 830.23556843 2505.13476562 821.68017578 C2503.4272961 819.15203351 2501.74682291 816.60610146 2500.0625 814.0625 C2476.39347516 778.60630079 2450.71361681 744.31186175 2423.0859375 711.83789062 C2420.17412087 708.40959255 2417.32236523 704.94025685 2414.5 701.4375 C2410.37309794 696.36392507 2405.99897442 691.56258858 2401.5546875 686.76953125 C2399.49886278 684.54081607 2397.48383043 682.29232081 2395.5 680 C2391.762579 675.69441998 2387.90807247 671.498722 2384.04199219 667.30908203 C2382.22429731 665.33656755 2380.41950288 663.3551822 2378.62475586 661.36157227 C2369.06136876 650.81633304 2358.95550089 640.80283078 2348.88085938 630.75048828 C2346.25985869 628.13522148 2343.64342706 625.51543651 2341.02827072 622.89432716 C2338.98472746 620.84714739 2336.93878037 618.80238326 2334.89212799 616.75831223 C2333.46407596 615.33123467 2332.03800703 613.90217351 2330.61199951 612.47305298 C2326.08557363 607.962811 2321.5067222 603.58743154 2316.65817261 599.42459106 C2314.75306023 597.78784585 2312.91978434 596.08813293 2311.10546875 594.3515625 C2310.46569092 593.7433667 2309.82591309 593.1351709 2309.16674805 592.50854492 C2308.51359619 591.8869751 2307.86044434 591.26540527 2307.1875 590.625 C2301.810985 585.54264462 2296.3612441 580.71605846 2290.57421875 576.10546875 C2287.78969652 573.82799154 2285.14586197 571.43687992 2282.5 569 C2277.68809567 564.58118081 2272.71730367 560.42766238 2267.6328125 556.328125 C2265.78569216 554.82568262 2263.95472155 553.30483137 2262.125 551.78125 C2253.66732552 544.74651877 2245.08760085 537.92436554 2236.31640625 531.28515625 C2232.60085456 528.46993409 2228.93102394 525.60017661 2225.26708984 522.71826172 C2216.72113704 516.00555659 2207.99173285 509.63626499 2199.06494141 503.44140625 C2197.06822399 502.04762289 2195.08474867 500.63715903 2193.10546875 499.21875 C2143.9630915 464.05264518 2091.71098682 433.5976616 2038 406 C2037.07348633 405.52240234 2036.14697266 405.04480469 2035.19238281 404.55273438 C1986.26170758 379.41559917 1935.14853167 358.9681936 1883.0721283 341.40180969 C1877.43553588 339.4967617 1871.82218259 337.53379453 1866.21923828 335.53173828 C1853.64778433 331.05080165 1840.89001412 327.44282221 1828 324 C1826.11812988 323.49654053 1826.11812988 323.49654053 1824.19824219 322.98291016 C1819.0093015 321.59591155 1813.82003932 320.21032981 1808.62670898 318.83984375 C1802.72783765 317.28045071 1796.85004454 315.67621911 1790.9921875 313.96875 C1783.98450122 311.95433945 1776.92817038 310.27312562 1769.8125 308.6875 C1768.83463028 308.46830902 1768.83463028 308.46830902 1767.83700562 308.24468994 C1751.2835871 304.53976485 1734.65745724 301.20094775 1718 298 C1716.78248047 297.76539063 1715.56496094 297.53078125 1714.31054688 297.2890625 C1696.57385882 293.90685614 1678.75398213 291.29843288 1660.85986328 288.92146301 C1656.88379745 288.39295887 1652.91119058 287.84688532 1648.94116211 287.2746582 C1634.43612726 285.20189027 1619.90837245 283.70899828 1605.3125 282.4375 C1604.07779968 282.32983307 1602.84309937 282.22216614 1601.57098389 282.11123657 C1508.5688083 274.10605562 1414.84654819 276.79521087 1261.25683594 300.32714844 Z " fill="#FEFEFE" transform="translate(0,0)"/>
<path d="M0 0 C1.21316895 0.48025635 2.42633789 0.9605127 3.67626953 1.45532227 C14.77002093 5.85901178 25.80096517 10.41560936 36.82983398 14.97875977 C46.21647793 18.86042577 55.62593577 22.67887761 65.0625 26.4375 C75.37148678 30.54471552 85.66186177 34.69394416 95.93554688 38.88867188 C104.99381865 42.58689465 114.05757047 46.27140196 123.12460327 49.9480896 C125.54179071 50.92909522 127.95810671 51.91222104 130.37426758 52.89575195 C136.93446147 55.56312183 143.49291255 58.22277534 150.11328125 60.73828125 C166.40065747 66.93900769 166.40065747 66.93900769 172.625 73.25 C173.47384766 74.07951172 173.47384766 74.07951172 174.33984375 74.92578125 C181.88701823 82.95272721 184.03395117 92.54993784 183.90234375 103.3125 C183.09907436 111.82036734 179.30545975 118.99883986 173.625 125.25 C173.07328125 125.86746094 172.5215625 126.48492188 171.953125 127.12109375 C165.3324954 133.69928342 155.86392082 137.3572918 146.5625 137.8125 C134.41087586 136.85866284 122.6523897 130.9667105 111.52859497 126.34243774 C107.6784584 124.74210805 103.82297494 123.15484905 99.96772766 121.56687927 C97.93809362 120.73085625 95.90870793 119.89423007 93.87956238 119.05702209 C82.83764612 114.50408681 71.76392951 110.03065807 60.6875 105.5625 C57.73572632 104.37100236 54.78403413 103.179303 51.83235168 101.98757935 C49.90171013 101.20809981 47.97103622 100.42870039 46.04032898 99.64938354 C38.90501976 96.76870404 31.77162923 93.88331052 24.64364624 90.98454285 C20.71204246 89.38621262 16.77745231 87.7968647 12.83251953 86.23168945 C5.79613177 83.43017994 -1.07105923 80.58670678 -7.73583984 76.95776367 C-15.28232758 73.45939965 -15.28232758 73.45939965 -23.25830078 74.29345703 C-24.68882389 74.96063923 -26.10447199 75.66020343 -27.5078125 76.3828125 C-28.3352446 76.7811026 -29.1626767 77.1793927 -30.0151825 77.5897522 C-33.15079836 79.11293231 -36.26151972 80.68206774 -39.375 82.25 C-41.46763819 83.28819823 -43.56211679 84.32262782 -45.6566267 85.35704422 C-55.64925641 90.29420419 -65.60933774 95.2955245 -75.56549072 100.3057251 C-83.29749861 104.19611711 -91.03274914 108.08004989 -98.76953125 111.9609375 C-99.60006138 112.37771004 -100.43059151 112.79448257 -101.28628922 113.22388458 C-111.48657329 118.340006 -121.71483464 123.37908166 -132.03096008 128.2585144 C-139.86448301 131.97493937 -147.62401693 135.83412768 -155.375 139.71875 C-156.02663809 140.04529194 -156.67827618 140.37183388 -157.34966087 140.70827103 C-162.02621726 143.05264226 -166.70081474 145.40090563 -171.375 147.75 C-176.70702205 150.42970188 -182.0398529 153.10777437 -187.375 155.78125 C-188.02654053 156.10778061 -188.67808105 156.43431122 -189.34936523 156.77073669 C-198.39015779 161.29795605 -207.4768008 165.71690218 -216.61328125 170.0480957 C-224.58333746 173.84014255 -232.48468992 177.76438699 -240.375 181.71875 C-241.025896 182.04491806 -241.67679199 182.37108612 -242.34741211 182.70713806 C-247.02471824 185.05188663 -251.70006478 187.40052872 -256.375 189.75 C-261.70702205 192.42970188 -267.0398529 195.10777437 -272.375 197.78125 C-273.02654053 198.10778061 -273.67808105 198.43431122 -274.34936523 198.77073669 C-283.39015779 203.29795605 -292.4768008 207.71690218 -301.61328125 212.0480957 C-309.58333746 215.84014255 -317.48468992 219.76438699 -325.375 223.71875 C-326.025896 224.04491806 -326.67679199 224.37108612 -327.34741211 224.70713806 C-332.02471824 227.05188663 -336.70006478 229.40052872 -341.375 231.75 C-346.70702208 234.42970189 -352.03986971 237.1077408 -357.375 239.78125 C-358.01900064 240.10402105 -358.66300129 240.42679211 -359.32651711 240.7593441 C-369.7010243 245.95473613 -380.13425159 251.01588596 -390.62182617 255.97973633 C-396.11061113 258.58406029 -401.52520852 261.32375035 -406.92578125 264.10546875 C-409.375 265.25 -409.375 265.25 -411.375 265.25 C-411.375 265.91 -411.375 266.57 -411.375 267.25 C-410.73804199 267.34482666 -410.10108398 267.43965332 -409.44482422 267.53735352 C-405.22110357 268.51787209 -401.29464218 270.08397885 -397.2578125 271.65234375 C-396.35004562 272.00128693 -395.44227875 272.3502301 -394.50700378 272.70974731 C-391.50323603 273.86531442 -388.50164693 275.0264363 -385.5 276.1875 C-383.38321663 277.00293823 -381.26627059 277.81795427 -379.14916992 278.63256836 C-374.74547817 280.32734634 -370.34249605 282.02395018 -365.93994141 283.72167969 C-359.74872797 286.10777806 -353.55310036 288.48219112 -347.35546875 290.8515625 C-346.38849564 291.22125656 -345.42152252 291.59095062 -344.42524719 291.97184753 C-342.48356801 292.71414949 -340.54188204 293.4564337 -338.60018921 294.19869995 C-322.61751749 300.3104061 -306.64692331 306.45285635 -290.6875 312.625 C-275.20587562 318.61182019 -259.7221882 324.59322181 -244.23202515 330.55792236 C-241.99210512 331.42065869 -239.75237223 332.28388107 -237.5128479 333.14764404 C-231.41302107 335.50007477 -225.30823354 337.83878539 -219.19842529 340.16516113 C-216.41680306 341.2339381 -213.64578739 342.32706252 -210.87548828 343.42480469 C-209.17888008 344.08311836 -207.48211178 344.74101965 -205.78515625 345.3984375 C-205.0314122 345.70472076 -204.27766815 346.01100403 -203.50108337 346.3265686 C-202.79311111 346.59697968 -202.08513885 346.86739075 -201.35571289 347.14599609 C-200.75191299 347.38482513 -200.1481131 347.62365417 -199.52601624 347.86972046 C-193.24314783 348.9804728 -188.0150556 346.42294973 -182.6015625 343.63916016 C-181.8571994 343.26654053 -181.1128363 342.8939209 -180.34591675 342.51000977 C-177.89246624 341.27900614 -175.44637724 340.03405519 -173 338.7890625 C-171.2719573 337.91909376 -169.54343251 337.050082 -167.81445312 336.18197632 C-163.25523064 333.88999675 -158.70194745 331.58646486 -154.15002441 329.2800293 C-146.94142043 325.63022365 -139.72356331 321.99870554 -132.50695801 318.36475372 C-130.74884821 317.4792112 -128.99095507 316.59323839 -127.23327637 315.70684052 C-116.74997168 310.4204768 -106.24361213 305.20543046 -95.62695312 300.19070435 C-87.82244607 296.49446536 -80.09464413 292.65052485 -72.375 288.78125 C-71.72319763 288.45461742 -71.07139526 288.12798485 -70.39984131 287.79145432 C-65.72345155 285.4471732 -61.04901608 283.09900935 -56.375 280.75 C-51.04297795 278.07029812 -45.7101471 275.39222563 -40.375 272.71875 C-39.72345947 272.39221939 -39.07191895 272.06568878 -38.40063477 271.72926331 C-29.35984221 267.20204395 -20.2731992 262.78309782 -11.13671875 258.4519043 C-3.16666254 254.65985745 4.73468992 250.73561301 12.625 246.78125 C13.275896 246.45508194 13.92679199 246.12891388 14.59741211 245.79286194 C19.27471824 243.44811337 23.95006478 241.09947128 28.625 238.75 C33.95702205 236.07029812 39.28985257 233.39222497 44.625 230.71875 C45.27687286 230.39205322 45.92874573 230.06535645 46.60037231 229.72875977 C54.71626876 225.6646902 62.86018912 221.66870032 71.0625 217.78125 C80.11984556 213.48805364 89.10184209 209.05294725 98.0625 204.5625 C98.73537048 204.2253447 99.40824097 203.88818939 100.10150146 203.54081726 C104.94410825 201.11341169 109.7847579 198.68211652 114.625 196.25 C120.14452688 193.47655764 125.66485636 190.7047318 131.1875 187.9375 C131.86085388 187.60006271 132.53420776 187.26262543 133.22796631 186.91496277 C142.40962688 182.31742297 151.63514506 177.82421073 160.91430664 173.4263916 C168.8676267 169.64340802 176.75168282 165.72709204 184.625 161.78125 C185.27598663 161.45503662 185.92697327 161.12882324 186.59768677 160.79272461 C191.27490135 158.44802184 195.95015624 156.09942531 200.625 153.75 C205.95702211 151.0702981 211.28988117 148.3922821 216.625 145.71875 C217.27614588 145.39238556 217.92729176 145.06602112 218.59816933 144.72976685 C227.6641006 140.18943805 236.77739124 135.76103891 245.94059753 131.42004395 C253.75252125 127.70329816 261.48468105 123.83562544 269.20703125 119.9375 C270.46562875 119.30298226 271.72424488 118.66850145 272.98287964 118.03405762 C278.10921336 115.44876946 283.23454167 112.86156231 288.35375977 110.26220703 C291.54741016 108.64096805 294.74502259 107.02778636 297.94525719 105.41958618 C299.71276674 104.52861404 301.47594689 103.62906932 303.2389679 102.72924805 C319.80664625 94.41848923 331.90280333 93.86941936 349.625 99.25 C354.15401195 100.81092036 358.55756771 102.67372834 362.9581604 104.56173706 C365.84828923 105.8013387 368.74951723 107.01405562 371.6499176 108.22938538 C373.20940851 108.88315591 374.76835176 109.53823422 376.32676697 110.19456482 C384.77604665 113.74951007 393.2730329 117.18450864 401.7741394 120.61325073 C405.34464238 122.05339001 408.91399504 123.49636954 412.4834137 124.93919373 C414.26235475 125.65822645 416.04135643 126.3771092 417.82041931 127.09584045 C426.69579832 130.68145275 435.56694577 134.27747178 444.4375 137.875 C445.95938672 138.49211735 447.48127799 139.10922349 449.00317383 139.72631836 C452.02899266 140.95323523 455.05478789 142.18021027 458.08056641 143.40722656 C464.98932893 146.20881503 471.89841144 149.0096142 478.8074646 151.81048584 C482.66332234 153.37362613 486.51916018 154.9368155 490.375 156.5 C491.91666657 157.12500024 493.45833324 157.75000024 495 158.375 C498.08333333 159.625 501.16666667 160.875 504.25 162.125 C505.39448357 162.58897942 505.39448357 162.58897942 506.56208801 163.06233215 C508.10512874 163.68788975 509.64816869 164.31344925 511.19120789 164.93901062 C515.02434523 166.49299478 518.85749551 168.04694701 522.69067383 169.60083008 C529.87876247 172.51475672 537.06671963 175.42900651 544.25424194 178.34432983 C547.62843032 179.71290894 551.00268911 181.08131442 554.37695312 182.44970703 C555.97676037 183.09854626 557.57653357 183.74746941 559.17626953 184.39648438 C560.68401299 185.00817362 562.19181842 185.61971013 563.69969177 186.2310791 C565.11487226 186.80508058 566.52980772 187.37968663 567.94447327 187.95495605 C571.74450033 189.49811308 575.55817429 190.99964639 579.3828125 192.48046875 C589.36959689 196.48003302 596.05086282 203.9109354 600.72265625 213.50390625 C604.71009136 223.87123753 602.833325 234.24436592 598.625 244.25 C592.46242962 255.57664834 583.23529286 260.75063923 572.00463867 266.45214844 C570.24571102 267.34543697 568.49285371 268.25064726 566.74023438 269.15625 C558.92899026 273.17421617 551.02508852 276.98690987 543.09765625 280.76953125 C533.4922899 285.35581376 523.94502071 290.04708757 514.4296875 294.81640625 C513.78058599 295.14168556 513.13148449 295.46696487 512.46271324 295.80210114 C507.80702506 298.13601512 503.15329982 300.47382862 498.5 302.8125 C493.18621126 305.48309552 487.8716045 308.1520433 482.5546875 310.81640625 C481.90613548 311.1414426 481.25758347 311.46647896 480.58937836 311.8013649 C472.4753676 315.8645243 464.33284335 319.8587316 456.1328125 323.74609375 C447.24143845 327.96121929 438.42156308 332.31020225 429.625 336.71875 C428.97411533 337.0449124 428.32323067 337.37107479 427.65262222 337.7071209 C422.97530465 340.05187519 418.29994665 342.40052298 413.625 344.75 C408.29297795 347.42970188 402.9601471 350.10777437 397.625 352.78125 C396.97345947 353.10778061 396.32191895 353.43431122 395.65063477 353.77073669 C386.60984221 358.29795605 377.5231992 362.71690218 368.38671875 367.0480957 C360.41666254 370.84014255 352.51531008 374.76438699 344.625 378.71875 C343.974104 379.04491806 343.32320801 379.37108612 342.65258789 379.70713806 C337.97528176 382.05188663 333.29993522 384.40052872 328.625 386.75 C323.29297795 389.42970188 317.9601471 392.10777437 312.625 394.78125 C311.97345947 395.10778061 311.32191895 395.43431122 310.65063477 395.77073669 C301.60984221 400.29795605 292.5231992 404.71690218 283.38671875 409.0480957 C275.41666254 412.84014255 267.51531008 416.76438699 259.625 420.71875 C258.974104 421.04491806 258.32320801 421.37108612 257.65258789 421.70713806 C252.97528176 424.05188663 248.29993522 426.40052872 243.625 428.75 C238.29297794 431.42970188 232.96014455 434.10776928 227.625 436.78125 C226.97603508 437.10649281 226.32707016 437.43173561 225.65843964 437.76683426 C216.44121003 442.38243817 207.17785682 446.89085758 197.86431885 451.30929565 C187.28761841 456.33709083 176.83414934 461.60819785 166.375 466.875 C162.49594975 468.82783559 158.61555601 470.77796587 154.734375 472.7265625 C153.85956482 473.16811676 152.98475464 473.60967102 152.08343506 474.06460571 C151.27698547 474.46948212 150.47053589 474.87435852 149.63964844 475.29150391 C148.93402771 475.64693268 148.22840698 476.00236145 147.50140381 476.36856079 C145.625 477.25 145.625 477.25 142.625 478.25 C165.75137698 486.86842748 188.88599097 495.46398274 212.03805542 504.01318359 C226.94040192 509.51618575 241.83615012 515.03661031 256.72659302 520.57173157 C257.40849701 520.82520859 258.090401 521.07868561 258.79296875 521.33984375 C259.46238495 521.5886882 260.13180115 521.83753265 260.82150269 522.09391785 C267.25401098 524.48465704 273.68926418 526.86796383 280.125 529.25 C291.79389951 533.5694706 303.45885587 537.89950636 315.12231445 542.23364258 C316.62971883 542.79378584 318.13712443 543.35392581 319.64453125 543.9140625 C320.39414627 544.19261581 321.14376129 544.47116913 321.91609192 544.75816345 C326.92630831 546.61965328 331.9375158 548.47845423 336.94921875 550.3359375 C357.02794377 557.77971358 377.08490989 565.28089984 397.13166809 572.81034851 C399.04211115 573.52693546 400.95322868 574.24172697 402.86503601 574.95466614 C407.99756044 576.87155345 413.111353 578.82721706 418.20947266 580.83398438 C419.83874443 581.46696442 419.83874443 581.46696442 421.50093079 582.11273193 C423.58866363 582.92451488 425.67211672 583.74742015 427.75041199 584.58306885 C429.16523613 585.12927887 429.16523613 585.12927887 430.60864258 585.68652344 C431.43431229 586.01311951 432.25998199 586.33971558 433.110672 586.6762085 C439.06051974 588.03401546 443.90745891 585.38956544 449.10131836 582.73095703 C449.82602829 582.36809097 450.55073822 582.00522491 451.29740906 581.63136292 C453.6903725 580.43094488 456.07749872 579.21936029 458.46484375 578.0078125 C460.14956427 577.16044043 461.83467591 576.31384558 463.52015686 575.46798706 C467.96833845 573.23342791 472.41182418 570.98969166 476.85418701 568.74359131 C483.88435758 565.1910365 490.92140369 561.65209706 497.95820999 558.11270905 C499.67480313 557.249181 501.39123058 556.38532351 503.10749435 555.52114105 C513.4625707 550.30821175 523.84303934 545.1700726 534.32518005 540.21621704 C542.14497256 536.51015894 549.88919146 532.65850861 557.625 528.78125 C558.2767174 528.45466274 558.92843479 528.12807549 559.5999012 527.79159164 C564.27637702 525.44726523 568.95089704 523.09905301 573.625 520.75 C578.95702205 518.07029812 584.2898529 515.39222563 589.625 512.71875 C590.27654053 512.39221939 590.92808105 512.06568878 591.59936523 511.72926331 C600.64015779 507.20204395 609.7268008 502.78309782 618.86328125 498.4519043 C626.83333746 494.65985745 634.73468992 490.73561301 642.625 486.78125 C643.275896 486.45508194 643.92679199 486.12891388 644.59741211 485.79286194 C649.27471824 483.44811337 653.95006478 481.09947128 658.625 478.75 C663.95702205 476.07029812 669.2898529 473.39222563 674.625 470.71875 C675.27654053 470.39221939 675.92808105 470.06568878 676.59936523 469.72926331 C685.64015779 465.20204395 694.7268008 460.78309782 703.86328125 456.4519043 C711.83333746 452.65985745 719.73468992 448.73561301 727.625 444.78125 C728.275896 444.45508194 728.92679199 444.12891388 729.59741211 443.79286194 C734.27471824 441.44811337 738.95006478 439.09947128 743.625 436.75 C748.95702204 434.07029813 754.28984938 431.39221859 759.625 428.71875 C760.27070387 428.39514811 760.91640774 428.07154621 761.58167839 427.7381382 C771.9124318 422.56507892 782.30588595 417.53332806 792.74267578 412.57763672 C798.89146024 409.65568696 804.98419061 406.62840419 811.0625 403.5625 C812.10341797 403.03978516 813.14433594 402.51707031 814.21679688 401.97851562 C816.68718806 400.73762789 819.15660515 399.4948526 821.625 398.25 C812.86497858 394.11328951 803.92389672 390.47710318 794.9385376 386.86755371 C790.28113333 384.99636509 785.62711404 383.11678425 780.97265625 381.23828125 C779.97985657 380.83781586 778.98705688 380.43735046 777.96417236 380.02474976 C770.5312604 377.02478143 763.10564633 374.00719611 755.68359375 370.98046875 C754.0392762 370.30994225 754.0392762 370.30994225 752.36174011 369.62586975 C747.85974162 367.78953932 743.35800213 365.95257829 738.85690308 364.11404419 C725.91453234 358.82783481 712.96062767 353.57367651 699.9765625 348.390625 C697.58767087 347.43471273 695.19883543 346.47866003 692.81005859 345.52246094 C689.38003692 344.14949558 685.94905884 342.77932659 682.51397705 341.41906738 C679.36562414 340.17234293 676.2215794 338.91526428 673.078125 337.65625 C672.16382721 337.29774963 671.24952942 336.93924927 670.30752563 336.56988525 C658.71371959 331.89793311 647.92256746 326.05429596 642.44921875 314.33984375 C642.17722656 313.65019531 641.90523437 312.96054688 641.625 312.25 C641.26792969 311.35023438 640.91085937 310.45046875 640.54296875 309.5234375 C639.43617373 305.57665357 639.24093175 302.01685261 639.25 297.9375 C639.25161133 297.1849292 639.25322266 296.4323584 639.25488281 295.65698242 C639.38479493 289.76572252 640.44519952 285.28006765 643.625 280.25 C644.181875 279.239375 644.73875 278.22875 645.3125 277.1875 C652.36949473 268.2232094 660.65135494 262.62987586 671.98828125 260.66796875 C682.8921491 259.96487782 691.80078321 263.81837322 701.66748047 268.00097656 C704.7160685 269.28846017 707.77860614 270.53557306 710.84765625 271.7734375 C715.36074736 273.59541923 719.86826159 275.43014851 724.37109375 277.27734375 C731.24564188 280.09692784 738.12758593 282.89794347 745.012146 285.69296265 C747.0174619 286.50708926 749.02265777 287.32151093 751.02783203 288.13598633 C765.20223751 293.89287047 779.38072317 299.63969415 793.55932617 305.38623047 C801.31227336 308.52847181 809.06492016 311.67145392 816.8175354 314.81451416 C820.67001094 316.37637401 824.52250649 317.93818449 828.375 319.5 C829.91666676 320.12499976 831.45833343 320.74999976 833 321.375 C834.1446875 321.8390625 834.1446875 321.8390625 835.3125 322.3125 C837.625 323.25 839.9375 324.1875 842.25 325.125 C843.39455154 325.58897942 843.39455154 325.58897942 844.56222534 326.06233215 C846.10486 326.68776227 847.64744215 327.31332189 849.18997192 327.93901062 C853.02890976 329.49599277 856.86871486 331.05075981 860.71044922 332.60083008 C867.83102707 335.47650814 874.9414469 338.37158823 882.02215576 341.34432983 C885.30546881 342.72122516 888.5938171 344.08586099 891.88256836 345.44970703 C893.42335321 346.09258787 894.96175392 346.74122291 896.49731445 347.39648438 C905.56316616 351.26317601 914.30651055 354.16691953 924.05044556 355.8235321 C934.88774678 357.75363075 943.3637691 363.23414462 949.75 372.25 C955.60121093 382.44243194 956.47572394 392.84642212 953.953125 404.30078125 C947.44741755 422.64801762 929.13727945 429.16957766 912.96862793 436.97772217 C907.29129361 439.71986261 901.62459209 442.48382434 895.95703125 445.24609375 C894.78296722 445.81773254 893.6089032 446.38937134 892.39926147 446.97833252 C877.38851824 454.29768497 862.47002752 461.80173161 847.55102539 469.3059082 C837.92467479 474.14174348 828.27978858 478.92099122 818.546875 483.5390625 C809.51866952 487.82544012 800.55938488 492.24109514 791.625 496.71875 C790.97471581 497.04461216 790.32443161 497.37047432 789.65444183 497.70621109 C784.97651779 500.05126879 780.30055257 502.40021846 775.625 504.75 C770.29297795 507.42970188 764.9601471 510.10777437 759.625 512.78125 C758.97345947 513.10778061 758.32191895 513.43431122 757.65063477 513.77073669 C748.60984221 518.29795605 739.5231992 522.71690218 730.38671875 527.0480957 C722.41666254 530.84014255 714.51531008 534.76438699 706.625 538.71875 C705.974104 539.04491806 705.32320801 539.37108612 704.65258789 539.70713806 C699.97528176 542.05188663 695.29993522 544.40052872 690.625 546.75 C685.29297795 549.42970188 679.9601471 552.10777437 674.625 554.78125 C673.97345947 555.10778061 673.32191895 555.43431122 672.65063477 555.77073669 C663.60984221 560.29795605 654.5231992 564.71690218 645.38671875 569.0480957 C637.41666254 572.84014255 629.51531008 576.76438699 621.625 580.71875 C620.974104 581.04491806 620.32320801 581.37108612 619.65258789 581.70713806 C614.97528176 584.05188663 610.29993522 586.40052872 605.625 588.75 C600.29297795 591.42970188 594.9601471 594.10777437 589.625 596.78125 C588.97345947 597.10778061 588.32191895 597.43431122 587.65063477 597.77073669 C578.60984221 602.29795605 569.5231992 606.71690218 560.38671875 611.0480957 C552.41666254 614.84014255 544.51531008 618.76438699 536.625 622.71875 C535.974104 623.04491806 535.32320801 623.37108612 534.65258789 623.70713806 C529.97528176 626.05188663 525.29993522 628.40052872 520.625 630.75 C515.29297792 633.42970189 509.96013228 636.10774478 504.625 638.78125 C503.97900534 639.10501806 503.33301067 639.42878613 502.66744041 639.76236534 C493.24503206 644.48093388 483.77551542 649.09178953 474.2558136 653.61128235 C465.73746405 657.65690149 457.3223358 661.88499298 448.91992188 666.16601562 C447.85708984 666.70291016 446.79425781 667.23980469 445.69921875 667.79296875 C444.76682373 668.26758545 443.83442871 668.74220215 442.8737793 669.23120117 C440.625 670.25 440.625 670.25 438.625 670.25 C438.65234726 671.09543365 438.67969452 671.94086731 438.70787048 672.81192017 C439.64919563 702.79650972 439.92463764 732.78095472 440.15722656 762.77819824 C440.20841897 769.28314274 440.26358261 775.78805362 440.31835938 782.29296875 C440.42434346 794.94528347 440.52610881 807.59762799 440.625 820.25 C441.60122818 819.7607756 442.57745636 819.27155121 443.58326721 818.76750183 C452.89033255 814.10372876 462.19851725 809.4421963 471.50773716 804.78272533 C476.29093914 802.38854108 481.07377529 799.99363257 485.85571289 797.59692383 C522.57268629 779.195485 522.57268629 779.195485 537.44618225 772.16203308 C545.22483434 768.4726589 552.92859509 764.63826007 560.625 760.78125 C561.27693266 760.45456644 561.92886532 760.12788288 562.60055351 759.79129982 C567.27681285 757.44707268 571.95110971 755.09894613 576.625 752.75 C581.95702205 750.07029812 587.2898529 747.39222563 592.625 744.71875 C593.27654053 744.39221939 593.92808105 744.06568878 594.59936523 743.72926331 C603.64015779 739.20204395 612.7268008 734.78309782 621.86328125 730.4519043 C629.83333746 726.65985745 637.73468992 722.73561301 645.625 718.78125 C646.275896 718.45508194 646.92679199 718.12891388 647.59741211 717.79286194 C652.27471824 715.44811337 656.95006478 713.09947128 661.625 710.75 C666.95702205 708.07029812 672.2898529 705.39222563 677.625 702.71875 C678.27654053 702.39221939 678.92808105 702.06568878 679.59936523 701.72926331 C688.64015779 697.20204395 697.7268008 692.78309782 706.86328125 688.4519043 C714.83333746 684.65985745 722.73468992 680.73561301 730.625 676.78125 C731.275896 676.45508194 731.92679199 676.12891388 732.59741211 675.79286194 C737.27471824 673.44811337 741.95006478 671.09947128 746.625 668.75 C751.95702205 666.07029812 757.2898529 663.39222563 762.625 660.71875 C763.27654053 660.39221939 763.92808105 660.06568878 764.59936523 659.72926331 C773.64015779 655.20204395 782.7268008 650.78309782 791.86328125 646.4519043 C799.83333746 642.65985745 807.73468992 638.73561301 815.625 634.78125 C816.275896 634.45508194 816.92679199 634.12891388 817.59741211 633.79286194 C822.27471824 631.44811337 826.95006478 629.09947128 831.625 626.75 C836.95702208 624.07029811 842.28986846 621.39225671 847.625 618.71875 C848.27024691 618.39535582 848.91549381 618.07196163 849.58029366 617.73876762 C859.94041698 612.55059752 870.36489296 607.50737092 880.83154297 602.53759766 C887.414363 599.40807077 893.91234471 596.1199229 900.40039062 592.79882812 C907.45022828 589.22948853 913.34925923 586.85579507 921.375 586.875 C922.42953369 586.87741699 922.42953369 586.87741699 923.50537109 586.87988281 C934.52663526 587.13789726 943.35239101 592.38463312 950.94921875 600.18359375 C958.23991638 609.1737547 959.45693592 619.04620349 958.84277344 630.21533203 C957.85269018 639.4657287 952.49090268 647.2877829 945.625 653.25 C935.7597524 659.65137704 924.99477275 664.61528065 914.42169189 669.71347046 C909.49160107 672.09157946 904.56983721 674.48678058 899.6484375 676.8828125 C898.08625992 677.64313026 898.08625992 677.64313026 896.49252319 678.41880798 C888.46391487 682.33442376 880.46391585 686.30567166 872.4765625 690.3046875 C871.88346031 690.60160933 871.29035812 690.89853115 870.67928314 691.20445061 C864.30532863 694.39637396 857.93510252 697.59569477 851.56640625 700.7980957 C841.57293103 705.81719669 831.56492975 710.78876134 821.4609375 715.58203125 C812.46113555 719.85362983 803.53077984 724.2554385 794.625 728.71875 C793.97459118 729.04467447 793.32418236 729.37059895 792.65406418 729.70639992 C787.97626601 732.05139464 783.30042681 734.40028166 778.625 736.75 C773.29297795 739.42970188 767.9601471 742.10777437 762.625 744.78125 C761.97345947 745.10778061 761.32191895 745.43431122 760.65063477 745.77073669 C751.60984221 750.29795605 742.5231992 754.71690218 733.38671875 759.0480957 C725.41666254 762.84014255 717.51531008 766.76438699 709.625 770.71875 C708.974104 771.04491806 708.32320801 771.37108612 707.65258789 771.70713806 C702.97528176 774.05188663 698.29993522 776.40052872 693.625 778.75 C688.29297795 781.42970188 682.9601471 784.10777437 677.625 786.78125 C676.97345947 787.10778061 676.32191895 787.43431122 675.65063477 787.77073669 C666.60984221 792.29795605 657.5231992 796.71690218 648.38671875 801.0480957 C640.41666254 804.84014255 632.51531008 808.76438699 624.625 812.71875 C623.974104 813.04491806 623.32320801 813.37108612 622.65258789 813.70713806 C617.97528176 816.05188663 613.29993522 818.40052872 608.625 820.75 C603.29297795 823.42970188 597.9601471 826.10777437 592.625 828.78125 C591.97345947 829.10778061 591.32191895 829.43431122 590.65063477 829.77073669 C581.60984221 834.29795605 572.5231992 838.71690218 563.38671875 843.0480957 C555.41666254 846.84014255 547.51531008 850.76438699 539.625 854.71875 C538.974104 855.04491806 538.32320801 855.37108612 537.65258789 855.70713806 C532.97528176 858.05188663 528.29993522 860.40052872 523.625 862.75 C518.29297795 865.42970188 512.96014611 868.1077724 507.625 870.78125 C506.97445648 871.1072821 506.32391296 871.43331421 505.65365601 871.76922607 C497.4528823 875.87581334 489.22133373 879.90647899 480.9375 883.84375 C467.7520188 890.14509875 454.69600335 896.71449833 441.625 903.25 C441.295 954.4 440.965 1005.55 440.625 1058.25 C457.93888027 1049.98988852 457.93888027 1049.98988852 475.19921875 1041.62109375 C476.1577626 1041.15221237 477.11630646 1040.68333099 478.10389709 1040.20024109 C481.17414667 1038.69744909 484.24341882 1037.19267655 487.3125 1035.6875 C488.38640991 1035.16130066 489.46031982 1034.63510132 490.56677246 1034.09295654 C509.99948286 1024.567962 529.36853981 1014.91807659 548.7019043 1005.19311523 C558.32707983 1000.35719061 567.97112585 995.5785749 577.703125 990.9609375 C586.73133048 986.67455988 595.69061512 982.25890486 604.625 977.78125 C605.27528419 977.45538784 605.92556839 977.12952568 606.59555817 976.79378891 C611.27348221 974.44873121 615.94944743 972.09978154 620.625 969.75 C625.95702205 967.07029812 631.2898529 964.39222563 636.625 961.71875 C637.27654053 961.39221939 637.92808105 961.06568878 638.59936523 960.72926331 C647.64015779 956.20204395 656.7268008 951.78309782 665.86328125 947.4519043 C673.83333746 943.65985745 681.73468992 939.73561301 689.625 935.78125 C690.275896 935.45508194 690.92679199 935.12891388 691.59741211 934.79286194 C696.27471824 932.44811337 700.95006478 930.09947128 705.625 927.75 C710.95702205 925.07029812 716.2898529 922.39222563 721.625 919.71875 C722.27654053 919.39221939 722.92808105 919.06568878 723.59936523 918.72926331 C732.64015779 914.20204395 741.7268008 909.78309782 750.86328125 905.4519043 C758.83333746 901.65985745 766.73468992 897.73561301 774.625 893.78125 C775.275896 893.45508194 775.92679199 893.12891388 776.59741211 892.79286194 C781.27471824 890.44811337 785.95006478 888.09947128 790.625 885.75 C795.95702207 883.07029812 801.28986221 880.39224423 806.625 877.71875 C807.27651976 877.39221939 807.92803951 877.06568878 808.59930229 876.72926331 C817.63982942 872.20200515 826.72660482 867.78408119 835.86341858 863.45410156 C843.86648126 859.64640066 851.79555952 855.69669814 859.71484375 851.71875 C860.36240253 851.3936293 861.00996132 851.06850861 861.6771431 850.73353577 C867.67060434 847.72372575 873.66136725 844.70856763 879.65014648 841.68945312 C882.97525796 840.01345014 886.30234743 838.34142904 889.63064766 836.67176819 C890.87801426 836.04501356 892.12462381 835.41674959 893.3704052 834.78684998 C910.93245252 825.90749047 910.93245252 825.90749047 916.9921875 825.81640625 C918.09542358 825.79912476 918.09542358 825.79912476 919.22094727 825.78149414 C919.97303467 825.79172607 920.72512207 825.80195801 921.5 825.8125 C922.29011475 825.82079834 923.08022949 825.82909668 923.89428711 825.83764648 C934.20354116 826.1354058 942.32371459 829.89463099 949.625 837.25 C957.56992298 847.68150193 959.89179726 857.27747766 958.625 870.25 C956.66060656 879.801422 951.63198396 887.65249512 943.54980469 893.09301758 C939.03950257 896.06361698 934.40353298 898.55541119 929.55859375 900.9296875 C928.72143326 901.34614532 927.88427277 901.76260315 927.02174377 902.19168091 C924.37146265 903.5085263 921.71713637 904.81696048 919.0625 906.125 C917.31156775 906.9929225 915.56091467 907.86140845 913.81054688 908.73046875 C910.37213695 910.43687136 906.93206863 912.13985905 903.49072266 913.84033203 C899.0861599 916.01853619 894.69236235 918.21765061 890.30078125 920.421875 C883.35619913 923.90312021 876.36987057 927.29324119 869.37081909 930.66333008 C850.00452471 939.99482855 830.78792452 949.62110935 811.58197021 959.27716064 C802.54839461 963.81767179 793.48023247 968.27708818 784.37081909 972.66333008 C765.00452471 981.99482855 745.78792452 991.62110935 726.58197021 1001.27716064 C717.54839461 1005.81767179 708.48023247 1010.27708818 699.37081909 1014.66333008 C680.00452471 1023.99482855 660.78792452 1033.62110935 641.58197021 1043.27716064 C632.54839461 1047.81767179 623.48023247 1052.27708818 614.37081909 1056.66333008 C594.99707679 1065.99841727 575.77337973 1075.62893033 556.55981445 1085.28823853 C547.95103421 1089.61494903 539.31182269 1093.86595779 530.62573242 1098.03601074 C518.6641541 1103.78482344 506.76650406 1109.65857528 494.8984375 1115.59765625 C494.25303135 1115.92061361 493.6076252 1116.24357098 492.94266129 1116.57631493 C486.38534422 1119.85831351 479.83031701 1123.14484969 473.27828407 1126.43738461 C470.78822795 1127.68831398 468.29741822 1128.93773819 465.80650711 1130.18696404 C464.08509035 1131.0510977 462.36483721 1131.91754818 460.6446228 1132.78407288 C459.58949493 1133.31326828 458.53436707 1133.84246368 457.44726562 1134.38769531 C456.53642212 1134.84573547 455.62557861 1135.30377563 454.68713379 1135.7756958 C450.70880799 1137.69111258 446.65985804 1139.45672976 442.625 1141.25 C442.295 1193.06 441.965 1244.87 441.625 1298.25 C472.315 1282.905 472.315 1282.905 503.625 1267.25 C511.215 1263.62 518.805 1259.99 526.625 1256.25 C531.634234 1253.77619768 536.63552636 1251.29375216 541.625 1248.78125 C542.92695902 1248.12804805 544.22904629 1247.47510169 545.53125 1246.8223877 C549.56368291 1244.80061047 553.59448866 1242.77560467 557.625 1240.75 C562.95702205 1238.07029812 568.2898529 1235.39222563 573.625 1232.71875 C574.27654053 1232.39221939 574.92808105 1232.06568878 575.59936523 1231.72926331 C584.64015779 1227.20204395 593.7268008 1222.78309782 602.86328125 1218.4519043 C610.83333746 1214.65985745 618.73468992 1210.73561301 626.625 1206.78125 C627.275896 1206.45508194 627.92679199 1206.12891388 628.59741211 1205.79286194 C633.27471824 1203.44811337 637.95006478 1201.09947128 642.625 1198.75 C647.95702205 1196.07029812 653.2898529 1193.39222563 658.625 1190.71875 C659.27654053 1190.39221939 659.92808105 1190.06568878 660.59936523 1189.72926331 C669.64015779 1185.20204395 678.7268008 1180.78309782 687.86328125 1176.4519043 C695.83333746 1172.65985745 703.73468992 1168.73561301 711.625 1164.78125 C712.275896 1164.45508194 712.92679199 1164.12891388 713.59741211 1163.79286194 C718.27471824 1161.44811337 722.95006478 1159.09947128 727.625 1156.75 C732.95702205 1154.07029812 738.2898529 1151.39222563 743.625 1148.71875 C744.27654053 1148.39221939 744.92808105 1148.06568878 745.59936523 1147.72926331 C754.64015779 1143.20204395 763.7268008 1138.78309782 772.86328125 1134.4519043 C780.83333746 1130.65985745 788.73468992 1126.73561301 796.625 1122.78125 C797.275896 1122.45508194 797.92679199 1122.12891388 798.59741211 1121.79286194 C803.27471824 1119.44811337 807.95006478 1117.09947128 812.625 1114.75 C817.95702211 1112.0702981 823.2898825 1109.39228476 828.625 1106.71875 C829.27481653 1106.39305023 829.92463306 1106.06735046 830.59414101 1105.73178101 C839.75207448 1101.14535828 848.95760943 1096.67048274 858.21305847 1092.28381348 C865.34511256 1088.89194037 872.40880641 1085.37499973 879.45703125 1081.8125 C880.52581512 1081.27298706 881.594599 1080.73347412 882.69577026 1080.1776123 C887.05698157 1077.97448759 891.41707681 1075.76928983 895.77172852 1073.55322266 C899.01733253 1071.90312563 902.26797105 1070.26332197 905.51953125 1068.625 C906.48945511 1068.12814697 907.45937897 1067.63129395 908.45869446 1067.11938477 C920.02469064 1061.31434357 931.48341111 1057.9287644 944.4921875 1060.90625 C955.52342819 1064.89261735 962.90855202 1072.44661701 967.87890625 1082.8828125 C971.95263327 1092.84712041 971.59320682 1101.41952072 967.8828125 1111.4609375 C962.50131079 1123.3938326 952.22132919 1129.91071135 940.83984375 1135.453125 C939.14076622 1136.29807526 939.14076622 1136.29807526 937.40736389 1137.16009521 C934.4037422 1138.65076942 931.39530037 1140.13067664 928.38397217 1141.60565186 C925.40163207 1143.06998954 922.42690347 1144.54963438 919.45117188 1146.02734375 C908.7790777 1151.315607 898.07493483 1156.53060286 887.31640625 1161.640625 C872.97680262 1168.45657051 858.81050144 1175.62082565 844.625 1182.75 C839.29297795 1185.42970188 833.9601471 1188.10777437 828.625 1190.78125 C827.97345947 1191.10778061 827.32191895 1191.43431122 826.65063477 1191.77073669 C817.60984221 1196.29795605 808.5231992 1200.71690218 799.38671875 1205.0480957 C791.41666254 1208.84014255 783.51531008 1212.76438699 775.625 1216.71875 C774.974104 1217.04491806 774.32320801 1217.37108612 773.65258789 1217.70713806 C768.97528176 1220.05188663 764.29993522 1222.40052872 759.625 1224.75 C754.29297795 1227.42970188 748.9601471 1230.10777437 743.625 1232.78125 C742.97345947 1233.10778061 742.32191895 1233.43431122 741.65063477 1233.77073669 C732.60984221 1238.29795605 723.5231992 1242.71690218 714.38671875 1247.0480957 C706.41666254 1250.84014255 698.51531008 1254.76438699 690.625 1258.71875 C689.974104 1259.04491806 689.32320801 1259.37108612 688.65258789 1259.70713806 C683.97528176 1262.05188663 679.29993522 1264.40052872 674.625 1266.75 C669.29297795 1269.42970188 663.9601471 1272.10777437 658.625 1274.78125 C657.97345947 1275.10778061 657.32191895 1275.43431122 656.65063477 1275.77073669 C647.60984221 1280.29795605 638.5231992 1284.71690218 629.38671875 1289.0480957 C621.41666254 1292.84014255 613.51531008 1296.76438699 605.625 1300.71875 C604.974104 1301.04491806 604.32320801 1301.37108612 603.65258789 1301.70713806 C598.97528176 1304.05188663 594.29993522 1306.40052872 589.625 1308.75 C584.29297795 1311.42970188 578.96014735 1314.10777487 573.625 1316.78125 C572.97321022 1317.10790524 572.32142044 1317.43456047 571.64987946 1317.77111435 C563.52869819 1321.83783124 555.37945121 1325.83642063 547.171875 1329.7265625 C538.12499044 1334.01463736 529.1533491 1338.44441033 520.203125 1342.9296875 C519.20441628 1343.43012196 519.20441628 1343.43012196 518.18553162 1343.9406662 C513.41390982 1346.33256965 508.64427256 1348.72841664 503.875 1351.125 C499.0538309 1353.54752648 494.23193422 1355.96858462 489.40834808 1358.38629532 C487.51611101 1359.33558881 485.6251181 1360.28732607 483.73419189 1361.23922729 C462.49788752 1371.88745456 441.6226054 1377.96121021 418.08203125 1370.4296875 C412.95209168 1368.5182132 407.95030152 1366.32491801 402.9631958 1364.06910706 C394.23954237 1360.1305251 385.33854797 1356.61731833 376.46685791 1353.02880859 C371.14816304 1350.87255591 365.83838224 1348.69455623 360.52734375 1346.51953125 C348.15658347 1341.4590516 335.76862516 1336.44167561 323.375 1331.4375 C321.39485456 1330.63778217 319.41471132 1329.83805889 317.43457031 1329.03833008 C314.54246681 1327.87036578 311.6503388 1326.70246233 308.75814819 1325.53471375 C300.02394132 1322.00804131 291.29204517 1318.47569549 282.5625 1314.9375 C281.83841949 1314.64404694 281.11433899 1314.35059387 280.36831665 1314.04824829 C270.62646421 1310.09917488 260.88998063 1306.13701699 251.15625 1302.16796875 C250.05837158 1301.72030151 248.96049316 1301.27263428 247.8293457 1300.81140137 C246.71390381 1300.35656372 245.59846191 1299.90172607 244.44921875 1299.43310547 C242.15365065 1298.49705849 239.8580777 1297.56102343 237.5625 1296.625 C236.42167969 1296.15982971 235.28085938 1295.69465942 234.10546875 1295.21539307 C211.62009937 1286.04866441 189.10679746 1276.9519185 166.58804321 1267.86758423 C157.47707384 1264.191583 148.36917275 1260.50804368 139.26394653 1256.81784058 C137.75610628 1256.20675713 136.24819639 1255.59584549 134.74020386 1254.98513794 C124.35271474 1250.77809611 113.98420694 1246.52619829 103.625 1242.25 C103.64594727 1243.30799805 103.66689453 1244.36599609 103.68847656 1245.45605469 C103.76168565 1249.43687028 103.80708904 1253.41762831 103.84472656 1257.39892578 C103.86465999 1259.11159317 103.89181705 1260.82419414 103.92675781 1262.53662109 C104.19127545 1275.84808233 103.63119352 1287.62196184 94.61328125 1298.28125 C86.89354588 1305.925153 77.437061 1310.12147577 66.58227539 1310.12597656 C55.37038467 1309.60182365 45.33754171 1304.54755594 35.17529297 1300.18457031 C30.05972245 1297.99665271 24.9084042 1295.89890684 19.75390625 1293.8046875 C18.78374069 1293.41041061 17.81357513 1293.01613373 16.81401062 1292.60990906 C14.78919361 1291.78717009 12.76432585 1290.96455599 10.7394104 1290.14205933 C6.52437176 1288.42722302 2.31307913 1286.7032897 -1.89826965 1284.97941589 C-16.28985158 1279.08904749 -30.7035948 1273.25441251 -45.125 1267.4375 C-47.32950859 1266.54817739 -49.53401705 1265.65885448 -51.73852539 1264.76953125 C-54.95046389 1263.4738342 -58.16240934 1262.17815446 -61.37440491 1260.88259888 C-70.85785942 1257.05680667 -80.33637693 1253.21891074 -89.8125 1249.375 C-90.55012573 1249.07580658 -91.28775146 1248.77661316 -92.04772949 1248.46835327 C-95.69580862 1246.98856213 -99.34378232 1245.50851133 -102.99169922 1244.02832031 C-109.06692304 1241.56336248 -115.14296913 1239.10043329 -121.21899414 1236.63745117 C-124.30811806 1235.38524139 -127.39714443 1234.13279145 -130.48608398 1232.88012695 C-138.29147292 1229.7149583 -146.09791627 1226.55242879 -153.90625 1223.39453125 C-160.8708122 1220.57772223 -167.83281124 1217.75467564 -174.79194641 1214.92448425 C-178.4095361 1213.45347527 -182.02819355 1211.98525565 -185.64990234 1210.52441406 C-189.00320011 1209.17177707 -192.35321594 1207.81131681 -195.70092773 1206.44491577 C-197.48781792 1205.71788581 -199.27802356 1204.99902073 -201.06835938 1204.28051758 C-214.63920464 1198.71973673 -224.45297416 1193.03009858 -230.375 1179.25 C-230.7875 1178.321875 -231.2 1177.39375 -231.625 1176.4375 C-233.00761 1170.5614075 -233.07586701 1164.67780332 -231.3984375 1158.8671875 C-229.66345398 1152.32846837 -229.90158775 1145.4735485 -229.75 1138.75 C-229.71174703 1137.34112362 -229.67269125 1135.9322688 -229.6328125 1134.5234375 C-229.53899467 1131.09908673 -229.45329784 1127.67473492 -229.375 1124.25 C-229.91134567 1124.07902802 -230.44769135 1123.90805603 -231.00028992 1123.73190308 C-236.82574957 1121.83744401 -242.48429569 1119.65819554 -248.14453125 1117.3203125 C-249.54431717 1116.74658653 -249.54431717 1116.74658653 -250.97238159 1116.16127014 C-252.98919597 1115.33442406 -255.00549671 1114.50632425 -257.02133179 1113.67709351 C-262.50363303 1111.4224853 -267.99036846 1109.17870892 -273.4765625 1106.93359375 C-274.61729721 1106.46651505 -275.75803192 1105.99943634 -276.93333435 1105.51820374 C-289.29642589 1100.45841549 -301.67637109 1095.44059355 -314.0625 1090.4375 C-315.15133484 1089.99755707 -316.24016968 1089.55761414 -317.36199951 1089.1043396 C-332.2648153 1083.08574029 -347.19586508 1077.14363014 -362.15524292 1071.26721191 C-375.75028185 1065.9240626 -389.25605467 1060.39052207 -402.73730469 1054.765625 C-409.23546355 1052.05820418 -415.74167854 1049.37038575 -422.25 1046.6875 C-423.28429138 1046.26100662 -423.28429138 1046.26100662 -424.33947754 1045.82589722 C-436.48191632 1040.82216996 -448.65406622 1035.89313973 -460.83276367 1030.97842407 C-463.86112821 1029.75560129 -466.88870793 1028.53085656 -469.91601562 1027.30541992 C-471.90493719 1026.50046179 -473.8938694 1025.69552994 -475.8828125 1024.890625 C-476.85595398 1024.49676102 -477.82909546 1024.10289703 -478.83172607 1023.69709778 C-484.27002296 1021.49821045 -489.71403942 1019.31462425 -495.16534424 1017.14819336 C-498.3049111 1015.89802504 -501.43991564 1014.63670639 -504.57397461 1013.37280273 C-505.99879941 1012.80130619 -507.42566299 1012.23486047 -508.85473633 1011.67407227 C-521.98226678 1006.51936548 -532.5772185 1000.16546558 -538.51248455 986.87362957 C-541.03983101 980.33316677 -540.92118577 974.02005509 -540.86274719 967.08442688 C-540.86521455 965.66185775 -540.86943803 964.23929079 -540.87524784 962.81673139 C-540.88610267 958.91738984 -540.87209562 955.01847858 -540.85393022 951.11917895 C-540.8386067 946.88218014 -540.84654631 942.64521409 -540.85151386 938.40819931 C-540.85698069 931.00471043 -540.84757659 923.60135727 -540.82829666 916.19789314 C-540.79981939 905.25394563 -540.79399905 894.31006959 -540.79278979 883.36608934 C-540.78988022 863.98133691 -540.76415155 844.59666624 -540.72854373 825.21194928 C-540.69763267 808.35146715 -540.67452041 791.49099661 -540.65908813 774.63049316 C-540.65805611 773.51607465 -540.65702408 772.40165614 -540.65596078 771.25346737 C-540.65178375 766.73940091 -540.64763105 762.22533443 -540.64352064 757.71126791 C-540.60360633 714.11074997 -540.53622474 670.51030951 -540.45429582 626.90985208 C-540.44363994 621.23638993 -540.43303693 615.56292768 -540.42248535 609.88946533 C-540.42041143 608.77478473 -540.41833751 607.66010413 -540.41620075 606.51164533 C-540.37291223 583.11649082 -540.34128778 559.72132592 -540.31148557 536.32615097 C-540.26664307 501.20499067 -540.20992449 466.08387919 -540.13125515 430.96277714 C-540.12929129 430.08567169 -540.12732743 429.20856625 -540.12530406 428.30488185 C-540.11741913 424.78749974 -540.10953275 421.27011763 -540.10156874 417.7527357 C-540.07408621 405.57813952 -540.05202633 393.40354478 -540.03381053 381.22893139 C-540.01049722 365.6649753 -539.97750463 350.1010925 -539.92680001 334.53719968 C-539.90055167 326.40158927 -539.88216684 318.26605675 -539.87556461 310.13040611 C-539.86973601 304.10475833 -539.84832966 298.07927349 -539.82070482 292.05368173 C-539.81195383 289.62424841 -539.80821998 287.19479079 -539.8099972 284.76534235 C-539.81164782 281.4716178 -539.79498751 278.1784716 -539.77372742 274.88482666 C-539.77857489 273.94428277 -539.78342237 273.00373888 -539.78841674 272.03469366 C-539.66447509 260.42587733 -535.82206219 249.98326355 -527.703125 241.50390625 C-523.62229696 238.1724338 -518.90425099 235.9501626 -514.20336914 233.63208008 C-512.76190901 232.91635824 -511.3205153 232.20050262 -509.87918091 231.48452759 C-508.76309889 230.93132528 -508.76309889 230.93132528 -507.62446976 230.36694717 C-503.99907113 228.56679906 -500.38148052 226.75113354 -496.76342773 224.9362793 C-495.26228019 224.18398165 -493.76109433 223.43176048 -492.25987244 222.67961121 C-491.49465712 222.29619253 -490.7294418 221.91277386 -489.94103813 221.51773643 C-484.87548402 218.9800787 -479.80912073 216.44403673 -474.74276638 213.9079771 C-470.34677318 211.70737993 -465.95115798 209.50603461 -461.55639648 207.30297852 C-427.76117788 190.36289751 -427.76117788 190.36289751 -412.70640564 183.23832703 C-404.87777715 179.52168364 -397.12222509 175.66374182 -389.375 171.78125 C-388.72333925 171.4547024 -388.0716785 171.12815479 -387.40027046 170.79171181 C-382.7237365 168.44734728 -378.04916466 166.09908402 -373.375 163.75 C-368.04297795 161.07029812 -362.7101471 158.39222563 -357.375 155.71875 C-356.72345947 155.39221939 -356.07191895 155.06568878 -355.40063477 154.72926331 C-346.35984221 150.20204395 -337.2731992 145.78309782 -328.13671875 141.4519043 C-320.16666254 137.65985745 -312.26531008 133.73561301 -304.375 129.78125 C-303.724104 129.45508194 -303.07320801 129.12891388 -302.40258789 128.79286194 C-297.72528176 126.44811337 -293.04993522 124.09947128 -288.375 121.75 C-283.04297795 119.07029812 -277.7101471 116.39222563 -272.375 113.71875 C-271.72345947 113.39221939 -271.07191895 113.06568878 -270.40063477 112.72926331 C-261.35984221 108.20204395 -252.2731992 103.78309782 -243.13671875 99.4519043 C-235.16666254 95.65985745 -227.26531008 91.73561301 -219.375 87.78125 C-218.724104 87.45508194 -218.07320801 87.12891388 -217.40258789 86.79286194 C-212.72528176 84.44811337 -208.04993522 82.09947128 -203.375 79.75 C-198.04297795 77.07029812 -192.7101471 74.39222563 -187.375 71.71875 C-186.72345947 71.39221939 -186.07191895 71.06568878 -185.40063477 70.72926331 C-176.35984221 66.20204395 -167.2731992 61.78309782 -158.13671875 57.4519043 C-150.16666254 53.65985745 -142.26531008 49.73561301 -134.375 45.78125 C-133.724104 45.45508194 -133.07320801 45.12891388 -132.40258789 44.79286194 C-127.72528176 42.44811337 -123.04993522 40.09947128 -118.375 37.75 C-113.04297788 35.07029809 -107.71011132 32.39229711 -102.375 29.71875 C-101.73133169 29.39612434 -101.08766338 29.07349869 -100.42448997 28.7410965 C-90.87134731 23.95665882 -81.27540976 19.27142286 -71.61730957 14.70153809 C-61.77204056 10.04302681 -52.43936107 5.14717643 -43.5859375 -1.2421875 C-29.28307238 -10.99643827 -14.60621163 -5.82944524 0 0 Z " fill="#53FE71" transform="translate(1285.375,816.75)"/>
<path d="M0 0 C3.89125419 1.7594725 7.86399039 3.30338635 11.83387756 4.87545776 C15.33534893 6.26318415 18.82804129 7.67116361 22.31900024 9.08511353 C24.12965973 9.81832321 24.12965973 9.81832321 25.97689819 10.56634521 C26.89624271 10.93873762 26.89624271 10.93873762 27.83415985 11.31865311 C31.02023182 12.60868082 34.20728033 13.89629188 37.39419556 15.18423462 C52.12506574 21.13874477 66.84982178 27.10835439 81.57138062 33.08584595 C98.19662589 39.83552641 114.85786391 46.49497463 131.52456665 53.14151001 C128.59554461 55.46803784 125.63899738 57.20835422 122.29483032 58.87783813 C121.24820724 59.40268799 120.20158417 59.92753784 119.12324524 60.46829224 C117.99111099 61.0307666 116.85897675 61.59324097 115.6925354 62.17276001 C114.49767145 62.769594 113.30295692 63.36672721 112.10838318 63.96414185 C109.59363611 65.22073308 107.07757115 66.47463159 104.56045532 67.72647095 C101.40763896 69.29455101 98.25736266 70.86764734 95.10798454 72.44261932 C83.49580419 78.24842831 71.86783406 84.01378955 60.1378479 89.57901001 C51.21236534 93.81550504 42.35704888 98.18412464 33.52456665 102.61026001 C32.87383493 102.93633743 32.22310322 103.26241486 31.55265236 103.59837341 C26.87517961 105.9432121 22.19967104 108.29195371 17.52456665 110.64151001 C12.1925446 113.32121189 6.85971375 115.99928438 1.52456665 118.67276001 C0.87302612 118.99929062 0.2214856 119.32582123 -0.44979858 119.6622467 C-9.49059114 124.18946606 -18.57723415 128.60841219 -27.7137146 132.93960571 C-35.68377081 136.73165256 -43.58512327 140.655897 -51.47543335 144.61026001 C-52.12632935 144.93642807 -52.77722534 145.26259613 -53.44784546 145.59864807 C-58.12515159 147.94339664 -62.80049813 150.29203873 -67.47543335 152.64151001 C-72.8074554 155.32121189 -78.14028625 157.99928438 -83.47543335 160.67276001 C-84.12697388 160.99929062 -84.7785144 161.32582123 -85.44979858 161.6622467 C-94.49059114 166.18946606 -103.57723415 170.60841219 -112.7137146 174.93960571 C-120.68377081 178.73165256 -128.58512327 182.655897 -136.47543335 186.61026001 C-137.12632935 186.93642807 -137.77722534 187.26259613 -138.44784546 187.59864807 C-143.12515159 189.94339664 -147.80049813 192.29203873 -152.47543335 194.64151001 C-157.8074554 197.32121189 -163.14028625 199.99928438 -168.47543335 202.67276001 C-169.12697388 202.99929062 -169.7785144 203.32582123 -170.44979858 203.6622467 C-179.49059114 208.18946606 -188.57723415 212.60841219 -197.7137146 216.93960571 C-205.68377081 220.73165256 -213.58512327 224.655897 -221.47543335 228.61026001 C-222.12632935 228.93642807 -222.77722534 229.26259613 -223.44784546 229.59864807 C-228.12515159 231.94339664 -232.80049813 234.29203873 -237.47543335 236.64151001 C-242.15232617 238.99196511 -246.82975485 241.34133893 -251.50906372 243.6869812 C-252.81542231 244.34188382 -254.12161658 244.9971143 -255.42764282 245.65267944 C-264.91234162 250.41103463 -274.44222666 255.05964375 -284.08480835 259.49221802 C-296.00821082 265.06828869 -305.57895672 271.56567955 -310.74887085 284.06338501 C-312.11124688 287.96007343 -312.60032047 291.32011804 -312.59963185 295.46015 C-312.60187914 296.54706891 -312.60412643 297.63398782 -312.60644183 298.75384367 C-312.60250131 300.54778324 -312.60250131 300.54778324 -312.59848118 302.37796402 C-312.60021194 304.2893726 -312.60021194 304.2893726 -312.60197768 306.2393955 C-312.60505514 309.79456004 -312.60186459 313.34969612 -312.59769954 316.90485855 C-312.59427281 320.76566066 -312.59663471 324.62645981 -312.59827703 328.48726249 C-312.60035376 335.2597255 -312.59870191 342.03217973 -312.59463882 348.80464172 C-312.58861388 358.8751095 -312.58830208 368.94557173 -312.58918081 379.01604098 C-312.59049604 395.95461707 -312.58714828 412.89318927 -312.58116341 429.83176422 C-312.57525089 446.60847238 -312.57139837 463.38517893 -312.57031059 480.16188812 C-312.57024185 481.20414594 -312.57017311 482.24640376 -312.57010229 483.32024515 C-312.56976397 488.61312309 -312.56946258 493.90600103 -312.56917541 499.19887897 C-312.56707376 536.71003053 -312.56033293 574.22117996 -312.5508728 611.73233032 C-312.54169174 648.17894479 -312.53460647 684.62555868 -312.53036499 721.07217407 C-312.5301677 722.75667998 -312.5301677 722.75667998 -312.52996643 724.47521632 C-312.52864793 735.75265458 -312.52737211 747.03009284 -312.52612757 758.30753111 C-312.5235912 781.28195558 -312.52076995 804.25638002 -312.51777649 827.23080444 C-312.5176392 828.28718295 -312.51750191 829.34356146 -312.51736046 830.43195144 C-312.50815634 901.00180518 -312.49231074 971.57165774 -312.47543335 1042.14151001 C-316.2067578 1041.43496696 -319.53129176 1040.45372321 -323.06918335 1039.05947876 C-324.16569214 1038.62877075 -325.26220093 1038.19806274 -326.39193726 1037.75430298 C-328.16576782 1037.04878296 -328.16576782 1037.04878296 -329.97543335 1036.32901001 C-331.23631135 1035.83040671 -332.49721685 1035.33187294 -333.75814819 1034.83340454 C-343.42843092 1030.99984287 -353.04385621 1027.0378604 -362.64730835 1023.03994751 C-373.39607128 1018.56860095 -384.1818449 1014.19090372 -394.97543335 1009.82901001 C-395.86985138 1009.46750854 -396.76426941 1009.10600708 -397.68579102 1008.73355103 C-401.30451374 1007.27108606 -404.92333614 1005.80886829 -408.54234314 1004.34710693 C-416.70226173 1001.05101686 -424.85865583 997.74627253 -433.01394653 994.43875122 C-435.27725448 993.52084095 -437.5406394 992.60312074 -439.80404663 991.68545532 C-446.85405115 988.82704889 -453.90373927 985.9678636 -460.95307922 983.1078186 C-464.28453925 981.75624724 -467.61610979 980.40494841 -470.94769287 979.05368042 C-472.51547732 978.41770948 -474.08320849 977.78160718 -475.65087891 977.14535522 C-477.83965819 976.25702233 -480.02862325 975.36914852 -482.21762085 974.48135376 C-482.83194473 974.23188492 -483.44626862 973.98241608 -484.07920837 973.72538757 C-491.20103891 970.83809038 -498.33995364 967.99570189 -505.47543335 965.14151001 C-505.47543335 725.23151001 -505.47543335 485.32151001 -505.47543335 238.14151001 C-488.64543335 229.89151001 -471.81543335 221.64151001 -454.47543335 213.14151001 C-445.21758399 208.53119407 -435.96279676 203.91730837 -426.72543335 199.26651001 C-414.99527496 193.36262595 -403.26205518 187.48203069 -391.39730835 181.85244751 C-382.36910287 177.56606989 -373.40981823 173.15041487 -364.47543335 168.67276001 C-363.82514915 168.34689785 -363.17486496 168.02103569 -362.50487518 167.68529892 C-357.82695114 165.34024122 -353.15098591 162.99129155 -348.47543335 160.64151001 C-343.1434113 157.96180813 -337.81058045 155.28373564 -332.47543335 152.61026001 C-331.82389282 152.2837294 -331.17235229 151.95719879 -330.50106812 151.62077332 C-321.46027556 147.09355396 -312.37363255 142.67460783 -303.2371521 138.34341431 C-295.26709589 134.55136746 -287.36574343 130.62712302 -279.47543335 126.67276001 C-278.82453735 126.34659195 -278.17364136 126.02042389 -277.50302124 125.68437195 C-272.82571511 123.33962338 -268.15036857 120.99098129 -263.47543335 118.64151001 C-258.1434113 115.96180813 -252.81058045 113.28373564 -247.47543335 110.61026001 C-246.82389282 110.2837294 -246.17235229 109.95719879 -245.50106812 109.62077332 C-236.46027556 105.09355396 -227.37363255 100.67460783 -218.2371521 96.34341431 C-210.26709589 92.55136746 -202.36574343 88.62712302 -194.47543335 84.67276001 C-193.82453735 84.34659195 -193.17364136 84.02042389 -192.50302124 83.68437195 C-187.82571511 81.33962338 -183.15036857 78.99098129 -178.47543335 76.64151001 C-173.1434113 73.96180813 -167.81058045 71.28373564 -162.47543335 68.61026001 C-161.82389282 68.2837294 -161.17235229 67.95719879 -160.50106812 67.62077332 C-151.46027556 63.09355396 -142.37363255 58.67460783 -133.2371521 54.34341431 C-125.26709589 50.55136746 -117.36574343 46.62712302 -109.47543335 42.67276001 C-108.82453735 42.34659195 -108.17364136 42.02042389 -107.50302124 41.68437195 C-102.82571511 39.33962338 -98.15036857 36.99098129 -93.47543335 34.64151001 C-88.14341085 31.96180791 -82.81032317 29.28424952 -77.47543335 26.61026001 C-76.82972948 26.28636732 -76.18402561 25.96247463 -75.51875496 25.62876701 C-66.0836189 20.89911829 -56.58752929 16.3121558 -47.0428009 11.80741882 C-41.94414322 9.38262471 -36.99707182 6.83014025 -32.1043396 4.01260376 C-30.56423218 3.14538696 -30.56423218 3.14538696 -28.99301147 2.26065063 C-26.97339372 1.11135064 -24.97639859 -0.07839062 -23.00082397 -1.30184937 C-14.17223767 -6.12709951 -8.60142645 -4.00775036 0 0 Z " fill="#000000" transform="translate(1629.4754333496094,993.8584899902344)"/>
</svg>
