<svg xmlns="http://www.w3.org/2000/svg" width="3000" height="3000"><path d="M0 0h3000v3000H0V0z"/><path d="M0 0h3000v3000H0V0zm1261.257 300.327c-3.547.733-7.1 1.427-10.655 2.118-17.263 3.385-34.349 7.349-51.415 11.618l-3.031.755A1075.581 1075.581 0 0 0 1155 326l-3.219.935c-50.407 14.756-100.67 32.699-148.293 54.908a1427.237 1427.237 0 0 1-8.582 3.946c-20.673 9.466-41.292 19.041-61.318 29.821a1906.424 1906.424 0 0 1-8.697 4.632A1044.615 1044.615 0 0 0 881 445l-3.239 1.916c-18.471 10.942-36.37 22.643-54.16 34.657a1639.128 1639.128 0 0 1-10.066 6.728 568.011 568.011 0 0 0-13.597 9.324l-2.145 1.518c-22.258 15.815-44.082 32.328-65.16 49.689a955.958 955.958 0 0 1-5.266 4.305 722.834 722.834 0 0 0-30.148 25.86 398.343 398.343 0 0 1-6.094 5.378c-4.399 3.833-8.69 7.782-12.98 11.734a965.77 965.77 0 0 1-6.196 5.657c-5.019 4.551-9.937 9.163-14.699 13.984-2.96 2.993-5.917 5.9-9.125 8.625-7.959 6.81-15.355 14.415-22.121 22.402-2.881 3.196-5.947 6.197-9.004 9.223-4.216 4.177-8.336 8.357-12.172 12.89-1.99 2.297-4.05 4.513-6.125 6.733a294.021 294.021 0 0 0-14.492 16.697c-2.32 2.813-4.742 5.498-7.211 8.18-4.414 4.806-8.564 9.771-12.659 14.85a725.361 725.361 0 0 1-4.665 5.666c-6.562 7.911-13.015 15.87-19.22 24.067a1568.133 1568.133 0 0 1-5.17 6.757C526.656 763.088 518.19 774.43 510 786l-1.842 2.599a1205.805 1205.805 0 0 0-90.201 149.52 5043.17 5043.17 0 0 1-3.013 5.91C383.606 1005.517 358.018 1069.954 338 1136l-.812 2.67c-11.125 36.8-19.675 74.075-27.438 111.705l-.488 2.358c-4.173 20.243-7.807 40.54-10.637 61.017l-.445 3.207c-2.593 18.915-4.573 37.869-6.301 56.88l-.564 6.15c-3.058 33.568-4.65 66.957-4.51 100.664.01 3.32.01 6.642.01 9.963 0 18.818.275 37.586 1.185 56.386l.173 4.03c1.874 42.033 6.499 84.217 13.449 125.704.386 2.314.766 4.63 1.144 6.945 2.814 17.197 5.875 34.316 9.59 51.344a1077.9 1077.9 0 0 1 2.007 9.543c5.18 24.894 11.178 49.593 18.572 73.927a2115.75 2115.75 0 0 1 2.314 7.67c7.642 25.491 15.907 50.738 24.751 75.837l1.22 3.465c21.383 60.137 49.276 119.252 81.07 174.555a2687.08 2687.08 0 0 1 5.335 9.355A1014.953 1014.953 0 0 0 474 2133l1.679 2.63c19.426 30.36 40.146 59.952 62.321 88.37l1.282 1.648c9.696 12.459 19.593 24.755 29.835 36.768a481.381 481.381 0 0 1 8.383 10.146c4.128 5.076 8.503 9.878 12.95 14.672a273.957 273.957 0 0 1 5.987 6.704c3.95 4.548 8.044 8.963 12.144 13.376a1682.37 1682.37 0 0 1 6.411 6.942c9.186 9.962 18.694 19.584 28.287 29.154 2.617 2.61 5.228 5.227 7.838 7.844l5.063 5.059 2.327 2.333a241.67 241.67 0 0 0 12.765 11.86c2.003 1.732 3.932 3.528 5.841 5.361l2.076 1.98c.7.67 1.401 1.338 2.124 2.028 5.53 5.247 11.112 10.247 17.082 14.988 2.972 2.438 5.793 5.02 8.605 7.637a259.901 259.901 0 0 0 13.91 12.004 604.91 604.91 0 0 1 6.961 5.71 716.304 716.304 0 0 0 25.813 20.5c3.715 2.816 7.385 5.686 11.049 8.568 8.554 6.719 17.293 13.093 26.228 19.294a494.61 494.61 0 0 1 5.723 4.065A1068.914 1068.914 0 0 0 862 2516l2.299 1.408A1293.752 1293.752 0 0 0 934 2557l3.383 1.795c44.86 23.754 91.68 45.46 139.765 61.873 3.343 1.142 6.646 2.373 9.95 3.622 10.256 3.865 20.633 7.361 31.027 10.835l2.292.77A753.844 753.844 0 0 0 1153 2646l2.096.6c32.409 9.253 64.881 17.425 97.941 23.998 4.814.96 9.618 1.96 14.418 2.986 7.825 1.67 15.635 3.196 23.545 4.416l4.42.709c23.856 3.815 47.744 7.038 71.767 9.604l3.448.371A1115.895 1115.895 0 0 0 1422 2693l2.896.178c21.048 1.226 42.16 1.01 63.236 1.007 4.26 0 8.52.007 12.78.02 36.75.117 73.25-.894 109.838-4.517l3.342-.323c24.441-2.36 48.778-5.436 72.967-9.69 3.209-.55 6.416-1.047 9.636-1.527 9.282-1.42 18.511-3.124 27.743-4.836l2.869-.531c15.506-2.887 30.855-6.155 46.173-9.922 3.648-.89 7.301-1.75 10.957-2.605 15.35-3.604 30.483-7.656 45.563-12.254 1.451-.44 2.902-.879 4.354-1.317 49.553-14.999 98.208-31.869 145.646-52.683l2.169-.95c33.87-14.863 67.545-30.947 99.456-49.676 4.142-2.395 8.357-4.655 12.563-6.936 10.113-5.528 19.99-11.41 29.812-17.438l2.78-1.702c23.277-14.291 45.972-29.454 68.22-45.298l2.257-1.602c25.862-18.389 51.013-37.924 75.161-58.517a456.556 456.556 0 0 1 10.082-8.318c5.383-4.378 10.443-9.059 15.512-13.79a244.603 244.603 0 0 1 6.988-6.273c5.172-4.484 10.175-9.15 15.184-13.813 1.776-1.65 3.56-3.29 5.343-4.93 10.105-9.344 19.858-19.035 29.598-28.757l2.069-2.06c9.532-9.463 9.532-9.463 18.52-19.436 1.661-1.943 3.448-3.73 5.286-5.504 3.17-3.128 6.126-6.369 9.027-9.746 1.938-2.214 3.924-4.376 5.925-6.533a302.426 302.426 0 0 0 13.868-16.073c2.158-2.62 4.393-5.14 6.68-7.648 4.705-5.175 9.106-10.56 13.5-16l3.105-3.797c6.264-7.658 12.424-15.373 18.41-23.252 1.763-2.316 3.536-4.626 5.31-6.935 7.145-9.323 14.22-18.675 20.962-28.294a722.89 722.89 0 0 1 3.854-5.406c19.528-27.282 37.906-55.556 54.753-84.564a1040.83 1040.83 0 0 1 4.926-8.334c23.483-39.546 44.68-81.1 62.68-123.418l.908-2.13c7.346-17.269 14.625-34.57 21.098-52.188a904.55 904.55 0 0 1 3.353-8.858c6.142-16.217 11.597-32.625 16.891-49.137l1.012-3.145c6.428-20.016 12.187-40.21 17.441-60.565.92-3.556 1.874-7.1 2.844-10.641 12.009-44.353 20.002-89.958 25.946-135.491.44-3.34.9-6.675 1.374-10.01 2.086-14.875 3.388-29.812 4.626-44.778.334-4.037.69-8.07 1.07-12.104 5.118-55.72 5.805-113.15 1.437-168.953l-.273-3.527c-2.933-37.689-6.69-75.137-12.727-112.473l-.448-2.793a1244.567 1244.567 0 0 0-17.615-88.957l-.63-2.68c-2.443-10.363-5.12-20.604-8.189-30.8-1.47-4.954-2.74-9.946-3.993-14.957-2.935-11.428-6.421-22.614-10.125-33.813l-1.37-4.168c-8.06-24.529-8.06-24.529-16.866-48.797a364.158 364.158 0 0 1-2.248-6.191c-9.188-25.767-20.154-50.974-31.516-75.844-.54-1.185-1.082-2.37-1.64-3.59-12.18-26.619-25.072-52.852-39.36-78.41l-3.035-5.48c-7.985-14.34-16.452-28.366-25.029-42.356-1.713-2.8-3.416-5.604-5.112-8.414a597.206 597.206 0 0 0-16.69-26.07c-1.707-2.528-3.387-5.074-5.072-7.617-23.669-35.457-49.348-69.751-76.976-102.225a520.956 520.956 0 0 1-8.586-10.4c-4.127-5.074-8.501-9.875-12.945-14.668a286.233 286.233 0 0 1-6.055-6.77c-3.737-4.306-7.592-8.501-11.458-12.69a692.105 692.105 0 0 1-5.417-5.948c-9.564-10.546-19.67-20.56-29.744-30.612a4976.773 4976.773 0 0 1-7.853-7.856c-2.043-2.047-4.09-4.092-6.136-6.136a4230.604 4230.604 0 0 1-4.28-4.285c-4.526-4.51-9.105-8.886-13.954-13.048-1.905-1.637-3.738-3.337-5.553-5.073l-1.938-1.843-1.98-1.884c-5.376-5.082-10.826-9.909-16.613-14.52-2.784-2.277-5.428-4.668-8.074-7.105-4.812-4.419-9.783-8.572-14.867-12.672a621.057 621.057 0 0 1-5.508-4.547 717.453 717.453 0 0 0-25.809-20.496c-3.715-2.815-7.385-5.685-11.049-8.567-8.546-6.712-17.275-13.082-26.202-19.277a589.316 589.316 0 0 1-5.96-4.222C2143.963 464.053 2091.711 433.598 2038 406l-2.808-1.447c-48.93-25.137-100.043-45.585-152.12-63.151a1033.923 1033.923 0 0 1-16.853-5.87c-12.571-4.481-25.329-8.09-38.219-11.532l-3.802-1.017a5065.296 5065.296 0 0 0-15.571-4.143c-5.9-1.56-11.777-3.164-17.635-4.871-7.007-2.015-14.064-3.696-21.18-5.281l-1.975-.443c-16.553-3.705-33.18-7.044-49.837-10.245-1.218-.235-2.435-.47-3.69-.71-17.736-3.383-35.556-5.992-53.45-8.369a1086.71 1086.71 0 0 1-11.919-1.646c-14.505-2.073-29.033-3.566-43.629-4.837l-3.741-.327c-93.002-8.005-186.724-5.316-340.314 18.216z" fill="#FEFEFE"/><path d="M1285.375 816.75l3.676 1.455c11.094 4.404 22.125 8.96 33.154 13.524a2330.58 2330.58 0 0 0 28.232 11.458c10.31 4.108 20.6 8.257 30.874 12.452a12352.57 12352.57 0 0 0 27.189 11.06c2.417.98 4.833 1.963 7.25 2.947 6.56 2.667 13.118 5.327 19.738 7.842 16.288 6.201 16.288 6.201 22.512 12.512l1.715 1.676c7.547 8.027 9.694 17.624 9.562 28.386-.803 8.508-4.597 15.687-10.277 21.938l-1.672 1.871c-6.62 6.578-16.09 10.236-25.39 10.692-12.152-.954-23.91-6.846-35.034-11.47-3.85-1.6-7.706-3.188-11.561-4.776l-6.088-2.51c-11.042-4.553-22.116-9.026-33.193-13.494a124720.503 124720.503 0 0 1-14.647-5.914 9102.118 9102.118 0 0 1-21.396-8.664 1512.036 1512.036 0 0 0-11.811-4.753c-7.037-2.802-13.904-5.645-20.569-9.274-7.546-3.499-7.546-3.499-15.522-2.665a121.09 121.09 0 0 0-4.25 2.09l-2.507 1.207c-3.136 1.523-6.247 3.092-9.36 4.66a3879.658 3879.658 0 0 1-6.282 3.107c-9.992 4.937-19.952 9.939-29.908 14.949-7.732 3.89-15.468 7.774-23.205 11.655l-2.516 1.263c-10.2 5.116-20.429 10.155-30.745 15.035-7.833 3.716-15.593 7.575-23.344 11.46l-1.975.99A15534.54 15534.54 0 0 0 1114 964.5c-5.332 2.68-10.665 5.358-16 8.031l-1.974.99a1405.31 1405.31 0 0 1-27.264 13.277c-7.97 3.792-15.872 7.716-23.762 11.67l-1.972.99c-4.678 2.344-9.353 4.693-14.028 7.042-5.332 2.68-10.665 5.358-16 8.031l-1.974.99a1405.31 1405.31 0 0 1-27.264 13.277c-7.97 3.792-15.872 7.716-23.762 11.67l-1.972.99c-4.678 2.344-9.353 4.693-14.028 7.042-5.332 2.68-10.665 5.358-16 8.031l-1.952.978a1566.704 1566.704 0 0 1-31.295 15.22c-5.489 2.605-10.903 5.345-16.304 8.126C876 1082 876 1082 874 1082v2l1.93.287c4.224.98 8.15 2.547 12.187 4.115l2.751 1.058c3.004 1.155 6.005 2.316 9.007 3.477l6.35 2.446c4.405 1.694 8.808 3.391 13.21 5.089a7371.75 7371.75 0 0 0 18.585 7.13l2.93 1.12 5.825 2.227a13564.801 13564.801 0 0 1 47.912 18.426 34860.816 34860.816 0 0 0 53.175 20.523c6.1 2.352 12.205 4.69 18.315 7.017a856.353 856.353 0 0 1 8.323 3.26l5.09 1.973 2.284.929 2.145.819 1.83.724c6.283 1.11 11.51-1.447 16.924-4.23l2.256-1.13c2.454-1.231 4.9-2.476 7.346-3.72a4823.769 4823.769 0 0 0 18.85-9.509c7.209-3.65 14.426-7.282 21.643-10.916l5.274-2.658c10.483-5.287 20.99-10.502 31.606-15.516 7.805-3.697 15.532-7.54 23.252-11.41l1.975-.99A15516.7 15516.7 0 0 0 1229 1097.5c5.332-2.68 10.665-5.358 16-8.031l1.974-.99a1405.31 1405.31 0 0 1 27.264-13.277c7.97-3.792 15.872-7.716 23.762-11.67l1.972-.99c4.678-2.344 9.353-4.693 14.028-7.042 5.332-2.68 10.665-5.358 16-8.031l1.975-.99c8.116-4.064 16.26-8.06 24.462-11.948 9.058-4.293 18.04-8.728 27-13.218l2.04-1.022c4.842-2.428 9.683-4.859 14.523-7.291 5.52-2.773 11.04-5.545 16.562-8.313l2.041-1.022a1422.58 1422.58 0 0 1 27.686-13.489c7.954-3.783 15.838-7.699 23.711-11.645l1.973-.988c4.677-2.345 9.352-4.694 14.027-7.043a15475.649 15475.649 0 0 1 17.973-9.02 1392.5 1392.5 0 0 1 27.343-13.31c7.812-3.717 15.544-7.584 23.266-11.482l3.776-1.904a6272.91 6272.91 0 0 0 15.37-7.772c3.194-1.621 6.392-3.234 9.592-4.842 1.768-.891 3.53-1.79 5.294-2.69 16.568-8.312 28.664-8.86 46.386-3.48 4.529 1.56 8.933 3.424 13.333 5.312 2.89 1.24 5.792 2.452 8.692 3.667 1.56.654 3.118 1.31 4.677 1.966 8.449 3.555 16.946 6.99 25.447 10.418 3.57 1.44 7.14 2.883 10.71 4.326 1.778.72 3.557 1.438 5.336 2.157a21382.546 21382.546 0 0 1 31.183 12.63l9.078 3.681c6.908 2.802 13.817 5.603 20.726 8.403l11.568 4.69 4.625 1.875 9.25 3.75a302302100.377 302302100.377 0 0 0 40.004 16.22 197635.682 197635.682 0 0 0 19.446 7.886l4.244 1.724c3.8 1.543 7.614 3.045 11.439 4.525 9.987 4 16.668 11.43 21.34 21.024 3.987 10.367 2.11 20.74-2.098 30.746-6.163 11.327-15.39 16.5-26.62 22.202a843.844 843.844 0 0 0-5.265 2.704c-7.811 4.018-15.715 7.83-23.642 11.614a1665.502 1665.502 0 0 0-28.668 14.046l-1.967.986c-4.656 2.334-9.31 4.672-13.963 7.01-5.314 2.671-10.628 5.34-15.945 8.004l-1.966.985a1261.74 1261.74 0 0 1-24.456 11.945c-8.892 4.215-17.711 8.564-26.508 12.973l-1.972.988c-4.678 2.345-9.353 4.694-14.028 7.043-5.332 2.68-10.665 5.358-16 8.031l-1.974.99a1405.31 1405.31 0 0 1-27.264 13.277c-7.97 3.792-15.872 7.716-23.762 11.67l-1.972.99c-4.678 2.344-9.353 4.693-14.028 7.042-5.332 2.68-10.665 5.358-16 8.031l-1.974.99a1405.31 1405.31 0 0 1-27.264 13.277c-7.97 3.792-15.872 7.716-23.762 11.67l-1.972.99c-4.678 2.344-9.353 4.693-14.028 7.042-5.332 2.68-10.665 5.358-16 8.031l-1.967.986a1452.153 1452.153 0 0 1-27.794 13.542c-10.576 5.028-21.03 10.3-31.489 15.566a15831.6 15831.6 0 0 1-11.64 5.852l-2.652 1.338-2.443 1.227-2.139 1.077C1431 1294 1431 1294 1428 1295a24747.22 24747.22 0 0 0 69.413 25.763 22102.097 22102.097 0 0 1 44.689 16.559l2.066.768 2.029.754c6.432 2.39 12.867 4.774 19.303 7.156a29692.56 29692.56 0 0 1 39.52 14.664l2.271.844c5.01 1.862 10.022 3.72 15.033 5.578a15044.23 15044.23 0 0 1 60.183 22.474c1.91.717 3.821 1.432 5.733 2.145a935.245 935.245 0 0 1 15.344 5.879l3.292 1.279a586.54 586.54 0 0 1 6.25 2.47l2.858 1.104 2.502.99c5.95 1.357 10.796-1.287 15.99-3.946l2.196-1.1c2.393-1.2 4.78-2.412 7.168-3.623 1.685-.848 3.37-1.694 5.055-2.54a5751.46 5751.46 0 0 0 13.334-6.724c7.03-3.553 14.067-7.092 21.104-10.631l5.15-2.592c10.355-5.213 20.735-10.35 31.217-15.305 7.82-3.706 15.564-7.557 23.3-11.435l1.975-.99c4.676-2.344 9.35-4.692 14.025-7.041 5.332-2.68 10.665-5.358 16-8.031l1.974-.99a1405.31 1405.31 0 0 1 27.264-13.277c7.97-3.792 15.872-7.716 23.762-11.67l1.972-.99c4.678-2.344 9.353-4.693 14.028-7.042 5.332-2.68 10.665-5.358 16-8.031l1.974-.99a1405.31 1405.31 0 0 1 27.264-13.277c7.97-3.792 15.872-7.716 23.762-11.67l1.972-.99c4.678-2.344 9.353-4.693 14.028-7.042 5.332-2.68 10.665-5.358 16-8.031l1.957-.98c10.33-5.174 20.724-10.206 31.16-15.161 6.15-2.922 12.242-5.95 18.32-9.016l3.155-1.583c2.47-1.241 4.94-2.484 7.408-3.729-8.76-4.137-17.701-7.773-26.686-11.382-4.658-1.872-9.312-3.751-13.966-5.63l-3.009-1.213c-7.433-3-14.858-6.018-22.28-9.045l-3.322-1.354c-4.502-1.836-9.004-3.673-13.505-5.512a5269.428 5269.428 0 0 0-38.88-15.723l-7.167-2.869c-3.43-1.373-6.86-2.743-10.296-4.103a2599.987 2599.987 0 0 1-9.436-3.763l-2.77-1.086c-11.594-4.672-22.385-10.516-27.859-22.23L1927 1129l-1.082-2.727c-1.107-3.946-1.302-7.506-1.293-11.585l.005-2.281c.13-5.891 1.19-10.377 4.37-15.407l1.688-3.063c7.056-8.964 15.338-14.557 26.675-16.519 10.904-.703 19.813 3.15 29.68 7.333a611.787 611.787 0 0 0 9.18 3.772c4.513 1.822 9.02 3.657 13.523 5.504a6464.32 6464.32 0 0 0 20.641 8.416l6.016 2.443a62880.035 62880.035 0 0 0 42.531 17.25l23.259 9.429 11.557 4.685a16082487.127 16082487.127 0 0 1 6.937 2.812l6.938 2.813 2.312.937 4.628 1.877c3.839 1.557 7.679 3.112 11.52 4.662 7.121 2.876 14.231 5.77 21.312 8.743 3.283 1.377 6.572 2.742 9.86 4.106a624.55 624.55 0 0 1 4.615 1.946c9.066 3.867 17.81 6.77 27.553 8.428 10.838 1.93 19.314 7.41 25.7 16.426 5.851 10.192 6.726 20.596 4.203 32.05-6.506 18.348-24.816 24.87-40.984 32.678-5.678 2.742-11.344 5.506-17.012 8.268l-3.558 1.732c-15.01 7.32-29.929 14.824-44.848 22.328-9.626 4.836-19.271 9.615-29.004 14.233-9.028 4.286-17.988 8.702-26.922 13.18l-1.97.987c-4.678 2.345-9.354 4.694-14.03 7.044-5.332 2.68-10.665 5.358-16 8.031l-1.974.99a1405.31 1405.31 0 0 1-27.264 13.277c-7.97 3.792-15.872 7.716-23.762 11.67l-1.972.99c-4.678 2.344-9.353 4.693-14.028 7.042-5.332 2.68-10.665 5.358-16 8.031l-1.974.99a1405.31 1405.31 0 0 1-27.264 13.277c-7.97 3.792-15.872 7.716-23.762 11.67l-1.972.99c-4.678 2.344-9.353 4.693-14.028 7.042-5.332 2.68-10.665 5.358-16 8.031l-1.974.99a1405.31 1405.31 0 0 1-27.264 13.277c-7.97 3.792-15.872 7.716-23.762 11.67l-1.972.99c-4.678 2.344-9.353 4.693-14.028 7.042a15408.55 15408.55 0 0 1-16 8.031l-1.958.981a1502.913 1502.913 0 0 1-28.411 13.85c-8.519 4.045-16.934 8.273-25.336 12.554l-3.22 1.627-2.826 1.438C1726 1487 1726 1487 1724 1487l.083 2.562c.941 29.985 1.217 59.969 1.45 89.966.05 6.505.106 13.01.16 19.515.106 12.652.208 25.305.307 37.957l2.958-1.482c9.307-4.664 18.616-9.326 27.925-13.985 4.783-2.394 9.566-4.79 14.348-7.186 36.717-18.402 36.717-18.402 51.59-25.435 7.779-3.69 15.483-7.524 23.179-11.38l1.976-.99c4.676-2.345 9.35-4.693 14.024-7.042 5.332-2.68 10.665-5.358 16-8.031l1.974-.99a1405.31 1405.31 0 0 1 27.264-13.277c7.97-3.792 15.872-7.716 23.762-11.67l1.972-.99c4.678-2.344 9.353-4.693 14.028-7.042 5.332-2.68 10.665-5.358 16-8.031l1.974-.99a1405.31 1405.31 0 0 1 27.264-13.277c7.97-3.792 15.872-7.716 23.762-11.67l1.972-.99c4.678-2.344 9.353-4.693 14.028-7.042 5.332-2.68 10.665-5.358 16-8.031l1.974-.99a1405.31 1405.31 0 0 1 27.264-13.277c7.97-3.792 15.872-7.716 23.762-11.67l1.972-.99c4.678-2.344 9.353-4.693 14.028-7.042 5.332-2.68 10.665-5.358 16-8.031l1.955-.98c10.36-5.188 20.785-10.232 31.252-15.201 6.582-3.13 13.08-6.418 19.568-9.74 7.05-3.569 12.95-5.942 20.975-5.923l2.13.005c11.022.258 19.847 5.505 27.444 13.304 7.29 8.99 8.508 18.862 7.894 30.031-.99 9.25-6.352 17.073-13.218 23.035-9.865 6.401-20.63 11.365-31.203 16.463-4.93 2.379-9.852 4.774-14.774 7.17l-3.155 1.536a2572.37 2572.37 0 0 0-24.016 11.886l-1.798.9a11755.58 11755.58 0 0 0-19.113 9.593c-9.993 5.02-20.001 9.99-30.105 14.784-9 4.272-17.93 8.673-26.836 13.137l-1.97.987a15541.23 15541.23 0 0 0-14.03 7.044c-5.332 2.68-10.665 5.358-16 8.031l-1.974.99a1405.31 1405.31 0 0 1-27.264 13.277c-7.97 3.792-15.872 7.716-23.762 11.67l-1.972.99c-4.678 2.344-9.353 4.693-14.028 7.042-5.332 2.68-10.665 5.358-16 8.031l-1.974.99a1405.31 1405.31 0 0 1-27.264 13.277c-7.97 3.792-15.872 7.716-23.762 11.67l-1.972.99c-4.678 2.344-9.353 4.693-14.028 7.042-5.332 2.68-10.665 5.358-16 8.031l-1.974.99a1405.31 1405.31 0 0 1-27.264 13.277c-7.97 3.792-15.872 7.716-23.762 11.67l-1.972.99c-4.678 2.344-9.353 4.693-14.028 7.042-5.332 2.68-10.665 5.358-16 8.031l-1.971.988a1337.46 1337.46 0 0 1-24.716 12.075c-13.186 6.301-26.242 12.87-39.313 19.406l-1 155c17.314-8.26 17.314-8.26 34.574-16.629l2.905-1.42 9.209-4.513 3.254-1.595c19.432-9.525 38.802-19.175 58.135-28.9 9.625-4.836 19.27-9.614 29.001-14.232 9.028-4.286 17.988-8.702 26.922-13.18l1.97-.987c4.678-2.345 9.354-4.694 14.03-7.044 5.332-2.68 10.665-5.358 16-8.031l1.974-.99a1405.31 1405.31 0 0 1 27.264-13.277c7.97-3.792 15.872-7.716 23.762-11.67l1.972-.99c4.678-2.344 9.353-4.693 14.028-7.042 5.332-2.68 10.665-5.358 16-8.031l1.974-.99a1405.31 1405.31 0 0 1 27.264-13.277c7.97-3.792 15.872-7.716 23.762-11.67l1.972-.99c4.678-2.344 9.353-4.693 14.028-7.042 5.332-2.68 10.665-5.358 16-8.031l1.974-.99a1396.35 1396.35 0 0 1 27.264-13.275c8.003-3.808 15.933-7.757 23.852-11.735l1.962-.985c5.994-3.01 11.984-6.025 17.973-9.045 3.325-1.676 6.652-3.348 9.98-5.017 1.248-.627 2.495-1.255 3.74-1.885 17.562-8.88 17.562-8.88 23.622-8.97l2.229-.036 2.279.032 2.394.025c10.31.297 18.43 4.057 25.731 11.412 7.945 10.432 10.267 20.027 9 33-1.964 9.551-6.993 17.402-15.075 22.843-4.51 2.97-9.146 5.462-13.991 7.837l-2.537 1.262c-2.65 1.317-5.305 2.625-7.96 3.933l-5.251 2.605c-3.439 1.707-6.879 3.41-10.32 5.11a2490.84 2490.84 0 0 0-13.19 6.582c-6.945 3.481-13.931 6.871-20.93 10.241-19.366 9.332-38.583 18.958-57.789 28.614-9.034 4.54-18.102 9-27.211 13.386-19.366 9.332-38.583 18.958-57.789 28.614-9.034 4.54-18.102 9-27.211 13.386-19.366 9.332-38.583 18.958-57.789 28.614-9.034 4.54-18.102 9-27.211 13.386-19.374 9.335-38.598 18.966-57.811 28.625a1593.443 1593.443 0 0 1-25.934 12.748c-11.962 5.749-23.86 11.623-35.728 17.562l-1.955.978a13685.22 13685.22 0 0 0-19.665 9.861c-2.49 1.251-4.98 2.5-7.471 3.75-1.722.864-3.442 1.73-5.162 2.597l-3.198 1.604-2.76 1.388c-3.978 1.915-8.027 3.68-12.062 5.474l-1 157 62-31 23-11c5.01-2.474 10.01-4.956 15-7.469l3.906-1.959c4.033-2.021 8.063-4.046 12.094-6.072 5.332-2.68 10.665-5.358 16-8.031l1.974-.99a1405.31 1405.31 0 0 1 27.264-13.277c7.97-3.792 15.872-7.716 23.762-11.67l1.972-.99c4.678-2.344 9.353-4.693 14.028-7.042 5.332-2.68 10.665-5.358 16-8.031l1.974-.99a1405.31 1405.31 0 0 1 27.264-13.277c7.97-3.792 15.872-7.716 23.762-11.67l1.972-.99c4.678-2.344 9.353-4.693 14.028-7.042 5.332-2.68 10.665-5.358 16-8.031l1.974-.99a1405.31 1405.31 0 0 1 27.264-13.277c7.97-3.792 15.872-7.716 23.762-11.67l1.972-.99c4.678-2.344 9.353-4.693 14.028-7.042a15482.318 15482.318 0 0 1 17.97-9.018 1415.12 1415.12 0 0 1 27.618-13.448c7.132-3.392 14.196-6.909 21.244-10.471l3.239-1.635c4.361-2.204 8.721-4.409 13.076-6.625 3.245-1.65 6.496-3.29 9.748-4.928l2.939-1.506c11.566-5.805 23.024-9.19 36.033-6.213 11.031 3.987 18.417 11.54 23.387 21.977 4.074 9.964 3.714 18.537.004 28.578-5.382 11.933-15.662 18.45-27.043 23.992l-3.433 1.707c-3.003 1.49-6.012 2.97-9.023 4.446-2.982 1.464-5.957 2.944-8.933 4.421a2147.881 2147.881 0 0 1-32.135 15.614c-14.34 6.816-28.505 13.98-42.691 21.109-5.332 2.68-10.665 5.358-16 8.031l-1.974.99a1405.31 1405.31 0 0 1-27.264 13.277c-7.97 3.792-15.872 7.716-23.762 11.67l-1.972.99c-4.678 2.344-9.353 4.693-14.028 7.042-5.332 2.68-10.665 5.358-16 8.031l-1.974.99a1405.31 1405.31 0 0 1-27.264 13.277c-7.97 3.792-15.872 7.716-23.762 11.67l-1.972.99c-4.678 2.344-9.353 4.693-14.028 7.042-5.332 2.68-10.665 5.358-16 8.031l-1.974.99a1405.31 1405.31 0 0 1-27.264 13.277c-7.97 3.792-15.872 7.716-23.762 11.67l-1.972.99c-4.678 2.344-9.353 4.693-14.028 7.042-5.332 2.68-10.665 5.358-16 8.031l-1.975.99a1258.412 1258.412 0 0 1-24.478 11.956c-9.047 4.288-18.019 8.717-26.969 13.203l-2.017 1.01c-4.772 2.393-9.542 4.788-14.311 7.185-4.821 2.423-9.643 4.844-14.467 7.261-1.892.95-3.783 1.901-5.674 2.853-21.236 10.648-42.111 16.722-65.652 9.19-5.13-1.91-10.132-4.104-15.119-6.36-8.723-3.938-17.624-7.452-26.496-11.04-5.319-2.156-10.629-4.334-15.94-6.51a8818.914 8818.914 0 0 0-37.152-15.081 1155539.623 1155539.623 0 0 1-14.617-5.903c-8.734-3.527-17.466-7.06-26.195-10.597l-2.195-.89a15373.43 15373.43 0 0 1-29.212-11.88l-3.327-1.357a521117850.658 521117850.658 0 0 0-13.724-5.596c-22.485-9.166-44.998-18.263-67.517-27.347a18902.316 18902.316 0 0 1-31.848-12.883A5042.834 5042.834 0 0 1 1389 2059l.063 3.206c.074 3.98.12 7.962.157 11.943.02 1.713.047 3.425.082 5.138.264 13.311-.296 25.085-9.314 35.744-7.72 7.644-17.176 11.84-28.03 11.845-11.213-.524-21.245-5.578-31.408-9.941-5.115-2.188-10.267-4.286-15.421-6.38l-2.94-1.195-6.075-2.468a6309.913 6309.913 0 0 1-12.637-5.163 9150.244 9150.244 0 0 0-43.227-17.541 25358430.436 25358430.436 0 0 1-16.25-6.555 16050.492 16050.492 0 0 1-30.673-12.415l-10.944-4.44c-6.075-2.465-12.151-4.928-18.227-7.39l-9.267-3.758c-7.805-3.165-15.612-6.328-23.42-9.485a11724.87 11724.87 0 0 1-20.886-8.47c-3.618-1.472-7.236-2.94-10.858-4.4a2640.425 2640.425 0 0 1-10.05-4.08 1213.99 1213.99 0 0 0-5.368-2.164c-13.571-5.561-23.385-11.25-29.307-25.031l-1.25-2.812c-1.383-5.877-1.45-11.76.227-17.57 1.735-6.54 1.496-13.394 1.648-20.118l.117-4.227c.094-3.424.18-6.848.258-10.273l-1.625-.518c-5.826-1.895-11.484-4.074-17.145-6.412l-2.827-1.159a7706.27 7706.27 0 0 1-6.05-2.484c-5.482-2.255-10.968-4.498-16.455-6.743l-3.456-1.416a8747.805 8747.805 0 0 0-40.429-16.414 5063.893 5063.893 0 0 0-44.793-17.837c-13.595-5.343-27.101-10.876-40.582-16.501a5598.148 5598.148 0 0 0-19.513-8.078l-2.09-.862c-12.142-5.004-24.314-9.933-36.493-14.848a7836.386 7836.386 0 0 1-9.083-3.673l-5.967-2.414-2.949-1.194a2952.156 2952.156 0 0 0-16.333-6.549c-3.14-1.25-6.275-2.511-9.409-3.775a613.716 613.716 0 0 0-4.28-1.699c-13.128-5.155-23.723-11.509-29.658-24.8-2.528-6.54-2.41-12.854-2.35-19.79a1571.703 1571.703 0 0 1 .009-15.965c.014-4.237.006-8.474.001-12.71-.005-7.404.004-14.808.024-22.211.028-10.944.034-21.888.035-32.832.003-19.385.029-38.77.064-58.154.031-16.86.054-33.721.07-50.582l.003-3.377.012-13.542a135738.73 135738.73 0 0 1 .222-147.822l.006-3.377c.043-23.396.075-46.79.105-70.186.044-35.121.101-70.242.18-105.363l.006-2.658.023-10.552c.028-12.175.05-24.35.068-36.524.024-15.564.056-31.128.107-46.692.026-8.135.045-16.27.051-24.407.006-6.025.028-12.05.055-18.076.009-2.43.013-4.86.011-7.289-.002-3.293.015-6.587.036-9.88l-.014-2.85c.124-11.61 3.966-22.052 12.085-30.531 4.08-3.332 8.799-5.554 13.5-7.872l4.324-2.147 2.255-1.118c3.625-1.8 7.243-3.616 10.86-5.43l4.504-2.257 2.319-1.162c5.066-2.538 10.132-5.074 15.198-7.61 4.396-2.2 8.792-4.402 13.187-6.605 33.795-16.94 33.795-16.94 48.85-24.065 7.828-3.716 15.584-7.574 23.331-11.457l1.975-.99c4.676-2.344 9.35-4.692 14.025-7.041 5.332-2.68 10.665-5.358 16-8.031l1.974-.99a1405.31 1405.31 0 0 1 27.264-13.277c7.97-3.792 15.872-7.716 23.762-11.67l1.972-.99c4.678-2.344 9.353-4.693 14.028-7.042 5.332-2.68 10.665-5.358 16-8.031l1.974-.99a1405.31 1405.31 0 0 1 27.264-13.277c7.97-3.792 15.872-7.716 23.762-11.67l1.972-.99c4.678-2.344 9.353-4.693 14.028-7.042 5.332-2.68 10.665-5.358 16-8.031l1.974-.99a1405.31 1405.31 0 0 1 27.264-13.277c7.97-3.792 15.872-7.716 23.762-11.67l1.972-.99c4.678-2.344 9.353-4.693 14.028-7.042 5.332-2.68 10.665-5.358 16-8.031l1.95-.978c9.554-4.784 19.15-9.47 28.808-14.04 9.845-4.658 19.178-9.554 28.031-15.943 14.303-9.754 28.98-4.587 43.586 1.242z" fill="#53FE71"/><path d="M1629.475 993.858c3.892 1.76 7.864 3.304 11.834 4.876a1507.57 1507.57 0 0 1 10.485 4.21l3.658 1.48 1.858.753c3.186 1.29 6.373 2.578 9.56 3.866 14.73 5.954 29.455 11.924 44.177 17.901 16.625 6.75 33.286 13.41 49.953 20.056-2.929 2.327-5.886 4.067-9.23 5.736l-3.171 1.59-3.431 1.705-3.584 1.792c-2.515 1.256-5.031 2.51-7.548 3.762a4829.568 4829.568 0 0 0-9.453 4.716c-11.612 5.806-23.24 11.571-34.97 17.137-8.925 4.236-17.78 8.605-26.613 13.03l-1.972.989A15558.86 15558.86 0 0 0 1647 1104.5c-5.332 2.68-10.665 5.358-16 8.031l-1.974.99a1405.31 1405.31 0 0 1-27.264 13.277c-7.97 3.792-15.872 7.716-23.762 11.67l-1.972.99c-4.678 2.344-9.353 4.693-14.028 7.042-5.332 2.68-10.665 5.358-16 8.031l-1.974.99a1405.31 1405.31 0 0 1-27.264 13.277c-7.97 3.792-15.872 7.716-23.762 11.67l-1.972.99c-4.678 2.344-9.353 4.693-14.028 7.042-5.332 2.68-10.665 5.358-16 8.031l-1.974.99a1405.31 1405.31 0 0 1-27.264 13.277c-7.97 3.792-15.872 7.716-23.762 11.67l-1.972.99c-4.678 2.344-9.353 4.693-14.028 7.042a15262.843 15262.843 0 0 1-17.952 9.011c-9.485 4.759-19.015 9.407-28.657 13.84-11.924 5.576-21.495 12.073-26.664 24.57-1.363 3.898-1.852 7.258-1.851 11.398l-.007 3.293.008 3.624-.004 3.862c-.003 3.555 0 7.11.005 10.665.003 3.861 0 7.722 0 11.583-.003 6.772-.001 13.545.003 20.317.006 10.07.006 20.141.005 30.212-.001 16.938.002 33.877.008 50.815a175009.185 175009.185 0 0 1 .012 69.367c.002 37.512.01 75.023.019 112.534a806762.36 806762.36 0 0 1 .024 146.575 3464246.756 3464246.756 0 0 0 .01 72.124c.008 70.57.024 141.14.041 211.71-3.731-.707-7.056-1.688-10.594-3.082l-3.323-1.305-3.583-1.425c-1.26-.5-2.522-.998-3.783-1.496-9.67-3.834-19.285-7.796-28.889-11.794-10.749-4.47-21.534-8.849-32.328-13.21a275954782.699 275954782.699 0 0 0-13.567-5.482c-8.16-3.296-16.316-6.601-24.472-9.909l-6.79-2.753a98189.237 98189.237 0 0 1-35.846-14.54l-6.567-2.664-1.862-.756c-7.122-2.887-14.26-5.73-21.396-8.584v-727l51-25c9.258-4.61 18.513-9.224 27.75-13.875 11.73-5.904 23.463-11.784 35.328-17.414 9.028-4.286 17.988-8.702 26.922-13.18l1.97-.987c4.678-2.345 9.354-4.694 14.03-7.044a15335.342 15335.342 0 0 1 17.974-9.02 1405.31 1405.31 0 0 1 27.264-13.278c7.97-3.792 15.872-7.716 23.762-11.67l1.972-.99c4.678-2.344 9.353-4.693 14.028-7.042a15335.342 15335.342 0 0 1 17.974-9.02 1405.31 1405.31 0 0 1 27.264-13.278c7.97-3.792 15.872-7.716 23.762-11.67l1.972-.99c4.678-2.344 9.353-4.693 14.028-7.042a15335.342 15335.342 0 0 1 17.974-9.02 1405.31 1405.31 0 0 1 27.264-13.278c7.97-3.792 15.872-7.716 23.762-11.67l1.972-.99c4.678-2.344 9.353-4.693 14.028-7.042a16714.155 16714.155 0 0 1 17.957-9.013c9.435-4.73 18.93-9.316 28.476-13.821 5.098-2.425 10.045-4.977 14.938-7.795l3.111-1.752a187.83 187.83 0 0 0 5.993-3.562c8.828-4.826 14.399-2.706 23 1.301z"/></svg>