<svg width="32" height="32" viewBox="0 0 32 32" fill="none" xmlns="http://www.w3.org/2000/svg">
<rect width="32" height="32" rx="16" fill="#A5E5F7"/>
<path fill-rule="evenodd" clip-rule="evenodd" d="M12.4332 10.1719C9.32377 11.2433 7.08984 14.1949 7.08984 17.6683C7.08984 22.0462 10.6389 25.5952 15.0168 25.5952C18.4622 25.5952 21.3943 23.3971 22.487 20.3266H20.1303C19.1695 22.171 17.2402 23.4303 15.0168 23.4303C11.8345 23.4303 9.25474 20.8506 9.25474 17.6683C9.25474 15.4149 10.5482 13.4636 12.4332 12.5165V10.1719Z" fill="#02010A"/>
<path fill-rule="evenodd" clip-rule="evenodd" d="M24.9128 7.15177C22.6335 5.89194 19.7079 6.22882 17.7743 8.1624C17.1348 8.80189 16.67 9.54989 16.3798 10.3471H14.615L14.1016 11.6895H16.0604C16.0083 12.1271 16.0044 12.5693 16.0486 13.0076H14.5708L14.1016 14.35H16.3419C16.6288 15.1873 17.1062 15.9738 17.7743 16.6419C18.9859 17.8534 20.5869 18.4381 22.1745 18.3959L22.844 18.3406C23.5372 18.2443 24.2167 18.0266 24.8483 17.6876V15.7134C23.1359 17.1822 20.554 17.1058 18.9322 15.484C18.591 15.1428 18.3182 14.7591 18.1138 14.35H22.6241L23.0933 13.0076H17.6977C17.6366 12.5703 17.6421 12.1255 17.714 11.6895H23.4257L23.9392 10.3471H18.1692C18.3666 9.97812 18.6209 9.63153 18.9322 9.32029C20.4168 7.83568 22.706 7.64602 24.3962 8.75132L24.9128 7.15177Z" fill="#02010A"/>
</svg>
