<svg width="32" height="32" viewBox="0 0 32 32" fill="none" xmlns="http://www.w3.org/2000/svg">
<rect width="32" height="32" rx="16" fill="#A5E5F7"/>
<path fill-rule="evenodd" clip-rule="evenodd" d="M12.4332 10.1719C9.32377 11.2433 7.08984 14.1949 7.08984 17.6683C7.08984 22.0462 10.6389 25.5952 15.0168 25.5952C18.4622 25.5952 21.3943 23.3971 22.487 20.3266H20.1303C19.1695 22.171 17.2402 23.4303 15.0168 23.4303C11.8345 23.4303 9.25474 20.8506 9.25474 17.6683C9.25474 15.4149 10.5482 13.4636 12.4332 12.5165V10.1719Z" fill="#02010A"/>
<path d="M17.2469 6.39847H14.7871V18.3901H17.2469V14.3428L18.1214 13.4683L21.2781 18.3901L23.2346 18.3901L19.267 12.3227L19.9773 11.6125L24.2619 18.3901L26.2184 18.3901L21.1225 10.4672L25.1912 6.39847L21.7138 6.39844L17.2469 10.8645V6.39847Z" fill="#02010A"/>
</svg>
