<svg width="72" height="72" viewBox="0 0 72 72" fill="none" xmlns="http://www.w3.org/2000/svg">
<rect width="72" height="72" rx="36" fill="#FFFF00"/>
<g clip-path="url(#clip0_152_33)">
<path d="M45.5779 52.2819H26.6973L17.2548 36.0022L26.6973 19.7226H45.5779L52.6158 31.865H67.9955C65.9563 16.1423 52.476 4 36.1353 4C18.3871 4 4 18.3255 4 35.9978C4 53.67 18.3871 67.9955 36.1353 67.9955C52.476 67.9955 65.9563 55.8532 67.9955 40.135H52.6158L45.5779 52.2774V52.2819Z" fill="#282828"/>
<path d="M37.6175 33.6066H34.4262V44.776H37.6175V33.6066Z" fill="#282828"/>
<path d="M44 27.224H40.8087V44.776H44V27.224Z" fill="#282828"/>
<path d="M31.235 39.9891H28.0437V44.776H31.235V39.9891Z" fill="#282828"/>
</g>
<defs>
<clipPath id="clip0_152_33">
<rect width="64" height="64" fill="white" transform="translate(4 4)"/>
</clipPath>
</defs>
</svg>
