<svg width="32" height="32" viewBox="0 0 32 32" fill="none" xmlns="http://www.w3.org/2000/svg">
<rect width="32" height="32" rx="16" fill="#A5E5F7"/>
<path fill-rule="evenodd" clip-rule="evenodd" d="M11.8259 10.1797C8.7164 11.2512 6.48242 14.2028 6.48242 17.6762C6.48242 22.0543 10.0315 25.6034 14.4095 25.6034C17.8552 25.6034 20.7875 23.4049 21.8801 20.3342H19.5234C18.5627 22.1788 16.6332 23.4384 14.4095 23.4384C11.2272 23.4384 8.64736 20.8586 8.64736 17.6762C8.64736 15.4228 9.94089 13.4715 11.8259 12.5243V10.1797Z" fill="#02010A"/>
<path fill-rule="evenodd" clip-rule="evenodd" d="M23.005 6.40625H24.1445L24.0001 7.66123C24.4121 7.73978 24.7852 7.86403 25.069 7.99289V9.6727C24.7649 9.45473 24.3121 9.19433 23.8418 9.03759L23.5206 11.8296C23.5633 11.8576 23.6061 11.8857 23.649 11.9138C23.9646 12.1204 24.2811 12.3277 24.5574 12.545C24.7423 12.6903 24.8926 12.8421 24.985 12.9954C25.4691 13.7986 26.1063 15.471 24.434 16.9716C24.0179 17.345 23.4521 17.4909 22.8681 17.5009L22.7337 18.6691H21.6485L21.7907 17.3842C21.2297 17.2596 20.7332 17.0544 20.4358 16.8625V15.1296C20.7911 15.4633 21.3616 15.8025 21.9446 15.992L22.2681 13.0683C21.2905 12.7103 19.888 11.5689 20.5611 9.39764C20.9587 8.11505 21.9059 7.65562 22.8744 7.5867L23.005 6.40625ZM22.7247 8.94075C22.4616 9.01124 22.2352 9.17283 22.0794 9.46365C21.7369 10.1034 21.9942 10.611 22.4893 11.0683L22.7247 8.94075ZM23.3256 13.5243L23.0257 16.1316C23.3995 16.0844 23.7121 15.9069 23.8869 15.5403C24.3745 14.5176 23.9218 13.9003 23.3256 13.5243Z" fill="#02010A"/>
<path fill-rule="evenodd" clip-rule="evenodd" d="M14.1797 7.37705V17.6069H15.8165V13.6286H16.6349L17.9761 17.6069H19.8175L17.9761 13.174C18.696 12.689 19.9675 11.2098 19.2946 9.17296C18.6217 7.13608 15.6043 7.12699 14.1797 7.37705ZM15.8159 8.80948C16.4676 8.68066 17.771 8.82312 17.771 10.4235C17.771 12.0239 16.4676 12.3028 15.8159 12.2422V8.80948Z" fill="#02010A"/>
</svg>
