<svg width="1000" height="1000" viewBox="0 0 1000 1000" xmlns="http://www.w3.org/2000/svg">
	<path id="background" fill="none" d="M0 0h1000v1000H0z"/>
	<circle id="coin" fill="#000" cx="500" cy="500" r="500"/>
	<path id="light" fill="#999" d="M107.897 500c0 103.992 41.312 203.725 114.845 277.258C296.275 850.79 396.008 892.103 500 892.103c103.992 0 203.725-41.312 277.258-114.845C850.79 703.725 892.103 603.992 892.103 500c-.264.368-.55.725-.83 1.087A392.103 392.103 0 0 1 500 881.594a392.103 392.103 0 0 1-391.285-380.66c-.273-.31-.547-.616-.818-.934z"/>
	<path id="shadow" fill="#1a1a1a" d="M500 107.896c-103.992 0-203.724 41.313-277.258 114.846C149.21 296.276 107.896 396.008 107.896 500c.27-.318.546-.625.82-.934.273-.32.526-.598.8-.918A392.103 392.103 0 0 1 500 128.67a392.103 392.103 0 0 1 391.455 370.482c.22.282.442.56.65.848 0-103.992-41.314-203.724-114.847-277.258C703.724 149.21 603.992 107.896 500 107.896z"/>
	<g id="corgi" fill="#fff">
		<path d="M295.16 221.08l-26.744 45.284L297.65 394.82c-9.434-4.34-20.62-14.41-32.18-28.14 4.45 29.35 26.454 71.18 50.438 89.16-8.03 38.57-74.61 65.68-55.823 149.297 8.608-23.076 18.203-36.07 38.23-49.11-14.968 25.12-20.862 87.118-7.17 119.1 4.904-13.638 12.276-29.845 24.21-36.937.523 21.28 13.493 70.444 26.002 92.55 2.615-15.78 7.992-34.64 14.492-45.638 4.013 29.592 19.895 55.906 39.496 82.65.985-10.19 2.26-22.12 6.767-31.752 20.33 17.322 47.757 57.18 62.8 84.35l14.15-24.994L500 840.236l20.938-44.88 14.148 24.995c15.044-27.17 42.47-67.028 62.8-84.35 4.51 9.633 5.783 21.563 6.768 31.752 19.6-26.744 35.483-53.058 39.497-82.65 6.5 11 11.878 29.857 14.493 45.64 12.51-22.108 25.48-71.27 26-92.552 11.936 7.092 19.308 23.3 24.212 36.937 13.692-31.982 7.798-93.98-7.17-119.1 20.027 13.04 29.622 26.034 38.23 49.11 18.787-83.616-47.792-110.726-55.823-149.298 23.984-17.98 45.987-59.81 50.438-89.16-11.56 13.73-22.746 23.8-32.18 28.14l29.234-128.456-26.743-45.283-74.39 11.27-90.736 102.632L500 326.79l-39.714 8.192L369.55 232.35zm8.73 17.274l55.603 10.157 93.784 103.757L500 343.174l46.723 9.093 93.784-103.756 55.603-10.156 18.268 29.497-43.21 157.508c14.26-4.94 19.16-6.837 28.727-13.2-3.488 9.37-24.74 35.5-32.904 41.575 10.805 49.924 48.49 54.11 59.693 102.893-10.642-12.448-37.952-25.486-50.353-27.51 14.04 32.635 24.983 71.858 24.24 103.243-7.51-9.83-16.177-17.894-25.957-24.258.353 25.455-6.863 61.002-14.145 82.88-2.704-11.654-14.282-30.378-21.273-37.028-4.943 26.01-14.428 58.408-27.704 79.022-1.51-7.428-5.26-13.33-8.637-19.287-26.316 18.648-54.963 59.17-67.46 81.552l-15.41-31.202L500 805.254l-19.984-41.214-15.41 31.202c-12.496-22.383-41.143-62.904-67.46-81.553-3.377 5.955-7.125 11.858-8.637 19.286-13.277-20.614-22.762-53.013-27.705-79.022-6.99 6.65-18.57 25.374-21.273 37.027-7.282-21.876-14.498-57.423-14.145-82.878-9.78 6.364-18.446 14.43-25.957 24.257-.743-31.386 10.2-70.61 24.24-103.245-12.4 2.025-39.71 15.063-50.353 27.51 11.202-48.782 48.888-52.968 59.692-102.892-8.166-6.075-29.417-32.205-32.905-41.576 9.566 6.364 14.468 8.26 28.726 13.2l-43.208-157.506z"/>
		<path d="M417.627 358.754l45.99 42.775 20.793 77.604-31.457 23.73-12.995 31.503-3.946-28.793-31.33-1.025-23.2-12.674-44.577 21.064 15.008 4.09-24.732 65.056c7.963-13.705 26.793-32.542 38.416-37.868-7.693 9.704-18.005 34.485-17.025 49.467 4.89-6.434 11.09-9.532 17.796-11.335-5.492 11.184-7.897 27.265-6.43 40.09 3.77-8.875 9.256-12.57 16.4-15.623-3.04 10.082-4.562 26.385.844 40 1.716-5.73 5.27-13.52 9.636-17.32-.86 15.383 2.635 31.868 11.59 46.925.277-6.714 1.728-19.066 5.536-23.723 4.993 29.997 25.286 24.868 44.315 56.097-12.95-33.047-17.072-71.144-11.398-113.062-6.67-7.067-10.8-20.78-10.784-33.94.006-5.322-3.6-11.136-7.276-18.382-2.383-5.668-11.622-4.648-11.816-9.836-.094-2.533 2.847-4.044 5.898-4.12 2.372-.06 4.813.747 5.94 2.617 4.743 4.934 8.857 12.008 12.596 19.044l27.346 3.468-23.852 3.62c-.427 2.844.223 5.15 2.453 7.28l21.072-5.928-11.318 7.707c-3.902 2.656-8.612 9.667-6.123 16.14 3.077 8 11.704 12.16 19.494 13.854 10.55 2.293 24.735 1.157 33.07-3.4 2.018-1.104 4.66-6.953 6.44-13.338 1.78 6.385 4.422 12.234 6.44 13.338 8.335 4.557 22.52 5.693 33.07 3.4 7.79-1.695 16.416-5.856 19.493-13.856 2.49-6.472-2.22-13.483-6.122-16.14l-11.317-7.706 21.072 5.93c2.23-2.132 2.88-4.438 2.453-7.28l-23.852-3.622 27.346-3.468c3.74-7.036 7.853-14.11 12.596-19.044 1.127-1.87 3.568-2.677 5.94-2.617 3.05.076 5.992 1.587 5.898 4.12-.194 5.188-9.433 4.168-11.816 9.836-3.676 7.246-7.282 13.06-7.276 18.38.015 13.163-4.114 26.875-10.783 33.942 5.675 41.918 1.554 80.015-11.397 113.062 19.03-31.23 39.322-26.1 44.315-56.098 3.808 4.656 5.26 17.008 5.535 23.722 8.956-15.057 12.45-31.542 11.59-46.926 4.366 3.8 7.92 11.59 9.637 17.32 5.406-13.614 3.885-29.917.843-40 7.145 3.053 12.63 6.75 16.4 15.623 1.468-12.825-.937-28.906-6.43-40.09 6.707 1.803 12.906 4.9 17.796 11.335.98-14.982-9.333-39.763-17.026-49.467 11.623 5.326 30.453 24.163 38.415 37.868l-24.733-65.055 15.008-4.09-44.578-21.064-23.2 12.673-31.33 1.024-3.945 28.793-12.995-31.502-31.457-23.73 20.792-77.606 45.99-42.776L500 382.21zM500 523.726l19.878 2.298c4.983 2.137 10.467 6.98 12.753 11.78-1.07 6.06-3.823 9.912-6.45 15.657-3.06 1.015-5.994 1.724-8.703 1.886-1.874.074.383-5.885-2.54-7.556-2.434-1.392-5.486-.604-6.417 1.407-1.766 3.817.145 10.32 3.283 12.162 2.154.377 8.47-.168 11.896-1.504l-5.423 8.262L500 574.544l-18.277-6.426-5.422-8.262c3.428 1.336 9.743 1.88 11.897 1.503 3.138-1.842 5.05-8.346 3.283-12.163-.93-2.01-3.983-2.8-6.417-1.407-2.923 1.67-.666 7.63-2.54 7.556-2.71-.162-5.644-.87-8.703-1.885-2.627-5.744-5.38-9.595-6.45-15.656 2.285-4.8 7.77-9.643 12.752-11.78zm-54.862 89.665c-7.248 26.53 13.11 123.662 29.33 143.702-3.597-15.972-4.516-27.32-2.598-36.134 4.308 12.033 24.006 32.646 28.13 49.007 4.124-16.36 23.822-36.974 28.13-49.007 1.918 8.814 1 20.162-2.6 36.134 16.22-20.04 36.58-117.17 29.332-143.7-11.056 38.738-49.803 49.783-54.862 70.946-5.06-21.163-43.806-32.208-54.862-70.947z"/>
		<path d="M402.958 438.632l14.656 39.076 26.928-2.556-.808 14.887 20.776-32.037zm194.084 0l-61.552 19.37 20.774 32.037-.806-14.888 26.928 2.556zM500 603.175c-4.86 3.587-31.16 9.912-47.86.683 2.257 22.296 26.902 30.404 47.86 30.404s45.603-8.108 47.86-30.404c-16.7 9.23-43 2.904-47.86-.683zM337.904 277.845l66.383 121.53-8.575 5.146 34.316 24.082 35.685 10.01zm324.19 0L534.288 438.613l35.685-10.01 34.316-24.082-8.575-5.146z"/>
	</g>
	<path id="text-bottom" fill="#e6e6e6" d="M595.496 911.95c-2.422-.016-4.912.24-7.324.74-12.47 2.587-17.198 10.038-15.65 17.496 3.38 16.292 27.714 5.36 29.417 13.57.56 2.694-1.47 5.207-7.485 6.455-5.264 1.093-11.167.358-15.424-1.57l-1.858 8.36c4.51 2.202 11.956 2.815 18.912 1.37 12.533-2.6 17.31-10.128 15.79-17.46-3.343-16.105-27.69-5.234-29.368-13.318-.572-2.757 1.28-5.496 7.295-6.744 3.886-.807 8.317-.55 12.872.923l1.535-8.356c-2.59-.97-5.596-1.44-8.71-1.463zm-181.59 1.624c-11.51-.236-21.038 6.902-23.365 18.487-2.658 13.24 5.604 24.756 19.22 27.49 7.655 1.538 14.547.05 19.71-4.2l-5.318-7.334c-3.642 2.858-7.697 3.872-12.09 2.99-8.22-1.65-12.895-8.596-11.232-16.88 1.663-8.282 8.66-12.882 16.88-11.23 4.39.88 7.74 3.38 10.01 7.362l7.735-4.713c-3.133-5.852-8.917-9.885-16.51-11.41-1.71-.344-3.394-.527-5.04-.56zm90.033 9.037l-19.393.126.287 44.8 10.37-.067-.08-12.482 9.022-.058.512-.002 8.72 12.424 11.136-.073-10.14-14.335c5.807-2.533 9.167-7.483 9.124-14.203-.064-10.048-7.59-16.207-19.56-16.13zm-.524 8.452c6.336-.04 9.554 2.82 9.586 7.747.03 4.862-3.15 7.827-9.484 7.868l-8.448.054-.1-15.615 8.446-.054z"/>
	<path id="text-top" fill="#e6e6e6" d="M520.744 39.098c-12.725-.532-19.13 5.54-19.447 13.15-.695 16.626 25.57 11.96 25.22 20.336-.114 2.75-2.693 4.692-8.83 4.436-5.373-.225-10.92-2.378-14.578-5.286l-3.844 7.655c3.836 3.234 10.91 5.642 18.007 5.938 12.79.534 19.26-5.6 19.573-13.082.686-16.434-25.577-11.83-25.233-20.078.118-2.814 2.58-5.016 8.72-4.76 3.964.166 8.2 1.496 12.257 4.035l3.525-7.732c-4.047-2.794-9.744-4.377-15.37-4.612zm39.615 3.873l-1.454 8.323 14.123 2.465-6.253 35.81 10.213 1.784 6.252-35.81 14.123 2.466 1.453-8.322-38.46-6.715zm-122.923.67l-10.255 1.522 6.584 44.315 10.255-1.524-6.582-44.314zm-51.732 9.815c-1.81.154-3.673.492-5.57 1.014-13.762 3.78-21.198 15.847-17.62 28.868 3.58 13.02 16.137 19.592 29.714 15.86 6.17-1.695 12.185-5.405 15.954-10.29l-4.817-17.527-9.133 2.51 3.477 12.65c-2.156 2.054-4.55 3.243-7.267 3.99-8.27 2.272-15.585-1.89-17.806-9.973-2.256-8.208 1.94-15.4 10.332-17.707 4.38-1.204 8.445-.663 12.51 1.804l4.79-7.687c-4.153-2.792-9.132-3.975-14.565-3.512zm238.236 2.47l-7.8 23.845c-4.1 12.53.808 21.812 12.913 25.773 12.104 3.96 21.55-.624 25.65-13.154l7.803-23.845-9.733-3.186-7.683 23.478c-2.647 8.09-7.21 10.302-13.23 8.332-5.962-1.95-8.394-6.45-5.747-14.54l7.682-23.48-9.854-3.224zm-299.288 20.67c-3.463-.228-7.34.55-11.44 2.38l-17.704 7.91 18.273 40.902 9.466-4.228-5.09-11.396 8.24-3.68.467-.21 12.98 7.872 10.167-4.542-15.047-9.05c4.3-4.654 5.385-10.538 2.644-16.673-2.56-5.733-7.182-8.904-12.955-9.284zm367.834 4.423l-20.547 39.81 18.085 9.334c13.024 6.722 26.002 3.483 32.225-8.574 6.223-12.057 1.346-24.513-11.678-31.234l-18.086-9.336zm-370.578 4.607c2.79.153 4.86 1.725 6.117 4.537 1.984 4.44.262 8.433-5.523 11.018l-7.713 3.447-6.37-14.258 7.713-3.448c2.17-.97 4.102-1.39 5.775-1.297zm375.887 7.713l8.418 4.344c7.905 4.08 10.644 11.47 6.71 19.09-3.932 7.622-11.545 9.67-19.45 5.59l-8.416-4.342 12.738-24.682zM261.797 109.08c-4.59.095-9.335 1.546-13.758 4.43-11.85 7.724-15.154 21.64-7.884 32.793 7.27 11.15 21.34 13.747 33.188 6.023 11.795-7.69 15.185-21.59 7.88-32.795-4.565-7.002-11.78-10.608-19.427-10.45zm494.52 8.193l-25.344 36.942 8.548 5.865 25.347-36.94-8.55-5.867zm-495.544 1.213c4.453.027 8.753 2.32 11.66 6.778 4.647 7.13 2.788 15.293-3.913 19.662-6.702 4.37-14.922 2.777-19.57-4.354-4.65-7.13-2.79-15.295 3.91-19.664 2.514-1.638 5.242-2.438 7.913-2.422zm-52.9 29.795c-4.92.464-9.758 2.697-14.07 6.587-10.36 9.346-11.583 23.468-2.537 33.494 9.046 10.028 23.217 10.258 33.53.954 5.796-5.23 8.708-11.65 8.372-18.33l-9.057-.103c.126 4.63-1.48 8.49-4.805 11.49-6.225 5.617-14.587 5.232-20.246-1.04-5.66-6.272-5.185-14.632 1.04-20.248 3.326-3 7.33-4.2 11.88-3.648l.823-9.022c-1.642-.243-3.29-.285-4.93-.13zm582.617.435c-6.4-.128-12.64 2.48-17.344 7.76-8.854 9.94-7.67 24.196 2.893 33.603 10.513 9.365 24.817 8.992 33.714-.996 8.897-9.988 7.62-24.24-2.895-33.605-4.95-4.41-10.723-6.65-16.37-6.762zm1.707 9.656c3.103.13 6.174 1.374 8.787 3.702 5.974 5.32 6.594 13.67.932 20.028-5.662 6.356-14.028 6.703-20.002 1.382-5.974-5.32-6.59-13.67-.93-20.027 3.185-3.575 7.224-5.25 11.213-5.084z"/>
</svg>