<?xml version="1.0" encoding="UTF-8"?>
<svg id="Layer_3" data-name="Layer 3" xmlns="http://www.w3.org/2000/svg" viewBox="0 0 876.64 876.64">
  <defs>
    <style>
      .cls-1 {
        stroke: #fff;
        stroke-linecap: round;
        stroke-width: 10px;
      }

      .cls-1, .cls-2, .cls-3 {
        fill-rule: evenodd;
      }

      .cls-1, .cls-3 {
        fill: none;
        stroke-miterlimit: 10;
      }

      .cls-2, .cls-4, .cls-5, .cls-6 {
        stroke-width: 0px;
      }

      .cls-5 {
        fill: #fff;
      }

      .cls-3 {
        stroke: #000;
        stroke-width: 7px;
      }

      .cls-6 {
        fill: #ed2024;
      }
    </style>
  </defs>
  <circle class="cls-6" cx="438.32" cy="438.32" r="438.32"/>
  <g>
    <path class="cls-5" d="m234.41,603.82s12.42,63.29,93.12,48.7c8.31,3.38,29.26,19.59,48.07-6.84,18.22,6.29,38.85,21.18,98.27-21.31,16.92.24,39.67-1.81,56.85-20.11,10.9-2.68,64.84-12.43,88.53-39.73,23.68-2.94,40.48-23.99,44.67-34.99,20.43,6.06,46.16-7.61,50.36-37.73,19.62,1.56,17.87-28.08,17.87-28.08,0,0,20.25-29.13.04-50.51-20.21-21.38-139.61-83.92-166.41-83.92s-80.41-3.25-130.76,15.43c-50.36,18.68-80.41,22.74-119.39,43.86-38.98,21.12-60.36,24.37-69.98,51.17s-4.74,50.34-11.24,69.03c-6.5,18.69,0,95.03,0,95.03Z"/>
    <g>
      <g>
        <path class="cls-2" d="m186.46,612.19c-61.73-49.2-82.71-113.63-55.04-175.27,82.28-186.77,204.77-260.13,373.37-240.56,66.92,7.31,97.02,18.71,153.36,55.39,125.4,81.36,133.93,197.52,53.3,179.95-160.24-35.16-295.13,14.29-395.27,140.15-51.56,65.55-83.55,77.78-129.73,40.35"/>
        <path class="cls-4" d="m423.54,494.34c-.71-2.34.62-4.81,2.96-5.52,2.34-.71,4.81.62,5.51,2.95.8,2.61,2.48,4.78,4.64,6.22,2.16,1.44,4.79,2.16,7.51,1.89,2.73-.27,5.19-1.49,7.03-3.33,1.83-1.83,3.05-4.27,3.32-6.99.24-2.44,2.4-4.22,4.84-3.98,2.44.23,4.22,2.4,3.98,4.84-.49,4.84-2.64,9.17-5.89,12.41-3.24,3.23-7.56,5.38-12.4,5.85-4.85.48-9.52-.78-13.33-3.32-3.8-2.54-6.76-6.36-8.18-11.02"/>
        <path class="cls-4" d="m523.63,489.59c-.55-1.83.48-3.76,2.31-4.31,1.83-.55,3.76.48,4.31,2.31.62,2.04,1.94,3.73,3.63,4.86,1.69,1.13,3.75,1.68,5.87,1.47,2.14-.21,4.06-1.17,5.49-2.6,1.43-1.43,2.38-3.34,2.6-5.47.18-1.9,1.88-3.3,3.78-3.11,1.9.18,3.3,1.88,3.11,3.78-.38,3.78-2.06,7.17-4.6,9.7-2.53,2.53-5.91,4.2-9.69,4.58-3.79.37-7.44-.61-10.42-2.6-2.97-1.98-5.28-4.97-6.4-8.61"/>
        <path class="cls-4" d="m495.39,551.85c-.43-1.43.38-2.94,1.8-3.37,1.43-.43,2.94.38,3.37,1.81.49,1.6,1.51,2.92,2.83,3.8,1.32.88,2.93,1.32,4.59,1.15,1.67-.17,3.17-.91,4.29-2.03,1.12-1.12,1.86-2.61,2.03-4.27.14-1.49,1.47-2.58,2.95-2.43,1.49.14,2.58,1.47,2.44,2.96-.3,2.96-1.61,5.6-3.6,7.58-1.98,1.97-4.62,3.29-7.57,3.58-2.96.29-5.82-.48-8.14-2.03-2.32-1.55-4.13-3.89-5-6.73"/>
        <path class="cls-4" d="m628.23,454.91c-.43-1.43.37-2.94,1.8-3.37,1.43-.43,2.94.38,3.37,1.81.49,1.6,1.51,2.92,2.83,3.8,1.32.88,2.93,1.32,4.59,1.15,1.67-.16,3.17-.91,4.29-2.03,1.12-1.12,1.86-2.61,2.03-4.27.14-1.49,1.47-2.58,2.96-2.44,1.49.14,2.58,1.47,2.43,2.96-.29,2.96-1.61,5.61-3.6,7.59-1.98,1.97-4.62,3.28-7.57,3.57-2.96.29-5.82-.48-8.14-2.03-2.32-1.55-4.13-3.89-5-6.73"/>
        <path class="cls-4" d="m387.61,562.8c-.43-1.43.38-2.94,1.81-3.37,1.43-.43,2.94.38,3.37,1.8.49,1.6,1.51,2.92,2.84,3.8,1.32.88,2.93,1.32,4.59,1.15,1.67-.16,3.17-.91,4.29-2.03,1.12-1.12,1.86-2.61,2.03-4.27.14-1.49,1.47-2.58,2.96-2.43,1.49.14,2.58,1.47,2.43,2.96-.3,2.96-1.61,5.6-3.6,7.58-1.98,1.97-4.62,3.28-7.57,3.58-2.96.29-5.82-.48-8.14-2.03-2.32-1.55-4.13-3.89-5-6.73"/>
        <path class="cls-4" d="m339.23,628.55c-.34-1.11.29-2.29,1.41-2.63,1.11-.34,2.29.29,2.63,1.41.38,1.25,1.18,2.27,2.21,2.96,1.03.69,2.28,1.03,3.58.9,1.3-.13,2.47-.71,3.35-1.59.87-.87,1.45-2.03,1.58-3.33.11-1.16,1.14-2.01,2.3-1.9,1.16.11,2.01,1.14,1.9,2.31-.23,2.3-1.26,4.37-2.8,5.91-1.54,1.54-3.6,2.56-5.9,2.79-2.31.23-4.53-.37-6.35-1.58-1.81-1.21-3.22-3.03-3.9-5.25"/>
        <path class="cls-3" d="m186.46,612.19c-61.73-49.2-82.71-113.63-55.04-175.27,82.28-186.77,204.77-260.13,373.37-240.56,66.92,7.31,97.02,18.71,153.36,55.39,125.4,81.36,133.93,197.52,53.3,179.95-160.24-35.16-295.13,14.29-395.27,140.15-51.56,65.55-83.55,77.78-129.73,40.35"/>
        <path class="cls-3" d="m245.65,624.37s7.12,40.8,83.97,27.8c0,0,27.3,21.12,45.98-6.5,0,0,35.99,25.68,98.27-21.31,0,0,30.86,6.69,56.85-20.11,0,0,60.91-12.86,88.53-39.73,0,0,26.8.75,44.67-34.99,0,0,41.42,9.82,50.36-37.73,0,0,18.68,1.96,17.87-28.08,0,0,15.48-15.41.03-33.28"/>
        <path class="cls-3" d="m186.46,612.19c-61.73-49.2-82.71-113.63-55.04-175.27,82.28-186.77,204.77-260.13,373.37-240.56,66.92,7.31,97.02,18.71,153.36,55.39,125.4,81.36,133.93,197.52,53.3,179.95-160.24-35.16-295.13,14.29-395.27,140.15-51.56,65.55-83.55,77.78-129.73,40.35"/>
      </g>
      <path class="cls-1" d="m170.36,407.72l14.92,55.97c5.74,21.52,19.4,40.08,38.25,51.95l9.02,5.68c24.85,15.65,52.37,26.59,81.19,32.26h0"/>
      <path class="cls-1" d="m222.84,318.72l15.21,62.37c6.99,28.65,25.86,52.96,51.89,66.82l16.36,8.72c13.06,6.96,25.44,15.11,37,24.36l20.21,16.18"/>
      <path class="cls-1" d="m293.17,250.54l19.26,65.63c6.38,21.74,20.88,40.2,40.5,51.55l16.49,9.54c15.79,9.13,28.72,22.49,37.35,38.56l18.09,33.72"/>
      <path class="cls-1" d="m385.03,216.79l9.46,43.31c5.72,26.18,23.03,48.35,47.04,60.25l5.7,2.83c22.18,10.99,37.71,32,41.72,56.43l6.32,38.52"/>
      <path class="cls-1" d="m495.27,211.09l2.64,23.09c2.92,25.57,16.85,48.59,38.15,63.03l15.82,10.73c20.33,13.79,32.51,36.76,32.51,61.33v31.92"/>
      <path class="cls-1" d="m655.59,407.94l5.62-12.17c12.96-28.08,4.8-61.38-19.67-80.29l-6.43-4.97c-19.2-14.84-31.45-36.92-33.86-61.07l-.56-5.61"/>
    </g>
  </g>
</svg>