<svg viewBox="0 0 876.64 876.64" xmlns="http://www.w3.org/2000/svg"><circle cx="438.32" cy="438.32" fill="#ed2024" r="438.32"/><path d="m234.41 603.82s12.42 63.29 93.12 48.7c8.31 3.38 29.26 19.59 48.07-6.84 18.22 6.29 38.85 21.18 98.27-21.31 16.92.24 39.67-1.81 56.85-20.11 10.9-2.68 64.84-12.43 88.53-39.73 23.68-2.94 40.48-23.99 44.67-34.99 20.43 6.06 46.16-7.61 50.36-37.73 19.62 1.56 17.87-28.08 17.87-28.08s20.25-29.13.04-50.51-139.61-83.92-166.41-83.92-80.41-3.25-130.76 15.43c-50.36 18.68-80.41 22.74-119.39 43.86s-60.36 24.37-69.98 51.17-4.74 50.34-11.24 69.03 0 95.03 0 95.03z" fill="#fff"/><path d="m186.46 612.19c-61.73-49.2-82.71-113.63-55.04-175.27 82.28-186.77 204.77-260.13 373.37-240.56 66.92 7.31 97.02 18.71 153.36 55.39 125.4 81.36 133.93 197.52 53.3 179.95-160.24-35.16-295.13 14.29-395.27 140.15-51.56 65.55-83.55 77.78-129.73 40.35" fill-rule="evenodd"/><path d="m423.54 494.34a4.43 4.43 0 0 1 2.96-5.52c2.34-.71 4.81.62 5.51 2.95.8 2.61 2.48 4.78 4.64 6.22s4.79 2.16 7.51 1.89c2.73-.27 5.19-1.49 7.03-3.33a11.48 11.48 0 0 0 3.32-6.99c.24-2.44 2.4-4.22 4.84-3.98a4.42 4.42 0 0 1 3.98 4.84c-.49 4.84-2.64 9.17-5.89 12.41a20.304 20.304 0 0 1 -12.4 5.85c-4.85.48-9.52-.78-13.33-3.32-3.8-2.54-6.76-6.36-8.18-11.02m100.1-4.75c-.55-1.83.48-3.76 2.31-4.31s3.76.48 4.31 2.31a9.012 9.012 0 0 0 3.63 4.86 8.954 8.954 0 0 0 5.87 1.47 9.035 9.035 0 0 0 8.09-8.07c.18-1.9 1.88-3.3 3.78-3.11 1.9.18 3.3 1.88 3.11 3.78-.38 3.78-2.06 7.17-4.6 9.7-2.53 2.53-5.91 4.2-9.69 4.58-3.79.37-7.44-.61-10.42-2.6a15.96 15.96 0 0 1 -6.4-8.61m-28.23 62.26c-.43-1.43.38-2.94 1.8-3.37 1.43-.43 2.94.38 3.37 1.81.49 1.6 1.51 2.92 2.83 3.8s2.93 1.32 4.59 1.15c1.67-.17 3.17-.91 4.29-2.03a7.04 7.04 0 0 0 2.03-4.27 2.696 2.696 0 0 1 2.95-2.43c1.49.14 2.58 1.47 2.44 2.96-.3 2.96-1.61 5.6-3.6 7.58a12.45 12.45 0 0 1 -7.57 3.58c-2.96.29-5.82-.48-8.14-2.03a12.48 12.48 0 0 1 -5-6.73m132.85-96.96a2.7 2.7 0 1 1 5.17-1.56c.49 1.6 1.51 2.92 2.83 3.8s2.93 1.32 4.59 1.15c1.67-.16 3.17-.91 4.29-2.03a7.04 7.04 0 0 0 2.03-4.27 2.714 2.714 0 0 1 2.96-2.44 2.7 2.7 0 0 1 2.43 2.96 12.39 12.39 0 0 1 -3.6 7.59 12.438 12.438 0 0 1 -7.57 3.57c-2.96.29-5.82-.48-8.14-2.03a12.48 12.48 0 0 1 -5-6.73m-240.61 107.88a2.706 2.706 0 0 1 5.18-1.57c.49 1.6 1.51 2.92 2.84 3.8 1.32.88 2.93 1.32 4.59 1.15 1.67-.16 3.17-.91 4.29-2.03a7.04 7.04 0 0 0 2.03-4.27 2.7 2.7 0 0 1 2.96-2.43 2.7 2.7 0 0 1 2.43 2.96c-.3 2.96-1.61 5.6-3.6 7.58a12.504 12.504 0 0 1 -7.57 3.58c-2.96.29-5.82-.48-8.14-2.03a12.48 12.48 0 0 1 -5-6.73m-48.39 65.74c-.34-1.11.29-2.29 1.41-2.63 1.11-.34 2.29.29 2.63 1.41a5.474 5.474 0 0 0 2.21 2.96c1.03.69 2.28 1.03 3.58.9s2.47-.71 3.35-1.59c.87-.87 1.45-2.03 1.58-3.33a2.11 2.11 0 1 1 4.2.41 9.727 9.727 0 0 1 -2.8 5.91 9.689 9.689 0 0 1 -5.9 2.79 9.699 9.699 0 0 1 -10.25-6.83"/><g fill="none" stroke-miterlimit="10"><g stroke="#000" stroke-width="7"><path d="m186.46 612.19c-61.73-49.2-82.71-113.63-55.04-175.27 82.28-186.77 204.77-260.13 373.37-240.56 66.92 7.31 97.02 18.71 153.36 55.39 125.4 81.36 133.93 197.52 53.3 179.95-160.24-35.16-295.13 14.29-395.27 140.15-51.56 65.55-83.55 77.78-129.73 40.35"/><path d="m245.65 624.37s7.12 40.8 83.97 27.8c0 0 27.3 21.12 45.98-6.5 0 0 35.99 25.68 98.27-21.31 0 0 30.86 6.69 56.85-20.11 0 0 60.91-12.86 88.53-39.73 0 0 26.8.75 44.67-34.99 0 0 41.42 9.82 50.36-37.73 0 0 18.68 1.96 17.87-28.08 0 0 15.48-15.41.03-33.28"/><path d="m186.46 612.19c-61.73-49.2-82.71-113.63-55.04-175.27 82.28-186.77 204.77-260.13 373.37-240.56 66.92 7.31 97.02 18.71 153.36 55.39 125.4 81.36 133.93 197.52 53.3 179.95-160.24-35.16-295.13 14.29-395.27 140.15-51.56 65.55-83.55 77.78-129.73 40.35"/></g><path d="m170.36 407.72 14.92 55.97a88.274 88.274 0 0 0 38.25 51.95l9.02 5.68a238.888 238.888 0 0 0 81.19 32.26m-90.9-234.86 15.21 62.37a103.479 103.479 0 0 0 51.89 66.82l16.36 8.72a239.465 239.465 0 0 1 37 24.36l20.21 16.18m-70.34-246.63 19.26 65.63a88.274 88.274 0 0 0 40.5 51.55l16.49 9.54a98.208 98.208 0 0 1 37.35 38.56l18.09 33.72m-39.83-232.75 9.46 43.31a88.284 88.284 0 0 0 47.04 60.25l5.7 2.83a76.875 76.875 0 0 1 41.72 56.43l6.32 38.52m0-207.04 2.64 23.09a88.237 88.237 0 0 0 38.15 63.03l15.82 10.73a74.11 74.11 0 0 1 32.51 61.33v31.92m71.2 6.75 5.62-12.17c12.96-28.08 4.8-61.38-19.67-80.29l-6.43-4.97a88.26 88.26 0 0 1 -33.86-61.07l-.56-5.61" stroke="#fff" stroke-linecap="round" stroke-width="10"/></g></svg>