<svg width="32" height="32" viewBox="0 0 32 32" fill="none" xmlns="http://www.w3.org/2000/svg">
<rect width="32" height="32" rx="16" fill="#A5E5F7"/>
<path fill-rule="evenodd" clip-rule="evenodd" d="M18.8044 6.40625H20.837V7.56697C21.0907 7.5982 21.3294 7.64177 21.5531 7.69769C22.0686 7.82432 22.5209 7.99617 22.9098 8.21325V9.25794V10.5061C22.9098 10.5061 22.1139 10.081 21.7973 9.9363C21.4898 9.78254 21.1596 9.66496 20.8069 9.58355C20.4632 9.50215 20.1195 9.46145 19.7758 9.46145C19.414 9.46145 19.0929 9.49763 18.8125 9.56998C18.5411 9.6333 18.3241 9.72827 18.1613 9.8549C18.0075 9.98153 17.9306 10.1443 17.9306 10.3433C17.9306 10.5152 17.9984 10.6599 18.1341 10.7775C18.2698 10.8951 18.4462 10.9946 18.6632 11.076C18.8894 11.1483 19.1336 11.2071 19.3959 11.2523C19.6582 11.2976 19.9205 11.3337 20.1828 11.3609C20.7074 11.4332 21.2094 11.5282 21.6888 11.6458C22.1772 11.7543 22.6068 11.9126 22.9777 12.1206C23.3575 12.3196 23.6515 12.5865 23.8595 12.9211C24.0766 13.2558 24.1851 13.6854 24.1851 14.21C24.1851 14.8793 23.9997 15.4492 23.6289 15.9195C23.258 16.3808 22.7425 16.7381 22.0822 16.9913C21.6999 17.1347 21.2848 17.236 20.837 17.2952V18.6685H18.8044V17.3063C18.4782 17.2723 18.1689 17.2216 17.8763 17.1541C17.2884 17.0094 16.2437 16.6947 15.7734 16.4415V15.5655L15.7734 14.21C15.7734 14.21 17.2884 14.8522 17.9306 15.0783C18.5818 15.3044 19.3778 15.4175 19.9928 15.4175C20.2823 15.4175 20.5627 15.3904 20.834 15.3361C21.1054 15.2728 21.3315 15.1733 21.5124 15.0376C21.7023 14.8929 21.7973 14.703 21.7973 14.4678C21.7973 14.314 21.7521 14.1874 21.6616 14.0879C21.5712 13.9794 21.4445 13.8934 21.2817 13.8301C21.128 13.7578 20.9426 13.699 20.7255 13.6537C20.5174 13.5995 20.2913 13.5588 20.0471 13.5316C19.8029 13.4955 19.5542 13.4593 19.3009 13.4231C18.713 13.3507 18.1839 13.2377 17.7135 13.0839C17.2432 12.9302 16.8452 12.7357 16.5196 12.5005C16.194 12.2563 15.9453 11.9714 15.7734 11.6458C15.6016 11.3111 15.5156 10.9312 15.5156 10.5061C15.5156 10.0448 15.6242 9.62878 15.8412 9.25794C16.0674 8.87805 16.3794 8.56148 16.7774 8.30822C17.1754 8.04592 17.6321 7.84693 18.1477 7.71126C18.3604 7.65528 18.5793 7.61084 18.8044 7.57796V6.40625Z" fill="#02010A"/>
<path fill-rule="evenodd" clip-rule="evenodd" d="M13.1599 10.1797C10.0504 11.2512 7.81641 14.2028 7.81641 17.6763C7.81641 22.0543 11.3655 25.6034 15.7435 25.6034C19.1892 25.6034 22.1214 23.4049 23.2141 20.3342H20.8574C19.8967 22.1788 17.9672 23.4384 15.7435 23.4384C12.5612 23.4384 9.98135 20.8586 9.98135 17.6763C9.98135 15.4228 11.2749 13.4715 13.1599 12.5243V10.1797Z" fill="#02010A"/>
</svg>
