<svg fill="none" height="80" width="80" xmlns="http://www.w3.org/2000/svg"><path d="M40 0c22.093 0 40 17.91 40 40 0 22.093-17.907 40-40 40C17.91 80 0 62.092 0 40 0 17.91 17.91 0 40 0z" fill="#f5ac37"/><path d="M41.461 42.825h15.2c.323 0 .476 0 .5-.425a29.056 29.056 0 0 0 0-4.65c0-.3-.15-.425-.476-.425H26.436c-.374 0-.475.125-.475.476v4.45c0 .574 0 .574.6.574zm14.002-10.7a.487.487 0 0 0 0-.349 9.885 9.885 0 0 0-.903-1.575 12.754 12.754 0 0 0-1.85-2.326 6.134 6.134 0 0 0-1.15-1.125 17.97 17.97 0 0 0-7.502-3.8 18.645 18.645 0 0 0-4.25-.45H26.384c-.374 0-.425.15-.425.476v8.874c0 .374 0 .475.475.475h28.85s.25-.05.3-.2h-.123zm0 15.9a5.834 5.834 0 0 0-1.278 0H26.461c-.374 0-.5 0-.5.5v8.676c0 .4 0 .5.5.5h12.8a6.394 6.394 0 0 0 1.824-.124 19.055 19.055 0 0 0 5.427-1.2 9.933 9.933 0 0 0 1.823-.85h.175c3-1.56 5.438-4.012 6.975-7.022 0 0 .174-.378-.022-.477zM20.937 62.2V48.376c0-.326 0-.375-.4-.375h-5.425c-.3 0-.425 0-.425-.4v-4.75h5.8c.324 0 .45 0 .45-.424v-4.7c0-.3 0-.375-.4-.375h-5.425c-.3 0-.425 0-.425-.4v-4.398c0-.276 0-.35.4-.35h5.375c.374 0 .475 0 .475-.475V18.254c0-.4 0-.5.5-.5h18.75c1.36.054 2.712.203 4.05.45a24.438 24.438 0 0 1 7.824 2.9 22.052 22.052 0 0 1 4.4 3.4 24.09 24.09 0 0 1 2.674 3.325c.787 1.2 1.44 2.484 1.953 3.825.063.349.398.585.747.525h4.475c.574 0 .574 0 .6.551v4.1c0 .4-.15.5-.551.5h-3.45c-.35 0-.45 0-.426.45a25.538 25.538 0 0 1 0 4.575c0 .425 0 .475.477.475h3.948c.174.225 0 .45 0 .677.025.29.025.583 0 .873v3.026c0 .424-.124.55-.5.55h-4.726a.625.625 0 0 0-.725.476 19.993 19.993 0 0 1-5.25 7.65 30.111 30.111 0 0 1-2.676 2.149c-1 .576-1.974 1.175-3 1.65a27.03 27.03 0 0 1-5.9 1.874c-1.93.346-3.887.502-5.85.475H20.93v-.025z" fill="#fefefd"/></svg>