<svg fill="none" height="80" viewBox="0 0 80 80" width="80" xmlns="http://www.w3.org/2000/svg"><path d="m40 0c22.0934 0 40 17.9102 40 40 0 22.0934-17.9066 40-40 40-22.0898 0-40-17.9084-40-40 0-22.0898 17.9102-40 40-40z" fill="#f5ac37"/><path d="m41.461 42.8246h15.1993c.324 0 .477 0 .5004-.4248.1242-1.5463.1242-3.1015 0-4.6495 0-.3006-.1494-.4248-.4752-.4248h-30.2493c-.3744 0-.4752.1242-.4752.4752v4.4496c0 .5743 0 .5743.5994.5743zm14.0023-10.6994c.0432-.1134.0432-.2376 0-.3492-.2538-.5526-.5544-1.08-.9036-1.575-.5256-.846-1.1448-1.6254-1.8504-2.3256-.333-.423-.7182-.8028-1.1502-1.125-2.1637-1.8414-4.7359-3.1446-7.5007-3.7998-1.395-.3132-2.8206-.4626-4.2499-.45h-13.4245c-.3744 0-.4248.1494-.4248.4752v8.874c0 .3744 0 .4752.4752.4752h28.8489s.2502-.0504.3006-.1998h-.1224zm0 15.8996c-.4248-.0468-.8532-.0468-1.278 0h-27.7239c-.3744 0-.5004 0-.5004.5004v8.6761c0 .3996 0 .5004.5004.5004h12.7999c.612.0468 1.2241.0036 1.8235-.1242 1.8576-.1332 3.6846-.5364 5.427-1.2006.6336-.2196 1.2456-.5058 1.8234-.8496h.1746c3.0007-1.5606 5.4379-4.0123 6.9751-7.0219 0 0 .1746-.378-.0216-.477zm-34.5261 14.1751v-.1494-5.8248-1.9746-5.8753c0-.3258 0-.3744-.3996-.3744h-5.4253c-.3006 0-.4248 0-.4248-.3996v-4.7502h5.7997c.324 0 .45 0 .45-.4249v-4.6998c0-.3006 0-.3744-.3996-.3744h-5.4253c-.3006 0-.4248 0-.4248-.3996v-4.3992c0-.2754 0-.3493.3996-.3493h5.3749c.3744 0 .4752 0 .4752-.4752v-13.4749c0-.3996 0-.5004.5004-.5004h18.749c1.3608.054 2.7126.2034 4.05.45 2.7558.5094 5.4036 1.494 7.8247 2.8998 1.6056.945 3.0834 2.0863 4.3992 3.4003.99 1.0278 1.8828 2.1402 2.6748 3.3246.7866 1.2006 1.4401 2.484 1.9531 3.825.063.3492.3978.585.747.5256h4.4748c.5742 0 .5742 0 .5994.5509v4.1004c0 .3996-.1494.5004-.5508.5004h-3.4506c-.3492 0-.45 0-.4248.45.1368 1.5228.1368 3.051 0 4.5738 0 .4249 0 .4753.477.4753h3.9474c.1746.225 0 .45 0 .6768.0252.2898.0252.5832 0 .873v3.0258c0 .4248-.1242.5508-.5004.5508h-4.725c-.3294-.063-.6498.1476-.7254.4752-1.1251 2.925-2.9251 5.5477-5.2507 7.6501-.8496.765-1.7424 1.485-2.6748 2.1492-1.0008.576-1.9746 1.1754-3.0007 1.6506-1.8882.8496-3.8682 1.476-5.9004 1.8738-1.9296.3456-3.8862.5022-5.8501.4752h-17.3503v-.0252z" fill="#fefefd"/></svg>