<svg width="32" height="32" viewBox="0 0 32 32" fill="none" xmlns="http://www.w3.org/2000/svg">
<g clip-path="url(#clip0_19050_37050)">
<rect width="32" height="32" rx="16" fill="black"/>
<path d="M16.0255 16.7083C16.4283 16.7083 16.7548 16.3818 16.7548 15.9791C16.7548 15.5763 16.4283 15.2498 16.0255 15.2498C15.6227 15.2498 15.2962 15.5763 15.2962 15.9791C15.2962 16.3818 15.6227 16.7083 16.0255 16.7083Z" fill="#F8BF1E"/>
<path d="M21.8404 16.7083C22.2431 16.7083 22.5696 16.3818 22.5696 15.9791C22.5696 15.5763 22.2431 15.2498 21.8404 15.2498C21.4376 15.2498 21.1111 15.5763 21.1111 15.9791C21.1111 16.3818 21.4376 16.7083 21.8404 16.7083Z" fill="#F8BF1E"/>
<path d="M21.8404 22.5328C22.2431 22.5328 22.5696 22.2063 22.5696 21.8035C22.5696 21.4008 22.2431 21.0743 21.8404 21.0743C21.4376 21.0743 21.1111 21.4008 21.1111 21.8035C21.1111 22.2063 21.4376 22.5328 21.8404 22.5328Z" fill="#F8BF1E"/>
<path d="M23.9802 10.0203C23.951 9.6021 23.8014 9.20131 23.5494 8.8663C23.2975 8.53128 22.9539 8.27634 22.5603 8.13228C22.1666 7.98821 21.7397 7.96116 21.331 8.0544C20.9223 8.14763 20.5493 8.35717 20.2571 8.65771C19.9317 8.99331 19.4867 9.18649 19.0193 9.19506H18.8466C18.6094 9.19452 18.3748 9.14576 18.1571 9.05174C17.9393 8.95771 17.743 8.82039 17.58 8.64812C17.3798 8.44493 17.1415 8.28322 16.8787 8.17226C16.616 8.0613 16.3339 8.00326 16.0487 8.00148C15.7634 7.9997 15.4807 8.0542 15.2165 8.16187C14.9524 8.26954 14.7121 8.42825 14.5094 8.62893L14.4902 8.64812C14.1571 8.99097 13.7016 9.18767 13.2236 9.19506H13.0509C12.8186 9.19878 12.588 9.1547 12.3734 9.06557C12.1588 8.97643 11.9648 8.84414 11.8035 8.67691C11.7378 8.608 11.6672 8.54387 11.5924 8.485C11.1576 8.14369 10.6093 7.98038 10.0586 8.02812C9.50795 8.07587 8.99599 8.3311 8.62641 8.74215C8.25684 9.15319 8.05729 9.68932 8.06816 10.242C8.07903 10.7946 8.29951 11.3225 8.68496 11.7187L8.71375 11.7475C8.88072 11.9115 9.01338 12.1071 9.10399 12.3229C9.1946 12.5387 9.24134 12.7704 9.2415 13.0045V13.1676C9.24096 13.4048 9.1922 13.6393 9.09817 13.8571C9.00415 14.0748 8.86683 14.2712 8.69456 14.4342C8.49136 14.6344 8.32966 14.8727 8.2187 15.1354C8.10773 15.3982 8.0497 15.6803 8.04792 15.9655C8.04614 16.2507 8.10064 16.5335 8.20831 16.7976C8.31597 17.0618 8.47469 17.302 8.67536 17.5047L8.69456 17.5239C9.03741 17.857 9.23411 18.3126 9.2415 18.7905V19.0016C9.23959 19.2335 9.19103 19.4625 9.09871 19.6752C9.00639 19.8879 8.87221 20.0798 8.70415 20.2395C8.28297 20.6326 8.03524 21.177 8.01544 21.7529C7.99565 22.3287 8.20542 22.8888 8.5986 23.31C8.99178 23.7312 9.53618 23.9789 10.112 23.9987C10.6879 24.0185 11.248 23.8087 11.6692 23.4156C11.7131 23.3764 11.7548 23.3348 11.7939 23.2908C11.9528 23.121 12.1443 22.9851 12.357 22.8911C12.5697 22.7971 12.7992 22.747 13.0317 22.7439H13.2236C13.456 22.7477 13.6853 22.7981 13.8979 22.8921C14.1105 22.986 14.3021 23.1216 14.4614 23.2908C14.7584 23.601 15.1407 23.8162 15.56 23.9091C15.9793 24.0021 16.4167 23.9686 16.8169 23.8129C17.2172 23.6573 17.5623 23.3864 17.8086 23.0347C18.055 22.6829 18.1915 22.266 18.2009 21.8366C18.2102 21.4073 18.0921 20.9848 17.8614 20.6226C17.6307 20.2603 17.2978 19.9747 16.9047 19.8017C16.5116 19.6287 16.0761 19.5761 15.6532 19.6506C15.2302 19.7251 14.8389 19.9234 14.5286 20.2203L14.4998 20.2491C14.3352 20.4153 14.1395 20.5474 13.9238 20.638C13.7081 20.7285 13.4767 20.7757 13.2428 20.7768H13.0413C12.8056 20.7779 12.5721 20.7318 12.3546 20.6412C12.137 20.5505 11.9399 20.4172 11.7747 20.2491C11.7747 20.2395 11.7651 20.2395 11.7555 20.2299C11.4127 19.8967 11.216 19.4412 11.2086 18.9633V18.7713C11.2113 18.5345 11.261 18.3006 11.3549 18.0832C11.4488 17.8657 11.585 17.6691 11.7555 17.5047C12.1638 17.0993 12.395 16.5488 12.3986 15.9734C12.4022 15.3981 12.1779 14.8447 11.7747 14.4342H11.7555C11.4127 14.1011 11.216 13.6456 11.2086 13.1676V12.9949C11.2105 12.7588 11.2589 12.5254 11.3511 12.3081C11.4433 12.0907 11.5775 11.8937 11.7459 11.7283L11.7843 11.6899C12.1181 11.3575 12.5702 11.1711 13.0413 11.1717H13.214C13.4512 11.1723 13.6858 11.221 13.9035 11.3151C14.1213 11.4091 14.3176 11.5464 14.4806 11.7187C14.6808 11.9219 14.9191 12.0836 15.1819 12.1945C15.4446 12.3055 15.7267 12.3635 16.0119 12.3653C16.2971 12.3671 16.5799 12.3126 16.8441 12.2049C17.1082 12.0973 17.3485 11.9385 17.5512 11.7379L17.5704 11.7187C17.9035 11.3758 18.359 11.1791 18.837 11.1717H18.9905C19.2273 11.1744 19.4613 11.2242 19.6787 11.3181C19.8961 11.412 20.0927 11.5481 20.2571 11.7187C20.4566 11.9225 20.6944 12.085 20.9569 12.1967C21.2193 12.3085 21.5012 12.3675 21.7864 12.3701C22.0716 12.3728 22.3546 12.3192 22.6191 12.2123C22.8835 12.1055 23.1243 11.9475 23.3277 11.7475C23.5555 11.5243 23.7319 11.2542 23.8446 10.9559C23.9573 10.6576 24.0035 10.3383 23.9802 10.0203Z" fill="#F8BF1E"/>
</g>
<defs>
<clipPath id="clip0_19050_37050">
<rect width="32" height="32" fill="white"/>
</clipPath>
</defs>
</svg>
