<svg fill="none" height="220" width="220" xmlns="http://www.w3.org/2000/svg"><linearGradient id="c" gradientUnits="userSpaceOnUse" x1="204.6" x2="75.9" y1="42.9" y2="220"><stop offset="0" stop-color="#b985f5"/><stop offset="1" stop-color="#1c1528" stop-opacity="0"/></linearGradient><clipPath id="a"><path d="M0 0h220v220H0z"/></clipPath><clipPath id="b"><path d="M0 0h220v220H0z"/></clipPath><g clip-path="url(#a)"><g clip-path="url(#b)"><path d="M218.901 110c0 60.145-48.756 108.901-108.901 108.901S1.099 170.145 1.099 110 49.855 1.099 110 1.099 218.901 49.855 218.901 110z" fill="#7834c7" stroke="url(#c)" stroke-width="2.197"/></g></g><g fill="#fff"><path d="M48.998 48.068a80.335 80.335 0 0 1 34.744 21.375l21.958 22.99-12.112 12.685L70.25 82.902a80.142 80.142 0 0 1-21.406-34.673l-.07-.229zm101.819 87.618c4.9-4.892 4.9-12.823 0-17.715l-1.775-1.771s.221 3.315-4.422 7.957l-4.451 4.443-13.974-14.654-11.637 11.059 14.963 14.224-4.437 4.428c-4.658 4.65-7.985 4.429-7.985 4.429l1.774 1.771c4.901 4.892 12.846 4.892 17.747 0zM47 159.6L59.422 172s-.221-3.322 4.437-7.971l12.423-12.4-8.873-8.858-12.423 12.4C50.328 159.821 47 159.6 47 159.6zm109.141 4.429l-12.423-12.4 8.874-8.858 12.422 12.4c4.658 4.65 7.986 4.429 7.986 4.429L160.577 172s.222-3.322-4.436-7.971z"/><path d="M90.479 139.229l4.436 4.428c4.659 4.65 7.986 4.429 7.986 4.429l-1.774 1.771c-4.9 4.892-12.846 4.892-17.747 0l-14.197-14.171c-4.9-4.892-4.9-12.823 0-17.715l1.775-1.771s-.221 3.313 4.419 7.954l4.454 4.446 56.419-59.133C145.799 59.46 157.98 52.024 171.225 48c-4.031 13.222-11.48 25.38-21.506 34.912z"/></g></svg>