<svg width="32" height="32" fill="none" xmlns="http://www.w3.org/2000/svg"><g clip-path="url(#a)"><ellipse cx="15.971" cy="16" rx="15.971" ry="16" fill="#000"/><path fill-rule="evenodd" clip-rule="evenodd" d="m8.93 12.364 3.936-6.138-5.868 5.868a.89.89 0 0 0 .41 1.492l3.111.787c-.277.437-.592.987-.836 1.57-.224.535-.411 1.147-.43 1.753-.019.62.14 1.286.666 1.81.788.79 1.36 1.064 1.818 1.284l.1.048a2.7 2.7 0 0 1 .537.322c.168.134.373.34.635.701l.149.206c.573.794 1.471 2.041 2.63 2.869.648.462 1.416.825 2.294.896.89.072 1.819-.162 2.764-.77.906-.584 1.502-1.234 1.783-1.99.283-.763.2-1.51-.007-2.187-.188-.62-.502-1.253-.796-1.844l-.055-.111c-.32-.647-.623-1.272-.825-1.927-.393-1.278-.126-1.832.041-2.051a.925.925 0 0 1 .398-.299l.01-.003.019-.005.031-.01.14-.046.367-.12a334.57 334.57 0 0 0 2.25-.753 24.05 24.05 0 0 0 .528-.19 1.52 1.52 0 0 0 .132-.062h.001a.78.78 0 0 0 .376-.874v-.002a.796.796 0 0 0-.143-.293 1.707 1.707 0 0 0-.08-.1 8.494 8.494 0 0 0-.2-.219 1427.31 1427.31 0 0 0-3.53-3.58c-1.086-1.1-2.028-2.054-2.14-2.17.013.013 1.017 1.593 2.01 3.156a682.059 682.059 0 0 0 1.95 3.062 200.715 200.715 0 0 1-1.642.546l-.365.12-.118.038-.016.005a2.314 2.314 0 0 0-.409.17 2.465 2.465 0 0 0-.806.683c-.555.726-.789 1.841-.292 3.455.243.791.601 1.522.918 2.16l.031.064c.316.635.576 1.16.725 1.652.15.491.16.863.037 1.193-.124.335-.431.748-1.166 1.222-.695.448-1.288.569-1.795.528-.519-.042-1.022-.26-1.514-.611-.94-.67-1.692-1.712-2.286-2.532l-.14-.192c-.323-.445-.62-.76-.922-1.002a4.176 4.176 0 0 0-.829-.505 30.86 30.86 0 0 0-.103-.05l-.002-.001c-.403-.194-.79-.38-1.392-.981-.14-.14-.22-.339-.21-.662.01-.339.121-.75.309-1.199.374-.893.968-1.731 1.205-2.048a.892.892 0 0 0-.496-1.4l-2.898-.733Zm6.565 6.367s-1.2 0-2-.736 0-2.209 0-2.209.233.147 1.116 1.178c.883 1.03.883 1.767.883 1.767Z" fill="url(#b)"/></g><defs><linearGradient id="b" x1="16.031" y1="15.063" x2="16" y2="25.844" gradientUnits="userSpaceOnUse"><stop stop-color="#22E1FF"/><stop offset="1" stop-color="#002EFF"/></linearGradient><clipPath id="a"><path fill="#fff" d="M0 0h31.942v32H0z"/></clipPath></defs></svg>