<svg id="svg" version="1.1" xmlns="http://www.w3.org/2000/svg" xmlns:xlink="http://www.w3.org/1999/xlink" width="400" height="400" viewBox="0, 0, 400,400"><g id="svgg"><path id="path0" d="M191.054 53.205 C 176.935 60.740,161.783 76.415,154.456 91.066 C 153.651 92.676,152.699 93.891,151.712 94.568 C 150.880 95.138,147.948 97.091,145.196 98.908 C 125.691 111.789,107.699 131.946,97.986 151.800 C 93.508 160.954,93.808 160.138,87.038 181.600 C 85.395 186.808,84.489 190.397,83.001 197.600 C 82.205 201.450,81.211 206.220,80.792 208.200 C 80.374 210.180,79.926 212.880,79.798 214.200 C 79.669 215.520,79.292 217.985,78.960 219.677 C 77.955 224.799,78.673 229.203,79.994 226.015 C 80.271 225.347,80.627 224.800,80.786 224.800 C 80.944 224.800,81.413 224.170,81.828 223.400 C 82.636 221.899,82.729 221.840,83.509 222.335 C 83.916 222.594,83.856 223.928,83.205 229.029 C 80.677 248.847,82.573 265.626,88.631 277.046 C 93.855 286.893,96.687 288.965,97.317 283.400 C 98.090 276.574,98.063 276.577,101.139 282.900 C 106.882 294.702,106.995 303.154,101.534 312.418 C 99.503 315.862,95.554 320.030,92.290 322.174 C 86.919 325.701,88.951 326.948,97.256 325.222 C 102.617 324.107,106.705 322.575,110.600 320.222 C 111.480 319.690,112.740 318.946,113.400 318.567 C 116.569 316.751,120.645 313.120,124.583 308.604 C 127.418 305.354,127.396 305.358,127.807 308.105 C 128.246 311.036,129.438 310.895,132.659 307.532 C 140.675 299.165,143.463 290.318,142.424 276.543 C 141.891 269.471,138.468 255.952,136.772 254.220 C 136.567 254.011,136.400 253.564,136.400 253.226 C 136.400 252.888,135.968 251.709,135.440 250.606 C 134.912 249.503,134.081 247.610,133.592 246.400 C 133.103 245.190,131.441 241.410,129.898 238.000 C 123.917 224.781,120.400 210.073,120.400 198.279 C 120.400 191.613,120.601 190.663,121.957 190.935 C 124.901 191.524,124.599 193.296,124.606 175.400 C 124.611 159.029,125.379 150.184,127.212 145.369 C 127.457 144.726,127.827 143.300,128.035 142.200 C 128.242 141.100,128.759 139.300,129.183 138.200 C 129.607 137.100,130.440 134.799,131.035 133.087 C 132.367 129.255,133.568 127.910,139.400 123.722 C 145.292 119.491,145.527 119.352,153.800 115.214 C 157.760 113.233,161.849 111.152,162.886 110.591 L 164.772 109.569 164.092 108.142 L 163.411 106.715 164.606 105.739 C 169.848 101.454,187.177 96.394,197.066 96.260 C 202.504 96.187,202.574 96.244,200.033 98.693 C 196.497 102.101,197.191 103.551,205.843 110.836 C 214.146 117.828,214.818 118.727,215.367 123.583 C 215.945 128.702,216.844 129.625,225.407 133.894 C 241.503 141.917,243.952 143.884,267.453 167.654 C 276.765 177.072,276.509 176.695,276.338 180.737 C 276.189 184.288,276.802 184.786,279.423 183.239 C 283.886 180.606,292.767 179.951,296.898 181.951 C 302.033 184.436,301.439 193.535,295.618 201.568 C 294.712 202.819,293.935 204.427,293.781 205.368 C 293.218 208.825,291.926 210.041,285.600 213.066 C 283.290 214.171,280.050 216.109,278.400 217.372 C 271.194 222.890,267.891 222.890,259.899 217.372 C 255.148 214.092,251.061 211.988,246.800 210.626 C 244.930 210.028,242.497 209.193,241.392 208.770 C 240.288 208.346,239.174 208.000,238.917 208.000 C 238.660 208.000,237.043 207.568,235.325 207.041 C 227.556 204.656,223.623 204.222,210.600 204.313 C 189.797 204.457,181.591 200.929,174.988 189.000 C 173.500 186.312,172.610 185.240,171.842 185.213 C 171.340 185.195,171.843 192.442,172.562 195.600 C 174.153 202.588,174.789 205.163,175.380 207.000 C 175.734 208.100,176.486 210.440,177.050 212.200 C 179.428 219.613,181.238 223.597,186.159 232.257 C 190.577 240.031,197.681 248.235,210.100 259.903 C 213.971 263.540,214.080 263.689,212.500 263.169 C 211.895 262.970,211.040 262.689,210.600 262.543 C 203.155 260.084,187.917 249.624,171.623 235.788 C 170.206 234.585,168.721 233.600,168.323 233.600 C 167.925 233.600,167.600 233.319,167.600 232.976 C 167.600 232.633,167.424 232.462,167.208 232.595 C 166.966 232.744,166.955 233.098,167.179 233.519 C 167.379 233.893,168.738 236.720,170.199 239.800 C 177.175 254.505,185.846 264.695,194.800 268.710 C 198.466 270.354,209.891 274.017,211.316 274.006 C 212.596 273.995,230.998 278.781,231.957 279.374 C 232.240 279.548,233.310 279.930,234.336 280.221 C 256.214 286.442,273.457 299.055,283.933 316.500 C 287.186 321.919,287.412 322.148,287.989 320.628 C 288.620 318.969,288.025 316.376,285.091 308.000 C 281.298 297.171,271.165 284.173,259.001 274.536 C 257.241 273.141,255.079 271.395,254.197 270.657 C 253.316 269.918,250.886 268.088,248.797 266.589 C 234.426 256.276,225.833 244.652,221.203 229.260 C 217.547 217.106,218.291 216.190,231.800 216.214 C 244.160 216.236,251.937 218.822,261.412 226.061 C 268.655 231.594,272.227 231.202,280.600 223.955 C 282.743 222.099,285.108 220.686,290.683 217.928 C 298.754 213.936,300.526 212.506,301.775 208.977 C 302.160 207.889,302.803 206.190,303.205 205.200 C 307.505 194.612,309.076 183.365,306.912 178.676 C 305.683 176.014,303.208 173.748,298.560 171.031 C 284.416 162.763,263.694 143.885,260.447 136.309 C 259.327 133.697,258.923 133.585,253.800 134.483 C 249.577 135.222,249.307 135.225,247.081 134.558 C 243.796 133.572,243.910 133.431,248.810 132.416 C 255.457 131.039,259.498 128.743,262.453 124.664 C 264.068 122.435,264.009 120.899,262.300 120.638 C 261.145 120.461,246.865 119.600,245.096 119.600 C 243.603 119.600,244.524 118.919,247.100 118.118 C 251.443 116.768,251.758 116.732,261.618 116.455 L 271.036 116.191 273.618 114.908 C 277.667 112.896,281.762 108.556,281.529 106.524 C 281.404 105.437,281.300 105.389,278.400 105.076 C 272.344 104.423,272.274 103.014,278.256 102.176 C 286.217 101.060,287.848 100.710,290.200 99.614 C 294.757 97.489,298.788 92.228,296.800 91.000 C 295.253 90.044,297.243 88.000,299.720 88.000 C 303.396 88.000,312.455 79.625,311.739 76.888 C 311.271 75.099,309.106 75.705,297.400 80.905 C 290.047 84.171,287.481 85.719,285.652 87.995 C 283.828 90.264,282.852 90.798,279.731 91.228 C 270.529 92.497,262.756 96.518,259.800 101.538 C 258.429 103.866,258.335 103.920,254.809 104.401 C 251.127 104.903,244.918 106.241,242.850 106.977 C 239.300 108.241,239.054 108.127,234.920 103.318 C 233.776 101.987,232.021 100.381,231.020 99.749 C 228.615 98.230,228.666 98.037,232.454 94.252 C 240.388 86.323,245.006 76.158,240.117 77.385 C 239.585 77.519,237.316 77.880,235.075 78.188 C 232.834 78.496,229.740 79.027,228.200 79.367 C 226.660 79.708,224.950 79.988,224.400 79.991 C 223.013 79.998,217.252 81.787,213.322 83.430 C 209.486 85.034,209.438 85.036,203.085 84.014 C 200.398 83.582,197.335 83.119,196.279 82.986 C 193.669 82.658,193.390 81.975,193.978 77.359 C 194.227 75.401,194.684 69.237,194.994 63.661 C 195.702 50.927,195.639 50.759,191.054 53.205 M198.793 134.414 C 197.248 137.300,207.991 146.400,212.943 146.400 C 215.518 146.400,213.707 138.393,210.468 135.461 C 208.312 133.510,199.690 132.737,198.793 134.414 " stroke="none" fill="#fcf7f2" fill-rule="evenodd"></path><path id="path1" d="M0.000 200.000 L 0.000 400.000 200.000 400.000 L 400.000 400.000 400.000 200.000 L 400.000 0.000 200.000 0.000 L 0.000 0.000 0.000 200.000 M195.083 52.761 C 195.606 53.599,194.845 70.540,193.978 77.359 C 193.390 81.975,193.669 82.658,196.279 82.986 C 197.335 83.119,200.398 83.582,203.085 84.014 C 209.438 85.036,209.486 85.034,213.322 83.430 C 217.252 81.787,223.013 79.998,224.400 79.991 C 224.950 79.988,226.660 79.708,228.200 79.367 C 229.740 79.027,232.834 78.496,235.075 78.188 C 237.316 77.880,239.585 77.519,240.117 77.385 C 245.006 76.158,240.388 86.323,232.454 94.252 C 228.666 98.037,228.615 98.230,231.020 99.749 C 232.021 100.381,233.776 101.987,234.920 103.318 C 239.054 108.127,239.300 108.241,242.850 106.977 C 244.918 106.241,251.127 104.903,254.809 104.401 C 258.335 103.920,258.429 103.866,259.800 101.538 C 262.756 96.518,270.529 92.497,279.731 91.228 C 282.852 90.798,283.828 90.264,285.652 87.995 C 287.481 85.719,290.047 84.171,297.400 80.905 C 309.106 75.705,311.271 75.099,311.739 76.888 C 312.455 79.625,303.396 88.000,299.720 88.000 C 297.243 88.000,295.253 90.044,296.800 91.000 C 298.788 92.228,294.757 97.489,290.200 99.614 C 287.848 100.710,286.217 101.060,278.256 102.176 C 272.274 103.014,272.344 104.423,278.400 105.076 C 281.300 105.389,281.404 105.437,281.529 106.524 C 281.762 108.556,277.667 112.896,273.618 114.908 L 271.036 116.191 261.618 116.455 C 251.758 116.732,251.443 116.768,247.100 118.118 C 244.524 118.919,243.603 119.600,245.096 119.600 C 246.865 119.600,261.145 120.461,262.300 120.638 C 264.009 120.899,264.068 122.435,262.453 124.664 C 259.498 128.743,255.457 131.039,248.810 132.416 C 243.910 133.431,243.796 133.572,247.081 134.558 C 249.307 135.225,249.577 135.222,253.800 134.483 C 258.923 133.585,259.327 133.697,260.447 136.309 C 263.694 143.885,284.416 162.763,298.560 171.031 C 303.208 173.748,305.683 176.014,306.912 178.676 C 309.076 183.365,307.505 194.612,303.205 205.200 C 302.803 206.190,302.160 207.889,301.775 208.977 C 300.526 212.506,298.754 213.936,290.683 217.928 C 285.108 220.686,282.743 222.099,280.600 223.955 C 272.227 231.202,268.655 231.594,261.412 226.061 C 251.937 218.822,244.160 216.236,231.800 216.214 C 218.291 216.190,217.547 217.106,221.203 229.260 C 225.833 244.652,234.426 256.276,248.797 266.589 C 250.886 268.088,253.316 269.918,254.197 270.657 C 255.079 271.395,257.241 273.141,259.001 274.536 C 271.165 284.173,281.298 297.171,285.091 308.000 C 288.025 316.376,288.620 318.969,287.989 320.628 C 287.412 322.148,287.186 321.919,283.933 316.500 C 273.457 299.055,256.214 286.442,234.336 280.221 C 233.310 279.930,232.240 279.548,231.957 279.374 C 230.998 278.781,212.596 273.995,211.316 274.006 C 209.891 274.017,198.466 270.354,194.800 268.710 C 185.846 264.695,177.175 254.505,170.199 239.800 C 168.738 236.720,167.379 233.893,167.179 233.519 C 166.955 233.098,166.966 232.744,167.208 232.595 C 167.424 232.462,167.600 232.633,167.600 232.976 C 167.600 233.319,167.925 233.600,168.323 233.600 C 168.721 233.600,170.206 234.585,171.623 235.788 C 187.917 249.624,203.155 260.084,210.600 262.543 C 214.403 263.799,214.436 263.978,210.100 259.903 C 197.681 248.235,190.577 240.031,186.159 232.257 C 181.238 223.597,179.428 219.613,177.050 212.200 C 176.486 210.440,175.734 208.100,175.380 207.000 C 174.789 205.163,174.153 202.588,172.562 195.600 C 171.843 192.442,171.340 185.195,171.842 185.213 C 172.610 185.240,173.500 186.312,174.988 189.000 C 181.591 200.929,189.797 204.457,210.600 204.313 C 223.623 204.222,227.556 204.656,235.325 207.041 C 237.043 207.568,238.660 208.000,238.917 208.000 C 239.174 208.000,240.288 208.346,241.392 208.770 C 242.497 209.193,244.930 210.028,246.800 210.626 C 251.061 211.988,255.148 214.092,259.899 217.372 C 267.891 222.890,271.194 222.890,278.400 217.372 C 280.050 216.109,283.290 214.171,285.600 213.066 C 291.926 210.041,293.218 208.825,293.781 205.368 C 293.935 204.427,294.712 202.819,295.618 201.568 C 301.439 193.535,302.033 184.436,296.898 181.951 C 292.767 179.951,283.886 180.606,279.423 183.239 C 276.802 184.786,276.189 184.288,276.338 180.737 C 276.509 176.695,276.765 177.072,267.453 167.654 C 243.952 143.884,241.503 141.917,225.407 133.894 C 216.844 129.625,215.945 128.702,215.367 123.583 C 214.818 118.727,214.146 117.828,205.843 110.836 C 197.191 103.551,196.497 102.101,200.033 98.693 C 202.574 96.244,202.504 96.187,197.066 96.260 C 187.177 96.394,169.848 101.454,164.606 105.739 L 163.411 106.715 164.092 108.142 L 164.772 109.569 162.886 110.591 C 161.849 111.152,157.760 113.233,153.800 115.214 C 145.527 119.352,145.292 119.491,139.400 123.722 C 133.568 127.910,132.367 129.255,131.035 133.087 C 130.440 134.799,129.607 137.100,129.183 138.200 C 128.759 139.300,128.242 141.100,128.035 142.200 C 127.827 143.300,127.457 144.726,127.212 145.369 C 125.379 150.184,124.611 159.029,124.606 175.400 C 124.599 193.296,124.901 191.524,121.957 190.935 C 120.601 190.663,120.400 191.613,120.400 198.279 C 120.400 210.073,123.917 224.781,129.898 238.000 C 131.441 241.410,133.103 245.190,133.592 246.400 C 134.081 247.610,134.912 249.503,135.440 250.606 C 135.968 251.709,136.400 252.888,136.400 253.226 C 136.400 253.564,136.567 254.011,136.772 254.220 C 138.468 255.952,141.891 269.471,142.424 276.543 C 143.463 290.318,140.675 299.165,132.659 307.532 C 129.438 310.895,128.246 311.036,127.807 308.105 C 127.396 305.358,127.418 305.354,124.583 308.604 C 120.645 313.120,116.569 316.751,113.400 318.567 C 112.740 318.946,111.480 319.690,110.600 320.222 C 106.705 322.575,102.617 324.107,97.256 325.222 C 88.951 326.948,86.919 325.701,92.290 322.174 C 105.639 313.407,108.913 298.877,101.139 282.900 C 98.063 276.577,98.090 276.574,97.317 283.400 C 96.687 288.965,93.855 286.893,88.631 277.046 C 82.573 265.626,80.677 248.847,83.205 229.029 C 83.856 223.928,83.916 222.594,83.509 222.335 C 82.729 221.840,82.636 221.899,81.828 223.400 C 81.413 224.170,80.944 224.800,80.786 224.800 C 80.627 224.800,80.271 225.347,79.994 226.015 C 78.673 229.203,77.955 224.799,78.960 219.677 C 79.292 217.985,79.669 215.520,79.798 214.200 C 79.926 212.880,80.374 210.180,80.792 208.200 C 81.211 206.220,82.205 201.450,83.001 197.600 C 84.489 190.397,85.395 186.808,87.038 181.600 C 93.808 160.138,93.508 160.954,97.986 151.800 C 107.699 131.946,125.691 111.789,145.196 98.908 C 147.948 97.091,150.880 95.138,151.712 94.568 C 152.699 93.891,153.651 92.676,154.456 91.066 C 161.783 76.415,176.935 60.740,191.054 53.205 C 193.686 51.801,194.432 51.719,195.083 52.761 M208.126 134.180 C 212.586 135.770,216.775 146.400,212.943 146.400 C 207.991 146.400,197.248 137.300,198.793 134.414 C 199.327 133.415,205.545 133.259,208.126 134.180 " stroke="none" fill="#f4741b" fill-rule="evenodd"></path></g></svg>