<svg xmlns="http://www.w3.org/2000/svg" viewBox="0 0 200 110"><path d="M200 47.3h-14.1c-1.3-4.1-4-9-7.7-12.9-11.6-11.7-30.5-11.4-42.2.3L84.2 87.1c-16 17.2-44.2 17.2-61.2.1l.1.1C16.3 80.4 12.3 71.9 10.9 63H0V49.2h10.9c1.4-8.9 5.4-17.5 12.2-24.4 13.6-13.7 34-16.4 50.2-8.1l2.9-2.8c14.7-15.8 39.6-17 56.8-3.8-4.3 2.3-8.3 5.4-11.9 8.9-11.3-6.5-25.9-5-35.5 4.8l-10.7 11c-11.6-11.7-30.4-11.7-42 0-4 4.1-6.7 9.1-7.9 14.4h29.6l.1 13.8H25.1c1.2 5.2 3.9 10 7.9 14.2 11.6 11.7 30.5 11.7 42.1 0l51.8-52.4c16-17.1 44.2-17.3 61.2-.2v-.1c6.4 6.6 10.3 14.6 11.9 22.8zm0 16.2c-1.6 9.4-5.5 16.8-12 23.3-13.6 13.8-34 16.8-50.3 8.5l-2.9 2.8c-14.7 15.8-39.6 17-56.8 3.8 4.3-2.3 8.3-5.4 11.9-8.9 11.3 6.5 25.9 5 35.5-4.8l1.1-1.1 9.6-10c11.6 11.7 30.4 11.6 42-.1v-.2c3.7-3.7 6.3-8.1 7.6-13.5H200v.2z"/></svg>