<svg width="138" height="138" viewBox="0 0 138 138" fill="none" xmlns="http://www.w3.org/2000/svg">
<rect x="10" y="10" width="118" height="118" rx="59" fill="white"/>
<rect x="10" y="10" width="118" height="118" rx="59" stroke="black" stroke-width="2"/>
<path d="M75.3841 76.1V79.25H40.8241C41.8141 86.45 46.3141 90.59 53.2441 90.59C58.1941 90.59 61.8841 88.43 63.4141 84.65H74.7541C72.8641 94.37 64.1341 100.85 52.7041 100.85C38.7541 100.85 29.3041 90.95 29.3041 76.1C29.3041 61.25 38.5741 51.35 52.3441 51.35C66.1141 51.35 75.3841 61.25 75.3841 76.1ZM52.3441 61.61C46.0441 61.61 41.9941 65.48 40.9141 72.23H63.6841C62.6041 65.48 58.5541 61.61 52.3441 61.61ZM94.9001 60.53C86.5301 60.53 80.6801 54.77 80.6801 46.49C80.6801 38.03 86.5301 32.18 94.9001 32.18C103.18 32.18 108.94 38.03 108.94 46.49C108.94 54.77 103.18 60.53 94.9001 60.53ZM94.9001 52.7C98.5001 52.7 101.11 50.09 101.11 46.49C101.11 42.71 98.5001 40.01 94.9001 40.01C91.2101 40.01 88.6001 42.71 88.6001 46.49C88.6001 50.09 91.2101 52.7 94.9001 52.7Z" fill="black"/>
</svg>
