<svg width="48" height="48" viewBox="0 0 48 48" fill="none" xmlns="http://www.w3.org/2000/svg">
<circle cx="24" cy="24" r="24" fill="#08131F"/>
<g clip-path="url(#clip0_4822_16111)">
<path d="M34.665 24.6659L19.0003 33.7099C17.9185 34.3345 17.5477 35.7175 18.1721 36.7989C18.7964 37.8803 20.1795 38.2506 21.2613 37.6261L36.926 28.5821C38.0077 27.9575 38.3786 26.5745 37.7542 25.4931C37.1299 24.4117 35.7468 24.0413 34.665 24.6659Z" fill="#FF7829"/>
<path d="M23.8306 21.7746L12.0821 28.5576C11.0003 29.1821 10.6295 30.5651 11.2538 31.6465C11.8782 32.728 13.2613 33.0983 14.3431 32.4737L26.0916 25.6907C27.1734 25.0662 27.5442 23.6832 26.9198 22.6017C26.2955 21.5203 24.9124 21.15 23.8306 21.7746Z" fill="#FCBF22"/>
<path d="M26.7361 10.9318L11.0714 19.9758C9.98961 20.6003 9.61879 21.9833 10.2431 23.0648C10.8675 24.1462 12.2506 24.5165 13.3324 23.8919L28.9971 14.8479C30.0788 14.2234 30.4497 12.8404 29.8253 11.759C29.201 10.6776 27.8179 10.3072 26.7361 10.9318Z" fill="#2AE5B9"/>
</g>
<defs>
<clipPath id="clip0_4822_16111">
<rect width="28.4444" height="28.3403" fill="white" transform="translate(9.77777 9.77771)"/>
</clipPath>
</defs>
</svg>
