<svg fill="none" height="115" width="116" xmlns="http://www.w3.org/2000/svg" xmlns:xlink="http://www.w3.org/1999/xlink"><linearGradient id="a" gradientUnits="userSpaceOnUse" x1="19.049" x2="83.049" y1="92.008" y2="35.087"><stop offset=".073" stop-color="#aac4fd"/><stop offset="1" stop-color="#76a0fc"/></linearGradient><clipPath id="b"><path d="m0 0h115v115h-115z" transform="translate(.48)"/></clipPath><g clip-path="url(#b)"><circle cx="57.764" cy="57.286" fill="url(#a)" r="57.295"/><path d="m89.019 49.396-31.296-31.957-31.298 31.957 15.647 15.977 15.651-15.977 15.648 15.977z" fill="#fff"/><g fill="#1f2333"><path d="m56.462 94.24c-1.556 0-2.894-.28-4.016-.841-1.103-.579-1.953-1.393-2.55-2.442-.58-1.067-.869-2.324-.869-3.771v-12.319h3.582v12.427c0 1.158.326 2.071.977 2.74.669.67 1.628 1.004 2.876 1.004s2.198-.334 2.849-1.004c.67-.669 1.004-1.582 1.004-2.74v-12.427h3.581v12.319c0 1.447-.298 2.704-.895 3.771-.579 1.05-1.429 1.863-2.55 2.442-1.104.56-2.434.841-3.99.841zm15.623-.38v-18.993h8.248c1.194 0 2.234.208 3.12.624.887.416 1.575 1.004 2.063 1.764s.733 1.655.733 2.686v.325c0 1.14-.272 2.063-.814 2.768a4.787 4.787 0 0 1 -2.008 1.547v.488c.723.036 1.284.29 1.682.76.398.452.597 1.058.597 1.818v6.213h-3.582v-5.698c0-.434-.117-.787-.352-1.058-.218-.271-.588-.407-1.113-.407h-4.993v7.163zm3.582-10.419h4.287c.85 0 1.51-.226 1.98-.678.489-.47.733-1.086.733-1.845v-.272c0-.76-.235-1.365-.706-1.818-.47-.47-1.14-.705-2.007-.705h-4.287z"/><path clip-rule="evenodd" d="m28.946 94.307v-19.887h13.104v4.15h-8.628v3.637h7.868v4.15h-7.868v3.8h8.79v4.15h-13.265zm23.296-.51-.004-.002c-1.176-.617-2.09-1.49-2.731-2.617l-.002-.004-.003-.004c-.62-1.144-.922-2.477-.922-3.984v-12.766h4.476v12.874c0 1.07.298 1.86.848 2.427.561.56 1.39.87 2.558.87 1.17 0 1.987-.312 2.528-.868l.005-.005c.567-.567.873-1.357.873-2.424v-12.874h4.475v12.766c0 1.508-.311 2.843-.951 3.988-.624 1.13-1.541 2.005-2.737 2.622l-.002.002c-1.18.6-2.583.89-4.191.89-1.609 0-3.02-.29-4.216-.89zm10.759-2.84c.597-1.067.895-2.324.895-3.771v-12.319h-3.581v12.427c0 1.158-.335 2.071-1.004 2.74-.651.67-1.601 1.004-2.85 1.004-1.247 0-2.206-.334-2.875-1.004-.651-.669-.977-1.582-.977-2.74v-12.427h-3.582v12.319c0 1.447.29 2.704.869 3.771.597 1.05 1.447 1.863 2.55 2.442 1.122.56 2.46.841 4.016.841 1.555 0 2.885-.28 3.988-.841 1.122-.579 1.972-1.393 2.551-2.442zm8.637 3.35v-19.887h8.695c1.246 0 2.353.217 3.31.666.956.449 1.711 1.09 2.249 1.927.54.842.803 1.824.803 2.928v.325c0 1.21-.288 2.237-.906 3.04a5.281 5.281 0 0 1 -1.638 1.423 2.51 2.51 0 0 1 1.296.808c.485.553.706 1.272.706 2.11v6.66h-4.476v-6.145c0-.35-.093-.591-.244-.765l-.005-.007-.006-.007c-.096-.12-.304-.239-.763-.239h-4.546v7.163zm4.028-7.61h4.993c.525 0 .895.136 1.112.407.236.271.353.624.353 1.058v5.698h3.582v-6.213c0-.76-.2-1.366-.597-1.818-.398-.47-.959-.724-1.682-.76v-.488a4.787 4.787 0 0 0 2.007-1.547c.543-.705.815-1.628.815-2.768v-.325c0-1.031-.245-1.927-.733-2.686-.489-.76-1.176-1.348-2.062-1.764-.887-.416-1.927-.624-3.12-.624h-8.25v18.993h3.582zm5.982-7.55-.003-.002c-.363-.364-.904-.575-1.692-.575h-3.84v4.424h3.84c.771 0 1.307-.203 1.671-.553.39-.376.596-.869.596-1.523v-.272c0-.66-.2-1.141-.569-1.495l-.003-.003zm.286 3.616c-.47.452-1.13.678-1.98.678h-4.287v-5.318h4.287c.868 0 1.537.235 2.007.705.47.453.706 1.059.706 1.818v.272c0 .76-.244 1.374-.733 1.845z" fill-rule="evenodd"/></g></g></svg>