<?xml version="1.0" encoding="UTF-8"?><svg id="a" xmlns="http://www.w3.org/2000/svg" xmlns:xlink="http://www.w3.org/1999/xlink" viewBox="0 0 50 50"><defs><linearGradient id="b" x1="-1846.18337" y1="387.40329" x2="-1846.89033" y2="388.11034" gradientTransform="translate(92365 19426) scale(50 -50)" gradientUnits="userSpaceOnUse"><stop offset="0" stop-color="#8656ef"/><stop offset=".97" stop-color="#1aa3ff"/></linearGradient></defs><path id="c" class="e" style="fill:url(#b);fill-rule:evenodd;" d="M0,25C0,11.2,11.2,0,25,0s25,11.2,25,25-11.2,25-25,25S0,38.8,0,25Z"/><path class="d" style="fill:#fff;" d="M16.1,26.1l-.9,1.2c-.2,.5,.1,1,.6,1h3c.9,3.9,3.6,6.5,7.3,6.5,2.6,0,4.5-1.3,5.8-3.8,.2-.3,0-.7-.3-.9l-1.4-.6c-.3-.1-.7,0-.8,.3-.7,1.4-1.8,2.2-3.2,2.2-1.3,0-2.4-.6-3.2-2-.3-.5-.6-1.1-.8-1.7h3.8c.2,0,.5-.1,.6-.4l.9-1.2c.2-.4-.1-.9-.6-.9h-5.1v-1.6h4.2c.2,0,.5-.1,.6-.4l.9-1.2c.2-.4-.1-.9-.6-.9h-4.7c.7-2.2,2.1-3.7,4-3.7,1.4,0,2.5,.8,3.2,2,.2,.3,.5,.4,.8,.3l1.4-.6c.3-.2,.5-.6,.3-.9-1.3-2.4-3.2-3.6-5.7-3.6-2.3,0-4.1,.9-5.5,2.7-.8,1.1-1.4,2.3-1.7,3.7h-2.1c-.2,0-.5,.1-.6,.4l-.9,1.2c-.2,.4,.1,.9,.6,.9h2.6v1.6h-1.7c-.5,.1-.7,.2-.8,.4h0Z"/><path class="d" style="fill:#fff;" d="M8.5,23.9c.5-8.2,7.1-14.9,15.3-15.4,4.3-.3,8.3,1.1,11.4,3.6,.3,.2,.7,.2,1,0l1.2-1.1c.4-.3,.4-.9,0-1.2-3.6-3-8.3-4.7-13.4-4.5C14.1,5.7,5.9,13.8,5.3,23.9c-.2,4.4,1,8.4,3.2,11.8,.3,.4,.8,.5,1.2,.2l1.2-1.1c.3-.3,.3-.7,.1-1-1.8-2.9-2.7-6.3-2.5-9.9h0Z"/><path class="d" style="fill:#fff;" d="M41.4,14.2c-.3-.4-.8-.5-1.2-.2l-1.2,1.1c-.3,.3-.3,.7-.1,1,1.8,2.8,2.7,6.2,2.5,9.8-.5,8.2-7.1,14.9-15.3,15.4-4.3,.3-8.3-1.1-11.4-3.6-.3-.2-.7-.2-1,0l-1.2,1.1c-.4,.3-.4,.9,0,1.2,3.6,3,8.3,4.7,13.4,4.5,10.1-.40001,18.3-8.5,18.8-18.6,.1-4.2-1.1-8.3-3.3-11.7h0Z"/></svg>