<svg viewBox="0 0 1000 1000" xmlns="http://www.w3.org/2000/svg"><linearGradient id="a" gradientUnits="userSpaceOnUse" x1="500.5" x2="500.5" y1="941.125" y2="59.875"><stop offset="0" stop-color="#243e90"/><stop offset="1" stop-color="#4554a5"/></linearGradient><linearGradient id="b" gradientUnits="userSpaceOnUse" x1="500.5" x2="500.5" y1="7" y2="994"><stop offset="0" stop-color="#fff"/><stop offset="0" stop-color="#faed24"/><stop offset="1" stop-color="#f0b322"/></linearGradient><circle cx="500.5" cy="500.5" fill="url(#a)" r="440.6"/><path d="M500.5 67c58.5 0 115.3 11.5 168.7 34 51.6 21.8 98 53.1 137.8 92.9s71.1 86.2 92.9 137.8c22.6 53.4 34 110.2 34 168.7s-11.5 115.3-34 168.7c-21.8 51.6-53.1 98-92.9 137.8s-86.2 71.1-137.8 92.9c-53.4 22.6-110.2 34-168.7 34s-115.3-11.5-168.7-34c-51.6-21.8-98-53.1-137.8-92.9s-71.1-86.2-92.9-137.8C78.5 615.8 67 559 67 500.5s11.5-115.3 34-168.7c21.8-51.6 53.1-98 92.9-137.8s86.2-71.1 137.8-92.9C385.2 78.5 442 67 500.5 67m0-60C227.9 7 7 227.9 7 500.5S227.9 994 500.5 994 994 773.1 994 500.5 773.1 7 500.5 7z" fill="url(#b)"/><g fill="#fff"><path d="M578.8 810.7H225.3v-95.1h353.5c50.1 0 92.4-30.4 92.4-66.4V508.5h95.1v140.7c0 89.1-84.1 161.5-187.5 161.5zM318.1 506.1H223V371c0-103.4 84.1-187.5 187.5-187.5h356.6v95.1H410.6c-51 0-92.4 41.5-92.4 92.4v135.1z"/><path d="M535.6 310.7c17 0 32.5 1.8 46.7 5.4 14.1 3.6 27.8 8.6 41 15l-24.5 57.6c-11.6-5.1-22.3-9.1-32.1-12-9.9-2.9-20.2-4.3-31.1-4.3-20.1 0-36.7 5.9-50 17.6s-21.8 28.6-25.5 50.7h100.5v43.9h-104c0 1.4-.1 3.1-.3 5.4-.2 2.2-.3 4.8-.3 7.9v7.6c0 2.4.2 4.9.5 7.6h88.2v44.4h-84.1c8.2 40.5 34.8 60.7 80.1 60.7 12.9 0 25.1-1.3 36.5-3.8s22-6 31.9-10.5v63.7c-9.5 4.8-20.1 8.4-31.9 11-11.7 2.5-25.4 3.8-41 3.8-39.8 0-72.9-10.8-99.4-32.4s-43.3-52.4-50.5-92.5H352v-44.4h29.6c-.7-4.8-1-9.9-1-15.3v-7.6c0-2.4.2-4.2.5-5.6H352v-43.9h33.1c4.4-27.2 13.4-50.5 27-69.9s30.9-34.2 52-44.6c21.2-10.3 45-15.5 71.5-15.5z"/></g></svg>