<?xml version="1.0" encoding="utf-8"?>
<!-- Generator: Adobe Illustrator 27.7.0, SVG Export Plug-In . SVG Version: 6.00 Build 0)  -->
<svg version="1.1" id="Layer_1" xmlns="http://www.w3.org/2000/svg" xmlns:xlink="http://www.w3.org/1999/xlink" x="0px" y="0px"
	 viewBox="0 0 1000 1000" style="enable-background:new 0 0 1000 1000;" xml:space="preserve">
<style type="text/css">
	.st0{fill:url(#SVGID_1_);}
	.st1{fill:url(#SVGID_00000182505580229114448700000005287678907584998056_);}
	.st2{fill:#FFFFFF;}
</style>
<g id="EUROs">
	<g>
		<linearGradient id="SVGID_1_" gradientUnits="userSpaceOnUse" x1="500.5" y1="941.125" x2="500.5" y2="59.875">
			<stop  offset="0" style="stop-color:#243E90"/>
			<stop  offset="1" style="stop-color:#4554A5"/>
		</linearGradient>
		<circle class="st0" cx="500.5" cy="500.5" r="440.6"/>
		<g>
			
				<linearGradient id="SVGID_00000044178910672078526100000012616823534772455318_" gradientUnits="userSpaceOnUse" x1="500.5" y1="7" x2="500.5" y2="994">
				<stop  offset="0" style="stop-color:#FFFFFF"/>
				<stop  offset="0" style="stop-color:#FAED24"/>
				<stop  offset="1" style="stop-color:#F0B322"/>
			</linearGradient>
			<path style="fill:url(#SVGID_00000044178910672078526100000012616823534772455318_);" d="M500.5,67c58.5,0,115.3,11.5,168.7,34
				c51.6,21.8,98,53.1,137.8,92.9c39.8,39.8,71.1,86.2,92.9,137.8c22.6,53.4,34,110.2,34,168.7s-11.5,115.3-34,168.7
				c-21.8,51.6-53.1,98-92.9,137.8c-39.8,39.8-86.2,71.1-137.8,92.9c-53.4,22.6-110.2,34-168.7,34s-115.3-11.5-168.7-34
				c-51.6-21.8-98-53.1-137.8-92.9c-39.8-39.8-71.1-86.2-92.9-137.8C78.5,615.8,67,559,67,500.5s11.5-115.3,34-168.7
				c21.8-51.6,53.1-98,92.9-137.8c39.8-39.8,86.2-71.1,137.8-92.9C385.2,78.5,442,67,500.5,67 M500.5,7C227.9,7,7,227.9,7,500.5
				S227.9,994,500.5,994S994,773.1,994,500.5S773.1,7,500.5,7L500.5,7z"/>
		</g>
	</g>
	<g>
		<g>
			<g>
				<path class="st2" d="M578.8,810.7H225.3v-95.1h353.5c50.1,0,92.4-30.4,92.4-66.4V508.5h95.1v140.7
					C766.3,738.3,682.2,810.7,578.8,810.7z"/>
			</g>
		</g>
		<g>
			<g>
				<path class="st2" d="M318.1,506.1h-95.1V371c0-103.4,84.1-187.5,187.5-187.5h356.6v95.1H410.6c-51,0-92.4,41.5-92.4,92.4V506.1z
					"/>
			</g>
		</g>
		<g>
			<path class="st2" d="M535.6,310.7c17,0,32.5,1.8,46.7,5.4c14.1,3.6,27.8,8.6,41,15l-24.5,57.6c-11.6-5.1-22.3-9.1-32.1-12
				c-9.9-2.9-20.2-4.3-31.1-4.3c-20.1,0-36.7,5.9-50,17.6c-13.3,11.7-21.8,28.6-25.5,50.7h100.5v43.9h-104c0,1.4-0.1,3.1-0.3,5.4
				c-0.2,2.2-0.3,4.8-0.3,7.9c0,2.7,0,5.3,0,7.6c0,2.4,0.2,4.9,0.5,7.6h88.2v44.4h-84.1c8.2,40.5,34.8,60.7,80.1,60.7
				c12.9,0,25.1-1.3,36.5-3.8c11.4-2.5,22-6,31.9-10.5v63.7c-9.5,4.8-20.1,8.4-31.9,11c-11.7,2.5-25.4,3.8-41,3.8
				c-39.8,0-72.9-10.8-99.4-32.4c-26.5-21.6-43.3-52.4-50.5-92.5H352v-44.4h29.6c-0.7-4.8-1-9.9-1-15.3c0-2.7,0-5.3,0-7.6
				c0-2.4,0.2-4.2,0.5-5.6H352v-43.9h33.1c4.4-27.2,13.4-50.5,27-69.9c13.6-19.4,30.9-34.2,52-44.6
				C485.3,315.9,509.1,310.7,535.6,310.7z"/>
		</g>
	</g>
</g>
</svg>
