<svg xmlns="http://www.w3.org/2000/svg" viewBox="0 0 50 50"><defs><linearGradient id="a" x1="-1846.183" y1="387.403" x2="-1846.89" y2="388.11" gradientTransform="matrix(50 0 0 -50 92365 19426)" gradientUnits="userSpaceOnUse"><stop offset="0" stop-color="#8656ef"/><stop offset=".97" stop-color="#1aa3ff"/></linearGradient></defs><path class="e" d="M0 25C0 11.2 11.2 0 25 0s25 11.2 25 25-11.2 25-25 25S0 38.8 0 25z" fill="url(#a)" fill-rule="evenodd"/><path class="d" d="M16.1 26.1l-.9 1.2c-.2.5.1 1 .6 1h3c.9 3.9 3.6 6.5 7.3 6.5 2.6 0 4.5-1.3 5.8-3.8.2-.3 0-.7-.3-.9l-1.4-.6c-.3-.1-.7 0-.8.3-.7 1.4-1.8 2.2-3.2 2.2-1.3 0-2.4-.6-3.2-2-.3-.5-.6-1.1-.8-1.7H26c.2 0 .5-.1.6-.4l.9-1.2c.2-.4-.1-.9-.6-.9h-5.1v-1.6H26c.2 0 .5-.1.6-.4l.9-1.2c.2-.4-.1-.9-.6-.9h-4.7c.7-2.2 2.1-3.7 4-3.7 1.4 0 2.5.8 3.2 2 .2.3.5.4.8.3l1.4-.6c.3-.2.5-.6.3-.9-1.3-2.4-3.2-3.6-5.7-3.6-2.3 0-4.1.9-5.5 2.7-.8 1.1-1.4 2.3-1.7 3.7h-2.1c-.2 0-.5.1-.6.4l-.9 1.2c-.2.4.1.9.6.9h2.6v1.6h-1.7c-.5.1-.7.2-.8.4z" fill="#fff"/><path class="d" d="M8.5 23.9C9 15.7 15.6 9 23.8 8.5c4.3-.3 8.3 1.1 11.4 3.6.3.2.7.2 1 0l1.2-1.1c.4-.3.4-.9 0-1.2-3.6-3-8.3-4.7-13.4-4.5-9.9.4-18.1 8.5-18.7 18.6-.2 4.4 1 8.4 3.2 11.8.3.4.8.5 1.2.2l1.2-1.1c.3-.3.3-.7.1-1-1.8-2.9-2.7-6.3-2.5-9.9zm32.9-9.7c-.3-.4-.8-.5-1.2-.2L39 15.1c-.3.3-.3.7-.1 1 1.8 2.8 2.7 6.2 2.5 9.8-.5 8.2-7.1 14.9-15.3 15.4-4.3.3-8.3-1.1-11.4-3.6-.3-.2-.7-.2-1 0l-1.2 1.1c-.4.3-.4.9 0 1.2 3.6 3 8.3 4.7 13.4 4.5C36 44.1 44.2 36 44.7 25.9c.1-4.2-1.1-8.3-3.3-11.7z" fill="#fff"/></svg>