<svg width="32" height="32" viewBox="0 0 32 32" fill="none" xmlns="http://www.w3.org/2000/svg">
<rect width="32" height="32" rx="16" fill="#A5E5F7"/>
<path d="M23.6746 10.6051C23.4764 10.4366 20.862 10.6289 20.862 10.6289C20.4458 10.7101 20.4339 10.4307 20.4339 10.4307L20.4022 10.2919C20.4022 10.2919 19.7798 6.56752 16.9672 6.39904C16.9672 6.39904 14.9851 6.30985 13.2012 8.29394C13.2012 8.29394 11.9683 9.66556 11.7166 10.2305C11.6207 10.3586 11.4784 10.4441 11.3202 10.4683C11.3202 10.4683 8.80486 11.4594 8.45997 11.7151C8.11508 11.9708 8.22013 12.2601 8.22013 12.2601C8.22798 12.6329 8.36577 12.9911 8.6097 13.2731C8.85362 13.555 9.18836 13.7429 9.55608 13.8042C9.55608 13.8042 9.81573 13.8974 10.6284 12.9915L11.6195 12.0619C11.6195 12.0619 12.3964 14.3433 12.5134 14.4543C12.6303 14.5653 12.7374 14.708 13.3241 14.6407C13.9108 14.5733 14.6362 14.1194 14.6897 13.4514C14.6897 13.4514 14.7512 13.3047 14.4023 12.9658C14.4023 12.9658 12.7849 11.0035 12.7433 10.9599C12.7017 10.9163 12.6264 10.8271 12.777 10.6408C12.9276 10.4544 14.4142 8.14132 16.3448 7.98473C16.3448 7.98473 17.4806 7.84202 17.6907 9.22157C17.6907 9.22157 17.1297 9.03327 16.9731 9.12643C16.8165 9.21959 16.7055 9.31869 16.7571 9.74286V10.4346C16.7566 10.4406 16.7566 10.4465 16.7571 10.4525C16.7571 10.5278 16.7254 10.7062 16.3289 10.6289C16.3289 10.6289 13.7066 10.4307 13.5163 10.6051C13.326 10.7795 13.3756 10.835 13.55 11.0669L16.1466 14.4821C15.9694 14.6095 15.8315 14.784 15.7485 14.9858C15.6654 15.1876 15.6406 15.4086 15.6768 15.6238C15.761 16.13 16.1916 16.3455 16.4636 16.4322C16.6103 16.479 16.772 16.4447 16.9207 16.4849C16.9939 16.5047 17.0586 16.5523 17.0683 16.6565C17.0921 16.9122 17.3061 17.7506 17.2942 17.9012C17.2823 18.0519 17.3359 18.0994 16.9672 18.151C16.5985 18.2025 14.549 18.3333 14.3904 18.9736L16.5439 19.0514C16.8242 19.0615 17.1239 19.0959 17.3167 19.2996V19.2996C17.4141 19.4026 17.4871 19.5262 17.5301 19.6613L17.5975 20.5394C17.5975 20.5394 17.6001 20.5888 17.5975 20.6171C17.5949 20.6454 17.5851 20.6725 17.5689 20.6959C17.5528 20.7192 17.5308 20.738 17.5053 20.7503C17.4797 20.7627 17.4369 20.7713 17.4369 20.7713L17.2011 20.7832C17.2011 20.7832 15.7462 20.8625 15.4885 21.5761L16.8694 21.6185C17.1527 21.6272 17.4814 21.635 17.6452 21.8663C17.6804 21.9161 17.7048 21.9744 17.7085 22.0419C17.7244 22.3312 17.7224 22.7891 17.7224 22.7891C17.7224 22.7891 17.7224 22.9239 17.4607 22.9239C17.1991 22.9239 16.208 23.1499 16.1288 23.7167C16.1288 23.7167 17.4944 23.7326 17.5162 23.7425C17.597 23.7702 17.6679 23.8211 17.7201 23.8887V23.8887C17.8235 24.0229 17.8421 24.2073 17.8257 24.3759C17.8212 24.4223 17.8126 24.4683 17.8 24.5133C17.7772 24.5947 17.7171 24.6849 17.6682 24.7538V24.7538C17.6335 24.8027 17.6154 24.8358 17.5946 24.8921C17.5536 25.0031 17.4999 25.1985 17.5777 25.3104C17.7521 25.5086 18.1723 25.6077 18.5905 25.5978C19.0088 25.5879 19.427 25.5125 19.6014 25.3104C19.7144 25.1478 19.5499 24.8089 19.5499 24.8089C19.5499 24.8089 19.4508 24.6682 19.423 24.6325C19.3493 24.4733 19.3305 24.2941 19.3695 24.1231C19.3757 24.0379 19.4069 23.9564 19.459 23.8887C19.5112 23.8211 19.5821 23.7702 19.6629 23.7425C19.6946 23.7326 21.0602 23.7167 21.0602 23.7167C20.981 23.1459 19.9859 22.9239 19.7283 22.9239C19.4706 22.9239 19.4765 22.797 19.4765 22.797C19.4765 22.797 19.4765 22.3392 19.4904 22.0498C19.4983 21.8842 19.6321 21.7738 19.7452 21.7096C19.8449 21.653 19.9608 21.638 20.0754 21.6349L21.7124 21.5919C21.4547 20.8704 19.9998 20.7991 19.9998 20.7991L19.7639 20.7872C19.7639 20.7872 19.7212 20.778 19.6956 20.7656C19.6701 20.7533 19.6481 20.7345 19.632 20.7112C19.6158 20.6878 19.606 20.6607 19.6034 20.6324C19.6008 20.6041 19.6034 20.5553 19.6034 20.5553L19.6449 20.0141C19.6621 19.7903 19.6896 19.5568 19.8286 19.3805C19.8462 19.3581 19.8649 19.3365 19.8845 19.3158V19.3158C20.0773 19.1122 20.3767 19.0774 20.6568 19.0673L22.8104 18.9894C22.6459 18.3492 20.5964 18.2223 20.2337 18.1668C19.871 18.1113 19.9185 18.0677 19.9067 17.9171C19.8948 17.7664 20.1049 16.926 20.1346 16.6723C20.1435 16.5963 20.1811 16.5505 20.2293 16.5237C20.3971 16.4305 20.613 16.4944 20.7936 16.4295C21.0646 16.3321 21.4454 16.1129 21.5241 15.6396C21.5607 15.4246 21.5363 15.2036 21.4536 15.0018C21.3709 14.8 21.2333 14.6254 21.0563 14.4979L23.633 11.0828C23.8154 10.835 23.8629 10.7736 23.6746 10.6051Z" fill="#02010A"/>
</svg>
