<svg id="svg" version="1.1" xmlns="http://www.w3.org/2000/svg" xmlns:xlink="http://www.w3.org/1999/xlink" width="400" height="400" viewBox="0, 0, 400,400"><g id="svgg"><path id="path0" d="M192.083 20.019 C 162.181 21.368,133.157 30.141,107.333 45.635 C 104.180 47.527,96.667 52.434,96.667 52.601 C 96.667 52.657,97.024 53.201,97.460 53.810 C 97.896 54.419,98.477 55.239,98.751 55.634 C 99.026 56.029,99.737 57.047,100.333 57.897 C 100.929 58.747,102.797 61.425,104.484 63.847 C 106.171 66.268,107.698 68.413,107.877 68.613 L 108.202 68.976 111.393 66.851 C 158.799 35.265,220.350 31.420,271.353 56.858 C 277.514 59.930,285.437 64.557,289.868 67.668 C 291.356 68.713,291.092 68.814,292.600 66.625 C 293.310 65.594,295.828 61.961,298.196 58.552 C 300.563 55.143,302.499 52.256,302.498 52.135 C 302.493 51.485,290.131 43.938,282.833 40.130 C 276.578 36.865,268.076 33.113,261.575 30.747 C 239.375 22.668,215.400 18.967,192.083 20.019 M141.458 87.912 C 141.298 88.132,141.167 88.353,141.167 88.401 C 141.167 88.450,140.841 88.998,140.444 89.620 C 140.046 90.241,139.668 90.862,139.604 91.000 C 139.435 91.361,139.078 91.937,137.847 93.833 C 137.253 94.749,136.637 95.826,135.989 97.083 C 135.585 97.868,135.410 98.163,134.751 99.167 C 134.481 99.579,134.007 100.404,133.698 101.000 C 133.389 101.596,133.078 102.158,133.007 102.250 C 132.819 102.492,132.052 103.876,131.204 105.500 C 130.798 106.279,130.198 107.404,129.873 108.000 C 128.863 109.848,127.825 111.847,126.974 113.583 C 126.525 114.500,126.055 115.438,125.930 115.667 C 125.308 116.805,122.656 122.236,122.105 123.500 C 122.045 123.638,121.809 124.081,121.581 124.485 C 121.353 124.889,121.167 125.278,121.167 125.350 C 121.167 125.480,120.315 127.356,119.236 129.601 C 118.923 130.252,118.667 130.864,118.667 130.960 C 118.667 131.056,118.528 131.424,118.357 131.776 C 117.473 133.608,116.842 135.019,116.504 135.917 C 116.297 136.467,116.061 137.047,115.980 137.206 C 115.900 137.365,115.833 137.568,115.833 137.657 C 115.833 137.746,115.617 138.290,115.352 138.868 C 114.657 140.381,114.267 141.293,113.867 142.333 C 113.673 142.837,113.089 144.337,112.568 145.667 C 112.048 146.996,111.413 148.683,111.158 149.417 C 110.481 151.362,110.176 152.208,110.015 152.583 C 109.704 153.313,108.994 155.333,108.520 156.833 C 108.246 157.704,107.822 158.979,107.579 159.667 C 107.336 160.354,107.117 160.992,107.094 161.083 C 107.070 161.175,106.966 161.458,106.861 161.713 C 106.757 161.968,106.517 162.793,106.329 163.546 C 106.141 164.300,105.940 165.029,105.883 165.167 C 105.826 165.304,105.767 165.454,105.753 165.500 C 105.739 165.546,105.512 166.258,105.248 167.083 C 104.984 167.908,104.755 168.640,104.738 168.708 C 104.722 168.777,104.693 168.852,104.675 168.875 C 104.656 168.898,104.611 169.029,104.574 169.167 C 104.537 169.304,104.208 170.504,103.843 171.833 C 103.478 173.162,103.143 174.438,103.099 174.667 C 103.055 174.896,102.795 175.846,102.520 176.777 C 102.029 178.442,101.504 180.620,100.737 184.167 C 100.688 184.396,100.608 184.808,100.561 185.083 C 100.514 185.358,100.373 185.958,100.247 186.417 C 100.120 186.875,99.980 187.475,99.935 187.750 C 99.844 188.308,99.782 188.604,99.435 190.167 C 98.996 192.146,98.793 193.236,98.721 193.997 C 98.682 194.411,98.580 195.162,98.494 195.667 C 98.408 196.171,98.297 196.913,98.247 197.316 C 98.197 197.718,98.126 198.098,98.088 198.158 C 98.051 198.219,97.978 198.617,97.927 199.041 C 97.838 199.786,97.719 200.625,97.578 201.500 C 97.541 201.729,97.467 202.292,97.414 202.750 C 97.361 203.208,97.287 203.771,97.249 204.000 C 97.212 204.229,97.137 204.829,97.082 205.333 C 97.028 205.838,96.950 206.550,96.909 206.917 C 96.868 207.283,96.791 208.108,96.739 208.750 C 96.686 209.392,96.621 210.179,96.594 210.500 C 96.149 215.761,96.143 224.042,96.581 228.502 C 96.671 229.420,96.848 230.935,96.932 231.500 C 96.965 231.729,97.026 232.179,97.067 232.500 C 97.139 233.075,97.391 234.531,97.673 236.000 C 98.083 238.139,99.862 244.758,100.249 245.583 C 100.378 245.858,100.723 246.908,101.016 247.917 C 101.308 248.925,101.603 249.787,101.670 249.833 C 101.737 249.879,101.848 250.175,101.916 250.491 C 101.985 250.806,102.144 251.168,102.270 251.294 C 102.397 251.420,102.500 251.635,102.500 251.771 C 102.500 251.907,102.654 252.370,102.842 252.801 C 103.362 253.987,103.449 254.201,103.673 254.833 C 104.199 256.319,107.693 263.659,108.056 264.044 C 108.164 264.157,108.572 264.887,108.963 265.667 C 109.725 267.182,110.113 267.890,110.548 268.552 C 110.698 268.781,111.056 269.404,111.344 269.936 C 111.632 270.469,112.085 271.168,112.351 271.490 C 112.616 271.812,112.833 272.137,112.833 272.212 C 112.833 272.286,112.912 272.438,113.008 272.549 C 113.340 272.932,114.333 274.530,114.333 274.681 C 114.333 274.765,114.408 274.833,114.500 274.833 C 114.592 274.833,114.667 274.911,114.667 275.007 C 114.667 275.103,114.743 275.271,114.837 275.382 C 115.555 276.233,115.833 276.607,116.027 276.984 C 116.150 277.222,116.325 277.508,116.417 277.619 C 116.508 277.731,116.677 277.934,116.792 278.071 C 116.906 278.207,117.000 278.397,117.000 278.493 C 117.000 278.589,117.112 278.667,117.250 278.667 C 117.388 278.667,117.500 278.773,117.500 278.903 C 117.500 279.033,117.561 279.164,117.635 279.194 C 117.710 279.225,118.098 279.700,118.499 280.250 C 118.899 280.800,119.271 281.287,119.326 281.333 C 119.381 281.379,119.686 281.753,120.004 282.164 C 120.323 282.575,120.696 283.030,120.833 283.176 C 120.971 283.322,121.346 283.763,121.667 284.156 C 123.494 286.394,124.546 287.535,127.750 290.753 C 129.492 292.503,131.512 294.455,132.240 295.092 C 132.968 295.729,133.700 296.381,133.865 296.542 C 134.031 296.702,134.235 296.833,134.319 296.833 C 134.403 296.833,134.497 296.899,134.528 296.978 C 134.603 297.175,137.027 299.146,139.167 300.751 C 140.129 301.473,141.029 302.164,141.167 302.286 C 141.590 302.662,142.931 303.634,143.464 303.950 C 143.742 304.115,144.595 304.671,145.360 305.187 C 146.124 305.702,147.012 306.257,147.332 306.420 C 147.653 306.584,148.290 306.997,148.749 307.340 C 149.208 307.682,150.408 308.394,151.417 308.922 C 152.425 309.449,153.438 310.010,153.667 310.166 C 154.343 310.629,160.911 313.833,161.183 313.833 C 161.321 313.833,161.505 313.896,161.592 313.973 C 161.679 314.050,162.012 314.214,162.333 314.337 C 162.654 314.460,163.435 314.809,164.069 315.113 C 164.703 315.418,165.292 315.667,165.377 315.667 C 165.463 315.667,165.769 315.773,166.058 315.902 C 166.347 316.031,166.996 316.266,167.500 316.424 C 168.004 316.582,168.492 316.755,168.583 316.810 C 168.721 316.891,171.505 317.890,172.083 318.066 C 172.175 318.094,172.362 318.162,172.500 318.219 C 172.637 318.275,173.313 318.469,174.000 318.650 C 174.688 318.830,176.815 319.393,178.728 319.901 C 180.642 320.408,182.515 320.869,182.892 320.925 C 183.268 320.982,183.615 321.052,183.663 321.081 C 183.711 321.111,184.597 321.259,185.633 321.412 C 187.485 321.684,187.838 321.743,188.667 321.914 C 188.896 321.961,189.365 322.037,189.708 322.083 C 190.052 322.129,190.596 322.204,190.917 322.250 C 192.086 322.417,192.769 322.502,193.667 322.591 C 194.171 322.641,194.921 322.719,195.333 322.764 C 196.130 322.850,197.996 322.981,199.917 323.085 C 202.553 323.228,208.870 323.146,211.917 322.929 C 213.346 322.827,213.776 322.787,215.500 322.588 C 215.912 322.541,216.625 322.461,217.083 322.412 C 217.542 322.362,218.142 322.284,218.417 322.239 C 218.692 322.193,219.142 322.127,219.417 322.092 C 219.692 322.056,220.404 321.938,221.000 321.830 C 222.185 321.615,222.333 321.593,224.167 321.352 C 224.854 321.261,225.766 321.076,226.193 320.939 C 226.620 320.803,227.006 320.729,227.052 320.774 C 227.097 320.819,228.737 320.401,230.697 319.845 C 232.657 319.288,234.414 318.833,234.601 318.833 C 234.976 318.833,236.487 318.359,236.750 318.159 C 236.842 318.090,237.254 317.948,237.667 317.844 C 238.079 317.741,238.754 317.518,239.167 317.348 C 240.992 316.598,241.787 316.333,242.212 316.333 C 242.462 316.333,242.667 316.258,242.667 316.167 C 242.667 316.075,242.747 316.000,242.846 316.000 C 243.059 316.000,245.432 315.014,247.112 314.227 C 247.769 313.919,248.384 313.667,248.478 313.667 C 248.572 313.667,249.002 313.479,249.433 313.250 C 249.864 313.021,250.318 312.833,250.441 312.833 C 250.565 312.833,250.668 312.777,250.669 312.708 C 250.671 312.640,251.140 312.358,251.711 312.083 C 252.282 311.808,252.775 311.527,252.806 311.458 C 252.836 311.390,252.966 311.333,253.095 311.333 C 253.391 311.333,256.627 309.620,256.833 309.354 C 256.879 309.295,257.367 309.025,257.917 308.754 C 258.467 308.482,258.942 308.202,258.972 308.130 C 259.003 308.059,259.134 308.000,259.264 308.000 C 259.394 308.000,259.500 307.943,259.500 307.873 C 259.500 307.746,259.994 307.444,260.542 307.238 C 260.702 307.177,260.833 307.062,260.833 306.981 C 260.833 306.900,260.916 306.833,261.017 306.833 C 261.119 306.833,261.535 306.608,261.943 306.333 C 262.350 306.058,262.755 305.833,262.842 305.833 C 262.929 305.833,263.000 305.758,263.000 305.667 C 263.000 305.575,263.078 305.500,263.174 305.500 C 263.269 305.500,263.497 305.360,263.680 305.190 C 263.863 305.019,264.441 304.589,264.965 304.233 C 266.122 303.447,269.342 301.149,269.611 300.917 C 269.717 300.825,270.051 300.563,270.353 300.333 C 270.654 300.104,271.213 299.654,271.595 299.333 C 271.977 299.012,272.468 298.608,272.687 298.434 C 275.790 295.959,283.182 288.511,286.350 284.667 C 287.500 283.271,290.646 279.064,291.583 277.670 C 292.042 276.988,292.623 276.204,292.875 275.928 C 293.127 275.652,293.333 275.362,293.333 275.285 C 293.333 275.208,293.521 274.899,293.750 274.598 C 293.979 274.298,294.167 273.997,294.167 273.930 C 294.167 273.863,294.523 273.265,294.958 272.602 C 296.093 270.874,296.121 270.826,296.501 270.006 C 296.691 269.597,296.904 269.222,296.974 269.172 C 297.196 269.017,297.801 267.941,298.768 265.983 C 299.284 264.938,299.795 263.971,299.904 263.833 C 300.122 263.558,301.336 260.906,301.582 260.167 C 301.598 260.121,301.916 259.446,302.291 258.667 C 303.203 256.768,304.180 254.312,305.540 250.500 C 306.229 248.567,308.153 242.015,308.550 240.250 C 309.358 236.657,310.054 233.217,310.253 231.837 C 310.312 231.426,310.385 231.051,310.414 231.004 C 310.443 230.956,310.520 230.504,310.585 230.000 C 310.650 229.496,310.725 228.933,310.753 228.750 C 310.780 228.567,310.855 228.004,310.919 227.500 C 310.983 226.996,311.062 226.396,311.094 226.167 C 311.127 225.938,311.197 225.075,311.251 224.250 C 311.305 223.425,311.389 222.338,311.438 221.833 C 311.588 220.273,311.636 208.344,311.499 206.583 C 311.427 205.667,311.319 204.092,311.258 203.083 C 311.120 200.793,311.054 200.103,310.937 199.719 C 310.886 199.553,310.797 198.967,310.739 198.417 C 310.682 197.867,310.616 197.304,310.592 197.167 C 310.024 193.823,309.610 191.659,309.401 190.939 C 309.272 190.493,309.167 189.939,309.167 189.709 C 309.167 189.478,309.096 189.017,309.011 188.686 C 308.925 188.355,308.656 187.296,308.412 186.333 C 307.769 183.789,306.860 180.756,306.579 180.217 C 306.445 179.960,306.335 179.628,306.334 179.479 C 306.333 179.240,306.203 178.859,305.682 177.583 C 305.608 177.400,305.236 176.612,304.857 175.833 C 304.477 175.054,304.167 174.323,304.167 174.208 C 304.167 174.094,304.092 174.000,304.000 174.000 C 303.908 174.000,303.833 173.887,303.833 173.748 C 303.833 173.497,303.185 171.991,303.009 171.833 C 302.958 171.787,302.804 171.525,302.667 171.250 C 302.529 170.975,302.377 170.713,302.329 170.667 C 302.280 170.621,301.943 169.983,301.579 169.250 C 301.216 168.517,300.875 167.879,300.821 167.833 C 300.767 167.787,300.617 167.506,300.488 167.208 C 300.358 166.910,300.195 166.667,300.126 166.667 C 300.057 166.667,300.000 166.554,300.000 166.417 C 300.000 166.279,299.925 166.167,299.833 166.167 C 299.742 166.167,299.667 166.054,299.667 165.917 C 299.667 165.779,299.592 165.667,299.500 165.667 C 299.408 165.667,299.333 165.590,299.333 165.497 C 299.333 165.404,299.048 164.860,298.698 164.289 C 298.349 163.717,297.955 163.063,297.823 162.833 C 297.691 162.604,297.541 162.379,297.489 162.333 C 297.437 162.287,297.099 161.762,296.739 161.167 C 296.378 160.571,296.027 160.058,295.958 160.028 C 295.890 159.997,295.833 159.866,295.833 159.736 C 295.833 159.606,295.758 159.500,295.667 159.500 C 295.575 159.500,295.500 159.410,295.500 159.301 C 295.500 159.191,295.320 158.910,295.099 158.676 C 294.879 158.442,294.222 157.560,293.641 156.717 C 291.177 153.144,290.111 151.656,289.759 151.297 C 289.553 151.088,289.102 150.511,288.756 150.016 C 288.410 149.520,287.965 148.958,287.766 148.766 C 287.567 148.574,286.909 147.779,286.304 147.000 C 285.699 146.221,285.042 145.396,284.842 145.167 C 284.224 144.456,283.937 144.108,283.333 143.338 C 283.012 142.929,282.563 142.395,282.333 142.152 C 282.104 141.908,281.617 141.354,281.250 140.920 C 280.883 140.487,280.433 139.964,280.250 139.757 C 280.067 139.551,279.504 138.912,279.000 138.336 C 277.699 136.851,276.427 135.465,275.113 134.099 C 274.025 132.969,269.875 128.765,269.502 128.417 C 269.404 128.325,268.882 127.800,268.342 127.250 C 266.952 125.834,264.838 123.819,263.011 122.167 C 262.150 121.388,261.242 120.563,260.995 120.333 C 260.747 120.104,260.290 119.699,259.980 119.433 C 259.670 119.168,258.592 118.239,257.583 117.370 C 256.575 116.501,255.499 115.575,255.192 115.312 C 254.886 115.049,254.567 114.833,254.484 114.833 C 254.401 114.833,254.333 114.774,254.333 114.701 C 254.333 114.628,253.947 114.274,253.475 113.914 C 253.002 113.553,252.533 113.182,252.432 113.088 C 251.963 112.652,250.374 111.377,250.000 111.137 C 249.771 110.989,249.321 110.627,249.000 110.331 C 248.396 109.773,244.713 106.993,243.247 105.986 C 242.786 105.670,241.961 105.068,241.413 104.647 C 240.865 104.226,240.192 103.766,239.917 103.623 C 239.642 103.481,239.235 103.170,239.013 102.933 C 238.790 102.695,238.543 102.500,238.464 102.500 C 238.384 102.500,238.004 102.270,237.618 101.989 C 236.794 101.389,233.831 99.443,233.487 99.276 C 233.218 99.146,232.266 98.530,230.969 97.647 C 230.482 97.316,229.558 96.760,228.917 96.411 C 228.275 96.062,227.470 95.602,227.128 95.388 C 226.786 95.175,226.430 95.000,226.337 95.000 C 226.243 95.000,226.167 94.927,226.167 94.838 C 226.167 94.749,225.623 94.404,224.958 94.070 C 224.294 93.736,223.600 93.377,223.416 93.273 C 221.438 92.152,220.803 91.812,220.776 91.860 C 220.759 91.891,220.502 92.266,220.206 92.694 C 219.909 93.121,219.667 93.516,219.667 93.570 C 219.667 93.625,219.442 93.980,219.167 94.360 C 218.892 94.739,218.667 95.125,218.667 95.218 C 218.667 95.310,218.493 95.617,218.280 95.901 C 217.804 96.536,216.503 98.750,215.429 100.750 C 215.331 100.933,215.202 101.121,215.144 101.167 C 215.027 101.258,212.667 105.446,212.667 105.561 C 212.667 105.600,212.372 106.118,212.012 106.711 C 211.651 107.304,211.082 108.343,210.747 109.020 C 210.412 109.696,209.909 110.662,209.629 111.167 C 209.350 111.671,208.867 112.608,208.558 113.250 C 208.248 113.892,207.926 114.529,207.843 114.667 C 207.760 114.804,207.229 115.854,206.664 117.000 C 206.098 118.146,205.202 119.951,204.672 121.012 C 204.142 122.073,203.652 123.123,203.584 123.345 C 203.295 124.289,202.159 126.500,201.963 126.500 C 201.846 126.500,200.925 125.855,199.917 125.067 C 198.908 124.279,197.870 123.473,197.609 123.275 C 197.347 123.078,196.785 122.596,196.359 122.203 C 195.932 121.811,195.307 121.343,194.969 121.164 C 194.632 120.984,194.150 120.647,193.899 120.415 C 193.216 119.782,189.659 117.151,187.628 115.777 C 187.108 115.425,186.510 114.971,186.299 114.769 C 185.977 114.458,184.695 113.546,183.697 112.917 C 183.552 112.825,183.080 112.487,182.649 112.167 C 181.983 111.671,179.945 110.312,179.024 109.750 C 178.874 109.658,178.504 109.377,178.203 109.125 C 177.902 108.873,177.569 108.667,177.463 108.667 C 177.358 108.667,177.117 108.528,176.927 108.357 C 176.536 108.006,174.046 106.286,173.667 106.106 C 173.153 105.862,171.154 104.539,170.500 104.011 C 170.271 103.825,170.015 103.672,169.932 103.670 C 169.796 103.667,168.639 102.933,166.723 101.636 C 166.341 101.378,165.986 101.167,165.934 101.167 C 165.782 101.167,164.140 100.149,163.500 99.659 C 163.179 99.413,162.392 98.927,161.750 98.578 C 161.108 98.229,160.321 97.782,160.000 97.585 C 159.679 97.387,159.304 97.174,159.167 97.111 C 159.029 97.048,158.692 96.848,158.417 96.667 C 158.142 96.486,157.743 96.262,157.530 96.169 C 157.318 96.076,156.905 95.823,156.614 95.608 C 156.322 95.392,155.971 95.167,155.833 95.107 C 155.696 95.047,155.283 94.813,154.917 94.586 C 154.550 94.360,153.837 93.971,153.333 93.723 C 152.556 93.339,151.595 92.774,149.913 91.708 C 149.732 91.593,149.424 91.430,149.229 91.345 C 148.761 91.141,146.219 89.733,145.583 89.326 C 145.308 89.149,144.896 88.924,144.667 88.825 C 144.438 88.726,143.734 88.388,143.103 88.073 C 141.748 87.397,141.827 87.404,141.458 87.912 M339.212 102.461 C 334.792 105.553,331.173 108.180,331.171 108.299 C 331.168 108.417,331.455 108.905,331.808 109.382 C 332.160 109.859,333.035 111.150,333.752 112.250 C 347.491 133.328,355.546 155.548,358.826 181.417 C 363.434 217.766,353.902 257.640,333.217 288.542 C 331.824 290.623,331.399 291.377,331.549 291.502 C 331.660 291.594,332.575 292.239,333.583 292.935 C 334.592 293.630,335.604 294.340,335.833 294.512 C 336.063 294.683,336.887 295.257,337.667 295.786 C 338.446 296.316,339.158 296.807,339.250 296.878 C 339.793 297.295,343.399 299.778,345.083 300.894 C 345.633 301.258,346.121 301.600,346.167 301.654 C 346.360 301.879,347.616 302.667,347.782 302.667 C 348.207 302.667,354.186 293.187,357.433 287.365 C 387.818 232.880,387.670 166.487,357.041 111.935 C 353.986 106.493,347.837 96.830,347.433 96.836 C 347.332 96.837,343.633 99.368,339.212 102.461 M50.039 100.375 C 9.821 161.582,9.765 238.465,49.892 299.386 C 51.673 302.090,52.472 303.169,52.657 303.120 C 53.041 303.018,68.830 291.941,68.832 291.772 C 68.833 291.692,67.906 290.230,66.773 288.522 C 44.515 254.967,35.775 214.390,42.177 174.333 C 45.731 152.100,54.274 130.247,66.700 111.606 C 67.791 109.968,68.661 108.609,68.634 108.584 C 68.606 108.560,67.946 108.104,67.167 107.571 C 65.495 106.428,64.421 105.684,62.510 104.346 C 61.736 103.804,60.956 103.261,60.777 103.139 C 60.597 103.017,60.137 102.684,59.755 102.399 C 59.372 102.114,58.987 101.851,58.898 101.815 C 58.742 101.752,56.546 100.242,53.777 98.293 C 52.020 97.057,52.334 96.883,50.039 100.375 M164.299 163.818 C 165.189 164.454,166.104 165.151,166.333 165.368 C 166.563 165.584,167.012 165.922,167.333 166.119 C 167.654 166.315,168.592 167.005,169.417 167.652 C 170.242 168.299,171.002 168.829,171.107 168.831 C 171.212 168.832,171.341 168.946,171.394 169.083 C 171.446 169.221,171.579 169.333,171.689 169.333 C 171.799 169.333,172.007 169.448,172.153 169.587 C 172.298 169.727,173.242 170.451,174.250 171.195 C 175.258 171.940,176.263 172.726,176.482 172.942 C 176.702 173.159,177.152 173.501,177.482 173.704 C 177.813 173.907,179.440 175.087,181.099 176.328 C 182.758 177.568,184.595 178.939,185.183 179.373 C 185.770 179.808,186.859 180.633,187.603 181.207 C 188.347 181.780,189.122 182.362,189.325 182.500 C 189.528 182.637,190.925 183.669,192.430 184.792 C 193.935 185.915,195.204 186.833,195.250 186.833 C 195.296 186.833,195.471 186.971,195.639 187.139 C 196.156 187.656,203.324 193.000,203.501 193.000 C 203.592 193.000,203.667 193.068,203.667 193.151 C 203.667 193.234,204.004 193.499,204.417 193.741 C 204.829 193.983,205.167 194.253,205.167 194.340 C 205.167 194.428,205.268 194.500,205.391 194.500 C 205.514 194.500,205.758 194.660,205.933 194.857 C 206.225 195.185,208.462 196.873,213.574 200.623 C 214.669 201.426,215.944 202.405,216.407 202.798 C 217.507 203.730,217.639 203.833,217.725 203.833 C 217.764 203.833,219.193 204.878,220.899 206.154 C 223.896 208.395,224.009 208.462,224.204 208.112 C 224.315 207.913,224.617 207.375,224.876 206.917 C 225.134 206.458,225.462 205.821,225.605 205.500 C 226.151 204.270,228.066 200.405,228.248 200.167 C 228.353 200.029,228.655 199.392,228.919 198.750 C 229.183 198.108,229.595 197.246,229.833 196.833 C 230.266 196.085,230.822 194.955,231.843 192.750 C 232.140 192.108,232.544 191.321,232.741 191.000 C 232.938 190.679,233.309 189.929,233.566 189.333 C 233.822 188.737,234.248 187.838,234.513 187.333 C 234.952 186.499,235.261 185.869,236.887 182.500 C 237.175 181.904,237.450 181.379,237.499 181.333 C 237.548 181.287,237.746 180.912,237.940 180.500 C 238.881 178.495,242.247 171.650,242.712 170.794 C 243.122 170.041,243.090 170.020,246.167 173.150 C 249.525 176.567,251.421 178.610,252.750 180.243 C 253.025 180.581,253.373 181.004,253.523 181.182 C 253.672 181.361,253.972 181.767,254.189 182.086 C 254.406 182.404,254.640 182.665,254.708 182.666 C 254.777 182.666,254.833 182.761,254.833 182.877 C 254.833 182.992,255.022 183.290,255.253 183.539 C 255.483 183.788,255.927 184.424,256.239 184.954 C 256.551 185.483,256.944 186.070,257.111 186.257 C 257.495 186.685,257.752 187.119,259.030 189.500 C 259.596 190.554,260.121 191.442,260.196 191.472 C 260.272 191.503,260.333 191.672,260.333 191.847 C 260.333 192.023,260.408 192.167,260.500 192.167 C 260.592 192.167,260.667 192.302,260.667 192.467 C 260.667 192.632,260.734 192.838,260.816 192.925 C 261.002 193.121,261.833 195.204,261.833 195.471 C 261.833 195.579,261.908 195.667,262.000 195.667 C 262.092 195.667,262.169 195.760,262.172 195.875 C 262.175 195.990,262.323 196.383,262.500 196.750 C 262.677 197.117,262.825 197.480,262.828 197.558 C 262.831 197.636,262.940 197.936,263.071 198.225 C 263.499 199.175,265.009 204.387,265.419 206.333 C 266.009 209.137,266.107 209.898,266.449 214.333 C 266.605 216.358,266.600 220.813,266.440 222.750 C 266.168 226.034,265.978 227.777,265.831 228.333 C 265.746 228.654,265.631 229.217,265.576 229.583 C 265.456 230.369,264.509 234.009,264.361 234.250 C 264.305 234.342,264.242 234.492,264.221 234.583 C 264.033 235.394,263.145 238.113,262.879 238.691 C 262.163 240.246,261.695 241.287,261.318 242.167 C 261.102 242.671,260.654 243.533,260.321 244.083 C 259.988 244.633,259.429 245.608,259.078 246.250 C 258.260 247.746,258.051 248.077,257.288 249.086 C 256.942 249.543,256.172 250.575,255.575 251.380 C 254.978 252.185,254.361 252.980,254.203 253.146 C 254.046 253.313,253.579 253.850,253.167 254.340 C 251.757 256.012,248.265 259.425,246.522 260.833 C 246.125 261.154,245.676 261.535,245.525 261.679 C 245.374 261.824,244.950 262.160,244.583 262.425 C 244.217 262.690,243.738 263.078,243.519 263.287 C 243.300 263.496,243.019 263.667,242.894 263.667 C 242.769 263.667,242.667 263.742,242.667 263.833 C 242.667 263.925,242.589 264.000,242.493 264.000 C 242.315 264.000,242.093 264.161,241.450 264.757 C 241.012 265.163,238.039 267.000,237.820 267.000 C 237.736 267.000,237.667 267.061,237.667 267.136 C 237.667 267.210,237.404 267.374,237.083 267.500 C 236.762 267.626,236.500 267.790,236.500 267.864 C 236.500 267.939,236.387 268.000,236.250 268.000 C 236.112 268.000,236.000 268.075,236.000 268.167 C 236.000 268.258,235.887 268.333,235.750 268.333 C 235.612 268.333,235.500 268.408,235.500 268.500 C 235.500 268.592,235.392 268.667,235.260 268.667 C 235.128 268.667,234.586 268.892,234.056 269.167 C 233.526 269.442,232.997 269.667,232.880 269.667 C 232.762 269.667,232.667 269.742,232.667 269.833 C 232.667 269.925,232.517 270.000,232.333 270.000 C 232.150 270.000,232.000 270.075,232.000 270.167 C 232.000 270.258,231.855 270.333,231.679 270.333 C 231.502 270.333,231.245 270.446,231.107 270.583 C 230.970 270.721,230.744 270.833,230.605 270.833 C 230.466 270.833,230.307 270.908,230.250 271.000 C 230.193 271.092,230.010 271.167,229.843 271.167 C 229.675 271.167,229.323 271.279,229.061 271.416 C 228.798 271.553,228.471 271.667,228.333 271.671 C 228.196 271.674,227.938 271.787,227.760 271.922 C 227.582 272.057,227.319 272.167,227.176 272.168 C 227.034 272.168,226.692 272.289,226.417 272.435 C 226.142 272.582,225.467 272.835,224.917 272.999 C 224.367 273.163,223.692 273.378,223.417 273.477 C 222.371 273.853,215.868 275.363,213.583 275.760 C 212.272 275.988,211.985 276.019,208.833 276.259 C 208.146 276.311,207.171 276.393,206.667 276.441 C 204.605 276.637,198.693 276.534,195.750 276.251 C 195.292 276.207,194.427 276.131,193.827 276.083 C 192.804 276.000,192.543 275.963,191.500 275.756 C 190.863 275.630,190.136 275.492,189.583 275.392 C 186.321 274.806,179.496 272.575,177.127 271.320 C 176.968 271.236,176.753 271.167,176.650 271.167 C 176.416 271.167,173.507 269.718,173.167 269.432 C 173.029 269.317,172.617 269.086,172.250 268.920 C 171.883 268.753,171.171 268.348,170.667 268.018 C 170.162 267.689,169.637 267.361,169.500 267.291 C 169.362 267.220,169.055 267.032,168.818 266.873 C 168.580 266.714,168.055 266.363,167.651 266.093 C 167.247 265.824,166.692 265.401,166.417 265.155 C 166.142 264.909,165.542 264.427,165.083 264.083 C 163.252 262.712,160.112 259.726,158.167 257.504 C 157.662 256.928,157.171 256.373,157.075 256.270 C 156.979 256.167,156.572 255.633,156.170 255.083 C 155.769 254.533,155.267 253.918,155.054 253.716 C 154.841 253.514,154.667 253.305,154.667 253.251 C 154.667 253.157,154.491 252.924,154.042 252.423 C 153.927 252.295,153.833 252.151,153.833 252.104 C 153.833 252.056,153.281 251.169,152.607 250.133 C 151.932 249.098,151.322 248.063,151.251 247.833 C 151.180 247.604,151.076 247.379,151.019 247.333 C 150.720 247.090,149.068 243.850,148.818 243.015 C 148.706 242.640,148.551 242.333,148.474 242.333 C 148.396 242.333,148.333 242.240,148.333 242.125 C 148.332 242.010,148.108 241.467,147.833 240.917 C 147.559 240.367,147.334 239.839,147.334 239.744 C 147.334 239.648,147.183 239.276,147.000 238.917 C 146.817 238.557,146.667 238.129,146.667 237.965 C 146.667 237.801,146.601 237.667,146.521 237.667 C 146.442 237.667,146.329 237.310,146.270 236.875 C 146.212 236.440,146.054 235.872,145.920 235.614 C 145.785 235.356,145.441 234.306,145.154 233.281 C 144.867 232.256,144.526 231.092,144.397 230.696 C 144.268 230.300,144.199 229.915,144.245 229.842 C 144.290 229.768,144.224 229.342,144.098 228.896 C 143.971 228.449,143.820 227.408,143.761 226.583 C 143.701 225.758,143.613 224.783,143.564 224.417 C 143.349 222.811,143.492 215.251,143.745 214.841 C 143.779 214.787,143.825 214.256,143.848 213.662 C 143.871 213.069,143.947 212.358,144.017 212.083 C 144.088 211.808,144.190 211.283,144.244 210.917 C 144.555 208.812,146.682 200.538,147.502 198.250 C 147.699 197.700,147.880 197.175,147.905 197.083 C 147.963 196.867,148.127 196.428,148.498 195.500 C 148.662 195.088,148.850 194.487,148.916 194.167 C 149.019 193.656,149.628 192.031,151.695 186.750 C 152.357 185.058,152.523 184.662,153.126 183.333 C 153.396 182.737,153.668 182.042,153.730 181.787 C 153.791 181.533,154.027 180.919,154.254 180.423 C 154.481 179.927,154.667 179.451,154.667 179.364 C 154.667 179.278,154.777 179.116,154.911 179.004 C 155.046 178.893,155.146 178.752,155.134 178.692 C 155.112 178.585,155.623 177.383,156.094 176.433 C 156.225 176.167,156.333 175.840,156.333 175.706 C 156.333 175.573,156.553 175.040,156.822 174.523 C 157.298 173.608,158.118 171.844,158.614 170.667 C 158.749 170.346,159.032 169.708,159.243 169.250 C 159.454 168.792,159.765 168.079,159.934 167.667 C 160.102 167.254,160.440 166.572,160.684 166.150 C 160.928 165.729,161.185 165.204,161.254 164.984 C 161.323 164.764,161.556 164.194,161.773 163.719 C 161.989 163.244,162.167 162.767,162.167 162.660 C 162.167 162.359,162.546 162.565,164.299 163.818 M288.713 333.090 C 235.246 368.949,162.342 368.631,110.100 332.312 C 109.317 331.768,108.777 331.493,108.685 331.591 C 108.236 332.070,97.500 347.705,97.502 347.877 C 97.503 347.991,98.947 349.032,100.710 350.191 C 136.738 373.876,178.282 383.786,221.083 378.905 C 236.494 377.147,256.195 372.011,268.667 366.498 C 269.446 366.153,271.583 365.210,273.417 364.402 C 279.520 361.712,286.672 357.973,293.183 354.069 C 296.022 352.367,303.333 347.569,303.333 347.408 C 303.333 347.314,302.183 345.639,301.073 344.117 C 300.792 343.732,300.147 342.817,299.640 342.083 C 299.133 341.350,297.953 339.662,297.017 338.333 C 296.081 337.004,294.589 334.851,293.700 333.549 C 292.811 332.247,292.008 331.153,291.917 331.118 C 291.825 331.082,290.383 331.970,288.713 333.090 " stroke="none" fill="#fbfbfb" fill-rule="evenodd"></path><path id="path1" d="M188.250 0.107 C 182.205 0.546,176.901 1.114,172.167 1.831 C 170.929 2.019,169.279 2.253,168.500 2.351 C 166.419 2.614,161.295 3.567,157.803 4.339 C 156.124 4.711,154.188 5.134,153.500 5.279 C 152.316 5.529,150.911 5.904,147.083 6.993 C 146.167 7.254,145.146 7.513,144.816 7.570 C 144.486 7.626,142.620 8.196,140.670 8.836 C 138.719 9.476,137.021 10.000,136.897 10.000 C 136.772 10.000,135.174 10.562,133.344 11.250 C 131.515 11.938,129.937 12.500,129.838 12.500 C 129.738 12.500,128.553 12.961,127.204 13.524 C 125.854 14.088,124.349 14.691,123.858 14.865 C 123.367 15.040,122.205 15.525,121.275 15.944 C 120.344 16.363,118.833 17.023,117.917 17.412 C 116.038 18.208,106.696 22.802,105.417 23.558 C 104.958 23.829,103.646 24.554,102.500 25.169 C 101.354 25.784,100.079 26.514,99.667 26.792 C 99.254 27.070,98.654 27.418,98.333 27.565 C 98.013 27.712,97.112 28.242,96.333 28.742 C 95.554 29.242,94.542 29.848,94.083 30.089 C 93.625 30.329,92.987 30.726,92.667 30.970 C 92.346 31.214,91.221 31.965,90.167 32.638 C 89.112 33.311,87.950 34.084,87.583 34.354 C 87.217 34.625,86.490 35.124,85.969 35.465 C 84.200 36.620,80.000 39.710,80.000 39.855 C 80.000 39.935,79.913 40.000,79.807 40.000 C 79.589 40.000,78.256 40.989,77.250 41.898 C 76.883 42.229,76.507 42.500,76.414 42.500 C 76.320 42.500,75.683 42.996,74.997 43.603 C 74.311 44.209,73.563 44.826,73.333 44.974 C 73.104 45.121,72.429 45.667,71.833 46.185 C 71.237 46.704,69.850 47.896,68.750 48.834 C 62.207 54.415,54.415 62.207,48.834 68.750 C 47.896 69.850,46.704 71.237,46.185 71.833 C 45.667 72.429,45.121 73.104,44.974 73.333 C 44.826 73.563,44.209 74.311,43.603 74.997 C 42.996 75.683,42.500 76.320,42.500 76.414 C 42.500 76.507,42.229 76.883,41.898 77.250 C 40.989 78.256,40.000 79.589,40.000 79.807 C 40.000 79.913,39.935 80.000,39.855 80.000 C 39.710 80.000,36.620 84.200,35.465 85.969 C 35.124 86.490,34.625 87.217,34.354 87.583 C 34.084 87.950,33.311 89.112,32.638 90.167 C 31.965 91.221,31.214 92.346,30.970 92.667 C 30.726 92.987,30.329 93.625,30.089 94.083 C 29.848 94.542,29.242 95.554,28.742 96.333 C 28.242 97.112,27.712 98.013,27.565 98.333 C 27.418 98.654,27.070 99.254,26.792 99.667 C 26.514 100.079,25.784 101.354,25.169 102.500 C 24.554 103.646,23.829 104.958,23.558 105.417 C 22.802 106.696,18.208 116.038,17.412 117.917 C 17.023 118.833,16.363 120.344,15.944 121.275 C 15.525 122.205,15.040 123.367,14.865 123.858 C 14.691 124.349,14.088 125.854,13.524 127.204 C 12.961 128.553,12.500 129.738,12.500 129.838 C 12.500 129.937,11.937 131.515,11.250 133.344 C 10.562 135.174,10.000 136.772,10.000 136.897 C 10.000 137.021,9.476 138.719,8.836 140.670 C 8.196 142.620,7.626 144.486,7.570 144.816 C 7.513 145.146,7.254 146.167,6.993 147.083 C 5.904 150.911,5.529 152.316,5.279 153.500 C 5.134 154.188,4.711 156.124,4.339 157.803 C 3.567 161.295,2.614 166.419,2.351 168.500 C 2.253 169.279,2.019 170.929,1.831 172.167 C 0.300 182.276,0.083 185.726,0.083 200.000 C 0.083 214.274,0.300 217.724,1.831 227.833 C 2.019 229.071,2.253 230.721,2.351 231.500 C 2.614 233.581,3.567 238.705,4.339 242.197 C 4.711 243.876,5.134 245.813,5.279 246.500 C 5.529 247.684,5.904 249.089,6.993 252.917 C 7.254 253.833,7.513 254.854,7.570 255.184 C 7.626 255.514,8.196 257.380,8.836 259.330 C 9.476 261.281,10.000 262.979,10.000 263.103 C 10.000 263.228,10.562 264.826,11.250 266.656 C 11.937 268.485,12.500 270.063,12.500 270.162 C 12.500 270.262,12.961 271.447,13.524 272.796 C 14.088 274.146,14.691 275.651,14.865 276.142 C 15.040 276.633,15.525 277.795,15.944 278.725 C 16.363 279.656,17.023 281.167,17.412 282.083 C 18.208 283.962,22.802 293.304,23.558 294.583 C 23.829 295.042,24.554 296.354,25.169 297.500 C 25.784 298.646,26.514 299.921,26.792 300.333 C 27.070 300.746,27.418 301.346,27.565 301.667 C 27.712 301.987,28.242 302.887,28.742 303.667 C 29.242 304.446,29.848 305.458,30.089 305.917 C 30.329 306.375,30.726 307.012,30.970 307.333 C 31.214 307.654,31.965 308.779,32.638 309.833 C 33.311 310.887,34.084 312.050,34.354 312.417 C 34.625 312.783,35.124 313.510,35.465 314.031 C 36.620 315.800,39.710 320.000,39.855 320.000 C 39.935 320.000,40.000 320.087,40.000 320.193 C 40.000 320.411,40.989 321.744,41.898 322.750 C 42.229 323.117,42.500 323.493,42.500 323.586 C 42.500 323.680,42.996 324.317,43.603 325.003 C 44.209 325.689,44.826 326.438,44.974 326.667 C 45.121 326.896,45.667 327.571,46.185 328.167 C 46.704 328.762,47.896 330.150,48.834 331.250 C 54.415 337.793,62.207 345.585,68.750 351.166 C 69.850 352.104,71.237 353.296,71.833 353.815 C 72.429 354.333,73.104 354.879,73.333 355.026 C 73.563 355.174,74.311 355.791,74.997 356.397 C 75.683 357.004,76.320 357.500,76.414 357.500 C 76.507 357.500,76.883 357.771,77.250 358.102 C 78.256 359.011,79.589 360.000,79.807 360.000 C 79.913 360.000,80.000 360.060,80.000 360.133 C 80.000 360.207,80.722 360.788,81.604 361.425 C 82.486 362.062,83.704 362.953,84.312 363.406 C 84.920 363.858,85.833 364.495,86.341 364.822 C 88.535 366.233,91.969 368.518,92.583 368.976 C 92.950 369.250,93.625 369.670,94.083 369.911 C 94.542 370.152,95.554 370.758,96.333 371.258 C 97.112 371.758,98.013 372.288,98.333 372.435 C 98.654 372.582,99.254 372.930,99.667 373.208 C 100.079 373.486,101.354 374.216,102.500 374.831 C 103.646 375.446,104.958 376.171,105.417 376.442 C 106.696 377.198,116.038 381.792,117.917 382.588 C 118.833 382.977,120.344 383.637,121.275 384.056 C 122.205 384.475,123.367 384.960,123.858 385.135 C 124.349 385.309,125.854 385.912,127.204 386.476 C 128.553 387.039,129.738 387.500,129.838 387.500 C 129.937 387.500,131.515 388.063,133.344 388.750 C 135.174 389.438,136.772 390.000,136.897 390.000 C 137.021 390.000,138.719 390.524,140.670 391.164 C 142.620 391.804,144.486 392.374,144.816 392.430 C 145.146 392.487,146.167 392.746,147.083 393.007 C 150.911 394.096,152.316 394.471,153.500 394.721 C 154.188 394.866,156.124 395.289,157.803 395.661 C 161.295 396.433,166.419 397.386,168.500 397.649 C 169.279 397.747,170.929 397.981,172.167 398.169 C 182.276 399.700,185.726 399.917,200.000 399.917 C 214.274 399.917,217.724 399.700,227.833 398.169 C 229.071 397.981,230.721 397.747,231.500 397.649 C 233.581 397.386,238.705 396.433,242.197 395.661 C 243.876 395.289,245.813 394.866,246.500 394.721 C 247.684 394.471,249.089 394.096,252.917 393.007 C 253.833 392.746,254.854 392.487,255.184 392.430 C 255.514 392.374,257.380 391.804,259.330 391.164 C 261.281 390.524,262.979 390.000,263.103 390.000 C 263.228 390.000,264.826 389.437,266.656 388.750 C 268.485 388.063,270.063 387.500,270.162 387.500 C 270.262 387.500,271.447 387.039,272.796 386.476 C 274.146 385.912,275.651 385.309,276.142 385.135 C 276.633 384.960,277.795 384.475,278.725 384.056 C 279.656 383.637,281.167 382.977,282.083 382.588 C 283.962 381.792,293.304 377.198,294.583 376.442 C 295.042 376.171,296.354 375.446,297.500 374.831 C 298.646 374.216,299.921 373.486,300.333 373.208 C 300.746 372.930,301.346 372.582,301.667 372.435 C 301.987 372.288,302.887 371.758,303.667 371.258 C 304.446 370.758,305.458 370.152,305.917 369.911 C 306.375 369.670,307.050 369.250,307.417 368.976 C 308.031 368.518,311.465 366.233,313.659 364.822 C 314.167 364.495,315.080 363.858,315.688 363.406 C 316.296 362.953,317.514 362.062,318.396 361.425 C 319.278 360.788,320.000 360.207,320.000 360.133 C 320.000 360.060,320.087 360.000,320.193 360.000 C 320.411 360.000,321.744 359.011,322.750 358.102 C 323.117 357.771,323.493 357.500,323.586 357.500 C 323.680 357.500,324.317 357.004,325.003 356.397 C 325.689 355.791,326.438 355.174,326.667 355.026 C 326.896 354.879,327.571 354.333,328.167 353.815 C 328.762 353.296,330.150 352.104,331.250 351.166 C 337.793 345.585,345.585 337.793,351.166 331.250 C 352.104 330.150,353.296 328.762,353.815 328.167 C 354.333 327.571,354.879 326.896,355.026 326.667 C 355.174 326.438,355.791 325.689,356.397 325.003 C 357.004 324.317,357.500 323.680,357.500 323.586 C 357.500 323.493,357.771 323.117,358.102 322.750 C 359.011 321.744,360.000 320.411,360.000 320.193 C 360.000 320.087,360.060 320.000,360.133 320.000 C 360.207 320.000,360.788 319.278,361.425 318.396 C 362.062 317.514,362.953 316.296,363.406 315.688 C 363.858 315.080,364.495 314.167,364.822 313.659 C 366.233 311.465,368.518 308.031,368.976 307.417 C 369.250 307.050,369.670 306.375,369.911 305.917 C 370.152 305.458,370.758 304.446,371.258 303.667 C 371.758 302.887,372.288 301.987,372.435 301.667 C 372.582 301.346,372.930 300.746,373.208 300.333 C 373.486 299.921,374.216 298.646,374.831 297.500 C 375.446 296.354,376.171 295.042,376.442 294.583 C 377.198 293.304,381.792 283.962,382.588 282.083 C 382.977 281.167,383.637 279.656,384.056 278.725 C 384.475 277.795,384.960 276.633,385.135 276.142 C 385.309 275.651,385.912 274.146,386.476 272.796 C 387.039 271.447,387.500 270.262,387.500 270.162 C 387.500 270.063,388.063 268.485,388.750 266.656 C 389.438 264.826,390.000 263.228,390.000 263.103 C 390.000 262.979,390.524 261.281,391.164 259.330 C 391.804 257.380,392.374 255.514,392.430 255.184 C 392.487 254.854,392.746 253.833,393.007 252.917 C 394.096 249.089,394.471 247.684,394.721 246.500 C 394.866 245.813,395.289 243.876,395.661 242.197 C 396.433 238.705,397.386 233.581,397.649 231.500 C 397.747 230.721,397.981 229.071,398.169 227.833 C 399.700 217.724,399.917 214.274,399.917 200.000 C 399.917 185.726,399.700 182.276,398.169 172.167 C 397.981 170.929,397.747 169.279,397.649 168.500 C 397.386 166.419,396.433 161.295,395.661 157.803 C 395.289 156.124,394.866 154.188,394.721 153.500 C 394.471 152.316,394.096 150.911,393.007 147.083 C 392.746 146.167,392.487 145.146,392.430 144.816 C 392.374 144.486,391.804 142.620,391.164 140.670 C 390.524 138.719,390.000 137.021,390.000 136.897 C 390.000 136.772,389.437 135.174,388.750 133.344 C 388.062 131.515,387.500 129.937,387.500 129.838 C 387.500 129.738,387.039 128.553,386.476 127.204 C 385.912 125.854,385.309 124.349,385.135 123.858 C 384.960 123.367,384.475 122.205,384.056 121.275 C 383.637 120.344,382.977 118.833,382.588 117.917 C 381.792 116.038,377.198 106.696,376.442 105.417 C 376.171 104.958,375.446 103.646,374.831 102.500 C 374.216 101.354,373.486 100.079,373.208 99.667 C 372.930 99.254,372.582 98.654,372.435 98.333 C 372.288 98.013,371.758 97.112,371.258 96.333 C 370.758 95.554,370.152 94.542,369.911 94.083 C 369.670 93.625,369.250 92.950,368.976 92.583 C 368.518 91.969,366.233 88.535,364.822 86.341 C 364.495 85.833,363.858 84.920,363.406 84.312 C 362.953 83.704,362.062 82.486,361.425 81.604 C 360.788 80.722,360.207 80.000,360.133 80.000 C 360.060 80.000,360.000 79.913,360.000 79.807 C 360.000 79.589,359.011 78.256,358.102 77.250 C 357.771 76.883,357.500 76.507,357.500 76.414 C 357.500 76.320,357.004 75.683,356.397 74.997 C 355.791 74.311,355.174 73.563,355.026 73.333 C 354.879 73.104,354.333 72.429,353.815 71.833 C 353.296 71.237,352.104 69.850,351.166 68.750 C 345.585 62.207,337.793 54.415,331.250 48.834 C 330.150 47.896,328.762 46.704,328.167 46.185 C 327.571 45.667,326.896 45.121,326.667 44.974 C 326.438 44.826,325.689 44.209,325.003 43.603 C 324.317 42.996,323.680 42.500,323.586 42.500 C 323.493 42.500,323.117 42.229,322.750 41.898 C 321.744 40.989,320.411 40.000,320.193 40.000 C 320.087 40.000,320.000 39.935,320.000 39.855 C 320.000 39.710,315.800 36.620,314.031 35.465 C 313.510 35.124,312.783 34.625,312.417 34.354 C 312.050 34.084,310.887 33.311,309.833 32.638 C 308.779 31.965,307.654 31.214,307.333 30.970 C 307.012 30.726,306.375 30.329,305.917 30.089 C 305.458 29.848,304.446 29.242,303.667 28.742 C 302.887 28.242,301.987 27.712,301.667 27.565 C 301.346 27.418,300.746 27.070,300.333 26.792 C 299.921 26.514,298.646 25.784,297.500 25.169 C 296.354 24.554,295.042 23.829,294.583 23.558 C 293.304 22.802,283.962 18.208,282.083 17.412 C 281.167 17.023,279.656 16.363,278.725 15.944 C 277.795 15.525,276.633 15.040,276.142 14.865 C 275.651 14.691,274.146 14.088,272.796 13.524 C 271.447 12.961,270.262 12.500,270.162 12.500 C 270.063 12.500,268.485 11.938,266.656 11.250 C 264.826 10.563,263.228 10.000,263.103 10.000 C 262.979 10.000,261.281 9.476,259.330 8.836 C 257.380 8.196,255.514 7.626,255.184 7.570 C 254.854 7.513,253.833 7.254,252.917 6.993 C 249.089 5.904,247.684 5.529,246.500 5.279 C 245.813 5.134,243.876 4.711,242.197 4.339 C 238.710 3.568,233.585 2.615,231.500 2.351 C 230.721 2.252,228.846 1.988,227.333 1.764 C 217.480 0.303,214.719 0.127,201.083 0.084 C 194.483 0.064,188.708 0.074,188.250 0.107 M207.167 20.001 C 226.469 20.895,244.035 24.364,261.575 30.747 C 268.076 33.113,276.578 36.865,282.833 40.130 C 290.131 43.938,302.493 51.485,302.498 52.135 C 302.499 52.256,300.563 55.143,298.196 58.552 C 295.828 61.961,293.310 65.594,292.600 66.625 C 291.092 68.814,291.356 68.713,289.868 67.668 C 285.437 64.557,277.514 59.930,271.353 56.858 C 220.350 31.420,158.799 35.265,111.393 66.851 L 108.202 68.976 107.877 68.613 C 107.698 68.413,106.171 66.268,104.484 63.847 C 102.797 61.425,100.929 58.747,100.333 57.897 C 99.737 57.047,99.026 56.029,98.751 55.634 C 98.477 55.239,97.896 54.419,97.460 53.810 C 97.024 53.201,96.667 52.657,96.667 52.601 C 96.667 52.434,104.180 47.527,107.333 45.635 C 137.525 27.520,172.973 18.418,207.167 20.001 M143.103 88.073 C 143.734 88.388,144.438 88.726,144.667 88.825 C 144.896 88.924,145.308 89.149,145.583 89.326 C 146.219 89.733,148.761 91.141,149.229 91.345 C 149.424 91.430,149.732 91.593,149.913 91.708 C 151.595 92.774,152.556 93.339,153.333 93.723 C 153.837 93.971,154.550 94.360,154.917 94.586 C 155.283 94.813,155.696 95.047,155.833 95.107 C 155.971 95.167,156.322 95.392,156.614 95.608 C 156.905 95.823,157.318 96.076,157.530 96.169 C 157.743 96.262,158.142 96.486,158.417 96.667 C 158.692 96.848,159.029 97.048,159.167 97.111 C 159.304 97.174,159.679 97.387,160.000 97.585 C 160.321 97.782,161.108 98.229,161.750 98.578 C 162.392 98.927,163.179 99.413,163.500 99.659 C 164.140 100.149,165.782 101.167,165.934 101.167 C 165.986 101.167,166.341 101.378,166.723 101.636 C 168.639 102.933,169.796 103.667,169.932 103.670 C 170.015 103.672,170.271 103.825,170.500 104.011 C 171.154 104.539,173.153 105.862,173.667 106.106 C 174.046 106.286,176.536 108.006,176.927 108.357 C 177.117 108.528,177.358 108.667,177.463 108.667 C 177.569 108.667,177.902 108.873,178.203 109.125 C 178.504 109.377,178.874 109.658,179.024 109.750 C 179.945 110.312,181.983 111.671,182.649 112.167 C 183.080 112.487,183.552 112.825,183.697 112.917 C 184.695 113.546,185.977 114.458,186.299 114.769 C 186.510 114.971,187.108 115.425,187.628 115.777 C 189.659 117.151,193.216 119.782,193.899 120.415 C 194.150 120.647,194.632 120.984,194.969 121.164 C 195.307 121.343,195.932 121.811,196.359 122.203 C 196.785 122.596,197.347 123.078,197.609 123.275 C 197.870 123.473,198.908 124.279,199.917 125.067 C 200.925 125.855,201.846 126.500,201.963 126.500 C 202.159 126.500,203.295 124.289,203.584 123.345 C 203.652 123.123,204.142 122.073,204.672 121.012 C 205.202 119.951,206.098 118.146,206.664 117.000 C 207.229 115.854,207.760 114.804,207.843 114.667 C 207.926 114.529,208.248 113.892,208.558 113.250 C 208.867 112.608,209.350 111.671,209.629 111.167 C 209.909 110.662,210.412 109.696,210.747 109.020 C 211.082 108.343,211.651 107.304,212.012 106.711 C 212.372 106.118,212.667 105.600,212.667 105.561 C 212.667 105.446,215.027 101.258,215.144 101.167 C 215.202 101.121,215.331 100.933,215.429 100.750 C 216.503 98.750,217.804 96.536,218.280 95.901 C 218.493 95.617,218.667 95.310,218.667 95.218 C 218.667 95.125,218.892 94.739,219.167 94.360 C 219.442 93.980,219.667 93.625,219.667 93.570 C 219.667 93.516,219.909 93.121,220.206 92.694 C 220.502 92.266,220.759 91.891,220.776 91.860 C 220.803 91.812,221.438 92.152,223.416 93.273 C 223.600 93.377,224.294 93.736,224.958 94.070 C 225.623 94.404,226.167 94.749,226.167 94.838 C 226.167 94.927,226.243 95.000,226.337 95.000 C 226.430 95.000,226.786 95.175,227.128 95.388 C 227.470 95.602,228.275 96.062,228.917 96.411 C 229.558 96.760,230.482 97.316,230.969 97.647 C 232.266 98.530,233.218 99.146,233.487 99.276 C 233.831 99.443,236.794 101.389,237.618 101.989 C 238.004 102.270,238.384 102.500,238.464 102.500 C 238.543 102.500,238.790 102.695,239.013 102.933 C 239.235 103.170,239.642 103.481,239.917 103.623 C 240.192 103.766,240.865 104.226,241.413 104.647 C 241.961 105.068,242.786 105.670,243.247 105.986 C 244.713 106.993,248.396 109.773,249.000 110.331 C 249.321 110.627,249.771 110.989,250.000 111.137 C 250.374 111.377,251.963 112.652,252.432 113.088 C 252.533 113.182,253.002 113.553,253.475 113.914 C 253.947 114.274,254.333 114.628,254.333 114.701 C 254.333 114.774,254.401 114.833,254.484 114.833 C 254.567 114.833,254.886 115.049,255.192 115.312 C 255.499 115.575,256.575 116.501,257.583 117.370 C 258.592 118.239,259.670 119.168,259.980 119.433 C 260.290 119.699,260.747 120.104,260.995 120.333 C 261.242 120.563,262.150 121.388,263.011 122.167 C 264.838 123.819,266.952 125.834,268.342 127.250 C 268.882 127.800,269.404 128.325,269.502 128.417 C 269.875 128.765,274.025 132.969,275.113 134.099 C 276.427 135.465,277.699 136.851,279.000 138.336 C 279.504 138.912,280.067 139.551,280.250 139.757 C 280.433 139.964,280.883 140.487,281.250 140.920 C 281.617 141.354,282.104 141.908,282.333 142.152 C 282.563 142.395,283.012 142.929,283.333 143.338 C 283.937 144.108,284.224 144.456,284.842 145.167 C 285.042 145.396,285.699 146.221,286.304 147.000 C 286.909 147.779,287.567 148.574,287.766 148.766 C 287.965 148.958,288.410 149.520,288.756 150.016 C 289.102 150.511,289.553 151.088,289.759 151.297 C 290.111 151.656,291.177 153.144,293.641 156.717 C 294.222 157.560,294.879 158.442,295.099 158.676 C 295.320 158.910,295.500 159.191,295.500 159.301 C 295.500 159.410,295.575 159.500,295.667 159.500 C 295.758 159.500,295.833 159.606,295.833 159.736 C 295.833 159.866,295.890 159.997,295.958 160.028 C 296.027 160.058,296.378 160.571,296.739 161.167 C 297.099 161.762,297.437 162.287,297.489 162.333 C 297.541 162.379,297.691 162.604,297.823 162.833 C 297.955 163.063,298.349 163.717,298.698 164.289 C 299.048 164.860,299.333 165.404,299.333 165.497 C 299.333 165.590,299.408 165.667,299.500 165.667 C 299.592 165.667,299.667 165.779,299.667 165.917 C 299.667 166.054,299.742 166.167,299.833 166.167 C 299.925 166.167,300.000 166.279,300.000 166.417 C 300.000 166.554,300.057 166.667,300.126 166.667 C 300.195 166.667,300.358 166.910,300.488 167.208 C 300.617 167.506,300.767 167.787,300.821 167.833 C 300.875 167.879,301.216 168.517,301.579 169.250 C 301.943 169.983,302.280 170.621,302.329 170.667 C 302.377 170.713,302.529 170.975,302.667 171.250 C 302.804 171.525,302.958 171.787,303.009 171.833 C 303.185 171.991,303.833 173.497,303.833 173.748 C 303.833 173.887,303.908 174.000,304.000 174.000 C 304.092 174.000,304.167 174.094,304.167 174.208 C 304.167 174.323,304.477 175.054,304.857 175.833 C 305.236 176.612,305.608 177.400,305.682 177.583 C 306.203 178.859,306.333 179.240,306.334 179.479 C 306.335 179.628,306.445 179.960,306.579 180.217 C 306.860 180.756,307.769 183.789,308.412 186.333 C 308.656 187.296,308.925 188.355,309.011 188.686 C 309.096 189.017,309.167 189.478,309.167 189.709 C 309.167 189.939,309.272 190.493,309.401 190.939 C 309.610 191.659,310.024 193.823,310.592 197.167 C 310.616 197.304,310.682 197.867,310.739 198.417 C 310.797 198.967,310.886 199.553,310.937 199.719 C 311.054 200.103,311.120 200.793,311.258 203.083 C 311.319 204.092,311.427 205.667,311.499 206.583 C 311.636 208.344,311.588 220.273,311.438 221.833 C 311.389 222.338,311.305 223.425,311.251 224.250 C 311.197 225.075,311.127 225.938,311.094 226.167 C 311.062 226.396,310.983 226.996,310.919 227.500 C 310.855 228.004,310.780 228.567,310.753 228.750 C 310.725 228.933,310.650 229.496,310.585 230.000 C 310.520 230.504,310.443 230.956,310.414 231.004 C 310.385 231.051,310.312 231.426,310.253 231.837 C 310.054 233.217,309.358 236.657,308.550 240.250 C 308.153 242.015,306.229 248.567,305.540 250.500 C 304.180 254.312,303.203 256.768,302.291 258.667 C 301.916 259.446,301.598 260.121,301.582 260.167 C 301.336 260.906,300.122 263.558,299.904 263.833 C 299.795 263.971,299.284 264.938,298.768 265.983 C 297.801 267.941,297.196 269.017,296.974 269.172 C 296.904 269.222,296.691 269.597,296.501 270.006 C 296.121 270.826,296.093 270.874,294.958 272.602 C 294.523 273.265,294.167 273.863,294.167 273.930 C 294.167 273.997,293.979 274.298,293.750 274.598 C 293.521 274.899,293.333 275.208,293.333 275.285 C 293.333 275.362,293.127 275.652,292.875 275.928 C 292.623 276.204,292.042 276.988,291.583 277.670 C 287.261 284.103,281.794 290.207,274.083 297.209 C 273.533 297.709,272.905 298.260,272.687 298.434 C 272.468 298.608,271.977 299.012,271.595 299.333 C 271.213 299.654,270.654 300.104,270.353 300.333 C 270.051 300.563,269.717 300.825,269.611 300.917 C 269.342 301.149,266.122 303.447,264.965 304.233 C 264.441 304.589,263.863 305.019,263.680 305.190 C 263.497 305.360,263.269 305.500,263.174 305.500 C 263.078 305.500,263.000 305.575,263.000 305.667 C 263.000 305.758,262.929 305.833,262.842 305.833 C 262.755 305.833,262.350 306.058,261.943 306.333 C 261.535 306.608,261.119 306.833,261.017 306.833 C 260.916 306.833,260.833 306.900,260.833 306.981 C 260.833 307.062,260.702 307.177,260.542 307.238 C 259.994 307.444,259.500 307.746,259.500 307.873 C 259.500 307.943,259.394 308.000,259.264 308.000 C 259.134 308.000,259.003 308.059,258.972 308.130 C 258.942 308.202,258.467 308.482,257.917 308.754 C 257.367 309.025,256.879 309.295,256.833 309.354 C 256.627 309.620,253.391 311.333,253.095 311.333 C 252.966 311.333,252.836 311.390,252.806 311.458 C 252.775 311.527,252.282 311.808,251.711 312.083 C 251.140 312.358,250.671 312.640,250.669 312.708 C 250.668 312.777,250.565 312.833,250.441 312.833 C 250.318 312.833,249.864 313.021,249.433 313.250 C 249.002 313.479,248.572 313.667,248.478 313.667 C 248.384 313.667,247.769 313.919,247.112 314.227 C 245.432 315.014,243.059 316.000,242.846 316.000 C 242.747 316.000,242.667 316.075,242.667 316.167 C 242.667 316.258,242.462 316.333,242.212 316.333 C 241.787 316.333,240.992 316.598,239.167 317.348 C 238.754 317.518,238.079 317.741,237.667 317.844 C 237.254 317.948,236.842 318.090,236.750 318.159 C 236.487 318.359,234.976 318.833,234.601 318.833 C 234.414 318.833,232.657 319.288,230.697 319.845 C 228.737 320.401,227.097 320.819,227.052 320.774 C 227.006 320.729,226.620 320.803,226.193 320.939 C 225.766 321.076,224.854 321.261,224.167 321.352 C 222.333 321.593,222.185 321.615,221.000 321.830 C 220.404 321.938,219.692 322.056,219.417 322.092 C 219.142 322.127,218.692 322.193,218.417 322.239 C 218.142 322.284,217.542 322.362,217.083 322.412 C 216.625 322.461,215.912 322.541,215.500 322.588 C 213.776 322.787,213.346 322.827,211.917 322.929 C 208.870 323.146,202.553 323.228,199.917 323.085 C 197.996 322.981,196.130 322.850,195.333 322.764 C 194.921 322.719,194.171 322.641,193.667 322.591 C 192.769 322.502,192.086 322.417,190.917 322.250 C 190.596 322.204,190.052 322.129,189.708 322.083 C 189.365 322.037,188.896 321.961,188.667 321.914 C 187.838 321.743,187.485 321.684,185.633 321.412 C 184.597 321.259,183.711 321.111,183.663 321.081 C 183.615 321.052,183.268 320.982,182.892 320.925 C 182.515 320.869,180.642 320.408,178.728 319.901 C 176.815 319.393,174.688 318.830,174.000 318.650 C 173.313 318.469,172.637 318.275,172.500 318.219 C 172.362 318.162,172.175 318.094,172.083 318.066 C 171.505 317.890,168.721 316.891,168.583 316.810 C 168.492 316.755,168.004 316.582,167.500 316.424 C 166.996 316.266,166.347 316.031,166.058 315.902 C 165.769 315.773,165.463 315.667,165.377 315.667 C 165.292 315.667,164.703 315.418,164.069 315.113 C 163.435 314.809,162.654 314.460,162.333 314.337 C 162.012 314.214,161.679 314.050,161.592 313.973 C 161.505 313.896,161.321 313.833,161.183 313.833 C 160.911 313.833,154.343 310.629,153.667 310.166 C 153.438 310.010,152.425 309.449,151.417 308.922 C 150.408 308.394,149.208 307.682,148.749 307.340 C 148.290 306.997,147.653 306.584,147.332 306.420 C 147.012 306.257,146.124 305.702,145.360 305.187 C 144.595 304.671,143.742 304.115,143.464 303.950 C 142.931 303.634,141.590 302.662,141.167 302.286 C 141.029 302.164,140.129 301.473,139.167 300.751 C 137.027 299.146,134.603 297.175,134.528 296.978 C 134.497 296.899,134.403 296.833,134.319 296.833 C 134.235 296.833,134.031 296.702,133.865 296.542 C 133.700 296.381,132.968 295.729,132.240 295.092 C 131.512 294.455,129.492 292.503,127.750 290.753 C 124.546 287.535,123.494 286.394,121.667 284.156 C 121.346 283.763,120.971 283.322,120.833 283.176 C 120.696 283.030,120.323 282.575,120.004 282.164 C 119.686 281.753,119.381 281.379,119.326 281.333 C 119.271 281.287,118.899 280.800,118.499 280.250 C 118.098 279.700,117.710 279.225,117.635 279.194 C 117.561 279.164,117.500 279.033,117.500 278.903 C 117.500 278.773,117.388 278.667,117.250 278.667 C 117.112 278.667,117.000 278.589,117.000 278.493 C 117.000 278.397,116.906 278.207,116.792 278.071 C 116.677 277.934,116.508 277.731,116.417 277.619 C 116.325 277.508,116.150 277.222,116.027 276.984 C 115.833 276.607,115.555 276.233,114.837 275.382 C 114.743 275.271,114.667 275.103,114.667 275.007 C 114.667 274.911,114.592 274.833,114.500 274.833 C 114.408 274.833,114.333 274.765,114.333 274.681 C 114.333 274.530,113.340 272.932,113.008 272.549 C 112.912 272.438,112.833 272.286,112.833 272.212 C 112.833 272.137,112.616 271.812,112.351 271.490 C 112.085 271.168,111.632 270.469,111.344 269.936 C 111.056 269.404,110.698 268.781,110.548 268.552 C 110.113 267.890,109.725 267.182,108.963 265.667 C 108.572 264.887,108.164 264.157,108.056 264.044 C 107.693 263.659,104.199 256.319,103.673 254.833 C 103.449 254.201,103.362 253.987,102.842 252.801 C 102.654 252.370,102.500 251.907,102.500 251.771 C 102.500 251.635,102.397 251.420,102.270 251.294 C 102.144 251.168,101.985 250.806,101.916 250.491 C 101.848 250.175,101.737 249.879,101.670 249.833 C 101.603 249.787,101.308 248.925,101.016 247.917 C 100.723 246.908,100.378 245.858,100.249 245.583 C 99.862 244.758,98.083 238.139,97.673 236.000 C 97.391 234.531,97.139 233.075,97.067 232.500 C 97.026 232.179,96.965 231.729,96.932 231.500 C 96.848 230.935,96.671 229.420,96.581 228.502 C 96.143 224.042,96.149 215.761,96.594 210.500 C 96.621 210.179,96.686 209.392,96.739 208.750 C 96.791 208.108,96.868 207.283,96.909 206.917 C 96.950 206.550,97.028 205.838,97.082 205.333 C 97.137 204.829,97.212 204.229,97.249 204.000 C 97.287 203.771,97.361 203.208,97.414 202.750 C 97.467 202.292,97.541 201.729,97.578 201.500 C 97.719 200.625,97.838 199.786,97.927 199.041 C 97.978 198.617,98.051 198.219,98.088 198.158 C 98.126 198.098,98.197 197.718,98.247 197.316 C 98.297 196.913,98.408 196.171,98.494 195.667 C 98.580 195.162,98.682 194.411,98.721 193.997 C 98.793 193.236,98.996 192.146,99.435 190.167 C 99.782 188.604,99.844 188.308,99.935 187.750 C 99.980 187.475,100.120 186.875,100.247 186.417 C 100.373 185.958,100.514 185.358,100.561 185.083 C 100.608 184.808,100.688 184.396,100.737 184.167 C 101.504 180.620,102.029 178.442,102.520 176.777 C 102.795 175.846,103.055 174.896,103.099 174.667 C 103.143 174.438,103.478 173.162,103.843 171.833 C 104.208 170.504,104.537 169.304,104.574 169.167 C 104.611 169.029,104.656 168.898,104.675 168.875 C 104.693 168.852,104.722 168.777,104.738 168.708 C 104.755 168.640,104.984 167.908,105.248 167.083 C 105.512 166.258,105.739 165.546,105.753 165.500 C 105.767 165.454,105.826 165.304,105.883 165.167 C 105.940 165.029,106.141 164.300,106.329 163.546 C 106.517 162.793,106.757 161.968,106.861 161.713 C 106.966 161.458,107.070 161.175,107.094 161.083 C 107.117 160.992,107.336 160.354,107.579 159.667 C 107.822 158.979,108.246 157.704,108.520 156.833 C 108.994 155.333,109.704 153.313,110.015 152.583 C 110.176 152.208,110.481 151.362,111.158 149.417 C 111.413 148.683,112.048 146.996,112.568 145.667 C 113.089 144.337,113.673 142.837,113.867 142.333 C 114.267 141.293,114.657 140.381,115.352 138.868 C 115.617 138.290,115.833 137.746,115.833 137.657 C 115.833 137.568,115.900 137.365,115.980 137.206 C 116.061 137.047,116.297 136.467,116.504 135.917 C 116.842 135.019,117.473 133.608,118.357 131.776 C 118.528 131.424,118.667 131.056,118.667 130.960 C 118.667 130.864,118.923 130.252,119.236 129.601 C 120.315 127.356,121.167 125.480,121.167 125.350 C 121.167 125.278,121.353 124.889,121.581 124.485 C 121.809 124.081,122.045 123.638,122.105 123.500 C 122.656 122.236,125.308 116.805,125.930 115.667 C 126.055 115.438,126.525 114.500,126.974 113.583 C 127.825 111.847,128.863 109.848,129.873 108.000 C 130.198 107.404,130.798 106.279,131.204 105.500 C 132.052 103.876,132.819 102.492,133.007 102.250 C 133.078 102.158,133.389 101.596,133.698 101.000 C 134.007 100.404,134.481 99.579,134.751 99.167 C 135.410 98.163,135.585 97.868,135.989 97.083 C 136.637 95.826,137.253 94.749,137.847 93.833 C 139.078 91.937,139.435 91.361,139.604 91.000 C 139.668 90.862,140.046 90.241,140.444 89.620 C 140.841 88.998,141.167 88.450,141.167 88.401 C 141.167 88.260,141.740 87.511,141.853 87.505 C 141.909 87.502,142.472 87.758,143.103 88.073 M349.954 100.375 C 361.121 117.284,369.239 135.309,374.143 154.083 C 387.214 204.119,378.704 255.863,350.290 299.125 C 349.010 301.073,347.882 302.667,347.782 302.667 C 347.616 302.667,346.360 301.879,346.167 301.654 C 346.121 301.600,345.633 301.258,345.083 300.894 C 343.399 299.778,339.793 297.295,339.250 296.878 C 339.158 296.807,338.446 296.316,337.667 295.786 C 336.887 295.257,336.063 294.683,335.833 294.512 C 335.604 294.340,334.592 293.630,333.583 292.935 C 332.575 292.239,331.660 291.594,331.549 291.502 C 331.399 291.377,331.824 290.623,333.217 288.542 C 353.902 257.640,363.434 217.766,358.826 181.417 C 355.845 157.909,348.633 136.657,337.217 117.750 C 335.473 114.861,332.797 110.722,331.808 109.382 C 331.455 108.905,331.168 108.417,331.171 108.299 C 331.175 108.074,347.112 96.840,347.433 96.836 C 347.533 96.834,348.668 98.427,349.954 100.375 M53.777 98.293 C 56.546 100.242,58.742 101.752,58.898 101.815 C 58.987 101.851,59.372 102.114,59.755 102.399 C 60.137 102.684,60.597 103.017,60.777 103.139 C 60.956 103.261,61.736 103.804,62.510 104.346 C 64.421 105.684,65.495 106.428,67.167 107.571 C 67.946 108.104,68.606 108.560,68.634 108.584 C 68.661 108.609,67.791 109.968,66.700 111.606 C 31.256 164.781,31.285 235.023,66.773 288.522 C 67.906 290.230,68.833 291.692,68.832 291.772 C 68.830 291.941,53.041 303.018,52.657 303.120 C 52.472 303.169,51.673 302.090,49.892 299.386 C 9.765 238.465,9.821 161.582,50.039 100.375 C 52.334 96.883,52.020 97.057,53.777 98.293 M162.167 162.660 C 162.167 162.767,161.989 163.244,161.773 163.719 C 161.556 164.194,161.323 164.764,161.254 164.984 C 161.185 165.204,160.928 165.729,160.684 166.150 C 160.440 166.572,160.102 167.254,159.934 167.667 C 159.765 168.079,159.454 168.792,159.243 169.250 C 159.032 169.708,158.749 170.346,158.614 170.667 C 158.118 171.844,157.298 173.608,156.822 174.523 C 156.553 175.040,156.333 175.573,156.333 175.706 C 156.333 175.840,156.225 176.167,156.094 176.433 C 155.623 177.383,155.112 178.585,155.134 178.692 C 155.146 178.752,155.046 178.893,154.911 179.004 C 154.777 179.116,154.667 179.278,154.667 179.364 C 154.667 179.451,154.481 179.927,154.254 180.423 C 154.027 180.919,153.791 181.533,153.730 181.787 C 153.668 182.042,153.396 182.737,153.126 183.333 C 152.523 184.662,152.357 185.058,151.695 186.750 C 149.628 192.031,149.019 193.656,148.916 194.167 C 148.850 194.487,148.662 195.088,148.498 195.500 C 148.127 196.428,147.963 196.867,147.905 197.083 C 147.880 197.175,147.699 197.700,147.502 198.250 C 146.682 200.538,144.555 208.812,144.244 210.917 C 144.190 211.283,144.088 211.808,144.017 212.083 C 143.947 212.358,143.871 213.069,143.848 213.662 C 143.825 214.256,143.779 214.787,143.745 214.841 C 143.492 215.251,143.349 222.811,143.564 224.417 C 143.613 224.783,143.701 225.758,143.761 226.583 C 143.820 227.408,143.971 228.449,144.098 228.896 C 144.224 229.342,144.290 229.768,144.245 229.842 C 144.199 229.915,144.268 230.300,144.397 230.696 C 144.526 231.092,144.867 232.256,145.154 233.281 C 145.441 234.306,145.785 235.356,145.920 235.614 C 146.054 235.872,146.212 236.440,146.270 236.875 C 146.329 237.310,146.442 237.667,146.521 237.667 C 146.601 237.667,146.667 237.801,146.667 237.965 C 146.667 238.129,146.817 238.557,147.000 238.917 C 147.183 239.276,147.334 239.648,147.334 239.744 C 147.334 239.839,147.559 240.367,147.833 240.917 C 148.108 241.467,148.332 242.010,148.333 242.125 C 148.333 242.240,148.396 242.333,148.474 242.333 C 148.551 242.333,148.706 242.640,148.818 243.015 C 149.068 243.850,150.720 247.090,151.019 247.333 C 151.076 247.379,151.180 247.604,151.251 247.833 C 151.322 248.063,151.932 249.098,152.607 250.133 C 153.281 251.169,153.833 252.056,153.833 252.104 C 153.833 252.151,153.927 252.295,154.042 252.423 C 154.491 252.924,154.667 253.157,154.667 253.251 C 154.667 253.305,154.841 253.514,155.054 253.716 C 155.267 253.918,155.769 254.533,156.170 255.083 C 156.572 255.633,156.979 256.167,157.075 256.270 C 157.171 256.373,157.662 256.928,158.167 257.504 C 160.112 259.726,163.252 262.712,165.083 264.083 C 165.542 264.427,166.142 264.909,166.417 265.155 C 166.692 265.401,167.247 265.824,167.651 266.093 C 168.055 266.363,168.580 266.714,168.818 266.873 C 169.055 267.032,169.362 267.220,169.500 267.291 C 169.637 267.361,170.162 267.689,170.667 268.018 C 171.171 268.348,171.883 268.753,172.250 268.920 C 172.617 269.086,173.029 269.317,173.167 269.432 C 173.507 269.718,176.416 271.167,176.650 271.167 C 176.753 271.167,176.968 271.236,177.127 271.320 C 179.496 272.575,186.321 274.806,189.583 275.392 C 190.136 275.492,190.863 275.630,191.500 275.756 C 192.543 275.963,192.804 276.000,193.827 276.083 C 194.427 276.131,195.292 276.207,195.750 276.251 C 198.693 276.534,204.605 276.637,206.667 276.441 C 207.171 276.393,208.146 276.311,208.833 276.259 C 211.985 276.019,212.272 275.988,213.583 275.760 C 215.868 275.363,222.371 273.853,223.417 273.477 C 223.692 273.378,224.367 273.163,224.917 272.999 C 225.467 272.835,226.142 272.582,226.417 272.435 C 226.692 272.289,227.034 272.168,227.176 272.168 C 227.319 272.167,227.582 272.057,227.760 271.922 C 227.938 271.787,228.196 271.674,228.333 271.671 C 228.471 271.667,228.798 271.553,229.061 271.416 C 229.323 271.279,229.675 271.167,229.843 271.167 C 230.010 271.167,230.193 271.092,230.250 271.000 C 230.307 270.908,230.466 270.833,230.605 270.833 C 230.744 270.833,230.970 270.721,231.107 270.583 C 231.245 270.446,231.502 270.333,231.679 270.333 C 231.855 270.333,232.000 270.258,232.000 270.167 C 232.000 270.075,232.150 270.000,232.333 270.000 C 232.517 270.000,232.667 269.925,232.667 269.833 C 232.667 269.742,232.762 269.667,232.880 269.667 C 232.997 269.667,233.526 269.442,234.056 269.167 C 234.586 268.892,235.128 268.667,235.260 268.667 C 235.392 268.667,235.500 268.592,235.500 268.500 C 235.500 268.408,235.612 268.333,235.750 268.333 C 235.887 268.333,236.000 268.258,236.000 268.167 C 236.000 268.075,236.112 268.000,236.250 268.000 C 236.387 268.000,236.500 267.939,236.500 267.864 C 236.500 267.790,236.762 267.626,237.083 267.500 C 237.404 267.374,237.667 267.210,237.667 267.136 C 237.667 267.061,237.736 267.000,237.820 267.000 C 238.039 267.000,241.012 265.163,241.450 264.757 C 242.093 264.161,242.315 264.000,242.493 264.000 C 242.589 264.000,242.667 263.925,242.667 263.833 C 242.667 263.742,242.769 263.667,242.894 263.667 C 243.019 263.667,243.300 263.496,243.519 263.287 C 243.738 263.078,244.217 262.690,244.583 262.425 C 244.950 262.160,245.374 261.824,245.525 261.679 C 245.676 261.535,246.125 261.154,246.522 260.833 C 248.265 259.425,251.757 256.012,253.167 254.340 C 253.579 253.850,254.046 253.313,254.203 253.146 C 254.361 252.980,254.978 252.185,255.575 251.380 C 256.172 250.575,256.942 249.543,257.288 249.086 C 258.051 248.077,258.260 247.746,259.078 246.250 C 259.429 245.608,259.988 244.633,260.321 244.083 C 260.654 243.533,261.102 242.671,261.318 242.167 C 261.695 241.287,262.163 240.246,262.879 238.691 C 263.145 238.113,264.033 235.394,264.221 234.583 C 264.242 234.492,264.305 234.342,264.361 234.250 C 264.509 234.009,265.456 230.369,265.576 229.583 C 265.631 229.217,265.746 228.654,265.831 228.333 C 265.978 227.777,266.168 226.034,266.440 222.750 C 266.600 220.813,266.605 216.358,266.449 214.333 C 266.107 209.898,266.009 209.137,265.419 206.333 C 265.009 204.387,263.499 199.175,263.071 198.225 C 262.940 197.936,262.831 197.636,262.828 197.558 C 262.825 197.480,262.677 197.117,262.500 196.750 C 262.323 196.383,262.175 195.990,262.172 195.875 C 262.169 195.760,262.092 195.667,262.000 195.667 C 261.908 195.667,261.833 195.579,261.833 195.471 C 261.833 195.204,261.002 193.121,260.816 192.925 C 260.734 192.838,260.667 192.632,260.667 192.467 C 260.667 192.302,260.592 192.167,260.500 192.167 C 260.408 192.167,260.333 192.023,260.333 191.847 C 260.333 191.672,260.272 191.503,260.196 191.472 C 260.121 191.442,259.596 190.554,259.030 189.500 C 257.752 187.119,257.495 186.685,257.111 186.257 C 256.944 186.070,256.551 185.483,256.239 184.954 C 255.927 184.424,255.483 183.788,255.253 183.539 C 255.022 183.290,254.833 182.992,254.833 182.877 C 254.833 182.761,254.777 182.666,254.708 182.666 C 254.640 182.665,254.406 182.404,254.189 182.086 C 253.972 181.767,253.672 181.361,253.523 181.182 C 253.373 181.004,253.025 180.581,252.750 180.243 C 251.421 178.610,249.525 176.567,246.167 173.150 C 243.090 170.020,243.122 170.041,242.712 170.794 C 242.247 171.650,238.881 178.495,237.940 180.500 C 237.746 180.912,237.548 181.287,237.499 181.333 C 237.450 181.379,237.175 181.904,236.887 182.500 C 235.261 185.869,234.952 186.499,234.513 187.333 C 234.248 187.838,233.822 188.737,233.566 189.333 C 233.309 189.929,232.938 190.679,232.741 191.000 C 232.544 191.321,232.140 192.108,231.843 192.750 C 230.822 194.955,230.266 196.085,229.833 196.833 C 229.595 197.246,229.183 198.108,228.919 198.750 C 228.655 199.392,228.353 200.029,228.248 200.167 C 228.066 200.405,226.151 204.270,225.605 205.500 C 225.462 205.821,225.134 206.458,224.876 206.917 C 224.617 207.375,224.315 207.913,224.204 208.112 C 224.009 208.462,223.896 208.395,220.899 206.154 C 219.193 204.878,217.764 203.833,217.725 203.833 C 217.639 203.833,217.507 203.730,216.407 202.798 C 215.944 202.405,214.669 201.426,213.574 200.623 C 208.462 196.873,206.225 195.185,205.933 194.857 C 205.758 194.660,205.514 194.500,205.391 194.500 C 205.268 194.500,205.167 194.428,205.167 194.340 C 205.167 194.253,204.829 193.983,204.417 193.741 C 204.004 193.499,203.667 193.234,203.667 193.151 C 203.667 193.068,203.592 193.000,203.501 193.000 C 203.324 193.000,196.156 187.656,195.639 187.139 C 195.471 186.971,195.296 186.833,195.250 186.833 C 195.204 186.833,193.935 185.915,192.430 184.792 C 190.925 183.669,189.528 182.637,189.325 182.500 C 189.122 182.362,188.347 181.780,187.603 181.207 C 186.859 180.633,185.770 179.808,185.183 179.373 C 184.595 178.939,182.758 177.568,181.099 176.328 C 179.440 175.087,177.813 173.907,177.482 173.704 C 177.152 173.501,176.702 173.159,176.482 172.942 C 176.263 172.726,175.258 171.940,174.250 171.195 C 173.242 170.451,172.298 169.727,172.153 169.587 C 172.007 169.448,171.799 169.333,171.689 169.333 C 171.579 169.333,171.446 169.221,171.394 169.083 C 171.341 168.946,171.212 168.832,171.107 168.831 C 171.002 168.829,170.242 168.299,169.417 167.652 C 168.592 167.005,167.654 166.315,167.333 166.119 C 167.012 165.922,166.563 165.584,166.333 165.368 C 165.127 164.229,162.167 162.305,162.167 162.660 M293.700 333.549 C 294.589 334.851,296.081 337.004,297.017 338.333 C 297.953 339.662,299.133 341.350,299.640 342.083 C 300.147 342.817,300.792 343.732,301.073 344.117 C 302.183 345.639,303.333 347.314,303.333 347.408 C 303.333 347.569,296.022 352.367,293.183 354.069 C 286.672 357.973,279.520 361.712,273.417 364.402 C 271.583 365.210,269.446 366.153,268.667 366.498 C 266.169 367.602,261.539 369.325,257.000 370.839 C 204.308 388.423,147.438 380.910,100.710 350.191 C 98.947 349.032,97.503 347.991,97.502 347.877 C 97.500 347.705,108.236 332.070,108.685 331.591 C 108.777 331.493,109.317 331.768,110.100 332.312 C 162.342 368.631,235.246 368.949,288.713 333.090 C 290.383 331.970,291.825 331.082,291.917 331.118 C 292.008 331.153,292.811 332.247,293.700 333.549 " stroke="none" fill="#4c74dc" fill-rule="evenodd"></path></g></svg>