<svg height="400" width="400" xmlns="http://www.w3.org/2000/svg"><g fill-rule="evenodd"><path d="M192.083 20.019c-29.902 1.349-58.926 10.122-84.75 25.616-3.153 1.892-10.666 6.799-10.666 6.966 0 .056.357.6.793 1.209s1.017 1.429 1.291 1.824a3605.394 3605.394 0 0 1 5.733 8.213c1.687 2.421 3.214 4.566 3.393 4.766l.325.363 3.191-2.125c47.406-31.586 108.957-35.431 159.96-9.993 6.161 3.072 14.084 7.699 18.515 10.81 1.488 1.045 1.224 1.146 2.732-1.043.71-1.031 3.228-4.664 5.596-8.073 2.367-3.409 4.303-6.296 4.302-6.417-.005-.65-12.367-8.197-19.665-12.005-6.255-3.265-14.757-7.017-21.258-9.383-22.2-8.079-46.175-11.78-69.492-10.728m-50.625 67.893c-.16.22-.291.441-.291.489 0 .049-.326.597-.723 1.219-.398.621-.776 1.242-.84 1.38-.169.361-.526.937-1.757 2.833a38.041 38.041 0 0 0-1.858 3.25c-.404.785-.579 1.08-1.238 2.084-.27.412-.744 1.237-1.053 1.833s-.62 1.158-.691 1.25c-.188.242-.955 1.626-1.803 3.25-.406.779-1.006 1.904-1.331 2.5a147.348 147.348 0 0 0-2.899 5.583 92.177 92.177 0 0 1-1.044 2.084c-.622 1.138-3.274 6.569-3.825 7.833-.06.138-.296.581-.524.985s-.414.793-.414.865c0 .13-.852 2.006-1.931 4.251-.313.651-.569 1.263-.569 1.359s-.139.464-.31.816c-.884 1.832-1.515 3.243-1.853 4.141a20.12 20.12 0 0 1-.524 1.289c-.08.159-.147.362-.147.451s-.216.633-.481 1.211c-.695 1.513-1.085 2.425-1.485 3.465-.194.504-.778 2.004-1.299 3.334a136.422 136.422 0 0 0-1.41 3.75c-.677 1.945-.982 2.791-1.143 3.166-.311.73-1.021 2.75-1.495 4.25a105.01 105.01 0 0 1-.941 2.834 44.728 44.728 0 0 0-.485 1.416 7.428 7.428 0 0 1-.233.63c-.104.255-.344 1.08-.532 1.833-.188.754-.389 1.483-.446 1.621-.057.137-.116.287-.13.333l-.505 1.583a94.372 94.372 0 0 0-.51 1.625.572.572 0 0 1-.063.167 1.431 1.431 0 0 0-.101.292l-.731 2.666c-.365 1.329-.7 2.605-.744 2.834s-.304 1.179-.579 2.11c-.491 1.665-1.016 3.843-1.783 7.39-.049.229-.129.641-.176.916s-.188.875-.314 1.334a16.199 16.199 0 0 0-.312 1.333c-.091.558-.153.854-.5 2.417-.439 1.979-.642 3.069-.714 3.83a27.547 27.547 0 0 1-.227 1.67 44.8 44.8 0 0 0-.247 1.649c-.05.402-.121.782-.159.842-.037.061-.11.459-.161.883a61.804 61.804 0 0 1-.349 2.459c-.037.229-.111.792-.164 1.25s-.127 1.021-.165 1.25c-.037.229-.112.829-.167 1.333-.054.505-.132 1.217-.173 1.584a76.737 76.737 0 0 0-.17 1.833l-.145 1.75c-.445 5.261-.451 13.542-.013 18.002a85.9 85.9 0 0 0 .351 2.998c.033.229.094.679.135 1 .072.575.324 2.031.606 3.5.41 2.139 2.189 8.758 2.576 9.583.129.275.474 1.325.767 2.334.292 1.008.587 1.87.654 1.916s.178.342.246.658c.069.315.228.677.354.803.127.126.23.341.23.477s.154.599.342 1.03c.52 1.186.607 1.4.831 2.032.526 1.486 4.02 8.826 4.383 9.211.108.113.516.843.907 1.623.762 1.515 1.15 2.223 1.585 2.885.15.229.508.852.796 1.384.288.533.741 1.232 1.007 1.554.265.322.482.647.482.722 0 .074.079.226.175.337.332.383 1.325 1.981 1.325 2.132 0 .084.075.152.167.152s.167.078.167.174.076.264.17.375c.718.851.996 1.225 1.19 1.602.123.238.298.524.39.635.091.112.26.315.375.452.114.136.208.326.208.422s.112.174.25.174.25.106.25.236.061.261.135.291c.075.031.463.506.864 1.056.4.55.772 1.037.827 1.083s.36.42.678.831c.319.411.692.866.829 1.012.138.146.513.587.834.98 1.827 2.238 2.879 3.379 6.083 6.597 1.742 1.75 3.762 3.702 4.49 4.339s1.46 1.289 1.625 1.45c.166.16.37.291.454.291s.178.066.209.145c.075.197 2.499 2.168 4.639 3.773.962.722 1.862 1.413 2 1.535.423.376 1.764 1.348 2.297 1.664.278.165 1.131.721 1.896 1.237.764.515 1.652 1.07 1.972 1.233.321.164.958.577 1.417.92.459.342 1.659 1.054 2.668 1.582 1.008.527 2.021 1.088 2.25 1.244.676.463 7.244 3.667 7.516 3.667.138 0 .322.063.409.14s.42.241.741.364 1.102.472 1.736.776c.634.305 1.223.554 1.308.554.086 0 .392.106.681.235s.938.364 1.442.522.992.331 1.083.386c.138.081 2.922 1.08 3.5 1.256.092.028.279.096.417.153.137.056.813.25 1.5.431.688.18 2.815.743 4.728 1.251 1.914.507 3.787.968 4.164 1.024.376.057.723.127.771.156.048.03.934.178 1.97.331 1.852.272 2.205.331 3.034.502.229.047.698.123 1.041.169.344.046.888.121 1.209.167 1.169.167 1.852.252 2.75.341.504.05 1.254.128 1.666.173.797.086 2.663.217 4.584.321 2.636.143 8.953.061 12-.156a62.695 62.695 0 0 0 3.583-.341c.412-.047 1.125-.127 1.583-.176.459-.05 1.059-.128 1.334-.173.275-.046.725-.112 1-.147a45.01 45.01 0 0 0 1.583-.262c1.185-.215 1.333-.237 3.167-.478.687-.091 1.599-.276 2.026-.413.427-.136.813-.21.859-.165.045.045 1.685-.373 3.645-.929 1.96-.557 3.717-1.012 3.904-1.012.375 0 1.886-.474 2.149-.674.092-.069.504-.211.917-.315a13.155 13.155 0 0 0 1.5-.496c1.825-.75 2.62-1.015 3.045-1.015.25 0 .455-.075.455-.166 0-.092.08-.167.179-.167.213 0 2.586-.986 4.266-1.773.657-.308 1.272-.56 1.366-.56s.524-.188.955-.417.885-.417 1.008-.417c.124 0 .227-.056.228-.125.002-.068.471-.35 1.042-.625s1.064-.556 1.095-.625c.03-.068.16-.125.289-.125.296 0 3.532-1.713 3.738-1.979.046-.059.534-.329 1.084-.6.55-.272 1.025-.552 1.055-.624.031-.071.162-.13.292-.13s.236-.057.236-.127c0-.127.494-.429 1.042-.635.16-.061.291-.176.291-.257s.083-.148.184-.148c.102 0 .518-.225.926-.5.407-.275.812-.5.899-.5s.158-.075.158-.166a.17.17 0 0 1 .174-.167c.095 0 .323-.14.506-.31.183-.171.761-.601 1.285-.957 1.157-.786 4.377-3.084 4.646-3.316.106-.092.44-.354.742-.584.301-.229.86-.679 1.242-1s.873-.725 1.092-.899c3.103-2.475 10.495-9.923 13.663-13.767 1.15-1.396 4.296-5.603 5.233-6.997.459-.682 1.04-1.466 1.292-1.742s.458-.566.458-.643.188-.386.417-.687c.229-.3.417-.601.417-.668s.356-.665.791-1.328c1.135-1.728 1.163-1.776 1.543-2.596.19-.409.403-.784.473-.834.222-.155.827-1.231 1.794-3.189.516-1.045 1.027-2.012 1.136-2.15.218-.275 1.432-2.927 1.678-3.666.016-.046.334-.721.709-1.5.912-1.899 1.889-4.355 3.249-8.167.689-1.933 2.613-8.485 3.01-10.25.808-3.593 1.504-7.033 1.703-8.413.059-.411.132-.786.161-.833.029-.048.106-.5.171-1.004s.14-1.067.168-1.25c.027-.183.102-.746.166-1.25s.143-1.104.175-1.333c.033-.229.103-1.092.157-1.917s.138-1.912.187-2.417c.15-1.56.198-13.489.061-15.25-.072-.916-.18-2.491-.241-3.5-.138-2.29-.204-2.98-.321-3.364-.051-.166-.14-.752-.198-1.302a32.075 32.075 0 0 0-.147-1.25c-.568-3.344-.982-5.508-1.191-6.228-.129-.446-.234-1-.234-1.23 0-.231-.071-.692-.156-1.023-.086-.331-.355-1.39-.599-2.353-.643-2.544-1.552-5.577-1.833-6.116-.134-.257-.244-.589-.245-.738-.001-.239-.131-.62-.652-1.896a53.549 53.549 0 0 0-.825-1.75c-.38-.779-.69-1.51-.69-1.625 0-.114-.075-.208-.167-.208s-.167-.113-.167-.252c0-.251-.648-1.757-.824-1.915-.051-.046-.205-.308-.342-.583-.138-.275-.29-.537-.338-.583-.049-.046-.386-.684-.75-1.417-.363-.733-.704-1.371-.758-1.417s-.204-.327-.333-.625c-.13-.298-.293-.541-.362-.541s-.126-.113-.126-.25c0-.138-.075-.25-.167-.25-.091 0-.166-.113-.166-.25 0-.138-.075-.25-.167-.25s-.167-.077-.167-.17-.285-.637-.635-1.208a94.702 94.702 0 0 1-.875-1.456c-.132-.229-.282-.454-.334-.5s-.39-.571-.75-1.166c-.361-.596-.712-1.109-.781-1.139-.068-.031-.125-.162-.125-.292s-.075-.236-.166-.236c-.092 0-.167-.09-.167-.199 0-.11-.18-.391-.401-.625-.22-.234-.877-1.116-1.458-1.959-2.464-3.573-3.53-5.061-3.882-5.42-.206-.209-.657-.786-1.003-1.281-.346-.496-.791-1.058-.99-1.25s-.857-.987-1.462-1.766-1.262-1.604-1.462-1.833a38.768 38.768 0 0 1-1.509-1.829c-.321-.409-.77-.943-1-1.186a40.683 40.683 0 0 1-1.083-1.232 98.135 98.135 0 0 0-1-1.163c-.183-.206-.746-.845-1.25-1.421a122.417 122.417 0 0 0-3.887-4.237c-1.088-1.13-5.238-5.334-5.611-5.682a87.94 87.94 0 0 1-1.16-1.167c-1.39-1.416-3.504-3.431-5.331-5.083a331.811 331.811 0 0 1-2.016-1.834 45.54 45.54 0 0 0-1.015-.9c-.31-.265-1.388-1.194-2.397-2.063-1.008-.869-2.084-1.795-2.391-2.058-.306-.263-.625-.479-.708-.479s-.151-.059-.151-.132-.386-.427-.858-.787a25.458 25.458 0 0 1-1.043-.826c-.469-.436-2.058-1.711-2.432-1.951a9.486 9.486 0 0 1-1-.806c-.604-.558-4.287-3.338-5.753-4.345-.461-.316-1.286-.918-1.834-1.339s-1.221-.881-1.496-1.024a4.024 4.024 0 0 1-.904-.69c-.223-.238-.47-.433-.549-.433-.08 0-.46-.23-.846-.511-.824-.6-3.787-2.546-4.131-2.713-.269-.13-1.221-.746-2.518-1.629a29.822 29.822 0 0 0-2.052-1.236 43.993 43.993 0 0 1-1.789-1.023c-.342-.213-.698-.388-.791-.388-.094 0-.17-.073-.17-.162s-.544-.434-1.209-.768a59.185 59.185 0 0 1-1.542-.797c-1.978-1.121-2.613-1.461-2.64-1.413-.017.031-.274.406-.57.834-.297.427-.539.822-.539.876 0 .055-.225.41-.5.79-.275.379-.5.765-.5.858 0 .092-.174.399-.387.683-.476.635-1.777 2.849-2.851 4.849-.098.183-.227.371-.285.417-.117.091-2.477 4.279-2.477 4.394 0 .039-.295.557-.655 1.15-.361.593-.93 1.632-1.265 2.309a64.495 64.495 0 0 1-1.118 2.147 50.118 50.118 0 0 0-1.071 2.083c-.31.642-.632 1.279-.715 1.417-.083.137-.614 1.187-1.179 2.333-.566 1.146-1.462 2.951-1.992 4.012s-1.02 2.111-1.088 2.333c-.289.944-1.425 3.155-1.621 3.155-.117 0-1.038-.645-2.046-1.433a367.019 367.019 0 0 0-2.308-1.792 21.237 21.237 0 0 1-1.25-1.072c-.427-.392-1.052-.86-1.39-1.039a6.2 6.2 0 0 1-1.07-.749c-.683-.633-4.24-3.264-6.271-4.638-.52-.352-1.118-.806-1.329-1.008-.322-.311-1.604-1.223-2.602-1.852-.145-.092-.617-.43-1.048-.75-.666-.496-2.704-1.855-3.625-2.417-.15-.092-.52-.373-.821-.625s-.634-.458-.74-.458c-.105 0-.346-.139-.536-.31-.391-.351-2.881-2.071-3.26-2.251-.514-.244-2.513-1.567-3.167-2.095-.229-.186-.485-.339-.568-.341-.136-.003-1.293-.737-3.209-2.034-.382-.258-.737-.469-.789-.469-.152 0-1.794-1.018-2.434-1.508-.321-.246-1.108-.732-1.75-1.081s-1.429-.796-1.75-.993a11.266 11.266 0 0 0-.833-.474c-.138-.063-.475-.263-.75-.444s-.674-.405-.887-.498c-.212-.093-.625-.346-.916-.561-.292-.216-.643-.441-.781-.501-.137-.06-.55-.294-.916-.521a23.403 23.403 0 0 0-1.584-.863c-.777-.384-1.738-.949-3.42-2.015a6.052 6.052 0 0 0-.684-.363c-.468-.204-3.01-1.612-3.646-2.019-.275-.177-.687-.402-.916-.501s-.933-.437-1.564-.752c-1.355-.676-1.276-.669-1.645-.161m197.754 14.549c-4.42 3.092-8.039 5.719-8.041 5.838-.003.118.284.606.637 1.083.352.477 1.227 1.768 1.944 2.868 13.739 21.078 21.794 43.298 25.074 69.167 4.608 36.349-4.924 76.223-25.609 107.125-1.393 2.081-1.818 2.835-1.668 2.96.111.092 1.026.737 2.034 1.433 1.009.695 2.021 1.405 2.25 1.577.23.171 1.054.745 1.834 1.274.779.53 1.491 1.021 1.583 1.092.543.417 4.149 2.9 5.833 4.016.55.364 1.038.706 1.084.76.193.225 1.449 1.013 1.615 1.013.425 0 6.404-9.48 9.651-15.302 30.385-54.485 30.237-120.878-.392-175.43-3.055-5.442-9.204-15.105-9.608-15.099-.101.001-3.8 2.532-8.221 5.625m-289.173-2.086c-40.218 61.207-40.274 138.09-.147 199.011 1.781 2.704 2.58 3.783 2.765 3.734.384-.102 16.173-11.179 16.175-11.348.001-.08-.926-1.542-2.059-3.25-22.258-33.555-30.998-74.132-24.596-114.189 3.554-22.233 12.097-44.086 24.523-62.727 1.091-1.638 1.961-2.997 1.934-3.022-.028-.024-.688-.48-1.467-1.013a440.438 440.438 0 0 1-4.657-3.225 302.194 302.194 0 0 0-1.733-1.207c-.18-.122-.64-.455-1.022-.74-.383-.285-.768-.548-.857-.584-.156-.063-2.352-1.573-5.121-3.522-1.757-1.236-1.443-1.41-3.738 2.082m114.26 63.443c.89.636 1.805 1.333 2.034 1.55.23.216.679.554 1 .751.321.196 1.259.886 2.084 1.533s1.585 1.177 1.69 1.179c.105.001.234.115.287.252.052.138.185.25.295.25s.318.115.464.254c.145.14 1.089.864 2.097 1.608 1.008.745 2.013 1.531 2.232 1.747.22.217.67.559 1 .762.331.203 1.958 1.383 3.617 2.624a1388.14 1388.14 0 0 0 4.084 3.045c.587.435 1.676 1.26 2.42 1.834a63.249 63.249 0 0 0 1.722 1.293c.203.137 1.6 1.169 3.105 2.292s2.774 2.041 2.82 2.041.221.138.389.306c.517.517 7.685 5.861 7.862 5.861.091 0 .166.068.166.151s.337.348.75.59c.412.242.75.512.75.599 0 .088.101.16.224.16s.367.16.542.357c.292.328 2.529 2.016 7.641 5.766 1.095.803 2.37 1.782 2.833 2.175 1.1.932 1.232 1.035 1.318 1.035.039 0 1.468 1.045 3.174 2.321 2.997 2.241 3.11 2.308 3.305 1.958.111-.199.413-.737.672-1.195.258-.459.586-1.096.729-1.417.546-1.23 2.461-5.095 2.643-5.333.105-.138.407-.775.671-1.417s.676-1.504.914-1.917c.433-.748.989-1.878 2.01-4.083.297-.642.701-1.429.898-1.75s.568-1.071.825-1.667c.256-.596.682-1.495.947-2 .439-.834.748-1.464 2.374-4.833.288-.596.563-1.121.612-1.167s.247-.421.441-.833c.941-2.005 4.307-8.85 4.772-9.706.41-.753.378-.774 3.455 2.356 3.358 3.417 5.254 5.46 6.583 7.093.275.338.623.761.773.939.149.179.449.585.666.904.217.318.451.579.519.58.069 0 .125.095.125.211 0 .115.189.413.42.662.23.249.674.885.986 1.415.312.529.705 1.116.872 1.303.384.428.641.862 1.919 3.243.566 1.054 1.091 1.942 1.166 1.972.076.031.137.2.137.375 0 .176.075.32.167.32s.167.135.167.3.067.371.149.458c.186.196 1.017 2.279 1.017 2.546 0 .108.075.196.167.196s.169.093.172.208.151.508.328.875.325.73.328.808.112.378.243.667c.428.95 1.938 6.162 2.348 8.108.59 2.804.688 3.565 1.03 8 .156 2.025.151 6.48-.009 8.417-.272 3.284-.462 5.027-.609 5.583-.085.321-.2.884-.255 1.25-.12.786-1.067 4.426-1.215 4.667a1.37 1.37 0 0 0-.14.333c-.188.811-1.076 3.53-1.342 4.108a144.644 144.644 0 0 0-1.561 3.476c-.216.504-.664 1.366-.997 1.916s-.892 1.525-1.243 2.167c-.818 1.496-1.027 1.827-1.79 2.836-.346.457-1.116 1.489-1.713 2.294s-1.214 1.6-1.372 1.766c-.157.167-.624.704-1.036 1.194-1.41 1.672-4.902 5.085-6.645 6.493-.397.321-.846.702-.997.846-.151.145-.575.481-.942.746-.366.265-.845.653-1.064.862s-.5.38-.625.38-.227.075-.227.166a.17.17 0 0 1-.174.167c-.178 0-.4.161-1.043.757-.438.406-3.411 2.243-3.63 2.243-.084 0-.153.061-.153.136 0 .074-.263.238-.584.364s-.583.29-.583.364c0 .075-.113.136-.25.136-.138 0-.25.075-.25.167 0 .091-.113.166-.25.166-.138 0-.25.075-.25.167s-.108.167-.24.167-.674.225-1.204.5-1.059.5-1.176.5c-.118 0-.213.075-.213.166 0 .092-.15.167-.334.167-.183 0-.333.075-.333.167 0 .091-.145.166-.321.166a.946.946 0 0 0-.572.25c-.137.138-.363.25-.502.25s-.298.075-.355.167-.24.167-.407.167c-.168 0-.52.112-.782.249-.263.137-.59.251-.728.255-.137.003-.395.116-.573.251s-.441.245-.584.246c-.142 0-.484.121-.759.267-.275.147-.95.4-1.5.564s-1.225.379-1.5.478c-1.046.376-7.549 1.886-9.834 2.283-1.311.228-1.598.259-4.75.499-.687.052-1.662.134-2.166.182-2.062.196-7.974.093-10.917-.19-.458-.044-1.323-.12-1.923-.168-1.023-.083-1.284-.12-2.327-.327-.637-.126-1.364-.264-1.917-.364-3.262-.586-10.087-2.817-12.456-4.072-.159-.084-.374-.153-.477-.153-.234 0-3.143-1.449-3.483-1.735-.138-.115-.55-.346-.917-.512-.367-.167-1.079-.572-1.583-.902a23.462 23.462 0 0 0-1.167-.727 9.023 9.023 0 0 1-.682-.418l-1.167-.78c-.404-.269-.959-.692-1.234-.938s-.875-.728-1.334-1.072c-1.831-1.371-4.971-4.357-6.916-6.579-.505-.576-.996-1.131-1.092-1.234s-.503-.637-.905-1.187c-.401-.55-.903-1.165-1.116-1.367s-.387-.411-.387-.465c0-.094-.176-.327-.625-.828-.115-.128-.209-.272-.209-.319 0-.048-.552-.935-1.226-1.971-.675-1.035-1.285-2.07-1.356-2.3-.071-.229-.175-.454-.232-.5-.299-.243-1.951-3.483-2.201-4.318-.112-.375-.267-.682-.344-.682-.078 0-.141-.093-.141-.208-.001-.115-.225-.658-.5-1.208-.274-.55-.499-1.078-.499-1.173 0-.096-.151-.468-.334-.827-.183-.36-.333-.788-.333-.952s-.066-.298-.146-.298c-.079 0-.192-.357-.251-.792-.058-.435-.216-1.003-.35-1.261-.135-.258-.479-1.308-.766-2.333s-.628-2.189-.757-2.585-.198-.781-.152-.854c.045-.074-.021-.5-.147-.946-.127-.447-.278-1.488-.337-2.313-.06-.825-.148-1.8-.197-2.166-.215-1.606-.072-9.166.181-9.576.034-.054.08-.585.103-1.179.023-.593.099-1.304.169-1.579.071-.275.173-.8.227-1.166.311-2.105 2.438-10.379 3.258-12.667.197-.55.378-1.075.403-1.167.058-.216.222-.655.593-1.583a9.833 9.833 0 0 0 .418-1.333c.103-.511.712-2.136 2.779-7.417.662-1.692.828-2.088 1.431-3.417.27-.596.542-1.291.604-1.546.061-.254.297-.868.524-1.364s.413-.972.413-1.059c0-.086.11-.248.244-.36.135-.111.235-.252.223-.312-.022-.107.489-1.309.96-2.259.131-.266.239-.593.239-.727 0-.133.22-.666.489-1.183a65.202 65.202 0 0 0 1.792-3.856c.135-.321.418-.959.629-1.417s.522-1.171.691-1.583a14.89 14.89 0 0 1 .75-1.517c.244-.421.501-.946.57-1.166s.302-.79.519-1.265c.216-.475.394-.952.394-1.059 0-.301.379-.095 2.132 1.158M288.713 333.09c-53.467 35.859-126.371 35.541-178.613-.778-.783-.544-1.323-.819-1.415-.721-.449.479-11.185 16.114-11.183 16.286.001.114 1.445 1.155 3.208 2.314 36.028 23.685 77.572 33.595 120.373 28.714 15.411-1.758 35.112-6.894 47.584-12.407.779-.345 2.916-1.288 4.75-2.096 6.103-2.69 13.255-6.429 19.766-10.333 2.839-1.702 10.15-6.5 10.15-6.661 0-.094-1.15-1.769-2.26-3.291-.281-.385-.926-1.3-1.433-2.034-.507-.733-1.687-2.421-2.623-3.75s-2.428-3.482-3.317-4.784-1.692-2.396-1.783-2.431c-.092-.036-1.534.852-3.204 1.972" fill="#fbfbfb"/><path d="M188.25.107c-6.045.439-11.349 1.007-16.083 1.724a183.73 183.73 0 0 1-3.667.52c-2.081.263-7.205 1.216-10.697 1.988-1.679.372-3.615.795-4.303.94-1.184.25-2.589.625-6.417 1.714-.916.261-1.937.52-2.267.577-.33.056-2.196.626-4.146 1.266-1.951.64-3.649 1.164-3.773 1.164-.125 0-1.723.562-3.553 1.25-1.829.688-3.407 1.25-3.506 1.25-.1 0-1.285.461-2.634 1.024-1.35.564-2.855 1.167-3.346 1.341-.491.175-1.653.66-2.583 1.079a208.43 208.43 0 0 1-3.358 1.468c-1.879.796-11.221 5.39-12.5 6.146-.459.271-1.771.996-2.917 1.611s-2.421 1.345-2.833 1.623c-.413.278-1.013.626-1.334.773-.32.147-1.221.677-2 1.177s-1.791 1.106-2.25 1.347c-.458.24-1.096.637-1.416.881-.321.244-1.446.995-2.5 1.668-1.055.673-2.217 1.446-2.584 1.716-.366.271-1.093.77-1.614 1.111C84.2 36.62 80 39.71 80 39.855c0 .08-.087.145-.193.145-.218 0-1.551.989-2.557 1.898-.367.331-.743.602-.836.602-.094 0-.731.496-1.417 1.103-.686.606-1.434 1.223-1.664 1.371-.229.147-.904.693-1.5 1.211-.596.519-1.983 1.711-3.083 2.649-6.543 5.581-14.335 13.373-19.916 19.916-.938 1.1-2.13 2.487-2.649 3.083-.518.596-1.064 1.271-1.211 1.5-.148.23-.765.978-1.371 1.664-.607.686-1.103 1.323-1.103 1.417 0 .093-.271.469-.602.836C40.989 78.256 40 79.589 40 79.807c0 .106-.065.193-.145.193-.145 0-3.235 4.2-4.39 5.969-.341.521-.84 1.248-1.111 1.614-.27.367-1.043 1.529-1.716 2.584-.673 1.054-1.424 2.179-1.668 2.5-.244.32-.641.958-.881 1.416-.241.459-.847 1.471-1.347 2.25s-1.03 1.68-1.177 2c-.147.321-.495.921-.773 1.334-.278.412-1.008 1.687-1.623 2.833s-1.34 2.458-1.611 2.917c-.756 1.279-5.35 10.621-6.146 12.5a208.43 208.43 0 0 1-1.468 3.358c-.419.93-.904 2.092-1.079 2.583-.174.491-.777 1.996-1.341 3.346-.563 1.349-1.024 2.534-1.024 2.634 0 .099-.563 1.677-1.25 3.506-.688 1.83-1.25 3.428-1.25 3.553 0 .124-.524 1.822-1.164 3.773-.64 1.95-1.21 3.816-1.266 4.146-.057.33-.316 1.351-.577 2.267-1.089 3.828-1.464 5.233-1.714 6.417-.145.688-.568 2.624-.94 4.303-.772 3.492-1.725 8.616-1.988 10.697a183.73 183.73 0 0 1-.52 3.667C.3 182.276.083 185.726.083 200s.217 17.724 1.748 27.833c.188 1.238.422 2.888.52 3.667.263 2.081 1.216 7.205 1.988 10.697.372 1.679.795 3.616.94 4.303.25 1.184.625 2.589 1.714 6.417.261.916.52 1.937.577 2.267.056.33.626 2.196 1.266 4.146.64 1.951 1.164 3.649 1.164 3.773 0 .125.562 1.723 1.25 3.553.687 1.829 1.25 3.407 1.25 3.506 0 .1.461 1.285 1.024 2.634.564 1.35 1.167 2.855 1.341 3.346.175.491.66 1.653 1.079 2.583a208.43 208.43 0 0 1 1.468 3.358c.796 1.879 5.39 11.221 6.146 12.5.271.459.996 1.771 1.611 2.917s1.345 2.421 1.623 2.833c.278.413.626 1.013.773 1.334.147.32.677 1.22 1.177 2 .5.779 1.106 1.791 1.347 2.25.24.458.637 1.095.881 1.416s.995 1.446 1.668 2.5 1.446 2.217 1.716 2.584c.271.366.77 1.093 1.111 1.614C36.62 315.8 39.71 320 39.855 320c.08 0 .145.087.145.193 0 .218.989 1.551 1.898 2.557.331.367.602.743.602.836 0 .094.496.731 1.103 1.417.606.686 1.223 1.435 1.371 1.664.147.229.693.904 1.211 1.5.519.595 1.711 1.983 2.649 3.083 5.581 6.543 13.373 14.335 19.916 19.916 1.1.938 2.487 2.13 3.083 2.649.596.518 1.271 1.064 1.5 1.211.23.148.978.765 1.664 1.371.686.607 1.323 1.103 1.417 1.103.093 0 .469.271.836.602 1.006.909 2.339 1.898 2.557 1.898.106 0 .193.06.193.133 0 .074.722.655 1.604 1.292s2.1 1.528 2.708 1.981a44.981 44.981 0 0 0 2.029 1.416c2.194 1.411 5.628 3.696 6.242 4.154.367.274 1.042.694 1.5.935.459.241 1.471.847 2.25 1.347s1.68 1.03 2 1.177c.321.147.921.495 1.334.773.412.278 1.687 1.008 2.833 1.623s2.458 1.34 2.917 1.611c1.279.756 10.621 5.35 12.5 6.146a208.43 208.43 0 0 1 3.358 1.468c.93.419 2.092.904 2.583 1.079.491.174 1.996.777 3.346 1.341 1.349.563 2.534 1.024 2.634 1.024.099 0 1.677.563 3.506 1.25 1.83.688 3.428 1.25 3.553 1.25.124 0 1.822.524 3.773 1.164 1.95.64 3.816 1.21 4.146 1.266.33.057 1.351.316 2.267.577 3.828 1.089 5.233 1.464 6.417 1.714.688.145 2.624.568 4.303.94 3.492.772 8.616 1.725 10.697 1.988.779.098 2.429.332 3.667.52 10.109 1.531 13.559 1.748 27.833 1.748s17.724-.217 27.833-1.748a183.73 183.73 0 0 1 3.667-.52c2.081-.263 7.205-1.216 10.697-1.988 1.679-.372 3.616-.795 4.303-.94 1.184-.25 2.589-.625 6.417-1.714.916-.261 1.937-.52 2.267-.577.33-.056 2.196-.626 4.146-1.266 1.951-.64 3.649-1.164 3.773-1.164.125 0 1.723-.563 3.553-1.25 1.829-.687 3.407-1.25 3.506-1.25.1 0 1.285-.461 2.634-1.024 1.35-.564 2.855-1.167 3.346-1.341.491-.175 1.653-.66 2.583-1.079a208.43 208.43 0 0 1 3.358-1.468c1.879-.796 11.221-5.39 12.5-6.146.459-.271 1.771-.996 2.917-1.611s2.421-1.345 2.833-1.623a11.741 11.741 0 0 1 1.334-.773c.32-.147 1.22-.677 2-1.177.779-.5 1.791-1.106 2.25-1.347a13.683 13.683 0 0 0 1.5-.935c.614-.458 4.048-2.743 6.242-4.154a44.981 44.981 0 0 0 2.029-1.416c.608-.453 1.826-1.344 2.708-1.981s1.604-1.218 1.604-1.292c0-.073.087-.133.193-.133.218 0 1.551-.989 2.557-1.898.367-.331.743-.602.836-.602.094 0 .731-.496 1.417-1.103.686-.606 1.435-1.223 1.664-1.371.229-.147.904-.693 1.5-1.211.595-.519 1.983-1.711 3.083-2.649 6.543-5.581 14.335-13.373 19.916-19.916.938-1.1 2.13-2.488 2.649-3.083.518-.596 1.064-1.271 1.211-1.5.148-.229.765-.978 1.371-1.664.607-.686 1.103-1.323 1.103-1.417 0-.093.271-.469.602-.836.909-1.006 1.898-2.339 1.898-2.557 0-.106.06-.193.133-.193.074 0 .655-.722 1.292-1.604s1.528-2.1 1.981-2.708a44.981 44.981 0 0 0 1.416-2.029c1.411-2.194 3.696-5.628 4.154-6.242.274-.367.694-1.042.935-1.5.241-.459.847-1.471 1.347-2.25.5-.78 1.03-1.68 1.177-2 .147-.321.495-.921.773-1.334.278-.412 1.008-1.687 1.623-2.833s1.34-2.458 1.611-2.917c.756-1.279 5.35-10.621 6.146-12.5a208.43 208.43 0 0 1 1.468-3.358c.419-.93.904-2.092 1.079-2.583.174-.491.777-1.996 1.341-3.346.563-1.349 1.024-2.534 1.024-2.634 0-.099.563-1.677 1.25-3.506.688-1.83 1.25-3.428 1.25-3.553 0-.124.524-1.822 1.164-3.773.64-1.95 1.21-3.816 1.266-4.146.057-.33.316-1.351.577-2.267 1.089-3.828 1.464-5.233 1.714-6.417.145-.687.568-2.624.94-4.303.772-3.492 1.725-8.616 1.988-10.697.098-.779.332-2.429.52-3.667 1.531-10.109 1.748-13.559 1.748-27.833s-.217-17.724-1.748-27.833a183.73 183.73 0 0 1-.52-3.667c-.263-2.081-1.216-7.205-1.988-10.697a610.685 610.685 0 0 1-.94-4.303c-.25-1.184-.625-2.589-1.714-6.417-.261-.916-.52-1.937-.577-2.267-.056-.33-.626-2.196-1.266-4.146-.64-1.951-1.164-3.649-1.164-3.773 0-.125-.563-1.723-1.25-3.553-.688-1.829-1.25-3.407-1.25-3.506 0-.1-.461-1.285-1.024-2.634-.564-1.35-1.167-2.855-1.341-3.346-.175-.491-.66-1.653-1.079-2.583a208.43 208.43 0 0 1-1.468-3.358c-.796-1.879-5.39-11.221-6.146-12.5-.271-.459-.996-1.771-1.611-2.917s-1.345-2.421-1.623-2.833a11.741 11.741 0 0 1-.773-1.334c-.147-.32-.677-1.221-1.177-2s-1.106-1.791-1.347-2.25a13.683 13.683 0 0 0-.935-1.5c-.458-.614-2.743-4.048-4.154-6.242a44.981 44.981 0 0 0-1.416-2.029c-.453-.608-1.344-1.826-1.981-2.708S360.207 80 360.133 80c-.073 0-.133-.087-.133-.193 0-.218-.989-1.551-1.898-2.557-.331-.367-.602-.743-.602-.836 0-.094-.496-.731-1.103-1.417-.606-.686-1.223-1.434-1.371-1.664-.147-.229-.693-.904-1.211-1.5a509.217 509.217 0 0 1-2.649-3.083c-5.581-6.543-13.373-14.335-19.916-19.916-1.1-.938-2.488-2.13-3.083-2.649-.596-.518-1.271-1.064-1.5-1.211-.229-.148-.978-.765-1.664-1.371-.686-.607-1.323-1.103-1.417-1.103-.093 0-.469-.271-.836-.602-1.006-.909-2.339-1.898-2.557-1.898-.106 0-.193-.065-.193-.145 0-.145-4.2-3.235-5.969-4.39a42.172 42.172 0 0 1-1.614-1.111c-.367-.27-1.53-1.043-2.584-1.716s-2.179-1.424-2.5-1.668-.958-.641-1.416-.881c-.459-.241-1.471-.847-2.25-1.347-.78-.5-1.68-1.03-2-1.177a11.741 11.741 0 0 1-1.334-.773c-.412-.278-1.687-1.008-2.833-1.623s-2.458-1.34-2.917-1.611c-1.279-.756-10.621-5.35-12.5-6.146a208.43 208.43 0 0 1-3.358-1.468c-.93-.419-2.092-.904-2.583-1.079-.491-.174-1.996-.777-3.346-1.341-1.349-.563-2.534-1.024-2.634-1.024-.099 0-1.677-.562-3.506-1.25-1.83-.687-3.428-1.25-3.553-1.25-.124 0-1.822-.524-3.773-1.164-1.95-.64-3.816-1.21-4.146-1.266-.33-.057-1.351-.316-2.267-.577-3.828-1.089-5.233-1.464-6.417-1.714-.687-.145-2.624-.568-4.303-.94-3.487-.771-8.612-1.724-10.697-1.988-.779-.099-2.654-.363-4.167-.587C217.48.303 214.719.127 201.083.084c-6.6-.02-12.375-.01-12.833.023m18.917 19.894c19.302.894 36.868 4.363 54.408 10.746 6.501 2.366 15.003 6.118 21.258 9.383 7.298 3.808 19.66 11.355 19.665 12.005.001.121-1.935 3.008-4.302 6.417a3864.55 3864.55 0 0 0-5.596 8.073c-1.508 2.189-1.244 2.088-2.732 1.043-4.431-3.111-12.354-7.738-18.515-10.81-51.003-25.438-112.554-21.593-159.96 9.993l-3.191 2.125-.325-.363c-.179-.2-1.706-2.345-3.393-4.766a3605.394 3605.394 0 0 0-5.733-8.213c-.274-.395-.855-1.215-1.291-1.824s-.793-1.153-.793-1.209c0-.167 7.513-5.074 10.666-6.966 30.192-18.115 65.64-27.217 99.834-25.634m-64.064 68.072c.631.315 1.335.653 1.564.752s.641.324.916.501c.636.407 3.178 1.815 3.646 2.019.195.085.503.248.684.363 1.682 1.066 2.643 1.631 3.42 2.015.504.248 1.217.637 1.584.863.366.227.779.461.916.521.138.06.489.285.781.501.291.215.704.468.916.561.213.093.612.317.887.498s.612.381.75.444c.137.063.512.276.833.474.321.197 1.108.644 1.75.993s1.429.835 1.75 1.081c.64.49 2.282 1.508 2.434 1.508.052 0 .407.211.789.469 1.916 1.297 3.073 2.031 3.209 2.034.083.002.339.155.568.341.654.528 2.653 1.851 3.167 2.095.379.18 2.869 1.9 3.26 2.251.19.171.431.31.536.31.106 0 .439.206.74.458s.671.533.821.625c.921.562 2.959 1.921 3.625 2.417.431.32.903.658 1.048.75.998.629 2.28 1.541 2.602 1.852.211.202.809.656 1.329 1.008 2.031 1.374 5.588 4.005 6.271 4.638a6.2 6.2 0 0 0 1.07.749c.338.179.963.647 1.39 1.039.426.393.988.875 1.25 1.072.261.198 1.299 1.004 2.308 1.792 1.008.788 1.929 1.433 2.046 1.433.196 0 1.332-2.211 1.621-3.155.068-.222.558-1.272 1.088-2.333s1.426-2.866 1.992-4.012c.565-1.146 1.096-2.196 1.179-2.333.083-.138.405-.775.715-1.417.309-.642.792-1.579 1.071-2.083.28-.505.783-1.471 1.118-2.147.335-.677.904-1.716 1.265-2.309.36-.593.655-1.111.655-1.15 0-.115 2.36-4.303 2.477-4.394.058-.046.187-.234.285-.417 1.074-2 2.375-4.214 2.851-4.849.213-.284.387-.591.387-.683 0-.093.225-.479.5-.858.275-.38.5-.735.5-.79 0-.054.242-.449.539-.876.296-.428.553-.803.57-.834.027-.048.662.292 2.64 1.413.184.104.878.463 1.542.797.665.334 1.209.679 1.209.768s.076.162.17.162c.093 0 .449.175.791.388.342.214 1.147.674 1.789 1.023.641.349 1.565.905 2.052 1.236 1.297.883 2.249 1.499 2.518 1.629.344.167 3.307 2.113 4.131 2.713.386.281.766.511.846.511.079 0 .326.195.549.433.222.237.629.548.904.69.275.143.948.603 1.496 1.024s1.373 1.023 1.834 1.339c1.466 1.007 5.149 3.787 5.753 4.345.321.296.771.658 1 .806.374.24 1.963 1.515 2.432 1.951.101.094.57.465 1.043.826.472.36.858.714.858.787s.068.132.151.132.402.216.708.479c.307.263 1.383 1.189 2.391 2.058 1.009.869 2.087 1.798 2.397 2.063.31.266.767.671 1.015.9.247.23 1.155 1.055 2.016 1.834 1.827 1.652 3.941 3.667 5.331 5.083a87.94 87.94 0 0 0 1.16 1.167c.373.348 4.523 4.552 5.611 5.682a122.417 122.417 0 0 1 3.887 4.237c.504.576 1.067 1.215 1.25 1.421.183.207.633.73 1 1.163.367.434.854.988 1.083 1.232.23.243.679.777 1 1.186.604.77.891 1.118 1.509 1.829.2.229.857 1.054 1.462 1.833s1.263 1.574 1.462 1.766.644.754.99 1.25c.346.495.797 1.072 1.003 1.281.352.359 1.418 1.847 3.882 5.42.581.843 1.238 1.725 1.458 1.959.221.234.401.515.401.625 0 .109.075.199.167.199.091 0 .166.106.166.236s.057.261.125.292c.069.03.42.543.781 1.139.36.595.698 1.12.75 1.166s.202.271.334.5c.132.23.526.884.875 1.456.35.571.635 1.115.635 1.208s.075.17.167.17.167.112.167.25c0 .137.075.25.166.25.092 0 .167.112.167.25 0 .137.057.25.126.25s.232.243.362.541c.129.298.279.579.333.625s.395.684.758 1.417c.364.733.701 1.371.75 1.417.048.046.2.308.338.583.137.275.291.537.342.583.176.158.824 1.664.824 1.915 0 .139.075.252.167.252s.167.094.167.208c0 .115.31.846.69 1.625.379.779.751 1.567.825 1.75.521 1.276.651 1.657.652 1.896.001.149.111.481.245.738.281.539 1.19 3.572 1.833 6.116.244.963.513 2.022.599 2.353.085.331.156.792.156 1.023 0 .23.105.784.234 1.23.209.72.623 2.884 1.191 6.228.024.137.09.7.147 1.25.058.55.147 1.136.198 1.302.117.384.183 1.074.321 3.364.061 1.009.169 2.584.241 3.5.137 1.761.089 13.69-.061 15.25-.049.505-.133 1.592-.187 2.417s-.124 1.688-.157 1.917c-.032.229-.111.829-.175 1.333s-.139 1.067-.166 1.25c-.028.183-.103.746-.168 1.25s-.142.956-.171 1.004c-.029.047-.102.422-.161.833-.199 1.38-.895 4.82-1.703 8.413-.397 1.765-2.321 8.317-3.01 10.25-1.36 3.812-2.337 6.268-3.249 8.167a69.946 69.946 0 0 0-.709 1.5c-.246.739-1.46 3.391-1.678 3.666-.109.138-.62 1.105-1.136 2.15-.967 1.958-1.572 3.034-1.794 3.189-.07.05-.283.425-.473.834-.38.82-.408.868-1.543 2.596-.435.663-.791 1.261-.791 1.328s-.188.368-.417.668c-.229.301-.417.61-.417.687s-.206.367-.458.643-.833 1.06-1.292 1.742c-4.322 6.433-9.789 12.537-17.5 19.539-.55.5-1.178 1.051-1.396 1.225-.219.174-.71.578-1.092.899s-.941.771-1.242 1c-.302.23-.636.492-.742.584-.269.232-3.489 2.53-4.646 3.316-.524.356-1.102.786-1.285.957-.183.17-.411.31-.506.31a.17.17 0 0 0-.174.167c0 .091-.071.166-.158.166s-.492.225-.899.5c-.408.275-.824.5-.926.5-.101 0-.184.067-.184.148s-.131.196-.291.257c-.548.206-1.042.508-1.042.635 0 .07-.106.127-.236.127s-.261.059-.292.13c-.03.072-.505.352-1.055.624-.55.271-1.038.541-1.084.6-.206.266-3.442 1.979-3.738 1.979-.129 0-.259.057-.289.125-.031.069-.524.35-1.095.625s-1.04.557-1.042.625c-.001.069-.104.125-.228.125-.123 0-.577.188-1.008.417s-.861.417-.955.417-.709.252-1.366.56c-1.68.787-4.053 1.773-4.266 1.773-.099 0-.179.075-.179.167 0 .091-.205.166-.455.166-.425 0-1.22.265-3.045 1.015-.413.17-1.088.393-1.5.496-.413.104-.825.246-.917.315-.263.2-1.774.674-2.149.674-.187 0-1.944.455-3.904 1.012-1.96.556-3.6.974-3.645.929-.046-.045-.432.029-.859.165-.427.137-1.339.322-2.026.413-1.834.241-1.982.263-3.167.478a45.01 45.01 0 0 1-1.583.262c-.275.035-.725.101-1 .147-.275.045-.875.123-1.334.173-.458.049-1.171.129-1.583.176a62.695 62.695 0 0 1-3.583.341c-3.047.217-9.364.299-12 .156-1.921-.104-3.787-.235-4.584-.321a206.13 206.13 0 0 0-1.666-.173 57.773 57.773 0 0 1-2.75-.341 157.74 157.74 0 0 0-1.209-.167 19.135 19.135 0 0 1-1.041-.169c-.829-.171-1.182-.23-3.034-.502-1.036-.153-1.922-.301-1.97-.331-.048-.029-.395-.099-.771-.156-.377-.056-2.25-.517-4.164-1.024-1.913-.508-4.04-1.071-4.728-1.251-.687-.181-1.363-.375-1.5-.431a5.734 5.734 0 0 0-.417-.153c-.578-.176-3.362-1.175-3.5-1.256-.091-.055-.579-.228-1.083-.386s-1.153-.393-1.442-.522-.595-.235-.681-.235c-.085 0-.674-.249-1.308-.554-.634-.304-1.415-.653-1.736-.776s-.654-.287-.741-.364-.271-.14-.409-.14c-.272 0-6.84-3.204-7.516-3.667-.229-.156-1.242-.717-2.25-1.244-1.009-.528-2.209-1.24-2.668-1.582-.459-.343-1.096-.756-1.417-.92-.32-.163-1.208-.718-1.972-1.233a58.898 58.898 0 0 0-1.896-1.237c-.533-.316-1.874-1.288-2.297-1.664-.138-.122-1.038-.813-2-1.535-2.14-1.605-4.564-3.576-4.639-3.773-.031-.079-.125-.145-.209-.145s-.288-.131-.454-.291c-.165-.161-.897-.813-1.625-1.45s-2.748-2.589-4.49-4.339c-3.204-3.218-4.256-4.359-6.083-6.597a25.798 25.798 0 0 0-.834-.98c-.137-.146-.51-.601-.829-1.012-.318-.411-.623-.785-.678-.831s-.427-.533-.827-1.083c-.401-.55-.789-1.025-.864-1.056-.074-.03-.135-.161-.135-.291s-.112-.236-.25-.236-.25-.078-.25-.174-.094-.286-.208-.422c-.115-.137-.284-.34-.375-.452a4.557 4.557 0 0 1-.39-.635c-.194-.377-.472-.751-1.19-1.602-.094-.111-.17-.279-.17-.375s-.075-.174-.167-.174-.167-.068-.167-.152c0-.151-.993-1.749-1.325-2.132-.096-.111-.175-.263-.175-.337 0-.075-.217-.4-.482-.722-.266-.322-.719-1.021-1.007-1.554a26.377 26.377 0 0 0-.796-1.384c-.435-.662-.823-1.37-1.585-2.885-.391-.78-.799-1.51-.907-1.623-.363-.385-3.857-7.725-4.383-9.211-.224-.632-.311-.846-.831-2.032-.188-.431-.342-.894-.342-1.03s-.103-.351-.23-.477c-.126-.126-.285-.488-.354-.803-.068-.316-.179-.612-.246-.658s-.362-.908-.654-1.916c-.293-1.009-.638-2.059-.767-2.334-.387-.825-2.166-7.444-2.576-9.583-.282-1.469-.534-2.925-.606-3.5a77.122 77.122 0 0 0-.135-1 85.9 85.9 0 0 1-.351-2.998c-.438-4.46-.432-12.741.013-18.002l.145-1.75c.052-.642.129-1.467.17-1.833.041-.367.119-1.079.173-1.584.055-.504.13-1.104.167-1.333.038-.229.112-.792.165-1.25s.127-1.021.164-1.25c.141-.875.26-1.714.349-2.459.051-.424.124-.822.161-.883.038-.06.109-.44.159-.842a44.8 44.8 0 0 1 .247-1.649c.086-.505.188-1.256.227-1.67.072-.761.275-1.851.714-3.83.347-1.563.409-1.859.5-2.417.045-.275.185-.875.312-1.333.126-.459.267-1.059.314-1.334s.127-.687.176-.916c.767-3.547 1.292-5.725 1.783-7.39.275-.931.535-1.881.579-2.11s.379-1.505.744-2.834l.731-2.666c.037-.138.082-.269.101-.292a.572.572 0 0 0 .063-.167c.017-.068.246-.8.51-1.625l.505-1.583c.014-.046.073-.196.13-.333.057-.138.258-.867.446-1.621.188-.753.428-1.578.532-1.833.105-.255.209-.538.233-.63.023-.091.242-.729.485-1.416.243-.688.667-1.963.941-2.834.474-1.5 1.184-3.52 1.495-4.25.161-.375.466-1.221 1.143-3.166.255-.734.89-2.421 1.41-3.75.521-1.33 1.105-2.83 1.299-3.334.4-1.04.79-1.952 1.485-3.465.265-.578.481-1.122.481-1.211s.067-.292.147-.451c.081-.159.317-.739.524-1.289.338-.898.969-2.309 1.853-4.141.171-.352.31-.72.31-.816s.256-.708.569-1.359c1.079-2.245 1.931-4.121 1.931-4.251 0-.072.186-.461.414-.865s.464-.847.524-.985c.551-1.264 3.203-6.695 3.825-7.833.125-.229.595-1.167 1.044-2.084a147.348 147.348 0 0 1 2.899-5.583c.325-.596.925-1.721 1.331-2.5.848-1.624 1.615-3.008 1.803-3.25.071-.092.382-.654.691-1.25s.783-1.421 1.053-1.833c.659-1.004.834-1.299 1.238-2.084a38.041 38.041 0 0 1 1.858-3.25c1.231-1.896 1.588-2.472 1.757-2.833.064-.138.442-.759.84-1.38.397-.622.723-1.17.723-1.219 0-.141.573-.89.686-.896.056-.003.619.253 1.25.568m206.851 12.302c11.167 16.909 19.285 34.934 24.189 53.708 13.071 50.036 4.561 101.78-23.853 145.042-1.28 1.948-2.408 3.542-2.508 3.542-.166 0-1.422-.788-1.615-1.013-.046-.054-.534-.396-1.084-.76-1.684-1.116-5.29-3.599-5.833-4.016a90.005 90.005 0 0 0-1.583-1.092 80.037 80.037 0 0 1-1.834-1.274c-.229-.172-1.241-.882-2.25-1.577-1.008-.696-1.923-1.341-2.034-1.433-.15-.125.275-.879 1.668-2.96 20.685-30.902 30.217-70.776 25.609-107.125-2.981-23.508-10.193-44.76-21.609-63.667-1.744-2.889-4.42-7.028-5.409-8.368-.353-.477-.64-.965-.637-1.083.004-.225 15.941-11.459 16.262-11.463.1-.002 1.235 1.591 2.521 3.539M53.777 98.293c2.769 1.949 4.965 3.459 5.121 3.522.089.036.474.299.857.584.382.285.842.618 1.022.74.179.122.959.665 1.733 1.207a440.438 440.438 0 0 0 4.657 3.225c.779.533 1.439.989 1.467 1.013.027.025-.843 1.384-1.934 3.022-35.444 53.175-35.415 123.417.073 176.916 1.133 1.708 2.06 3.17 2.059 3.25-.002.169-15.791 11.246-16.175 11.348-.185.049-.984-1.03-2.765-3.734-40.127-60.921-40.071-137.804.147-199.011 2.295-3.492 1.981-3.318 3.738-2.082m108.39 64.367c0 .107-.178.584-.394 1.059-.217.475-.45 1.045-.519 1.265s-.326.745-.57 1.166a14.89 14.89 0 0 0-.75 1.517c-.169.412-.48 1.125-.691 1.583s-.494 1.096-.629 1.417a65.202 65.202 0 0 1-1.792 3.856c-.269.517-.489 1.05-.489 1.183 0 .134-.108.461-.239.727-.471.95-.982 2.152-.96 2.259.012.06-.088.201-.223.312-.134.112-.244.274-.244.36 0 .087-.186.563-.413 1.059s-.463 1.11-.524 1.364c-.062.255-.334.95-.604 1.546-.603 1.329-.769 1.725-1.431 3.417-2.067 5.281-2.676 6.906-2.779 7.417-.066.32-.254.921-.418 1.333-.371.928-.535 1.367-.593 1.583-.025.092-.206.617-.403 1.167-.82 2.288-2.947 10.562-3.258 12.667-.054.366-.156.891-.227 1.166-.07.275-.146.986-.169 1.579-.023.594-.069 1.125-.103 1.179-.253.41-.396 7.97-.181 9.576.049.366.137 1.341.197 2.166.059.825.21 1.866.337 2.313.126.446.192.872.147.946-.046.073.023.458.152.854s.47 1.56.757 2.585.631 2.075.766 2.333c.134.258.292.826.35 1.261.059.435.172.792.251.792.08 0 .146.134.146.298s.15.592.333.952c.183.359.334.731.334.827 0 .095.225.623.499 1.173.275.55.499 1.093.5 1.208 0 .115.063.208.141.208.077 0 .232.307.344.682.25.835 1.902 4.075 2.201 4.318.057.046.161.271.232.5.071.23.681 1.265 1.356 2.3.674 1.036 1.226 1.923 1.226 1.971 0 .047.094.191.209.319.449.501.625.734.625.828 0 .054.174.263.387.465s.715.817 1.116 1.367c.402.55.809 1.084.905 1.187s.587.658 1.092 1.234c1.945 2.222 5.085 5.208 6.916 6.579.459.344 1.059.826 1.334 1.072s.83.669 1.234.938l1.167.78c.237.159.544.347.682.418.137.07.662.398 1.167.727.504.33 1.216.735 1.583.902.367.166.779.397.917.512.34.286 3.249 1.735 3.483 1.735.103 0 .318.069.477.153 2.369 1.255 9.194 3.486 12.456 4.072.553.1 1.28.238 1.917.364 1.043.207 1.304.244 2.327.327.6.048 1.465.124 1.923.168 2.943.283 8.855.386 10.917.19.504-.048 1.479-.13 2.166-.182 3.152-.24 3.439-.271 4.75-.499 2.285-.397 8.788-1.907 9.834-2.283.275-.099.95-.314 1.5-.478s1.225-.417 1.5-.564c.275-.146.617-.267.759-.267.143-.001.406-.111.584-.246s.436-.248.573-.251c.138-.004.465-.118.728-.255.262-.137.614-.249.782-.249.167 0 .35-.075.407-.167s.216-.167.355-.167.365-.112.502-.25a.946.946 0 0 1 .572-.25c.176 0 .321-.075.321-.166 0-.092.15-.167.333-.167.184 0 .334-.075.334-.167 0-.091.095-.166.213-.166.117 0 .646-.225 1.176-.5s1.072-.5 1.204-.5.24-.075.24-.167.112-.167.25-.167c.137 0 .25-.075.25-.166 0-.092.112-.167.25-.167.137 0 .25-.061.25-.136 0-.074.262-.238.583-.364s.584-.29.584-.364c0-.075.069-.136.153-.136.219 0 3.192-1.837 3.63-2.243.643-.596.865-.757 1.043-.757a.17.17 0 0 0 .174-.167c0-.091.102-.166.227-.166s.406-.171.625-.38.698-.597 1.064-.862c.367-.265.791-.601.942-.746.151-.144.6-.525.997-.846 1.743-1.408 5.235-4.821 6.645-6.493.412-.49.879-1.027 1.036-1.194.158-.166.775-.961 1.372-1.766s1.367-1.837 1.713-2.294c.763-1.009.972-1.34 1.79-2.836.351-.642.91-1.617 1.243-2.167s.781-1.412.997-1.916c.377-.88.845-1.921 1.561-3.476.266-.578 1.154-3.297 1.342-4.108a1.37 1.37 0 0 1 .14-.333c.148-.241 1.095-3.881 1.215-4.667.055-.366.17-.929.255-1.25.147-.556.337-2.299.609-5.583.16-1.937.165-6.392.009-8.417-.342-4.435-.44-5.196-1.03-8-.41-1.946-1.92-7.158-2.348-8.108-.131-.289-.24-.589-.243-.667s-.151-.441-.328-.808-.325-.76-.328-.875-.08-.208-.172-.208-.167-.088-.167-.196c0-.267-.831-2.35-1.017-2.546-.082-.087-.149-.293-.149-.458s-.075-.3-.167-.3-.167-.144-.167-.32c0-.175-.061-.344-.137-.375-.075-.03-.6-.918-1.166-1.972-1.278-2.381-1.535-2.815-1.919-3.243-.167-.187-.56-.774-.872-1.303-.312-.53-.756-1.166-.986-1.415-.231-.249-.42-.547-.42-.662 0-.116-.056-.211-.125-.211-.068-.001-.302-.262-.519-.58a14.704 14.704 0 0 0-.666-.904c-.15-.178-.498-.601-.773-.939-1.329-1.633-3.225-3.676-6.583-7.093-3.077-3.13-3.045-3.109-3.455-2.356-.465.856-3.831 7.701-4.772 9.706-.194.412-.392.787-.441.833s-.324.571-.612 1.167c-1.626 3.369-1.935 3.999-2.374 4.833a34.656 34.656 0 0 0-.947 2c-.257.596-.628 1.346-.825 1.667s-.601 1.108-.898 1.75c-1.021 2.205-1.577 3.335-2.01 4.083-.238.413-.65 1.275-.914 1.917s-.566 1.279-.671 1.417c-.182.238-2.097 4.103-2.643 5.333-.143.321-.471.958-.729 1.417-.259.458-.561.996-.672 1.195-.195.35-.308.283-3.305-1.958-1.706-1.276-3.135-2.321-3.174-2.321-.086 0-.218-.103-1.318-1.035-.463-.393-1.738-1.372-2.833-2.175-5.112-3.75-7.349-5.438-7.641-5.766-.175-.197-.419-.357-.542-.357s-.224-.072-.224-.16c0-.087-.338-.357-.75-.599-.413-.242-.75-.507-.75-.59s-.075-.151-.166-.151c-.177 0-7.345-5.344-7.862-5.861-.168-.168-.343-.306-.389-.306s-1.315-.918-2.82-2.041-2.902-2.155-3.105-2.292c-.203-.138-.978-.72-1.722-1.293a192.13 192.13 0 0 0-2.42-1.834 1388.14 1388.14 0 0 1-4.084-3.045c-1.659-1.241-3.286-2.421-3.617-2.624a6.771 6.771 0 0 1-1-.762c-.219-.216-1.224-1.002-2.232-1.747-1.008-.744-1.952-1.468-2.097-1.608-.146-.139-.354-.254-.464-.254s-.243-.112-.295-.25c-.053-.137-.182-.251-.287-.252-.105-.002-.865-.532-1.69-1.179s-1.763-1.337-2.084-1.533a7.468 7.468 0 0 1-1-.751c-1.206-1.139-4.166-3.063-4.166-2.708M293.7 333.549c.889 1.302 2.381 3.455 3.317 4.784s2.116 3.017 2.623 3.75c.507.734 1.152 1.649 1.433 2.034 1.11 1.522 2.26 3.197 2.26 3.291 0 .161-7.311 4.959-10.15 6.661-6.511 3.904-13.663 7.643-19.766 10.333-1.834.808-3.971 1.751-4.75 2.096-2.498 1.104-7.128 2.827-11.667 4.341-52.692 17.584-109.562 10.071-156.29-20.648-1.763-1.159-3.207-2.2-3.208-2.314-.002-.172 10.734-15.807 11.183-16.286.092-.098.632.177 1.415.721 52.242 36.319 125.146 36.637 178.613.778 1.67-1.12 3.112-2.008 3.204-1.972.091.035.894 1.129 1.783 2.431" fill="#4c74dc"/></g></svg>