<svg width="80" height="80" viewBox="0 0 80 80" fill="none" xmlns="http://www.w3.org/2000/svg">
<path d="M40 80C62.0914 80 80 62.0914 80 40C80 17.9086 62.0914 0 40 0C17.9086 0 0 17.9086 0 40C0 62.0914 17.9086 80 40 80Z" fill="#22996E"/>
<path d="M39.9975 57.778H18.2197C15.1086 57.778 13.3308 54.6669 15.1086 52.0002L27.553 32.4446C28.4419 31.1113 29.7752 30.2224 31.553 30.2224H48.4419C50.2197 30.2224 51.553 31.1113 52.4419 32.4446L64.8864 52.0002C66.6641 54.6669 64.8864 57.778 61.7752 57.778H39.9975Z" fill="white"/>
<path d="M42.22 13.3331L47.5533 21.3331C48.4422 23.1109 47.5533 25.3331 45.3311 25.3331H34.6644C32.4422 25.3331 31.5533 23.1109 32.4422 21.3331L37.7755 13.3331C39.1089 11.5553 41.3311 11.5553 42.22 13.3331Z" fill="white"/>
</svg>
