<svg width="78" height="78" xmlns="http://www.w3.org/2000/svg"><defs><linearGradient x1="10.493%" y1="0%" x2="92.253%" y2="100%" id="a"><stop stop-color="#0093ED" offset="0%"/><stop stop-color="#00F3AB" offset="100%"/></linearGradient><linearGradient x1="66%" y1="92.56%" x2="10.812%" y2="0%" id="b"><stop stop-color="#000A17" offset="0%"/><stop stop-color="#00554F" offset="100%"/></linearGradient></defs><g transform="translate(1 1)" fill="none" fill-rule="evenodd"><path d="M38 0c20.987 0 38 17.013 38 38S58.987 76 38 76 0 58.987 0 38 17.013 0 38 0z" stroke-opacity=".2" stroke="#00F3AB" fill="url(#a)"/><path d="M40.404 48.781c1.726.099 3.38.305 4.96.619l1.295 4.024.075-3.721.6.154a18.36 18.36 0 0 0 4.695 1.074L50.354 59h-6.72zm-5.464.043L31.882 59h-6.487l-1.6-8.01c1.781-.067 3.405-.444 4.872-1.133.234-.062.47-.122.707-.18l.21 3.747 1.114-4.037a35.443 35.443 0 0 1 4.242-.563zM22.957 17l6.076 28.077c-.123.068-.245.138-.366.209a13.49 13.49 0 0 1-5.785 1.138L17 17h5.957zm29.192 0l6.851.328-6.033 29.088c-1.671-.073-3.549-.45-5.634-1.13l-.129-.075L52.15 17zM39.59 31.25l3.956 12.45c-1.514-.418-3.155-.649-4.924-.692l-1.01-3.683-.985 3.713a19.743 19.743 0 0 0-4.31.699l3.695-12.487h3.578z" fill="url(#b)"/></g></svg>