<svg xmlns="http://www.w3.org/2000/svg" width="49" height="49" viewBox="0 0 49 49" fill="none">
<path d="M24.4014 48.6084C37.6017 48.6084 48.3027 37.9074 48.3027 24.707C48.3027 11.5067 37.6017 0.805664 24.4014 0.805664C11.201 0.805664 0.5 11.5067 0.5 24.707C0.5 37.9074 11.201 48.6084 24.4014 48.6084Z" fill="url(#paint0_linear_4187_23782)"/>
<path d="M12.632 20.7873C16.7027 23.2148 22.678 26.5759 22.678 26.5759L21.595 23.3642C21.595 23.3642 10.4659 17.9864 8.93476 15.7083C8.93476 15.7456 8.56129 18.3598 12.632 20.7873Z" fill="white"/>
<path d="M33.3997 23.2163L26.1172 27.6231L24.3993 31.8805L22.7188 27.6978L15.4363 23.291C15.4363 23.291 6.69738 18.0626 6.0625 16.0085C6.0625 16.0085 6.21189 20.0045 9.49833 22.2453C12.7848 24.4861 21.337 29.3037 21.337 29.3037L24.3993 37.2583V37.3704L24.4367 37.2957L24.474 37.4451V37.1837L27.5364 29.229C27.5364 29.229 36.1259 24.4114 39.375 22.1706C42.6615 19.9299 42.8109 15.9338 42.8109 15.9338C42.1013 17.9879 33.3997 23.2163 33.3997 23.2163Z" fill="white"/>
<path d="M36.1671 20.711C40.2378 18.2835 39.8644 15.6693 39.8644 15.6693C38.3332 17.9101 27.2041 23.3252 27.2041 23.3252L26.1211 26.537C26.1211 26.4996 32.0964 23.1758 36.1671 20.711Z" fill="white"/>
<path d="M26.5687 23.361L24.3653 19.365L22.1992 23.361L24.3653 30.7181L26.5687 23.361Z" fill="white"/>
<path d="M21.1839 30.424L12.5197 25.2703C12.5197 25.2703 12.3703 30.4987 21.1839 30.424Z" fill="white"/>
<path d="M27.5762 30.424C36.3898 30.4987 36.2404 25.2703 36.2404 25.2703L27.5762 30.424Z" fill="white"/>
<defs>
<linearGradient id="paint0_linear_4187_23782" x1="5.48575" y1="28.4416" x2="76.4541" y2="28.536" gradientUnits="userSpaceOnUse">
<stop stop-color="#FE5E35"/>
<stop offset="0.55" stop-color="#F67702"/>
<stop offset="1" stop-color="#FFEF76"/>
</linearGradient>
</defs>
    <path
        d="M24.4014 48.6084C37.6017 48.6084 48.3027 37.9074 48.3027 24.707C48.3027 11.5067 37.6017 0.805664 24.4014 0.805664C11.201 0.805664 0.5 11.5067 0.5 24.707C0.5 37.9074 11.201 48.6084 24.4014 48.6084Z"
        fill="url(#paint0_linear_4187_23782)"></path>
    <path
        d="M12.632 20.7873C16.7027 23.2148 22.678 26.5759 22.678 26.5759L21.595 23.3642C21.595 23.3642 10.4659 17.9864 8.93476 15.7083C8.93476 15.7456 8.56129 18.3598 12.632 20.7873Z"
        fill="white"></path>
    <path
        d="M33.3997 23.2163L26.1172 27.6231L24.3993 31.8805L22.7188 27.6978L15.4363 23.291C15.4363 23.291 6.69738 18.0626 6.0625 16.0085C6.0625 16.0085 6.21189 20.0045 9.49833 22.2453C12.7848 24.4861 21.337 29.3037 21.337 29.3037L24.3993 37.2583V37.3704L24.4367 37.2957L24.474 37.4451V37.1837L27.5364 29.229C27.5364 29.229 36.1259 24.4114 39.375 22.1706C42.6615 19.9299 42.8109 15.9338 42.8109 15.9338C42.1013 17.9879 33.3997 23.2163 33.3997 23.2163Z"
        fill="white"></path>
    <path
        d="M36.1671 20.711C40.2378 18.2835 39.8644 15.6693 39.8644 15.6693C38.3332 17.9101 27.2041 23.3252 27.2041 23.3252L26.1211 26.537C26.1211 26.4996 32.0964 23.1758 36.1671 20.711Z"
        fill="white"></path>
    <path d="M26.5687 23.361L24.3653 19.365L22.1992 23.361L24.3653 30.7181L26.5687 23.361Z" fill="white"></path>
    <path d="M21.1839 30.424L12.5197 25.2703C12.5197 25.2703 12.3703 30.4987 21.1839 30.424Z" fill="white"></path>
    <path d="M27.5762 30.424C36.3898 30.4987 36.2404 25.2703 36.2404 25.2703L27.5762 30.424Z" fill="white"></path>
    <defs>
        <linearGradient id="paint0_linear_4187_23782" x1="5.48575" y1="28.4416" x2="76.4541" y2="28.536"
            gradientUnits="userSpaceOnUse">
            <stop stop-color="#FE5E35"></stop>
            <stop offset="0.55" stop-color="#F67702"></stop>
            <stop offset="1" stop-color="#FFEF76"></stop>
        </linearGradient>
    </defs>
</svg>