<svg fill="none" height="80" width="80" xmlns="http://www.w3.org/2000/svg"><clipPath id="a"><path d="M0 0h80v80H0z"/></clipPath><g clip-path="url(#a)"><circle cx="40" cy="40" fill="#fff" r="40"/><g clip-rule="evenodd" fill="#2775ca" fill-rule="evenodd"><path d="M25.65 5.355A37.5 37.5 0 0 1 77.416 37.5h2.505A40 40 0 1 0 80 40h-2.5A37.5 37.5 0 1 1 25.65 5.355zM72.5 40H75A35 35 0 1 1 25.098 8.33l1.064 2.262A32.501 32.501 0 1 0 72.5 40zM14.431 29.877a27.5 27.5 0 0 1 8.04-11.066l-1.594-1.926A30 30 0 1 0 70 40h-2.5a27.5 27.5 0 1 1-53.069-10.123z"/><path d="M40 65a24.94 24.94 0 0 0 25-25 24.94 24.94 0 0 0-25-25 24.94 24.94 0 0 0-25 25 24.94 24.94 0 0 0 25 25zm6.875-21.042c0-3.645-2.187-4.895-6.562-5.416-3.125-.417-3.75-1.25-3.75-2.709 0-1.458 1.041-2.395 3.125-2.395 1.875 0 2.916.625 3.437 2.187a.78.78 0 0 0 .73.52h1.666c.417 0 .73-.312.73-.728v-.104a5.204 5.204 0 0 0-4.688-4.271v-2.5c0-.417-.313-.73-.834-.834h-1.562c-.417 0-.73.313-.834.834v2.396c-3.125.416-5.104 2.5-5.104 5.104 0 3.437 2.084 4.791 6.459 5.312 2.916.521 3.854 1.146 3.854 2.813s-1.459 2.812-3.438 2.812c-2.708 0-3.646-1.146-3.958-2.708-.104-.417-.417-.625-.73-.625h-1.77a.712.712 0 0 0-.73.73v.103c.417 2.604 2.084 4.48 5.522 5v2.5c0 .417.312.73.833.834h1.562c.417 0 .73-.313.834-.834v-2.5c3.125-.52 5.208-2.708 5.208-5.52zm-21.46-9.062c-3.02 8.02 1.146 17.083 9.271 20 .313.208.625.625.625.937v1.459c0 .208 0 .312-.104.416a.628.628 0 0 1-.573.498.722.722 0 0 1-.364-.081c-5.834-1.875-10.313-6.354-12.188-12.188-3.125-9.895 2.292-20.416 12.188-23.541.104-.104.312-.104.416-.104.417.104.625.416.625.833v1.458c0 .349-.093.604-.28.798a1.247 1.247 0 0 1-.345.244c-4.27 1.562-7.708 4.896-9.27 9.27zm19.376-12.084c.104-.416.52-.625.937-.416 5.73 1.875 10.313 6.354 12.188 12.291 3.125 9.896-2.292 20.417-12.188 23.542-.104.104-.312.104-.417.104-.416-.104-.625-.416-.625-.833v-1.458c0-.521.209-.834.625-1.042 4.271-1.563 7.709-4.896 9.271-9.27 3.021-8.022-1.146-17.084-9.27-20-.313-.21-.626-.626-.626-1.043V23.23c0-.208 0-.312.105-.417z"/></g></g></svg>