<svg fill="none" height="149" width="552" xmlns="http://www.w3.org/2000/svg"><clipPath id="a"><path d="M0 0h84.963v84.963H0z" transform="translate(233.518 32.094)"/></clipPath><rect fill="#f3f3f3" height="148" rx="8" width="552" y=".576"/><g clip-path="url(#a)"><rect fill="#010101" height="84.751" rx="42.376" width="84.751" x="233.731" y="32.306"/><path d="M267.564 53.658l8.191-4.73a.759.759 0 0 1 .756 0L298.1 61.392a.76.76 0 0 1 .379.653l.029 8.573a.754.754 0 0 1-.379.657L289.949 76a.757.757 0 0 1-1.135-.653l-.027-7.693a.756.756 0 0 0-.379-.653l-20.844-12.032a.756.756 0 0 1 0-1.31zm-5.292 38.831l-8.189-4.728a.75.75 0 0 1-.379-.655V62.177c0-.269.143-.518.377-.655l7.411-4.313a.751.751 0 0 1 .758 0l8.18 4.724a.758.758 0 0 1 .002 1.31l-6.648 3.869a.755.755 0 0 0-.377.655v24.07c0 .583-.63.946-1.135.655zm36.236-14.842v9.457c0 .272-.144.52-.379.655l-21.589 12.465a.757.757 0 0 1-.754 0l-7.44-4.262a.756.756 0 0 1-.381-.657v-9.446a.757.757 0 0 1 1.132-.657l6.676 3.824c.233.135.52.133.753 0l20.845-12.036a.756.756 0 0 1 1.135.655z" fill="#b4f9ba"/></g></svg>