<svg fill="none" height="483" viewBox="0 0 484 483" width="484" xmlns="http://www.w3.org/2000/svg"><circle cx="242.057" cy="241.159" fill="#b4f9ba" r="241.159"/><g fill="#010101"><path d="m184.543 100.393 55.127-31.8348c1.57-.9057 3.517-.9057 5.087 0l145.289 83.8828c1.57.906 2.536 2.581 2.551 4.393l.196 57.692c0 1.827-.966 3.518-2.551 4.423l-55.051 31.79c-3.381 1.963-7.623-.483-7.638-4.392l-.181-51.776c0-1.811-.981-3.487-2.551-4.393l-140.278-80.969c-3.396-1.962-3.396-6.853 0-8.816z"/><path d="m148.924 361.714-55.1112-31.82c-1.585-.905-2.5511-2.581-2.5511-4.407v-167.766c0-1.811.9661-3.487 2.536-4.408l49.8733-29.027c1.585-.921 3.533-.921 5.103 0l55.051 31.79c3.381 1.962 3.396 6.838.015 8.815l-44.742 26.039c-1.569.906-2.535 2.581-2.535 4.408v161.984c0 3.924-4.242 6.37-7.639 4.408z"/><path d="m392.841 261.829v63.641c0 1.826-.966 3.502-2.551 4.408l-145.289 83.882c-1.57.906-3.502.906-5.072 0l-50.07-28.68c-1.585-.906-2.566-2.597-2.566-4.423v-63.565c0-3.91 4.227-6.355 7.623-4.423l44.923 25.737c1.569.906 3.502.891 5.071 0l140.278-80.999c3.396-1.963 7.638.483 7.638 4.407z"/></g></svg>