<svg viewBox="0 0 459.27 508" xmlns="http://www.w3.org/2000/svg"><path d="m455.87 425.91c.45-6.09.08-12.15-.02-18.25-.09-5.61 1-10.87 1.53-16.41 1.08-11.19.32-23.09-.36-34.29-.7-11.63-.71-22.97-.56-34.61.08-5.61 1.49-11.28 1.05-16.87-.34-4.28-1.26-8.45-1.67-12.71-.97-.8-1.62-2.03-1.61-3.69.05-4.43 1.18-8.51 2.21-12.78 1.09-4.58.8-8.63-.01-13.24-1.54-8.73-1.93-16.47-.62-25.27.68-4.6 1.57-9.18 1.8-13.84.22-4.61-.6-8.83-1.42-13.32-1.3-7.15-2.31-14.68-.13-21.75.19-.6.45-1.11.76-1.55.12-3.97.75-7.81 1.69-11.64-2.03-.9-3.63-3-3.15-5.78.12-.73.28-1.46.46-2.19 1.62-8 2.37-16.3 1.85-24.45-.25-4.01-.94-7.98-1.29-11.98-.39-4.56.4-9.21-.21-13.72-.14-.99-.29-1.97-.44-2.93-.44-.09-.89-.25-1.35-.48-5.89-2.99-13.68-1.44-20.05-2.06-4.23-.41-8.46-.21-12.69-.57-.22-.02-.43-.05-.65-.07-.39.71-.99 1.33-1.85 1.76-5.61 2.8-12.1.59-17-2.81-6.16-4.29-12.08-9.59-16.51-15.66-2.29-3.13-5.04-4.85-8.12-7.11-3.01-2.21-5.31-4.76-7.72-7.56-4.99-5.82-12.77-8.18-17.63-14.26-.64-.8-.99-1.65-1.12-2.49-3.96-1.8-7.53-4.45-11.23-6.72-5.16-3.17-10.42-6.16-15.71-9.1-5.12-2.84-10.25-5.67-15.33-8.58-4.88-2.79-9.51-6.03-15.09-7.2-.86-.18-1.54-.52-2.08-.96-.69 0-1.42-.15-2.16-.49-20.76-9.31-40.02-26.28-63.55-27.46-5.73-.29-11.5.1-17.12 1.26-5.42 1.12-10.44 3.5-15.81 4.7-2.68.6-4.89.39-6.67-.37-.67.78-1.48 1.51-2.51 2.17-3.5 2.25-7.47 2.56-11.37 3.69-1.66.48-3.26 1.11-4.82 1.84-.4 2.11-1.97 3.99-4.72 4.08-4.46.14-8.39 3.3-11.88 5.81-3.76 2.7-7.45 5.25-11.58 7.36-8.98 4.58-17.13 8.47-23.33 16.78-2.9 3.89-5.77 8.24-7.95 12.56-2.27 4.5-2.88 9.33-3.45 14.27-.59 5.04-2.03 9.86-2.74 14.86-.76 5.32.71 10.33 1.8 15.51 1.14 5.46-5.98 8.19-8.73 4.68-4.96-.02-9.92-.09-14.89-.15-4.23-.05-8.8-.55-12.94.39-3.46.79-6.64 2.37-10.2 2.82-3.85.49-7.66-.22-11.4-1.11-8.52-2.01-16.4-.84-25.04-.38-6.13.33-12.05 1.08-18.04 1.87.17 11.58 1.13 23.11.79 34.71-.36 12.51-1.19 25-1.28 37.51.71.79 1.16 1.86 1.16 3.22v4.3c.15.47.23.98.23 1.55.03 4.23.14 8.43-.23 12.65-.12 1.38-.67 2.55-1.47 3.41-.89 7.7 0 15.59.07 23.3.01 1.72-.7 2.98-1.74 3.78 1.17.79 1.98 2.1 1.97 3.95 0 .92-.03 1.85-.04 2.77 1.24.78 2.13 2.12 2.15 4.02.05 5.48.55 10.99 0 16.45-.19 1.84-.48 3.61-.91 5.4-.15.64-.36 2.33-.71 2.78-.09.11-.15.2-.2.28.04.05.08.09.12.14 1.5 1.93 1.38 4.55.3 6.42-.49 7.29 3.27 14.43 1.72 21.94.09.37.14.76.15 1.19.22 12.28-.04 24.56-.78 36.83-.7 11.52-2.55 23.02-3.03 34.53-.24 5.89.57 11.77.33 17.67-.23 5.79-.47 11.51-.29 17.31.29 9.24-.7 20.37 2.7 29.14 14.03-5.36 30.42-3.61 45.07-2.48 5.07.39 10.09 1.06 15.18.94 3.84-.09 7.64-.71 11.48-.39 2.9.24 5.78.75 8.43 1.71 1.93-1.61 5.03-1.95 6.82.15 4.61 5.42 6.68 12.03 10.6 17.85 1.84 2.73 4.23 4.67 7.39 5.66 2.05.64 4.36 1.17 6.48 1.45 2.05.27 3.71-.28 5.74-.31 3.61-.05 7.14 1.95 8.34 5.47 1.05 3.09-.07 6.16-.66 9.21-1.38 7.11.79 16.2 3.72 23.44.45 0 .91.03 1.4.14 1.51.34 3.25.92 5.12 1.56.38-.04.75-.08 1.13-.15v.05c.54-.1 1.01-.2 1.32-.23.5-.05.96-.03 1.38.06.71-.51 1.57-.88 2.6-1 1.65-.2 3.26-.1 4.84.13 10.22.35 20.44 1.13 30.67 1.02 11.06-.13 22.01-1.87 33.06-2.27 9.98-.36 19.2-.64 28.5-4.75 8.01-3.54 15.06-7.63 23.76-9.49 8.51-1.82 17.2-2.39 25.8-3.59 9.13-1.28 17.64-4.06 26.17-7.5 8.89-3.58 17.41-7.51 27.08-8.23 1.68-.12 8.01.3 9.11-1.15.73-.96.38-2.84.23-3.98-.61-4.64-4.49-12.14-3.91-17.68-2.61-3.42.55-9.79 5.24-7.94 4.09 1.62 8.79 1.32 13.04.47 1.55-.31 2.88.04 3.91.76 13.43.03 26.87.18 40.28-.53 6.82-.36 13.79-1.74 20.61-1.68 6.12.05 12.03 2.62 18.17 1.75 2.2-.31 4.31-.73 6.39-1.14 0-.06-.01-.12-.01-.18-.05-2.71.05-5.16.29-7.57-1.5-.65-2.57-2.09-2.4-4.37zm-256.03-313.9c-6.83 1-12.93 2-19.84 1.05-6.67-.92-12.69-1.89-19.43-.96-6.54.9-13.11 2.08-19.74 1.94-5.14-.11-12.09-3.07-16.97-.9-1.89.84-4.01.49-5.54-.56-3.05 1.9-7.99.59-7.7-3.96.37-5.79 3.43-9.99 5.55-15.19 1.85-4.53 4.21-8 7.73-11.45 7.87-7.69 18.04-12.58 28.71-8.07 5.15 2.18 9.1 5.65 13.03 9.53 4.54 4.48 9.44 8.68 14.78 12.2 7.16 4.72 16.92.72 22.42 9.02 1.62 2.45.15 6.89-2.99 7.34z" fill="#509cee"/><g fill="#fffdf5" stroke="#fffdf5" stroke-miterlimit="10"><path d="m458.63 111.62v5.19c0 106.11 0 212.21.14 318.32 0 4.48-1.74 5.65-6.77 5.65-31.61-.13-63.23 0-94.84 0h-6.42c2.3 8.38 2.09 16.69 7.12 24.03 2.58 3.83 1.54 5.84-3.7 6.82-6.07 1.1-12.21 2.08-18.42 2.79-12.56 1.49-23.45 6.04-33.43 12.27-2.23 1.36-4.26 1.88-7.54 1.95-12.42.19-24.98 1.04-37.2 2.92-5.09.78-9.56 4.68-14.31 7.14-1.33.65-2.58 1.43-3.98 1.95-16.33 5.71-33.57 7.08-51.08 6.82-13.12-.19-26.24-.97-39.36-1.56-4.12-.19-8.3-.52-12.42-1.17-7.54-1.17-10.89-4.42-10.68-10.84.21-7.79 1.05-15.52 1.61-23.25.14-1.69 0-3.38 0-5.26-3.77.58-7.4.71-10.68 1.75-7.61 2.34-12.56-1.1-16.61-5.32-5.65-5.91-9.98-12.47-9.56-21.04h-82.54c-7.12 0-7.19 0-7.19-5.91v-318.32c0-1.43.21-2.86.35-4.87h101.54c-.63-6.04-1.19-11.49-1.74-16.88-1.81-17.66 1.05-34.22 15.63-48.25 10.19-9.81 22.4-17.6 35.8-24.16 2.44-1.17 5.93-.97 9.49-.39-1.12.65-2.23 1.3-3.42 1.88-14.24 7.01-27.77 14.81-38.38 25.52-9.42 9.42-14.65 20.13-14.38 32.53.21 7.86.56 15.65.84 23.51.49 0 .91.13 1.4.19.63-1.36 1.12-2.86 1.88-4.16 4.95-8.05 8.93-16.62 15.14-23.96 9.91-11.69 22.19-12.34 34.89-2.53 6.21 4.81 11.65 10.26 17.24 15.58 5.23 5 11.24 8.05 19.47 8.77 12.98 1.1 14.86 4.74 8.51 14.09-8.03 11.88-19.4 21.3-31.89 29.94-2.65 1.82-5.09 3.9-7.68 5.84-8.44 6.56-11.51 14.03-8.3 23.77 3.98 12.08 3.07 24.55 1.19 36.88-.21 1.43-.42 2.79-.7 4.48 10.05 1.95 19.82 1.3 29.24-.06 15.7-2.27 31.4-4.87 46.83-8.18 49.69-10.71 99.09-11.62 148.71.32 15.28 3.7 30.91 6.43 46.41 9.74 3.91.84 5.93-.52 5.86-3.51 0-2.34-1.47-4.68-1.88-7.08-.7-3.7-2.44-7.79-1.4-11.17 3.98-12.99 1.74-25.07-3.14-37.66-8.65-22.4-24.49-40.78-43.2-57.86-9.84-8.96-18.91-18.44-28.61-27.4-13.33-12.4-31.19-19.42-48.15-27.66-13.54-6.62-26.45-14.09-39.64-21.17l.77-1.62c2.93.65 6.21.84 8.72 2.08 15 7.53 29.52 15.71 44.8 22.79 19.4 9.03 35.73 20.71 49.69 35 9.21 9.42 19.05 18.31 28.4 27.53 2.51 2.47 5.23 3.38 9 3.38 14.1-.13 28.12 0 42.22 0h6.28l.07-.19zm-452.14 324.35c27.77 0 54.99 0 82.21-.06 1.19 0 3.07-1.1 3.35-1.95 1.54-5 3.77-10.07 3.7-15.13-.35-15.65-1.67-31.3-2.72-46.95-.07-1.3-.63-3.18-1.74-3.77-11.72-6.36-12-15.78-10.26-25.71 1.88-10.71 6.91-20.52 13.12-29.87 11.1-16.62 24.29-31.88 43.27-43.05 7.26-4.29 8.37-6.43 5.93-13.38-2.02.71-4.12 1.43-6.21 2.08-.42-2.01-1.33-4.03-1.12-6.04.91-10.07 4.75-19.42 11.37-27.92 3-3.83 5.65-7.47 5.93-12.4.7-13.05 3.49-26.23-.91-39.03-3.49-10.13-.35-17.99 8.58-24.87 9.14-7.08 18.14-14.29 26.94-21.62 3.28-2.73 5.86-6.1 9.63-10.13h-7.33c-23.94 0-47.94-.06-71.88 0-3.77 0-7.54 1.1-11.31 1.69-1.81 0-3.84-1.56-5.93-1.62-19.26-.39-38.52-.65-57.78-.71-10.4 0-20.8.39-31.19.58-1.81 0-3.7.13-5.72.26v319.62h.07zm127.78 15.72c0 3.05.28 5.91 0 8.77-1.12 10.32-2.79 20.58-3.56 30.84-.63 7.73 1.95 9.94 11.31 10.13 19.26.39 38.52.58 57.78.65 17.17.13 33.08-2.79 47.73-11.17 6-3.44 14.59-3.96 22.19-5.19 4.54-.71 9.35-.39 14.03-.45 7.75-.13 14.72-1.88 20.52-6.3 8.3-6.3 18.21-9.16 29.45-9.55 6.63-.26 13.33-1.04 19.12-1.49-4.75-18.05-7.68-36.23-24.42-49.48-.14.26-.42 1.04-.84 1.82-1.67 3.44-3 3.64-6.21.91-.98-.84-1.81-1.75-2.65-2.66-5.86-5.97-11.72-12.01-17.87-18.31-1.12 1.3-1.95 2.21-2.65 3.12-3.35 4.48-3.49 4.48-8.51 1.36-10.89-6.62-20.38-14.29-28.19-23.44-1.26-1.49-2.65-2.92-4.4-4.81-.56 1.23-.98 1.88-1.05 2.53-1.05 6.62-1.61 6.95-8.16 3.31-15.91-8.77-27.5-20.52-35.66-34.74-.91-1.62-1.88-3.18-3.07-5.07-4.33 6.17-4.95 6.3-10.75 1.43-14.31-11.88-23.1-26.49-30.29-41.88-.63-1.36-1.4-2.73-2.37-4.68-1.12 1.69-1.61 2.79-2.37 3.64-1.4 1.49-3 2.86-4.47 4.29-1.47-1.49-3.63-2.79-4.4-4.48-3-7.21-5.65-14.42-8.1-21.75-.91-2.66-1.12-5.52-1.74-8.9-2.37 1.23-4.19 2.01-5.79 3.05-26.59 17.73-44.31 40.26-52.55 67.66-1.61 5.32-.56 11.43.77 16.95 1.19 5 5.72 7.27 11.72 6.62 17.17-1.75 33.5 1.04 49.55 5.78 7.19 2.08 7.96 1.49 7.82-4.94 0-.84-.14-1.75-.14-2.6.21-3.9.21-7.73.91-11.56.21-1.17 2.16-2.21 3.28-3.25.42 1.36 1.05 2.66 1.12 4.03.07 1.56-.56 3.12-.56 4.68-.07 4.16.28 8.38 0 12.53-.42 5-3.49 6.82-9.49 5.91-2.02-.26-3.98-.71-6.49-1.17-2.58 10.32-4.47 20.46-7.82 30.2-2.93 8.57-1.74 16.04 4.05 23.31 5.58 6.95 7.05 14.68 4.33 22.73-.84 2.4-2.93 4.55-4.47 6.82-1.95-1.75-3.98-3.51-5.93-5.19-.14-.13-.28-.13-.56-.26l-.14.26zm119.61-83.31 2.23-.13c10.33 12.66 21.01 24.94 36.71 33.7.91-.78 1.67-1.36 2.3-2.01 5.51-5.52 5.86-5.52 11.44.13 5.37 5.45 10.68 10.84 16.89 17.14 1.19-5.71 2.23-10.45 3.21-15.2 1.47-6.75 1.74-6.88 9.07-3.64 8.44-6.95 14.52-15.26 19.75-24.09.91-1.56 2.37-3.18 4.12-4.09.49-.26 2.79 1.69 5.16 3.18 4.95-8.05 10.47-15.78 14.45-23.96 3.77-7.66 3.07-7.86 10.54-2.6 4.33-8.31 6.98-16.82 7.4-25.84.07-1.69 1.19-3.38 1.81-5.07 1.88.84 3.77 1.69 5.65 2.53.28.13.63 0 1.47-.13.49-8.25 2.86-16.56-.21-24.61-6.42 1.49-12.14 3.83-18 4.03-14.38.52-28.89 1.04-43.13-.19-33.71-2.86-65.88-10.39-94.63-25.84-11.93-6.43-24.56-12.79-28.12-26.1-6.21.32-12.42.65-18.63.97-3.91.19-5.02-1.3-3.77-4.29 1.4-3.18 2.79-6.36 4.4-10.13-2.3 0-3.63.06-4.95 0-2.65-.19-5.3-.52-7.96-.84 1.05-2.14 1.88-4.42 3.14-6.49 1.54-2.47 3.35-4.81 5.23-7.4-1.26-.19-1.74-.39-2.3-.32-12.42.58-24.91 1.1-37.34 1.88-1.4.06-3.14 1.1-3.98 2.14-3.42 4.35-7.05 8.64-9.49 13.38-2.72 5.07-4.19 10.52-6.35 16.23 3.7-.91 5.86-1.43 8.03-1.95.35 1.88.91 3.83 1.05 5.71.84 9.29 1.05 18.7 2.65 27.92.98 5.71 3.98 11.23 6 16.88l1.33-.32 5.79-9.94h1.88c9.49 18.96 16.96 38.9 36.43 53.44.84-1.36 1.33-2.27 1.88-3.18.56-.91.98-1.88 1.61-2.73 1.67-2.34 3.42-2.21 4.95.13.63.97.98 2.14 1.47 3.25 7.05 14.74 17.8 27.27 33.22 36.88 1.4.84 3 1.49 4.47 2.27 1.19-3.96 2.16-7.34 3.21-10.65l-.07-.06zm182.7-149.49c2.72 2.08 5.44 3.83 7.82 5.91 5.65 5.07 6.77 20.33.7 24.09-6.98 4.29-12.21 10.65-21.35 12.53-4.33.91-5.86 5.78-2.65 8.25 3.7 2.86 2.37 5.19-.84 6.49-5.79 2.4-11.86 5.07-18.21 5.91-24.77 3.31-49.55 1.36-74.11-2.27-28.75-4.29-56.18-11.69-82.21-22.73-1.61-.65-3.49-.84-5.23-1.23-.14.39-.35.84-.49 1.23 1.54.84 3 1.82 4.68 2.4 11.93 4.29 23.59 9.22 35.94 12.6 40.61 11.23 82 17.53 124.99 12.01 1.05-.13 3.21.84 3.42 1.56 2.79 10.84 4.54 21.82 1.74 32.92-1.47 5.78-1.81 6.1-7.54 4.74-3.35 8.9-6.63 17.79-10.19 26.62-1.19 2.99-3.35 4.03-6.28 1.1-.63-.65-1.54-1.04-2.51-1.75-.77 1.62-1.47 2.92-2.02 4.29-4.19 9.61-10.54 18.12-18.77 25.65-1.19 1.1-2.93 1.82-4.47 2.66-1.47.78-3.49 1.17-4.47 2.21-4.88 5.26-9.42 10.65-14.17 15.97-2.16 2.4-4.47 4.61-9.7 1.3.35 4.16-.42 7.34.91 9.61 4.12 7.08 9.28 13.77 13.68 20.71 2.16 3.38 5.02 4.48 9.56 4.42 31.12-.19 62.18-.13 93.3-.19 1.47 0 3-.19 4.95-.32v-182.15c0-44.03-.07-88.12.14-132.15 0-4.55-1.67-5.52-6.77-5.39-10.61.32-21.21.06-31.82.13-1.61 0-3.28.19-5.16.26.35.84.42 1.3.7 1.56 11.72 12.99 18.63 27.86 24.63 43.12 4.12 10.52 4.82 21.04 1.67 31.88-1.05 3.51-.63 7.79.84 11.23 2.23 5.19 3.42 9.94-.77 14.68l.07.13zm-8.86 36.43c-29.94 2.86-57.29-.13-83.25-10.39-1.47-.58-3.7-.39-5.37 0-27.36 6.82-52.76 4.03-76.07-10.13-3.49-2.08-7.33-3.77-11.1-5.45-3.21-1.36-6.56-2.66-5.86-6.23.77-3.77 4.61-4.61 8.44-4.29 5.86.45 11.79 1.04 17.45 2.34 25.68 5.84 51.57 9.29 78.23 6.43 1.95-.19 4.12.45 6.07.84 15.56 2.79 31.05 6.23 46.83 8.25 11.93 1.56 24.22 1.36 36.29 1.88 4.68.19 5.51-2.14 4.88-5.32-.91-4.68-4.54-7.86-9.21-10-19.19-8.64-39.36-12.66-61.13-7.92-5.16 1.1-10.54 1.69-15.84 2.08-1.54.13-3.28-1.3-4.88-2.01 1.54-.58 3.07-1.43 4.68-1.69 6.56-1.04 13.19-1.95 19.82-2.92-18.28-5.32-36.57-8.7-56.94-9.09 24.98 8.77 30.91 12.27 31.26 18.9-2.16-1.1-3.7-1.95-5.23-2.73-6.91-3.44-13.47-7.92-20.94-10.07-20.03-5.78-40.2-4.74-60.22 1.17-7.47 2.21-15.35 3.44-23.03 5-3.49.65-7.05.91-10.54 1.36-.14.45-.35.97-.49 1.43 3.49 1.95 7.05 3.83 11.1 6.04-4.82 3.05-8.44.78-11.17-1.04-2.16-1.49-3.28-4.35-4.05-6.75-.21-.71 2.23-2.47 3.84-2.92 3.07-.91 6.42-1.17 9.63-1.75 8.16-1.49 16.33-2.99 24.42-4.55-.14-.45-.28-.91-.35-1.36-.84.06-1.67.13-2.51.26-15.91 3.05-31.68 6.62-47.66 8.96-10.4 1.56-12.42 8.31-17.38 14.48h4.75c7.05-.39 7.82.39 5.86 5.91-.98 2.66-1.81 5.32-2.93 8.51 7.61-.45 14.17-.71 20.73-1.23 6.28-.45 11.93.45 17.52 2.99 6.7 3.05 13.54 5.97 20.52 8.44 37.06 13.25 75.93 19.16 116.05 19.48 10.19.06 20.38-1.43 30.5-2.53 1.67-.19 4.54-2.08 4.47-3.12-.35-6.17 3.28-8.96 10.12-9.81.56-.06 1.12-.58 2.79-1.56l-.07.13zm-288.22 194.75c3.7-7.79 2.16-14.87-3.28-21.43-1.33-1.69-2.51-3.44-3.63-5.26-2.65-4.22-3.28-8.64-2.02-13.38 3.07-11.36 5.72-22.79 8.79-34.16.7-2.53.14-3.7-2.86-4.42-11.31-2.73-22.75-3.96-34.47-3.12-3.21.26-4.61.97-4.47 3.9.49 10.32.07 20.78 1.33 31.04 1.47 11.75 1.47 23.12-2.79 34.55-3.14 8.38 2.58 19.35 11.24 24.42.98.58 2.16.78 3.84 1.36-2.51-5.19-7.12-9.16-5.16-14.81 2.72 2.34 4.47 5.07 6.21 7.73 1.81 2.79 3.63 5.58 9.07 6.3-1.74-3.9-3.42-6.88-4.4-10-.98-3.05-3.63-6.17.28-9.61 1.95 3.12 3.07 6.43 4.47 9.68 1.4 3.18 1.95 7.01 8.03 8.25-.21-2.73-.42-4.81-.56-6.88-.28-4.16-.98-8.31-.63-12.47.14-1.62 2.65-3.18 4.05-4.74 1.47 1.36 3.56 2.53 4.26 4.16 1.33 2.86 1.81 5.97 2.65 8.96l.07-.06zm-28.33-338.84c2.58.19 4.26.39 6 .39 26.38 0 52.76 0 79.07.06 4.33 0 6.49-1.17 6.91-4.74.42-3.9-3.63-3.25-5.72-3.38-10.68-.65-18.49-4.94-25.12-11.62-5.16-5.19-10.75-10.13-16.68-14.81-8.86-7.01-16.47-6.82-24.77.45-10.61 9.22-15.49 20.84-19.68 33.57v.06zm198.4 133.83c6.63-.58 12.63-1.36 18.63-1.62 7.19-.32 4.19-4.68 4.68-7.66.56-3.51-2.44-3.18-5.3-3.44-12.56-1.04-25.12-2.08-37.54-3.64-4.61-.58-6.49.78-7.33 4.03-.77 3.12-2.86 6.82 3.14 8.05 8.03 1.62 16.12 2.92 23.8 4.29h-.07zm72.3-7.01c-.56 1.23-1.05 2.14-1.33 3.05-2.79 8.18-1.54 10.32 8.72 10.78 11.51.52 23.17 0 34.75-.06 3.77 0 5.02-1.88 4.82-4.87-.14-2.86-1.26-4.42-5.16-4.55-7.75-.32-15.56-.97-23.31-1.75-6.14-.65-12.21-1.69-18.49-2.53v-.06z"/><path d="m270.33 23.54c-3.07-.84-5.49-4.27-8.35-5.5-5.93-2.66-11.51-5.91-17.52-8.51-12.77-5.52-26.17-6.62-39.78-2.6-11.24 3.38-22.19 7.34-33.36 10.91-3.91 1.23-10.35 5.64-15.3 6.87.56-1.56-3.96-2.2-3.68-2.33 16.96-7.66 41.17-18.05 60.29-21.17 15.84-2.6 29.73 2.14 42.92 8.77 5.58 2.86 15.89 9.61 21.33 12.59-.28.58-5.49-2.53-5.7-1.94l-.86 2.9z"/></g></svg>