<svg xmlns="http://www.w3.org/2000/svg" viewBox="0 0 65.65 70.92"><defs><linearGradient id="a" x1="31.76" y1="10.49" x2="27.89" y2="26.1" gradientUnits="userSpaceOnUse"><stop offset=".08" stop-color="#2c7aa8"/><stop offset="1" stop-color="#5ffeae"/></linearGradient><linearGradient id="b" x1="30.52" y1="11.33" x2="13.23" y2="54.16" gradientUnits="userSpaceOnUse"><stop offset=".11" stop-color="#267daf"/><stop offset="1" stop-color="#5ffeae"/></linearGradient><linearGradient id="c" x1="37.97" y1="9.57" x2="29.98" y2="23.53" gradientUnits="userSpaceOnUse"><stop offset=".04"/><stop offset=".96" stop-color="#0e0e0e" stop-opacity="0"/></linearGradient><linearGradient id="d" x1="23.51" y1="20.8" x2="22.74" y2="39.46" gradientUnits="userSpaceOnUse"><stop offset=".05"/><stop offset=".9" stop-color="#0e0e0e" stop-opacity="0"/></linearGradient><linearGradient id="e" x1="44.78" y1="2.37" x2="59.88" y2="65.08" gradientUnits="userSpaceOnUse"><stop offset=".08" stop-color="#4dfc8d"/><stop offset="1" stop-color="#1fc3f1"/></linearGradient><linearGradient id="f" x1="-9.16" y1="35.44" x2="49.29" y2="72.6" gradientUnits="userSpaceOnUse"><stop offset=".07" stop-color="#3efe99"/><stop offset="1" stop-color="#2aabf0"/></linearGradient></defs><g data-name="Capa 2"><g data-name="Capa 1"><path d="M48.43 30.11a5.58 5.58 0 0 0-2.2-3.61c-6.54-5.74-22.07-6.13-39.82-.61l22-12.68C44.27 11 48 20.9 48.43 30.11z" opacity=".99" fill="url(#a)"/><path d="M46.23 26.5a5.64 5.64 0 0 0-6.23-.37L12.75 41.86a8.5 8.5 0 1 1-8.5-14.72l2.16-1.25c17.75-5.52 33.28-5.13 39.82.61z" fill="url(#b)"/><path d="M48.43 30.11a5.58 5.58 0 0 0-2.2-3.61c-6.54-5.74-22.07-6.13-39.82-.61l22-12.68C44.27 11 48 20.9 48.43 30.11z" opacity=".32" fill="url(#c)"/><path d="M46.23 26.5a5.64 5.64 0 0 0-6.23-.37L12.75 41.86a8.5 8.5 0 1 1-8.5-14.72l2.16-1.25c17.75-5.52 33.28-5.13 39.82.61z" opacity=".32" fill="url(#d)"/><path d="M65.65 11.47l-.28 51a8.49 8.49 0 0 1-8.55 8.45 8.5 8.5 0 0 1-8.45-8.54l.15-31.3a5.15 5.15 0 0 0-.08-1C48 20.9 44.27 11 28.37 13.21L48.58 1.54a11.38 11.38 0 0 1 17.07 9.93z" fill="url(#e)"/><path d="M16 61.45a25.51 25.51 0 0 0 13.52 7.71 2.62 2.62 0 0 0 3.25-2.52c0-3.68 0-9.83.06-14.08A2.61 2.61 0 0 0 29 50.3l-12.34 7.14a2.61 2.61 0 0 0-.66 4.01z" fill="url(#f)"/></g></g></svg>