<svg xmlns="http://www.w3.org/2000/svg" xmlns:xlink="http://www.w3.org/1999/xlink" viewBox="0 0 65.65 70.92"><defs><linearGradient id="Degradado_sin_nombre_2" x1="31.76" y1="10.49" x2="27.89" y2="26.1" gradientUnits="userSpaceOnUse"><stop offset="0.08" stop-color="#2c7aa8"/><stop offset="1" stop-color="#5ffeae"/></linearGradient><linearGradient id="Degradado_sin_nombre_3" x1="30.52" y1="11.33" x2="13.23" y2="54.16" gradientUnits="userSpaceOnUse"><stop offset="0.11" stop-color="#267daf"/><stop offset="1" stop-color="#5ffeae"/></linearGradient><linearGradient id="Degradado_sin_nombre_9" x1="37.97" y1="9.57" x2="29.98" y2="23.53" gradientUnits="userSpaceOnUse"><stop offset="0.04"/><stop offset="0.96" stop-color="#0e0e0e" stop-opacity="0"/></linearGradient><linearGradient id="Degradado_sin_nombre_8" x1="23.51" y1="20.8" x2="22.74" y2="39.46" gradientUnits="userSpaceOnUse"><stop offset="0.05"/><stop offset="0.9" stop-color="#0e0e0e" stop-opacity="0"/></linearGradient><linearGradient id="Degradado_sin_nombre_175" x1="44.78" y1="2.37" x2="59.88" y2="65.08" gradientUnits="userSpaceOnUse"><stop offset="0.08" stop-color="#4dfc8d"/><stop offset="1" stop-color="#1fc3f1"/></linearGradient><linearGradient id="Degradado_sin_nombre_176" x1="-9.16" y1="35.44" x2="49.29" y2="72.6" gradientUnits="userSpaceOnUse"><stop offset="0.07" stop-color="#3efe99"/><stop offset="1" stop-color="#2aabf0"/></linearGradient></defs><g id="Capa_2" data-name="Capa 2"><g id="Capa_1-2" data-name="Capa 1"><path d="M48.43,30.11a5.58,5.58,0,0,0-2.2-3.61c-6.54-5.74-22.07-6.13-39.82-.61l22-12.68C44.27,11,48,20.9,48.43,30.11Z" opacity="0.99" fill="url(#Degradado_sin_nombre_2)"/><path d="M46.23,26.5A5.64,5.64,0,0,0,40,26.13L12.75,41.86a8.5,8.5,0,1,1-8.5-14.72l2.16-1.25C24.16,20.37,39.69,20.76,46.23,26.5Z" fill="url(#Degradado_sin_nombre_3)"/><path d="M48.43,30.11a5.58,5.58,0,0,0-2.2-3.61c-6.54-5.74-22.07-6.13-39.82-.61l22-12.68C44.27,11,48,20.9,48.43,30.11Z" opacity="0.32" fill="url(#Degradado_sin_nombre_9)"/><path d="M46.23,26.5A5.64,5.64,0,0,0,40,26.13L12.75,41.86a8.5,8.5,0,1,1-8.5-14.72l2.16-1.25C24.16,20.37,39.69,20.76,46.23,26.5Z" opacity="0.32" fill="url(#Degradado_sin_nombre_8)"/><path d="M65.65,11.47l-.28,51a8.49,8.49,0,0,1-8.55,8.45h0a8.5,8.5,0,0,1-8.45-8.54l.15-31.3a5.15,5.15,0,0,0-.08-1C48,20.9,44.27,11,28.37,13.21L48.58,1.54A11.38,11.38,0,0,1,65.65,11.47Z" fill="url(#Degradado_sin_nombre_175)"/><path d="M16,61.45a25.51,25.51,0,0,0,13.52,7.71,2.62,2.62,0,0,0,3.25-2.52c0-3.68,0-9.83.06-14.08A2.61,2.61,0,0,0,29,50.3L16.66,57.44A2.61,2.61,0,0,0,16,61.45Z" fill="url(#Degradado_sin_nombre_176)"/></g></g></svg>