<svg height="20" viewBox="0 0 18 20" width="18" xmlns="http://www.w3.org/2000/svg"><g fill="none"><g fill="#d079ff" transform="translate(9.5016 6.9536)"><path d="m1.00112816 4.57566053-.98285199 2.6581265c-.02436823.07205765-.02436823.1521217 0 .23218575l1.68953069 4.57165732 1.95758123-1.1128903-2.34747293-6.34907927c-.0568592-.14411529-.2599278-.14411529-.316787 0z"/><path d="m2.97495487.10808647c-.0568592-.14411529-.25992779-.14411529-.316787 0l-.98285199 2.6581265c-.02436823.07205765-.02436823.1521217 0 .23218575l2.7698556 7.48598878 1.95758123-1.1128903-3.42779784-9.25540433z"/></g><path d="m9 1.24099279c.04873646 0 .09747292.01601281.13808664.04003203l7.45667866 4.24339472c.0893502.04803843.1380867.14411529.1380867.24019215v8.48678941c0 .0960769-.0568592.1921537-.1380867.2401922l-7.45667866 4.2433947c-.04061372.0240192-.08935018.040032-.13808664.040032s-.09747292-.0160128-.13808664-.040032l-7.4566787-4.2433947c-.08935018-.0480385-.13808665-.1441153-.13808665-.2401922v-8.49479582c0-.09607686.05685921-.19215372.13808665-.24019215l7.4566787-4.24339472c.04061372-.02401921.08935018-.04003202.13808664-.04003202zm0-1.24099279c-.26805054 0-.52797834.06405124-.77166065.20016013l-7.4566787 4.24339471c-.47924188.27221778-.77166065.7686149-.77166065 1.31305044v8.48678942c0 .5444356.29241877 1.0408327.77166065 1.3130505l7.4566787 4.2433947c.23555957.1361089.50361011.2001601.77166065.2001601s.52797834-.0640512.77166065-.2001601l7.45667875-4.2433947c.4792418-.2722178.7716606-.7686149.7716606-1.3130505v-8.48678942c0-.54443554-.2924188-1.04083266-.7716606-1.31305044l-7.46480149-4.24339471c-.23555957-.13610889-.50361011-.20016013-.77166065-.20016013z" fill="#d079ff"/><path d="m4.06137184 17.4459568.69043321-1.857486 1.38086643 1.1289031-1.29151625 1.1689351z" fill="#213147"/><g fill="#d079ff" transform="translate(2.1038 5.1481)"><path d="m6.26263538.00800641h-1.89259928c-.13808664 0-.26805054.08807045-.316787.21617293l-4.0532491 10.95276226 1.95758123 1.1128903 4.46750902-12.06565256c.04061372-.11208967-.04061372-.22417934-.15433213-.22417934z"/><path d="m9.5767148.00800641h-1.89259928c-.13808664 0-.26805054.08807045-.316787.21617293l-4.6299639 12.50600476 1.95758123 1.1128904 5.03610108-13.61889516c.04061372-.11208967-.04061372-.22417934-.15433213-.22417934z"/></g></g></svg>