<?xml version="1.0" standalone="no"?>
<!DOCTYPE svg PUBLIC "-//W3C//DTD SVG 20010904//EN"
 "http://www.w3.org/TR/2001/REC-SVG-20010904/DTD/svg10.dtd">
<svg version="1.0" xmlns="http://www.w3.org/2000/svg"
 width="1500.000000pt" height="1500.000000pt" viewBox="0 0 1500.000000 1500.000000"
 preserveAspectRatio="xMidYMid meet">
<metadata>
Created by potrace 1.16, written by Peter Selinger 2001-2019
</metadata>
<g transform="translate(0.000000,1500.000000) scale(0.100000,-0.100000)"
fill="#000000" stroke="none">
<path d="M7095 14493 c-22 -1 -103 -7 -180 -13 -897 -68 -1835 -337 -2643
-756 -1056 -548 -1955 -1355 -2619 -2349 -574 -861 -951 -1856 -1097 -2895
-52 -370 -61 -504 -61 -980 0 -476 9 -610 61 -980 259 -1846 1231 -3493 2729
-4623 953 -719 2110 -1191 3295 -1342 382 -49 982 -70 1347 -46 1419 92 2754
595 3856 1453 400 311 812 713 1132 1103 493 600 894 1306 1164 2048 468 1289
543 2725 211 4078 -217 884 -624 1747 -1173 2485 -368 496 -840 977 -1334
1362 -1095 852 -2425 1356 -3831 1452 -137 9 -753 12 -857 3z m760 -2963 c948
-86 1822 -488 2494 -1145 223 -219 455 -495 516 -615 61 -121 75 -276 36 -401
-79 -250 -342 -408 -595 -356 -153 31 -240 91 -353 240 -355 471 -787 808
-1312 1022 -372 151 -727 219 -1141 219 -481 -1 -881 -93 -1315 -303 -550
-266 -986 -670 -1298 -1203 -32 -53 -57 -98 -57 -101 0 -3 183 -7 408 -9 391
-4 409 -5 466 -26 88 -33 145 -69 206 -131 199 -203 199 -529 0 -732 -61 -62
-117 -98 -206 -131 l-59 -23 -1329 -3 c-1307 -2 -1331 -2 -1410 18 -172 43
-308 169 -367 340 -32 92 -32 239 0 330 54 157 178 281 331 332 61 21 88 23
439 28 l373 5 40 100 c61 156 191 416 285 573 173 289 349 517 593 765 677
691 1568 1115 2535 1206 130 12 591 13 720 1z m4260 -4388 c93 -35 191 -107
247 -182 218 -295 80 -706 -277 -821 -28 -8 -152 -14 -414 -18 l-374 -6 -44
-110 c-142 -355 -355 -717 -609 -1035 -122 -153 -421 -457 -566 -574 -571
-465 -1209 -758 -1913 -880 -437 -75 -929 -76 -1375 0 -1018 171 -1954 742
-2575 1569 -45 61 -92 128 -103 150 -78 155 -74 339 10 498 39 72 144 173 220
209 174 85 378 70 534 -38 62 -42 75 -56 202 -222 659 -858 1758 -1303 2830
-1147 459 68 898 240 1282 503 299 205 582 489 793 797 48 71 167 269 167 280
0 2 -181 5 -402 7 -464 4 -475 6 -606 98 -143 100 -221 253 -222 430 0 232
170 449 396 504 50 12 267 14 1399 13 l1340 -2 60 -23z"/>
</g>
</svg>
