<svg viewBox="0 0 500 500" xmlns="http://www.w3.org/2000/svg"><circle cx="250" cy="250" fill="#161616" r="250"/><path d="M265.7 308.5v21.9c0 3 1.7 6 4.5 7.3l61.8 30.7c2.6 1.3 4.1 3.9 4.1 6.6v7.7c0 2.8-1.5 5.4-4.1 6.6l-76 37.8c-3.9 1.9-8.4 1.9-12.2 0l-75.9-37.7c-2.6-1.3-4.1-3.9-4.1-6.6V375c0-2.8 1.5-5.4 4.1-6.6l61.8-30.7c2.8-1.3 4.5-4.3 4.5-7.3v-21.9c0-2.8-2.1-5.4-4.9-5.6-9-1.1-16.3-2.6-21.9-4.5-11.4-3.6-20.2-13.1-23.2-24.9l-45-169.9-1.1-3.9c0-15.7 50.2-28.3 112-28.3s112 12.7 112 28.3l-1.1 3.9-45 169.9c-3 11.6-11.8 21-23.2 24.9-5.6 1.9-12.9 3.4-21.9 4.5-3.1.2-5.2 2.8-5.2 5.6z" fill="#ffaf1d"/></svg>