<svg xmlns="http://www.w3.org/2000/svg" viewBox="0 0 360 360"><defs><clipPath id="a"><path fill="none" d="M0 0H360V360H0z"/></clipPath></defs><g clip-path="url(#a)"><path d="M298.57 298.78c-65.6 65.6-171.96 65.6-237.56 0s-65.6-171.96 0-237.56 171.96-65.6 237.56 0 65.6 171.96 0 237.56" fill="#a101f8"/><path d="M145.39 159.48c0-6.9-5.6-12.5-12.5-12.5h-17.21c12.4-23.7 37.09-38.99 64.46-38.99 23.5 0 45.68 11.45 59.33 30.63 4 5.62 11.8 6.94 17.43 2.94 5.62-4 6.94-11.81 2.94-17.43-18.33-25.76-48.12-41.14-79.7-41.14-41.07 0-77.63 25.62-91.74 63.99H72.85c-6.9 0-12.5 5.6-12.5 12.5s5.6 12.5 12.5 12.5h60.04c6.9 0 12.5-5.6 12.5-12.5m141.27 28.51h-60.04c-6.9 0-12.5 5.6-12.5 12.5s5.6 12.5 12.5 12.5h17.21c-12.4 23.7-37.09 38.99-64.46 38.99-23.5 0-45.68-11.45-59.33-30.63-4-5.62-11.81-6.94-17.43-2.94-5.62 4-6.94 11.81-2.94 17.43 18.33 25.76 48.12 41.14 79.7 41.14 41.06 0 77.63-25.62 91.74-63.99h15.55c6.9 0 12.5-5.6 12.5-12.5s-5.6-12.5-12.5-12.5" fill="#fff"/></g></svg>