<svg width="24" height="24" fill="none" xmlns="http://www.w3.org/2000/svg"><path d="M12 24C5.373 24 0 18.627 0 12S5.373 0 12 0s12 5.373 12 12-5.373 12-12 12z" fill="#FAF1E7"/><path fill-rule="evenodd" clip-rule="evenodd" d="M11.715 12.778c-1.737 0-3.142-1.394-3.142-3.11 0-1.72 1.405-3.111 3.142-3.111 1.737 0 3.143 1.391 3.143 3.11 0 1.717-1.406 3.111-3.143 3.111zm0-7.778c2.602 0 4.715 2.089 4.715 4.668 0 2.578-2.11 4.667-4.715 4.667C9.113 14.335 7 12.246 7 9.668 7 7.088 9.113 5 11.715 5zm4.483 9.562a.775.775 0 0 1 0 1.1l-3.142 3.111a.794.794 0 0 1-1.112 0 .775.775 0 0 1 0-1.1l3.143-3.111a.79.79 0 0 1 1.111 0zM18 5.778c0 .429-.35.779-.786.779a.782.782 0 0 1-.787-.779c0-.43.354-.778.79-.778a.78.78 0 0 1 .783.778z" fill="#000"/></svg>