<svg width="20" height="20" viewBox="0 0 20 20" fill="none" xmlns="http://www.w3.org/2000/svg">
<path d="M10 20C15.5228 20 20 15.5228 20 10C20 4.47715 15.5228 0 10 0C4.47715 0 0 4.47715 0 10C0 15.5228 4.47715 20 10 20Z" fill="url(#paint0_linear_9077_36194)"/>
<path fill-rule="evenodd" clip-rule="evenodd" d="M15.5425 5.83301C15.7094 5.83301 15.8378 5.96996 15.8336 6.13259C15.7779 8.02849 15.2044 9.81313 14.1987 11.1784C13.0945 12.6848 11.6009 13.5108 10.0003 13.5108C8.81913 13.5108 7.69785 13.0614 6.74775 12.2226C6.66216 12.1413 6.62792 12.0172 6.66644 11.9059C6.77343 11.5978 6.89754 11.3067 7.04305 11.0286C7.13293 10.8531 7.36403 10.8189 7.50098 10.9558C8.21141 11.6534 9.07163 12.0642 10.0003 12.0642C11.25 12.0642 12.3798 11.3196 13.1801 10.1298C12.3798 8.94007 11.25 8.1954 10.0003 8.1954C7.64221 8.1954 5.71207 10.8403 5.60935 14.1485C5.60507 14.3025 5.47668 14.4266 5.32261 14.4266H4.45812C4.29121 14.4266 4.16282 14.2897 4.1671 14.1271C4.20989 12.6848 4.55227 11.3067 5.15571 10.1298C4.55227 8.95291 4.20989 7.57912 4.1671 6.13259C4.16282 5.96996 4.29549 5.83301 4.45812 5.83301H5.32261C5.47668 5.83301 5.60507 5.95712 5.60935 6.11119C5.63931 7.04416 5.81478 7.9215 6.10152 8.70469C7.17144 7.44217 8.54095 6.75314 10.0003 6.75314C11.4597 6.75314 12.8292 7.44217 13.8991 8.70469C14.1901 7.9215 14.3613 7.04416 14.3913 6.11119C14.3956 5.95712 14.524 5.83301 14.678 5.83301H15.5425ZM14.7251 11.5635C14.7765 11.495 14.8235 11.4265 14.8706 11.3581C15.0076 11.1569 15.3072 11.204 15.3799 11.4351C15.6538 12.2782 15.8079 13.1898 15.8336 14.127C15.8378 14.2897 15.7052 14.4266 15.5425 14.4266H14.678C14.524 14.4266 14.3956 14.3025 14.3913 14.1484C14.3742 13.5493 14.2929 12.9715 14.1645 12.428C14.1431 12.3338 14.1688 12.2354 14.2329 12.1627C14.4041 11.9743 14.5668 11.7775 14.7251 11.5635Z" fill="white"/>
<defs>
<linearGradient id="paint0_linear_9077_36194" x1="10" y1="0" x2="10" y2="20" gradientUnits="userSpaceOnUse">
<stop stop-color="#55C1F8"/>
<stop offset="0.505208" stop-color="#0085FF"/>
<stop offset="1" stop-color="#4A4CFF"/>
</linearGradient>
</defs>
</svg>
