<?xml version="1.0" standalone="no"?>
<!DOCTYPE svg PUBLIC "-//W3C//DTD SVG 20010904//EN"
 "http://www.w3.org/TR/2001/REC-SVG-20010904/DTD/svg10.dtd">
<svg version="1.0" xmlns="http://www.w3.org/2000/svg"
 width="96.000000pt" height="96.000000pt" viewBox="0 0 96.000000 96.000000"
 preserveAspectRatio="xMidYMid meet">

<g transform="translate(0.000000,96.000000) scale(0.100000,-0.100000)"
fill="#000000" stroke="none">
<path d="M417 850 c-109 -19 -233 -114 -277 -213 -82 -185 -5 -400 176 -492
47 -24 73 -30 146 -33 119 -6 188 19 270 97 l58 56 1 125 1 125 -83 2 -84 2
-43 -54 -42 -54 72 -3 73 -3 3 -41 c2 -29 -3 -47 -19 -67 -28 -36 -102 -73
-164 -81 l-50 -6 30 24 c29 25 29 26 10 40 -42 32 -74 39 -114 27 -50 -15 -88
-14 -94 2 -18 54 78 233 177 326 48 46 46 56 -6 30 -70 -35 -146 -98 -193
-161 -25 -33 -46 -54 -46 -46 -5 41 5 98 22 138 75 169 291 206 429 74 l35
-33 42 27 c24 15 43 30 43 33 0 4 -27 32 -60 62 -88 82 -199 116 -313 97z"/>
</g>
</svg>
