<svg xmlns="http://www.w3.org/2000/svg" xmlns:xlink="http://www.w3.org/1999/xlink" viewBox="0 0 265 265"><defs><linearGradient id="c"><stop offset="0" stop-color="#91f5f5"/><stop offset="1" stop-color="#91f5f5" stop-opacity="0"/></linearGradient><linearGradient id="b"><stop offset="0" stop-color="#ffb4ff"/><stop offset="1" stop-color="#ffb4ff" stop-opacity="0"/></linearGradient><linearGradient xlink:href="#a" id="f" x1="4964.1" x2="5049.7" y1="-3370.1" y2="-3185.7" gradientTransform="matrix(.12 0 0 -.12 -486 -219)" gradientUnits="userSpaceOnUse"/><linearGradient id="a"><stop offset="0" stop-color="#232832"/><stop offset="1" stop-color="#232832" stop-opacity="0"/></linearGradient><radialGradient xlink:href="#b" id="e" cx="53.5" cy="26" r="132.3" fx="53.5" fy="26" gradientTransform="matrix(1.14 .87 -1.77 2.31 -160 112)" gradientUnits="userSpaceOnUse"/><radialGradient xlink:href="#c" id="d" cx="51.6" cy="251.4" r="132.3" fx="51.6" fy="251.4" gradientTransform="matrix(1.43 -.45 .4 1.27 -309 143)" gradientUnits="userSpaceOnUse"/></defs><g transform="translate(198 -193)"><circle cx="-66.2" cy="324.9" r="132.3" fill="#f0ff9b"/><circle cx="-66.2" cy="324.9" r="132.3" fill="url(#d)"/><circle cx="-66.2" cy="324.9" r="132.3" fill="url(#e)"/></g><path fill="#232832" d="M132 29A103 103 0 0 0 29 132a103 103 0 0 0 103 104 103 103 0 0 0 87-48v-67h-30v57a73 73 0 0 1-57 28 73 73 0 0 1-73-74 73 73 0 0 1 73-73 73 73 0 0 1 61 33l25-17a103 103 0 0 0-86-46zm41 92c-8 12-18 22-28 32h44v-32z"/><path fill="#232832" d="M60 145c19-33 51-59 82-69-57 54-69 99-61 108l-15 11-22-47Z"/><path fill="url(#f)" d="m66 195 15-11c6 6 31-5 45-16l32 14c-9 7-19 15-33 23l-12 12-47-22"/><circle cx="132.2" cy="132.3" r="132.3" fill="none"/></svg>