<svg width="1400" height="341" fill="none" xmlns="http://www.w3.org/2000/svg"><path d="M561.514 154.44c.707 5.769 1.088 11.593 1.034 17.471-.218 35.921-14.423 69.611-40.004 94.81-25.58 25.254-59.433 39.024-95.354 38.752-6.096-.055-12.028-.545-17.906-1.361 11.538-8.109 23.403-17.144 35.377-26.941 22.75-3.538 43.214-14.205 58.889-29.662 15.62-15.403 26.505-35.54 30.37-58.127 10.069-11.756 19.321-23.458 27.594-34.942zM479.112 35.301c11.321 3.756 22.043 9.09 32.003 15.73 14.314-2.94 25.635-1.416 32.384 5.497 8.926 9.034 8.436 25.852.653 46.806-5.606-9.579-12.3-18.668-20.301-26.778-25.254-25.58-58.889-39.785-94.81-40.003-35.922-.218-69.775 13.552-95.355 38.752-25.581 25.253-39.786 58.889-40.003 94.81-.327 48.766 25.525 91.654 64.331 115.492-19.974 6.749-35.921 6.586-44.52-2.068-6.368-6.477-8.001-16.927-5.552-29.989-6.749-10.069-12.137-21.117-16.001-32.873-32.656 50.888-44.738 93.558-27.376 111.138 26.124 26.506 109.723-12.953 193.376-88.878.054 0 .054 0 .109-.054a476.2 476.2 0 0 0 22.151-20.465 415.234 415.234 0 0 0 19.267-20.246c0-.055.054-.109.054-.163 77.993-83.164 119.194-167.143 92.851-193.812-17.579-17.743-61.175-5.77-113.261 27.104zM211.01 38.077c-4.571 0-8.436 1.524-11.538 4.463-3.102 2.993-4.626 6.858-4.626 11.702V156.29H32.329V54.241c0-4.789-1.524-8.708-4.463-11.7-2.993-2.994-6.857-4.464-11.701-4.464-4.572 0-8.436 1.524-11.539 4.463C1.524 45.533 0 49.398 0 54.242v236.046c0 4.572 1.524 8.436 4.626 11.484 3.103 3.102 6.912 4.626 11.539 4.626 4.79 0 8.708-1.524 11.701-4.626 2.994-3.102 4.463-6.912 4.463-11.484V184.81h162.517v105.478c0 4.572 1.524 8.436 4.626 11.484 3.102 3.102 6.912 4.626 11.538 4.626 4.79 0 8.708-1.524 11.702-4.626 2.993-3.102 4.463-6.912 4.463-11.484V54.242c0-4.79-1.47-8.709-4.463-11.702-3.048-2.993-6.912-4.463-11.702-4.463zm529.948 156.911a97.385 97.385 0 0 0 6.422-2.993c13.171-6.858 23.458-16.382 30.914-28.519 7.457-12.137 11.158-26.016 11.158-41.582 0-16.491-3.756-31.023-11.158-43.65-7.456-12.572-17.743-22.423-30.914-29.553-13.171-7.075-28.247-10.668-45.174-10.668h-62.862c-4.572 0-8.436 1.524-11.538 4.463-3.103 2.994-4.626 6.858-4.626 11.702v236.046c0 4.572 1.523 8.436 4.626 11.484 3.102 3.102 6.912 4.626 11.538 4.626 4.79 0 8.708-1.524 11.702-4.626 2.993-3.102 4.463-6.912 4.463-11.484v-87.952h46.697c2.068 0 4.082-.055 6.096-.164l59.869 96.335c1.85 2.775 3.918 4.735 6.204 5.986 2.286 1.252 4.899 1.905 7.892 1.905 6.858 0 11.702-2.558 14.423-7.728 2.776-5.171 2.177-10.831-1.741-16.981l-53.991-86.647zm-38.752-22.913h-46.697V68.339h46.697c10.994 0 20.682 2.231 29.009 6.694 8.328 4.463 14.968 10.777 19.757 18.886 4.79 8.11 7.239 17.471 7.239 27.975 0 9.634-2.395 18.287-7.239 25.961-4.789 7.675-11.375 13.607-19.757 17.852-8.381 4.245-18.015 6.368-29.009 6.368zM861.62 38.077c-4.572 0-8.436 1.524-11.538 4.463-3.103 2.993-4.627 6.858-4.627 11.702v236.046c0 4.572 1.524 8.436 4.627 11.484 3.102 3.102 6.912 4.626 11.538 4.626 4.789 0 8.708-1.524 11.701-4.626 2.994-3.102 4.463-6.912 4.463-11.484V54.242c0-4.79-1.524-8.709-4.463-11.702-3.048-2.993-6.912-4.463-11.701-4.463zm277.96 14.967c-.49-4.027-2.13-7.51-5.01-10.504-2.89-2.993-6.7-4.463-11.54-4.463H942.335c-4.572 0-8.436 1.415-11.539 4.3-3.102 2.884-4.517 6.368-4.299 10.504-.218 4.136.979 7.51 3.592 10.123 2.612 2.667 6.586 3.973 11.865 3.973h156.316L926.497 280.328c-2.504 3.211-3.592 6.803-3.266 10.831.327 4.027 1.905 7.565 4.626 10.667 2.776 3.103 6.532 4.627 11.321 4.627h183.802c4.78 0 8.7-1.307 11.7-3.974 2.99-2.612 4.46-6.15 4.46-10.504 0-4.136-1.52-7.565-4.46-10.286-3-2.776-6.86-4.137-11.7-4.137H963.888L1136.36 63.494c2.62-2.939 3.65-6.477 3.22-10.45zm258.95 230.713l-98.62-234.686c-2.77-7.347-7.89-10.994-15.45-10.994-7.08 0-12.14 3.647-15.13 10.994l-98.24 233.978c-2.51 5.497-2.29 10.777.71 15.784 2.99 5.062 7.45 7.565 13.38 7.565 3.21 0 6.21-.816 8.93-2.395 2.78-1.578 4.79-4.136 6.2-7.565l20.85-50.834h127.14l20.68 50.834c1.36 3.211 3.43 5.66 6.21 7.402 2.77 1.742 5.6 2.558 8.59 2.558 5.94 0 10.51-2.395 13.56-7.239 3.1-4.789 3.48-9.905 1.19-15.402zm-166.21-65.312L1285 90.108l52.25 128.337h-104.93z" fill="#fff"/></svg>