<svg width="40" height="40" fill="none" xmlns="http://www.w3.org/2000/svg">
    <circle cx="20" cy="20" r="20" fill="#CCE20A" />
    <circle cx="20" cy="20" r="19.75" stroke="#393F01" stroke-opacity=".1" stroke-width=".5" />
    <path fill-rule="evenodd" clip-rule="evenodd"
        d="M10.91 9.09A.91.91 0 0 0 10 10v20c0 .502.407.91.91.91h7.272v-4.124a3.636 3.636 0 1 1 3.636 0v4.123h7.273A.91.91 0 0 0 30 30V10a.91.91 0 0 0-.91-.91h-4.544a.91.91 0 0 0-.91.91v4.546a.91.91 0 0 1-.909.909h-5.454a.91.91 0 0 1-.91-.91V10a.91.91 0 0 0-.909-.91H10.91Z"
        fill="#2F3E24" />
</svg>