<svg fill="none" height="96" width="96" xmlns="http://www.w3.org/2000/svg" xmlns:xlink="http://www.w3.org/1999/xlink"><linearGradient id="a" gradientUnits="userSpaceOnUse" x1="17.6" x2="78.4" y1="47.994" y2="47.994"><stop offset="0" stop-color="#00f0ff"/><stop offset="1" stop-color="#acfd00"/></linearGradient><clipPath id="b"><rect height="96" rx="48" width="96"/></clipPath><g clip-path="url(#b)"><path d="m96 0h-96v96h96z" fill="#000"/><path clip-rule="evenodd" d="m59.229 28.8c-10.572 0-19.172 8.612-19.172 19.2 0 10.587 8.6 19.2 19.172 19.2 10.571 0 19.171-8.613 19.171-19.2 0-10.588-8.6-19.2-19.171-19.2zm0 32.914c-7.56 0-13.694-6.144-13.694-13.714s6.135-13.714 13.694-13.714 13.694 6.144 13.694 13.714-6.135 13.714-13.694 13.714zm-26.84-2.746h-2.192a1.615 1.615 0 0 1 -1.643-1.646v-18.377c0-.933.712-1.646 1.643-1.646h2.192c.93 0 1.643.713 1.643 1.646v18.377c0 .932-.712 1.646-1.643 1.646zm-13.146-3.781h2.191c.932 0 1.644-.713 1.644-1.646v-11.026c0-.933-.712-1.646-1.644-1.646h-2.19c-.932 0-1.644.713-1.644 1.646v11.026c0 .933.712 1.646 1.643 1.646z" fill="url(#a)" fill-rule="evenodd"/></g></svg>