<svg width="256" height="256" viewBox="0 0 256 256" fill="none" xmlns="http://www.w3.org/2000/svg">
<g id="KFI_Token 3" clip-path="url(#clip0_7631_1873)">
<g id="Group 30857">
<path id="Vector" d="M128 256C198.692 256 256 198.692 256 128C256 57.3075 198.692 0 128 0C57.3075 0 0 57.3075 0 128C0 198.692 57.3075 256 128 256Z" fill="url(#paint0_radial_7631_1873)"></path>
<g id="Group">
<path id="Vector_2" d="M205.01 201.145H167.905C165.48 201.145 163.155 200.18 161.44 198.465L94.2098 131.235C92.4248 129.45 92.4248 126.555 94.2098 124.77L161.44 57.54C163.155 55.825 165.48 54.86 167.905 54.86H205.01C207.045 54.86 208.065 57.32 206.625 58.76L139 126.385C138.105 127.28 138.105 128.725 139 129.615L206.625 197.24C208.065 198.68 207.045 201.14 205.01 201.14V201.145Z" fill="white"></path>
<path id="Vector_3" d="M98.565 94.11L67.905 124.77C66.12 126.555 66.12 129.45 67.905 131.235L98.565 161.895C100.28 163.61 101.245 165.935 101.245 168.36V196.57C101.245 199.095 99.2 201.14 96.675 201.14H65.59C63.065 201.14 61.02 199.095 61.02 196.57V59.43C61.02 56.905 63.065 54.86 65.59 54.86H96.675C99.2 54.86 101.245 56.905 101.245 59.43V87.645C101.245 90.07 100.28 92.395 98.565 94.11Z" fill="white"></path>
</g>
</g>
</g>
<defs>
<radialGradient id="paint0_radial_7631_1873" cx="0" cy="0" r="1" gradientUnits="userSpaceOnUse" gradientTransform="translate(220.53 47.54) scale(285.591)">
<stop offset="0.01" stop-color="#F5BB7E"></stop>
<stop offset="0.58" stop-color="#FF5100"></stop>
<stop offset="0.69" stop-color="#FC4808"></stop>
<stop offset="0.88" stop-color="#F4301F"></stop>
<stop offset="1" stop-color="#EE1E32"></stop>
</radialGradient>
<clipPath id="clip0_7631_1873">
<rect width="256" height="256" fill="white"></rect>
</clipPath>
</defs>
</svg>
