<svg width="514" height="740" viewBox="0 0 514 740" fill="none" xmlns="http://www.w3.org/2000/svg">
<path d="M485.409 576.808C468.429 560.218 446.781 551.397 424.842 550.112H424.9C340.702 547.366 328.624 477.384 328.624 459.742C328.624 440.464 341.986 372.935 424.725 370.307C446.665 369.08 468.312 360.201 485.292 343.61C522.694 307.1 523.511 247.165 487.043 209.72C468.604 190.735 444.097 181.213 419.591 181.096H418.949C395.259 181.155 371.569 190.092 353.247 207.968C333.175 227.537 324.773 253.825 324.773 279.82C324.773 302.602 309.719 365.049 239.758 365.049C213.442 365.049 185.785 372.76 165.654 393.439C164.779 394.316 164.079 395.367 163.262 396.302V395.951C158.477 400.975 157.543 397.003 157.602 394.257V13.2081C157.602 6.02295 151.825 0.239746 144.648 0.239746H12.9536C5.77659 0.239746 0 6.02295 0 13.2081V712.217C0 719.402 5.77659 725.185 12.9536 725.185H144.765C151.942 725.185 157.718 719.402 157.718 712.217V526.336C157.718 523.591 158.652 519.618 163.495 524.642V524.35C164.254 525.226 164.895 526.219 165.712 527.096C185.901 547.833 213.092 555.486 239.933 555.486C309.952 555.486 324.948 626.053 324.948 640.715C324.948 660.869 333.409 692.998 353.422 712.509C371.802 730.443 395.609 739.38 419.357 739.38H419.416C444.039 739.38 468.604 729.8 487.159 710.756C505.014 692.414 513.942 668.697 514 644.98V644.395C513.942 619.861 504.372 595.326 485.409 576.866" fill="white"></path>
</svg>
