<!--?xml version="1.0" encoding="UTF-8"?--><svg version="1.1" xmlns="http://www.w3.org/2000/svg" width="422"
    height="426">
    <path
        d="M0 0 C139.26 0 278.52 0 422 0 C422 140.58 422 281.16 422 426 C282.74 426 143.48 426 0 426 C0 285.42 0 144.84 0 0 Z "
        fill="#D8F3FD" transform="translate(0,0)"></path>
    <path
        d="M0 0 C5.13407236 3.51943576 9.73225838 7.70789203 14.31494141 11.90380859 C16.40528182 13.77436543 18.60577887 15.49861672 20.80566406 17.23779297 C22.5192505 18.85618016 24.17643666 20.53450978 25.80566406 22.23779297 C26.43085938 22.87974609 27.05605469 23.52169922 27.70019531 24.18310547 C39.12761822 36.33117667 48.17559105 50.45686644 55.80566406 65.23779297 C56.12374023 65.85332031 56.44181641 66.46884766 56.76953125 67.10302734 C66.86662002 86.95958019 73.91778895 110.06557888 73.93847656 132.46435547 C73.93991165 133.46866104 73.93991165 133.46866104 73.94137573 134.49325562 C73.94205197 135.90338231 73.94023675 137.31351222 73.93603516 138.72363281 C73.93073008 140.83650061 73.93597273 142.94915086 73.94238281 145.06201172 C73.95060328 156.99559087 73.58014963 168.6747694 70.68066406 180.30029297 C70.35352417 181.63302246 70.35352417 181.63302246 70.01977539 182.99267578 C58.26642047 229.25440367 30.27601413 269.1867858 -10.80371094 294.08544922 C-19.86764962 299.38007059 -29.25985225 303.76738571 -39.08642578 307.4453125 C-40.47451038 307.96717057 -41.8578978 308.50172585 -43.23583984 309.04980469 C-82.13267127 324.472645 -129.09866758 321.60958519 -167.36962891 305.9375 C-190.91327533 295.67583512 -213.89804553 281.00982772 -230.56542969 261.17138672 C-231.61141648 259.92974773 -232.68530869 258.71080754 -233.79199219 257.52294922 C-252.28616733 237.54224463 -263.41575697 212.47693358 -270.63183594 186.55029297 C-270.87893311 185.66647949 -271.12603027 184.78266602 -271.38061523 183.87207031 C-272.93334813 178.01430934 -273.76831276 172.28053156 -274.19433594 166.23779297 C-261.91476621 162.43697377 -249.98271282 160.79868669 -237.19433594 160.23779297 C-237.19433594 153.63779297 -237.19433594 147.03779297 -237.19433594 140.23779297 C-238.69996094 140.15529297 -240.20558594 140.07279297 -241.75683594 139.98779297 C-249.26026209 139.22473268 -254.30524922 136.07753543 -259.19433594 130.23779297 C-266.30432124 116.01782236 -263.51489448 99.50967745 -258.85839844 84.87451172 C-252.98122565 67.60110735 -245.17248421 47.93010518 -234.19433594 33.23779297 C-233.53433594 33.23779297 -232.87433594 33.23779297 -232.19433594 33.23779297 C-197.44959796 97.51309871 -197.44959796 97.51309871 -205.31933594 124.36279297 C-208.28620115 131.4640398 -212.73337434 135.53793815 -219.75292969 138.51123047 C-222.81934612 139.423796 -226.02716498 139.78533998 -229.19433594 140.23779297 C-229.19433594 146.17779297 -229.19433594 152.11779297 -229.19433594 158.23779297 C-227.09316406 158.21458984 -224.99199219 158.19138672 -222.82714844 158.16748047 C-208.17541857 158.04239268 -193.71517721 157.97899544 -179.19433594 160.23779297 C-179.19433594 155.94779297 -179.19433594 151.65779297 -179.19433594 147.23779297 C-180.24621094 147.17591797 -181.29808594 147.11404297 -182.38183594 147.05029297 C-186.94803382 146.07716883 -188.30963138 144.84367366 -191.19433594 141.23779297 C-195.74471959 133.48446936 -195.2698615 125.01790656 -193.35058594 116.48779297 C-189.50311723 104.21748735 -183.64046582 91.74997634 -176.19433594 81.23779297 C-175.53433594 81.23779297 -174.87433594 81.23779297 -174.19433594 81.23779297 C-153.75125733 118.3533379 -153.75125733 118.3533379 -157.65917969 136.38232422 C-159.38737729 141.07606801 -162.11262026 143.59668282 -166.19433594 146.23779297 C-168.17433594 146.23779297 -170.15433594 146.23779297 -172.19433594 146.23779297 C-172.19433594 151.51779297 -172.19433594 156.79779297 -172.19433594 162.23779297 C-170.93621094 162.44404297 -169.67808594 162.65029297 -168.38183594 162.86279297 C-159.79339661 164.55313703 -151.5006364 167.51848364 -143.19433594 170.23779297 C-142.84628906 169.22072266 -142.84628906 169.22072266 -142.49121094 168.18310547 C-140.88042881 164.52488341 -138.72815594 161.37168613 -136.44433594 158.11279297 C-135.96407959 157.42266113 -135.48382324 156.7325293 -134.98901367 156.02148438 C-125.33047743 142.22357546 -115.40188056 128.81953726 -104.19433594 116.23779297 C-103.41574219 115.34833984 -102.63714844 114.45888672 -101.83496094 113.54248047 C-76.830424 85.25720641 -76.830424 85.25720641 -59.71386719 81.72607422 C-54.15222243 81.44847061 -49.63917623 82.922856 -45.19433594 86.23779297 C-35.4526073 95.08077893 -28.96152908 106.37466452 -22.67089844 117.78466797 C-22.06193726 118.88742065 -22.06193726 118.88742065 -21.44067383 120.01245117 C-20.66632919 121.42715918 -19.90203885 122.84742895 -19.14916992 124.27368164 C-17.1121374 128.2831943 -17.1121374 128.2831943 -13.19433594 130.23779297 C-12.95070313 129.67576172 -12.70707031 129.11373047 -12.45605469 128.53466797 C-10.95252658 125.79759512 -9.12733846 123.77983356 -7.00683594 121.48779297 C-4.09721292 118.32130114 -1.23327055 115.13596019 1.55566406 111.86279297 C4.57574076 108.39425941 7.64934732 105.31595134 11.80566406 103.23779297 C17.56551929 102.85380262 20.75297191 103.14404922 25.80566406 106.23779297 C28.01717983 108.33535797 29.93474199 110.63481801 31.86816406 112.98779297 C33.01380768 114.344724 34.15964655 115.7014902 35.30566406 117.05810547 C35.88574219 117.75194336 36.46582031 118.44578125 37.06347656 119.16064453 C39.79944278 122.42264013 42.58096407 125.644561 45.36816406 128.86279297 C45.89700195 129.47485596 46.42583984 130.08691895 46.97070312 130.7175293 C52.44118483 137.02160027 58.10266817 143.14432168 63.80566406 149.23779297 C64.25603597 130.6236389 64.25603597 130.6236389 61.80566406 112.23779297 C61.65500488 111.49029785 61.5043457 110.74280273 61.34912109 109.97265625 C56.55419528 86.27439178 46.90219005 63.28034159 31.80566406 44.23779297 C31.12375 43.36509766 30.44183594 42.49240234 29.73925781 41.59326172 C27.78557251 39.12057083 25.80459181 36.67398616 23.80566406 34.23779297 C23.26941406 33.57650391 22.73316406 32.91521484 22.18066406 32.23388672 C19.02003456 28.42302355 15.70028279 25.29785054 11.80566406 22.23779297 C11.56783203 23.38054687 11.56783203 23.38054687 11.32519531 24.54638672 C8.7135014 36.10421447 4.94771596 44.02102918 -5.15136719 50.49169922 C-11.82761374 54.04658375 -18.8005471 54.28942595 -26.19433594 53.23779297 C-35.18809732 50.33862753 -41.29894871 45.43117842 -46.28027344 37.51123047 C-49.63820113 30.518115 -49.49615648 20.06997429 -47.50292969 12.67138672 C-46.56344079 10.6626887 -45.52752254 9.00706865 -44.19433594 7.23779297 C-43.77023437 6.62677734 -43.34613281 6.01576172 -42.90917969 5.38623047 C-32.16644731 -8.67807097 -14.19375183 -8.86422188 0 0 Z "
        fill="#101714" transform="translate(314.1943359375,89.76220703125)"></path>
    <path
        d="M0 0 C1.10859375 0.13277344 2.2171875 0.26554687 3.359375 0.40234375 C22.94859357 2.9107193 40.96001078 11.40041703 58 21 C58 24 58 24 56.67407227 25.55883789 C56.06104248 26.10789795 55.4480127 26.65695801 54.81640625 27.22265625 C54.1404541 27.83818359 53.46450195 28.45371094 52.76806641 29.08789062 C52.04022949 29.73951172 51.31239258 30.39113281 50.5625 31.0625 C24.64443065 54.88554907 7.88565305 85.43583368 1 120 C-5.77098705 118.03997743 -10.47774014 114.25138362 -16 110 C-16.81726563 109.37867188 -17.63453125 108.75734375 -18.4765625 108.1171875 C-47.68925821 85.37505632 -68.84285051 54.97795869 -79 19.25 C-79.20786133 18.52377441 -79.41572266 17.79754883 -79.62988281 17.04931641 C-80.8207533 12.57260276 -81.19393572 8.63021531 -81 4 C-54.48924618 -2.58101459 -27.00794447 -4.10865538 0 0 Z "
        fill="#269547" transform="translate(131,258)"></path>
    <path
        d="M0 0 C0.98154053 0.32411865 0.98154053 0.32411865 1.98291016 0.65478516 C11.51763628 3.82604972 20.66715463 7.56341835 29.625 12.125 C30.44871094 12.53242432 31.27242187 12.93984863 32.12109375 13.35961914 C33.25611328 13.95891235 33.25611328 13.95891235 34.4140625 14.5703125 C35.0838916 14.91852051 35.7537207 15.26672852 36.44384766 15.62548828 C38.67134585 17.59298355 38.79975217 19.07417173 39 22 C38.44262695 24.38427734 38.44262695 24.38427734 37.48828125 26.8359375 C37.14216797 27.73570312 36.79605469 28.63546875 36.43945312 29.5625 C35.88161133 30.9546875 35.88161133 30.9546875 35.3125 32.375 C34.95994141 33.29539062 34.60738281 34.21578125 34.24414062 35.1640625 C32.20150183 40.39202285 29.9236121 45.20870793 27 50 C26.3915625 49.6596875 25.783125 49.319375 25.15625 48.96875 C8.61749688 39.82379239 -7.20586705 31.51346135 -26.26953125 29.359375 C-29 29 -29 29 -31 28 C-44.55349571 26.99648787 -57.8174251 27.80150677 -71 31 C-71.99257813 31.19335938 -72.98515625 31.38671875 -74.0078125 31.5859375 C-88.14890464 34.55286964 -101.4866418 41.40743474 -113 50 C-113.81210938 50.59039062 -114.62421875 51.18078125 -115.4609375 51.7890625 C-143.32396046 72.9793874 -155.92930314 100.48941007 -163 134 C-169.3456207 133.43108228 -174.78417577 131.38680536 -180.6875 129.0625 C-182.09225586 128.52206055 -182.09225586 128.52206055 -183.52539062 127.97070312 C-187.43902324 126.45385622 -191.26834386 124.92865506 -195 123 C-193.41455317 106.1420843 -187.39194944 89.6159786 -179 75 C-178.64679688 74.36803711 -178.29359375 73.73607422 -177.9296875 73.08496094 C-165.1436391 50.28394117 -147.44703314 30.60138025 -125 17 C-124.42507812 16.6390625 -123.85015625 16.278125 -123.2578125 15.90625 C-87.96646786 -6.21182775 -39.86826213 -13.76080535 0 0 Z "
        fill="#28B550" transform="translate(334,260)"></path>
    <path
        d="M0 0 C3.3975879 2.12349244 5.59182959 4.82779159 8 8 C8.68320312 8.886875 9.36640625 9.77375 10.0703125 10.6875 C17.48489293 20.89251392 25.99697761 32.99093283 30 45 C33.80157009 46.26719003 37.07782513 46.82534975 41 46 C48.05331765 41.82077045 53.02550257 34.33967905 58 28 C63.99718752 20.38608433 63.99718752 20.38608433 68.26953125 19.5625 C72.32711596 20.21264233 74.19233292 22.83264124 76.75 25.8125 C77.27875732 26.40635498 77.80751465 27.00020996 78.35229492 27.61206055 C82.19205424 31.95874949 85.82719852 36.46196046 89.45703125 40.984375 C92.67677777 44.80256903 96.07249073 48.43108791 99.5 52.0625 C100.14702881 52.74908691 100.79405762 53.43567383 101.46069336 54.14306641 C103.81458347 56.63717936 106.16935105 59.13032373 108.53808594 61.61035156 C109.8256993 62.96121611 111.10091794 64.32386584 112.375 65.6875 C113.06335938 66.41324219 113.75171875 67.13898438 114.4609375 67.88671875 C116.3019113 70.41455333 116.78680372 71.87916935 117 75 C116.44140625 78.55078125 116.44140625 78.55078125 115.5625 82.3125 C115.27503906 83.56675781 114.98757813 84.82101562 114.69140625 86.11328125 C114.46324219 87.06589844 114.23507812 88.01851563 114 89 C110.72812175 87.72553755 107.55951546 86.3445816 104.41015625 84.79296875 C63.66244969 64.90616268 19.57417734 59.60467632 -24 74 C-35.2868889 77.95390822 -45.64445849 83.21047019 -55.86010742 89.40698242 C-56.60623291 89.85920166 -57.3523584 90.3114209 -58.12109375 90.77734375 C-58.7752124 91.18202881 -59.42933105 91.58671387 -60.10327148 92.00366211 C-62.1567384 93.08233356 -63.68651865 93.75269394 -66 94 C-68.10644531 93.10375977 -68.10644531 93.10375977 -70.328125 91.69140625 C-71.12734375 91.19189453 -71.9265625 90.69238281 -72.75 90.17773438 C-73.575 89.64470703 -74.4 89.11167969 -75.25 88.5625 C-76.51070312 87.76875977 -76.51070312 87.76875977 -77.796875 86.95898438 C-79.87190496 85.65030071 -81.93889699 84.33046923 -84 83 C-82.63672434 79.16364639 -80.88547557 76.2441858 -78.4375 73 C-75.45702581 68.99932766 -72.59868137 64.95064761 -69.8125 60.8125 C-64.77748283 53.49911582 -59.18850886 46.68416451 -53.52636719 39.85107422 C-52.14231094 38.17258502 -50.77400003 36.48320276 -49.4140625 34.78515625 C-45.19790283 29.54013851 -40.86094947 24.65067939 -36 20 C-35.236875 19.21625 -34.47375 18.4325 -33.6875 17.625 C-12.28902223 -3.27583876 -12.28902223 -3.27583876 0 0 Z "
        fill="#096B91" transform="translate(262,181)"></path>
    <path
        d="M0 0 C-4.86121966 9.46535559 -11.04848498 17.96231075 -18 26 C-22.66436817 25.40016762 -26.35367542 23.37026779 -30.4375 21.1875 C-48.35855971 12.11764601 -68.90708128 9.45219122 -88.6875 14.4375 C-91.83928186 15.53289704 -91.83928186 15.53289704 -95 17 C-95.65967773 17.2902002 -96.31935547 17.58040039 -96.99902344 17.87939453 C-108.02773322 22.84757524 -116.73482038 29.20700049 -125 38 C-125.75796875 38.78890625 -126.5159375 39.5778125 -127.296875 40.390625 C-137.8848434 52.45598434 -142.24931195 67.52737973 -145 83 C-152.31626261 83.18463754 -159.31570029 82.4697345 -166.5625 81.5 C-167.66658203 81.35691406 -168.77066406 81.21382813 -169.90820312 81.06640625 C-172.6061765 80.7160201 -175.3033556 80.36044731 -178 80 C-176.94690171 68.15525092 -175.02113059 56.85737978 -170 46 C-169.31164062 44.43378906 -169.31164062 44.43378906 -168.609375 42.8359375 C-155.92238634 15.55275314 -133.10586461 -4.65087378 -105.25 -15.5 C-69.8108861 -28.1139219 -30.32146713 -22.4877719 0 0 Z "
        fill="#269447" transform="translate(357,317)"></path>
    <path
        d="M0 0 C-8.62168255 19.35567731 -38.41965697 32.54517889 -56.8125 39.875 C-58.86896843 40.60065829 -60.93168334 41.30883536 -63 42 C-64.14339844 42.41636719 -65.28679687 42.83273437 -66.46484375 43.26171875 C-80.34828301 48.13332493 -96.24782768 51.56497681 -111 51 C-109.57853781 32.87635708 -100.86350913 16.7557372 -87.48876953 4.62988281 C-81.25422149 -0.62681502 -74.52926122 -4.88760022 -67 -8 C-66.13117188 -8.391875 -65.26234375 -8.78375 -64.3671875 -9.1875 C-43.10532821 -17.35205397 -18.42753167 -12.32052695 0 0 Z "
        fill="#28B550" transform="translate(331,349)"></path>
    <path
        d="M0 0 C3.3612247 2.77666388 4.995904 6.53948634 6.875 10.375 C7.22723633 11.08817383 7.57947266 11.80134766 7.94238281 12.53613281 C11.02944536 18.88286177 13.65470701 25.3423941 16 32 C16.36996094 33.0415625 16.73992187 34.083125 17.12109375 35.15625 C21.32892155 47.3635746 24.95668885 60.50697913 20.046875 73.12890625 C17.4291744 77.80755769 13.08543977 80.4881125 8 82 C7.01 82 6.02 82 5 82 C5 75.07 5 68.14 5 61 C2.36 61 -0.28 61 -3 61 C-3 67.93 -3 74.86 -3 82 C-13.77777778 80.46031746 -13.77777778 80.46031746 -17.75 76.0625 C-18.1625 75.381875 -18.575 74.70125 -19 74 C-19.51626953 73.15308594 -19.51626953 73.15308594 -20.04296875 72.2890625 C-26.0553161 57.90850925 -17.35140568 37.12976711 -11.96484375 23.78125 C-8.48599107 15.60260116 -4.46793431 7.68349309 0 0 Z "
        fill="#28B44F" transform="translate(80,140)"></path>
    <path
        d="M0 0 C6.68684806 3.40047905 11.44375267 9.2558553 14.2890625 16.1640625 C15.45390524 24.52640724 14.10555183 31.22678476 9.2890625 38.1640625 C4.07259222 43.74447257 -2.77815452 46.61209296 -10.2734375 47.6640625 C-17.50685263 46.61192939 -23.62598927 43.36726534 -28.7109375 38.1640625 C-32.85324589 31.39298147 -34.66724085 25.10700566 -33.7109375 17.1640625 C-31.31323311 9.2808783 -26.65555344 4.41666439 -19.7109375 0.1640625 C-13.57931553 -1.87981149 -6.17698223 -1.90471786 0 0 Z "
        fill="#DC7005" transform="translate(304.7109375,90.8359375)"></path>
    <path
        d="M0 0 C7.69998716 6.82955383 11.31640737 20.90463237 12.421875 30.76171875 C12.75195238 39.53627589 12.75195238 39.53627589 10.9765625 42.9921875 C9.6875 44.375 9.6875 44.375 7 46 C6.01 46 5.02 46 4 46 C4 42.04 4 38.08 4 34 C1.69 34 -0.62 34 -3 34 C-3 37.96 -3 41.92 -3 46 C-8 45 -8 45 -9.78515625 43.30859375 C-13.20997405 36.8003387 -11.3067025 28.16590681 -9.3125 21.4375 C-4.08530511 6.12795766 -4.08530511 6.12795766 0 0 Z "
        fill="#269246" transform="translate(138,184)"></path>
    <path
        d="M0 0 C1.90625 0.84765625 1.90625 0.84765625 3.90625 3.84765625 C3.90625 6.84765625 3.90625 6.84765625 2.26171875 8.56640625 C1.54628906 9.15421875 0.83085937 9.74203125 0.09375 10.34765625 C-2.92318973 12.84417345 -2.92318973 12.84417345 -5.73046875 15.56640625 C-7.09375 16.84765625 -7.09375 16.84765625 -9.09375 16.84765625 C-9.3103125 17.53214844 -9.526875 18.21664062 -9.75 18.921875 C-11.48760869 22.70521485 -13.92041484 25.4973078 -16.59375 28.66015625 C-22.09069578 35.31712295 -26.69526934 42.28595751 -31.1328125 49.6796875 C-33.09375 52.84765625 -33.09375 52.84765625 -35.09375 54.84765625 C-38.10680957 54.45887437 -39.49060311 53.58308751 -42.09375 51.84765625 C-38.73711458 34.21520994 -16.72217096 12.5379955 -3.8125 0.7890625 C-2.09375 -0.15234375 -2.09375 -0.15234375 0 0 Z "
        fill="#0D1314" transform="translate(239.09375,206.15234375)"></path>
    <path d="M0 0 C10.89 0 21.78 0 33 0 C33 2.97 33 5.94 33 9 C22.11 9 11.22 9 0 9 C0 6.03 0 3.06 0 0 Z " fill="#23312C"
        transform="translate(227,106)"></path>
    <path
        d="M0 0 C6.31224722 0.9444082 11.27497287 4.25792934 16.75 7.375 C18.34908203 8.26058594 18.34908203 8.26058594 19.98046875 9.1640625 C20.99238281 9.73640625 22.00429688 10.30875 23.046875 10.8984375 C23.97338867 11.42099121 24.89990234 11.94354492 25.85449219 12.48193359 C28 14 28 14 29 17 C27.5625 20.1875 27.5625 20.1875 26 23 C16.44232635 18.35189123 7.17157738 13.36634847 -2 8 C-1.47731534 5.23723823 -0.89130413 2.6739124 0 0 Z "
        fill="#161E1B" transform="translate(234,77)"></path>
    <path
        d="M0 0 C1.84765625 0.33984375 1.84765625 0.33984375 4.0625 0.9375 C5.16271484 1.22947266 5.16271484 1.22947266 6.28515625 1.52734375 C7.13400391 1.76130859 7.13400391 1.76130859 8 2 C5.78293193 12.5074875 3.38871182 22.79781442 0 33 C-3.96 32.505 -3.96 32.505 -8 32 C-7.24345067 25.39910711 -5.62581662 19.05924595 -4 12.625 C-3.59007812 10.96791016 -3.59007812 10.96791016 -3.171875 9.27734375 C-2.90890625 8.22933594 -2.6459375 7.18132813 -2.375 6.1015625 C-2.01535156 4.66804443 -2.01535156 4.66804443 -1.6484375 3.20556641 C-1 1 -1 1 0 0 Z "
        fill="#19211D" transform="translate(308,46)"></path>
    <path
        d="M0 0 C3.75947154 3.65712658 7.19870139 7.47837115 10.5625 11.5 C11.26536133 12.33337891 11.26536133 12.33337891 11.98242188 13.18359375 C12.89800922 14.27205423 13.81032549 15.36327655 14.71899414 16.45751953 C15.91928398 17.9028085 17.13111729 19.33848879 18.34375 20.7734375 C20 23 20 23 19.9375 25.125 C18.90219203 27.19561593 17.73999647 28.48695959 16 30 C12.99335334 28.66975466 11.09122855 27.28305758 8.94140625 24.8046875 C8.39033203 24.17046875 7.83925781 23.53625 7.27148438 22.8828125 C6.70751953 22.22023438 6.14355469 21.55765625 5.5625 20.875 C4.72235352 19.9159375 4.72235352 19.9159375 3.86523438 18.9375 C0.0902891 14.55028239 -3.07538442 9.9921161 -6 5 C-4.02 3.35 -2.04 1.7 0 0 Z "
        fill="#151C19" transform="translate(256,57)"></path>
    <path
        d="M0 0 C0.99 0 1.98 0 3 0 C3 0.66 3 1.32 3 2 C4.32 2.66 5.64 3.32 7 4 C5.7291359 7.46437402 4.26387249 10.29922328 2.1015625 13.28515625 C1.53953125 14.06310547 0.9775 14.84105469 0.3984375 15.64257812 C-0.18679688 16.44115234 -0.77203125 17.23972656 -1.375 18.0625 C-2.24125 19.26616211 -2.24125 19.26616211 -3.125 20.49414062 C-5.86574098 24.26422383 -8.53441072 27.85024029 -12 31 C-13.98 29.35 -15.96 27.7 -18 26 C-13.81444817 19.08413787 -9.28483228 12.58555391 -4.28955078 6.24145508 C-1.9254816 3.26473595 -1.9254816 3.26473595 0 0 Z "
        fill="#161E1B" transform="translate(332,57)"></path>
    <path
        d="M0 0 C0.08564209 0.60996826 0.17128418 1.21993652 0.25952148 1.84838867 C0.65069064 4.62830451 1.04407444 7.40790264 1.4375 10.1875 C1.57220703 11.14720703 1.70691406 12.10691406 1.84570312 13.09570312 C1.97783203 14.02705078 2.10996094 14.95839844 2.24609375 15.91796875 C2.36654053 16.77156982 2.4869873 17.6251709 2.61108398 18.50463867 C2.87593757 20.20399113 3.18878162 21.89639452 3.54321289 23.5793457 C4.13962093 26.73989393 4.06289705 29.79225027 4 33 C1.36 33 -1.28 33 -4 33 C-5.67798859 28.45956029 -6.56657363 24.03847743 -7.125 19.25 C-7.20991699 18.55132812 -7.29483398 17.85265625 -7.38232422 17.1328125 C-8.00009285 11.74318519 -8.23473735 6.42504106 -8 1 C-2.25 0 -2.25 0 0 0 Z "
        fill="#17201C" transform="translate(288,46)"></path>
    <path
        d="M0 0 C0.33 2.31 0.66 4.62 1 7 C-2.6837364 8.32323156 -6.37257727 9.63162898 -10.0625 10.9375 C-11.10083984 11.31068359 -12.13917969 11.68386719 -13.20898438 12.06835938 C-18.49279084 13.93027213 -23.41027422 15.50049259 -29 16 C-30.76462683 12.91190305 -31 11.76687864 -31 8 C-26.77784468 6.45918805 -22.54633177 4.94590062 -18.3125 3.4375 C-17.11431641 2.99986328 -15.91613281 2.56222656 -14.68164062 2.11132812 C-13.52470703 1.70205078 -12.36777344 1.29277344 -11.17578125 0.87109375 C-9.58117065 0.29766235 -9.58117065 0.29766235 -7.9543457 -0.28735352 C-4.84871701 -1.03649244 -3.03556599 -0.88588466 0 0 Z "
        fill="#151E1A" transform="translate(263,125)"></path>
</svg>