<svg width="113" height="113" viewBox="0 0 113 113" fill="none" xmlns="http://www.w3.org/2000/svg">
<g clip-path="url(#clip0_1124_12666)">
<path fill-rule="evenodd" clip-rule="evenodd" d="M28.8652 13.6911L50.9485 0.5L73.0921 13.6911L50.9485 26.8822L28.8652 13.6911ZM50.9492 26.8822L73.0928 13.6911L95.2363 26.8822L95.2353 26.8828V53.2022L73.0918 66.3933V40.0111L73.0922 40.0108L50.9492 26.8822ZM106.278 86.1801V59.7976L84.1348 72.9888V99.3087L106.278 86.1801ZM39.9082 72.989V99.3089L62.0508 112.5V112.5L62.0513 112.5L62.0517 112.5V112.5L84.1341 99.3089V72.989L62.0513 86.18L39.9082 72.989ZM28.8662 79.5844V53.2022L50.9495 40.0111L28.8662 26.8821L6.72275 40.011L6.72266 40.011V40.0111V66.3932V92.7753L28.8662 105.904V79.5844Z" fill="#9E77ED"/>
</g>
<defs>
<clipPath id="clip0_1124_12666">
<rect width="112" height="112" fill="white" transform="translate(0.5 0.5)"/>
</clipPath>
</defs>
</svg>
