<!--?xml version="1.0" encoding="UTF-8"?--><svg id="Layer_2" xmlns="http://www.w3.org/2000/svg" xmlns:xlink="http://www.w3.org/1999/xlink" viewBox="0 0 299.19 299.2"><defs><style>.cls-1{fill:url(#linear-gradient);}.cls-1,.cls-2,.cls-3,.cls-4{stroke-width:0px;}.cls-2{fill:#fff;opacity:.23;}.cls-3{fill:url(#linear-gradient-2);}.cls-4{fill:#1a1a1a;}</style><linearGradient id="linear-gradient" x1="70.78" y1="22.42" x2="228.4" y2="276.78" gradientUnits="userSpaceOnUse"><stop offset="0" stop-color="#ff8c00"></stop><stop offset="1" stop-color="#ff4500"></stop></linearGradient><linearGradient id="linear-gradient-2" x1="93.91" y1="114.1" x2="185.17" y2="261.37" xlink:href="#linear-gradient"></linearGradient></defs><g id="Layer_1-2"><path class="cls-4" d="m235.9,231.11h-.01s-4.05-10.02-4.05-10.02l-12.89-31.8-18.44-45.51-8.03-19.82-11.25-27.79-12.72-31.39c-.33-.83-.91-1.52-1.62-1.99-.71-.48-1.57-.75-2.46-.75h-29.88c-1.79,0-3.4,1.08-4.08,2.74l-23.78,58.87-8.02,19.85-17.89,44.29-13.37,33.16-4.12,10.15h0c-1.17,2.9.96,6.06,4.08,6.06h24.39l1.22-1,8.05-6.61,48.73-40.06,56.41,46.37.41.32,1.2.98h24.04c3.12,0,5.25-3.16,4.08-6.05Zm-115.76-65.97l8.15,6.68-15.76,13.62,7.61-20.3Zm47.15,3.26l-14.65-12.69-9.09-7.86-12.81-11.09,13.24-35.38,5.49-14.65,5.49,14.64,7.3,19.4,7.22,19.19,7.4,19.7,9.5,25.25-19.09-16.51Z"></path><path class="cls-4" d="m149.59,0C66.97,0,0,66.98,0,149.6s66.97,149.6,149.59,149.6,149.6-66.98,149.6-149.6S232.21,0,149.59,0Zm100.83,250.43c-26.93,26.93-62.74,41.77-100.83,41.77s-73.89-14.84-100.83-41.77c-26.93-26.93-41.76-62.74-41.76-100.83s14.83-73.9,41.76-100.83C75.7,21.84,111.51,7,149.59,7s73.9,14.84,100.83,41.77c26.94,26.93,41.77,62.74,41.77,100.83s-14.83,73.9-41.77,100.83Z"></path><path class="cls-1" d="m149.59,0C66.97,0,0,66.98,0,149.6s66.97,149.6,149.59,149.6,149.6-66.98,149.6-149.6S232.21,0,149.59,0Zm100.83,250.43c-26.93,26.93-62.74,41.77-100.83,41.77s-73.89-14.84-100.83-41.77c-26.93-26.93-41.76-62.74-41.76-100.83s14.83-73.9,41.76-100.83C75.7,21.84,111.51,7,149.59,7s73.9,14.84,100.83,41.77c26.94,26.93,41.77,62.74,41.77,100.83s-14.83,73.9-41.77,100.83Z"></path><path class="cls-3" d="m235.9,231.11h-.01s-4.05-10.02-4.05-10.02l-12.89-31.8-18.44-45.51-8.03-19.82-11.25-27.79-12.72-31.39c-.33-.83-.91-1.52-1.62-1.99-.71-.48-1.57-.75-2.46-.75h-29.88c-1.79,0-3.4,1.08-4.08,2.74l-23.78,58.87-8.02,19.85-17.89,44.29-13.37,33.16-4.12,10.15h0c-1.17,2.9.96,6.06,4.08,6.06h24.39l1.22-1,8.05-6.61,48.73-40.06,56.41,46.37.41.32,1.2.98h24.04c3.12,0,5.25-3.16,4.08-6.05Zm-115.76-65.97l8.15,6.68-15.76,13.62,7.61-20.3Zm47.15,3.26l-14.65-12.69-9.09-7.86-12.81-11.09,13.24-35.38,5.49-14.65,5.49,14.64,7.3,19.4,7.22,19.19,7.4,19.7,9.5,25.25-19.09-16.51Z"></path><path class="cls-2" d="m231.82,237.16h-24.04l-1.2-.98-.41-.32-56.41-46.37-48.73,40.06c7.15-18.5,16.19-37.28,26.96-56.17,4.83-8.5,10.02-17.01,15.56-25.53l9.09,7.86,14.65,12.69,19.09,16.51-9.5-25.25-7.4-19.7-7.22-19.19c6.02-8.22,12.34-16.42,18.97-24.6l11.25,27.79,8.03,19.82,18.44,45.51,12.89,31.8,4.05,10.01h.01c1.17,2.9-.96,6.06-4.08,6.06Z"></path></g></svg>