<svg width="32" height="32" fill="none" xmlns="http://www.w3.org/2000/svg"><g clip-path="url(#clip0_224_1195)"><circle cx="16" cy="16" r="16" fill="#121825"/><path d="M16 4.176a16.43 16.43 0 0 0 1.765 4.229c.293-.23.58-.447.858-.65A15.38 15.38 0 0 1 16.533 0h-1.067a15.38 15.38 0 0 1-2.09 7.755c.277.203.564.421.858.65a16.43 16.43 0 0 0 1.765-4.229zm8.245 9.2a11.43 11.43 0 0 1-.912-.571c-.32-.214-.623-.443-.923-.682a12.469 12.469 0 0 1-.821-.693 18.145 18.145 0 0 1-1.019-1.019c-.277.197-.564.416-.853.646.384.431.795.842 1.226 1.221.262.24.533.474.815.693.299.24.608.465.924.682A16.522 16.522 0 0 0 27.822 16a16.5 16.5 0 0 0-6.064 3.028c-.282.219-.555.454-.815.693-.431.38-.842.79-1.226 1.222.289.23.576.447.853.645.326-.352.667-.693 1.019-1.018.266-.246.539-.474.821-.693.299-.24.603-.47.924-.682.293-.203.597-.395.912-.571A15.368 15.368 0 0 1 32 16.533v-1.067c-2.826 0-5.472-.763-7.755-2.09zM8.668 19.194c.32.214.623.442.923.682.282.219.555.447.821.693.352.325.693.666 1.019 1.018.277-.197.564-.415.853-.645a14.129 14.129 0 0 0-1.226-1.222c-.262-.24-.533-.474-.815-.693a15.57 15.57 0 0 0-1.836-1.262 16.524 16.524 0 0 0-4.228-1.766 16.5 16.5 0 0 0 6.064-3.028c.282-.219.555-.453.815-.693.431-.379.842-.79 1.226-1.221-.289-.23-.576-.447-.853-.646-.326.352-.667.694-1.019 1.019-.266.245-.539.474-.821.693-.299.24-.603.47-.923.682-.294.203-.598.395-.912.57A15.368 15.368 0 0 1 0 15.467v1.066c2.826 0 5.472.763 7.755 2.09.314.177.618.369.912.572zm7.332 8.63a16.43 16.43 0 0 0-1.765-4.229c-.294.23-.58.447-.858.65A15.38 15.38 0 0 1 15.466 32h1.066c0-2.822.763-5.472 2.09-7.755a36.789 36.789 0 0 1-.857-.65 16.43 16.43 0 0 0-1.766 4.229z" fill="#E5D540"/><path d="M23.946 20.07a12.52 12.52 0 0 0-.924.688c1.323 1.989 1.93 3.567 2.197 4.463-.896-.267-2.474-.874-4.463-2.197a40.357 40.357 0 0 1-.88-.614 24.49 24.49 0 0 1-.849-.65 40.397 40.397 0 0 1-.826-.682c-.197-.171-.4-.352-.608-.54h-.005a32.19 32.19 0 0 1-.774-.73l2.65-2.65.342-.342c.255.262.501.524.731.774h.005c.18.208.363.41.533.614.298-.24.607-.47.923-.682-.203-.24-.416-.485-.65-.736-.23-.25-.47-.524-.725-.784.255-.261.496-.533.725-.783.234-.25.447-.497.65-.736a15.26 15.26 0 0 1-.923-.682c-.171.203-.352.406-.533.614h-.005c-.23.25-.474.512-.731.774l-.341-.341-2.65-2.65c.261-.256.516-.497.773-.732h.005c.208-.187.411-.368.608-.54.282-.239.56-.469.826-.681.293-.235.571-.448.849-.65.304-.22.598-.422.88-.614 1.989-1.323 3.567-1.93 4.463-2.197-.266.896-.874 2.474-2.197 4.463.299.246.608.474.924.689 2.298-3.419 2.591-5.723 2.607-5.852l.086-.72-.72.086c-.129.016-2.432.31-5.851 2.607-.283.188-.576.39-.874.614-.278.203-.56.416-.849.65-.271.213-.549.443-.833.689-.24.197-.485.416-.73.646h-.006c-.255.23-.512.474-.774.73l-.004-.004-.005.005a24.796 24.796 0 0 0-.774-.731h-.005c-.246-.23-.49-.448-.731-.646a21.23 21.23 0 0 0-.833-.688 20.733 20.733 0 0 0-.848-.65 18.298 18.298 0 0 0-.874-.615C8.51 5.76 6.205 5.466 6.076 5.45l-.72-.086.086.72c.016.129.31 2.432 2.608 5.852.314-.213.623-.443.923-.689C7.65 9.258 7.043 7.68 6.776 6.784c.896.266 2.474.874 4.463 2.197.283.192.576.395.88.613.278.203.556.416.85.65.266.215.543.443.825.683.197.171.4.352.608.54h.005c.255.234.512.473.774.73l-2.65 2.65-.342.342a35.085 35.085 0 0 1-.73-.774h-.006c-.18-.208-.363-.411-.533-.614-.298.24-.607.47-.923.682.203.24.416.485.65.736.23.25.47.523.726.783-.256.262-.497.533-.725.784-.235.25-.448.496-.65.736.313.214.623.442.922.682.172-.203.353-.406.533-.614h.005c.23-.25.474-.512.731-.774l.341.341 2.65 2.65c-.261.256-.516.497-.773.732h-.005c-.208.187-.41.368-.607.539-.283.24-.56.47-.827.682a24.49 24.49 0 0 1-.848.65c-.305.22-.598.422-.88.614-1.99 1.323-3.568 1.93-4.464 2.197.266-.896.874-2.474 2.197-4.463a12.31 12.31 0 0 0-.923-.689c-2.299 3.418-2.592 5.723-2.608 5.851l-.086.72.72-.085c.129-.016 2.432-.31 5.852-2.608.282-.187.575-.388.874-.614.277-.203.56-.415.848-.65.271-.212.549-.442.833-.688.24-.197.485-.416.731-.646h.005c.255-.23.512-.474.774-.731l.005.005.004-.005c.262.255.517.501.774.731h.005c.246.23.49.448.731.646.283.246.56.474.833.688.289.235.571.447.849.65.298.224.591.427.874.614 3.418 2.299 5.722 2.592 5.85 2.608l.72.085-.085-.72c-.016-.128-.309-2.431-2.607-5.85zm-7.6-1.414l-.347.347-.347-.347-2.31-2.31-.347-.347.347-.347 2.31-2.31.347-.347.348.347 2.309 2.31.347.347-.347.348-2.31 2.309z" fill="#E5D540"/></g><defs><clipPath id="clip0_224_1195"><path fill="#fff" d="M0 0H32V32H0z"/></clipPath></defs></svg>