<svg xmlns="http://www.w3.org/2000/svg" width="64" height="64"><defs><clipPath id="a"><path d="M0 0H64V64H0z"/></clipPath></defs><g clip-path="url(#a)"><path d="M62.718 41.034a31.954 31.954 0 0 1-25.02 22.551v-9.107a15.189 15.189 0 0 0 5.682-3.814 14.692 14.692 0 0 0 2.231-3.13 14.843 14.843 0 0 0 1.73-7.031c0-8.052-5.812-11.269-11.26-13.656l-2.759-1.219c-2.949-1.323-5.206-2.5-5.206-4.514 0-2.785 2.43-4.281 4.722-4.281 2.439 0 3.823.9 5.284 3.433l1.133 1.963 7.29-4.679-.951-1.764a14.16 14.16 0 0 0-7.9-6.8V.634c.709.121 1.41.277 2.119.458.069.017.147.035.225.052a1.841 1.841 0 0 1 .234.061.267.267 0 0 1 .069.017c.19.052.389.1.588.156a32 32 0 0 1 21.789 39.656z" fill="#745ddf"/><path d="M38.39 40.944c0 3.667-3.312 5.933-6.374 5.933-3.676 0-5.777-3.036-6.184-5.855l-.346-2.447-8.821 2.482.4 1.972A14.943 14.943 0 0 0 28.34 55.066v8.813a32.2 32.2 0 0 1-4.64-.891c-.216-.052-.424-.112-.64-.173A32.018 32.018 0 0 1 0 32.105V1.361A1.264 1.264 0 0 1 1.263.098H28.34v8.8a12.968 12.968 0 0 0-7.55 5.846 12.345 12.345 0 0 0-1.626 6.2v.174c.086 7.178 5.362 10.179 10.343 12.436L32 34.639l.208.1c3.95 1.803 6.182 2.988 6.182 6.205z" fill="#2eb6ea"/><path d="M47.34 40.503a14.843 14.843 0 0 1-1.73 7.031 14.692 14.692 0 0 1-2.231 3.131 15.189 15.189 0 0 1-5.684 3.816v9.149l-2.557.226s-5.485.164-6.791 0l-.014-8.787a14.943 14.943 0 0 1-11.27-12.041l-.4-1.972 8.821-2.482.346 2.447c.406 2.819 2.508 5.855 6.184 5.855 3.061 0 6.374-2.266 6.374-5.933 0-3.217-2.231-4.4-6.184-6.209l-.208-.1-2.491-1.081c-4.981-2.257-10.257-5.258-10.343-12.436v-.173a12.345 12.345 0 0 1 1.626-6.2 12.968 12.968 0 0 1 7.55-5.846V.089c5.77-.049 6.212-.015 9.357.539v8.36a14.16 14.16 0 0 1 7.9 6.8l.951 1.764-7.29 4.679-1.133-1.963c-1.462-2.534-2.845-3.433-5.284-3.433-2.292 0-4.722 1.5-4.722 4.281 0 2.015 2.257 3.191 5.206 4.514l2.759 1.219c5.447 2.385 11.258 5.602 11.258 13.654z" fill="#fff"/></g></svg>