<svg width="32" height="33" viewBox="0 0 32 33" fill="none" xmlns="http://www.w3.org/2000/svg">
<path d="M5.9607 5.84917C6.43462 5.01519 7.31994 4.5 8.27917 4.5H23.7182C24.6775 4.5 25.5628 5.01519 26.0367 5.84917L28.9851 11.0377C29.538 12.0107 29.4246 13.2254 28.7011 14.0792L16.7713 28.1572C16.6706 28.2657 16.5504 28.352 16.4177 28.4108C16.2851 28.4697 16.1426 28.5 15.9987 28.5C15.8548 28.5 15.7123 28.4697 15.5797 28.4108C15.447 28.352 15.3268 28.2657 15.2261 28.1572L3.29631 14.0792C2.5728 13.2254 2.45937 12.0107 3.01228 11.0377L5.9607 5.84917Z" fill="url(#paint0_linear_4261_18594)"/>
<path d="M17.4453 16.4921L12.0371 15.1665L17.4453 13.8409L13.429 7.1665L21.3704 15.1665L13.429 23.1665L17.4453 16.4921Z" fill="white"/>
<defs>
<linearGradient id="paint0_linear_4261_18594" x1="38.746" y1="4.5" x2="-2.37059" y2="38.3426" gradientUnits="userSpaceOnUse">
<stop offset="0.19" stop-color="#FE9A4C"/>
<stop offset="0.655" stop-color="#124E81"/>
</linearGradient>
</defs>
</svg>
