<?xml version="1.0" encoding="utf-8"?>
<!-- Generator: Adobe Illustrator 25.4.1, SVG Export Plug-In . SVG Version: 6.00 Build 0)  -->
<svg version="1.0" id="katman_1" xmlns="http://www.w3.org/2000/svg" xmlns:xlink="http://www.w3.org/1999/xlink" x="0px" y="0px"
	 viewBox="0 0 1700 1200" style="enable-background:new 0 0 1700 1200;" xml:space="preserve">
<style type="text/css">
	.st0{fill-rule:evenodd;clip-rule:evenodd;fill:url(#SVGID_1_);}
</style>
<linearGradient id="SVGID_1_" gradientUnits="userSpaceOnUse" x1="-47.9535" y1="887.748" x2="840.4398" y2="903.9816" gradientTransform="matrix(1 0 0 -1 454 1496)">
	<stop  offset="0" style="stop-color:#29CCB9"/>
	<stop  offset="0.4948" style="stop-color:#0091FF"/>
	<stop  offset="1" style="stop-color:#FF66B7"/>
</linearGradient>
<path class="st0" d="M616.8,913.1c-95.3-71.2-157-184.9-157-313c0-215.6,174.8-390.4,390.4-390.4c178,0,372.3,106.4,419.3,269.2
	c-52.5-182-220.3-315.2-419.3-315.2c-241,0-436.4,195.4-436.4,436.4s195.4,436.4,436.4,436.4s436.4-195.4,436.4-436.4v-23l-24,0
	c-0.7,0-1.8,0-3.2,0c-2.8,0-6.9-0.1-12.1-0.3c-10.3-0.3-24.6-1-40.6-2.4c-32.7-2.8-70.1-8.4-95.5-18.6c-40.9-16.3-64-38-90.4-63.3
	l-1.5-1.5c-26.4-25.4-56.1-53.9-107.6-78.2c-50.7-23.9-106.8-20-148-11.6c-20.9,4.3-38.9,10-51.6,14.6c-6.4,2.3-11.5,4.4-15.1,5.9
	c-20.7,8.7-40.9,19.1-61.2,28.6c0,0,39.9,11,59.7,17.1c0.7,0.2,1.8,0.6,3.3,1.1c2.9,1,7.2,2.5,12.4,4.6
	c10.4,4.2,24.1,10.6,37.6,19.3c21.3,13.7,39,30.9,46.2,52.1c-45.2,5.9-87.6,25.8-119.4,44.5c-19.2,11.3-35.2,22.6-46.4,31.1
	c-5.6,4.2-10.1,7.8-13.1,10.3c-2.6,2.1-43.4,38.1-43.4,38.1s52.7,5.6,78.7,10.8c17.3,3.5,40.6,9.1,64.9,17.6
	c24.4,8.5,49.1,19.7,69.6,34c20.5,14.3,35.6,30.9,43,49.8c21.6,55.2,0.4,109-42.2,139.2C744.6,949.9,680.7,957,616.8,913.1z
	 M765.7,981.4c17.2-5.6,33.2-13.7,47.7-23.9c57.9-41.2,88.4-116.6,58.3-193.4c-11.8-30.2-34.4-53.3-59.5-70.8
	c-25.1-17.5-54-30.4-80.8-39.7c-17.6-6.1-34.6-10.9-49.4-14.5c5.3-3.4,11-7,17-10.5c35.4-20.8,79.9-39.9,122.6-39.9
	c64.4,0,112.3,19.7,158,40.9c4.2,1.9,8.3,3.9,12.5,5.9c40.9,19.2,83.8,39.3,133.7,39.3c48.4,0,86.1-13.7,112.1-27.8
	c-23.1,193.6-187.9,343.6-387.7,343.6C821.2,990.6,792.9,987.4,765.7,981.4z M1188.3,618.7c-17.2,5.9-38,10.1-62.4,10.1
	c-39.1,0-72.8-15.7-115.5-35.6c-3.8-1.8-7.6-3.5-11.5-5.3c-42.8-19.8-92.2-40.8-156.6-44.6c-8.6-42.6-40.9-71.8-68.6-89.5
	c-3.1-2-6.2-3.9-9.2-5.6c2.8-0.6,5.6-1.3,8.5-1.9c37.2-7.7,81.6-9.6,119.2,8.1c44.6,21,69.8,45.2,96,70.3l0.9,0.9
	c27,25.9,55.5,53,105.2,72.9C1121.8,609.5,1157.6,615.4,1188.3,618.7z"/>
</svg>
