<svg fill="none" height="512" viewBox="0 0 512 512" width="512" xmlns="http://www.w3.org/2000/svg" xmlns:xlink="http://www.w3.org/1999/xlink"><linearGradient id="a" gradientUnits="userSpaceOnUse" x1="-83.1237" x2="608.321" y1="29.6875" y2="402"><stop offset="0" stop-color="#2a2cbf"/><stop offset=".482532" stop-color="#6335ff"/><stop offset=".905715" stop-color="#bd89ff"/></linearGradient><path d="m503.37 317.686c-34.061 136.609-172.439 219.746-309.079 185.68-136.5825-34.057-219.7292-172.428-185.65326-309.026 34.04596-136.6231 172.42426-219.7666 309.02126-185.70952 136.631 34.05712 219.772 172.44352 185.708 309.05752l.002-.002z" fill="url(#a)"/><path d="m368.457 219.834c5.076-33.961-20.762-52.216-56.095-64.394l11.462-46.002-27.985-6.978-11.158 44.791c-7.357-1.836-14.912-3.566-22.422-5.281l11.239-45.087-27.968-6.9777-11.468 45.9877c-6.088-1.387-12.068-2.758-17.869-4.202l.032-.145-38.592-9.643-7.444 29.909s20.762 4.762 20.325 5.055c11.332 2.831 13.381 10.337 13.041 16.287l-13.056 52.408c.78.198 1.792.485 2.909.934-.934-.232-1.927-.485-2.958-.732l-18.301 73.416c-1.385 3.445-4.9 8.615-12.823 6.652.28.407-20.34-5.079-20.34-5.079l-13.894 32.054 36.418 9.085c6.775 1.7 13.414 3.479 19.952 5.151l-11.58 46.531 27.953 6.977 11.468-46.036c7.636 2.075 15.047 3.988 22.302 5.792l-11.43 45.819 27.987 6.978 11.579-46.443c47.721 9.037 83.603 5.393 98.706-37.798 12.17-34.774-.605-54.831-25.711-67.911 18.286-4.22 32.059-16.254 35.731-41.114l-.009-.007zm-63.939 89.718c-8.649 34.773-67.16 15.976-86.13 11.262l15.367-61.645c18.969 4.739 79.801 14.117 70.764 50.383zm8.654-90.222c-7.889 31.631-56.588 15.561-72.386 11.62l13.933-55.907c15.797 3.94 66.672 11.294 58.456 44.287z" fill="#fff"/></svg>