<svg width="272" height="272" viewBox="0 0 272 272" fill="none" xmlns="http://www.w3.org/2000/svg">
<path d="M64 32H208V64H64V32Z" fill="#ACD2BB"/>
<path d="M48 64H224V96H48V64Z" fill="#ACD2BB"/>
<path d="M32 96H240V176H32V96Z" fill="#ACD2BB"/>
<path d="M48 176H224V208H48V176Z" fill="#ACD2BB"/>
<path d="M64 208H208V240H64V208Z" fill="#ACD2BB"/>
<rect x="16" y="96" width="16" height="80" fill="#516866"/>
<rect x="32" y="64" width="16" height="32" fill="#516866"/>
<rect x="32" y="176" width="16" height="32" fill="#516866"/>
<rect x="48" y="48" width="16" height="16" fill="#516866"/>
<rect x="48" y="208" width="16" height="16" fill="#516866"/>
<rect x="64" y="32" width="32" height="16" fill="#516866"/>
<rect x="64" y="224" width="32" height="16" fill="#516866"/>
<rect x="96" y="16" width="80" height="16" fill="#516866"/>
<rect x="176" y="32" width="32" height="16" fill="#516866"/>
<rect x="176" y="224" width="32" height="16" fill="#516866"/>
<rect x="208" y="48" width="16" height="16" fill="#516866"/>
<rect x="208" y="208" width="16" height="16" fill="#516866"/>
<rect x="224" y="64" width="16" height="32" fill="#516866"/>
<rect x="224" y="176" width="16" height="32" fill="#516866"/>
<rect x="240" y="96" width="16" height="80" fill="#516866"/>
<rect x="96" y="240" width="80.0001" height="16" fill="#516866"/>
<rect x="64" y="64" width="16" height="32" fill="#E5ECE8"/>
<rect x="48" y="96" width="16" height="32" fill="#E5ECE8"/>
<rect x="48" y="144" width="16" height="16" fill="#E5ECE8"/>
<rect x="168" y="200" width="32" height="16" fill="#E5ECE8"/>
<rect x="176" y="192" width="16" height="32" fill="#E5ECE8"/>
<rect x="189" y="140" width="48" height="24" fill="#E5ECE8"/>
<rect x="201" y="128" width="24" height="48" fill="#E5ECE8"/>
<rect x="80" y="64" width="16" height="16" fill="#E5ECE8"/>
<rect x="96" y="48" width="80" height="16" fill="#E5ECE8"/>
<path d="M88 88H101.714V101.714H88V88Z" fill="#516866"/>
<path d="M101.714 88H115.429V101.714H101.714V88Z" fill="#516866"/>
<path d="M88 101.714H101.714V115.429H88V101.714Z" fill="#516866"/>
<path d="M101.714 101.714H115.429V115.429H101.714V101.714Z" fill="#516866"/>
<path d="M88 115.429H101.714V129.143H88V115.429Z" fill="#516866"/>
<path d="M101.714 115.429H115.429V129.143H101.714V115.429Z" fill="#516866"/>
<path d="M88 129.143H101.714V142.857H88V129.143Z" fill="#516866"/>
<path d="M101.714 129.143H115.429V142.857H101.714V129.143Z" fill="#516866"/>
<path d="M88 142.857H101.714V156.571H88V142.857Z" fill="#516866"/>
<path d="M101.714 142.857H115.429V156.571H101.714V142.857Z" fill="#516866"/>
<path d="M88 156.571H101.714V170.286H88V156.571Z" fill="#516866"/>
<path d="M101.714 156.571H115.429V170.286H101.714V156.571Z" fill="#516866"/>
<path d="M88 170.286H101.714V184H88V170.286Z" fill="#516866"/>
<path d="M101.714 170.286H115.429V184H101.714V170.286Z" fill="#516866"/>
<path d="M115.429 115.429H129.143V129.143H115.429V115.429Z" fill="#516866"/>
<path d="M115.429 129.143H129.143V142.857H115.429V129.143Z" fill="#516866"/>
<path d="M129.143 129.143H142.857V142.857H129.143V129.143Z" fill="#516866"/>
<path d="M129.143 142.857H142.857V156.571H129.143V142.857Z" fill="#516866"/>
<path d="M142.857 115.429H156.571V129.143H142.857V115.429Z" fill="#516866"/>
<path d="M142.857 129.143H156.571V142.857H142.857V129.143Z" fill="#516866"/>
<path d="M156.571 88H170.286V101.714H156.571V88Z" fill="#516866"/>
<path d="M170.286 88H184V101.714H170.286V88Z" fill="#516866"/>
<path d="M156.571 101.714H170.286V115.429H156.571V101.714Z" fill="#516866"/>
<path d="M170.286 101.714H184V115.429H170.286V101.714Z" fill="#516866"/>
<path d="M156.571 115.429H170.286V129.143H156.571V115.429Z" fill="#516866"/>
<path d="M170.286 115.429H184V129.143H170.286V115.429Z" fill="#516866"/>
<path d="M156.571 129.143H170.286V142.857H156.571V129.143Z" fill="#516866"/>
<path d="M170.286 129.143H184V142.857H170.286V129.143Z" fill="#516866"/>
<path d="M156.571 142.857H170.286V156.571H156.571V142.857Z" fill="#516866"/>
<path d="M170.286 142.857H184V156.571H170.286V142.857Z" fill="#516866"/>
<path d="M156.571 156.571H170.286V170.286H156.571V156.571Z" fill="#516866"/>
<path d="M170.286 156.571H184V170.286H170.286V156.571Z" fill="#516866"/>
<path d="M156.571 170.286H170.286V184H156.571V170.286Z" fill="#516866"/>
<path d="M170.286 170.286H184V184H170.286V170.286Z" fill="#516866"/>
</svg>
