<svg fill="none" height="272" width="272" xmlns="http://www.w3.org/2000/svg"><path d="m64 32h144v32h-144zm-16 32h176v32h-176zm-16 32h208v80h-208zm16 80h176v32h-176zm16 32h144v32h-144z" fill="#acd2bb"/><path d="m16 96h16v80h-16zm16-32h16v32h-16zm0 112h16v32h-16zm16-128h16v16h-16zm0 160h16v16h-16zm16-176h32v16h-32zm0 192h32v16h-32zm32-208h80v16h-80zm80 16h32v16h-32zm0 192h32v16h-32zm32-176h16v16h-16zm0 160h16v16h-16zm16-144h16v32h-16zm0 112h16v32h-16zm16-80h16v80h-16zm-144 144h80v16h-80z" fill="#516866"/><g fill="#e5ece8"><path d="m64 64h16v32h-16zm-16 32h16v32h-16zm0 48h16v16h-16zm120 56h32v16h-32z"/><path d="m176 192h16v32h-16zm13-52h48v24h-48z"/><path d="m201 128h24v48h-24zm-121-64h16v16h-16zm16-16h80v16h-80z"/></g><path d="m88 88h13.714v13.714h-13.714zm13.714 0h13.715v13.714h-13.715zm-13.714 13.714h13.714v13.715h-13.714zm13.714 0h13.715v13.715h-13.715zm-13.714 13.715h13.714v13.714h-13.714zm13.714 0h13.715v13.714h-13.715zm-13.714 13.714h13.714v13.714h-13.714zm13.714 0h13.715v13.714h-13.715zm-13.714 13.714h13.714v13.714h-13.714zm13.714 0h13.715v13.714h-13.715zm-13.714 13.714h13.714v13.715h-13.714zm13.714 0h13.715v13.715h-13.715zm-13.714 13.715h13.714v13.714h-13.714zm13.714 0h13.715v13.714h-13.715zm13.715-54.857h13.714v13.714h-13.714zm0 13.714h13.714v13.714h-13.714zm13.714 0h13.714v13.714h-13.714zm0 13.714h13.714v13.714h-13.714zm13.714-27.428h13.714v13.714h-13.714zm0 13.714h13.714v13.714h-13.714zm13.714-41.143h13.715v13.714h-13.715zm13.715 0h13.714v13.714h-13.714zm-13.715 13.714h13.715v13.715h-13.715zm13.715 0h13.714v13.715h-13.714zm-13.715 13.715h13.715v13.714h-13.715zm13.715 0h13.714v13.714h-13.714zm-13.715 13.714h13.715v13.714h-13.715zm13.715 0h13.714v13.714h-13.714zm-13.715 13.714h13.715v13.714h-13.715zm13.715 0h13.714v13.714h-13.714zm-13.715 13.714h13.715v13.715h-13.715zm13.715 0h13.714v13.715h-13.714zm-13.715 13.715h13.715v13.714h-13.715zm13.715 0h13.714v13.714h-13.714z" fill="#516866"/></svg>