<?xml version="1.0" encoding="UTF-8"?>
<svg version="1.1" xmlns="http://www.w3.org/2000/svg" width="250" height="250">
<path d="M0 0 C17.16 0 34.32 0 52 0 C52 0.66 52 1.32 52 2 C52.96099609 2.07347656 52.96099609 2.07347656 53.94140625 2.1484375 C59.21196085 2.6040145 63.96986288 3.3597379 69 5 C69 5.66 69 6.32 69 7 C70.546875 7.185625 70.546875 7.185625 72.125 7.375 C75.62116846 7.93889814 78.68397627 8.78682059 82 10 C82 10.66 82 11.32 82 12 C83.3921875 12.4640625 83.3921875 12.4640625 84.8125 12.9375 C86.875 13.625 88.9375 14.3125 91 15 C91 15.66 91 16.32 91 17 C91.969375 17.28875 92.93875 17.5775 93.9375 17.875 C97 19 97 19 98 21 C99.20731771 21.607981 100.44162487 22.1630459 101.6875 22.6875 C105.6975494 24.58850732 107.9540597 26.87929218 110.578125 30.4140625 C112.21799088 32.24314367 113.80172937 32.94693623 116 34 C118.0625 36.375 118.0625 36.375 120 39 C121.60618616 41.16217368 123.09271885 43.09271885 125 45 C126.73894433 47.0867332 127.89033555 48.52021804 128.5 51.1875 C128.665 51.785625 128.83 52.38375 129 53 C129.99 53.33 130.98 53.66 132 54 C133.05008653 55.97416268 134.04987876 57.97582866 135 60 C135.66 60.66 136.32 61.32 137 62 C138.03101947 64.31979381 139.02936517 66.65429915 140 69 C140.50660156 69.95519531 140.50660156 69.95519531 141.0234375 70.9296875 C142.0918554 73.19473345 142.62066103 75.30035359 143.125 77.75 C143.29257813 78.54921875 143.46015625 79.3484375 143.6328125 80.171875 C143.75398437 80.77515625 143.87515625 81.3784375 144 82 C144.66 82 145.32 82 146 82 C147.98 90.415 147.98 90.415 150 99 C150.33 99 150.66 99 151 99 C151.05067793 106.33232678 151.08572428 113.66460844 151.10986328 120.99707031 C151.11992561 123.49187915 151.13357679 125.98667618 151.15087891 128.48144531 C151.17511668 132.06578484 151.18648082 135.64996853 151.1953125 139.234375 C151.20563507 140.35116638 151.21595764 141.46795776 151.22659302 142.61859131 C151.22674408 143.65936829 151.22689514 144.70014526 151.22705078 145.77246094 C151.231492 146.68735291 151.23593323 147.60224487 151.24050903 148.54486084 C150.98305603 151.17296563 150.26799849 152.71129383 149 155 C148.41076456 157.23801349 147.87225083 159.48976895 147.375 161.75 C147.11460937 162.92046875 146.85421875 164.0909375 146.5859375 165.296875 C146.39257812 166.18890625 146.19921875 167.0809375 146 168 C145.34 168 144.68 168 144 168 C143.87882813 168.68707031 143.75765625 169.37414062 143.6328125 170.08203125 C143.38144531 171.43361328 143.38144531 171.43361328 143.125 172.8125 C142.88136719 174.15248047 142.88136719 174.15248047 142.6328125 175.51953125 C142 178 142 178 140 181 C138.98693993 183.26400468 138.0418134 185.55025085 137.09765625 187.84375 C135.97649962 190.04616445 134.78706167 191.32402594 133 193 C131.82425289 195.09989652 131.82425289 195.09989652 131 197 C130.34 197 129.68 197 129 197 C128.566875 198.423125 128.566875 198.423125 128.125 199.875 C126.83667187 203.45368924 125.35832552 204.66053372 122.625 207.25 C119.89654548 209.92907279 119.89654548 209.92907279 117.9375 213.25 C116 216 116 216 113.75 216.875 C113.1725 216.91625 112.595 216.9575 112 217 C112 217.99 112 218.98 112 220 C111.4225 220.2475 110.845 220.495 110.25 220.75 C107.90550694 221.90996305 107.90550694 221.90996305 106.125 223.9375 C103.65273686 226.33704952 101.077356 227.49551484 98 229 C97.67 229.66 97.34 230.32 97 231 C95.02111039 231.72693904 93.02045442 232.39816251 91 233 C91 233.66 91 234.32 91 235 C90.43410156 235.19335938 89.86820313 235.38671875 89.28515625 235.5859375 C88.55167969 235.84632813 87.81820312 236.10671875 87.0625 236.375 C86.33160156 236.63023437 85.60070312 236.88546875 84.84765625 237.1484375 C82.81317884 237.85271413 82.81317884 237.85271413 82 240 C79.8203125 240.8515625 79.8203125 240.8515625 77.125 241.625 C76.24070313 241.88539063 75.35640625 242.14578125 74.4453125 242.4140625 C72 243 72 243 69 243 C69 243.66 69 244.32 69 245 C67.10614563 245.50744423 65.20981334 246.00564574 63.3125 246.5 C61.72888672 246.91765625 61.72888672 246.91765625 60.11328125 247.34375 C57.28857328 247.9391715 54.87163292 248.12786492 52 248 C52 248.66 52 249.32 52 250 C34.84 250 17.68 250 0 250 C0 249.34 0 248.68 0 248 C-0.64066406 247.95101562 -1.28132813 247.90203125 -1.94140625 247.8515625 C-7.21196085 247.3959855 -11.96986288 246.6402621 -17 245 C-17 244.34 -17 243.68 -17 243 C-18.03125 242.87625 -19.0625 242.7525 -20.125 242.625 C-23.62116846 242.06110186 -26.68397627 241.21317941 -30 240 C-30 239.34 -30 238.68 -30 238 C-30.928125 237.690625 -31.85625 237.38125 -32.8125 237.0625 C-34.875 236.375 -36.9375 235.6875 -39 235 C-39 234.34 -39 233.68 -39 233 C-39.969375 232.71125 -40.93875 232.4225 -41.9375 232.125 C-45 231 -45 231 -46 229 C-47.20731771 228.392019 -48.44162487 227.8369541 -49.6875 227.3125 C-53.6975494 225.41149268 -55.9540597 223.12070782 -58.578125 219.5859375 C-60.21799088 217.75685633 -61.80172937 217.05306377 -64 216 C-66.0625 213.625 -66.0625 213.625 -68 211 C-69.60618616 208.83782632 -71.09271885 206.90728115 -73 205 C-74.73894433 202.9132668 -75.89033555 201.47978196 -76.5 198.8125 C-76.665 198.214375 -76.83 197.61625 -77 197 C-77.99 196.67 -78.98 196.34 -80 196 C-81.05008653 194.02583732 -82.04987876 192.02417134 -83 190 C-83.66 189.34 -84.32 188.68 -85 188 C-86.03101947 185.68020619 -87.02936517 183.34570085 -88 181 C-88.33773437 180.36320313 -88.67546875 179.72640625 -89.0234375 179.0703125 C-90.0918554 176.80526655 -90.62066103 174.69964641 -91.125 172.25 C-91.29257813 171.45078125 -91.46015625 170.6515625 -91.6328125 169.828125 C-91.75398438 169.22484375 -91.87515625 168.6215625 -92 168 C-92.66 168 -93.32 168 -94 168 C-95.98 159.585 -95.98 159.585 -98 151 C-98.33 151 -98.66 151 -99 151 C-99.05067793 143.66767322 -99.08572428 136.33539156 -99.10986328 129.00292969 C-99.11992561 126.50812085 -99.13357679 124.01332382 -99.15087891 121.51855469 C-99.17511668 117.93421516 -99.18648082 114.35003147 -99.1953125 110.765625 C-99.20563507 109.64883362 -99.21595764 108.53204224 -99.22659302 107.38140869 C-99.22674408 106.34063171 -99.22689514 105.29985474 -99.22705078 104.22753906 C-99.231492 103.31264709 -99.23593323 102.39775513 -99.24050903 101.45513916 C-98.98305603 98.82703437 -98.26799849 97.28870617 -97 95 C-96.41076456 92.76198651 -95.87225083 90.51023105 -95.375 88.25 C-94.98441406 86.49429688 -94.98441406 86.49429688 -94.5859375 84.703125 C-94.39257812 83.81109375 -94.19921875 82.9190625 -94 82 C-93.34 82 -92.68 82 -92 82 C-91.81824219 80.96939453 -91.81824219 80.96939453 -91.6328125 79.91796875 C-91.46523437 79.01691406 -91.29765625 78.11585937 -91.125 77.1875 C-90.96257812 76.29417969 -90.80015625 75.40085937 -90.6328125 74.48046875 C-90 72 -90 72 -88 69 C-86.98693993 66.73599532 -86.0418134 64.44974915 -85.09765625 62.15625 C-83.97649962 59.95383555 -82.78706167 58.67597406 -81 57 C-79.82425289 54.90010348 -79.82425289 54.90010348 -79 53 C-78.34 53 -77.68 53 -77 53 C-76.71125 52.05125 -76.4225 51.1025 -76.125 50.125 C-74.83667187 46.54631076 -73.35832552 45.33946628 -70.625 42.75 C-67.89654548 40.07092721 -67.89654548 40.07092721 -65.9375 36.75 C-64 34 -64 34 -61.75 33.125 C-61.1725 33.08375 -60.595 33.0425 -60 33 C-60 32.01 -60 31.02 -60 30 C-59.4225 29.7525 -58.845 29.505 -58.25 29.25 C-55.90550694 28.09003695 -55.90550694 28.09003695 -54.125 26.0625 C-51.65273686 23.66295048 -49.077356 22.50448516 -46 21 C-45.67 20.34 -45.34 19.68 -45 19 C-43.02111039 18.27306096 -41.02045442 17.60183749 -39 17 C-39 16.34 -39 15.68 -39 15 C-38.43410156 14.80664062 -37.86820313 14.61328125 -37.28515625 14.4140625 C-36.55167969 14.15367188 -35.81820312 13.89328125 -35.0625 13.625 C-34.33160156 13.36976562 -33.60070312 13.11453125 -32.84765625 12.8515625 C-30.81317884 12.14728587 -30.81317884 12.14728587 -30 10 C-27.8203125 9.1484375 -27.8203125 9.1484375 -25.125 8.375 C-24.24070312 8.11460938 -23.35640625 7.85421875 -22.4453125 7.5859375 C-20 7 -20 7 -17 7 C-17 6.34 -17 5.68 -17 5 C-15.10614563 4.49255577 -13.20981334 3.99435426 -11.3125 3.5 C-9.72888672 3.08234375 -9.72888672 3.08234375 -8.11328125 2.65625 C-5.28857328 2.0608285 -2.87163292 1.87213508 0 2 C0 1.34 0 0.68 0 0 Z " fill="#FEFEFE" transform="translate(99,0)"/>
<path d="M0 0 C1.29349365 0.00523682 2.5869873 0.01047363 3.91967773 0.01586914 C4.9496714 0.01799156 4.9496714 0.01799156 6.00047302 0.02015686 C8.20144949 0.0257706 10.40232557 0.03832532 12.60327148 0.05102539 C14.09220231 0.05603863 15.58113473 0.06060184 17.07006836 0.06469727 C20.72700223 0.07574446 24.38387707 0.09301826 28.04077148 0.11352539 C28.04077148 3.74352539 28.04077148 7.37352539 28.04077148 11.11352539 C31.67077148 11.11352539 35.30077148 11.11352539 39.04077148 11.11352539 C39.04077148 14.08352539 39.04077148 17.05352539 39.04077148 20.11352539 C42.34077148 20.11352539 45.64077148 20.11352539 49.04077148 20.11352539 C49.04077148 23.74352539 49.04077148 27.37352539 49.04077148 31.11352539 C55.64077148 31.11352539 62.24077148 31.11352539 69.04077148 31.11352539 C69.04077148 27.81352539 69.04077148 24.51352539 69.04077148 21.11352539 C72.67077148 21.11352539 76.30077148 21.11352539 80.04077148 21.11352539 C80.04077148 17.81352539 80.04077148 14.51352539 80.04077148 11.11352539 C83.34077148 11.11352539 86.64077148 11.11352539 90.04077148 11.11352539 C90.04077148 7.48352539 90.04077148 3.85352539 90.04077148 0.11352539 C100.27077148 0.11352539 110.50077148 0.11352539 121.04077148 0.11352539 C121.04077148 27.83352539 121.04077148 55.55352539 121.04077148 84.11352539 C117.74077148 84.11352539 114.44077148 84.11352539 111.04077148 84.11352539 C111.04077148 80.81352539 111.04077148 77.51352539 111.04077148 74.11352539 C107.74077148 74.11352539 104.44077148 74.11352539 101.04077148 74.11352539 C101.04077148 77.41352539 101.04077148 80.71352539 101.04077148 84.11352539 C97.74077148 84.11352539 94.44077148 84.11352539 91.04077148 84.11352539 C91.04077148 77.18352539 91.04077148 70.25352539 91.04077148 63.11352539 C87.41077148 63.11352539 83.78077148 63.11352539 80.04077148 63.11352539 C80.04077148 66.74352539 80.04077148 70.37352539 80.04077148 74.11352539 C76.74077148 74.11352539 73.44077148 74.11352539 70.04077148 74.11352539 C70.04077148 77.41352539 70.04077148 80.71352539 70.04077148 84.11352539 C62.78077148 84.11352539 55.52077148 84.11352539 48.04077148 84.11352539 C48.04077148 80.81352539 48.04077148 77.51352539 48.04077148 74.11352539 C44.74077148 74.11352539 41.44077148 74.11352539 38.04077148 74.11352539 C38.04077148 70.48352539 38.04077148 66.85352539 38.04077148 63.11352539 C34.74077148 63.11352539 31.44077148 63.11352539 28.04077148 63.11352539 C28.04077148 76.97352539 28.04077148 90.83352539 28.04077148 105.11352539 C24.41077148 105.11352539 20.78077148 105.11352539 17.04077148 105.11352539 C17.04077148 101.48352539 17.04077148 97.85352539 17.04077148 94.11352539 C13.74077148 94.11352539 10.44077148 94.11352539 7.04077148 94.11352539 C7.04077148 97.74352539 7.04077148 101.37352539 7.04077148 105.11352539 C3.74077148 105.11352539 0.44077148 105.11352539 -2.95922852 105.11352539 C-3.71618116 91.37831476 -4.11039 77.69671556 -4.09204102 63.94165039 C-4.09271725 62.11317939 -4.09368992 60.28470849 -4.09494019 58.45623779 C-4.09639467 54.67841715 -4.09433142 50.90062054 -4.08959961 47.12280273 C-4.08382089 42.27290632 -4.08724591 37.42306427 -4.09317207 32.57316971 C-4.09676951 28.82270896 -4.09564431 25.07226135 -4.09304428 21.32180023 C-4.09237695 19.53074894 -4.0931967 17.73969645 -4.09552383 15.94864655 C-4.09804562 13.47004461 -4.09422036 10.99153448 -4.08862305 8.51293945 C-4.09064728 7.77341537 -4.09267151 7.0338913 -4.09475708 6.2719574 C-4.06899428 0.15609952 -4.06899428 0.15609952 0 0 Z " fill="#A578FF" transform="translate(65.959228515625,61.886474609375)"/>
<path d="M0 0 C17.16 0 34.32 0 52 0 C52 0.66 52 1.32 52 2 C52.96099609 2.07347656 52.96099609 2.07347656 53.94140625 2.1484375 C59.21196085 2.6040145 63.96986288 3.3597379 69 5 C69 5.66 69 6.32 69 7 C70.546875 7.185625 70.546875 7.185625 72.125 7.375 C75.62116846 7.93889814 78.68397627 8.78682059 82 10 C82 10.66 82 11.32 82 12 C83.3921875 12.4640625 83.3921875 12.4640625 84.8125 12.9375 C86.875 13.625 88.9375 14.3125 91 15 C91 15.66 91 16.32 91 17 C91.969375 17.28875 92.93875 17.5775 93.9375 17.875 C97 19 97 19 98 21 C99.20731771 21.607981 100.44162487 22.1630459 101.6875 22.6875 C105.6975494 24.58850732 107.9540597 26.87929218 110.578125 30.4140625 C112.21799088 32.24314367 113.80172937 32.94693623 116 34 C118.0625 36.375 118.0625 36.375 120 39 C121.60618616 41.16217368 123.09271885 43.09271885 125 45 C126.73894433 47.0867332 127.89033555 48.52021804 128.5 51.1875 C128.665 51.785625 128.83 52.38375 129 53 C129.99 53.33 130.98 53.66 132 54 C133.05008653 55.97416268 134.04987876 57.97582866 135 60 C135.66 60.66 136.32 61.32 137 62 C138.03101947 64.31979381 139.02936517 66.65429915 140 69 C140.50660156 69.95519531 140.50660156 69.95519531 141.0234375 70.9296875 C142.0918554 73.19473345 142.62066103 75.30035359 143.125 77.75 C143.29257813 78.54921875 143.46015625 79.3484375 143.6328125 80.171875 C143.75398437 80.77515625 143.87515625 81.3784375 144 82 C144.66 82 145.32 82 146 82 C147.98 90.415 147.98 90.415 150 99 C150.33 99 150.66 99 151 99 C151.05067793 106.33232678 151.08572428 113.66460844 151.10986328 120.99707031 C151.11992561 123.49187915 151.13357679 125.98667618 151.15087891 128.48144531 C151.17511668 132.06578484 151.18648082 135.64996853 151.1953125 139.234375 C151.20563507 140.35116638 151.21595764 141.46795776 151.22659302 142.61859131 C151.22674408 143.65936829 151.22689514 144.70014526 151.22705078 145.77246094 C151.231492 146.68735291 151.23593323 147.60224487 151.24050903 148.54486084 C150.98305603 151.17296563 150.26799849 152.71129383 149 155 C148.41076456 157.23801349 147.87225083 159.48976895 147.375 161.75 C147.11460937 162.92046875 146.85421875 164.0909375 146.5859375 165.296875 C146.39257812 166.18890625 146.19921875 167.0809375 146 168 C145.34 168 144.68 168 144 168 C143.87882813 168.68707031 143.75765625 169.37414062 143.6328125 170.08203125 C143.38144531 171.43361328 143.38144531 171.43361328 143.125 172.8125 C142.88136719 174.15248047 142.88136719 174.15248047 142.6328125 175.51953125 C142 178 142 178 140 181 C138.98693993 183.26400468 138.0418134 185.55025085 137.09765625 187.84375 C135.97649962 190.04616445 134.78706167 191.32402594 133 193 C131.82425289 195.09989652 131.82425289 195.09989652 131 197 C130.34 197 129.68 197 129 197 C128.566875 198.423125 128.566875 198.423125 128.125 199.875 C126.83667187 203.45368924 125.35832552 204.66053372 122.625 207.25 C119.89654548 209.92907279 119.89654548 209.92907279 117.9375 213.25 C116 216 116 216 113.75 216.875 C113.1725 216.91625 112.595 216.9575 112 217 C112 217.99 112 218.98 112 220 C111.4225 220.2475 110.845 220.495 110.25 220.75 C107.90550694 221.90996305 107.90550694 221.90996305 106.125 223.9375 C103.65273686 226.33704952 101.077356 227.49551484 98 229 C97.67 229.66 97.34 230.32 97 231 C95.02111039 231.72693904 93.02045442 232.39816251 91 233 C91 233.66 91 234.32 91 235 C90.43410156 235.19335938 89.86820313 235.38671875 89.28515625 235.5859375 C88.55167969 235.84632813 87.81820312 236.10671875 87.0625 236.375 C86.33160156 236.63023437 85.60070312 236.88546875 84.84765625 237.1484375 C82.81317884 237.85271413 82.81317884 237.85271413 82 240 C79.8203125 240.8515625 79.8203125 240.8515625 77.125 241.625 C76.24070313 241.88539063 75.35640625 242.14578125 74.4453125 242.4140625 C72 243 72 243 69 243 C69 243.66 69 244.32 69 245 C67.10614563 245.50744423 65.20981334 246.00564574 63.3125 246.5 C61.72888672 246.91765625 61.72888672 246.91765625 60.11328125 247.34375 C57.28857328 247.9391715 54.87163292 248.12786492 52 248 C52 248.66 52 249.32 52 250 C34.84 250 17.68 250 0 250 C0 249.34 0 248.68 0 248 C-0.64066406 247.95101562 -1.28132813 247.90203125 -1.94140625 247.8515625 C-7.21196085 247.3959855 -11.96986288 246.6402621 -17 245 C-17 244.34 -17 243.68 -17 243 C-18.03125 242.87625 -19.0625 242.7525 -20.125 242.625 C-23.62116846 242.06110186 -26.68397627 241.21317941 -30 240 C-30 239.34 -30 238.68 -30 238 C-30.928125 237.690625 -31.85625 237.38125 -32.8125 237.0625 C-34.875 236.375 -36.9375 235.6875 -39 235 C-39 234.34 -39 233.68 -39 233 C-39.969375 232.71125 -40.93875 232.4225 -41.9375 232.125 C-45 231 -45 231 -46 229 C-47.20731771 228.392019 -48.44162487 227.8369541 -49.6875 227.3125 C-53.6975494 225.41149268 -55.9540597 223.12070782 -58.578125 219.5859375 C-60.21799088 217.75685633 -61.80172937 217.05306377 -64 216 C-66.0625 213.625 -66.0625 213.625 -68 211 C-69.60618616 208.83782632 -71.09271885 206.90728115 -73 205 C-74.73894433 202.9132668 -75.89033555 201.47978196 -76.5 198.8125 C-76.665 198.214375 -76.83 197.61625 -77 197 C-77.99 196.67 -78.98 196.34 -80 196 C-81.05008653 194.02583732 -82.04987876 192.02417134 -83 190 C-83.66 189.34 -84.32 188.68 -85 188 C-86.03101947 185.68020619 -87.02936517 183.34570085 -88 181 C-88.33773437 180.36320313 -88.67546875 179.72640625 -89.0234375 179.0703125 C-90.0918554 176.80526655 -90.62066103 174.69964641 -91.125 172.25 C-91.29257813 171.45078125 -91.46015625 170.6515625 -91.6328125 169.828125 C-91.75398438 169.22484375 -91.87515625 168.6215625 -92 168 C-92.66 168 -93.32 168 -94 168 C-95.98 159.585 -95.98 159.585 -98 151 C-98.33 151 -98.66 151 -99 151 C-99.05067793 143.66767322 -99.08572428 136.33539156 -99.10986328 129.00292969 C-99.11992561 126.50812085 -99.13357679 124.01332382 -99.15087891 121.51855469 C-99.17511668 117.93421516 -99.18648082 114.35003147 -99.1953125 110.765625 C-99.20563507 109.64883362 -99.21595764 108.53204224 -99.22659302 107.38140869 C-99.22674408 106.34063171 -99.22689514 105.29985474 -99.22705078 104.22753906 C-99.231492 103.31264709 -99.23593323 102.39775513 -99.24050903 101.45513916 C-98.98305603 98.82703437 -98.26799849 97.28870617 -97 95 C-96.41076456 92.76198651 -95.87225083 90.51023105 -95.375 88.25 C-94.98441406 86.49429688 -94.98441406 86.49429688 -94.5859375 84.703125 C-94.39257812 83.81109375 -94.19921875 82.9190625 -94 82 C-93.34 82 -92.68 82 -92 82 C-91.81824219 80.96939453 -91.81824219 80.96939453 -91.6328125 79.91796875 C-91.46523437 79.01691406 -91.29765625 78.11585937 -91.125 77.1875 C-90.96257812 76.29417969 -90.80015625 75.40085937 -90.6328125 74.48046875 C-90 72 -90 72 -88 69 C-86.98693993 66.73599532 -86.0418134 64.44974915 -85.09765625 62.15625 C-83.97649962 59.95383555 -82.78706167 58.67597406 -81 57 C-79.82425289 54.90010348 -79.82425289 54.90010348 -79 53 C-78.34 53 -77.68 53 -77 53 C-76.71125 52.05125 -76.4225 51.1025 -76.125 50.125 C-74.83667187 46.54631076 -73.35832552 45.33946628 -70.625 42.75 C-67.89654548 40.07092721 -67.89654548 40.07092721 -65.9375 36.75 C-64 34 -64 34 -61.75 33.125 C-61.1725 33.08375 -60.595 33.0425 -60 33 C-60 32.01 -60 31.02 -60 30 C-59.4225 29.7525 -58.845 29.505 -58.25 29.25 C-55.90550694 28.09003695 -55.90550694 28.09003695 -54.125 26.0625 C-51.65273686 23.66295048 -49.077356 22.50448516 -46 21 C-45.67 20.34 -45.34 19.68 -45 19 C-43.02111039 18.27306096 -41.02045442 17.60183749 -39 17 C-39 16.34 -39 15.68 -39 15 C-38.43410156 14.80664062 -37.86820313 14.61328125 -37.28515625 14.4140625 C-36.55167969 14.15367188 -35.81820312 13.89328125 -35.0625 13.625 C-34.33160156 13.36976562 -33.60070312 13.11453125 -32.84765625 12.8515625 C-30.81317884 12.14728587 -30.81317884 12.14728587 -30 10 C-27.8203125 9.1484375 -27.8203125 9.1484375 -25.125 8.375 C-24.24070312 8.11460938 -23.35640625 7.85421875 -22.4453125 7.5859375 C-20 7 -20 7 -17 7 C-17 6.34 -17 5.68 -17 5 C-15.10614563 4.49255577 -13.20981334 3.99435426 -11.3125 3.5 C-9.72888672 3.08234375 -9.72888672 3.08234375 -8.11328125 2.65625 C-5.28857328 2.0608285 -2.87163292 1.87213508 0 2 C0 1.34 0 0.68 0 0 Z M-1.6875 4.75 C-2.91291504 4.98529419 -2.91291504 4.98529419 -4.16308594 5.2253418 C-9.80590248 6.44834309 -14.7967254 8.53586588 -20 11 C-21.134375 11.474375 -22.26875 11.94875 -23.4375 12.4375 C-32.48512361 16.40575597 -41.16874564 20.90453913 -49 27 C-49 27.66 -49 28.32 -49 29 C-49.69738281 29.21011719 -50.39476562 29.42023437 -51.11328125 29.63671875 C-54.81814988 31.38637931 -57.36534533 33.91775514 -60.1875 36.8125 C-60.75267334 37.38637451 -61.31784668 37.96024902 -61.90014648 38.55151367 C-74.72612512 51.17648047 -74.72612512 51.17648047 -81 67 C-81.66 67 -82.32 67 -83 67 C-87.67059744 76.23221428 -90.60109246 84.9755796 -93 95 C-93.39479523 96.45861471 -93.79039411 97.91701267 -94.1875 99.375 C-96.13744516 108.07475532 -96.19345868 116.74775697 -96.1875 125.625 C-96.18669434 126.86523926 -96.18588867 128.10547852 -96.18505859 129.38330078 C-96.11242474 140.25131904 -95.67017954 150.66798198 -92 161 C-91.34 161 -90.68 161 -90 161 C-89.938125 161.9075 -89.87625 162.815 -89.8125 163.75 C-88.39760435 173.49705892 -82.82174564 182.5826571 -78 191 C-77.34 191 -76.68 191 -76 191 C-75.566875 192.11375 -75.566875 192.11375 -75.125 193.25 C-74.75375 194.1575 -74.3825 195.065 -74 196 C-73.731875 196.66 -73.46375 197.32 -73.1875 198 C-71.5368189 200.78009448 -69.30948608 202.7442229 -67 205 C-65.33333333 207 -63.66666667 209 -62 211 C-53.53654264 219.92094154 -43.96466804 228.40358219 -32 232 C-32 232.66 -32 233.32 -32 234 C-21.71190551 239.55442578 -11.31280848 242.12366094 0.05151367 244.52270508 C2 245 2 245 4 246 C28.26936978 249.13527744 56.52228597 249.05508108 78 236 C79.5778125 235.38125 79.5778125 235.38125 81.1875 234.75 C92.58850893 230.02088195 103.57241354 220.90916283 112 212 C112.804375 211.21625 113.60875 210.4325 114.4375 209.625 C125.95159082 197.83007769 142 178.17097054 142 161 C142.66 161 143.32 161 144 161 C148.81644313 135.43347169 151.40704638 108.85823368 142 84 C141.70222656 83.11957031 141.40445313 82.23914063 141.09765625 81.33203125 C137.15411453 69.84983147 130.70491608 60.05737412 124 50 C123.34 50 122.68 50 122 50 C121.814375 49.29875 121.62875 48.5975 121.4375 47.875 C119.72221205 44.4444241 117.6734927 42.84354042 114.7265625 40.47265625 C113 39 113 39 111 36.4375 C108.8090385 33.76726567 106.5409427 32.10735173 103.68359375 30.2109375 C102 29 102 29 100.453125 27.42578125 C98.53819997 25.54688976 96.50553762 24.88032403 94 24 C94 23.34 94 22.68 94 22 C78.81345793 12.83660576 78.81345793 12.83660576 62 9 C62 8.34 62 7.68 62 7 C59.6884626 6.51576489 57.37592629 6.03755888 55.0625 5.5625 C53.13083984 5.16224609 53.13083984 5.16224609 51.16015625 4.75390625 C34.06234212 1.51038009 15.37601594 1.4713182 -1.6875 4.75 Z " fill="#9560FF" transform="translate(99,0)"/>
<path d="M0 0 C10.23 0 20.46 0 31 0 C31 3.63 31 7.26 31 11 C34.3 11 37.6 11 41 11 C41 14.63 41 18.26 41 22 C44.3 22 47.6 22 51 22 C51 25.3 51 28.6 51 32 C47.7 32 44.4 32 41 32 C41 35.3 41 38.6 41 42 C37.7 42 34.4 42 31 42 C31 38.7 31 35.4 31 32 C27.37 32 23.74 32 20 32 C20 35.3 20 38.6 20 42 C13.4 42 6.8 42 0 42 C0 28.14 0 14.28 0 0 Z " fill="#8E57FD" transform="translate(63,62)"/>
<path d="M0 0 C0.33 0 0.66 0 1 0 C1 40.92 1 81.84 1 124 C-9.56 124 -20.12 124 -31 124 C-31 103.54 -31 83.08 -31 62 C-30.67 62 -30.34 62 -30 62 C-30 68.93 -30 75.86 -30 83 C-26.7 83 -23.4 83 -20 83 C-20 79.7 -20 76.4 -20 73 C-16.7 73 -13.4 73 -10 73 C-10 76.3 -10 79.6 -10 83 C-6.7 83 -3.4 83 0 83 C0 55.61 0 28.22 0 0 Z " fill="#E8DDFF" transform="translate(187,63)"/>
<path d="M0 0 C10.23 0 20.46 0 31 0 C31 13.86 31 27.72 31 42 C27.7 42 24.4 42 21 42 C21 38.7 21 35.4 21 32 C14.07 32 7.14 32 0 32 C0 35.3 0 38.6 0 42 C-3.3 42 -6.6 42 -10 42 C-10 38.7 -10 35.4 -10 32 C-13.3 32 -16.6 32 -20 32 C-20 28.7 -20 25.4 -20 22 C-16.7 22 -13.4 22 -10 22 C-10 18.37 -10 14.74 -10 11 C-6.7 11 -3.4 11 0 11 C0 7.37 0 3.74 0 0 Z " fill="#8E57FD" transform="translate(156,62)"/>
<path d="M0 0 C0.33 0 0.66 0 1 0 C1 16.83 1 33.66 1 51 C4.3 51 7.6 51 11 51 C11 54.63 11 58.26 11 62 C17.93 62 24.86 62 32 62 C32 75.86 32 89.72 32 104 C28.37 104 24.74 104 21 104 C21 100.37 21 96.74 21 93 C17.7 93 14.4 93 11 93 C11 96.63 11 100.26 11 104 C7.7 104 4.4 104 1 104 C0.23767432 90.25107201 -0.1401602 76.56174792 -0.09765625 62.79296875 C-0.09578325 60.96210265 -0.09436354 59.13123605 -0.09336853 57.30036926 C-0.08961259 52.56103039 -0.07984458 47.82172385 -0.06866455 43.08239746 C-0.05829846 38.21444129 -0.0538389 33.34647973 -0.04882812 28.47851562 C-0.03821351 18.98566314 -0.02122428 9.49283429 0 0 Z " fill="#BD9CFE" transform="translate(62,63)"/>
<path d="M0 0 C3.3 0 6.6 0 10 0 C10 3.3 10 6.6 10 10 C16.93 10 23.86 10 31 10 C31 13.63 31 17.26 31 21 C27.7 21 24.4 21 21 21 C21 24.3 21 27.6 21 31 C13.74 31 6.48 31 -1 31 C-1 27.7 -1 24.4 -1 21 C-4.3 21 -7.6 21 -11 21 C-11 17.37 -11 13.74 -11 10 C-7.37 10 -3.74 10 0 10 C0 6.7 0 3.4 0 0 Z " fill="#BE9DFF" transform="translate(115,115)"/>
<path d="M0 0 C0.33 0 0.66 0 1 0 C1 6.93 1 13.86 1 21 C4.3 21 7.6 21 11 21 C11 17.37 11 13.74 11 10 C14.3 10 17.6 10 21 10 C21 13.63 21 17.26 21 21 C24.63 21 28.26 21 32 21 C32 27.6 32 34.2 32 41 C21.44 41 10.88 41 0 41 C0 27.47 0 13.94 0 0 Z " fill="#E8DDFF" transform="translate(62,146)"/>
<path d="M0 0 C0.33 0 0.66 0 1 0 C1 13.86 1 27.72 1 42 C-2.63 42 -6.26 42 -10 42 C-10 38.37 -10 34.74 -10 31 C-13.3 31 -16.6 31 -20 31 C-20 34.63 -20 38.26 -20 42 C-23.3 42 -26.6 42 -30 42 C-30 35.07 -30 28.14 -30 21 C-23.07 21 -16.14 21 -9 21 C-9 17.7 -9 14.4 -9 11 C-6.03 11 -3.06 11 0 11 C0 7.37 0 3.74 0 0 Z " fill="#D2BCFF" transform="translate(93,125)"/>
<path d="M0 0 C0.33 0 0.66 0 1 0 C1 30.69 1 61.38 1 93 C-2.63 93 -6.26 93 -10 93 C-10 96.63 -10 100.26 -10 104 C-13.3 104 -16.6 104 -20 104 C-20 100.37 -20 96.74 -20 93 C-23.63 93 -27.26 93 -31 93 C-31 82.77 -31 72.54 -31 62 C-30.67 62 -30.34 62 -30 62 C-30 68.93 -30 75.86 -30 83 C-26.7 83 -23.4 83 -20 83 C-20 79.7 -20 76.4 -20 73 C-16.7 73 -13.4 73 -10 73 C-10 76.3 -10 79.6 -10 83 C-6.7 83 -3.4 83 0 83 C0 55.61 0 28.22 0 0 Z " fill="#D1BAFE" transform="translate(187,63)"/>
<path d="M0 0 C3.3 0 6.6 0 10 0 C10 3.3 10 6.6 10 10 C13.3 10 16.6 10 20 10 C20 16.93 20 23.86 20 31 C16.7 31 13.4 31 10 31 C10 27.7 10 24.4 10 21 C6.7 21 3.4 21 0 21 C0 24.3 0 27.6 0 31 C-3.3 31 -6.6 31 -10 31 C-10 24.07 -10 17.14 -10 10 C-6.7 10 -3.4 10 0 10 C0 6.7 0 3.4 0 0 Z " fill="#BB99FF" transform="translate(167,115)"/>
<path d="M0 0 C9.9 0 19.8 0 30 0 C30 6.6 30 13.2 30 20 C23.4 20 16.8 20 10 20 C10 16.7 10 13.4 10 10 C6.7 10 3.4 10 0 10 C0 6.7 0 3.4 0 0 Z " fill="#692CE0" transform="translate(63,63)"/>
<path d="M0 0 C9.9 0 19.8 0 30 0 C30 6.6 30 13.2 30 20 C26.7 20 23.4 20 20 20 C20 16.7 20 13.4 20 10 C16.37 10 12.74 10 9 10 C9 13.3 9 16.6 9 20 C6.03 20 3.06 20 0 20 C0 13.4 0 6.8 0 0 Z " fill="#692CE0" transform="translate(157,63)"/>
<path d="M0 0 C6.6 0 13.2 0 20 0 C20 3.3 20 6.6 20 10 C13.4 10 6.8 10 0 10 C0 6.7 0 3.4 0 0 Z " fill="#8E55FF" transform="translate(115,94)"/>
<path d="M0 0 C3.3 0 6.6 0 10 0 C10 3.3 10 6.6 10 10 C6.7 10 3.4 10 0 10 C0 6.7 0 3.4 0 0 Z " fill="#BA98FF" transform="translate(146,115)"/>
<path d="M0 0 C3.3 0 6.6 0 10 0 C10 3.3 10 6.6 10 10 C6.7 10 3.4 10 0 10 C0 6.7 0 3.4 0 0 Z " fill="#BA98FF" transform="translate(94,115)"/>
<path d="M0 0 C-1.32120828 2.93230193 -2.74638197 4.98664899 -5.0390625 7.234375 C-5.90917969 8.09482422 -5.90917969 8.09482422 -6.796875 8.97265625 C-7.40015625 9.55917969 -8.0034375 10.14570312 -8.625 10.75 C-9.23601563 11.35199219 -9.84703125 11.95398438 -10.4765625 12.57421875 C-11.97988624 14.05405305 -13.48934856 15.52764676 -15 17 C-15.66 16.67 -16.32 16.34 -17 16 C-2.77075099 0 -2.77075099 0 0 0 Z " fill="#E8DDFF" transform="translate(47,31)"/>
</svg>
