<svg width="150" height="150" viewBox="0 0 150 150" fill="none" xmlns="http://www.w3.org/2000/svg">
<g clip-path="url(#clip0_3684_8558)">
<path d="M0.5 75.136C0.5 33.9908 33.8548 0.635986 75 0.635986V0.635986C116.145 0.635986 149.5 33.9908 149.5 75.136V75.136C149.5 116.281 116.145 149.636 75 149.636V149.636C33.8548 149.636 0.5 116.281 0.5 75.136V75.136Z" fill="url(#paint0_linear_3684_8558)"/>
<path opacity="0.8" d="M56.6669 38.899V51.706C56.6669 52.4943 57.3456 52.8216 57.5568 52.896C57.7679 52.9853 58.4768 53.1787 59.1103 52.5986L68.9661 43.2877C69.8054 42.4951 70.6154 41.6617 71.2242 40.6865C71.5107 40.2282 71.6294 39.9699 71.6294 39.9699C72.2328 38.765 72.2328 37.6049 71.6443 36.4446C70.7699 34.7192 68.5374 32.964 65.1737 31.298L59.4271 34.4514C57.7227 35.4034 56.6669 37.0842 56.6669 38.899Z" fill="white"/>
<path d="M51 10.4141V23.8459C51 25.5267 52.1463 27.0142 53.7753 27.4901C59.326 29.0669 68.9943 32.4582 71.3322 37.4412C71.6336 38.0957 71.8147 38.7355 71.8754 39.4047C73.4289 36.6233 74.1379 33.4251 73.806 30.1824C73.3533 25.5862 70.8795 21.4064 67.0184 18.7439L53.2474 9.26872C53.0061 9.09023 52.7195 9.00098 52.4329 9.00098C52.1916 9.00098 51.9804 9.0456 51.7542 9.1646C51.3016 9.41747 51 9.87859 51 10.4141Z" fill="white"/>
<path opacity="0.8" d="M93.324 38.899V51.706C93.324 52.4943 92.6455 52.8216 92.434 52.896C92.2232 52.9853 91.5137 53.1787 90.8806 52.5986L80.7952 43.0713C80.1089 42.4227 79.4533 41.7367 78.9362 40.9507C78.5266 40.3285 78.3614 39.9699 78.3614 39.9699C77.7581 38.765 77.7581 37.6049 78.346 36.4446C79.221 34.7192 81.4536 32.964 84.8169 31.298L90.5637 34.4514C92.2834 35.4034 93.324 37.0842 93.324 38.899Z" fill="white"/>
<path d="M99 10.4131V23.8449C99 25.5257 97.8533 27.0132 96.2243 27.4892C90.6739 29.0659 81.0057 32.4572 78.6677 37.4402C78.3658 38.0947 78.1848 38.7345 78.1246 39.4037C76.571 36.6223 75.8622 33.4241 76.1941 30.1815C76.6462 25.5852 79.12 21.4055 82.9816 18.7429L96.7527 9.26774C96.9939 9.08925 97.2804 9 97.5669 9C97.8081 9 98.0196 9.04463 98.2454 9.16362C98.6982 9.41649 99 9.87761 99 10.4131Z" fill="white"/>
<path d="M47.0992 96.2314L21.2996 107.622C18.925 108.67 17.8571 111.429 18.9143 113.783L18.9147 113.784C19.972 116.139 22.754 117.198 25.1287 116.149L50.9282 104.759C53.3028 103.711 54.3708 100.952 53.3135 98.5975L53.3131 98.5966C52.2559 96.242 49.4738 95.183 47.0992 96.2314Z" fill="white"/>
<path opacity="0.8" d="M39.943 114.717L22.7428 122.311C20.3681 123.359 19.3002 126.118 20.3574 128.473L20.3578 128.474C21.4151 130.828 24.1972 131.887 26.5718 130.839L43.7721 123.245C46.1467 122.197 47.2146 119.438 46.1574 117.084L46.157 117.083C45.0997 114.728 42.3177 113.669 39.943 114.717Z" fill="white"/>
<path opacity="0.4" d="M58.5848 121.814L32.7852 133.204C30.4106 134.252 29.3427 137.011 30.3999 139.365L30.4003 139.366C31.4576 141.721 34.2396 142.78 36.6143 141.732L62.4138 130.341C64.7884 129.293 65.8564 126.534 64.7991 124.18L64.7987 124.179C63.7415 121.824 60.9594 120.765 58.5848 121.814Z" fill="white"/>
<g clip-path="url(#clip1_3684_8558)">
<path d="M103.231 122.049V96.8336L103.221 96.8179C104.012 96.3383 104.834 95.9157 105.683 95.5546L105.692 95.5774V122.052C110.693 122.639 114.636 126.646 115.207 131.722C115.289 132.437 115.3 133.158 115.243 133.875C114.607 133.937 113.961 133.969 113.309 133.97C106.473 133.97 100.45 130.436 96.9199 125.068C98.6317 123.384 100.847 122.322 103.217 122.051H103.231V122.049Z" fill="white"/>
<path opacity="0.7" fill-rule="evenodd" clip-rule="evenodd" d="M113.309 94C124.184 94 133 102.948 133 113.985C133 124.36 125.211 132.888 115.244 133.875C115.302 133.158 115.289 132.437 115.209 131.722C114.636 126.646 110.694 122.639 105.694 122.052V95.5774L105.684 95.5546C108.029 94.5539 110.605 94 113.309 94ZM115.244 133.875C114.833 138.999 110.903 143.285 105.68 143.892C99.7371 144.581 94.3684 140.251 93.6891 134.22C93.291 130.691 94.5864 127.361 96.9212 125.068C100.452 130.436 106.474 133.97 113.31 133.97C113.963 133.969 114.607 133.938 115.244 133.875ZM103.231 122.049V96.8336L103.222 96.8179C97.4698 100.307 93.6187 106.691 93.6187 113.985C93.6187 118.085 94.834 121.895 96.9198 125.067C98.633 123.381 100.847 122.32 103.217 122.049H103.231Z" fill="white"/>
</g>
<circle cx="75" cy="75.136" r="72.7002" stroke="url(#paint1_linear_3684_8558)" stroke-width="9"/>
<circle cx="75" cy="75" r="73.5" stroke="url(#paint2_linear_3684_8558)" stroke-width="2"/>
<path d="M37.6894 90.3614H32.3264V59.9104H37.6894L46.8701 74.6359L55.9145 59.9104H61.0957V90.3614H55.9145V70.0001L46.8701 84.453L37.6894 70.3637V90.3614Z" fill="white"/>
<path d="M67.8677 72.5907V90.3614H90.3196V85.3165H73.1852V78.181H85.8656V72.5907H67.8677Z" fill="white"/>
<path d="M87.8124 59.9104H94.1211L102.638 82.269L111.33 59.9104H117.674L106.318 90.3614H99.2031L87.8124 59.9104Z" fill="white"/>
<path d="M67.8676 65.2034V59.9104H81.2601V65.2034H67.8676Z" fill="white"/>
<path fill-rule="evenodd" clip-rule="evenodd" d="M43.6462 24.3282C26.6373 34.8469 15.3049 53.6681 15.3049 75.136C15.3049 83.7336 17.1225 91.9066 20.3943 99.2918L24.9776 97.2901C21.9738 90.5178 20.3049 83.0218 20.3049 75.136C20.3049 56.593 29.5325 40.2052 43.6462 30.3141V24.3282ZM106.354 30.3142V24.3283C123.363 34.847 134.695 53.6681 134.695 75.136C134.695 82.0239 133.529 88.6392 131.382 94.7953L127.313 91.1509C128.862 86.0858 129.695 80.7082 129.695 75.136C129.695 56.5931 120.468 40.2053 106.354 30.3142ZM89.3629 127.926C84.7859 129.168 79.9704 129.831 75 129.831C74.8519 129.831 74.704 129.831 74.5562 129.829L66.0276 134.161C68.9542 134.602 71.9504 134.831 75 134.831C79.5011 134.831 83.8859 134.333 88.1022 133.389L89.3629 127.926Z" fill="white"/>
</g>
<defs>
<linearGradient id="paint0_linear_3684_8558" x1="75" y1="-42.4148" x2="75" y2="131.087" gradientUnits="userSpaceOnUse">
<stop stop-color="#0E223C"/>
<stop offset="1" stop-color="#7FAAE1"/>
</linearGradient>
<linearGradient id="paint1_linear_3684_8558" x1="75" y1="166.836" x2="75" y2="-2.06421" gradientUnits="userSpaceOnUse">
<stop stop-color="#0D243D"/>
<stop offset="1" stop-color="#779EC9"/>
</linearGradient>
<linearGradient id="paint2_linear_3684_8558" x1="75" y1="0.5" x2="75" y2="166.896" gradientUnits="userSpaceOnUse">
<stop stop-color="#3E5B81"/>
<stop offset="0.4" stop-color="#7FAAE1"/>
</linearGradient>
<clipPath id="clip0_3684_8558">
<path d="M0.5 75.136C0.5 33.9908 33.8548 0.635986 75 0.635986V0.635986C116.145 0.635986 149.5 33.9908 149.5 75.136V75.136C149.5 116.281 116.145 149.636 75 149.636V149.636C33.8548 149.636 0.5 116.281 0.5 75.136V75.136Z" fill="white"/>
</clipPath>
<clipPath id="clip1_3684_8558">
<rect width="39.3825" height="49.9629" fill="white" transform="translate(93.6174 94)"/>
</clipPath>
</defs>
</svg>
