<svg xmlns="http://www.w3.org/2000/svg" width="512" viewBox="0 0 384 384" height="512" version="1"><path fill="#6fe999" d="M132.02 361.766c-167.77-58.52-156.942-302.63 15.05-345.063 148.65-36.672 272.22 113.781 206.325 252.598-26.649 56.176-86.13 101.258-152.41 100.336-24-.344-43.43 1.039-68.965-7.871zm0 0"/><path fill="#487d5f" d="M341.531 191.348a149.55 149.55 0 0 1-.726 14.714 148.37 148.37 0 0 1-2.16 14.579 149.442 149.442 0 0 1-3.582 14.293 147.95 147.95 0 0 1-4.961 13.87 150.182 150.182 0 0 1-13.875 25.957 153.473 153.473 0 0 1-4.247 6.028 147.523 147.523 0 0 1-4.53 5.809 151.979 151.979 0 0 1-9.895 10.918 151.98 151.98 0 0 1-10.918 9.895 151.42 151.42 0 0 1-5.809 4.534 157.642 157.642 0 0 1-6.027 4.243 149.213 149.213 0 0 1-6.227 3.94 150.182 150.182 0 0 1-19.73 9.934 149.42 149.42 0 0 1-13.875 4.965 150.494 150.494 0 0 1-14.293 3.578c-2.41.48-4.828.899-7.258 1.262a149.132 149.132 0 0 1-14.664 1.441 148.448 148.448 0 0 1-14.734.001 148.939 148.939 0 0 1-21.926-2.704 151.57 151.57 0 0 1-7.192-1.613 154.03 154.03 0 0 1-7.101-1.965 151.067 151.067 0 0 1-13.871-4.964 148.29 148.29 0 0 1-6.739-2.989 145.932 145.932 0 0 1-6.582-3.312 146.037 146.037 0 0 1-6.414-3.633 151.827 151.827 0 0 1-6.226-3.942 154.482 154.482 0 0 1-6.024-4.242 151.418 151.418 0 0 1-11.39-9.347 152.372 152.372 0 0 1-5.336-5.082 145.717 145.717 0 0 1-5.082-5.34 151.419 151.419 0 0 1-9.348-11.387 149.34 149.34 0 0 1-4.242-6.027 149.298 149.298 0 0 1-7.578-12.637 154.659 154.659 0 0 1-3.313-6.582 147.737 147.737 0 0 1-2.984-6.738 149.42 149.42 0 0 1-2.652-6.875 149.4 149.4 0 0 1-4.277-14.102 151.45 151.45 0 0 1-1.618-7.187c-.477-2.41-.898-4.832-1.258-7.262-.36-2.43-.66-4.871-.902-7.316a149.143 149.143 0 0 1-.723-14.715 149.442 149.442 0 0 1 1.625-22.032c.36-2.43.781-4.851 1.258-7.261a151.607 151.607 0 0 1 3.582-14.293 151.067 151.067 0 0 1 7.95-20.61 152.373 152.373 0 0 1 3.312-6.582 154.502 154.502 0 0 1 3.633-6.414 151.779 151.779 0 0 1 3.945-6.222 144.003 144.003 0 0 1 4.242-6.028 151.42 151.42 0 0 1 9.348-11.39 148.829 148.829 0 0 1 5.082-5.336 148.829 148.829 0 0 1 10.918-9.895 151.42 151.42 0 0 1 5.808-4.535 151.915 151.915 0 0 1 12.25-8.188 150.071 150.071 0 0 1 6.414-3.628 148.229 148.229 0 0 1 13.32-6.3 151.066 151.066 0 0 1 13.871-4.965 149.247 149.247 0 0 1 14.294-3.58c2.41-.48 4.832-.901 7.261-1.26 2.43-.36 4.868-.661 7.313-.903a148.949 148.949 0 0 1 14.719-.723 149.56 149.56 0 0 1 29.289 2.887 149.247 149.247 0 0 1 21.293 5.89 152.17 152.17 0 0 1 13.613 5.637 150.256 150.256 0 0 1 6.582 3.317 149.297 149.297 0 0 1 12.637 7.574 149.34 149.34 0 0 1 17.414 13.59 148.944 148.944 0 0 1 5.34 5.082 156.088 156.088 0 0 1 5.082 5.336 152.103 152.103 0 0 1 4.812 5.582 147.524 147.524 0 0 1 4.531 5.808 147.842 147.842 0 0 1 4.247 6.028 151.69 151.69 0 0 1 3.941 6.222 154.501 154.501 0 0 1 3.633 6.414c1.16 2.168 2.262 4.36 3.312 6.582a152.236 152.236 0 0 1 2.989 6.739c.937 2.27 1.824 4.562 2.652 6.875a146.484 146.484 0 0 1 2.308 6.996 149.29 149.29 0 0 1 1.97 7.101 151.57 151.57 0 0 1 2.874 14.453c.36 2.43.66 4.868.899 7.313a150.836 150.836 0 0 1 .726 14.719zm0 0"/><path fill="#6fe999" d="M164.852 144.96h53.144a1.716 1.716 0 0 1 1.195.492 1.7 1.7 0 0 1 .497 1.196v6.223c0 .223-.043.438-.13.645a1.68 1.68 0 0 1-1.562 1.043h-53.144a1.685 1.685 0 0 1-1.196-.493 1.68 1.68 0 0 1-.367-.55 1.665 1.665 0 0 1-.129-.645v-6.223c0-.222.043-.437.13-.644a1.68 1.68 0 0 1 1.562-1.043zm14.24 76.814l203.79 145.097c.266 0 .528.027.785.082a3.946 3.946 0 0 1 1.453.605 3.962 3.962 0 0 1 1.105 1.117c.15.22.27.454.372.7.102.242.176.496.227.758.05.257.078.52.074.785l-.004 1.535c0 .266-.027.527-.082.789a3.995 3.995 0 0 1-1.11 2.059c-.187.187-.39.351-.613.5a4.24 4.24 0 0 1-.695.37 4.33 4.33 0 0 1-.758.227 4.102 4.102 0 0 1-.789.074l-38.938-.136c-.265 0-.527-.028-.785-.082a4.015 4.015 0 0 1-2.063-1.11 3.962 3.962 0 0 1-.495-.613 3.862 3.862 0 0 1-.371-.7 3.898 3.898 0 0 1-.227-.753 3.83 3.83 0 0 1-.074-.79l.004-1.534c0-.266.027-.528.082-.785a3.946 3.946 0 0 1 .605-1.454c.149-.218.317-.421.504-.609a3.986 3.986 0 0 1 2.067-1.094 4.18 4.18 0 0 1 .789-.078zM324.365 410.78l58.808 38.497a3.256 3.256 0 0 1 2.28.949 3.218 3.218 0 0 1 .938 2.285l-.003 4.07a3.251 3.251 0 0 1-.95 2.278 3.235 3.235 0 0 1-2.285.941l-51.683-.09c-.43 0-.84-.086-1.235-.25a3.187 3.187 0 0 1-1.742-1.746 3.208 3.208 0 0 1-.246-1.234l.008-4.07c0-.43.086-.84.25-1.235a3.187 3.187 0 0 1 1.746-1.742 3.193 3.193 0 0 1 1.234-.246zm7.12 38.407"/></svg>