<svg width="80" height="80" viewBox="0 0 80 80" fill="none" xmlns="http://www.w3.org/2000/svg">
<path d="M39.9998 6.66602C21.6665 6.66602 6.6665 21.666 6.6665 39.9993C6.6665 58.3327 21.6665 73.3327 39.9998 73.3327C58.3332 73.3327 73.3332 58.3327 73.3332 39.9993C73.3332 21.666 58.3332 6.66602 39.9998 6.66602ZM13.3332 39.9993C13.3332 25.3327 25.3332 13.3327 39.9998 13.3327C45.9998 13.3327 51.6665 15.3327 56.3332 18.9993L18.9998 56.3327C15.3332 51.666 13.3332 45.9993 13.3332 39.9993ZM39.9998 66.666C33.9998 66.666 28.3332 64.666 23.6665 60.9993L60.9998 23.666C64.6665 28.3327 66.6665 33.9993 66.6665 39.9993C66.6665 54.666 54.6665 66.666 39.9998 66.666Z" fill="url(#paint0_linear_794_12248)"/>
<defs>
<linearGradient id="paint0_linear_794_12248" x1="65.164" y1="17.4513" x2="6.86785" y2="36.2297" gradientUnits="userSpaceOnUse">
<stop stop-color="#B9AAFD"/>
<stop offset="1" stop-color="#F4837D"/>
</linearGradient>
</defs>
</svg>