<!--?xml version="1.0" encoding="utf-8"?--><!-- Generator: Adobe Illustrator 22.0.1, SVG Export Plug-In . SVG Version: 6.00 Build 0)  --><svg version="1.1" xmlns="http://www.w3.org/2000/svg" xmlns:xlink="http://www.w3.org/1999/xlink" x="0px" y="0px" viewBox="0 0 595.3 841.9" style="enable-background:new 0 0 595.3 841.9;" xml:space="preserve">
<style type="text/css">
	.st0{fill:url(#SVGID_1_);}
	.st1{fill:url(#SVGID_2_);}
	.st2{fill:url(#SVGID_3_);}
	.st3{fill:url(#SVGID_4_);}
	.st4{fill:url(#SVGID_5_);}
	.st5{fill:url(#SVGID_6_);}
	.st6{fill:url(#SVGID_7_);}
	.st7{fill:none;stroke:url(#SVGID_8_);stroke-width:5;stroke-miterlimit:10;}
</style>
<g id="Слой_3">
	<g>
		<linearGradient id="SVGID_1_" gradientUnits="userSpaceOnUse" x1="293.235" y1="211.2553" x2="296.5556" y2="725.967">
			<stop offset="0" style="stop-color:#864E9F"></stop>
			<stop offset="1" style="stop-color:#286E7C"></stop>
		</linearGradient>
		<circle class="st0" cx="294.9" cy="474.8" r="257.4"></circle>
	</g>
</g>
<g id="Слой_5__x28_копия_x29_">
	<g>
		<linearGradient id="SVGID_2_" gradientUnits="userSpaceOnUse" x1="119.167" y1="217.7626" x2="122.1674" y2="745.8154">
			<stop offset="0.2667" style="stop-color:#FFFFFF"></stop>
			<stop offset="1" style="stop-color:#EDF7F8"></stop>
		</linearGradient>
		<path class="st1" d="M149.1,442.9c-13.1,9.3-30.9,25.2-42.6,50c-4.5,9.5-29.6,65.6,0,100.9c12.2,14.6,29.1,20,38.9,22.2
			c-7.5-14.9-17.7-40.3-19.4-73.1C123.4,494.9,140.5,458.6,149.1,442.9z"></path>
		<linearGradient id="SVGID_3_" gradientUnits="userSpaceOnUse" x1="293.1598" y1="216.774" x2="296.1601" y2="744.8268">
			<stop offset="0.2667" style="stop-color:#FFFFFF"></stop>
			<stop offset="1" style="stop-color:#EDF7F8"></stop>
		</linearGradient>
		<path class="st2" d="M454,542.9l-5.6-8.3l-6.5-25.9c2.2-2.2,4.3-4.3,6.5-6.5c-1.2-8.1-3.4-17.9-7.4-28.7
			c-4.3-11.8-9.6-21.3-14.3-28.6c-1.2-1.9-3.2-4.6-6.5-6.6c-6.1-3.7-10.7-1.3-20.3-2.4c-3.5-0.4-12.9-1.6-21.4-8
			c-2.4-1.8-7.6-5.8-10.8-13c-2.5-5.7-2.7-10.9-2.6-13.8c0.2-1.8,0.6-6-1.5-10.7c-2.5-5.5-6.8-8.1-8.3-8.9
			c-7.4-3.2-16.6-6.4-27.3-8.8c-11.4-2.5-21.8-3.5-30.4-3.7c0,0,0,0,0,0c-0.8,0-1.7,0-2.5,0c-0.9,0-1.7,0-2.5,0c0,0,0,0,0,0
			c-8.7,0.2-19,1.1-30.4,3.7c-10.7,2.4-19.9,5.6-27.3,8.8c-1.5,0.8-5.8,3.5-8.3,8.9c-2.1,4.7-1.8,9-1.5,10.7
			c0.1,2.9-0.1,8.1-2.6,13.8c-3.2,7.2-8.3,11.2-10.8,13c-8.5,6.4-17.8,7.6-21.4,8c-9.6,1.1-14.2-1.3-20.3,2.4
			c-3.3,2-5.3,4.7-6.5,6.6c-4.7,7.3-9.9,16.8-14.3,28.6c-4,10.8-6.2,20.7-7.4,28.7c2.2,2.2,4.3,4.3,6.5,6.5l-6.5,25.9l-5.6,8.3
			c-1.2,5.3-4.7,23,4.6,41.7c6.3,12.6,15.5,19.8,20.4,23.1c0.4-7.9,0.8-15.9,1.2-23.8c0-0.9,0.4-7.3,5.5-10.9
			c2.3-1.7,4.8-2.1,5.8-2.3c0.9-0.1,3.9-0.5,7.1,1c3.9,1.8,5.7,5.6,6.6,7.7c3.5,7.8,8.7,19.1,14.6,33.2c2.3,4.5,6.5,11.3,13.5,17.7
			c5.6,5.1,11.2,8.2,15.4,10.2c8.7,2.6,18.5,5.1,29.4,7c7.8,1.4,16.1,2.8,27.3,3.2c10.4,0.4,18.6-0.3,23.3-0.7
			c3.5-0.3,10.7-0.9,19.1-2.5c17.5-3.3,32.3-6.1,44.8-17.1c7.9-7,12.3-14.8,13.5-17.7c6-14.1,11.1-25.5,14.6-33.2
			c0.9-2,2.7-5.9,6.6-7.7c3.2-1.5,6.2-1.1,7.1-1c1,0.1,3.4,0.6,5.8,2.3c5.1,3.6,5.4,10,5.5,10.9c0.4,7.9,0.8,15.9,1.2,23.8
			c4.9-3.3,14.1-10.5,20.4-23.1C458.7,565.8,455.3,548.2,454,542.9z M407.7,516c-0.3,4.8-1.3,17.3-8.7,30.5
			c-25,44.4-93.7,44.4-104,44.4c-10.5,0-78.9-0.1-103.8-44.4c-7.4-13.2-8.4-25.7-8.7-30.5c-2.1-30.6,15-59.1,37.4-74.6
			c9.4-6.5,18.4-9.8,24.6-11.5c4.9,3.8,12.3,8.6,22.2,12c11.4,4,21.6,4.7,28.5,4.5c0,0,0,0,0,0c6.5,0.1,16.7-0.5,28.2-4.5
			c9.9-3.5,17.4-8.3,22.2-12c6.2,1.8,15.2,5.1,24.6,11.5C392.7,456.9,409.8,485.4,407.7,516z"></path>
		<linearGradient id="SVGID_4_" gradientUnits="userSpaceOnUse" x1="467.8411" y1="215.7815" x2="470.8414" y2="743.8343">
			<stop offset="0.2667" style="stop-color:#FFFFFF"></stop>
			<stop offset="1" style="stop-color:#EDF7F8"></stop>
		</linearGradient>
		<path class="st3" d="M483.6,492.9c-11.7-24.8-29.5-40.7-42.6-50c8.7,15.8,25.7,52,23.1,100c-1.7,32.8-12,58.2-19.4,73.1
			c9.8-2.2,26.6-7.6,38.9-22.2C513.2,558.4,488.1,502.3,483.6,492.9z"></path>
		<linearGradient id="SVGID_5_" gradientUnits="userSpaceOnUse" x1="293.4141" y1="216.7726" x2="296.4144" y2="744.8254">
			<stop offset="0.2667" style="stop-color:#FFFFFF"></stop>
			<stop offset="1" style="stop-color:#EDF7F8"></stop>
		</linearGradient>
		<path class="st4" d="M294.9,213.9C150.8,213.9,34,330.7,34,474.8s116.8,260.9,260.9,260.9s260.9-116.8,260.9-260.9
			S439,213.9,294.9,213.9z M455.3,648.8l-18.7,2.4L418,623.4c0.3-11.5,0.6-23,0.9-34.5c0.3-2.5-0.7-4.8-2.5-5.9
			c-1.6-1-3.3-0.7-3.7-0.6c-2.8,0.5-4.1,3.1-4.3,3.4c-2.8,10.8-9.3,30.3-25.9,48.8c-10.8,12.1-22.2,19.7-30.5,24.3
			c-0.8,0.4-4.6,2.6-6.1,7.2c-1.2,3.6-0.3,6.7,0,7.8c4,9.7,8.1,19.3,12.1,29c-20.1,5.5-41.2,8.5-63.1,8.5c-21.7,0-42.8-2.9-62.7-8.4
			c4.1-9.7,8.1-19.4,12.2-29c0.4-1.1,1.2-4.2,0-7.8c-1.5-4.6-5.3-6.8-6.1-7.2c-8.3-4.6-19.7-12.2-30.5-24.3
			c-16.5-18.5-23.1-38.1-25.9-48.8c-0.2-0.3-1.5-2.9-4.3-3.4c-0.4-0.1-2.1-0.4-3.7,0.6c-1.8,1.1-2.8,3.4-2.5,5.9
			c0.3,11.5,0.6,23,0.9,34.5l-18.5,27.8l-19.2-2.5c-46.8-43.2-76.1-105.1-76.1-173.8c0-44.8,12.4-86.6,34-122.3
			c2.3,10.9,7,24.1,16.4,37c16.7,22.7,38.4,31,45.6,33.7c9.4,3.4,21.9,7.8,36.6,4.1c4.9-1.2,20.9-5.2,24.9-18
			c1.8-5.9,0.3-11.3-0.5-13.7c-4.8-15.1-23.9-58.8-51.6-117.7c37.5-25,82.6-39.7,131.1-39.7c48.6,0,93.8,14.7,131.3,39.8
			c-27.6,58.8-46.8,102.6-51.5,117.6c-0.8,2.7-2.2,8-0.5,13.7c4,12.8,20,16.8,24.9,18c14.8,3.7,27.2-0.7,36.6-4.1
			c7.2-2.7,28.9-11,45.6-33.7c9.3-12.7,14-25.7,16.3-36.5c21.4,35.6,33.8,77.3,33.8,121.8C531.5,543.6,502.1,605.5,455.3,648.8z"></path>
		<linearGradient id="SVGID_6_" gradientUnits="userSpaceOnUse" x1="243.5797" y1="217.0557" x2="246.5799" y2="745.1085">
			<stop offset="0.2667" style="stop-color:#FFFFFF"></stop>
			<stop offset="1" style="stop-color:#EDF7F8"></stop>
		</linearGradient>
		<path class="st5" d="M267.8,508.4c-1.9-8.5-8.8-24.7-20.1-25.7c-5.3-0.5-10.1,2.5-14.1,6.8c7.4,1.4,12.9,7.9,12.9,15.7
			c0,8.8-7.2,16-16,16c-3.2,0-6.1-0.9-8.6-2.5c0.1,3.6,0.7,7.7,2.6,11.9c1.1,2.5,3.2,7.1,8,10.4c7.4,4.9,17.8,4.5,25.1-0.1
			c12.2-7.8,11.1-24.5,11-27.1C268.5,513.1,268.4,511.1,267.8,508.4z"></path>
		<linearGradient id="SVGID_7_" gradientUnits="userSpaceOnUse" x1="341.2432" y1="216.5008" x2="344.2435" y2="744.5536">
			<stop offset="0.2667" style="stop-color:#FFFFFF"></stop>
			<stop offset="1" style="stop-color:#EDF7F8"></stop>
		</linearGradient>
		<path class="st6" d="M365.5,508.4c-1.9-8.5-8.8-24.7-20.1-25.7c-5.3-0.5-10.1,2.5-14.1,6.8c7.4,1.4,12.9,7.9,12.9,15.7
			c0,8.8-7.2,16-16,16c-3.2,0-6.1-0.9-8.6-2.5c0.1,3.6,0.7,7.7,2.6,11.9c1.1,2.5,3.2,7.1,8,10.4c7.4,4.9,17.8,4.5,25.1-0.1
			c12.2-7.8,11.1-24.5,11-27.1C366.2,513.1,366.1,511.1,365.5,508.4z"></path>
	</g>
</g>
<g id="Слой_9">
	<linearGradient id="SVGID_8_" gradientUnits="userSpaceOnUse" x1="294.88" y1="211.39" x2="294.88" y2="738.15">
		<stop offset="0" style="stop-color:#864E9F"></stop>
		<stop offset="1" style="stop-color:#005B73"></stop>
	</linearGradient>
	<circle class="st7" cx="294.9" cy="474.8" r="260.9"></circle>
</g>
</svg>
