<?xml version="1.0" encoding="utf-8"?>
<!-- Generator: Adobe Illustrator 27.2.0, SVG Export Plug-In . SVG Version: 6.00 Build 0)  -->
<svg version="1.1" id="Layer_1" xmlns="http://www.w3.org/2000/svg" xmlns:xlink="http://www.w3.org/1999/xlink" x="0px" y="0px"
	 viewBox="0 0 500 500" style="enable-background:new 0 0 500 500;" xml:space="preserve">
<style type="text/css">
	.st0{fill:#132747;}
	.st1{fill:#FF7033;}
	.st2{fill:#EEEEEE;}
</style>
<circle class="st0" cx="250" cy="250" r="250"/>
<g>
	<g>
		<polygon class="st0" points="175.1302795,430.75 69.2499084,324.8696289 69.2499084,175.1311035 175.131012,69.25 
			324.8695374,69.25 430.7499084,175.1311035 430.7499084,324.8696289 324.8695374,430.75 		"/>
		<g>
			<path class="st1" d="M322.0732422,76L424,177.9268188l-0.0000916,144.1464233L322.0731506,424l-144.1463928-0.0000916
				L76,322.0731812V177.9267578L177.9268494,76H322.0732422 M327.6651001,62.5H172.3349915L62.5,172.3349152v155.3300934
				l109.8348999,109.8348999L327.6650085,437.5l109.8348999-109.8349304L437.5,172.3350067L327.6651001,62.5L327.6651001,62.5z"/>
		</g>
	</g>
	<g>
		<path class="st2" d="M162.8869476,214.311615h9.7885437l25.6955109,71.37677h-10.0942841l-6.3218689-18.1500854h-28.2449646
			l-6.3218689,18.1500854h-10.0954742L162.8869476,214.311615z M179.4054108,259.2790833l-11.5218811-33.343277h-0.2046204
			l-11.3184509,33.343277H179.4054108z"/>
		<path class="st2" d="M209.9844971,286.9628296v-73.9256439l10.6046448-10.60466h12.3379974v8.3615417h-7.9528961
			l-5.5069427,5.4040527v67.6037598l5.5069427,5.4046326h7.9528961v8.3609619h-12.3379974L209.9844971,286.9628296z"/>
		<path class="st2" d="M243.2706604,275.7975464v-9.177063h9.7885437v6.0161133l4.4862061,4.4868164h20.393219l4.4873962-4.4868164
			v-18.9655914l-4.4873962-4.3845062h-33.6484222v-34.974884h46.4967804v8.4632568h-36.9116821v17.9460602h28.3460999
			l9.9931641,9.992569v25.0840454L282.3237,285.688385h-29.1621857L243.2706604,275.7975464z"/>
		<path class="st2" d="M318.4145203,224.5082092l-15.8046875,8.1575165v-8.9730377l17.1299744-9.381073h8.4632568v71.37677
			h-9.7885437V224.5082092z"/>
		<path class="st2" d="M339.764801,297.5674744v-8.3609619h7.9528809l5.506958-5.4046326v-67.6037598l-5.506958-5.4040527
			h-7.9528809v-8.3615417h12.3379822l10.6046448,10.60466v73.9256439l-10.6046448,10.6046448H339.764801z"/>
	</g>
</g>
</svg>
