<svg width="200" height="200" viewBox="0 0 200 200" fill="none" xmlns="http://www.w3.org/2000/svg">
<path d="M0 100C0 155.228 44.7715 200 100 200C155.228 200 200 155.228 200 100C200 44.7715 155.228 0 100 0C44.7715 0 0 44.7715 0 100Z" fill="#F0D332"/>
<mask id="path-2-inside-1_1698_286" fill="white">
<path d="M129.127 86.6239L155.578 60.2136L143.175 47.7792L111.55 79.3961V120.639L143.175 152.221L155.578 139.821L129.127 113.377V86.6239Z"/>
<path d="M44.4229 60.2136L70.7551 86.6239V113.377L44.4229 139.821L56.8045 152.221L88.2531 120.639V79.3961L56.8045 47.7792L44.4229 60.2136Z"/>
<path d="M86.624 70.8737L60.2137 44.4229L47.7793 56.826L79.3963 88.4505H120.639L152.222 56.826L139.821 44.4229L113.377 70.8737L86.624 70.8737Z"/>
<path d="M60.2137 155.578L86.624 129.246L113.377 129.246L139.821 155.578L152.222 143.196L120.639 111.748H79.3963L47.7793 143.196L60.2137 155.578Z"/>
</mask>
<path d="M129.127 86.6239L114.996 72.4709L109.127 78.3306V86.6239H129.127ZM155.578 60.2136L169.709 74.3666L183.855 60.2422L169.738 46.0893L155.578 60.2136ZM143.175 47.7792L157.335 33.6548L143.194 19.4787L129.034 33.6353L143.175 47.7792ZM111.55 79.3961L97.4097 65.2523L91.5501 71.1105V79.3961H111.55ZM111.55 120.639H91.5501V128.931L97.4174 134.79L111.55 120.639ZM143.175 152.221L129.042 166.373L143.182 180.495L157.315 166.365L143.175 152.221ZM155.578 139.821L169.718 153.965L183.865 139.821L169.718 125.677L155.578 139.821ZM129.127 113.377H109.127V121.662L114.986 127.521L129.127 113.377ZM44.4229 60.2136L30.2507 46.1016L16.1895 60.2227L30.2598 74.3348L44.4229 60.2136ZM70.7551 86.6239H90.7551V78.3569L84.9181 72.5027L70.7551 86.6239ZM70.7551 113.377L84.9273 127.489L90.7551 121.636V113.377H70.7551ZM44.4229 139.821L30.2507 125.709L16.1792 139.841L30.2701 153.953L44.4229 139.821ZM56.8045 152.221L42.6517 166.353L56.824 180.546L70.9767 166.333L56.8045 152.221ZM88.2531 120.639L102.425 134.751L108.253 128.898V120.639H88.2531ZM88.2531 79.3961H108.253V71.1431L102.433 65.2918L88.2531 79.3961ZM56.8045 47.7792L70.9843 33.6748L56.8121 19.4268L42.6323 33.6671L56.8045 47.7792ZM86.624 70.8737L72.471 85.005L78.3307 90.8737L86.624 90.8737L86.624 70.8737ZM60.2137 44.4229L74.3667 30.2916L60.2424 16.1456L46.0894 30.2629L60.2137 44.4229ZM47.7793 56.826L33.655 42.666L19.4789 56.8065L33.6355 70.9664L47.7793 56.826ZM79.3963 88.4505L65.2525 102.591L71.1106 108.45H79.3963V88.4505ZM120.639 88.4505V108.45H128.931L134.79 102.583L120.639 88.4505ZM152.222 56.826L166.373 70.9588L180.495 56.8183L166.365 42.6855L152.222 56.826ZM139.821 44.4229L153.965 30.2824L139.821 16.1352L125.678 30.2824L139.821 44.4229ZM113.377 70.8737L113.377 90.8737L121.663 90.8737L127.521 85.0141L113.377 70.8737ZM60.2137 155.578L46.1017 169.75L60.2229 183.811L74.3349 169.741L60.2137 155.578ZM86.624 129.246L86.624 109.246L78.3571 109.246L72.5028 115.082L86.624 129.246ZM113.377 129.246L127.489 115.073L121.636 109.246L113.377 109.246L113.377 129.246ZM139.821 155.578L125.709 169.75L139.841 183.821L153.953 169.73L139.821 155.578ZM152.222 143.196L166.353 157.349L180.547 143.177L166.334 129.024L152.222 143.196ZM120.639 111.748L134.751 97.5754L128.898 91.7476H120.639V111.748ZM79.3963 111.748V91.7476H71.1433L65.292 97.5677L79.3963 111.748ZM47.7793 143.196L33.675 129.016L19.4269 143.188L33.6673 157.368L47.7793 143.196ZM143.258 100.777L169.709 74.3666L141.446 46.0606L114.996 72.4709L143.258 100.777ZM169.738 46.0893L157.335 33.6548L129.015 61.9035L141.418 74.3379L169.738 46.0893ZM129.034 33.6353L97.4097 65.2523L125.691 93.54L157.315 61.923L129.034 33.6353ZM91.5501 79.3961V120.639H131.55V79.3961H91.5501ZM97.4174 134.79L129.042 166.373L157.307 138.07L125.683 106.487L97.4174 134.79ZM157.315 166.365L169.718 153.965L141.437 125.677L129.034 138.078L157.315 166.365ZM169.718 125.677L143.267 99.2329L114.986 127.521L141.437 153.965L169.718 125.677ZM149.127 113.377V86.6239H109.127V113.377H149.127ZM30.2598 74.3348L56.592 100.745L84.9181 72.5027L58.5859 46.0924L30.2598 74.3348ZM50.7551 86.6239V113.377H90.7551V86.6239H50.7551ZM56.5829 99.2647L30.2507 125.709L58.595 153.933L84.9273 127.489L56.5829 99.2647ZM30.2701 153.953L42.6517 166.353L70.9572 138.09L58.5756 125.69L30.2701 153.953ZM70.9767 166.333L102.425 134.751L74.0809 106.527L42.6323 138.109L70.9767 166.333ZM108.253 120.639V79.3961H68.2531V120.639H108.253ZM102.433 65.2918L70.9843 33.6748L42.6246 61.8835L74.0732 93.5005L102.433 65.2918ZM42.6323 33.6671L30.2507 46.1016L58.595 74.3256L70.9767 61.8912L42.6323 33.6671ZM100.777 56.7424L74.3667 30.2916L46.0607 58.5541L72.471 85.005L100.777 56.7424ZM46.0894 30.2629L33.655 42.666L61.9036 70.9859L74.338 58.5828L46.0894 30.2629ZM33.6355 70.9664L65.2525 102.591L93.5401 74.31L61.9231 42.6855L33.6355 70.9664ZM79.3963 108.45H120.639V68.4505H79.3963V108.45ZM134.79 102.583L166.373 70.9588L138.07 42.6932L106.487 74.3177L134.79 102.583ZM166.365 42.6855L153.965 30.2824L125.678 58.5633L138.078 70.9664L166.365 42.6855ZM125.678 30.2824L99.233 56.7333L127.521 85.0141L153.965 58.5633L125.678 30.2824ZM113.377 50.8737L86.624 50.8737L86.624 90.8737L113.377 90.8737L113.377 50.8737ZM74.3349 169.741L100.745 143.409L72.5028 115.082L46.0925 141.415L74.3349 169.741ZM86.624 149.246L113.377 149.246L113.377 109.246L86.624 109.246L86.624 149.246ZM99.2648 143.418L125.709 169.75L153.933 141.406L127.489 115.073L99.2648 143.418ZM153.953 169.73L166.353 157.349L138.09 129.043L125.69 141.425L153.953 169.73ZM166.334 129.024L134.751 97.5754L106.527 125.92L138.11 157.368L166.334 129.024ZM120.639 91.7476H79.3963V131.748H120.639V91.7476ZM65.292 97.5677L33.675 129.016L61.8836 157.376L93.5006 125.927L65.292 97.5677ZM33.6673 157.368L46.1017 169.75L74.3257 141.406L61.8913 129.024L33.6673 157.368Z" fill="black" mask="url(#path-2-inside-1_1698_286)"/>
</svg>
