<svg fill="none" height="480" width="480" xmlns="http://www.w3.org/2000/svg" xmlns:xlink="http://www.w3.org/1999/xlink"><clipPath id="a"><path d="m0 0h480v480h-480z"/></clipPath><g clip-path="url(#a)" fill="#06070a"><path d="m257.019 480h-17.019c-132.548 0-240-107.452-240-240s107.452-240 240-240 240 107.452 240 240a241.82 241.82 0 0 1 -2.531 34.963h-33.594a208.341 208.341 0 0 0 2.94-34.963c0-114.221-92.594-206.815-206.815-206.815s-206.815 92.595-206.815 206.815 92.595 206.815 206.815 206.815h123.005c-31.411 18.722-67.448 30.492-105.986 33.185z"/><path d="m408.983 411.259h-168.983c-94.584 0-171.26-76.675-171.26-171.259s76.676-171.26 171.26-171.26 171.259 76.676 171.259 171.26c0 11.972-1.231 23.667-3.575 34.963h-34.071c2.91-11.155 4.461-22.869 4.461-34.963 0-76.256-61.818-138.074-138.074-138.074s-138.074 61.818-138.074 138.074 61.818 138.074 138.074 138.074h197.054a241.91 241.91 0 0 1 -28.071 33.185z"/><path d="m457.72 342.518h-217.72c-56.619 0-102.519-45.899-102.519-102.518s45.9-102.519 102.519-102.519 102.518 45.9 102.518 102.519c0 12.268-2.16 24.045-6.121 34.963h-36.508c6.005-10.258 9.444-22.192 9.444-34.963 0-38.292-31.041-69.333-69.333-69.333s-69.333 31.041-69.333 69.333 31.041 69.333 69.333 69.333h230.452a238.81 238.81 0 0 1 -12.732 33.185z"/></g></svg>