<svg fill="none" height="73" width="73" xmlns="http://www.w3.org/2000/svg" xmlns:xlink="http://www.w3.org/1999/xlink"><clipPath id="a"><path d="m0 0h72v72h-72z" transform="translate(.032 .022)"/></clipPath><g clip-path="url(#a)"><path d="m36.032 72.022c19.883 0 36-16.118 36-36s-16.117-36-36-36c-19.882 0-36 16.118-36 36s16.118 36 36 36z" fill="#ff0420"/><path d="m25.54 45.59c-2.144 0-3.9-.504-5.27-1.513-1.35-1.027-2.026-2.486-2.026-4.377 0-.396.045-.883.135-1.46a89.628 89.628 0 0 1 1-4.674c1.225-4.953 4.386-7.43 9.484-7.43 1.387 0 2.63.234 3.729.702 1.099.45 1.963 1.135 2.594 2.054.63.9.945 1.981.945 3.242 0 .379-.045.856-.135 1.432a61.242 61.242 0 0 1 -.973 4.675c-.63 2.468-1.72 4.314-3.269 5.539-1.55 1.207-3.62 1.81-6.215 1.81zm.378-3.89c1.009 0 1.864-.298 2.567-.892.72-.595 1.234-1.504 1.54-2.73.414-1.693.73-3.17.946-4.43a6.2 6.2 0 0 0 .108-1.163c0-1.639-.856-2.458-2.567-2.458-1.01 0-1.874.297-2.594.891-.703.595-1.207 1.505-1.513 2.73-.325 1.206-.649 2.683-.973 4.43-.072.36-.108.74-.108 1.135 0 1.658.865 2.486 2.594 2.486zm11.454 3.62c-.198 0-.352-.063-.46-.19a.646.646 0 0 1 -.08-.486l3.728-17.562a.774.774 0 0 1 .297-.487.824.824 0 0 1 .514-.189h7.187c2 0 3.603.414 4.81 1.243 1.224.829 1.837 2.026 1.837 3.594 0 .45-.054.918-.162 1.405-.45 2.071-1.36 3.602-2.73 4.593-1.35.99-3.206 1.486-5.565 1.486h-3.648l-1.243 5.918a.774.774 0 0 1 -.297.486.823.823 0 0 1 -.514.189zm9.565-10.322c.756 0 1.414-.207 1.972-.621.577-.414.955-1.009 1.135-1.783.054-.307.081-.577.081-.811 0-.522-.153-.919-.46-1.189-.306-.288-.828-.432-1.566-.432h-3.243l-1.026 4.836z" fill="#fff"/></g></svg>