<svg fill="none" height="2176" width="1801" xmlns="http://www.w3.org/2000/svg" xmlns:xlink="http://www.w3.org/1999/xlink"><linearGradient id="a" gradientUnits="userSpaceOnUse" x1="195.662" x2="1115.19" y1="1413.31" y2="1876.24"><stop offset="0" stop-color="#45c7ff"/><stop offset="1" stop-color="#0e2450"/></linearGradient><linearGradient id="b" gradientUnits="userSpaceOnUse" x1="893.158" x2="1561.74" y1="2264.89" y2="1285.57"><stop offset="0" stop-color="#3b9cf7"/><stop offset=".2" stop-color="#579ced"/><stop offset=".703" stop-color="#3789d7"/><stop offset="1" stop-color="#a5c4da"/></linearGradient><linearGradient id="c" gradientUnits="userSpaceOnUse" x1="901.311" x2="1800.91" y1="-7869.82" y2="-7869.82"><stop offset="0" stop-color="#4fb8d9"/><stop offset=".6" stop-color="#39d8fb"/><stop offset="1" stop-color="#3f5fbc"/></linearGradient><linearGradient id="d" gradientUnits="userSpaceOnUse" x1="1289.96" x2="1992.06" y1="1482.19" y2="707.615"><stop offset="0" stop-color="#33b6ff"/><stop offset="1" stop-color="#6562fd"/></linearGradient><linearGradient id="e" gradientUnits="userSpaceOnUse" x1="454.78" x2="553.527" y1="1446.91" y2="1149.77"><stop offset="0" stop-color="#4ab0ea"/><stop offset="1" stop-color="#6d7f9b"/></linearGradient><linearGradient id="f" gradientUnits="userSpaceOnUse" x1="1021.94" x2="555.378" y1="637.627" y2="637.627"><stop offset="0" stop-color="#695cfb"/><stop offset="1" stop-color="#479afd"/></linearGradient><linearGradient id="g" gradientUnits="userSpaceOnUse" x1="1051.7" x2="1381.46" y1="784.389" y2="1096.94"><stop offset="0" stop-color="#57e"/><stop offset="1" stop-color="#84a6ff"/></linearGradient><path d="m900.48 2175.2-899.595-459.31 899.595-441.19z" fill="url(#a)"/><path d="m900.48 2175.2-899.595-458.4 900.501-442.1v900.5z" stroke="#5a9ddb" stroke-miterlimit="10" stroke-width=".05"/><path d="m900.405 1274.7 899.595 443.91-899.595 456.59z" fill="url(#b)"/><path d="m900.405 1274.7 899.595 443.91-898.689 456.59v-900.5z" stroke="url(#c)" stroke-miterlimit="10" stroke-width=".05"/><path d="m1432.19 1015.63 367.81 702.1-899.595-443.91z" fill="url(#d)"/><path d="m1433.1 1015.52 366.9 702.1-899.595-443 531.785-260.01z" stroke="#3faeff" stroke-miterlimit="10" stroke-width=".05"/><path d="m369.622 1013.88 530.878 260.9-900.5 440.29z" fill="url(#e)"/><path d="m369.601 1013.88 531.785 260-900.5 442.1z" stroke="#69a5ff" stroke-miterlimit="10" stroke-width=".05"/><path d="m900.54 1274.5v-1272.84l-529.972 1012.84 531.784 260z" fill="url(#f)"/><path d="m900.504 1274.67v-1273.748l-529.066 1012.838 530.878 260.91z" stroke="#88aabd" stroke-miterlimit="10" stroke-width=".05"/><path d="m900.405 1274.5v-1272.84l531.785 1013.74z" fill="url(#g)"/><path d="m900.405 1274.67v-1273.748l532.695 1014.648-532.695 258.19z" stroke="#51a2ed" stroke-miterlimit="10" stroke-width=".05"/><path d="m900.48 2175.2-899.595-459.31 899.595-441.19z" fill="url(#a)"/><path d="m900.48 2175.2-899.595-458.4 900.501-442.1v900.5z" stroke="#5a9ddb" stroke-miterlimit="10" stroke-width=".05"/><path d="m900.405 1274.7 899.595 443.91-899.595 456.59z" fill="url(#b)"/><path d="m900.405 1274.7 899.595 443.91-898.689 456.59v-900.5z" stroke="url(#c)" stroke-miterlimit="10" stroke-width=".05"/><path d="m1432.19 1015.63 367.81 702.1-899.595-443.91z" fill="url(#d)"/><path d="m1433.1 1015.52 366.9 702.1-899.595-443 531.785-260.01z" stroke="#3faeff" stroke-miterlimit="10" stroke-width=".05"/><path d="m369.622 1013.88 530.878 260.9-900.5 440.29z" fill="url(#e)"/><path d="m369.601 1013.88 531.785 260-900.5 442.1z" stroke="#69a5ff" stroke-miterlimit="10" stroke-width=".05"/><path d="m900.54 1274.5v-1272.84l-529.972 1012.84 531.784 260z" fill="url(#f)"/><path d="m900.504 1274.67v-1273.748l-529.066 1012.838 530.878 260.91z" stroke="#88aabd" stroke-miterlimit="10" stroke-width=".05"/><path d="m900.405 1274.5v-1272.84l531.785 1013.74z" fill="url(#g)"/><path d="m900.405 1274.67v-1273.748l532.695 1014.648-532.695 258.19z" stroke="#51a2ed" stroke-miterlimit="10" stroke-width=".05"/><path d="m900.48 2175.2-899.595-459.31 899.595-441.19z" fill="url(#a)"/><path d="m900.48 2175.2-899.595-458.4 900.501-442.1v900.5z" stroke="#5a9ddb" stroke-miterlimit="10" stroke-width=".05"/><path d="m900.405 1274.7 899.595 443.91-899.595 456.59z" fill="url(#b)"/><path d="m900.405 1274.7 899.595 443.91-898.689 456.59v-900.5z" stroke="url(#c)" stroke-miterlimit="10" stroke-width=".05"/><path d="m1432.19 1015.63 367.81 702.1-899.595-443.91z" fill="url(#d)"/><path d="m1433.1 1015.52 366.9 702.1-899.595-443 531.785-260.01z" stroke="#3faeff" stroke-miterlimit="10" stroke-width=".05"/><path d="m369.622 1013.88 530.878 260.9-900.5 440.29z" fill="url(#e)"/><path d="m369.601 1013.88 531.785 260-900.5 442.1z" stroke="#69a5ff" stroke-miterlimit="10" stroke-width=".05"/><path d="m900.54 1274.5v-1272.84l-529.972 1012.84 531.784 260z" fill="url(#f)"/><path d="m900.504 1274.67v-1273.748l-529.066 1012.838 530.878 260.91z" stroke="#88aabd" stroke-miterlimit="10" stroke-width=".05"/><path d="m900.405 1274.5v-1272.84l531.785 1013.74z" fill="url(#g)"/><path d="m900.405 1274.67v-1273.748l532.695 1014.648-532.695 258.19z" stroke="#51a2ed" stroke-miterlimit="10" stroke-width=".05"/><path d="m900.48 2175.2-899.595-459.31 899.595-441.19z" fill="url(#a)"/><path d="m900.48 2175.2-899.595-458.4 900.501-442.1v900.5z" stroke="#5a9ddb" stroke-miterlimit="10" stroke-width=".05"/><path d="m900.405 1274.7 899.595 443.91-899.595 456.59z" fill="url(#b)"/><path d="m900.405 1274.7 899.595 443.91-898.689 456.59v-900.5z" stroke="url(#c)" stroke-miterlimit="10" stroke-width=".05"/><path d="m1432.19 1015.63 367.81 702.1-899.595-443.91z" fill="url(#d)"/><path d="m1433.1 1015.52 366.9 702.1-899.595-443 531.785-260.01z" stroke="#3faeff" stroke-miterlimit="10" stroke-width=".05"/><path d="m369.622 1013.88 530.878 260.9-900.5 440.29z" fill="url(#e)"/><path d="m369.601 1013.88 531.785 260-900.5 442.1z" stroke="#69a5ff" stroke-miterlimit="10" stroke-width=".05"/><path d="m900.54 1274.5v-1272.84l-529.972 1012.84 531.784 260z" fill="url(#f)"/><path d="m900.504 1274.67v-1273.748l-529.066 1012.838 530.878 260.91z" stroke="#88aabd" stroke-miterlimit="10" stroke-width=".05"/><path d="m900.405 1274.5v-1272.84l531.785 1013.74z" fill="url(#g)"/><path d="m900.405 1274.67v-1273.748l532.695 1014.648-532.695 258.19z" stroke="#51a2ed" stroke-miterlimit="10" stroke-width=".05"/></svg>