<svg fill="none" height="2176" width="1801" xmlns="http://www.w3.org/2000/svg"><linearGradient id="a" gradientUnits="userSpaceOnUse" x1="195.662" x2="1115.19" y1="1413.31" y2="1876.24"><stop offset="0" stop-color="#45c7ff"/><stop offset="1" stop-color="#0e2450"/></linearGradient><linearGradient id="b" gradientUnits="userSpaceOnUse" x1="893.158" x2="1561.74" y1="2264.89" y2="1285.57"><stop offset="0" stop-color="#3b9cf7"/><stop offset=".2" stop-color="#579ced"/><stop offset=".703" stop-color="#3789d7"/><stop offset="1" stop-color="#a5c4da"/></linearGradient><linearGradient id="c" gradientUnits="userSpaceOnUse" x1="901.311" x2="1800.91" y1="-7869.82" y2="-7869.82"><stop offset="0" stop-color="#4fb8d9"/><stop offset=".6" stop-color="#39d8fb"/><stop offset="1" stop-color="#3f5fbc"/></linearGradient><linearGradient id="d" gradientUnits="userSpaceOnUse" x1="1289.96" x2="1992.06" y1="1482.19" y2="707.615"><stop offset="0" stop-color="#33b6ff"/><stop offset="1" stop-color="#6562fd"/></linearGradient><linearGradient id="e" gradientUnits="userSpaceOnUse" x1="454.78" x2="553.527" y1="1446.91" y2="1149.77"><stop offset="0" stop-color="#4ab0ea"/><stop offset="1" stop-color="#6d7f9b"/></linearGradient><linearGradient id="f" gradientUnits="userSpaceOnUse" x1="1021.94" x2="555.378" y1="637.627" y2="637.627"><stop offset="0" stop-color="#695cfb"/><stop offset="1" stop-color="#479afd"/></linearGradient><linearGradient id="g" gradientUnits="userSpaceOnUse" x1="1051.7" x2="1381.46" y1="784.389" y2="1096.94"><stop offset="0" stop-color="#57e"/><stop offset="1" stop-color="#84a6ff"/></linearGradient><path d="M900.48 2175.2L.885 1715.89 900.48 1274.7z" fill="url(#a)"/><path d="M900.48 2175.2L.885 1716.8l900.501-442.1v900.5z" stroke="#5a9ddb" stroke-miterlimit="10" stroke-width=".05"/><path d="M900.405 1274.7L1800 1718.61 900.405 2175.2z" fill="url(#b)"/><path d="M900.405 1274.7L1800 1718.61 901.311 2175.2v-900.5z" stroke="url(#c)" stroke-miterlimit="10" stroke-width=".05"/><path d="M1432.19 1015.63l367.81 702.1-899.595-443.91z" fill="url(#d)"/><path d="M1433.1 1015.52l366.9 702.1-899.595-443 531.785-260.01z" stroke="#3faeff" stroke-miterlimit="10" stroke-width=".05"/><path d="M369.622 1013.88l530.878 260.9L0 1715.07z" fill="url(#e)"/><path d="M369.601 1013.88l531.785 260-900.5 442.1z" stroke="#69a5ff" stroke-miterlimit="10" stroke-width=".05"/><path d="M900.54 1274.5V1.66L370.568 1014.5l531.784 260z" fill="url(#f)"/><path d="M900.504 1274.67V.922L371.438 1013.76l530.878 260.91z" stroke="#88aabd" stroke-miterlimit="10" stroke-width=".05"/><path d="M900.405 1274.5V1.66L1432.19 1015.4z" fill="url(#g)"/><path d="M900.405 1274.67V.922L1433.1 1015.57l-532.695 258.19z" stroke="#51a2ed" stroke-miterlimit="10" stroke-width=".05"/><path d="M900.48 2175.2L.885 1715.89 900.48 1274.7z" fill="url(#a)"/><path d="M900.48 2175.2L.885 1716.8l900.501-442.1v900.5z" stroke="#5a9ddb" stroke-miterlimit="10" stroke-width=".05"/><path d="M900.405 1274.7L1800 1718.61 900.405 2175.2z" fill="url(#b)"/><path d="M900.405 1274.7L1800 1718.61 901.311 2175.2v-900.5z" stroke="url(#c)" stroke-miterlimit="10" stroke-width=".05"/><path d="M1432.19 1015.63l367.81 702.1-899.595-443.91z" fill="url(#d)"/><path d="M1433.1 1015.52l366.9 702.1-899.595-443 531.785-260.01z" stroke="#3faeff" stroke-miterlimit="10" stroke-width=".05"/><path d="M369.622 1013.88l530.878 260.9L0 1715.07z" fill="url(#e)"/><path d="M369.601 1013.88l531.785 260-900.5 442.1z" stroke="#69a5ff" stroke-miterlimit="10" stroke-width=".05"/><path d="M900.54 1274.5V1.66L370.568 1014.5l531.784 260z" fill="url(#f)"/><path d="M900.504 1274.67V.922L371.438 1013.76l530.878 260.91z" stroke="#88aabd" stroke-miterlimit="10" stroke-width=".05"/><path d="M900.405 1274.5V1.66L1432.19 1015.4z" fill="url(#g)"/><path d="M900.405 1274.67V.922L1433.1 1015.57l-532.695 258.19z" stroke="#51a2ed" stroke-miterlimit="10" stroke-width=".05"/><path d="M900.48 2175.2L.885 1715.89 900.48 1274.7z" fill="url(#a)"/><path d="M900.48 2175.2L.885 1716.8l900.501-442.1v900.5z" stroke="#5a9ddb" stroke-miterlimit="10" stroke-width=".05"/><path d="M900.405 1274.7L1800 1718.61 900.405 2175.2z" fill="url(#b)"/><path d="M900.405 1274.7L1800 1718.61 901.311 2175.2v-900.5z" stroke="url(#c)" stroke-miterlimit="10" stroke-width=".05"/><path d="M1432.19 1015.63l367.81 702.1-899.595-443.91z" fill="url(#d)"/><path d="M1433.1 1015.52l366.9 702.1-899.595-443 531.785-260.01z" stroke="#3faeff" stroke-miterlimit="10" stroke-width=".05"/><path d="M369.622 1013.88l530.878 260.9L0 1715.07z" fill="url(#e)"/><path d="M369.601 1013.88l531.785 260-900.5 442.1z" stroke="#69a5ff" stroke-miterlimit="10" stroke-width=".05"/><path d="M900.54 1274.5V1.66L370.568 1014.5l531.784 260z" fill="url(#f)"/><path d="M900.504 1274.67V.922L371.438 1013.76l530.878 260.91z" stroke="#88aabd" stroke-miterlimit="10" stroke-width=".05"/><path d="M900.405 1274.5V1.66L1432.19 1015.4z" fill="url(#g)"/><path d="M900.405 1274.67V.922L1433.1 1015.57l-532.695 258.19z" stroke="#51a2ed" stroke-miterlimit="10" stroke-width=".05"/><path d="M900.48 2175.2L.885 1715.89 900.48 1274.7z" fill="url(#a)"/><path d="M900.48 2175.2L.885 1716.8l900.501-442.1v900.5z" stroke="#5a9ddb" stroke-miterlimit="10" stroke-width=".05"/><path d="M900.405 1274.7L1800 1718.61 900.405 2175.2z" fill="url(#b)"/><path d="M900.405 1274.7L1800 1718.61 901.311 2175.2v-900.5z" stroke="url(#c)" stroke-miterlimit="10" stroke-width=".05"/><path d="M1432.19 1015.63l367.81 702.1-899.595-443.91z" fill="url(#d)"/><path d="M1433.1 1015.52l366.9 702.1-899.595-443 531.785-260.01z" stroke="#3faeff" stroke-miterlimit="10" stroke-width=".05"/><path d="M369.622 1013.88l530.878 260.9L0 1715.07z" fill="url(#e)"/><path d="M369.601 1013.88l531.785 260-900.5 442.1z" stroke="#69a5ff" stroke-miterlimit="10" stroke-width=".05"/><path d="M900.54 1274.5V1.66L370.568 1014.5l531.784 260z" fill="url(#f)"/><path d="M900.504 1274.67V.922L371.438 1013.76l530.878 260.91z" stroke="#88aabd" stroke-miterlimit="10" stroke-width=".05"/><path d="M900.405 1274.5V1.66L1432.19 1015.4z" fill="url(#g)"/><path d="M900.405 1274.67V.922L1433.1 1015.57l-532.695 258.19z" stroke="#51a2ed" stroke-miterlimit="10" stroke-width=".05"/></svg>