<!--?xml version="1.0" encoding="UTF-8"?--><!DOCTYPE svg><svg xmlns="http://www.w3.org/2000/svg" version="1.1" width="1000px" height="1000px" style="shape-rendering:geometricPrecision; text-rendering:geometricPrecision; image-rendering:optimizeQuality; fill-rule:evenodd; clip-rule:evenodd" xmlns:xlink="http://www.w3.org/1999/xlink">
<g><path style="opacity:0.995" fill="#b7001f" d="M 525.5,30.5 C 439.167,116.5 352.833,202.5 266.5,288.5C 266.5,221.167 266.5,153.833 266.5,86.5C 347.536,42.7613 433.87,24.0946 525.5,30.5 Z"></path></g>
<g><path style="opacity:0.998" fill="#fefefe" d="M 525.5,30.5 C 560.066,32.1492 593.733,38.1492 626.5,48.5C 574.5,100.167 522.5,151.833 470.5,203.5C 469.957,203.56 469.624,203.893 469.5,204.5C 508.665,205.831 547.665,205.831 586.5,204.5C 627.833,163.833 668.833,122.833 709.5,81.5C 736.076,94.7773 760.742,110.777 783.5,129.5C 758.5,153.833 733.833,178.5 709.5,203.5C 708.711,203.783 708.044,204.283 707.5,205C 758.499,205.5 809.499,205.667 860.5,205.5C 882.058,231.583 900.392,259.917 915.5,290.5C 737.666,290.167 559.999,290.5 382.5,291.5C 381.833,291.5 381.5,291.833 381.5,292.5C 343.5,331.167 305.167,369.5 266.5,407.5C 237.167,436.167 208.167,465.167 179.5,494.5C 178.833,494.5 178.5,494.833 178.5,495.5C 132.833,541.5 87.1667,587.5 41.5,633.5C 31.4082,600.626 25.0749,566.96 22.5,532.5C 75.1667,480.5 127.5,428.167 179.5,375.5C 208.833,346.833 237.833,317.833 266.5,288.5C 352.833,202.5 439.167,116.5 525.5,30.5 Z"></path></g>
<g><path style="opacity:0.997" fill="#b7011f" d="M 626.5,48.5 C 655.444,56.479 683.111,67.479 709.5,81.5C 668.833,122.833 627.833,163.833 586.5,204.5C 547.663,204.832 508.996,204.499 470.5,203.5C 522.5,151.833 574.5,100.167 626.5,48.5 Z"></path></g>
<g><path style="opacity:0.996" fill="#f393a3" d="M 266.5,86.5 C 266.5,153.833 266.5,221.167 266.5,288.5C 237.833,317.833 208.833,346.833 179.5,375.5C 179.5,299.833 179.5,224.167 179.5,148.5C 206.175,124.654 235.175,103.988 266.5,86.5 Z"></path></g>
<g><path style="opacity:0.988" fill="#b7011f" d="M 783.5,129.5 C 812.129,151.128 837.462,176.128 859.5,204.5C 809.331,204.832 759.331,204.499 709.5,203.5C 733.833,178.5 758.5,153.833 783.5,129.5 Z"></path></g>
<g><path style="opacity:0.992" fill="#b7001f" d="M 179.5,148.5 C 179.5,224.167 179.5,299.833 179.5,375.5C 127.5,428.167 75.1667,480.5 22.5,532.5C 15.6949,396.72 57.5282,278.72 148,178.5C 158.066,167.931 168.566,157.931 179.5,148.5 Z"></path></g>
<g><path style="opacity:1" fill="#d46679" d="M 470.5,203.5 C 508.996,204.499 547.663,204.832 586.5,204.5C 547.665,205.831 508.665,205.831 469.5,204.5C 469.624,203.893 469.957,203.56 470.5,203.5 Z"></path></g>
<g><path style="opacity:0.996" fill="#d46679" d="M 709.5,203.5 C 759.331,204.499 809.331,204.832 859.5,204.5C 860.167,204.5 860.5,204.833 860.5,205.5C 809.499,205.667 758.499,205.5 707.5,205C 708.044,204.283 708.711,203.783 709.5,203.5 Z"></path></g>
<g><path style="opacity:1" fill="#d74f66" d="M 381.5,292.5 C 381.5,291.833 381.833,291.5 382.5,291.5C 383.498,326.329 383.832,361.329 383.5,396.5C 383.167,396.5 382.833,396.5 382.5,396.5C 382.832,361.663 382.498,326.996 381.5,292.5 Z"></path></g>
<g><path style="opacity:1" fill="#f395a5" d="M 382.5,291.5 C 559.999,290.5 737.666,290.167 915.5,290.5C 915.5,290.833 915.5,291.167 915.5,291.5C 834.167,291.5 752.833,291.5 671.5,291.5C 642.833,291.5 614.167,291.5 585.5,291.5C 546.5,291.5 507.5,291.5 468.5,291.5C 468.5,326.5 468.5,361.5 468.5,396.5C 440.167,396.5 411.833,396.5 383.5,396.5C 383.832,361.329 383.498,326.329 382.5,291.5 Z"></path></g>
<g><path style="opacity:1" fill="#b7011f" d="M 585.5,291.5 C 585.5,326.5 585.5,361.5 585.5,396.5C 546.5,396.5 507.5,396.5 468.5,396.5C 468.5,361.5 468.5,326.5 468.5,291.5C 507.5,291.5 546.5,291.5 585.5,291.5 Z"></path></g>
<g><path style="opacity:1" fill="#f394a4" d="M 585.5,291.5 C 614.167,291.5 642.833,291.5 671.5,291.5C 671.5,326.5 671.5,361.5 671.5,396.5C 642.833,396.5 614.167,396.5 585.5,396.5C 585.5,361.5 585.5,326.5 585.5,291.5 Z"></path></g>
<g><path style="opacity:0.998" fill="#b7001f" d="M 671.5,291.5 C 752.833,291.5 834.167,291.5 915.5,291.5C 932.378,324.794 944.711,359.794 952.5,396.5C 858.833,396.5 765.167,396.5 671.5,396.5C 671.5,361.5 671.5,326.5 671.5,291.5 Z"></path></g>
<g><path style="opacity:1" fill="#b7001f" d="M 381.5,292.5 C 382.498,326.996 382.832,361.663 382.5,396.5C 344.167,435.5 305.5,474.167 266.5,512.5C 266.5,477.5 266.5,442.5 266.5,407.5C 305.167,369.5 343.5,331.167 381.5,292.5 Z"></path></g>
<g><path style="opacity:0.999" fill="#fefefe" d="M 382.5,396.5 C 382.833,396.5 383.167,396.5 383.5,396.5C 411.833,396.5 440.167,396.5 468.5,396.5C 507.5,396.5 546.5,396.5 585.5,396.5C 614.167,396.5 642.833,396.5 671.5,396.5C 765.167,396.5 858.833,396.5 952.5,396.5C 959.432,424.618 963.099,453.285 963.5,482.5C 866.5,482.5 769.5,482.5 672.5,482.5C 672.167,482.5 671.833,482.5 671.5,482.5C 642.833,482.5 614.167,482.5 585.5,482.5C 546.833,482.5 508.167,482.5 469.5,482.5C 469.167,482.5 468.833,482.5 468.5,482.5C 451.497,482.333 434.497,482.5 417.5,483C 405.244,494.753 393.577,506.92 382.5,519.5C 343.5,557.833 304.833,596.5 266.5,635.5C 237.251,663.248 208.417,691.581 180,720.5C 179.536,721.094 179.369,721.761 179.5,722.5C 158.5,742.833 137.833,763.5 117.5,784.5C 99.3303,760.85 83.6636,735.517 70.5,708.5C 107.167,672.5 143.5,636.167 179.5,599.5C 180.167,599.5 180.5,599.167 180.5,598.5C 209.5,570.167 238.167,541.5 266.5,512.5C 305.5,474.167 344.167,435.5 382.5,396.5 Z"></path></g>
<g><path style="opacity:1" fill="#f394a4" d="M 266.5,407.5 C 266.5,442.5 266.5,477.5 266.5,512.5C 238.167,541.5 209.5,570.167 180.5,598.5C 180.832,563.663 180.498,528.996 179.5,494.5C 208.167,465.167 237.167,436.167 266.5,407.5 Z"></path></g>
<g><path style="opacity:1" fill="#f293a3" d="M 468.5,482.5 C 468.5,517.833 468.5,553.167 468.5,588.5C 440.167,588.5 411.833,588.5 383.5,588.5C 383.5,616.833 383.5,645.167 383.5,673.5C 383.5,708.833 383.5,744.167 383.5,779.5C 383.5,808.167 383.5,836.833 383.5,865.5C 382.5,750.335 382.167,635.001 382.5,519.5C 393.577,506.92 405.244,494.753 417.5,483C 434.497,482.5 451.497,482.333 468.5,482.5 Z"></path></g>
<g><path style="opacity:1" fill="#b7001f" d="M 469.5,482.5 C 508.167,482.5 546.833,482.5 585.5,482.5C 585.5,517.5 585.5,552.5 585.5,587.5C 546.833,587.5 508.167,587.5 469.5,587.5C 469.5,552.5 469.5,517.5 469.5,482.5 Z"></path></g>
<g><path style="opacity:1" fill="#f394a4" d="M 585.5,482.5 C 614.167,482.5 642.833,482.5 671.5,482.5C 671.5,517.833 671.5,553.167 671.5,588.5C 642.833,588.5 614.167,588.5 585.5,588.5C 585.5,588.167 585.5,587.833 585.5,587.5C 585.5,552.5 585.5,517.5 585.5,482.5 Z"></path></g>
<g><path style="opacity:0.998" fill="#b7001f" d="M 672.5,482.5 C 769.5,482.5 866.5,482.5 963.5,482.5C 965.27,517.611 962.937,552.611 956.5,587.5C 861.833,587.5 767.167,587.5 672.5,587.5C 672.5,552.5 672.5,517.5 672.5,482.5 Z"></path></g>
<g><path style="opacity:1" fill="#d74f66" d="M 178.5,495.5 C 178.5,494.833 178.833,494.5 179.5,494.5C 180.498,528.996 180.832,563.663 180.5,598.5C 180.5,599.167 180.167,599.5 179.5,599.5C 179.832,564.663 179.498,529.996 178.5,495.5 Z"></path></g>
<g><path style="opacity:0.996" fill="#b7001f" d="M 178.5,495.5 C 179.498,529.996 179.832,564.663 179.5,599.5C 143.5,636.167 107.167,672.5 70.5,708.5C 58.2962,684.567 48.6296,659.567 41.5,633.5C 87.1667,587.5 132.833,541.5 178.5,495.5 Z"></path></g>
<g><path style="opacity:0.996" fill="#b7001f" d="M 382.5,519.5 C 382.167,635.001 382.5,750.335 383.5,865.5C 519.167,865.5 654.833,865.5 790.5,865.5C 693.399,943.052 582.399,977.885 457.5,970C 389.65,964.958 325.984,946.125 266.5,913.5C 266.5,820.833 266.5,728.167 266.5,635.5C 304.833,596.5 343.5,557.833 382.5,519.5 Z"></path></g>
<g><path style="opacity:1" fill="#d45c70" d="M 468.5,482.5 C 468.833,482.5 469.167,482.5 469.5,482.5C 469.5,517.5 469.5,552.5 469.5,587.5C 508.167,587.5 546.833,587.5 585.5,587.5C 585.5,587.833 585.5,588.167 585.5,588.5C 546.5,588.5 507.5,588.5 468.5,588.5C 468.5,553.167 468.5,517.833 468.5,482.5 Z"></path></g>
<g><path style="opacity:0.997" fill="#d45f73" d="M 671.5,482.5 C 671.833,482.5 672.167,482.5 672.5,482.5C 672.5,517.5 672.5,552.5 672.5,587.5C 767.167,587.5 861.833,587.5 956.5,587.5C 956.5,588.167 956.167,588.5 955.5,588.5C 860.833,588.5 766.167,588.5 671.5,588.5C 671.5,553.167 671.5,517.833 671.5,482.5 Z"></path></g>
<g><path style="opacity:0.999" fill="#fefffe" d="M 468.5,588.5 C 507.5,588.5 546.5,588.5 585.5,588.5C 614.167,588.5 642.833,588.5 671.5,588.5C 766.167,588.5 860.833,588.5 955.5,588.5C 950.455,617.684 942.455,646.017 931.5,673.5C 748.833,673.5 566.167,673.5 383.5,673.5C 383.5,645.167 383.5,616.833 383.5,588.5C 411.833,588.5 440.167,588.5 468.5,588.5 Z"></path></g>
<g><path style="opacity:0.996" fill="#f393a3" d="M 266.5,635.5 C 266.5,728.167 266.5,820.833 266.5,913.5C 234.823,896.503 205.823,875.837 179.5,851.5C 179.5,808.5 179.5,765.5 179.5,722.5C 179.369,721.761 179.536,721.094 180,720.5C 208.417,691.581 237.251,663.248 266.5,635.5 Z"></path></g>
<g><path style="opacity:1" fill="#f395a5" d="M 383.5,673.5 C 566.167,673.5 748.833,673.5 931.5,673.5C 931.5,674.167 931.167,674.5 930.5,674.5C 844.167,674.5 757.833,674.5 671.5,674.5C 642.833,674.5 614.167,674.5 585.5,674.5C 546.5,674.5 507.5,674.5 468.5,674.5C 468.5,709.5 468.5,744.5 468.5,779.5C 440.167,779.5 411.833,779.5 383.5,779.5C 383.5,744.167 383.5,708.833 383.5,673.5 Z"></path></g>
<g><path style="opacity:1" fill="#b7011f" d="M 585.5,674.5 C 585.5,709.5 585.5,744.5 585.5,779.5C 546.5,779.5 507.5,779.5 468.5,779.5C 468.5,744.5 468.5,709.5 468.5,674.5C 507.5,674.5 546.5,674.5 585.5,674.5 Z"></path></g>
<g><path style="opacity:1" fill="#f394a4" d="M 585.5,674.5 C 614.167,674.5 642.833,674.5 671.5,674.5C 671.5,709.5 671.5,744.5 671.5,779.5C 642.833,779.5 614.167,779.5 585.5,779.5C 585.5,744.5 585.5,709.5 585.5,674.5 Z"></path></g>
<g><path style="opacity:0.997" fill="#b7001f" d="M 671.5,674.5 C 757.833,674.5 844.167,674.5 930.5,674.5C 916.046,712.425 896.713,747.425 872.5,779.5C 805.5,779.5 738.5,779.5 671.5,779.5C 671.5,744.5 671.5,709.5 671.5,674.5 Z"></path></g>
<g><path style="opacity:0.985" fill="#b7001f" d="M 179.5,722.5 C 179.5,765.5 179.5,808.5 179.5,851.5C 155.976,831.649 135.309,809.316 117.5,784.5C 137.833,763.5 158.5,742.833 179.5,722.5 Z"></path></g>
<g><path style="opacity:0.998" fill="#fefefe" d="M 383.5,779.5 C 411.833,779.5 440.167,779.5 468.5,779.5C 507.5,779.5 546.5,779.5 585.5,779.5C 614.167,779.5 642.833,779.5 671.5,779.5C 738.5,779.5 805.5,779.5 872.5,779.5C 848.987,811.683 821.654,840.349 790.5,865.5C 654.833,865.5 519.167,865.5 383.5,865.5C 383.5,836.833 383.5,808.167 383.5,779.5 Z"></path></g>
</svg>
