<svg width="170" height="170" fill="none" xmlns="http://www.w3.org/2000/svg"><rect width="170" height="170" rx="85" fill="#0B1630"/><path fill-rule="evenodd" clip-rule="evenodd" d="M120.441 49.56H56.475V34h63.966C129.034 34 136 40.966 136 49.56h-15.559zm0 5.186V136c8.593 0 15.559-6.966 15.559-15.559V56.475h-15.559v-1.73zM49.559 120.44h63.967V136h1.728-65.695C40.966 136 34 129.034 34 120.441h15.56zm0-86.441v79.525H34V49.559C34 40.966 40.966 34 49.56 34zm31.819 31.119a.7.7 0 0 0-.7.7v13.13h-13.13a.7.7 0 0 0-.7.7v8.973a.7.7 0 0 0 .7.7h13.13v13.131a.7.7 0 0 0 .7.7h8.973a.7.7 0 0 0 .7-.7v-13.13h13.13a.7.7 0 0 0 .7-.7v-8.974a.7.7 0 0 0-.7-.7h-13.13V65.82a.7.7 0 0 0-.7-.7h-8.973z" fill="#0497EC"/></svg>