<svg width="57" height="49" viewBox="0 0 57 49" fill="none" xmlns="http://www.w3.org/2000/svg">
<g filter="url(#filter0_d_248_135)">
<path d="M55.3872 23.1578C49.8738 7.80837 19.9275 6.7942 11.9402 6.8002C11.203 6.80075 10.8799 7.68222 11.4138 8.1905L52.6521 47.449C53.0969 47.8724 53.8213 47.6911 53.9883 47.1002C55.1038 43.1544 58.1569 30.869 55.3872 23.1578Z" fill="#ACE075"/>
</g>
<g filter="url(#filter1_d_248_135)">
<path d="M37.354 38.3729C33.1336 39.545 19.7749 42.705 12.7704 37.9871C3.5195 31.7561 4.45297 15.4607 1.35431 3.98956C1.11633 3.10859 2.3591 2.31769 3.01007 2.95723L37.6847 37.0232C38.131 37.4617 37.9568 38.2055 37.354 38.3729Z" fill="#3EB751"/>
</g>
<defs>
<filter id="filter0_d_248_135" x="11.1489" y="6.80017" width="45.3687" height="41.3661" filterUnits="userSpaceOnUse" color-interpolation-filters="sRGB">
<feFlood flood-opacity="0" result="BackgroundImageFix"/>
<feColorMatrix in="SourceAlpha" type="matrix" values="0 0 0 0 0 0 0 0 0 0 0 0 0 0 0 0 0 0 127 0" result="hardAlpha"/>
<feOffset dy="0.485723"/>
<feComposite in2="hardAlpha" operator="out"/>
<feColorMatrix type="matrix" values="0 0 0 0 0.302394 0 0 0 0 0.470833 0 0 0 0 0.16283 0 0 0 1 0"/>
<feBlend mode="normal" in2="BackgroundImageFix" result="effect1_dropShadow_248_135"/>
<feBlend mode="normal" in="SourceGraphic" in2="effect1_dropShadow_248_135" result="shape"/>
</filter>
<filter id="filter1_d_248_135" x="1.32422" y="2.72479" width="36.6108" height="38.2595" filterUnits="userSpaceOnUse" color-interpolation-filters="sRGB">
<feFlood flood-opacity="0" result="BackgroundImageFix"/>
<feColorMatrix in="SourceAlpha" type="matrix" values="0 0 0 0 0 0 0 0 0 0 0 0 0 0 0 0 0 0 127 0" result="hardAlpha"/>
<feOffset dy="0.485723"/>
<feComposite in2="hardAlpha" operator="out"/>
<feColorMatrix type="matrix" values="0 0 0 0 0.053125 0 0 0 0 0.354167 0 0 0 0 0.100076 0 0 0 1 0"/>
<feBlend mode="normal" in2="BackgroundImageFix" result="effect1_dropShadow_248_135"/>
<feBlend mode="normal" in="SourceGraphic" in2="effect1_dropShadow_248_135" result="shape"/>
</filter>
</defs>
</svg>
