<svg viewBox="0 0 55.8 55.8" xmlns="http://www.w3.org/2000/svg" xmlns:xlink="http://www.w3.org/1999/xlink"><linearGradient id="a" gradientUnits="userSpaceOnUse" x1="3.237" x2="52.517" y1="27.877" y2="27.877"><stop offset="0" stop-color="#45dca3"/><stop offset="1" stop-color="#128d89"/></linearGradient><path d="m29.2 3.3c-.4 0-.9-.1-1.3-.1-13.6 0-24.7 11.1-24.7 24.7 0 3.7.9 7.3 2.4 10.4 0 .1.1.2.1.2 0 .1.1.1.1.1 3.7 7.5 11 12.9 19.7 13.7h.2c.5.1 1 .1 1.5.1h.6c13.6 0 24.6-11.1 24.6-24.6.1-13.1-10.2-23.8-23.2-24.5zm9.9 12.6c0 6.2-5 11.2-11.2 11.2-7 0-12.7 5.7-12.7 12.7 0 3.3 1.3 6.3 3.3 8.5-.8-.5-1.5-1.1-2-1.7-2.5-2.5-4-5.9-4-9.1 0-6.6 4.1-10.3 12.6-11.5 7.4-1 11.1-4.7 11.1-10.8 0-3.2-1.4-6.1-4.1-8.2-1.4-1.1-3.1-2-5-2.4h.8c6.2.1 11.2 5.1 11.2 11.3zm-32.2 21.9c-.3-1.2-1.8-6.3.1-10.1.9-1.8 2.5-3.1 4.8-3.8.9-.3 1.7-.5 2.5-.7 7-2 10.9-3.2 11.1-8.5.1-2.7-1.6-5.1-4.3-6.3-.6-.3-1.4-.5-2.1-.6 2.6-.4 5.2-.2 7.1.9 2.3 1.2 3.6 3.3 3.6 6.1 0 3.9-1.9 6.2-6.3 7.4-.5.1-1.1.3-1.6.4-6.7 1.8-15 4-14.3 13.9.1 1.3.5 2.7 1.1 4.1-.7-.9-1.2-1.8-1.7-2.8zm1.5-22.5c2.7-3.5 5.9-4.2 7.8-3.8 1.3.3 2.2 1.1 2.4 2.3.2 1.1.1 1.9-.4 2.6-1.2 1.5-4 1.9-6.4 2.1-2.7.2-4.8 1.3-6.2 3.2.6-2.3 1.5-4.4 2.8-6.4zm12-9.4s0 .1 0 0c3.8-.9 8 0 10.8 2.3 2.3 1.8 3.5 4.3 3.5 7.1 0 5.4-3.2 8.5-9.8 9.4-9.2 1.3-13.8 5.6-13.8 12.9 0 2.5.8 5.1 2.2 7.3-2.6-2.6-4.3-5.7-4.5-8.5-.6-8.7 6.5-10.5 13.3-12.4.5-.1 1.1-.3 1.6-.4 4.9-1.4 7.3-4.2 7.3-8.8 0-3.3-1.5-6-4.3-7.4-2-1.1-4.6-1.4-7.1-1.2.2-.1.5-.2.8-.3zm-15.5 23.4c0-2.1.3-4.8 1.7-6.7 1.2-1.5 2.9-2.4 5.2-2.6 2.8-.2 5.9-.7 7.4-2.7.8-1 1-2.3.7-3.8-.3-1.7-1.6-2.9-3.5-3.4-.8-.2-1.8-.2-2.8 0 2.5-1.3 5-1.2 6.8-.4 2.2.9 3.5 2.8 3.5 4.9-.1 4.3-3 5.2-10 7.2-.8.2-1.6.5-2.5.7-2.7.8-4.6 2.3-5.7 4.5-.3.8-.6 1.6-.8 2.3zm23 21.8h-.1c-6.2-.1-11.2-5.1-11.2-11.3s5-11.2 11.2-11.2c7 0 12.7-5.7 12.7-12.7 0-3.9-1.8-7.4-4.6-9.8 8.8 3.3 15.1 11.8 15.1 21.7.1 12.9-10.3 23.3-23.1 23.3z" fill="url(#a)"/></svg>