<?xml version="1.0" encoding="utf-8"?>
<!-- Generator: Adobe Illustrator 23.1.0, SVG Export Plug-In . SVG Version: 6.00 Build 0)  -->
<svg version="1.1" id="Layer_1" xmlns="http://www.w3.org/2000/svg" xmlns:xlink="http://www.w3.org/1999/xlink" x="0px" y="0px"
	 viewBox="0 0 55.8 55.8" xml:space="preserve">
<style type="text/css">
	.st0{fill:url(#SVGID_1_);}
</style>
<g>
	<linearGradient id="SVGID_1_" gradientUnits="userSpaceOnUse" x1="3.2375" y1="27.8773" x2="52.5175" y2="27.8773">
		<stop  offset="0" style="stop-color:#45DCA3"/>
		<stop  offset="1" style="stop-color:#128D89"/>
	</linearGradient>
	<path class="st0" d="M29.2,3.3c-0.4,0-0.9-0.1-1.3-0.1C14.3,3.2,3.2,14.3,3.2,27.9c0,3.7,0.9,7.3,2.4,10.4c0,0.1,0.1,0.2,0.1,0.2
		c0,0.1,0.1,0.1,0.1,0.1c3.7,7.5,11,12.9,19.7,13.7c0.1,0,0.2,0,0.2,0c0.5,0.1,1,0.1,1.5,0.1c0.2,0,0.3,0,0.5,0c0,0,0,0,0,0
		c0,0,0,0,0,0c0,0,0.1,0,0.1,0c13.6,0,24.6-11.1,24.6-24.6C52.5,14.7,42.2,4,29.2,3.3z M39.1,15.9c0,6.2-5,11.2-11.2,11.2
		c-7,0-12.7,5.7-12.7,12.7c0,3.3,1.3,6.3,3.3,8.5c-0.8-0.5-1.5-1.1-2-1.7c-2.5-2.5-4-5.9-4-9.1c0-6.6,4.1-10.3,12.6-11.5
		c7.4-1,11.1-4.7,11.1-10.8c0-3.2-1.4-6.1-4.1-8.2c-1.4-1.1-3.1-2-5-2.4c0.3,0,0.5,0,0.8,0C34.1,4.7,39.1,9.7,39.1,15.9z M6.9,37.8
		C6.6,36.6,5.1,31.5,7,27.7c0.9-1.8,2.5-3.1,4.8-3.8c0.9-0.3,1.7-0.5,2.5-0.7c7-2,10.9-3.2,11.1-8.5c0.1-2.7-1.6-5.1-4.3-6.3
		c-0.6-0.3-1.4-0.5-2.1-0.6c2.6-0.4,5.2-0.2,7.1,0.9c2.3,1.2,3.6,3.3,3.6,6.1c0,3.9-1.9,6.2-6.3,7.4c-0.5,0.1-1.1,0.3-1.6,0.4
		c-6.7,1.8-15,4-14.3,13.9c0.1,1.3,0.5,2.7,1.1,4.1C7.9,39.7,7.4,38.8,6.9,37.8z M8.4,15.3C8.4,15.3,8.4,15.3,8.4,15.3
		c2.7-3.5,5.9-4.2,7.8-3.8c1.3,0.3,2.2,1.1,2.4,2.3c0.2,1.1,0.1,1.9-0.4,2.6c-1.2,1.5-4,1.9-6.4,2.1c-2.7,0.2-4.8,1.3-6.2,3.2
		c0,0,0,0,0,0C6.2,19.4,7.1,17.3,8.4,15.3z M20.4,5.9C20.4,5.9,20.4,6,20.4,5.9c3.8-0.9,8,0,10.8,2.3c2.3,1.8,3.5,4.3,3.5,7.1
		c0,5.4-3.2,8.5-9.8,9.4c-9.2,1.3-13.8,5.6-13.8,12.9c0,2.5,0.8,5.1,2.2,7.3c-2.6-2.6-4.3-5.7-4.5-8.5C8.2,27.7,15.3,25.9,22.1,24
		c0.5-0.1,1.1-0.3,1.6-0.4c4.9-1.4,7.3-4.2,7.3-8.8c0-3.3-1.5-6-4.3-7.4c-2-1.1-4.6-1.4-7.1-1.2C19.8,6.1,20.1,6,20.4,5.9z
		 M4.9,29.3c0-2.1,0.3-4.8,1.7-6.7c1.2-1.5,2.9-2.4,5.2-2.6c2.8-0.2,5.9-0.7,7.4-2.7c0.8-1,1-2.3,0.7-3.8c-0.3-1.7-1.6-2.9-3.5-3.4
		c-0.8-0.2-1.8-0.2-2.8,0c2.5-1.3,5-1.2,6.8-0.4c2.2,0.9,3.5,2.8,3.5,4.9c-0.1,4.3-3,5.2-10,7.2c-0.8,0.2-1.6,0.5-2.5,0.7
		c-2.7,0.8-4.6,2.3-5.7,4.5C5.4,27.8,5.1,28.6,4.9,29.3z M27.9,51.1C27.9,51.1,27.9,51.1,27.9,51.1c-0.1,0-0.1,0-0.1,0
		C21.6,51,16.6,46,16.6,39.8c0-6.2,5-11.2,11.2-11.2c7,0,12.7-5.7,12.7-12.7c0-3.9-1.8-7.4-4.6-9.8c8.8,3.3,15.1,11.8,15.1,21.7
		C51.1,40.7,40.7,51.1,27.9,51.1z"/>
</g>
</svg>
