<svg height="637.517" viewBox="0 0 168.671 168.677" width="637.498" xmlns="http://www.w3.org/2000/svg">
    <path
        d="M24.701 24.701c-32.935 32.936-32.935 86.334 0 119.27L143.973 24.7c-32.935-32.935-86.336-32.935-119.272 0zM69.43 54.52c-8.234-8.234-8.234-21.585 0-29.819s21.585-8.233 29.816 0c8.234 8.234 8.234 21.585 0 29.819s-21.582 8.234-29.816 0z"
        fill="#f66" />
    <path
        d="M143.968 143.973c-32.928-32.938-86.329-32.938-119.267 0L143.968 24.696c32.938 32.938 32.938 86.339 0 119.277z"
        fill="#d95e59" />
    <path d="M143.968 143.973c-32.928 32.938-86.329 32.938-119.267 0 32.938-32.938 86.34-32.938 119.267 0z"
        fill="#fff4c7" />
    <path
        d="M76.883 32.155c-4.117 4.117-4.117 10.792 0 14.91s10.792 4.116 14.909 0 4.117-10.793 0-14.91-10.792-4.117-14.91 0z"
        fill="#016273" />
    <path
        d="M78.986 59.741c-3.298-.91-7.11-3.218-9.565-5.792-9.019-9.456-7.42-24.438 3.372-31.601 10.487-6.962 24.512-3.21 30.074 8.045 5.853 11.842-.23 25.467-13.07 29.276-2.747.816-7.99.85-10.81.072zm8.608-9.94c6.46-1.919 9.42-10.061 5.79-15.932-2.714-4.39-8.517-6.122-13.428-4.01-6.59 2.835-8.455 11.459-3.633 16.796 3.117 3.45 6.791 4.476 11.271 3.146z"
        fill="#fff" />
</svg>