<svg fill="none" height="39" viewBox="0 0 39 39" width="39" xmlns="http://www.w3.org/2000/svg" xmlns:xlink="http://www.w3.org/1999/xlink"><radialGradient id="a" cx="0" cy="0" gradientTransform="matrix(0 38.2413 -26.918 0 19.5478 6.66838)" gradientUnits="userSpaceOnUse" r="1"><stop offset=".03125" stop-color="#3a3a3a"/><stop offset="1" stop-color="#1c1c1c"/></radialGradient><linearGradient id="b" gradientUnits="userSpaceOnUse" x1="19.5088" x2="19.5088" y1="1.02961" y2="37.9886"><stop offset="0" stop-color="#fff"/><stop offset="1" stop-color="#111"/></linearGradient><path d="m19.5085 1.69983h.0007c9.8356 0 17.8089 7.97331 17.8089 17.80897v.0006c0 9.8356-7.9733 17.8089-17.8089 17.8089h-.0007c-9.83558 0-17.8089-7.9733-17.8089-17.8089v-.0006c0-9.83566 7.97332-17.80897 17.8089-17.80897z" fill="#111" stroke="#111" stroke-width=".900384"/><path d="m19.5092 1.37183h-.0007c-10.01676 0-18.13693 8.12018-18.13693 18.13697v.0007c0 10.0167 8.12017 18.1368 18.13693 18.1368h.0007c10.0167 0 18.1369-8.1201 18.1369-18.1368v-.0007c0-10.01679-8.1202-18.13697-18.1369-18.13697z" fill="url(#a)" fill-opacity=".7"/><path d="m19.5092 1.37183h-.0007c-10.01676 0-18.13693 8.12018-18.13693 18.13697v.0007c0 10.0167 8.12017 18.1368 18.13693 18.1368h.0007c10.0167 0 18.1369-8.1201 18.1369-18.1368v-.0007c0-10.01679-8.1202-18.13697-18.1369-18.13697z" stroke="url(#b)" stroke-width=".911781"/><path clip-rule="evenodd" d="m14.2246 5.25183c-5.78752 2.14263-9.91277 7.71167-9.91277 14.24427s4.12525 12.1016 9.91277 14.2443v-1.498c-5.00044-2.0703-8.5183-6.9974-8.5183-12.7463 0-5.7488 3.51786-10.67604 8.5183-12.74637zm10.5434 1.49809v-1.49792c5.7874 2.14275 9.9124 7.7117 9.9124 14.2441s-4.125 12.1014-9.9124 14.2441v-1.4979c5.0002-2.0705 8.5179-6.9975 8.5179-12.7462 0-5.7486-3.5177-10.67573-8.5179-12.74618z" fill="#fff" fill-rule="evenodd"/><path clip-rule="evenodd" d="m19.497 6.74854.7953 1.36647 4.868 8.36369h3.0784v1.3945h-17.4774v-1.3945h3.0712l4.869-8.36377zm-.0002 3.65886 3.5338 6.0713h-7.0682zm5.6722 12.021h3.0697v-1.3944h-17.4774v1.3944h3.0625l4.8777 8.3787.7955 1.3664.7953-1.3665zm-2.1297 0h-7.0855l3.543 6.0862z" fill="#fff" fill-rule="evenodd"/><circle cx="19.5" cy="19.5" r="17.5" stroke="#1be3c2" stroke-width="2"/></svg>