<svg width="128" height="128" viewBox="0 0 128 128" fill="none" xmlns="http://www.w3.org/2000/svg">
<circle cx="64" cy="64" r="64" fill="#515BE7"/>
<path fill-rule="evenodd" clip-rule="evenodd" d="M54.5225 26.061C54.2666 24.5493 56.3949 23.9383 56.9796 25.3556L58.1201 28.1192C58.1557 28.2051 58.1828 28.2922 58.2019 28.3795C60.9371 27.7202 63.6923 27.3881 66.4203 27.3623C66.4176 27.2724 66.4228 27.1808 66.4365 27.0882L66.8713 24.1378C67.0951 22.6209 69.3079 22.6975 69.4264 24.2262L69.6565 27.1996C69.6636 27.2933 69.6625 27.3853 69.6535 27.4752C72.4281 27.6953 75.1545 28.2302 77.7821 29.0572C77.8073 28.9708 77.8404 28.8853 77.882 28.8014L79.2102 26.1247C79.8915 24.7512 81.9725 25.5078 81.6126 26.9982L80.9113 29.903C80.8894 29.9939 80.8599 30.0808 80.8238 30.1631C83.3767 31.2201 85.8098 32.5627 88.0716 34.1677C88.1209 34.096 88.1775 34.0273 88.2407 33.9626L90.3309 31.8272C91.4036 30.7315 93.1488 32.0942 92.3459 33.4004L90.7813 35.9461C90.7351 36.0217 90.6831 36.0918 90.627 36.1561C92.9247 38.1126 94.9977 40.3668 96.7798 42.8894C96.7754 42.6465 96.774 42.4051 96.7727 42.168V42.1668L96.7724 42.1248C96.7669 40.9151 97.8609 39.9852 99.1004 39.8119C99.6928 39.7333 100.295 39.8535 100.811 40.1536C101.328 40.4537 101.731 40.9169 101.957 41.4704C102.662 43.2651 102.781 45.2371 102.297 47.1037C102.257 47.2719 102.211 47.4399 102.158 47.6303L102.158 47.6313L102.157 47.6352C102.137 47.7065 102.116 47.781 102.095 47.8599C103.907 48.8812 105.327 50.476 106.133 52.3936C106.781 53.9377 106.167 55.5146 104.74 56.1407C104.005 56.4567 103.285 56.3735 102.626 56.0282C103.208 58.5946 103.504 61.1762 103.531 63.7344C103.608 63.7341 103.685 63.7396 103.764 63.7511L106.714 64.1861C108.231 64.4097 108.154 66.6228 106.625 66.741L103.652 66.9711C103.574 66.9771 103.497 66.9774 103.421 66.9719C103.203 69.7503 102.67 72.4806 101.843 75.112C101.913 75.1348 101.982 75.1632 102.05 75.1969L104.727 76.5248C106.1 77.2061 105.344 79.2873 103.853 78.9275L100.949 78.2262C100.876 78.2084 100.805 78.1857 100.737 78.1589C99.68 80.7162 98.3359 83.1534 96.7289 85.4185C96.7844 85.4598 96.8381 85.5058 96.8892 85.5558L99.0243 87.6455C100.12 88.7181 98.7573 90.4636 97.451 89.6608L94.9057 88.0965C94.8463 88.0598 94.7905 88.0201 94.738 87.9774C92.9569 90.0693 90.9291 91.9746 88.6769 93.644C88.7152 93.699 88.7505 93.7567 88.7825 93.818L90.1646 96.4602C90.8752 97.8187 89.0397 99.0574 88.0456 97.8904L86.1119 95.6204C86.067 95.5676 86.0262 95.5129 85.9899 95.4565C84.0868 96.6208 82.0502 97.6274 79.8907 98.4527C79.4182 98.633 78.9442 98.8032 78.4692 98.963C78.4884 99.0262 78.504 99.0911 78.5152 99.1581L79.0143 102.105C79.2704 103.617 77.1421 104.228 76.5571 102.811L75.4169 100.047C75.3915 99.9861 75.3704 99.9243 75.3534 99.8619C72.6125 100.524 69.8511 100.857 67.1167 100.882C67.1156 100.947 67.1101 101.012 67.1006 101.079L66.6655 104.028C66.4419 105.545 64.2288 105.469 64.1106 103.94L63.8805 100.967C63.8753 100.9 63.8745 100.834 63.8778 100.768C61.0975 100.546 58.3653 100.009 55.7327 99.1781C55.7111 99.241 55.6851 99.3037 55.6545 99.3653L54.3268 102.042C53.6452 103.415 51.5643 102.658 51.9241 101.168L52.6254 98.2639C52.6418 98.196 52.6624 98.1304 52.6867 98.0674C50.1302 97.006 47.6941 95.6581 45.4306 94.0468C45.3898 94.1015 45.3449 94.154 45.2958 94.2041L43.2059 96.3389C42.1334 97.4348 40.388 96.0721 41.1908 94.7658L42.7552 92.2206C42.7918 92.1609 42.8318 92.1048 42.8746 92.052C40.7861 90.2682 38.8842 88.2382 37.2185 85.9835C37.1605 86.0251 37.0989 86.0629 37.0337 86.0971L34.3915 87.4792C33.0329 88.1898 31.794 86.3543 32.9612 85.3602L35.2311 83.4267C35.2887 83.3775 35.3486 83.3337 35.4106 83.2946C34.4988 81.7995 33.6842 80.222 32.9783 78.5677L27.9672 85.2108C27.303 86.0913 26.0076 86.1855 25.3138 85.3279C20.5649 79.4575 19.978 71.6936 20.4435 66.9503C20.5555 65.8098 21.7495 65.181 22.8054 65.6265L30.3103 68.7924C30.1225 67.3358 30.0242 65.8801 30.0121 64.4318C29.9335 64.4324 29.8537 64.4269 29.7732 64.4151L26.8231 63.9801C25.3062 63.7565 25.3828 61.5434 26.9115 61.4252L29.8846 61.1951C29.9674 61.1888 30.049 61.1888 30.1289 61.1954C30.3526 58.4192 30.8914 55.6916 31.7224 53.0635C31.6428 53.0391 31.564 53.0079 31.4866 52.9693L28.81 51.6414C27.4365 50.9601 28.1932 48.879 29.6836 49.2388L32.5881 49.9402C32.6735 49.9608 32.7554 49.9881 32.8333 50.0212C33.8941 47.4691 35.2405 45.0373 36.8493 42.7775C36.7789 42.7286 36.7115 42.673 36.6478 42.6107L34.5125 40.5206C33.4168 39.4481 34.7795 37.7027 36.0858 38.5055L38.6314 40.0701C38.7071 40.1166 38.7772 40.1685 38.8416 40.2249C40.6227 38.1395 42.6494 36.2401 44.8997 34.5762C44.8459 34.506 44.7972 34.4302 44.7547 34.3487L43.3724 31.7062C42.6618 30.3475 44.4972 29.1087 45.4914 30.2759L47.4252 32.5461C47.4858 32.6173 47.5387 32.6921 47.5838 32.7697C49.4784 31.6132 51.5052 30.6126 53.6532 29.7918C54.1312 29.6091 54.6109 29.437 55.0916 29.2755C55.061 29.1906 55.0374 29.1016 55.0218 29.009L54.5225 26.061ZM37.2068 75.4199C43.4465 91.7486 61.7416 99.9273 78.07 93.6875C94.2449 87.5068 102.423 69.4961 96.5097 53.2856C94.5486 54.9329 92.1954 56.4252 89.4592 57.4281C83.3184 59.6789 78.6298 60.6593 74.6732 61.0471C70.1739 67.2338 62.525 69.8149 58.8242 70.3463L59.2959 61.0818C56.8861 61.1822 54.2967 61.4997 51.2688 62.2773C45.5815 63.7385 40.2841 66.1215 35.476 68.8884C35.8117 71.0782 36.3838 73.2662 37.2068 75.4199ZM45.2734 76.217C43.7571 76.4867 42.3091 75.4762 42.0393 73.9598C41.7695 72.4436 42.7799 70.9956 44.2962 70.7258C45.8125 70.456 47.2605 71.4665 47.5302 72.9827C47.8 74.4991 46.7897 75.9472 45.2734 76.217ZM58.1292 76.5546C57.1397 76.7305 56.1946 76.0711 56.0184 75.0814C55.8424 74.0917 56.5019 73.1469 57.4916 72.9706C58.481 72.7947 59.4261 73.4541 59.6024 74.4438C59.7783 75.4333 59.1189 76.3784 58.1292 76.5546ZM74.4546 75.916C73.4648 76.0919 72.5197 75.4325 72.3438 74.4428C72.1676 73.453 72.827 72.5082 73.8167 72.332C74.8064 72.1561 75.7513 72.8155 75.9275 73.8052C76.1037 74.7946 75.444 75.7397 74.4546 75.916ZM77.8538 84.6343C78.03 85.624 78.9752 86.2834 79.9646 86.1075C80.9543 85.9313 81.6137 84.9861 81.4378 83.9967C81.2616 83.007 80.3165 82.3476 79.327 82.5235C78.3373 82.6997 77.6779 83.6448 77.8538 84.6343ZM58.776 89.0771C57.7863 89.2534 56.8412 88.5939 56.6652 87.6042C56.489 86.6145 57.1485 85.6694 58.1382 85.4935C59.1279 85.3172 60.0727 85.9767 60.2489 86.9664C60.4252 87.9561 59.7654 88.9012 58.776 89.0771ZM48.9533 81.3844C49.1296 82.3741 50.0747 83.0335 51.0644 82.8576C52.0538 82.6814 52.7133 81.7363 52.5373 80.7468C52.3611 79.7571 51.4163 79.0977 50.4266 79.2736C49.4368 79.4499 48.7774 80.395 48.9533 81.3844ZM66.7243 81.9711C65.7346 82.147 64.7895 81.4876 64.6136 80.4978C64.4373 79.5081 65.0968 78.5633 66.0865 78.3871C67.0762 78.2109 68.021 78.8706 68.1973 79.86C68.3735 80.8497 67.7138 81.7948 66.7243 81.9711ZM82.2609 74.5259C82.5307 76.0421 83.9787 77.0526 85.4949 76.7828C87.0113 76.513 88.0215 75.065 87.7517 73.5488C87.4819 72.0324 86.0339 71.0219 84.5177 71.2917C83.0013 71.5617 81.9911 73.0095 82.2609 74.5259ZM66.651 88.6604C66.9211 90.1769 68.3688 91.1874 69.8853 90.9173C71.4014 90.6475 72.4119 89.1997 72.1421 87.6833C71.8723 86.1669 70.4243 85.1566 68.9081 85.4264C67.3917 85.6962 66.3812 87.1442 66.651 88.6604ZM87.9734 45.8714C88.5316 48.3235 87.0841 50.7436 84.7407 51.2772C82.3971 51.8105 80.045 50.2551 79.4868 47.8029C78.9289 45.3508 80.3761 42.9306 82.7197 42.3972C85.0631 41.8638 87.4152 43.4193 87.9734 45.8714Z" fill="white"/>
<path d="M84.9235 49.1468C85.9791 48.9066 86.6098 47.7245 86.3326 46.5066C86.0555 45.2886 84.9752 44.4961 83.9198 44.7363C82.8641 44.9765 82.2334 46.1586 82.5106 47.3765C82.7878 48.5944 83.8681 49.387 84.9235 49.1468Z" fill="white"/>
</svg>
