<svg width="500" height="500" viewBox="0 0 500 500" fill="none" xmlns="http://www.w3.org/2000/svg">
<g clip-path="url(#clip0_11526_3)">
<circle cx="250" cy="250" r="250" fill="#FFDB40"/>
<path d="M225.288 75.4473L250.01 58.9648L274.732 75.4473L301.663 93.4028L250.01 248.378L198.357 93.4028L225.288 75.4473Z" fill="black" stroke="black" stroke-width="1.02041"/>
<path d="M355.95 109.081L385.087 114.908L390.914 144.054L391.415 143.954L390.914 144.054L397.262 175.786L251.156 248.847L324.209 102.733L355.95 109.081Z" fill="black" stroke="black" stroke-width="1.02041"/>
<path d="M424.55 225.272L441.034 250.003L424.55 274.725L406.596 301.656L251.629 250.003L406.596 198.342L424.55 225.272Z" fill="black" stroke="black" stroke-width="1.02041"/>
<path d="M390.914 355.926L385.087 385.071L355.95 390.899L324.209 397.247L251.156 251.139L397.265 324.194L390.914 355.926Z" fill="black" stroke="black" stroke-width="1.02041"/>
<path d="M198.357 406.586L250.013 251.621L301.67 406.591L274.74 424.539L275.023 424.964L274.74 424.539L250.013 441.024L225.287 424.539L198.357 406.586Z" fill="black" stroke="black" stroke-width="1.02041"/>
<path d="M102.749 324.194L248.858 251.139L175.802 397.25L144.062 390.899L114.927 385.072L109.098 355.926L108.597 356.026L109.098 355.926L102.749 324.194Z" fill="black" stroke="black" stroke-width="1.02041"/>
<path d="M75.4672 274.725L58.9817 250.001L75.4672 225.272L93.421 198.342L248.382 250.001L93.416 301.659L75.4672 274.725L75.4672 274.725Z" fill="black" stroke="black" stroke-width="1.02041"/>
<path d="M144.061 109.081L175.802 102.733L248.855 248.847L102.749 175.786L109.097 144.054L109.097 144.054L114.925 114.908L144.061 109.081Z" fill="black" stroke="black" stroke-width="1.02041"/>
<path d="M250 345.171C248.252 345.171 246.538 344.69 245.044 343.781C179.051 280.193 153.203 241.825 153.203 220.462C153.203 193.997 174.876 172.547 201.602 172.547C228.328 172.547 250 201.586 250 201.586C250 201.586 271.673 172.547 298.399 172.547C325.125 172.547 346.798 193.997 346.798 220.462C346.798 241.825 320.95 280.193 254.956 343.781C253.463 344.69 251.749 345.171 250 345.171Z" fill="#FFDB40"/>
</g>
<defs>
<clipPath id="clip0_11526_3">
<rect width="500" height="500" fill="white"/>
</clipPath>
</defs>
</svg>
