<svg fill="none" height="49" viewBox="0 0 49 49" width="49" xmlns="http://www.w3.org/2000/svg"><path d="m42.9238 40.6632c3.9271-4.4709 6.0871-10.2156 6.0762-16.1599.0011-1.6596-.1653-3.315-.4967-4.9413-.0319-.2098-.0801-.4169-.1441-.6193 0 .0231.0166.0446.0232.0677-2.4834-10.88833-12.2367-19.0104-23.8791-19.0104-13.5315 0-24.50329617 10.9693-24.50329617 24.5033-.00081109 1.4557.12716817 2.9086.38244917 4.3418-.001262.0037-.001262.0078 0 .0115.047608.2258.115202.4468.201987.6606-.088584-.2198-.157829-.4469-.206953-.6787 2.048013 11.4614 12.066213 20.1615 24.115913 20.1615 4.2382.0054 8.4043-1.0934 12.086-3.1874l1.3527 1.6713c.3373.4146.7532.7589 1.224 1.0131s.9871.4133 1.5196.4684c.5324.0551 1.0705.0049 1.5835-.1476.513-.1524.9909-.4042 1.4063-.741.8421-.6814 1.3787-1.6683 1.492-2.744.1133-1.0756-.2059-2.1522-.8877-2.9933zm4.7053-23.083c-.0695-.0842-.1424-.1651-.2169-.2444.0745.0776.1474.1602.2169.2444zm.6623 1.1825c-.0183-.0479-.0365-.0958-.0563-.142.0265.0478.0447.1023.0629.142zm-.1308-.3171c-.0216-.0462-.0447-.0925-.0696-.1404.0315.0479.0547.0875.0762.1404zm-.1557-.3039c-.0265-.0462-.0546-.0908-.0844-.1371.0364.0463.0646.0909.0911.1371zm-.1788-.289c-.0331-.0462-.0695-.0925-.1043-.1387.0414.0462.0778.0925.1109.1387zm-3.0149-1.7638c-.1208-.0099-.2417-.0165-.3659-.0165.1308.0082.2517.0082.3725.0165zm2.4984 1.1478c-.0481-.0462-.0944-.0941-.1457-.1387.0447.0446.0976.0925.1457.1387zm-.2666-.2345c-.0497-.0408-.0993-.0804-.149-.1189.053.0385.1026.0781.149.1189zm-.2765-.2081c-.0513-.0347-.1043-.071-.1573-.104.058.033.111.0693.1623.104zm-.2914-.1833c-.0546-.0314-.1109-.0611-.1655-.0909.0596.0298.1159.0562.1705.0909zm-.6275-.2973c-.0629-.0231-.1274-.0429-.1904-.0627.0613.0264.1325.0462.1954.0693zm-.3311-.1057c-.0679-.0182-.1374-.033-.2069-.0479.0778.0215.1407.0364.2086.0545zm-.3444-.0776c-.0778-.0132-.1572-.0231-.2367-.033.0811.0165.1606.0264.2384.0396zm-44.436997 13.7074c-.046358-.0908-.086093-.1833-.125828-.2758.041391.0975.076158.19.127483.2808zm.165563.2973c-.033113-.0545-.061259-.1106-.092716-.1651.033112.0594.061258.1156.09437.1701zm36.768134 4.0396-1.7317-2.147v-.0082c-.3384-.4144-.7553-.7581-1.2269-1.0115-.4717-.2535-.9888-.4116-1.5218-.4655-.533-.0538-1.0714-.0023-1.5845.1517-.513.1539-.9905.4073-1.4052.7456-.841.6821-1.3768 1.6689-1.49 2.7442-.1133 1.0752.2052 2.1515.8856 2.9931l1.76 2.1717c-2.2471 1.036-4.7008 1.5488-7.1758 1.4995s-4.9063-.6594-7.11-1.7841c-2.2038-1.1246-4.1223-2.7345-5.6105-4.7077-1.4882-1.9733-2.50705-4.2582-2.97953-6.6821-.91179-4.2252-.10358-8.6387 2.24683-12.2695 2.3504-3.6308 6.0505-6.18154 10.2863-7.09105 4.2358-.90952 8.6602-.10333 12.3001 2.24125 3.6399 2.3445 6.197 6.0354 7.1088 10.2606 0 0 0-.0149 0-.0231.0199.1288.0447.256.0762.3798.4667 2.2426.4566 4.558-.0296 6.7965-.4863 2.2385-1.4378 4.3504-2.7933 6.1992zm2.7037-13.7174v.0859c.0066-.0297.0033-.0578.0016-.0859z" fill="#000"/></svg>