<svg height="200" viewBox="0 0 200 200" width="200" xmlns="http://www.w3.org/2000/svg"><circle cx="100" cy="100" fill="#006cff" r="100"/><path d="m-147.339 805.582a78.458 78.458 0 0 0 -110.823-1.323 77.856 77.856 0 0 0 -23.615 55.141 77.83 77.83 0 0 0 22.263 55.655 3.155 3.155 0 0 0 .473.407 9.045 9.045 0 0 0 .972.8 3.831 3.831 0 0 0 .484.275l.081.039a9.6 9.6 0 0 0 1.044.555 5.1 5.1 0 0 0 .525.172l.108.027a8.726 8.726 0 0 0 1.06.314 4.85 4.85 0 0 0 .584.073l.121.007a9.1 9.1 0 0 0 1.1.1 5.6 5.6 0 0 0 .719-.057l.4-.04a4.754 4.754 0 0 0 .6-.071 8.988 8.988 0 0 0 .989-.277l.141-.039a4.112 4.112 0 0 0 .534-.17 10.426 10.426 0 0 0 1.188-.6 3.225 3.225 0 0 0 .359-.2 9.022 9.022 0 0 0 1.438-1.141l39.1-38.2a17.534 17.534 0 0 0 9.213-.125 17.484 17.484 0 0 0 10.541-8.376 17.474 17.474 0 0 0 1.531-13.376 17.474 17.474 0 0 0 -8.375-10.54 17.48 17.48 0 0 0 -13.376-1.531 17.612 17.612 0 0 0 -12.286 20.919l-9.514 9.292a29.073 29.073 0 0 1 -3.057-12.974 29.426 29.426 0 0 1 29.392-29.393 29.425 29.425 0 0 1 29.394 29.393 29.425 29.425 0 0 1 -29.394 29.392h-1.434v18.239h1.452a47.4 47.4 0 0 0 27.115-8.476 47.665 47.665 0 0 0 12.023-66.249 47.31 47.31 0 0 0 -30.636-19.732 47.325 47.325 0 0 0 -35.615 7.71 47.3 47.3 0 0 0 -19.731 30.633 47.28 47.28 0 0 0 7.029 34.607l-9.059 8.849a60.608 60.608 0 0 1 -11.275-35.207 60.317 60.317 0 0 1 60.248-60.133h.118a59.856 59.856 0 0 1 42.569 17.728 59.866 59.866 0 0 1 17.565 42.638 60.32 60.32 0 0 1 -60.249 60.134h-.116-1.438v16.8l.015.657.887.794h.549a77.942 77.942 0 0 0 54.745-22.3 78.458 78.458 0 0 0 1.324-110.82z" fill="#fff" transform="translate(303.783 -760)"/></svg>