<?xml version="1.0" encoding="utf-8"?>
<!-- Generator: Adobe Illustrator 26.0.3, SVG Export Plug-In . SVG Version: 6.00 Build 0)  -->
<svg version="1.1" id="Layer_1" xmlns="http://www.w3.org/2000/svg" xmlns:xlink="http://www.w3.org/1999/xlink" x="0px" y="0px"
	 viewBox="0 0 1080 1080" style="enable-background:new 0 0 1080 1080;" xml:space="preserve">
<style type="text/css">
	.st0{fill:#0C1220;}
	.st1{fill:url(#SVGID_1_);}
	
		.st2{clip-path:url(#SVGID_00000058558685095824425300000014815060235884416153_);fill:url(#SVGID_00000125563266780641778080000015104825069569809042_);}
	.st3{fill:url(#SVGID_00000121249662089747846400000018014291303739098548_);}
	.st4{fill:url(#SVGID_00000051354236314558734550000006872920136932461965_);}
	.st5{fill:url(#SVGID_00000138553264705658450910000015581824633219563690_);}
	.st6{fill:url(#SVGID_00000005951774465038700710000012339798091655821986_);}
	.st7{fill:url(#SVGID_00000039820620155104631150000003380474622682618755_);}
</style>
<g>
	<g>
		<path class="st0" d="M540,40C263.9,40,40,263.9,40,540s223.9,500,500,500s500-223.9,500-500S816.1,40,540,40z"/>
	</g>
</g>
<g>
	<g>
		<g>
			<g>
				<g>
					<linearGradient id="SVGID_1_" gradientUnits="userSpaceOnUse" x1="540" y1="1059.97" x2="540" y2="45.8481">
						<stop  offset="0.1028" style="stop-color:#00FFAA"/>
						<stop  offset="0.999" style="stop-color:#5F00FA"/>
					</linearGradient>
					<path class="st1" d="M540,74.2C282.7,74.2,74.2,282.7,74.2,540s208.6,465.8,465.8,465.8s465.8-208.6,465.8-465.8
						S797.3,74.2,540,74.2z M540,873.1C356,873.1,206.9,724,206.9,540c0-184,149.2-333.1,333.1-333.1c184,0,333.1,149.2,333.1,333.1
						C873.1,724,724,873.1,540,873.1z"/>
				</g>
			</g>
			<g>
				<defs>
					<path id="SVGID_00000028287308240394429830000002301269181915703424_" d="M540,74.2C282.7,74.2,74.2,282.7,74.2,540
						s208.6,465.8,465.8,465.8s465.8-208.6,465.8-465.8S797.3,74.2,540,74.2z M540,873.1C356,873.1,206.9,724,206.9,540
						c0-184,149.2-333.1,333.1-333.1c184,0,333.1,149.2,333.1,333.1C873.1,724,724,873.1,540,873.1z"/>
				</defs>
				<clipPath id="SVGID_00000047056239459936316040000006081092681639311272_">
					<use xlink:href="#SVGID_00000028287308240394429830000002301269181915703424_"  style="overflow:visible;"/>
				</clipPath>
				
					<linearGradient id="SVGID_00000087413181235700356530000005280428489134260143_" gradientUnits="userSpaceOnUse" x1="736.2532" y1="161.6829" x2="736.2532" y2="1006.6018">
					<stop  offset="0.1028" style="stop-color:#00FFAA"/>
					<stop  offset="0.999" style="stop-color:#5F00FA"/>
				</linearGradient>
				
					<path style="clip-path:url(#SVGID_00000047056239459936316040000006081092681639311272_);fill:url(#SVGID_00000087413181235700356530000005280428489134260143_);" d="
					M315.2,785.9c34.9,17.6,261.5,19.6,468.7-147.5c55.3-44.6-19.2-344.3-19.2-344.3s-128.8-246-449.2-162.5
					c0,0,124.6-114.8,240.4-94.6c276.2,48.1,850.5,210.1,481,713C827.5,1035,458.3,1026.8,315.2,785.9z"/>
			</g>
		</g>
	</g>
</g>
<g>
	<g>
		<path class="st0" d="M540,90.9C291.9,90.9,90.9,291.9,90.9,540S291.9,989.1,540,989.1S989.1,788.1,989.1,540S788.1,90.9,540,90.9z
			"/>
	</g>
</g>
<g>
	<path class="st0" d="M273.8,412.6v254.9c0,16.2,8.6,31.2,22.7,39.4l220.7,127.4c14.1,8.1,31.4,8.1,45.5,0l220.7-127.4
		c14.1-8.1,22.7-23.1,22.7-39.4V412.6c0-16.2-8.6-31.2-22.7-39.4L562.7,245.8c-14.1-8.1-31.4-8.1-45.5,0L296.6,373.2
		C282.6,381.3,273.8,396.3,273.8,412.6z"/>
	<g>
		<g>
			<g>
				
					<linearGradient id="SVGID_00000152231653613786539110000016225429251338394253_" gradientUnits="userSpaceOnUse" x1="641.2149" y1="808.1108" x2="534.8088" y2="524.3614">
					<stop  offset="0.1028" style="stop-color:#00FFAA"/>
					<stop  offset="0.999" style="stop-color:#5F00FA"/>
				</linearGradient>
				<path style="fill:url(#SVGID_00000152231653613786539110000016225429251338394253_);" d="M588.3,589.4l-31.5,86.3
					c-0.9,2.4-0.9,5.1,0,7.4l54.1,148.5l62.6-36.2l-75.1-206.1C596.6,584.6,590,584.6,588.3,589.4z"/>
			</g>
			<g>
				
					<linearGradient id="SVGID_00000007429626095542117330000001052709923076757634_" gradientUnits="userSpaceOnUse" x1="734.9293" y1="772.968" x2="628.5233" y2="489.2185">
					<stop  offset="0.1028" style="stop-color:#00FFAA"/>
					<stop  offset="0.999" style="stop-color:#5F00FA"/>
				</linearGradient>
				<path style="fill:url(#SVGID_00000007429626095542117330000001052709923076757634_);" d="M651.3,444.2c-1.7-4.8-8.4-4.8-10.1,0
					l-31.5,86.3c-0.9,2.4-0.9,5.1,0,7.4l88.7,243.2l62.6-36.2L651.3,444.2z"/>
			</g>
		</g>
	</g>
	
		<linearGradient id="SVGID_00000057134708454931409390000007755440412537301890_" gradientUnits="userSpaceOnUse" x1="540" y1="212.3544" x2="540" y2="856.8085">
		<stop  offset="0.1028" style="stop-color:#00FFAA"/>
		<stop  offset="0.999" style="stop-color:#5F00FA"/>
	</linearGradient>
	<path style="fill:url(#SVGID_00000057134708454931409390000007755440412537301890_);" d="M540,255.3c1.6,0,3.1,0.4,4.5,1.2
		l238.8,137.9c2.8,1.6,4.5,4.5,4.5,7.7v275.7c0,3.2-1.7,6.1-4.5,7.7l-238.8,138c-1.3,0.8-2.9,1.2-4.5,1.2s-3.1-0.4-4.5-1.2
		L296.8,685.6c-2.8-1.6-4.5-4.5-4.5-7.7V402.1c0-3.2,1.7-6.1,4.5-7.7l238.8-137.9C536.9,255.7,538.5,255.3,540,255.3 M540,215
		c-8.5,0-17,2.3-24.6,6.6L276.6,359.5c-15.2,8.8-24.6,25-24.6,42.5v275.7c0,17.5,9.4,33.9,24.6,42.7l238.8,137.9
		c7.6,4.4,16.1,6.6,24.6,6.6s17-2.3,24.6-6.6l238.8-137.9c15.3-8.8,24.6-25,24.6-42.7V402.1c0-17.5-9.4-33.9-24.6-42.7L564.7,221.6
		C557,217.3,548.5,215,540,215L540,215z"/>
	<polygon class="st0" points="382.2,781.4 404.1,721.3 448.3,758 407,795.7 	"/>
	<g>
		
			<linearGradient id="SVGID_00000171714316834302014870000017279597761403230893_" gradientUnits="userSpaceOnUse" x1="319.5663" y1="581.8798" x2="525.4087" y2="581.8798">
			<stop  offset="0.1028" style="stop-color:#00FFAA"/>
			<stop  offset="0.999" style="stop-color:#5F00FA"/>
		</linearGradient>
		<path style="fill:url(#SVGID_00000171714316834302014870000017279597761403230893_);" d="M519.9,382.4h-60.5
			c-4.5,0-8.6,2.8-10.1,7L319.6,745.2l62.6,36.2l142.9-391.8C526.3,386.1,523.8,382.4,519.9,382.4z"/>
		
			<linearGradient id="SVGID_00000134951141374377986590000011883960366566249091_" gradientUnits="userSpaceOnUse" x1="407.0485" y1="607.1406" x2="631.2862" y2="607.1406">
			<stop  offset="0.1028" style="stop-color:#00FFAA"/>
			<stop  offset="0.999" style="stop-color:#5F00FA"/>
		</linearGradient>
		<path style="fill:url(#SVGID_00000134951141374377986590000011883960366566249091_);" d="M625.9,382.4h-60.5
			c-4.5,0-8.6,2.8-10.1,7L407,795.7l62.6,36.2l161.3-442.2C632.3,386.1,629.6,382.4,625.9,382.4z"/>
	</g>
</g>
</svg>
