<svg viewBox="0 0 1080 1080" xmlns="http://www.w3.org/2000/svg" xmlns:xlink="http://www.w3.org/1999/xlink"><linearGradient id="a"><stop offset=".103" stop-color="#0fa"/><stop offset=".999" stop-color="#5f00fa"/></linearGradient><linearGradient id="b" gradientUnits="userSpaceOnUse" x1="540" x2="540" xlink:href="#a" y1="1059.97" y2="45.848"/><clipPath id="c"><path d="M540 74.2C282.7 74.2 74.2 282.7 74.2 540s208.6 465.8 465.8 465.8 465.8-208.6 465.8-465.8S797.3 74.2 540 74.2zm0 798.9C356 873.1 206.9 724 206.9 540S356.1 206.9 540 206.9c184 0 333.1 149.2 333.1 333.1 0 184-149.1 333.1-333.1 333.1z"/></clipPath><linearGradient id="d" gradientUnits="userSpaceOnUse" x1="736.253" x2="736.253" xlink:href="#a" y1="161.683" y2="1006.602"/><linearGradient id="e" gradientUnits="userSpaceOnUse" x1="641.215" x2="534.809" xlink:href="#a" y1="808.111" y2="524.361"/><linearGradient id="f" gradientUnits="userSpaceOnUse" x1="734.929" x2="628.523" xlink:href="#a" y1="772.968" y2="489.219"/><linearGradient id="g" gradientUnits="userSpaceOnUse" x1="540" x2="540" xlink:href="#a" y1="212.354" y2="856.808"/><linearGradient id="h" gradientUnits="userSpaceOnUse" x1="319.566" x2="525.409" xlink:href="#a" y1="581.88" y2="581.88"/><linearGradient id="i" gradientUnits="userSpaceOnUse" x1="407.048" x2="631.286" xlink:href="#a" y1="607.141" y2="607.141"/><path d="M540 40C263.9 40 40 263.9 40 540s223.9 500 500 500 500-223.9 500-500S816.1 40 540 40z" fill="#0c1220"/><path d="M540 74.2C282.7 74.2 74.2 282.7 74.2 540s208.6 465.8 465.8 465.8 465.8-208.6 465.8-465.8S797.3 74.2 540 74.2zm0 798.9C356 873.1 206.9 724 206.9 540S356.1 206.9 540 206.9c184 0 333.1 149.2 333.1 333.1 0 184-149.1 333.1-333.1 333.1z" fill="url(#b)"/><path clip-path="url(#c)" d="M315.2 785.9c34.9 17.6 261.5 19.6 468.7-147.5 55.3-44.6-19.2-344.3-19.2-344.3s-128.8-246-449.2-162.5c0 0 124.6-114.8 240.4-94.6 276.2 48.1 850.5 210.1 481 713-209.4 285-578.6 276.8-721.7 35.9z" fill="url(#d)"/><path d="M540 90.9c-248.1 0-449.1 201-449.1 449.1s201 449.1 449.1 449.1 449.1-201 449.1-449.1S788.1 90.9 540 90.9z" fill="#0c1220"/><path d="M273.8 412.6v254.9c0 16.2 8.6 31.2 22.7 39.4l220.7 127.4c14.1 8.1 31.4 8.1 45.5 0l220.7-127.4c14.1-8.1 22.7-23.1 22.7-39.4V412.6c0-16.2-8.6-31.2-22.7-39.4L562.7 245.8c-14.1-8.1-31.4-8.1-45.5 0L296.6 373.2c-14 8.1-22.8 23.1-22.8 39.4z" fill="#0c1220"/><path d="M588.3 589.4l-31.5 86.3c-.9 2.4-.9 5.1 0 7.4l54.1 148.5 62.6-36.2-75.1-206.1c-1.8-4.7-8.4-4.7-10.1.1z" fill="url(#e)"/><path d="M651.3 444.2c-1.7-4.8-8.4-4.8-10.1 0l-31.5 86.3c-.9 2.4-.9 5.1 0 7.4l88.7 243.2 62.6-36.2z" fill="url(#f)"/><path d="M540 255.3c1.6 0 3.1.4 4.5 1.2l238.8 137.9c2.8 1.6 4.5 4.5 4.5 7.7v275.7c0 3.2-1.7 6.1-4.5 7.7l-238.8 138c-1.3.8-2.9 1.2-4.5 1.2s-3.1-.4-4.5-1.2L296.8 685.6c-2.8-1.6-4.5-4.5-4.5-7.7V402.1c0-3.2 1.7-6.1 4.5-7.7l238.8-137.9c1.3-.8 2.9-1.2 4.4-1.2m0-40.3c-8.5 0-17 2.3-24.6 6.6L276.6 359.5c-15.2 8.8-24.6 25-24.6 42.5v275.7c0 17.5 9.4 33.9 24.6 42.7l238.8 137.9c7.6 4.4 16.1 6.6 24.6 6.6s17-2.3 24.6-6.6l238.8-137.9c15.3-8.8 24.6-25 24.6-42.7V402.1c0-17.5-9.4-33.9-24.6-42.7L564.7 221.6c-7.7-4.3-16.2-6.6-24.7-6.6z" fill="url(#g)"/><path d="M382.2 781.4l21.9-60.1 44.2 36.7-41.3 37.7z" fill="#0c1220"/><path d="M519.9 382.4h-60.5c-4.5 0-8.6 2.8-10.1 7L319.6 745.2l62.6 36.2 142.9-391.8c1.2-3.5-1.3-7.2-5.2-7.2z" fill="url(#h)"/><path d="M625.9 382.4h-60.5c-4.5 0-8.6 2.8-10.1 7L407 795.7l62.6 36.2 161.3-442.2c1.4-3.6-1.3-7.3-5-7.3z" fill="url(#i)"/></svg>