<svg width="60" height="60" viewBox="0 0 60 60" fill="none" xmlns="http://www.w3.org/2000/svg">
<rect x="1.09091" y="1.09091" width="57.8182" height="57.8182" rx="28.9091" fill="white"/>
<rect x="1.09091" y="1.09091" width="57.8182" height="57.8182" rx="28.9091" stroke="url(#paint0_linear_398_4490)" stroke-width="2.18182"/>
<path d="M47.9644 34.1464L47.9149 34.1985C47.8917 34.2224 47.8682 34.2462 47.8445 34.2698L34.2511 47.8414C31.8831 50.2056 28.0438 50.2056 25.6759 47.8414L21.922 44.0938C21.6559 43.8291 21.6553 43.3987 21.9202 43.1329C21.9982 43.0547 22.094 42.9967 22.1994 42.9637C26.2229 41.7217 29.4921 40.288 32.0071 38.6627C37.9964 34.7918 43.3156 33.2864 47.9644 34.1464ZM45.1146 22.9823C50.1334 24.5638 49.5476 28.2559 49.6142 29.7113C44.1178 26.8293 37.5056 27.8857 29.7774 32.8803C24.0172 36.603 19.1921 38.1379 15.3022 37.4849C11.4123 36.8319 10.5372 32.0811 10.3633 30.8187C14.6376 32.9799 20.3658 31.7395 27.5477 27.0979C34.2402 22.7727 40.0958 21.4008 45.1146 22.9823ZM34.2511 12.1368L37.7783 15.6578C38.0439 15.9229 38.0443 16.3533 37.7793 16.619C37.6847 16.7138 37.5642 16.7785 37.433 16.805C32.3269 17.8336 28.2433 19.3372 25.1821 21.3155C19.9365 24.7057 15.4665 26.2814 11.7719 26.0428L11.7723 26.0418L25.6759 12.1368C28.0438 9.7726 31.8831 9.7726 34.2511 12.1368Z" fill="url(#paint1_linear_398_4490)"/>
<defs>
<linearGradient id="paint0_linear_398_4490" x1="30" y1="-1.75308e-08" x2="29.4118" y2="101.176" gradientUnits="userSpaceOnUse">
<stop stop-color="#3068EF"/>
<stop offset="1" stop-color="#1322AC"/>
</linearGradient>
<linearGradient id="paint1_linear_398_4490" x1="29.9887" y1="10.3636" x2="29.6039" y2="76.5515" gradientUnits="userSpaceOnUse">
<stop stop-color="#3068EF"/>
<stop offset="1" stop-color="#1322AC"/>
</linearGradient>
</defs>
</svg>
