<svg fill="none" height="36" width="62" xmlns="http://www.w3.org/2000/svg" xmlns:xlink="http://www.w3.org/1999/xlink"><linearGradient id="a" gradientUnits="userSpaceOnUse" x1="32.84" x2="51.989" y1="28.358" y2="11.327"><stop offset=".073" stop-color="#aac4fd"/><stop offset="1" stop-color="#76a0fc"/></linearGradient><linearGradient id="b" gradientUnits="userSpaceOnUse" x1="5.607" x2="29.943" y1="30.358" y2="6.022"><stop offset="0" stop-color="#f9af1a"/><stop offset="1" stop-color="#fbc349"/></linearGradient><clipPath id="c"><path d="m0 0h34.41v34.41h-34.41z" transform="translate(27.284 .828)"/></clipPath><clipPath id="d"><path d="m0 0h34.416v34.416h-34.416z" transform="matrix(1 0 0 -1 .567 35.398)"/></clipPath><g clip-path="url(#c)"><circle cx="44.424" cy="17.969" fill="url(#a)" r="17.144"/><path d="m53.776 15.608-9.364-9.562-9.365 9.562 4.682 4.78 4.683-4.78 4.682 4.78z" fill="#fff"/><g fill="#1f2333"><path d="m44.034 29.026c-.465 0-.866-.084-1.201-.252a1.841 1.841 0 0 1 -.764-.73c-.173-.32-.26-.696-.26-1.129v-3.685h1.072v3.719c0 .346.098.62.293.82.2.2.487.3.86.3.374 0 .658-.1.853-.3.2-.2.3-.474.3-.82v-3.719h1.072v3.686c0 .433-.09.81-.268 1.129a1.78 1.78 0 0 1 -.763.73c-.33.168-.728.252-1.194.252zm4.675-.114v-5.682h2.468c.357 0 .668.063.934.187.265.125.47.3.617.528.146.227.219.495.219.803v.098c0 .34-.081.617-.244.828a1.432 1.432 0 0 1 -.6.463v.146a.67.67 0 0 1 .503.227c.119.136.178.317.178.544v1.86h-1.071v-1.706a.466.466 0 0 0 -.106-.316c-.065-.081-.176-.122-.333-.122h-1.493v2.143h-1.072zm1.072-3.117h1.282c.255 0 .452-.068.593-.203a.732.732 0 0 0 .22-.552v-.081c0-.228-.071-.41-.212-.544-.14-.141-.341-.212-.6-.212h-1.284v1.592z"/><path clip-rule="evenodd" d="m35.801 29.046v-5.95h3.92v1.241h-2.58v1.088h2.354v1.242h-2.355v1.137h2.63v1.242zm6.97-.153a1.975 1.975 0 0 1 -.818-.783v-.001l-.001-.002c-.186-.342-.276-.74-.276-1.192v-3.82h1.34v3.853c0 .32.088.556.253.726.168.167.416.26.765.26.35 0 .595-.093.757-.26l.001-.001c.17-.17.261-.406.261-.725v-3.852h1.34v3.82c0 .45-.094.85-.285 1.192-.187.339-.461.6-.82.785-.353.18-.773.267-1.254.267s-.903-.087-1.261-.266h-.001zm3.22-.85c.178-.319.268-.695.268-1.128v-3.685h-1.072v3.719c0 .346-.1.62-.3.82-.195.2-.48.3-.853.3s-.66-.1-.86-.3c-.195-.2-.293-.474-.293-.82v-3.719h-1.071v3.686c0 .433.086.81.26 1.129.178.314.432.557.763.73.335.168.736.252 1.201.252.466 0 .864-.084 1.194-.252a1.78 1.78 0 0 0 .763-.73zm2.584 1.003v-5.95h2.602c.373 0 .704.064.99.199.286.134.512.326.673.576.162.252.24.546.24.876v.098c0 .362-.086.67-.27.91a1.58 1.58 0 0 1 -.49.425.75.75 0 0 1 .387.242c.145.165.211.38.211.631v1.993h-1.34v-1.839a.334.334 0 0 0 -.072-.229l-.002-.002-.001-.002c-.03-.036-.091-.071-.229-.071h-1.36v2.143zm1.206-2.277h1.493c.157 0 .268.04.333.122.07.081.106.187.106.316v1.705h1.071v-1.859c0-.227-.06-.409-.178-.544a.675.675 0 0 0 -.504-.227v-.146c.239-.098.439-.252.601-.463.163-.211.244-.487.244-.828v-.098c0-.308-.073-.576-.22-.803a1.442 1.442 0 0 0 -.616-.528 2.178 2.178 0 0 0 -.934-.187h-2.468v5.683h1.072v-2.142zm1.79-2.259h-.002c-.108-.11-.27-.173-.506-.173h-1.149v1.324h1.15c.23 0 .39-.06.5-.166a.599.599 0 0 0 .177-.455v-.081c0-.198-.06-.342-.17-.448zm.085 1.082c-.14.135-.338.203-.593.203h-1.282v-1.592h1.282c.26 0 .46.07.601.212a.72.72 0 0 1 .211.544v.08a.732.732 0 0 1 -.22.553z" fill-rule="evenodd"/></g></g><g clip-path="url(#d)"><path d="m17.775.982c9.504 0 17.208 7.705 17.208 17.208 0 9.504-7.704 17.208-17.208 17.208s-17.208-7.704-17.208-17.208c0-9.503 7.704-17.208 17.208-17.208z" fill="url(#b)"/><path d="m28.01 20.999h-2.044a8.113 8.113 0 0 1 -7.613 5.307h-7.096v-5.307h-2.258v-1.859h2.258v-1.989h-2.258v-1.858h2.258v-5.218h7.096a8.11 8.11 0 0 1 7.579 5.218h2.078v1.858h-1.61c.041.337.069.688.069 1.04 0 .323-.021.64-.056.95h1.604v1.858zm-14.895 3.53h5.163a6.2 6.2 0 0 0 5.596-3.529h-10.759v3.53zm5.163-12.678h-5.163v3.441h10.717a6.198 6.198 0 0 0 -5.554-3.441zm6.201 6.477v-.282c0-.303-.02-.606-.062-.895h-11.302v1.99h11.31c.034-.27.054-.538.054-.813z" fill="#fff"/></g></svg>