<svg fill="none" height="82" width="148" xmlns="http://www.w3.org/2000/svg"><linearGradient id="a" gradientUnits="userSpaceOnUse" x1="107" x2="107" y1="1" y2="81"><stop offset="0" stop-color="#f4837d"/><stop offset="1" stop-color="#fdceaa"/></linearGradient><path d="M107 81c22.091 0 40-17.909 40-40S129.091 1 107 1 67 18.909 67 41s17.909 40 40 40z" fill="url(#a)" stroke="#000" stroke-width=".5"/><path d="M80 33.828L107 7l27 26.828-13.249 13.164-13.491-13.406-.243-.24-.243.24L93.274 47z" fill="#fff6f0" stroke="#000"/><path d="M85.968 53.2h10.608v3.024h-7.44v3.84h7.152v3.024h-7.152v3.888h7.728V70H85.968zm26.119 0v10.992c0 1.92-.512 3.424-1.536 4.512-1.008 1.088-2.512 1.632-4.512 1.632s-3.512-.544-4.536-1.632c-1.008-1.088-1.512-2.592-1.512-4.512V53.2h3.168v10.992c0 .992.232 1.768.696 2.328s1.192.84 2.184.84 1.72-.28 2.184-.84.696-1.336.696-2.328V53.2zM126.423 70h-3.168v-5.04c0-.384-.104-.696-.312-.936-.192-.24-.52-.36-.984-.36h-3.648V70h-3.168V53.2h6.432c.864 0 1.624.12 2.28.36s1.2.576 1.632 1.008c.448.416.784.904 1.008 1.464.24.56.36 1.16.36 1.8v.576c0 .688-.184 1.336-.552 1.944-.368.592-.936 1.048-1.704 1.368v.432c.56.064 1 .28 1.32.648.336.368.504.832.504 1.392zm-8.112-9.36h3.024c.768 0 1.352-.176 1.752-.528.4-.368.6-.88.6-1.536v-.288c0-.56-.2-1.04-.6-1.44-.4-.416-.984-.624-1.752-.624h-3.024z" fill="#2a363a"/><path d="M40 1c22.093 0 40 17.91 40 40 0 22.093-17.907 40-40 40C17.91 81 0 63.092 0 41 0 18.91 17.91 1 40 1z" fill="#f5ac37"/><path d="M41.461 43.825h15.2c.323 0 .476 0 .5-.425a29.055 29.055 0 0 0 0-4.65c0-.3-.15-.425-.476-.425H26.436c-.374 0-.475.125-.475.476v4.45c0 .574 0 .574.6.574zm14.002-10.7a.487.487 0 0 0 0-.349 9.885 9.885 0 0 0-.903-1.575 12.754 12.754 0 0 0-1.85-2.326 6.134 6.134 0 0 0-1.15-1.125 17.97 17.97 0 0 0-7.502-3.8 18.645 18.645 0 0 0-4.25-.45H26.384c-.374 0-.425.15-.425.476v8.874c0 .374 0 .475.475.475h28.85s.25-.05.3-.2h-.123zm0 15.9a5.834 5.834 0 0 0-1.278 0H26.461c-.374 0-.5 0-.5.5v8.676c0 .4 0 .5.5.5h12.8a6.394 6.394 0 0 0 1.824-.124 19.055 19.055 0 0 0 5.427-1.2 9.933 9.933 0 0 0 1.823-.85h.175c3-1.56 5.438-4.012 6.975-7.022 0 0 .174-.378-.022-.477zM20.937 63.2V49.376c0-.326 0-.375-.4-.375h-5.425c-.3 0-.425 0-.425-.4v-4.75h5.8c.324 0 .45 0 .45-.424v-4.7c0-.3 0-.375-.4-.375h-5.425c-.3 0-.425 0-.425-.4v-4.398c0-.276 0-.35.4-.35h5.375c.374 0 .475 0 .475-.475V19.254c0-.4 0-.5.5-.5h18.75c1.36.054 2.712.203 4.05.45a24.438 24.438 0 0 1 7.824 2.9 22.052 22.052 0 0 1 4.4 3.4 24.09 24.09 0 0 1 2.674 3.325c.787 1.2 1.44 2.484 1.953 3.825.063.349.398.585.747.525h4.475c.574 0 .574 0 .6.551v4.1c0 .4-.15.5-.551.5h-3.45c-.35 0-.45 0-.426.45a25.538 25.538 0 0 1 0 4.575c0 .425 0 .475.477.475h3.948c.174.225 0 .45 0 .677.025.29.025.583 0 .873v3.026c0 .424-.124.55-.5.55h-4.726a.625.625 0 0 0-.725.476 19.993 19.993 0 0 1-5.25 7.65 30.111 30.111 0 0 1-2.676 2.149c-1 .576-1.974 1.175-3 1.65a27.03 27.03 0 0 1-5.9 1.874c-1.93.346-3.887.502-5.85.475H20.93v-.025z" fill="#fefefd"/></svg>