<svg width="148" height="82" fill="none" xmlns="http://www.w3.org/2000/svg"><path d="M107 81c22.091 0 40-17.909 40-40S129.091 1 107 1 67 18.909 67 41s17.909 40 40 40z" fill="url(#paint0_linear_307_116)" stroke="#000" stroke-width=".5"/><path d="M80 33.828L107 7l27 26.828-13.249 13.164-13.491-13.406-.243-.24-.243.24L93.274 47 80 33.828z" fill="#FFF6F0" stroke="#000"/><path d="M85.968 53.2h10.608v3.024h-7.44v3.84h7.152v3.024h-7.152v3.888h7.728V70H85.968V53.2zm26.119 0v10.992c0 1.92-.512 3.424-1.536 4.512-1.008 1.088-2.512 1.632-4.512 1.632-2 0-3.512-.544-4.536-1.632-1.008-1.088-1.512-2.592-1.512-4.512V53.2h3.168v10.992c0 .992.232 1.768.696 2.328.464.56 1.192.84 2.184.84.992 0 1.72-.28 2.184-.84.464-.56.696-1.336.696-2.328V53.2h3.168zM126.423 70h-3.168v-5.04c0-.384-.104-.696-.312-.936-.192-.24-.52-.36-.984-.36h-3.648V70h-3.168V53.2h6.432c.864 0 1.624.12 2.28.36.656.24 1.2.576 1.632 1.008.448.416.784.904 1.008 1.464.24.56.36 1.16.36 1.8v.576c0 .688-.184 1.336-.552 1.944-.368.592-.936 1.048-1.704 1.368v.432c.56.064 1 .28 1.32.648.336.368.504.832.504 1.392V70zm-8.112-9.36h3.024c.768 0 1.352-.176 1.752-.528.4-.368.6-.88.6-1.536v-.288c0-.56-.2-1.04-.6-1.44-.4-.416-.984-.624-1.752-.624h-3.024v4.416z" fill="#2A363A"/><path d="M40 81c22.091 0 40-17.909 40-40S62.091 1 40 1 0 18.909 0 41s17.909 40 40 40z" fill="#22996E"/><path d="M39.998 58.778H18.22c-3.111 0-4.89-3.111-3.111-5.778l12.444-19.555c.889-1.334 2.222-2.223 4-2.223h16.889c1.778 0 3.111.89 4 2.223L64.886 53c1.778 2.667 0 5.778-3.11 5.778H39.996zm2.222-44.445l5.333 8c.89 1.778 0 4-2.222 4H34.664c-2.222 0-3.11-2.222-2.222-4l5.334-8c1.333-1.778 3.555-1.778 4.444 0z" fill="#fff"/><defs><linearGradient id="paint0_linear_307_116" x1="107" y1="1" x2="107" y2="81" gradientUnits="userSpaceOnUse"><stop stop-color="#F4837D"/><stop offset="1" stop-color="#FDCEAA"/></linearGradient></defs></svg>