<svg fill="none" height="82" width="149" xmlns="http://www.w3.org/2000/svg" xmlns:xlink="http://www.w3.org/1999/xlink"><linearGradient id="a" gradientUnits="userSpaceOnUse" x1="81.079" x2="126.157" y1="65.806" y2="25.713"><stop offset=".073" stop-color="#aac4fd"/><stop offset="1" stop-color="#76a0fc"/></linearGradient><clipPath id="b"><path d="m0 0h149v82h-149z"/></clipPath><clipPath id="c"><path d="m0 0h81v81h-81z" transform="translate(68 1)"/></clipPath><g clip-path="url(#b)"><path d="m41 81c-22.091 0-40-17.909-40-40s17.909-40 40-40 40 17.909 40 40-17.909 40-40 40z" fill="#000" stroke="#000" stroke-miterlimit="11.339" stroke-width="1.237"/><path d="m63.067 18.751c1.686 1.771 3.078 3.26 3.092 3.289.014.042-1.504 1.532-3.373 3.303-1.87 1.785-3.5 3.345-3.612 3.443l-.211.197.38.633c3.33 5.51 4.019 12.143 1.925 18.243-.394 1.152-1.068 2.628-1.645 3.598-.28.478-.407.787-.38.843.029.056 1.73 1.855 3.782 4.006 2.052 2.136 3.724 3.921 3.752 3.95.014.041-5.734 5.593-6.282 6.043l-.211.182-3.247-3.387c-1.785-1.87-3.457-3.626-3.71-3.893l-.478-.478-.45.281c-2.29 1.462-4.975 2.474-7.94 3.008-1.49.267-4.33.337-5.918.14-3.064-.35-6.1-1.377-8.587-2.88l-.647-.394-.688.674c-1.504 1.462-7.126 6.803-7.183 6.831-.056.028-6.226-6.423-6.212-6.507.014-.043 4.245-4.104 6.83-6.536l.858-.815-.393-.647c-3.303-5.495-3.992-12.157-1.855-18.299.309-.9 1.25-2.923 1.798-3.851l.268-.464-3.613-3.78c-1.981-2.067-3.598-3.795-3.584-3.838.057-.14 6.381-6.113 6.466-6.113.056 0 1.644 1.616 3.542 3.612 1.897 1.982 3.471 3.612 3.513 3.626.028.014.211-.07.38-.197.477-.323 1.686-.984 2.36-1.293 2.053-.942 3.964-1.518 6.185-1.841 1.153-.169 4.61-.197 5.678-.042 2.558.365 4.652.998 6.789 2.066.618.295 1.335.689 1.616.857l.506.31.576-.563c.31-.31 1.715-1.63 3.106-2.965 1.392-1.322 2.811-2.67 3.148-3.008l.619-.604 3.05 3.26zm-23.598 9.164a13.02 13.02 0 0 0 -6.072 2.319c-.941.66-2.347 2.066-3.008 3.008-3.752 5.312-3.035 12.537 1.687 16.964 4.034 3.767 9.867 4.61 14.772 2.108 3.541-1.813 6.043-5.13 6.844-9.107.253-1.265.253-3.627 0-4.877-.239-1.237-.562-2.123-1.166-3.36a12.896 12.896 0 0 0 -13.057-7.055z" fill="#fff"/><g clip-path="url(#c)"><circle cx="108.348" cy="41.349" fill="url(#a)" r="40.356"/><path d="m130.362 35.792-22.043-22.51-22.045 22.51 11.022 11.253 11.023-11.253 11.022 11.253z" fill="#fff"/><g fill="#1f2333"><path d="m107.431 67.378c-1.096 0-2.039-.198-2.829-.593a4.331 4.331 0 0 1 -1.796-1.72c-.408-.751-.612-1.637-.612-2.656v-8.677h2.523v8.753c0 .816.229 1.459.688 1.93.472.472 1.147.707 2.026.707s1.548-.235 2.007-.707c.471-.471.707-1.114.707-1.93v-8.753h2.522v8.677c0 1.019-.21 1.905-.63 2.656-.408.74-1.007 1.313-1.797 1.72-.777.395-1.713.593-2.809.593zm11.004-.268v-13.378h5.81c.841 0 1.573.147 2.198.44.624.293 1.108.707 1.452 1.242s.516 1.166.516 1.892v.23c0 .802-.191 1.452-.573 1.949s-.854.86-1.414 1.089v.344c.509.026.904.204 1.184.535.281.319.421.745.421 1.28v4.377h-2.523v-4.013c0-.306-.083-.555-.248-.746-.153-.19-.414-.286-.784-.286h-3.516v5.045zm2.523-7.339h3.019c.599 0 1.064-.159 1.395-.477.344-.332.516-.765.516-1.3v-.191c0-.535-.165-.962-.496-1.28-.332-.332-.803-.498-1.415-.498h-3.019z"/><path clip-rule="evenodd" d="m88.05 67.425v-14.008h9.23v2.923h-6.078v2.562h5.543v2.923h-5.543v2.677h6.193v2.923zm16.409-.36h-.003a4.645 4.645 0 0 1 -1.924-1.844l-.001-.003-.002-.003c-.437-.806-.65-1.745-.65-2.806v-8.992h3.153v9.068c0 .753.21 1.31.597 1.71.396.394.98.613 1.802.613.824 0 1.399-.22 1.781-.612l.003-.003c.399-.4.615-.956.615-1.708v-9.068h3.152v8.992c0 1.063-.219 2.003-.67 2.809-.439.796-1.085 1.412-1.927 1.847l-.002.001c-.831.422-1.819.627-2.952.627s-2.127-.205-2.969-.626l-.003-.001zm7.578-2c.42-.751.63-1.637.63-2.656v-8.677h-2.522v8.753c0 .816-.236 1.459-.707 1.93-.459.472-1.128.707-2.007.707s-1.554-.235-2.026-.707c-.459-.471-.688-1.114-.688-1.93v-8.753h-2.523v8.677c0 1.019.204 1.905.612 2.656a4.331 4.331 0 0 0 1.796 1.72c.79.395 1.733.593 2.829.593s2.032-.198 2.809-.593c.79-.407 1.389-.98 1.797-1.72zm6.083 2.36v-14.008h6.125c.877 0 1.657.153 2.331.47.674.316 1.205.767 1.584 1.357.381.593.566 1.284.566 2.062v.23c0 .852-.204 1.575-.639 2.14-.323.421-.708.756-1.153 1.002.362.097.67.284.913.57.341.389.497.896.497 1.486v4.691h-3.153v-4.328c0-.247-.065-.417-.171-.54l-.004-.004-.004-.005c-.068-.084-.214-.168-.538-.168h-3.201v5.045zm2.838-5.36h3.516c.37 0 .631.095.784.286.165.191.248.44.248.746v4.013h2.523v-4.376c0-.535-.14-.962-.421-1.28-.28-.332-.675-.51-1.184-.536v-.344a3.372 3.372 0 0 0 1.414-1.09c.382-.496.573-1.146.573-1.949v-.229c0-.726-.172-1.357-.516-1.892s-.828-.95-1.452-1.242c-.625-.293-1.357-.44-2.198-.44h-5.81v13.378h2.523zm4.213-5.318-.002-.002c-.256-.256-.637-.404-1.192-.404h-2.704v3.115h2.704c.543 0 .92-.143 1.177-.39.275-.264.419-.611.419-1.072v-.191c0-.465-.141-.804-.4-1.054zm.201 2.547c-.331.318-.796.477-1.395.477h-3.019v-3.745h3.019c.612 0 1.083.165 1.415.496.331.319.496.746.496 1.28v.192c0 .535-.172.968-.516 1.3z" fill-rule="evenodd"/></g></g></g></svg>