<svg fill="none" height="35" width="62" xmlns="http://www.w3.org/2000/svg" xmlns:xlink="http://www.w3.org/1999/xlink"><linearGradient id="a" gradientUnits="userSpaceOnUse" x1="32.84" x2="51.989" y1="27.638" y2="10.606"><stop offset=".073" stop-color="#aac4fd"/><stop offset="1" stop-color="#76a0fc"/></linearGradient><clipPath id="b"><path d="m0 0h34.41v34.41h-34.41z" transform="translate(27.284 .107)"/></clipPath><clipPath id="c"><path d="m0 0h34.42v34.42h-34.42z" transform="translate(.567 .262)"/></clipPath><g clip-path="url(#b)"><circle cx="44.424" cy="17.248" fill="url(#a)" r="17.144"/><path d="m53.776 14.887-9.364-9.562-9.365 9.562 4.682 4.78 4.683-4.78 4.682 4.78z" fill="#fff"/><g fill="#1f2333"><path d="m44.034 28.305c-.465 0-.866-.084-1.201-.251a1.841 1.841 0 0 1 -.764-.731c-.173-.32-.26-.696-.26-1.129v-3.684h1.072v3.718c0 .346.098.62.293.82.2.2.487.3.86.3.374 0 .658-.1.853-.3.2-.2.3-.474.3-.82v-3.718h1.072v3.685c0 .433-.09.81-.268 1.129a1.78 1.78 0 0 1 -.763.73c-.33.168-.728.252-1.194.252zm4.675-.113v-5.683h2.468c.357 0 .668.062.934.186.265.125.47.3.617.528.146.227.219.495.219.804v.097c0 .341-.081.617-.244.828a1.432 1.432 0 0 1 -.6.463v.146c.216.011.384.087.503.227.119.136.178.317.178.544v1.86h-1.071v-1.705a.466.466 0 0 0 -.106-.317c-.065-.081-.176-.122-.333-.122h-1.493v2.144zm1.072-3.118h1.282c.255 0 .452-.068.593-.203a.732.732 0 0 0 .22-.552v-.081c0-.227-.071-.409-.212-.544-.14-.14-.341-.211-.6-.211h-1.284v1.591z"/><path clip-rule="evenodd" d="m35.801 28.325v-5.95h3.92v1.242h-2.58v1.088h2.354v1.242h-2.355v1.137h2.63v1.241zm6.97-.152a1.975 1.975 0 0 1 -.818-.784v-.001l-.001-.001c-.186-.343-.276-.742-.276-1.193v-3.82h1.34v3.853c0 .32.088.556.253.726.168.168.416.26.765.26.35 0 .595-.093.757-.26h.001c.17-.17.261-.407.261-.726v-3.852h1.34v3.82c0 .45-.094.85-.285 1.193-.187.338-.461.6-.82.784-.353.18-.773.267-1.254.267s-.903-.087-1.261-.266h-.001zm3.22-.85c.178-.32.268-.696.268-1.129v-3.684h-1.072v3.718c0 .346-.1.62-.3.82-.195.2-.48.3-.853.3s-.66-.1-.86-.3c-.195-.2-.293-.474-.293-.82v-3.718h-1.071v3.685c0 .433.086.81.26 1.129.178.314.432.557.763.73.335.168.736.252 1.201.252.466 0 .864-.084 1.194-.251a1.78 1.78 0 0 0 .763-.731zm2.584 1.002v-5.95h2.602c.373 0 .704.065.99.2.286.133.512.325.673.576.162.252.24.545.24.876v.097c0 .362-.086.67-.27.91a1.58 1.58 0 0 1 -.49.425.75.75 0 0 1 .387.242c.145.166.211.38.211.631v1.993h-1.34v-1.838a.333.333 0 0 0 -.072-.23l-.002-.001-.001-.002c-.03-.036-.091-.072-.229-.072h-1.36v2.143zm1.206-2.277h1.493c.157 0 .268.04.333.122.07.081.106.187.106.317v1.705h1.071v-1.86c0-.227-.06-.408-.178-.544-.12-.14-.287-.216-.504-.227v-.146c.239-.097.439-.252.601-.463.163-.21.244-.487.244-.828v-.097c0-.309-.073-.577-.22-.804a1.442 1.442 0 0 0 -.616-.528 2.178 2.178 0 0 0 -.934-.186h-2.468v5.683h1.072zm1.79-2.259h-.002c-.108-.11-.27-.172-.506-.172h-1.149v1.323h1.15c.23 0 .39-.06.5-.165a.599.599 0 0 0 .177-.456v-.081c0-.198-.06-.342-.17-.448zm.085 1.082c-.14.135-.338.203-.593.203h-1.282v-1.591h1.282c.26 0 .46.07.601.21.14.136.211.317.211.545v.081a.732.732 0 0 1 -.22.552z" fill-rule="evenodd"/></g></g><g clip-path="url(#c)"><path d="m17.777 34.682c9.505 0 17.21-7.706 17.21-17.21 0-9.505-7.705-17.21-17.21-17.21s-17.21 7.705-17.21 17.21 7.705 17.21 17.21 17.21z" fill="#22996e"/><path d="m17.776 25.12h-9.37c-1.339 0-2.104-1.338-1.339-2.486l5.354-8.413c.383-.574.956-.956 1.721-.956h7.267c.765 0 1.338.382 1.72.956l5.355 8.413c.765 1.148 0 2.486-1.339 2.486h-9.37zm.956-19.122 2.294 3.442c.383.765 0 1.721-.956 1.721h-4.589c-.956 0-1.338-.956-.956-1.72l2.295-3.443c.573-.765 1.53-.765 1.912 0z" fill="#fff"/></g></svg>