<svg width="149" height="82" fill="none" xmlns="http://www.w3.org/2000/svg"><path d="M108 81c22.091 0 40-17.909 40-40S130.091 1 108 1 68 18.909 68 41s17.909 40 40 40z" fill="url(#paint0_linear_328_10)" stroke="#000" stroke-width=".5"/><path d="M81 33.828L108 7l27 26.828-13.249 13.164-13.491-13.406-.243-.24-.243.24L94.274 47 81 33.828z" fill="#FFF6F0" stroke="#000"/><path d="M86.968 53.2h10.608v3.024h-7.44v3.84h7.152v3.024h-7.152v3.888h7.728V70H86.968V53.2zm26.119 0v10.992c0 1.92-.512 3.424-1.536 4.512-1.008 1.088-2.512 1.632-4.512 1.632-2 0-3.512-.544-4.536-1.632-1.008-1.088-1.512-2.592-1.512-4.512V53.2h3.168v10.992c0 .992.232 1.768.696 2.328.464.56 1.192.84 2.184.84.992 0 1.72-.28 2.184-.84.464-.56.696-1.336.696-2.328V53.2h3.168zM127.423 70h-3.168v-5.04c0-.384-.104-.696-.312-.936-.192-.24-.52-.36-.984-.36h-3.648V70h-3.168V53.2h6.432c.864 0 1.624.12 2.28.36.656.24 1.2.576 1.632 1.008.448.416.784.904 1.008 1.464.24.56.36 1.16.36 1.8v.576c0 .688-.184 1.336-.552 1.944-.368.592-.936 1.048-1.704 1.368v.432c.56.064 1 .28 1.32.648.336.368.504.832.504 1.392V70zm-8.112-9.36h3.024c.768 0 1.352-.176 1.752-.528.4-.368.6-.88.6-1.536v-.288c0-.56-.2-1.04-.6-1.44-.4-.416-.984-.624-1.752-.624h-3.024v4.416z" fill="#2A363A"/><path d="M41 81C18.909 81 1 63.091 1 41S18.909 1 41 1s40 17.909 40 40-17.909 40-40 40z" fill="#000" stroke="#000" stroke-width="1.237" stroke-miterlimit="11.339"/><path d="M63.067 18.751c1.686 1.771 3.078 3.26 3.092 3.289.014.042-1.504 1.532-3.373 3.303-1.87 1.785-3.5 3.345-3.612 3.443l-.211.197.38.633c3.33 5.51 4.019 12.143 1.925 18.243-.394 1.152-1.068 2.628-1.645 3.598-.28.478-.407.787-.38.843.029.056 1.73 1.855 3.782 4.006 2.052 2.136 3.724 3.921 3.752 3.95.014.041-5.734 5.593-6.282 6.043l-.211.182-3.247-3.387c-1.785-1.87-3.457-3.626-3.71-3.893l-.478-.478-.45.281c-2.29 1.462-4.975 2.474-7.94 3.008-1.49.267-4.33.337-5.918.14-3.064-.35-6.1-1.377-8.587-2.88l-.647-.394-.688.674c-1.504 1.462-7.126 6.803-7.183 6.831-.056.028-6.226-6.423-6.212-6.507.014-.043 4.245-4.104 6.83-6.536l.858-.815-.393-.647c-3.303-5.495-3.992-12.157-1.855-18.299.309-.9 1.25-2.923 1.798-3.851l.268-.464-3.613-3.78c-1.981-2.067-3.598-3.795-3.584-3.838.057-.14 6.381-6.113 6.466-6.113.056 0 1.644 1.616 3.542 3.612 1.897 1.982 3.471 3.612 3.513 3.626.028.014.211-.07.38-.197.477-.323 1.686-.984 2.36-1.293 2.053-.942 3.964-1.518 6.185-1.841 1.153-.169 4.61-.197 5.678-.042 2.558.365 4.652.998 6.789 2.066.618.295 1.335.689 1.616.857l.506.31.576-.563c.31-.31 1.715-1.63 3.106-2.965 1.392-1.322 2.811-2.67 3.148-3.008l.619-.604 3.05 3.26zm-23.598 9.164a13.02 13.02 0 0 0-6.072 2.319c-.941.66-2.347 2.066-3.008 3.008-3.752 5.312-3.035 12.537 1.687 16.964 4.034 3.767 9.867 4.61 14.772 2.108 3.541-1.813 6.043-5.13 6.844-9.107.253-1.265.253-3.627 0-4.877-.239-1.237-.562-2.123-1.166-3.36a12.896 12.896 0 0 0-13.057-7.055z" fill="#fff"/><defs><linearGradient id="paint0_linear_328_10" x1="108" y1="1" x2="108" y2="81" gradientUnits="userSpaceOnUse"><stop stop-color="#F4837D"/><stop offset="1" stop-color="#FDCEAA"/></linearGradient></defs></svg>