<svg fill="none" height="82" viewBox="0 0 148 82" width="148" xmlns="http://www.w3.org/2000/svg" xmlns:xlink="http://www.w3.org/1999/xlink"><linearGradient id="a" gradientUnits="userSpaceOnUse" x1="107" x2="107" y1="1" y2="81"><stop offset="0" stop-color="#f4837d"/><stop offset="1" stop-color="#fdceaa"/></linearGradient><path d="m107 81c22.091 0 40-17.9086 40-40s-17.909-40-40-40c-22.0914 0-40 17.9086-40 40s17.9086 40 40 40z" fill="url(#a)" stroke="#000" stroke-width=".5"/><path d="m80 33.8277 27-26.8277 27 26.8277-13.249 13.1641-13.491-13.4056-.243-.2409-.243.2409-13.4999 13.4138z" fill="#fff6f0" stroke="#000"/><path d="m85.968 51.2h10.608v3.024h-7.44v3.84h7.152v3.024h-7.152v3.888h7.728v3.024h-10.896zm26.119 0v10.992c0 1.92-.512 3.424-1.536 4.512-1.008 1.088-2.512 1.632-4.512 1.632s-3.512-.544-4.536-1.632c-1.008-1.088-1.5117-2.592-1.5117-4.512v-10.992h3.1677v10.992c0 .992.232 1.768.696 2.328s1.192.84 2.184.84 1.72-.28 2.184-.84.696-1.336.696-2.328v-10.992zm14.336 16.8h-3.168v-5.04c0-.384-.104-.696-.312-.936-.192-.24-.52-.36-.984-.36h-3.648v6.336h-3.168v-16.8h6.432c.864 0 1.624.12 2.28.36s1.2.576 1.632 1.008c.448.416.784.904 1.008 1.464.24.56.36 1.16.36 1.8v.576c0 .688-.184 1.336-.552 1.944-.368.592-.936 1.048-1.704 1.368v.432c.56.064 1 .28 1.32.648.336.368.504.832.504 1.392zm-8.112-9.36h3.024c.768 0 1.352-.176 1.752-.528.4-.368.6-.88.6-1.536v-.288c0-.56-.2-1.04-.6-1.44-.4-.416-.984-.624-1.752-.624h-3.024z" fill="#2a363a"/><path d="m40 81c22.1668 0 40-17.8332 40-40s-17.8332-40-40-40-40 17.8332-40 40 17.8332 40 40 40z" fill="#2775ca"/><g fill="#fff"><path d="m50.9992 47.333c0-5.8332-3.5-7.8332-10.5-8.6664-5-.6668-6-2-6-4.3336s1.6668-3.8332 5-3.8332c3 0 4.6668 1 5.5 3.5.1668.5.6668.8332 1.1668.8332h2.6664c.6668 0 1.1668-.5 1.1668-1.1664v-.1668c-.6668-3.6668-3.6668-6.5-7.5-6.8332v-4c0-.6668-.5-1.1668-1.3332-1.3336h-2.5c-.6668 0-1.1668.5-1.3336 1.3336v3.8332c-5 .6668-8.1664 4-8.1664 8.1668 0 5.5 3.3332 7.6664 10.3332 8.5 4.6668.8332 6.1668 1.8332 6.1668 4.5s-2.3336 4.5-5.5 4.5c-4.3336 0-5.8336-1.8336-6.3336-4.3336-.1664-.6664-.6664-1-1.1664-1h-2.8336c-.6664 0-1.1664.5-1.1664 1.1668v.1668c.6664 4.1664 3.3332 7.1664 8.8332 8v4c0 .6664.5 1.1664 1.3332 1.3332h2.5c.6668 0 1.1668-.5 1.3336-1.3332v-4c5-.8336 8.3332-4.3336 8.3332-8.8336z"/><path d="m31.4993 64.8334c-13-4.6664-19.6668-19.1664-14.8332-32 2.5-7 8-12.3332 14.8332-14.8332.6668-.3332 1-.8332 1-1.6668v-2.3332c0-.6668-.3332-1.1668-1-1.3332-.1668 0-.5 0-.6668.1664-15.8332 5-24.49996 21.8336-19.5 37.6668 3 9.3332 10.1668 16.5 19.5 19.5.6668.3332 1.3336 0 1.5-.6668.1668-.1664.1668-.3332.1668-.6664v-2.3336c0-.5-.5-1.1664-1-1.5zm17.6668-52c-.6668-.3332-1.3336 0-1.5.6668-.1668.1668-.1668.3332-.1668.6668v2.3332c0 .6668.5 1.3332 1 1.6668 13 4.6664 19.6668 19.1664 14.8332 32-2.5 7-8 12.3332-14.8332 14.8332-.6668.3332-1 .8332-1 1.6668v2.3332c0 .6668.3332 1.1668 1 1.3332.1668 0 .5 0 .6668-.1664 15.8332-5 24.5-21.8336 19.5-37.6668-3-9.5-10.3336-16.6668-19.5-19.6668z"/></g></svg>