<svg fill="none" height="35" width="62" xmlns="http://www.w3.org/2000/svg" xmlns:xlink="http://www.w3.org/1999/xlink"><linearGradient id="a" gradientUnits="userSpaceOnUse" x1="32.84" x2="51.989" y1="27.788" y2="10.757"><stop offset=".073" stop-color="#aac4fd"/><stop offset="1" stop-color="#76a0fc"/></linearGradient><clipPath id="b"><path d="m0 0h34.41v34.41h-34.41z" transform="translate(27.284 .258)"/></clipPath><g clip-path="url(#b)"><circle cx="44.424" cy="17.399" fill="url(#a)" r="17.144"/><path d="m53.776 15.038-9.364-9.562-9.365 9.562 4.682 4.78 4.683-4.78 4.682 4.78z" fill="#fff"/><g fill="#1f2333"><path d="m44.034 28.456c-.465 0-.866-.084-1.201-.252a1.841 1.841 0 0 1 -.764-.73c-.173-.32-.26-.696-.26-1.13v-3.684h1.072v3.718c0 .347.098.62.293.82.2.2.487.3.86.3.374 0 .658-.1.853-.3.2-.2.3-.473.3-.82v-3.718h1.072v3.686c0 .433-.09.809-.268 1.128a1.78 1.78 0 0 1 -.763.731c-.33.168-.728.252-1.194.252zm4.675-.114v-5.683h2.468c.357 0 .668.062.934.187.265.124.47.3.617.527.146.228.219.496.219.804v.098c0 .34-.081.617-.244.828a1.432 1.432 0 0 1 -.6.462v.147c.216.01.384.086.503.227.119.135.178.317.178.544v1.859h-1.071v-1.705a.466.466 0 0 0 -.106-.317c-.065-.08-.176-.121-.333-.121h-1.493v2.143zm1.072-3.118h1.282c.255 0 .452-.067.593-.203a.732.732 0 0 0 .22-.552v-.08c0-.228-.071-.41-.212-.545-.14-.14-.341-.21-.6-.21h-1.284v1.59z"/><path clip-rule="evenodd" d="m35.801 28.476v-5.95h3.92v1.241h-2.58v1.088h2.354v1.242h-2.355v1.137h2.63v1.242zm6.97-.153a1.975 1.975 0 0 1 -.818-.784l-.001-.002c-.186-.342-.276-.741-.276-1.192v-3.82h1.34v3.852c0 .32.088.557.253.726.168.168.416.26.765.26.35 0 .595-.093.757-.259l.001-.001c.17-.17.261-.406.261-.726v-3.852h1.34v3.82c0 .451-.094.85-.285 1.193-.187.338-.461.6-.82.785-.353.18-.773.267-1.254.267s-.903-.087-1.261-.266h-.001zm3.22-.85c.178-.319.268-.695.268-1.128v-3.686h-1.072v3.718c0 .347-.1.62-.3.82-.195.2-.48.3-.853.3s-.66-.1-.86-.3c-.195-.2-.293-.473-.293-.82v-3.717h-1.071v3.686c0 .433.086.809.26 1.128.178.314.432.558.763.731.335.168.736.252 1.201.252.466 0 .864-.084 1.194-.252a1.78 1.78 0 0 0 .763-.73zm2.584 1.003v-5.95h2.602c.373 0 .704.064.99.199.286.134.512.326.673.576.162.252.24.546.24.876v.098c0 .362-.086.669-.27.91a1.58 1.58 0 0 1 -.49.425.75.75 0 0 1 .387.242c.145.165.211.38.211.63v1.994h-1.34v-1.839a.333.333 0 0 0 -.072-.229l-.002-.002-.001-.002c-.03-.036-.091-.072-.229-.072h-1.36v2.144zm1.206-2.277h1.493c.157 0 .268.04.333.121.07.082.106.187.106.317v1.705h1.071v-1.86c0-.226-.06-.408-.178-.543-.12-.14-.287-.217-.504-.227v-.147c.239-.097.439-.251.601-.462.163-.211.244-.488.244-.829v-.097c0-.308-.073-.576-.22-.804a1.44 1.44 0 0 0 -.616-.527 2.178 2.178 0 0 0 -.934-.187h-2.468v5.683h1.072zm1.79-2.26h-.002c-.108-.109-.27-.172-.506-.172h-1.149v1.324h1.15c.23 0 .39-.061.5-.166a.599.599 0 0 0 .177-.456v-.08c0-.198-.06-.342-.17-.448v-.001zm.085 1.082c-.14.136-.338.203-.593.203h-1.282v-1.59h1.282c.26 0 .46.07.601.21.14.136.211.317.211.544v.081a.732.732 0 0 1 -.22.552z" fill-rule="evenodd"/></g></g><path d="m17.775 34.828a17.167 17.167 0 0 0 17.208-17.208 17.167 17.167 0 0 0 -17.208-17.208 17.167 17.167 0 0 0 -17.208 17.208 17.167 17.167 0 0 0 17.208 17.208z" fill="#2775ca"/><g fill="#fff"><path d="m22.507 20.344c0-2.51-1.506-3.37-4.517-3.728-2.151-.287-2.581-.86-2.581-1.864s.717-1.65 2.15-1.65c1.291 0 2.008.43 2.367 1.506a.54.54 0 0 0 .502.359h1.147a.49.49 0 0 0 .502-.502v-.072a3.582 3.582 0 0 0 -3.227-2.94v-1.72c0-.287-.215-.502-.573-.574h-1.077c-.287 0-.502.215-.574.574v1.649c-2.15.287-3.513 1.72-3.513 3.513 0 2.366 1.434 3.298 4.445 3.657 2.008.358 2.653.788 2.653 1.936 0 1.147-1.003 1.936-2.366 1.936-1.864 0-2.51-.79-2.724-1.865-.072-.286-.287-.43-.502-.43h-1.219a.49.49 0 0 0 -.501.502v.072c.287 1.792 1.434 3.083 3.8 3.441v1.721c0 .287.215.502.574.574h1.075c.287 0 .502-.215.574-.574v-1.72c2.15-.36 3.585-1.865 3.585-3.8z"/><path d="m14.118 27.876c-5.592-2.008-8.46-8.245-6.38-13.767 1.075-3.011 3.44-5.305 6.38-6.38.287-.144.43-.36.43-.718v-1.004c0-.286-.143-.502-.43-.573-.071 0-.215 0-.287.071-6.811 2.151-10.539 9.393-8.387 16.205a12.899 12.899 0 0 0 8.389 8.389c.286.143.573 0 .645-.287.072-.072.072-.143.072-.287v-1.004c0-.215-.216-.502-.43-.645zm7.6-22.37c-.286-.144-.573 0-.645.286-.071.072-.071.144-.071.287v1.004c0 .287.215.573.43.717 5.592 2.007 8.46 8.245 6.381 13.766-1.075 3.012-3.442 5.306-6.381 6.382-.287.143-.43.358-.43.717v1.004c0 .286.143.501.43.573.072 0 .215 0 .287-.072 6.811-2.15 10.54-9.392 8.389-16.204-1.291-4.087-4.446-7.17-8.39-8.46z"/></g></svg>