<svg fill="none" height="82" viewBox="0 0 148 82" width="148" xmlns="http://www.w3.org/2000/svg" xmlns:xlink="http://www.w3.org/1999/xlink"><linearGradient id="a" gradientUnits="userSpaceOnUse" x1="107" x2="107" y1="1" y2="81"><stop offset="0" stop-color="#f4837d"/><stop offset="1" stop-color="#fdceaa"/></linearGradient><path d="m107 81c22.091 0 40-17.9086 40-40s-17.909-40-40-40c-22.0914 0-40 17.9086-40 40s17.9086 40 40 40z" fill="url(#a)" stroke="#000" stroke-width=".5"/><path d="m80 33.8277 27-26.8277 27 26.8277-13.249 13.1641-13.491-13.4056-.243-.2409-.243.2409-13.4999 13.4138z" fill="#fff6f0" stroke="#000"/><path d="m97.392 51.2v10.992c0 1.92-.512 3.424-1.536 4.512-1.008 1.088-2.512 1.632-4.512 1.632s-3.512-.544-4.536-1.632c-1.008-1.088-1.512-2.592-1.512-4.512v-10.992h3.168v10.992c0 .992.232 1.768.696 2.328s1.192.84 2.184.84 1.72-.28 2.184-.84.696-1.336.696-2.328v-10.992zm11.527 5.136c0-.672-.264-1.256-.792-1.752-.512-.496-1.24-.744-2.184-.744-.8 0-1.432.168-1.896.504-.464.32-.696.76-.696 1.32 0 .288.056.552.168.792.112.224.304.432.576.624.288.176.656.336 1.104.48.464.144 1.048.28 1.752.408 1.76.32 3.104.856 4.032 1.608s1.392 1.864 1.392 3.336v.288c0 .784-.144 1.496-.432 2.136-.272.624-.672 1.16-1.2 1.608s-1.168.792-1.92 1.032-1.6.36-2.544.36c-1.104 0-2.08-.152-2.928-.456-.832-.32-1.528-.752-2.088-1.296-.56-.56-.984-1.208-1.2717-1.944-.288-.752-.432-1.568-.432-2.448v-.72h3.1677v.576c0 1.008.288 1.816.864 2.424.592.592 1.504.888 2.736.888.96 0 1.672-.208 2.136-.624s.696-.912.696-1.488c0-.272-.048-.528-.144-.768-.096-.256-.264-.48-.504-.672-.24-.208-.568-.392-.984-.552s-.944-.296-1.584-.408c-.848-.144-1.624-.328-2.328-.552-.704-.24-1.32-.552-1.848-.936-.512-.384-.912-.864-1.2-1.44s-.432-1.28-.432-2.112v-.144c0-.688.136-1.32.408-1.896.288-.592.68-1.104 1.176-1.536.512-.432 1.12-.768 1.824-1.008.72-.24 1.52-.36 2.4-.36.992 0 1.872.144 2.64.432.768.272 1.408.648 1.92 1.128.528.48.92 1.032 1.176 1.656.272.624.408 1.28.408 1.968v.864h-3.168zm5.576-5.136h6.096c2.08 0 3.624.488 4.632 1.464 1.008.96 1.512 2.456 1.512 4.488v4.896c0 2.032-.504 3.536-1.512 4.512-1.008.96-2.552 1.44-4.632 1.44h-6.096v-3.048h1.584v-10.728h-1.584zm6.096 13.776c1.104 0 1.872-.256 2.304-.768.448-.528.672-1.344.672-2.448v-4.608c0-.96-.224-1.688-.672-2.184-.432-.496-1.2-.744-2.304-.744h-1.344v10.752z" fill="#2a363a"/><path d="m40 81c22.1668 0 40-17.8332 40-40s-17.8332-40-40-40-40 17.8332-40 40 17.8332 40 40 40z" fill="#2775ca"/><g fill="#fff"><path d="m50.9992 47.333c0-5.8332-3.5-7.8332-10.5-8.6664-5-.6668-6-2-6-4.3336s1.6668-3.8332 5-3.8332c3 0 4.6668 1 5.5 3.5.1668.5.6668.8332 1.1668.8332h2.6664c.6668 0 1.1668-.5 1.1668-1.1664v-.1668c-.6668-3.6668-3.6668-6.5-7.5-6.8332v-4c0-.6668-.5-1.1668-1.3332-1.3336h-2.5c-.6668 0-1.1668.5-1.3336 1.3336v3.8332c-5 .6668-8.1664 4-8.1664 8.1668 0 5.5 3.3332 7.6664 10.3332 8.5 4.6668.8332 6.1668 1.8332 6.1668 4.5s-2.3336 4.5-5.5 4.5c-4.3336 0-5.8336-1.8336-6.3336-4.3336-.1664-.6664-.6664-1-1.1664-1h-2.8336c-.6664 0-1.1664.5-1.1664 1.1668v.1668c.6664 4.1664 3.3332 7.1664 8.8332 8v4c0 .6664.5 1.1664 1.3332 1.3332h2.5c.6668 0 1.1668-.5 1.3336-1.3332v-4c5-.8336 8.3332-4.3336 8.3332-8.8336z"/><path d="m31.4993 64.8334c-13-4.6664-19.6668-19.1664-14.8332-32 2.5-7 8-12.3332 14.8332-14.8332.6668-.3332 1-.8332 1-1.6668v-2.3332c0-.6668-.3332-1.1668-1-1.3332-.1668 0-.5 0-.6668.1664-15.8332 5-24.49996 21.8336-19.5 37.6668 3 9.3332 10.1668 16.5 19.5 19.5.6668.3332 1.3336 0 1.5-.6668.1668-.1664.1668-.3332.1668-.6664v-2.3336c0-.5-.5-1.1664-1-1.5zm17.6668-52c-.6668-.3332-1.3336 0-1.5.6668-.1668.1668-.1668.3332-.1668.6668v2.3332c0 .6668.5 1.3332 1 1.6668 13 4.6664 19.6668 19.1664 14.8332 32-2.5 7-8 12.3332-14.8332 14.8332-.6668.3332-1 .8332-1 1.6668v2.3332c0 .6668.3332 1.1668 1 1.3332.1668 0 .5 0 .6668-.1664 15.8332-5 24.5-21.8336 19.5-37.6668-3-9.5-10.3336-16.6668-19.5-19.6668z"/></g></svg>