<svg fill="none" height="82" width="148" xmlns="http://www.w3.org/2000/svg"><linearGradient id="a" gradientUnits="userSpaceOnUse" x1="107" x2="107" y1="1" y2="81"><stop offset="0" stop-color="#f4837d"/><stop offset="1" stop-color="#fdceaa"/></linearGradient><path d="M107 81c22.091 0 40-17.909 40-40S129.091 1 107 1 67 18.909 67 41s17.909 40 40 40z" fill="url(#a)" stroke="#000" stroke-width=".5"/><path d="M80 33.828L107 7l27 26.828-13.249 13.164-13.491-13.406-.243-.24-.243.24L93.274 47z" fill="#fff6f0" stroke="#000"/><path d="M85.968 51.2h10.608v3.024h-7.44v3.84h7.152v3.024h-7.152v3.888h7.728V68H85.968zm26.119 0v10.992c0 1.92-.512 3.424-1.536 4.512-1.008 1.088-2.512 1.632-4.512 1.632s-3.512-.544-4.536-1.632c-1.008-1.088-1.512-2.592-1.512-4.512V51.2h3.168v10.992c0 .992.232 1.768.696 2.328s1.192.84 2.184.84 1.72-.28 2.184-.84.696-1.336.696-2.328V51.2zM126.423 68h-3.168v-5.04c0-.384-.104-.696-.312-.936-.192-.24-.52-.36-.984-.36h-3.648V68h-3.168V51.2h6.432c.864 0 1.624.12 2.28.36s1.2.576 1.632 1.008c.448.416.784.904 1.008 1.464.24.56.36 1.16.36 1.8v.576c0 .688-.184 1.336-.552 1.944-.368.592-.936 1.048-1.704 1.368v.432c.56.064 1 .28 1.32.648.336.368.504.832.504 1.392zm-8.112-9.36h3.024c.768 0 1.352-.176 1.752-.528.4-.368.6-.88.6-1.536v-.288c0-.56-.2-1.04-.6-1.44-.4-.416-.984-.624-1.752-.624h-3.024z" fill="#2a363a"/><path d="M40 81c22.167 0 40-17.833 40-40S62.167 1 40 1 0 18.833 0 41s17.833 40 40 40z" fill="#2775ca"/><g fill="#fff"><path d="M51 47.333c0-5.833-3.5-7.833-10.5-8.666-5-.667-6-2-6-4.334s1.666-3.833 5-3.833c3 0 4.666 1 5.5 3.5.166.5.666.833 1.166.833h2.666c.667 0 1.167-.5 1.167-1.166V33.5a8.327 8.327 0 0 0-7.5-6.833v-4c0-.667-.5-1.167-1.333-1.334h-2.5c-.667 0-1.167.5-1.334 1.334V26.5c-5 .667-8.166 4-8.166 8.167 0 5.5 3.333 7.666 10.333 8.5 4.667.833 6.167 1.833 6.167 4.5s-2.334 4.5-5.5 4.5c-4.334 0-5.834-1.834-6.334-4.334-.166-.666-.666-1-1.166-1h-2.834c-.666 0-1.166.5-1.166 1.167v.167c.666 4.166 3.333 7.166 8.833 8v4c0 .666.5 1.166 1.333 1.333h2.5c.667 0 1.167-.5 1.334-1.333v-4c5-.834 8.333-4.334 8.333-8.834z"/><path d="M31.5 64.833c-13-4.666-19.667-19.166-14.834-32 2.5-7 8-12.333 14.833-14.833.667-.333 1-.833 1-1.667V14c0-.667-.333-1.167-1-1.333-.167 0-.5 0-.667.166-15.833 5-24.5 21.834-19.5 37.667 3 9.333 10.167 16.5 19.5 19.5.667.333 1.334 0 1.5-.667.167-.166.167-.333.167-.666v-2.334c0-.5-.5-1.166-1-1.5zm17.666-52c-.667-.333-1.333 0-1.5.667-.167.167-.167.333-.167.667V16.5c0 .667.5 1.333 1 1.667 13 4.666 19.667 19.166 14.833 32-2.5 7-8 12.333-14.833 14.833-.667.333-1 .833-1 1.667V69c0 .667.333 1.167 1 1.333.167 0 .5 0 .667-.166 15.833-5 24.5-21.834 19.5-37.667-3-9.5-10.333-16.667-19.5-19.667z"/></g></svg>