<svg fill="none" height="82" width="148" xmlns="http://www.w3.org/2000/svg"><linearGradient id="a" gradientUnits="userSpaceOnUse" x1="107" x2="107" y1="1" y2="81"><stop offset="0" stop-color="#f4837d"/><stop offset="1" stop-color="#fdceaa"/></linearGradient><path d="M107 81c22.091 0 40-17.909 40-40S129.091 1 107 1 67 18.909 67 41s17.909 40 40 40z" fill="url(#a)" stroke="#000" stroke-width=".5"/><path d="M80 33.828L107 7l27 26.828-13.249 13.164-13.491-13.406-.243-.24-.243.24L93.274 47z" fill="#fff6f0" stroke="#000"/><path d="M97.392 51.2v10.992c0 1.92-.512 3.424-1.536 4.512-1.008 1.088-2.512 1.632-4.512 1.632s-3.512-.544-4.536-1.632c-1.008-1.088-1.512-2.592-1.512-4.512V51.2h3.168v10.992c0 .992.232 1.768.696 2.328s1.192.84 2.184.84 1.72-.28 2.184-.84.696-1.336.696-2.328V51.2zm11.527 5.136c0-.672-.264-1.256-.792-1.752-.512-.496-1.24-.744-2.184-.744-.8 0-1.432.168-1.896.504-.464.32-.696.76-.696 1.32 0 .288.056.552.168.792.112.224.304.432.576.624.288.176.656.336 1.104.48.464.144 1.048.28 1.752.408 1.76.32 3.104.856 4.032 1.608s1.392 1.864 1.392 3.336v.288c0 .784-.144 1.496-.432 2.136-.272.624-.672 1.16-1.2 1.608s-1.168.792-1.92 1.032-1.6.36-2.544.36c-1.104 0-2.08-.152-2.928-.456-.832-.32-1.528-.752-2.088-1.296a5.609 5.609 0 0 1-1.272-1.944 6.788 6.788 0 0 1-.432-2.448v-.72h3.168v.576c0 1.008.288 1.816.864 2.424.592.592 1.504.888 2.736.888.96 0 1.672-.208 2.136-.624s.696-.912.696-1.488c0-.272-.048-.528-.144-.768a1.559 1.559 0 0 0-.504-.672c-.24-.208-.568-.392-.984-.552s-.944-.296-1.584-.408a17.176 17.176 0 0 1-2.328-.552 6.909 6.909 0 0 1-1.848-.936c-.512-.384-.912-.864-1.2-1.44s-.432-1.28-.432-2.112v-.144c0-.688.136-1.32.408-1.896a4.803 4.803 0 0 1 1.176-1.536 5.593 5.593 0 0 1 1.824-1.008c.72-.24 1.52-.36 2.4-.36.992 0 1.872.144 2.64.432.768.272 1.408.648 1.92 1.128.528.48.92 1.032 1.176 1.656.272.624.408 1.28.408 1.968v.864h-3.168zm5.576-5.136h6.096c2.08 0 3.624.488 4.632 1.464 1.008.96 1.512 2.456 1.512 4.488v4.896c0 2.032-.504 3.536-1.512 4.512-1.008.96-2.552 1.44-4.632 1.44h-6.096v-3.048h1.584V54.224h-1.584zm6.096 13.776c1.104 0 1.872-.256 2.304-.768.448-.528.672-1.344.672-2.448v-4.608c0-.96-.224-1.688-.672-2.184-.432-.496-1.2-.744-2.304-.744h-1.344v10.752z" fill="#2a363a"/><path d="M40 81c22.167 0 40-17.833 40-40S62.167 1 40 1 0 18.833 0 41s17.833 40 40 40z" fill="#2775ca"/><g fill="#fff"><path d="M51 47.333c0-5.833-3.5-7.833-10.5-8.666-5-.667-6-2-6-4.334s1.666-3.833 5-3.833c3 0 4.666 1 5.5 3.5.166.5.666.833 1.166.833h2.666c.667 0 1.167-.5 1.167-1.166V33.5a8.327 8.327 0 0 0-7.5-6.833v-4c0-.667-.5-1.167-1.333-1.334h-2.5c-.667 0-1.167.5-1.334 1.334V26.5c-5 .667-8.166 4-8.166 8.167 0 5.5 3.333 7.666 10.333 8.5 4.667.833 6.167 1.833 6.167 4.5s-2.334 4.5-5.5 4.5c-4.334 0-5.834-1.834-6.334-4.334-.166-.666-.666-1-1.166-1h-2.834c-.666 0-1.166.5-1.166 1.167v.167c.666 4.166 3.333 7.166 8.833 8v4c0 .666.5 1.166 1.333 1.333h2.5c.667 0 1.167-.5 1.334-1.333v-4c5-.834 8.333-4.334 8.333-8.834z"/><path d="M31.5 64.833c-13-4.666-19.667-19.166-14.834-32 2.5-7 8-12.333 14.833-14.833.667-.333 1-.833 1-1.667V14c0-.667-.333-1.167-1-1.333-.167 0-.5 0-.667.166-15.833 5-24.5 21.834-19.5 37.667 3 9.333 10.167 16.5 19.5 19.5.667.333 1.334 0 1.5-.667.167-.166.167-.333.167-.666v-2.334c0-.5-.5-1.166-1-1.5zm17.666-52c-.667-.333-1.333 0-1.5.667-.167.167-.167.333-.167.667V16.5c0 .667.5 1.333 1 1.667 13 4.666 19.667 19.166 14.833 32-2.5 7-8 12.333-14.833 14.833-.667.333-1 .833-1 1.667V69c0 .667.333 1.167 1 1.333.167 0 .5 0 .667-.166 15.833-5 24.5-21.834 19.5-37.667-3-9.5-10.333-16.667-19.5-19.667z"/></g></svg>