<svg fill="none" height="24" width="24" xmlns="http://www.w3.org/2000/svg"><path d="M12 24c6.627 0 12-5.373 12-12S18.627 0 12 0 0 5.373 0 12s5.373 12 12 12z" fill="#07c166"/><path clip-rule="evenodd" d="M16.267 4.512c.3.034.49.338.39.623L15.19 9.298a.47.47 0 0 1-.842.093l-.313-.5-5.655 3.533-.581-.93A3.174 3.174 0 0 1 8.81 7.12l2.963-1.851-.343-.55a.47.47 0 0 1 .452-.716zm-5.929 9.653A4.271 4.271 0 0 0 8.775 20l5.754-3.322a3.174 3.174 0 0 0 1.161-4.335l-.548-.95z" fill="#fff" fill-rule="evenodd"/></svg>