<svg fill="none" height="391" width="471" xmlns="http://www.w3.org/2000/svg"><path clip-rule="evenodd" d="m98.42 249.595 7.027 48.532-35.147 6.933-28.12-6.933-42.18-69.329 14.06-124.801 49.207-62.397 63.266-6.932 63.267-34.668 84.367 41.6-21.094 20.797c60.925 9.243 100.763 16.183 119.507 20.804 28.12 6.932 77.333 41.6 84.36 48.532 7.033 6.932 3.679 38.801 0 62.397-2.457 15.731-7.142 27.285-14.06 34.668l28.12 159.462h-63.267l14.06-13.864-56.24-117.869-154.66 20.804-56.227 110.929h-63.266l21.087-34.668 42.179-145.597-28.12-27.73-63.28 13.865-7.032 55.465 21.086 20.803 21.093-20.803zm98.891 81.885 21.004-42.583 28.005-7.095 21.004 106.458h-70.013l14.002-7.095zm134.935-48.206 21.004-13.997 35.007 59.492-7.002 59.491h-63.012l14.003-20.997z" fill="#000" fill-rule="evenodd"/></svg>