<svg width="24" height="25" fill="none" xmlns="http://www.w3.org/2000/svg"><path d="M12 24.012c-6.627 0-12-5.373-12-12 0-6.628 5.373-12 12-12s12 5.372 12 12c0 6.627-5.373 12-12 12z" fill="#FAF1E7"/><path fill-rule="evenodd" clip-rule="evenodd" d="M7.344 13.573l.24 1.667-1.194.239-.956-.242L4 12.857l.477-4.287 1.67-2.141 2.15-.239L10.449 5l2.864 1.429-.717.713c2.07.318 3.424.556 4.061.712.957.24 2.627 1.43 2.867 1.668.24.239.125 1.333 0 2.142-.083.54-.243.935-.477 1.19l.954 5.48h-2.15l.476-.478-1.91-4.048-5.254.713-1.91 3.81H7.103l.717-1.191 1.433-5-.956-.95-2.15.477-.24 1.903.716.712.72-.71zm3.36 2.81l.714-1.461.95-.245.714 3.656h-2.378l.477-.245-.477-1.705zm4.582-1.655l.714-.48 1.19 2.042-.236 2.043h-2.141l.477-.722v-2.883h-.004z" fill="#000"/></svg>