<svg fill="none" height="354" width="354" xmlns="http://www.w3.org/2000/svg"><linearGradient id="b" gradientUnits="userSpaceOnUse" x1="51.788" x2="301.849" y1="51.788" y2="301.849"><stop offset="0" stop-color="#ae8625"/><stop offset=".33" stop-color="#f7ef8a"/><stop offset=".67" stop-color="#d2ac47"/><stop offset="1" stop-color="#edc967"/></linearGradient><clipPath id="a"><path d="M0 0h353.64v353.64H0z"/></clipPath><g clip-path="url(#a)"><path d="M176.82 353.64c-23.87 0-47.02-4.68-68.83-13.9a176.982 176.982 0 0 1-30.04-16.3 178.4 178.4 0 0 1-26.16-21.58c-8-8-15.26-16.8-21.58-26.16a176.282 176.282 0 0 1-16.3-30.04C4.68 223.84 0 200.69 0 176.82s4.68-47.02 13.9-68.83c4.43-10.48 9.92-20.59 16.3-30.04a178.4 178.4 0 0 1 21.58-26.16c8-8 16.8-15.26 26.16-21.58 9.45-6.39 19.56-11.87 30.04-16.3C129.8 4.68 152.95 0 176.82 0s47.02 4.68 68.83 13.9c10.48 4.43 20.59 9.92 30.04 16.3a178.4 178.4 0 0 1 26.16 21.58c8 8 15.26 16.8 21.58 26.16 6.39 9.45 11.87 19.56 16.3 30.04 9.22 21.81 13.9 44.96 13.9 68.83s-4.68 47.02-13.9 68.83a176.982 176.982 0 0 1-16.3 30.04 178.4 178.4 0 0 1-21.58 26.16c-8 8-16.8 15.26-26.16 21.58a176.282 176.282 0 0 1-30.04 16.3c-21.81 9.22-44.96 13.9-68.83 13.9zm0-331.67c-85.38 0-154.85 69.47-154.85 154.85s69.47 154.85 154.85 154.85 154.85-69.47 154.85-154.85S262.21 21.97 176.82 21.97zm102.1 234.27c4.63-5.93 8.71-12.22 12.22-18.85L149.16 95.41a85.458 85.458 0 0 0-20.72 10.35l134.79 134.79c-3.14 4.26-6.64 8.33-10.49 12.18-1.28 1.28-2.59 2.52-3.91 3.72-5.61 5.08-11.62 9.45-17.94 13.13-41.09 23.94-94.8 18.32-129.97-16.85a107.7 107.7 0 0 1-11.8-13.99l-17.96 12.68a128.92 128.92 0 0 0 14.23 16.84c12.34 12.34 26.74 21.9 42.79 28.41 15.5 6.28 31.87 9.47 48.66 9.47s33.16-3.19 48.66-9.47c7.5-3.04 14.65-6.75 21.39-11.1 6.18-3.99 12.03-8.52 17.5-13.57a131.25 131.25 0 0 0 14.55-15.77zM97.18 104.82a107.94 107.94 0 0 1 15.9-14.4c6.19-4.57 12.77-8.4 19.6-11.47 39.51-17.76 87.64-10.44 120.04 21.96 2.22 2.22 4.32 4.51 6.31 6.87 1.94 2.31 3.77 4.69 5.49 7.12l17.96-12.68a128.92 128.92 0 0 0-14.23-16.84c-12.34-12.34-26.74-21.9-42.79-28.41-15.5-6.28-31.87-9.47-48.66-9.47s-33.16 3.19-48.66 9.47c-4.08 1.65-8.05 3.5-11.9 5.54-6.63 3.51-12.93 7.59-18.85 12.22a131.25 131.25 0 0 0-15.77 14.55c-5.05 5.47-9.58 11.32-13.57 17.5l146.99 146.99c6.6-3.26 12.85-7.42 18.6-12.47z" fill="url(#b)"/></g></svg>