<svg viewBox="0 0 1913.12 1913.12" xmlns="http://www.w3.org/2000/svg"><circle cx="956.56" cy="956.56" fill="#762cfb" r="956.56"/><path d="M333.07 799.13c16.78-65.56 43.29-127.3 78.87-183.74 4.74-7.52 2.61-17.45-4.79-22.38l-215.92-143.8C86.51 605.59 31.7 797.96 37.53 985.61l259.31-7.5c8.89-.26 15.95-7.56 15.92-16.46-.2-54.46 6.62-109.06 20.31-162.53zm96.74 556.7l-207.18 156.09c112.42 150.12 274.07 265.53 455.28 322.3l78.31-247.29c2.69-8.5-1.9-17.57-10.33-20.47-115.45-39.6-217.64-112.05-293.35-207.7-5.53-6.99-15.62-8.3-22.74-2.94zm898.5 127.22c-49.8 35.29-104.05 63.26-161.49 83.25-8.41 2.93-12.96 12.02-10.24 20.5l79.21 247.03c180.36-57.64 341.07-171.49 454.88-323.11l-207.31-155.94c-7.12-5.35-17.19-4.04-22.72 2.94-37.82 47.75-82.28 89.86-132.33 125.34zm534.16-675.69c-21.34-128.12-70.69-251.83-142.67-359.39l-215.68 144.1c-7.41 4.95-9.5 14.91-4.73 22.44 65.21 102.79 100.55 223.97 100.02 345.56-.04 8.91 7.02 16.23 15.93 16.48l259.29 7.39c1.71-59.2-2.48-118.93-12.15-176.58zm-578.83-707.15c-209.71-80.4-447.27-80.77-656.64.58l93.1 242.09c3.2 8.32 12.45 12.56 20.84 9.55 138.14-49.57 290.95-49.2 429.72-.13 8.4 2.97 17.62-1.31 20.79-9.63l92.18-242.46z" fill="#fff"/><path d="M956.56 403.44c74.68 0 147.11 14.62 215.29 43.46 32.77 13.86 64.38 31.02 93.95 50.99 29.29 19.79 56.84 42.52 81.87 67.55s47.76 52.58 67.55 81.87a552.88 552.88 0 0 1 50.99 93.95c28.84 68.18 43.46 140.61 43.46 215.29s-14.62 147.11-43.46 215.29c-13.86 32.77-31.02 64.38-50.99 93.95-19.79 29.29-42.52 56.84-67.55 81.87s-52.58 47.76-81.87 67.55a552.88 552.88 0 0 1-93.95 50.99c-68.18 28.84-140.61 43.46-215.29 43.46s-147.11-14.62-215.29-43.46c-32.77-13.86-64.38-31.02-93.95-50.99-29.29-19.79-56.84-42.52-81.87-67.55s-47.76-52.58-67.55-81.87a552.88 552.88 0 0 1-50.99-93.95c-28.84-68.18-43.46-140.61-43.46-215.29s14.62-147.11 43.46-215.29c13.86-32.77 31.02-64.38 50.99-93.95 19.79-29.29 42.52-56.84 67.55-81.87s52.58-47.76 81.87-67.55a552.88 552.88 0 0 1 93.95-50.99c68.18-28.84 140.61-43.46 215.29-43.46m0-20c-316.52 0-573.12 256.59-573.12 573.12s256.59 573.12 573.12 573.12 573.12-256.59 573.12-573.12-256.59-573.12-573.12-573.12z" fill="#4419ba"/><path d="M1236.77 624.96c-30.32-30.32-70.5-47.04-113.25-47.04H789.55c-42.75 0-82.99 16.78-113.2 47.1-30.21 30.37-46.87 70.7-46.87 113.61v49.23c0 65.56 41.08 123 109.91 153.72l27.48 11.3V790.27c-.11-.84-.17-1.62-.17-2.46v-49.22c0-8.34 4.24-13.76 6.74-16.28 2.51-2.52 7.91-6.77 16.16-6.77h333.97c8.3 0 13.71 4.2 16.22 6.77 2.51 2.52 6.69 7.94 6.69 16.22v108.02h137.16V738.59c0-42.9-16.66-83.29-46.87-113.61zm-63.6 346.37v-.06l-26.92-11.08v163.73c.11.39.11.84.11 1.24v49.22c0 8.33-4.18 13.81-6.74 16.33-2.51 2.52-7.91 6.77-16.16 6.77H789.55c-12.6 0-22.85-10.35-22.85-22.93v-108.02H629.48v108.02c0 88.6 71.79 160.65 160.07 160.65h333.97c42.75-.06 82.99-16.78 113.2-47.1 30.21-30.37 46.87-70.76 46.87-113.67v-49.22c0-66.18-41.25-123.73-110.41-153.88z" fill="#fff"/><path d="M897.57 1015.8v-.05c47.93 48.11 58.97 109.02 58.97 109.02s7.19-39.21 34.78-79.54c6.8-9.96 14.77-19.97 24.24-29.48 47.93-48.11 108.63-59.24 108.63-59.24s-45.81-8.39-89.34-42.17c-6.52-5.09-13.04-10.68-19.34-17.01-47.93-48.1-59.02-109.08-59.02-109.08s-7.08 39.21-34.67 79.65c-6.8 9.96-14.83 19.97-24.3 29.48-47.99 48.11-108.68 59.18-108.68 59.18s45.87 8.39 89.4 42.17c6.52 5.15 13.04 10.74 19.34 17.06z" fill="#fff"/></svg>