<svg width="500" height="300" viewBox="0 0 500 300" fill="none" xmlns="http://www.w3.org/2000/svg">
<path d="M5 87.62V212.38H121.6V198.4H18.96V101.6H121.6V87.62H5Z" fill="white"/>
<path d="M205.69 143.31L225.3 112.85H241.5L218.2 149.04V150.96L242.8 187.15H225.94L205.69 156.69V143.31Z" fill="white"/>
<path d="M289.33 156.69H307.98L299.66 119.86H297.75L289.33 156.69ZM311.2 170.7H286.21L282.49 187.15H267.86L285.56 112.86H311.85L329.55 187.15H314.92L311.2 170.7Z" fill="white"/>
<path d="M366.56 112.85H380.55V173.77H414.26V187.15H366.56V112.85Z" fill="white"/>
<path d="M133.18 135.57C133.18 132.6 132.03 130.02 129.74 127.82C127.44 125.63 124.21 124.53 120.04 124.53C116.51 124.53 113.72 125.26 111.67 126.71C109.62 128.16 108.6 130.13 108.6 132.6C108.6 133.88 108.85 135.03 109.34 136.05C109.83 137.08 110.7 138 111.94 138.81C113.17 139.62 114.8 140.35 116.82 140.99C118.83 141.63 121.39 142.23 124.51 142.79C132.28 144.21 138.22 146.57 142.32 149.9C146.42 153.22 148.47 158.14 148.47 164.65V165.93C148.47 169.4 147.85 172.53 146.61 175.32C145.37 178.11 143.59 180.5 141.26 182.48C138.93 184.46 136.1 185.98 132.78 187.04C129.46 188.1 125.71 188.63 121.55 188.63C116.67 188.63 112.38 187.94 108.67 186.56C104.96 185.18 101.87 183.27 99.4 180.83C96.93 178.39 95.05 175.52 93.78 172.23C92.51 168.94 91.87 165.35 91.87 161.46V160.82H105.86C105.86 165.28 107.15 168.83 109.73 171.49C112.31 174.14 116.32 175.47 121.76 175.47C126 175.47 129.14 174.55 131.19 172.71C133.24 170.87 134.26 168.68 134.26 166.13C134.26 164.93 134.05 163.78 133.62 162.68C133.2 161.58 132.45 160.59 131.39 159.71C130.33 158.82 128.88 158.03 127.04 157.32C125.2 156.62 122.87 156.01 120.04 155.52C116.29 154.88 112.87 154.05 109.76 153.03C106.65 152 103.95 150.64 101.65 148.94C99.35 147.24 97.57 145.12 96.3 142.57C95.03 140.02 94.39 136.91 94.39 133.23V132.59C94.39 129.55 95.01 126.74 96.24 124.15C97.47 121.57 99.21 119.32 101.43 117.41C103.66 115.5 106.34 114.01 109.49 112.95C112.63 111.89 116.15 111.36 120.04 111.36C124.42 111.36 128.31 111.98 131.7 113.22C135.09 114.46 137.93 116.14 140.23 118.26C142.52 120.38 144.08 122.91 145.42 125.58C147.08 128.87 147.17 135.56 147.17 135.56H133.18V135.57Z" fill="white"/>
<path d="M446.88 112.85V187.15H495V173.77H460.87V126.22H495V112.85H446.88Z" fill="white"/>
<path d="M195.7 112.85H181.71V187.14H195.7V112.85Z" fill="white"/>
<path d="M484.3 143.31H470.94V156.68H484.3V143.31Z" fill="white"/>
</svg>
