<svg fill="none" height="46" width="178" xmlns="http://www.w3.org/2000/svg" xmlns:xlink="http://www.w3.org/1999/xlink"><clipPath id="a"><path d="m0 0h177.472v46h-177.472z"/></clipPath><g clip-path="url(#a)"><path d="m42.35 0c-26.101 71.032-20.885 8.813-20.885 8.813-4.198 19.662-2.573 77.379 20.885-8.813z" fill="#051b7b"/><path d="m42.35 0c-23.346 36.346-69.622 59.926-20.885 8.813 0 0-36.576 48.998 20.887-8.813z" fill="#f71628"/><path d="m14.584 24.958c-.078.417-.257.974-.494 1.373-.864.64-3.495 2.36-4.339 2.397-.456-.107-.85-.383-1.128-.872-.987-1.475.397-4.287 2.947-5.156 1.841-.339 3.184.675 3.014 2.258zm43.032 1.474v-7.864h-1.97v9.844h8.22v-1.969zm7.864 1.98v-9.844h1.968v9.844zm46.928-9.844v3.937h-6.206v-3.937h-1.967v9.844h1.967v-3.938h6.206v3.938h1.969v-9.844zm20.102 2.18v7.664h2.137v-7.664h3.823v-2.14h-9.787v2.14zm-55.218-2.177v6.598l-6.665-6.598h-1.371v9.858h2.139v-6.467l6.49 6.468h1.546v-9.86h-2.139zm-30.225.03c-1.447 0-2.627 1.34-2.627 2.98 0 1.646 1.129 2.881 2.63 2.893h4.37a.996.996 0 0 1 .775.967c0 .483-.354.877-.78 1.006h-6.507v1.973h6.514c2.212 0 3.428-2.947 2.018-4.879-.5-.683-1.239-1.08-2.023-1.017h-4.372c-.422-.064-.772-.53-.772-1.01s.332-.906.774-.961h6.599v-1.953h-6.599zm48.465 0c-1.444 0-2.623 1.34-2.623 2.98 0 1.646 1.127 2.881 2.628 2.893h4.369a.994.994 0 0 1 .774.967c0 .483-.352.877-.778 1.006h-6.505v1.973h6.511c2.212 0 3.429-2.947 2.019-4.879-.501-.683-1.238-1.08-2.024-1.017h-4.373c-.422-.064-.772-.53-.772-1.01s.334-.906.775-.961h6.598v-1.953h-6.6zm-8.885 3.871v1.963h2.887v2.012h-4.006c-1.55 0-2.823-1.372-2.823-2.92a2.832 2.832 0 0 1 2.823-2.82h6.019v-2.114h-5.747a4.946 4.946 0 0 0 -4.934 4.934 4.946 4.946 0 0 0 4.934 4.933h5.684v-5.987h-4.837zm60.778-3.926h-5.815v9.866h5.815a4.946 4.946 0 0 0 4.934-4.933 4.947 4.947 0 0 0 -4.934-4.933zm-.195 8.857h-4.699v-7.948h4.699c2.149 0 4.267 1.897 4.267 4.044s-2.12 3.904-4.267 3.904zm16.498 1.01h1.1l-5.69-9.87h-1.079l-5.818 9.87h1.083l1.464-2.424h7.54l1.4 2.423zm-8.373-3.36 3.287-5.438 3.145 5.438zm-32.07-6.576h-2.457c-2.709 0-4.924 2.216-4.924 4.928 0 2.708 2.215 4.926 4.924 4.926h2.457c2.711 0 4.927-2.218 4.927-4.926a4.94 4.94 0 0 0 -4.927-4.928zm.257 7.583h-2.97a2.666 2.666 0 0 1 -2.657-2.66 2.666 2.666 0 0 1 2.657-2.652h2.97a2.665 2.665 0 0 1 2.657 2.653 2.668 2.668 0 0 1 -2.657 2.659zm49.002-7.514h-3.163a4.939 4.939 0 0 0 -4.925 4.926 4.94 4.94 0 0 0 4.925 4.926h3.163c2.711 0 4.927-2.217 4.927-4.926.001-2.71-2.216-4.926-4.927-4.926zm.556 8.84h-4.275c-1.854 0-3.375-1.77-3.375-3.926 0-2.155 1.523-3.923 3.375-3.923h4.275c1.856 0 3.378 1.766 3.378 3.923 0 2.156-1.521 3.927-3.378 3.927z" fill="#051b7b"/></g></svg>