<svg enable-background="new 0 0 160 160" viewBox="0 0 160 160" xmlns="http://www.w3.org/2000/svg"><g fill="none" stroke="#361163" stroke-miterlimit="10" stroke-width="3"><path d="m79.2 128.1-48-48 48-48 48 48z"/><path d="m48.1 36.3 31.1-31.1 30.5 30.5m-74.1 75.8-31.4-31.4 31.1-31.1m75.1 74.9-31.2 31.2-31.3-31.3m74.8-75.2 31.5 31.5-30.9 30.9"/><path d="m117.4 50.3c-5 0-9.1-4-9.1-8.9s4.1-8.9 9.1-8.9 9.1 4 9.1 8.9-4.1 8.9-9.1 8.9zm-67.6-8.7c0 4.9-4.1 8.9-9.1 8.9s-9.1-4-9.1-8.9 4.1-8.9 9.1-8.9 9.1 4 9.1 8.9z"/><path d="m109 118.7c0-4.9 4-8.8 8.8-8.8s8.9 4 8.9 8.8-4 8.8-8.9 8.8-8.8-4-8.8-8.8z"/><path d="m40.7 110c4.9 0 8.8 4 8.8 8.9s-4 8.8-8.8 8.8-8.8-4-8.8-8.8 4-8.9 8.8-8.9z"/><path d="m91.9 68c-.1.3-.5.9-1.2 1.2-.4.1-.7.1-1 .1-.6 0-1.1-.1-1.1-.2-.2-.1-.3-.1-.5-.2-.6-.3-1.2-.6-1.9-.9s-1.5-.6-2.4-.9-1.9-.4-3.1-.4c-1.8 0-3.2.4-4.2 1.1s-1.5 1.7-1.5 2.9.3 1.5.8 2.1c.6.6 1.3 1 2.2 1.5.9.4 2 .8 3.1 1.2 1.2.4 2.4.8 3.6 1.2s2.5.9 3.6 1.5c1.2.6 2.2 1.3 3.1 2.1s1.7 1.9 2.2 3.1c.6 1.2.8 2.6.8 4.3s-.4 3.9-1.1 5.5c-.7 1.7-1.8 3.2-3.2 4.4s-3.2 2.2-5.3 2.9-4.5 1-7.3 1-2.8-.1-4.2-.4-2.7-.6-4-1.1c-1.2-.5-2.4-1-3.5-1.6s-2-1.3-2.8-2l2.6-4.1c.3-.5.7-.9 1.1-1.1.4-.3 1-.4 1.7-.4s1.3.2 1.8.5c.6.3 1.2.7 1.9 1.1s1.5.7 2.5 1.1c.9.3 2.1.5 3.5.5s2-.1 2.8-.4c.8-.2 1.4-.6 1.9-1s.8-.9 1.1-1.4.3-1.1.3-1.6c0-.9-.3-1.6-.9-2.2s-1.3-1.1-2.2-1.5-2-.8-3.2-1.2c-1.2-.3-2.4-.7-3.7-1.2-1.2-.4-2.5-.9-3.6-1.5-1.2-.6-2.2-1.3-3.2-2.2-.9-.9-1.7-2-2.2-3.3-.6-1.3-.9-2.9-.9-4.8s.3-3.3 1-4.9c.7-1.5 1.7-2.9 3-4.1s3-2.1 5-2.8 4.3-1 6.9-1 5.6.5 8 1.5c2.4.9 4.4 2.2 5.9 3.8-.7 1.3-1.5 2.5-2.2 3.8z"/></g></svg>