<!--?xml version="1.0" encoding="utf-8"?--><!-- Generator: Adobe Illustrator 27.1.1, SVG Export Plug-In . SVG Version: 6.00 Build 0)  --><svg version="1.1" id="Icon_area" xmlns="http://www.w3.org/2000/svg" xmlns:xlink="http://www.w3.org/1999/xlink" x="0px" y="0px" viewBox="0 0 160 160" style="enable-background:new 0 0 160 160;" xml:space="preserve">
<style type="text/css">
	.st0{fill:none;stroke:#361163;stroke-width:3;stroke-miterlimit:10;}
</style>
<path class="st0" d="M79.2,128.1l-48-48l48-48l48,48L79.2,128.1z"></path>
<path class="st0" d="M48.1,36.3L79.2,5.2l30.5,30.5 M35.6,111.5L4.2,80.1L35.3,49 M110.4,123.9l-31.2,31.2l-31.3-31.3 M122.7,48.6
	l31.5,31.5L123.3,111"></path>
<path class="st0" d="M117.4,50.3c-5,0-9.1-4-9.1-8.9s4.1-8.9,9.1-8.9s9.1,4,9.1,8.9S122.4,50.3,117.4,50.3z M49.8,41.6
	c0,4.9-4.1,8.9-9.1,8.9s-9.1-4-9.1-8.9s4.1-8.9,9.1-8.9S49.8,36.7,49.8,41.6z"></path>
<path class="st0" d="M109,118.7c0-4.9,4-8.8,8.8-8.8s8.9,4,8.9,8.8s-4,8.8-8.9,8.8S109,123.5,109,118.7z"></path>
<path class="st0" d="M40.7,110c4.9,0,8.8,4,8.8,8.9s-4,8.8-8.8,8.8s-8.8-4-8.8-8.8S35.9,110,40.7,110z"></path>
<path class="st0" d="M91.9,68c-0.1,0.3-0.5,0.9-1.2,1.2c-0.4,0.1-0.7,0.1-1,0.1c-0.6,0-1.1-0.1-1.1-0.2c-0.2-0.1-0.3-0.1-0.5-0.2
	c-0.6-0.3-1.2-0.6-1.9-0.9c-0.7-0.3-1.5-0.6-2.4-0.9s-1.9-0.4-3.1-0.4c-1.8,0-3.2,0.4-4.2,1.1S75,69.5,75,70.7s0.3,1.5,0.8,2.1
	c0.6,0.6,1.3,1,2.2,1.5c0.9,0.4,2,0.8,3.1,1.2c1.2,0.4,2.4,0.8,3.6,1.2c1.2,0.4,2.5,0.9,3.6,1.5c1.2,0.6,2.2,1.3,3.1,2.1
	c0.9,0.8,1.7,1.9,2.2,3.1c0.6,1.2,0.8,2.6,0.8,4.3s-0.4,3.9-1.1,5.5c-0.7,1.7-1.8,3.2-3.2,4.4c-1.4,1.2-3.2,2.2-5.3,2.9
	c-2.1,0.7-4.5,1-7.3,1s-2.8-0.1-4.2-0.4c-1.4-0.3-2.7-0.6-4-1.1c-1.2-0.5-2.4-1-3.5-1.6s-2-1.3-2.8-2l2.6-4.1
	c0.3-0.5,0.7-0.9,1.1-1.1c0.4-0.3,1-0.4,1.7-0.4s1.3,0.2,1.8,0.5c0.6,0.3,1.2,0.7,1.9,1.1c0.7,0.4,1.5,0.7,2.5,1.1
	c0.9,0.3,2.1,0.5,3.5,0.5s2-0.1,2.8-0.4c0.8-0.2,1.4-0.6,1.9-1s0.8-0.9,1.1-1.4s0.3-1.1,0.3-1.6c0-0.9-0.3-1.6-0.9-2.2
	s-1.3-1.1-2.2-1.5c-0.9-0.4-2-0.8-3.2-1.2c-1.2-0.3-2.4-0.7-3.7-1.2c-1.2-0.4-2.5-0.9-3.6-1.5c-1.2-0.6-2.2-1.3-3.2-2.2
	c-0.9-0.9-1.7-2-2.2-3.3c-0.6-1.3-0.9-2.9-0.9-4.8s0.3-3.3,1-4.9c0.7-1.5,1.7-2.9,3-4.1s3-2.1,5-2.8c2-0.7,4.3-1,6.9-1
	s5.6,0.5,8,1.5c2.4,0.9,4.4,2.2,5.9,3.8C93.4,65.5,92.6,66.7,91.9,68z"></path>
</svg>
