<?xml version="1.0" encoding="utf-8"?>
<!-- Generator: Adobe Illustrator 28.3.0, SVG Export Plug-In . SVG Version: 6.00 Build 0)  -->
<svg version="1.1" id="Spark-Favicon-180px" xmlns="http://www.w3.org/2000/svg" xmlns:xlink="http://www.w3.org/1999/xlink"
	 x="0px" y="0px" viewBox="0 0 180 180" style="enable-background:new 0 0 180 180;" xml:space="preserve">
<style type="text/css">
	.st0{fill:url(#Spark-Favicon_00000020398618157128853780000012234842446550157697_);}
</style>
<linearGradient id="Spark-Favicon_00000018946227105310741870000005176234166255286715_" gradientUnits="userSpaceOnUse" x1="145.0764465" y1="134.239563" x2="29.0133686" y2="45.2214851" gradientTransform="matrix(1 0 0 -1 0 182)">
	<stop  offset="0" style="stop-color:#FA43BD"/>
	<stop  offset="1" style="stop-color:#FFA930"/>
</linearGradient>
<path id="Spark-Favicon" style="fill:url(#Spark-Favicon_00000018946227105310741870000005176234166255286715_);" d="
	M114.2581863,101.2500381h63.5750961c2.4790039,0,2.9790039-3.3764038,0.7240143-4.407402L112.5001831,67.499733V2.3116198
	c0-2.415458-3.2280045-3.2080464-4.3420105-1.0652105L81.3622284,52.8412247L51.6699829,39.2034149
	c-2.8406067-1.1473999-4.5853081,1.1655998-3.621006,3.1537018l17.6933327,36.3929138H2.166723
	c-2.4791679,0-2.9788077,3.3799973-0.7242011,4.4111023l66.0575867,29.3379135v65.1890335
	c0,2.4160004,3.2350082,3.2079926,4.3497086,1.0659943L98.6453629,127.15905l29.6918564,13.6380081
	c2.8409882,1.1470032,4.5859985-1.1660004,3.6209869-3.1539917L114.2581863,101.2500381z"/>
</svg>
