<svg fill="none" height="512" width="512" xmlns="http://www.w3.org/2000/svg"><g fill="#00a3ff"><path d="m169.773 240.488-2.341 3.591c-26.398 40.495-20.502 93.529 14.174 127.506 20.401 19.988 47.137 29.984 73.875 29.986z"/><path d="m255.483 289.445-85.709-48.957 85.709 161.083zm85.792-48.957 2.341 3.591c26.398 40.495 20.502 93.529-14.174 127.506-20.4 19.988-47.137 29.984-73.875 29.986z" opacity=".6"/><path d="m255.566 289.445 85.708-48.957-85.708 161.083zm.018-109.355v84.437l73.828-42.191z" opacity=".2"/><path d="m255.584 180.09-73.881 42.245 73.881 42.192z" opacity=".6"/><path d="m255.584 109.054-73.881 113.284 73.881-42.364z"/><path d="m255.584 179.975 73.884 42.366-73.884-113.341z" opacity=".6"/></g></svg>