<svg width="512" height="512" viewBox="0 0 512 512" fill="none" xmlns="http://www.w3.org/2000/svg">
<path fill-rule="evenodd" clip-rule="evenodd" d="M391.044 179.93C397.126 165.886 399.253 149.947 396.288 133.763C388.321 90.2811 346.614 61.4905 303.133 69.457C261.358 77.1109 233.143 115.909 238.058 157.502L237.735 157.562C227.584 116.927 187.447 90.6528 145.672 98.3066C102.19 106.273 73.3998 147.98 81.3664 191.462C84.332 207.648 91.9732 221.799 102.641 232.775C97.378 254.102 96.4288 276.844 100.64 299.83C116.634 387.127 200.311 444.889 287.608 428.895C374.904 412.901 432.667 329.224 416.673 241.928C412.454 218.9 403.512 197.984 391.044 179.93Z" fill="#5831FF"/>
<path d="M391.044 179.93L369.413 170.563L364.216 182.564L371.648 193.326L391.044 179.93ZM396.288 133.763L419.474 129.515V129.515L396.288 133.763ZM303.133 69.457L298.885 46.2706L303.133 69.457ZM238.058 157.502L242.306 180.689L264.062 176.702L261.467 154.737L238.058 157.502ZM237.735 157.562L214.866 163.275L220.227 184.734L241.983 180.748L237.735 157.562ZM145.672 98.3066L149.92 121.493H149.92L145.672 98.3066ZM81.3664 191.462L104.553 187.214L81.3664 191.462ZM102.641 232.775L125.527 238.423L128.66 225.725L119.545 216.346L102.641 232.775ZM100.64 299.83L77.4538 304.078L100.64 299.83ZM416.673 241.928L439.859 237.679L416.673 241.928ZM412.675 189.298C420.554 171.103 423.307 150.433 419.474 129.515L373.102 138.011C375.2 149.462 373.697 160.669 369.413 170.563L412.675 189.298ZM419.474 129.515C409.162 73.2275 355.172 35.9579 298.885 46.2706L307.381 92.6434C338.057 87.023 367.481 107.335 373.102 138.011L419.474 129.515ZM298.885 46.2706C244.798 56.1802 208.284 106.403 214.648 160.268L261.467 154.737C258.003 125.414 277.918 98.0415 307.381 92.6434L298.885 46.2706ZM233.809 134.316L233.487 134.375L241.983 180.748L242.306 180.689L233.809 134.316ZM260.605 151.848C247.458 99.2254 195.511 65.2107 141.424 75.1202L149.92 121.493C179.383 116.095 207.709 134.629 214.866 163.275L260.605 151.848ZM141.424 75.1202C85.1369 85.433 47.8673 139.423 58.18 195.71L104.553 187.214C98.9324 156.537 119.244 127.113 149.92 121.493L141.424 75.1202ZM58.18 195.71C62.013 216.63 71.9164 234.983 85.7369 249.204L119.545 216.346C112.03 208.614 106.651 198.666 104.553 187.214L58.18 195.71ZM79.7552 227.127C73.7118 251.617 72.6268 277.732 77.4538 304.078L123.827 295.582C120.231 275.956 121.044 256.587 125.527 238.423L79.7552 227.127ZM77.4538 304.078C95.7942 404.18 191.754 470.422 291.856 452.082L283.36 405.709C208.869 419.357 137.475 370.073 123.827 295.582L77.4538 304.078ZM291.856 452.082C391.958 433.741 458.2 337.781 439.859 237.679L393.487 246.176C407.135 320.667 357.851 392.061 283.36 405.709L291.856 452.082ZM439.859 237.679C435.026 211.298 424.764 187.276 410.44 166.535L371.648 193.326C382.26 208.693 389.882 226.501 393.487 246.176L439.859 237.679Z" fill="#5831FF"/>
<g clip-path="url(#clip0_32_579)">
<path d="M347.787 137.401L127.985 177.673C103.649 211.836 92.4914 255.378 100.636 299.834C116.631 387.13 200.308 444.893 287.604 428.899C374.901 412.905 432.663 329.228 416.669 241.931C408.505 197.368 382.654 160.718 347.787 137.401Z" fill="white" stroke="#5831FF" stroke-width="3.36747" stroke-miterlimit="10"/>
<path d="M347.787 137.401L127.985 177.673C103.649 211.836 92.4914 255.378 100.636 299.834C116.631 387.13 200.308 444.893 287.604 428.899C374.901 412.905 432.663 329.228 416.669 241.931C408.505 197.368 382.654 160.718 347.787 137.401Z" fill="#EAFF03" stroke="#EAFF03" stroke-width="10.1024" stroke-miterlimit="10"/>
<path d="M174.514 255.772C217.996 247.806 246.786 206.099 238.82 162.617C230.853 119.136 189.146 90.3449 145.665 98.3115C102.183 106.278 73.3925 147.985 81.359 191.467C89.3256 234.948 131.033 263.739 174.514 255.772Z" fill="#EAFF03" stroke="#EAFF03" stroke-width="10.1024" stroke-miterlimit="10"/>
<path d="M331.971 226.916C375.452 218.949 404.243 177.242 396.276 133.761C388.31 90.2792 346.603 61.4885 303.121 69.4551C259.64 77.4216 230.849 119.129 238.816 162.61C246.782 206.092 288.489 234.882 331.971 226.916Z" fill="#EAFF03" stroke="#EAFF03" stroke-width="10.1024" stroke-miterlimit="10"/>
<path d="M170.345 232.998C201.253 227.336 221.718 197.689 216.055 166.781C210.392 135.873 180.746 115.408 149.838 121.071C118.93 126.734 98.4649 156.38 104.128 187.288C109.791 218.196 139.437 238.661 170.345 232.998Z" fill="#5831FF"/>
<path d="M170.345 232.998C201.253 227.336 221.718 197.689 216.055 166.781C210.392 135.873 180.746 115.408 149.838 121.071C118.93 126.734 98.4649 156.38 104.128 187.288C109.791 218.196 139.437 238.661 170.345 232.998Z" fill="white" stroke="#5831FF" stroke-width="14.9924" stroke-miterlimit="10"/>
<path d="M163.272 194.391C172.855 192.635 179.2 183.444 177.444 173.861C175.688 164.278 166.497 157.934 156.914 159.689C147.332 161.445 140.987 170.636 142.743 180.219C144.498 189.801 153.69 196.146 163.272 194.391Z" fill="#5831FF" stroke="#5831FF" stroke-width="10.3714" stroke-miterlimit="10"/>
<path d="M327.801 204.148C358.709 198.485 379.175 168.838 373.512 137.93C367.849 107.022 338.202 86.5573 307.294 92.2201C276.387 97.883 255.921 127.529 261.584 158.437C267.247 189.345 296.893 209.811 327.801 204.148Z" fill="white" stroke="#5831FF" stroke-width="14.9924" stroke-miterlimit="10"/>
<path d="M320.728 165.541C330.31 163.785 336.655 154.594 334.9 145.011C333.144 135.429 323.953 129.084 314.37 130.839C304.787 132.595 298.442 141.786 300.198 151.369C301.954 160.952 311.145 167.297 320.728 165.541Z" fill="#5831FF" stroke="#5831FF" stroke-width="10.3714" stroke-miterlimit="10"/>
<path d="M237.543 290.492L252.322 371.157C254.734 384.32 267.443 393.094 280.606 390.682C293.77 388.27 302.543 375.561 300.131 362.397L285.352 281.732" stroke="#5831FF" stroke-width="14.9924" stroke-miterlimit="10"/>
<path d="M319.903 249.862C291.477 291.04 235.012 301.385 193.834 272.96" stroke="#5831FF" stroke-width="14.9924" stroke-miterlimit="10" stroke-linecap="round" stroke-linejoin="round"/>
</g>
<defs>
<clipPath id="clip0_32_579">
<rect width="330.36" height="360.949" fill="white" transform="translate(61 108.635) rotate(-10.3824)"/>
</clipPath>
</defs>
</svg>
