<svg width="201" height="201" viewBox="0 0 201 201" fill="none" xmlns="http://www.w3.org/2000/svg">
<g clip-path="url(#clip0_10699_68110)">
<path d="M199.426 99.8406C199.426 154.873 154.814 199.485 99.7814 199.485C44.7492 199.485 0.136841 154.873 0.136841 99.8406C0.136841 44.8084 44.7492 0.196045 99.7814 0.196045C154.814 0.196045 199.426 44.8084 199.426 99.8406Z" fill="url(#paint0_linear_10699_68110)"/>
<path d="M99.8167 199.347C44.8446 199.347 0.280961 154.89 0.280964 100.048C0.280964 100.048 44.8446 79.615 99.8167 79.615C154.789 79.615 199.353 100.048 199.353 100.048C199.353 154.89 154.789 199.347 99.8167 199.347Z" fill="url(#paint1_linear_10699_68110)"/>
<path d="M154.212 86.1227L99.7851 30.5447L45.3527 86.1227L72.5663 113.909L99.7851 86.1227L126.999 113.909L154.212 86.1227Z" fill="white"/>
<path d="M55.1385 162.931L55.1385 162.931L55.1457 162.935C57.1667 163.946 59.5623 164.442 62.3185 164.442C65.0743 164.442 67.4554 163.946 69.4464 162.934L69.4487 162.933C71.4686 161.89 73.0097 160.417 74.0586 158.517C75.1372 156.588 75.6687 154.329 75.6687 151.753V130.315V129.903H75.2569H69.0238H68.612V130.315V151.942C68.612 153.874 68.0564 155.349 66.9855 156.42L66.9854 156.42L66.9815 156.424C65.9491 157.485 64.4182 158.047 62.3185 158.047C60.2207 158.047 58.6715 157.486 57.6062 156.422C56.566 155.352 56.0249 153.875 56.0249 151.942V130.315V129.903H55.6131H49.38H48.9682V130.315V151.753C48.9682 154.327 49.4833 156.585 50.5291 158.513L50.529 158.513L50.5332 158.52C51.6123 160.417 53.1508 161.889 55.1385 162.931ZM86.3703 150.869H85.9586V151.281V152.603C85.9586 155.06 86.5252 157.187 87.6775 158.965C88.824 160.734 90.412 162.09 92.429 163.034C94.4445 163.976 96.7567 164.442 99.356 164.442C101.951 164.442 104.216 164.01 106.138 163.13L106.141 163.128C108.088 162.22 109.598 160.978 110.653 159.396C111.741 157.78 112.281 155.92 112.281 153.831C112.281 151.748 111.776 150.002 110.734 148.624C109.709 147.268 108.28 146.19 106.466 145.38C104.702 144.579 102.627 143.925 100.246 143.417C100.245 143.417 100.245 143.417 100.245 143.417L99.1602 143.181L99.159 143.181C97.8533 142.901 96.7969 142.578 95.9817 142.216C95.179 141.859 94.5966 141.426 94.208 140.928C93.8604 140.444 93.6763 139.842 93.6763 139.098C93.6763 137.983 94.0694 137.147 94.8411 136.541L94.8426 136.54C95.6497 135.9 96.9399 135.543 98.7894 135.543C100.009 135.543 101.039 135.726 101.89 136.078L101.89 136.078L101.902 136.083C102.734 136.399 103.351 136.907 103.772 137.61L103.777 137.618L103.783 137.626C104.227 138.293 104.469 139.212 104.469 140.42V141.836V142.248H104.881H111.02H111.431V141.836V140.42C111.431 137.968 110.883 135.9 109.757 134.242C108.672 132.567 107.16 131.321 105.234 130.504C103.348 129.659 101.196 129.242 98.7894 129.242C96.3838 129.242 94.2629 129.643 92.4372 130.457C90.6409 131.242 89.2239 132.392 88.201 133.909L88.1999 133.911C87.2026 135.407 86.7141 137.206 86.7141 139.287C86.7141 141.357 87.1508 143.082 88.0595 144.428L88.0595 144.428L88.0635 144.434C88.9909 145.759 90.2923 146.824 91.95 147.637L91.95 147.637L91.9587 147.641C93.6287 148.411 95.6098 149.049 97.8973 149.558L97.8991 149.558L98.9834 149.794C98.9836 149.794 98.9839 149.794 98.9842 149.794C100.387 150.106 101.562 150.447 102.513 150.815L102.52 150.817L102.528 150.82C103.494 151.152 104.179 151.577 104.62 152.074L104.62 152.074L104.629 152.083C105.079 152.56 105.319 153.192 105.319 154.019C105.319 155.211 104.845 156.18 103.869 156.955L103.869 156.955L103.865 156.959C102.932 157.722 101.455 158.141 99.356 158.141C97.3094 158.141 95.7424 157.668 94.6093 156.768C93.5017 155.858 92.9208 154.495 92.9208 152.603V151.281V150.869H92.509H86.3703ZM122.571 163.369V163.781H122.983H136.582C141.086 163.781 144.574 162.647 146.975 160.312L146.975 160.312C149.409 157.943 150.594 154.467 150.594 149.959V143.726C150.594 139.219 149.41 135.758 146.974 133.42C144.574 131.054 141.086 129.903 136.582 129.903H122.983H122.571V130.315V135.793V136.204H122.983H126.915V157.48H122.983H122.571V157.892V163.369ZM141.892 138.237L141.896 138.241C142.969 139.43 143.537 141.175 143.537 143.537V150.148C143.537 152.476 142.971 154.224 141.893 155.448C140.835 156.648 139.129 157.291 136.677 157.291H133.972V136.393H136.677C139.129 136.393 140.835 137.036 141.892 138.237Z" fill="#1F2333" stroke="#1F2333" stroke-width="0.823515"/>
<path d="M129.309 24.6777C129.412 23.8226 130.679 23.8226 130.782 24.6777L131.651 31.851C132.772 41.1138 140.224 48.4167 149.676 49.5158L156.996 50.3669C157.868 50.4685 157.868 51.7093 156.996 51.8108L149.676 52.6619C140.224 53.761 132.772 61.064 131.651 70.3266L130.782 77.5C130.679 78.3551 129.412 78.3551 129.309 77.5L128.44 70.3266C127.319 61.064 119.867 53.761 110.415 52.6619L103.095 51.8108C102.223 51.7093 102.223 50.4685 103.095 50.3669L110.415 49.5158C119.867 48.4167 127.319 41.1138 128.44 31.851L129.309 24.6777Z" fill="url(#paint2_linear_10699_68110)"/>
</g>
<defs>
<linearGradient id="paint0_linear_10699_68110" x1="32.4507" y1="160.227" x2="143.754" y2="61.2333" gradientUnits="userSpaceOnUse">
<stop offset="0.0729167" stop-color="#C3EEE4"/>
<stop offset="1" stop-color="#2AC8A5"/>
</linearGradient>
<linearGradient id="paint1_linear_10699_68110" x1="39.4967" y1="99.0291" x2="89.3102" y2="192.15" gradientUnits="userSpaceOnUse">
<stop offset="0.0729167" stop-color="#C3EEE4"/>
<stop offset="1" stop-color="#2AC8A5"/>
</linearGradient>
<linearGradient id="paint2_linear_10699_68110" x1="126.477" y1="56.2763" x2="148.004" y2="37.2391" gradientUnits="userSpaceOnUse">
<stop stop-color="#FDCEAA"/>
<stop offset="1" stop-color="#FAF1E7"/>
</linearGradient>
<clipPath id="clip0_10699_68110">
<rect width="200" height="200" fill="white" transform="translate(0.158203 0.220459)"/>
</clipPath>
</defs>
</svg>
