<svg fill="none" height="398" viewBox="0 0 398 398" width="398" xmlns="http://www.w3.org/2000/svg" xmlns:xlink="http://www.w3.org/1999/xlink"><radialGradient id="a" cx="0" cy="0" gradientTransform="matrix(0 411.352 -289.55 0 199.514 60.9737)" gradientUnits="userSpaceOnUse" r="1"><stop offset=".03125" stop-color="#fafafa"/><stop offset="1" stop-color="#e3e3e3"/></radialGradient><linearGradient id="b" gradientUnits="userSpaceOnUse" x1="199.095" x2="199.095" y1=".318867" y2="397.878"><stop offset="0" stop-color="#f4f4f4"/><stop offset="1" stop-color="#bebebe"/></linearGradient><path d="m199.091 7.52853h.008c105.799 0 191.566 85.76697 191.566 191.56647v.007c0 105.799-85.767 191.566-191.566 191.566h-.008c-105.7986 0-191.56564-85.767-191.56564-191.566v-.007c0-105.7995 85.76704-191.56647 191.56564-191.56647z" fill="#fff" stroke="#111" stroke-width="7.05706"/><path d="m199.099 4h-.008c-107.7474 0-195.09417 87.3468-195.09417 195.095v.007c0 107.748 87.34677 195.094 195.09417 195.094h.008c107.747 0 195.094-87.346 195.094-195.094v-.007c0-107.7482-87.347-195.095-195.094-195.095z" fill="url(#a)" fill-opacity=".7"/><path d="m199.099 4h-.008c-107.7474 0-195.09417 87.3468-195.09417 195.095v.007c0 107.748 87.34677 195.094 195.09417 195.094h.008c107.747 0 195.094-87.346 195.094-195.094v-.007c0-107.7482-87.347-195.095-195.094-195.095z" stroke="url(#b)" stroke-width="7.14639"/><g clip-rule="evenodd" fill="#000" fill-rule="evenodd"><path d="m142.254 45.7356c-62.2552 23.0477-106.6295 82.9524-106.6295 153.2224 0 70.269 44.3743 130.174 106.6295 153.222v-16.113c-53.7888-22.27-91.6295-75.27-91.6295-137.109s37.8407-114.8398 91.6295-137.1099zm113.413 16.1146v-16.1128c62.253 23.0491 106.625 82.9526 106.625 153.2206 0 70.267-44.372 130.171-106.625 153.22v-16.113c53.786-22.271 91.625-75.27 91.625-137.107s-37.839-114.8365-91.625-137.1078z"/><path d="m198.968 61.835 8.555 14.6988 52.364 89.9662h33.113v15h-188v-15h33.036l52.375-89.967zm-.002 39.358 38.012 65.307h-76.031zm61.014 129.307h33.02v-15h-188v15h32.943l52.468 90.127 8.557 14.698 8.555-14.699zm-22.909 0h-76.217l38.112 65.467z"/></g></svg>