<svg viewBox="0 0 24 24" xmlns="http://www.w3.org/2000/svg" xmlns:xlink="http://www.w3.org/1999/xlink"><clipPath id="b"><path d="M0 0h24v24H0z"/></clipPath><linearGradient id="a"><stop offset="0" stop-color="#03b8ff"/><stop offset="1" stop-color="#fa52a0"/></linearGradient><linearGradient id="c" gradientTransform="matrix(1 0 0 -1 -12 1012)" gradientUnits="userSpaceOnUse" x1="20.644" x2="24.333" xlink:href="#a" y1="1011.506" y2="998.84"/><linearGradient id="d" gradientTransform="matrix(1 0 0 -1 -12 1012)" gradientUnits="userSpaceOnUse" x1="23.682" x2="27.37" xlink:href="#a" y1="1012.39" y2="999.724"/><linearGradient id="e" gradientTransform="matrix(1 0 0 -1 -12 1012)" gradientUnits="userSpaceOnUse" x1="17.616" x2="21.305" xlink:href="#a" y1="1010.624" y2="997.958"/><g clip-path="url(#b)"><path d="M5 2.3L23.6 15 19 21.8.4 9z" fill="url(#c)"/><path d="M23.6 15c-1.6 2.3-7 1.4-12.1-2.2C6.3 9.3 3.5 4.6 5 2.3 6.6 0 12 .9 17.1 4.5c5.2 3.4 8 8.2 6.5 10.5z" fill="url(#d)"/><path d="M19 21.7c-1.6 2.3-7 1.4-12.1-2.2s-8-8.2-6.4-10.6c1.6-2.3 7-1.4 12.1 2.2s7.9 8.3 6.4 10.6z" fill="url(#e)"/><path d="M23.6 15L19 21.8c-1.6 2.3-7 1.3-12.1-2.2-1-.7-1.9-1.4-2.8-2.2.7-.1 1.6-.5 2.5-1.5 1.6-1.7 2.4-2.1 3.1-2 .7 0 1.5.7 2.8 2.4s3.1 2.2 4.2 1.3c.1-.1.2-.1.3-.2.9-.7 1.2-1 2.9-4.2.4-.8 1.8-2.1 3.7-1.5.5 1.3.5 2.4 0 3.3z" fill="#0e0f23"/><g fill="#fff"><path clip-rule="evenodd" d="M22.9 14.6c-1.4 2-6.3 1-11-2.3C7.1 9 4.3 4.8 5.7 2.8s6.3-1 11 2.3 7.5 7.5 6.2 9.5zm-4.4-3c-.7 1-3.1.5-5.5-1.1-2.3-1.6-3.7-3.7-3-4.7s3.1-.5 5.5 1.1c2.3 1.6 3.7 3.7 3 4.7z" fill-rule="evenodd"/><path d="M4.6 4.6c0-.1-.1-.2-.2-.1s-.2.1-.2.2c.1.3.2.5.2.7 0 .1.1.2.2.1.1 0 .2-.1.1-.2 0-.2 0-.4-.1-.7zm.5 1.6c0-.1-.1-.2-.2-.1s-.1.1-.1.2c1.1 2.5 3.4 5.2 6.4 7.2.1.1.2 0 .3 0 .1-.1 0-.2 0-.3-3.1-2-5.3-4.6-6.4-7zM17.2 16c-.1 0-.2 0-.2.1s0 .2.1.2c.3.1.7.2 1 .3.1 0 .2 0 .2-.1s0-.2-.1-.2c-.3-.1-.7-.2-1-.3zm1.8.4c-.1 0-.2.1-.2.2s.1.2.2.2c.8.1 1.7.2 2.4.1.1 0 .2-.1.2-.2s-.1-.2-.2-.2c-.8.1-1.6 0-2.4-.1z"/></g></g></svg>