<svg fill="none" height="126" width="126" xmlns="http://www.w3.org/2000/svg"><linearGradient id="a" gradientUnits="userSpaceOnUse" x1="63" x2="63" y1="3" y2="123"><stop offset="0" stop-color="#6960ec"/><stop offset="1" stop-color="#a988ff"/></linearGradient><path d="M63 124.5c33.966 0 61.5-27.534 61.5-61.5 0-33.965-27.534-61.5-61.5-61.5C29.035 1.5 1.5 29.035 1.5 63c0 33.966 27.535 61.5 61.5 61.5z" fill="#fff" stroke="url(#a)" stroke-width="3"/><circle cx="63.293" cy="63.293" fill="#f8f5ff" r="50.646" stroke="#d4c6f5" stroke-width="3"/><path d="M63.605 29.073v23.49l19.853 8.873z" fill="#90a7ff"/><path d="M63.603 29.073L43.74 61.436l19.864-8.873v-23.49z" fill="#d4ddff"/><path d="M63.605 76.662v15.963L83.47 65.13z" fill="#7b96ff"/><path d="M63.603 92.625V76.651L43.74 65.14l19.864 27.484z" fill="#d4ddff"/><path d="M63.605 72.968L83.458 61.46l-19.853-8.873v20.382z" fill="#466bf3"/><path d="M43.739 61.436l19.864 11.509V52.563L43.74 61.436z" fill="#8da4ff"/></svg>