<svg width="126" height="126" fill="none" xmlns="http://www.w3.org/2000/svg"><path d="M63 124.25c33.827 0 61.25-27.423 61.25-61.25S96.827 1.75 63 1.75 1.75 29.173 1.75 63 29.173 124.25 63 124.25z" fill="#fff" stroke="url(#paint0_linear_1557_1042)" stroke-width="2.5"/><circle cx="62.999" cy="63" r="49.929" fill="#F8F5FF" stroke="#D4C6F5" stroke-width="3"/><path d="M65.983 60.479h-7.731a5.216 5.216 0 0 1-5.21-5.21 5.216 5.216 0 0 1 5.21-5.21h15.462a2.521 2.521 0 0 0 0-5.042H64.64v-5.21a2.521 2.521 0 0 0-5.042 0v5.21h-1.345C52.6 45.017 48 49.616 48 55.269c0 5.653 4.6 10.252 10.252 10.252h7.731a5.216 5.216 0 0 1 5.21 5.21 5.216 5.216 0 0 1-5.21 5.21H50.521a2.521 2.521 0 0 0 0 5.042h9.075v5.21a2.521 2.521 0 0 0 5.042 0v-5.21h1.345c5.653 0 10.252-4.599 10.252-10.252 0-5.653-4.599-10.252-10.252-10.252z" fill="#A682FF" stroke="#A682FF" stroke-width=".8"/><defs><linearGradient id="paint0_linear_1557_1042" x1="63" y1="3" x2="63" y2="123" gradientUnits="userSpaceOnUse"><stop stop-color="#6960EC"/><stop offset="1" stop-color="#A988FF"/></linearGradient></defs></svg>