<svg width="200" height="200" fill="none" xmlns="http://www.w3.org/2000/svg"><path d="M166.671 0H33.329C14.922 0 0 14.922 0 33.33v133.34C0 185.078 14.922 200 33.33 200h133.34c18.408 0 33.33-14.922 33.33-33.329V33.329C200 14.922 185.078 0 166.671 0z" fill="#7A44FF"/><path d="M125.793 112.635v-12.631a24.67 24.67 0 0 0-3.458-12.63 25.493 25.493 0 0 0-4.098-5.236 25.823 25.823 0 0 0-8.366-5.475 26.238 26.238 0 0 0-9.867-1.92H55.343a49.791 49.791 0 0 1 5.991-8.15 43.382 43.382 0 0 1 2.213-2.312 56.384 56.384 0 0 1 2.36-2.17 51.37 51.37 0 0 1 21.207-11.038 52.689 52.689 0 0 1 25.78 0 51.296 51.296 0 0 1 21.207 11.014c.813.694 1.6 1.414 2.369 2.168a47.013 47.013 0 0 1 2.213 2.313 50.015 50.015 0 0 1 11.239 20.78h13.227a61.345 61.345 0 0 0-4.072-12.63 62.696 62.696 0 0 0-7.452-12.606 62.34 62.34 0 0 0-5.991-6.777 65.617 65.617 0 0 0-6.916-5.87 64.915 64.915 0 0 0-25.824-11.36 66.45 66.45 0 0 0-25.78 0 64.95 64.95 0 0 0-25.78 11.368 66.556 66.556 0 0 0-6.916 5.87 63.198 63.198 0 0 0-5.983 6.777 62.243 62.243 0 0 0-11.593 25.262h37.382v12.631a24.72 24.72 0 0 0 3.458 12.63 25.497 25.497 0 0 0 9.44 9.251 26.067 26.067 0 0 0 12.891 3.389h44.696a50.365 50.365 0 0 1-5.991 8.149 52.037 52.037 0 0 1-2.213 2.321 47.74 47.74 0 0 1-2.369 2.169 51.751 51.751 0 0 1-8.308 5.87 51.76 51.76 0 0 1-12.899 5.168 52.948 52.948 0 0 1-25.78 0 51.706 51.706 0 0 1-12.925-5.151 51.761 51.761 0 0 1-8.317-5.93 63.095 63.095 0 0 1-2.36-2.168 43.847 43.847 0 0 1-2.213-2.321 50.015 50.015 0 0 1-11.239-20.78H36.842a62.33 62.33 0 0 0 11.593 25.269 63.217 63.217 0 0 0 5.983 6.778 64.957 64.957 0 0 0 32.696 17.239 66.446 66.446 0 0 0 25.78 0 64.912 64.912 0 0 0 32.679-17.231 62.311 62.311 0 0 0 5.992-6.777 62.794 62.794 0 0 0 7.521-12.639 61.48 61.48 0 0 0 4.072-12.631l-37.365.017zm-12.899 0h-12.89a13.12 13.12 0 0 1-4.934-.959 12.914 12.914 0 0 1-4.183-2.738 12.607 12.607 0 0 1-2.794-4.099 12.401 12.401 0 0 1-.979-4.835v-12.63h12.89a13.105 13.105 0 0 1 4.936.956 12.889 12.889 0 0 1 4.184 2.738 12.606 12.606 0 0 1 2.794 4.1 12.38 12.38 0 0 1 .976 4.836v12.631z" fill="#fff"/></svg>