<svg xmlns="http://www.w3.org/2000/svg" viewBox="0 0 200 200"><path fill="#000102" d="M201 100v100.972H1.083V1.138H201c0 31.626 0 63.275-.263 95.705-.715.303-1.284-.106-1.603-.66-13.301-23.058-26.55-46.147-39.912-69.17-1.202-2.07-3.119-3.727-4.704-5.576l-1.361.65c-.32 1.87-.912 3.737-.92 5.608-.076 20.138-.12 40.277.026 60.415.014 1.935 1.028 4.105 2.185 5.735 1.984 2.795 4.26 5.456 6.784 7.767 1.403 1.284 3.57 2.476 5.375 2.451 8.442-.119 16.897-.453 25.304-1.193 3.09-.272 6.063-1.875 9.089-2.87M44.362 172.836c2.126 4.07 4 8.305 6.505 12.127.976 1.49 3.365 2.899 5.119 2.908 30.986.175 61.974.162 92.962.034 1.763-.007 4.364-.845 5.144-2.151 5.143-8.605 10.013-17.38 14.686-26.251 1.16-2.202.21-4.02-2.827-4.403a4639.704 4639.704 0 0 1-46.462-6.11c-13.002-1.77-25.984-3.68-38.98-5.498-8.464-1.184-16.919-2.48-25.418-3.323-1.57-.155-4.522 1.325-4.815 2.538-2.346 9.726-4.206 19.569-5.914 30.13m84.928-65.085c7.568-.586 15.143-1.09 22.695-1.838 1.266-.126 3.15-1.087 3.444-2.057.314-1.04-.643-2.776-1.519-3.806-2.784-3.27-5.905-6.256-8.69-9.526-13.073-15.353-26.26-30.615-38.988-46.252-3.463-4.254-6.245-3.542-10.1-1.4-6.896 3.833-13.913 7.45-20.896 11.124-5.384 2.834-10.17 6.066-9.597 13.222.038.479-.144.979-.244 1.465-2.705 13.2-5.392 26.405-8.133 39.599-.61 2.936-.357 4.997 3.437 4.727 6.931-.494 13.876-.805 20.802-1.357 15.615-1.246 31.221-2.593 47.79-3.9m-38.975 32.261c3.691.662 7.366 1.436 11.077 1.962 8.462 1.199 16.941 2.278 25.414 3.402 14.509 1.925 29.019 3.839 43.526 5.776 2.594.346 4.105-.553 5.47-2.995 6.732-12.046 13.757-23.93 20.598-35.916.64-1.122.719-2.566 1.058-3.86-1.51-.35-3.006-.823-4.537-1-.949-.11-1.946.283-2.929.356-19.085 1.422-38.173 2.803-57.256 4.25-12.484.948-24.957 2.04-37.442 2.968-10.223.76-20.462 1.297-30.682 2.073-9.272.705-9.254.791-11.081 9.875-.324 1.607-1.241 3.236-1.064 4.76.15 1.283 1.348 3.344 2.325 3.495 11.516 1.784 23.078 3.274 35.523 4.854m-47.33 13.423c3.006-14.452 6.023-28.902 9.018-43.357 2.693-12.999 5.411-25.993 7.988-39.015.417-2.107.157-4.349.21-6.528-2.146.455-4.537.45-6.401 1.438-13.849 7.34-27.845 14.464-41.214 22.608C8.619 91 5.884 96.18 3.85 100.668c-.814 1.796 1.521 5.292 2.89 7.754 5.503 9.89 11.149 19.699 16.817 29.494a1166.66 1166.66 0 0 0 13.451 22.697c.566.929 2.033 1.938 2.95 1.826.752-.092 1.562-1.717 1.893-2.801.53-1.728.682-3.571 1.133-6.2M127.61 20.841L129.437 16c-25.231 0-49.348-.074-73.463.145-1.853.017-4.322 1.675-5.412 3.302-3.183 4.751-5.76 9.904-8.67 14.843-6.145 10.428-12.447 20.764-18.48 31.255-2.11 3.67-3.62 7.687-5.405 11.546l1.532 1.543c3.187-1.411 6.487-2.612 9.539-4.271 10.243-5.568 20.358-11.372 30.595-16.95 14.125-7.697 28.314-15.277 42.482-22.895 8.25-4.436 16.511-8.848 25.454-13.677M147.833 38.5V15.461c-5.194 2.605-9.206 4.55-13.156 6.613-7.868 4.106-15.75 8.19-23.529 12.458-3.944 2.165-3.964 4.04-1.063 7.324 3.798 4.298 7.3 8.856 11.025 13.22 7.017 8.22 14.052 16.425 21.214 24.518.977 1.104 2.724 1.526 4.115 2.264.466-1.482 1.325-2.962 1.337-4.447.102-12.637.05-25.274.057-38.91z"/><path fill="#4061FC" d="M201 99.625c-3.026 1.37-5.999 2.973-9.089 3.245-8.407.74-16.862 1.074-25.304 1.193-1.805.025-3.972-1.167-5.375-2.451-2.525-2.31-4.8-4.972-6.784-7.767-1.157-1.63-2.171-3.8-2.185-5.735-.147-20.138-.102-40.277-.025-60.415.007-1.87.599-3.739.919-5.608l1.361-.65c1.585 1.85 3.502 3.505 4.704 5.576 13.362 23.023 26.61 46.112 39.912 69.17.319.554.888.963 1.603 1.128.263.439.263 1.189.263 2.314z"/><path fill="#4162FE" d="M44.211 172.46c1.86-10.184 3.72-20.027 6.065-29.753.293-1.213 3.245-2.693 4.815-2.538 8.499.843 16.954 2.139 25.419 3.323 12.995 1.818 25.977 3.728 38.979 5.498a4639.704 4639.704 0 0 0 46.462 6.11c3.037.382 3.987 2.2 2.827 4.403-4.673 8.87-9.543 17.646-14.686 26.251-.78 1.306-3.381 2.144-5.144 2.151-30.988.128-61.976.14-92.962-.034-1.754-.01-4.143-1.418-5.12-2.908-2.503-3.822-4.378-8.057-6.655-12.504z"/><path fill="#4161FE" d="M128.811 107.753c-16.089 1.307-31.695 2.654-47.31 3.9-6.926.552-13.87.863-20.802 1.357-3.794.27-4.047-1.79-3.437-4.727 2.74-13.194 5.428-26.398 8.133-39.6.1-.485.282-.985.244-1.464-.572-7.156 4.213-10.388 9.597-13.222 6.983-3.675 14-7.29 20.896-11.124 3.855-2.142 6.637-2.854 10.1 1.4 12.728 15.637 25.915 30.9 38.988 46.252 2.785 3.27 5.906 6.255 8.69 9.526.876 1.03 1.833 2.766 1.519 3.806-.293.97-2.178 1.931-3.444 2.057-7.552.748-15.127 1.252-23.174 1.84z"/><path fill="#4162FE" d="M89.869 140.008c-11.998-1.574-23.56-3.064-35.076-4.848-.977-.151-2.176-2.212-2.325-3.496-.177-1.523.74-3.152 1.064-4.76 1.827-9.083 1.809-9.17 11.08-9.874 10.221-.776 20.46-1.313 30.683-2.073 12.485-.928 24.958-2.02 37.442-2.967 19.083-1.448 38.171-2.829 57.256-4.251.983-.073 1.98-.467 2.93-.356 1.53.177 3.026.65 4.536 1-.34 1.294-.417 2.738-1.058 3.86-6.841 11.987-13.866 23.87-20.599 35.916-1.364 2.442-2.875 3.341-5.47 2.995-14.506-1.937-29.016-3.851-43.525-5.776-8.473-1.124-16.952-2.203-25.414-3.402-3.71-.526-7.386-1.3-11.524-1.968z"/><path fill="#4161FD" d="M42.915 153.855c-.381 2.212-.534 4.055-1.063 5.783-.331 1.084-1.14 2.709-1.894 2.8-.916.113-2.383-.896-2.949-1.825a1166.66 1166.66 0 0 1-13.45-22.697c-5.67-9.795-11.315-19.605-16.817-29.494-1.37-2.462-3.705-5.958-2.891-7.754C5.884 96.18 8.619 91 12.587 88.583 25.957 80.44 39.952 73.315 53.8 65.975c1.864-.989 4.255-.983 6.401-1.438-.053 2.18.207 4.42-.21 6.528-2.577 13.022-5.295 26.016-7.988 39.015-2.995 14.455-6.012 28.905-9.089 43.775zm84.35-132.81c-8.599 4.626-16.86 9.038-25.11 13.474-14.168 7.618-28.357 15.198-42.482 22.895-10.237 5.578-20.352 11.382-30.595 16.95-3.052 1.659-6.352 2.86-9.539 4.271l-1.532-1.543c1.784-3.859 3.295-7.875 5.406-11.546 6.032-10.491 12.334-20.827 18.479-31.255 2.91-4.939 5.487-10.092 8.67-14.843 1.09-1.627 3.559-3.285 5.412-3.302 24.115-.22 48.232-.145 73.463-.145-.74 1.958-1.283 3.4-2.171 5.044z"/><path fill="#4060FB" d="M147.827 39c0 13.137.051 25.774-.05 38.41-.013 1.486-.872 2.966-1.338 4.448-1.39-.738-3.138-1.16-4.115-2.264-7.162-8.093-14.197-16.298-21.214-24.518-3.725-4.364-7.227-8.922-11.025-13.22-2.901-3.283-2.881-5.16 1.063-7.324 7.78-4.269 15.661-8.352 23.529-12.458 3.95-2.063 7.962-4.008 13.156-6.613 0 8.87 0 15.954-.006 23.54z"/></svg>