<svg width="80" height="80" viewBox="0 0 80 80" fill="none" xmlns="http://www.w3.org/2000/svg">
<rect x="80" y="80" width="80" height="80" rx="40" transform="rotate(-180 80 80)" fill="url(#paint0_linear_2_326)"/>
<mask id="mask0_2_326" style="mask-type:alpha" maskUnits="userSpaceOnUse" x="22" y="13" width="36" height="54">
<path fill-rule="evenodd" clip-rule="evenodd" d="M23.1761 41.6239L22.8667 42.1333L23.7191 43.3284C23.4578 42.7709 23.2869 42.1824 23.1761 41.6239ZM24.1866 39.9599C27.499 41.6195 32.1823 41.1326 38.2365 38.4992C44.5975 35.7323 49.8093 35.3967 53.8719 37.4925C54.1269 37.6241 54.3619 37.7635 54.5782 37.9096L40.0333 13.8667L24.1866 39.9599ZM56.9214 41.783C56.9449 41.9816 56.959 42.1775 56.9658 42.3692L57.1333 42.1333L56.9214 41.783ZM55.7264 44.1134C51.1342 40.6219 46.1369 40.8456 39.2962 43.8211C33.8212 46.2026 29.4673 46.8286 26.2345 45.6994C25.6614 45.4991 25.1882 45.2013 24.7978 44.8406L40.0333 66.2L55.7264 44.1134Z" fill="white"/>
</mask>
<g mask="url(#mask0_2_326)">
<path d="M40.037 13.8L39.5333 14.9753V40.0666H40.037L58.5 37.5L40.037 13.8Z" fill="#7591F2"/>
<path d="M40.0333 13.6666L23.8667 40.4563L40.0333 50V33.1175V13.6666Z" fill="white"/>
<path d="M39.9952 43.5448L39.7965 53.3129V65.6863L39.9952 66.2662L56.9 42.4L49.3333 36.8L39.9952 43.5448Z" fill="#7591F2"/>
<path d="M40.0333 66.2662L40.0333 43.5448H23.8667L40.0333 66.2662Z" fill="white"/>
</g>
<defs>
<linearGradient id="paint0_linear_2_326" x1="120" y1="80" x2="119.216" y2="214.902" gradientUnits="userSpaceOnUse">
<stop stop-color="#3068EF"/>
<stop offset="1" stop-color="#1322AC"/>
</linearGradient>
</defs>
</svg>
