<svg height="666.86" viewBox="0 0 551.98 666.86" width="551.98" xmlns="http://www.w3.org/2000/svg" xmlns:xlink="http://www.w3.org/1999/xlink"><linearGradient id="a" gradientTransform="matrix(211.53 -106.55 -106.55 -211.53 836.79 935.84)" gradientUnits="userSpaceOnUse" x2="1"><stop offset="0" stop-color="#8175a5"/><stop offset="1" stop-color="#63577f"/></linearGradient><linearGradient id="b" gradientTransform="matrix(153.69 225.42 225.42 -153.69 984.02 730.83)" gradientUnits="userSpaceOnUse" x2="1"><stop offset="0" stop-color="#655981"/><stop offset=".23712" stop-color="#73628c"/><stop offset="1" stop-color="#b3a5da"/></linearGradient><linearGradient id="c" gradientTransform="matrix(206.85 0 0 206.85 -.025 2103.6)" gradientUnits="userSpaceOnUse" x2="1"><stop offset="0" stop-color="#73628c"/><stop offset=".60887" stop-color="#b3a5da"/><stop offset="1" stop-color="#b3a5da"/></linearGradient><linearGradient id="d"><stop offset="0" stop-color="#afa0d8"/><stop offset="1" stop-color="#cec6e6"/></linearGradient><linearGradient id="e" gradientTransform="matrix(161.59 178.26 178.26 -161.59 1098.6 900.65)" gradientUnits="userSpaceOnUse" x2="1" xlink:href="#d"/><linearGradient id="f" gradientTransform="matrix(22.789 68.368 68.368 -22.789 899.72 915.68)" gradientUnits="userSpaceOnUse" x2="1"><stop offset="0" stop-color="#887bae"/><stop offset="1" stop-color="#796d9b"/></linearGradient><linearGradient id="g" gradientTransform="matrix(-107.33 0 0 107.33 1028.1 1103.6)" gradientUnits="userSpaceOnUse" x2="1"><stop offset="0" stop-color="#afa0d8"/><stop offset="1" stop-color="#887bae"/></linearGradient><linearGradient id="h" gradientTransform="matrix(75.72 -71.87 -71.87 -75.72 1036.7 1068.9)" gradientUnits="userSpaceOnUse" x2="1" xlink:href="#d"/><g transform="matrix(1.3333 0 0 -1.3333 -1057.3 1666.8)"><path d="m1000.2 750-207.1 105.62 207.1 101.48z" fill="url(#a)"/><path d="m0 0-207.1 105.62 207.1 101.48z" fill="none" stroke="#726691" stroke-miterlimit="10" stroke-width=".05" transform="translate(1000.2 750)"/><path d="m1000.2 957.1 206.77-101.92-206.77-105.18z" fill="url(#b)"/><path d="m0 0 206.77-101.92-206.77-105.18z" fill="none" stroke="url(#c)" stroke-miterlimit="10" stroke-width=".05" transform="translate(1000.2 957.1)"/><path d="m1122.5 1016.8 84.479-161.61-206.77 101.92z" fill="url(#e)"/><path d="m0 0 84.479-161.62-206.77 101.92z" fill="none" stroke="#b5a7db" stroke-miterlimit="10" stroke-width=".05" transform="translate(1122.5 1016.8)"/><path d="m878 1017.1 122.16-59.955-207.1-101.48z" fill="url(#f)"/><path d="m0 0 122.16-59.955-207.1-101.48z" fill="none" stroke="#8073a3" stroke-miterlimit="10" stroke-width=".05" transform="translate(878 1017.1)"/><path d="m1000.2 957.1v292.9l-122.16-232.94z" fill="url(#g)"/><path d="m0 0v292.9l-122.16-232.94z" fill="none" stroke="#9688bd" stroke-miterlimit="10" stroke-width=".05" transform="translate(1000.2 957.1)"/><path d="m1000.2 957.1v292.9l122.29-233.2z" fill="url(#h)"/><path d="m0 0v292.9l122.29-233.2z" fill="none" stroke="#afa0d8" stroke-miterlimit="10" stroke-width=".05" transform="translate(1000.2 957.1)"/><path d="m1000.2 750-207.1 105.62 207.1 101.48z" fill="url(#a)"/><path d="m0 0-207.1 105.62 207.1 101.48z" fill="none" stroke="#726691" stroke-miterlimit="10" stroke-width=".05" transform="translate(1000.2 750)"/><path d="m1000.2 957.1 206.77-101.92-206.77-105.18z" fill="url(#b)"/><path d="m0 0 206.77-101.92-206.77-105.18z" fill="none" stroke="url(#c)" stroke-miterlimit="10" stroke-width=".05" transform="translate(1000.2 957.1)"/><path d="m1122.5 1016.8 84.479-161.61-206.77 101.92z" fill="url(#e)"/><path d="m0 0 84.479-161.62-206.77 101.92z" fill="none" stroke="#b5a7db" stroke-miterlimit="10" stroke-width=".05" transform="translate(1122.5 1016.8)"/><path d="m878 1017.1 122.16-59.955-207.1-101.48z" fill="url(#f)"/><path d="m0 0 122.16-59.955-207.1-101.48z" fill="none" stroke="#8073a3" stroke-miterlimit="10" stroke-width=".05" transform="translate(878 1017.1)"/><path d="m1000.2 957.1v292.9l-122.16-232.94z" fill="url(#g)"/><path d="m0 0v292.9l-122.16-232.94z" fill="none" stroke="#9688bd" stroke-miterlimit="10" stroke-width=".05" transform="translate(1000.2 957.1)"/><path d="m1000.2 957.1v292.9l122.29-233.2z" fill="url(#h)"/><path d="m0 0v292.9l122.29-233.2z" fill="none" stroke="#afa0d8" stroke-miterlimit="10" stroke-width=".05" transform="translate(1000.2 957.1)"/></g></svg>