<svg width="551.98" height="666.86" version="1.1" viewBox="0 0 551.98 666.86" xml:space="preserve" xmlns="http://www.w3.org/2000/svg" xmlns:xlink="http://www.w3.org/1999/xlink"><defs><linearGradient id="linearGradient1282" x2="1" gradientTransform="matrix(211.53 -106.55 -106.55 -211.53 836.79 935.84)" gradientUnits="userSpaceOnUse"><stop stop-color="#8175a5" offset="0"/><stop stop-color="#63577f" offset="1"/></linearGradient><linearGradient id="linearGradient1306" x2="1" gradientTransform="matrix(153.69 225.42 225.42 -153.69 984.02 730.83)" gradientUnits="userSpaceOnUse"><stop stop-color="#655981" offset="0"/><stop stop-color="#73628c" offset=".23712"/><stop stop-color="#b3a5da" offset="1"/></linearGradient><linearGradient id="linearGradient1318" x2="1" gradientTransform="matrix(206.85 0 0 206.85 -.025 2103.6)" gradientUnits="userSpaceOnUse"><stop stop-color="#73628c" offset="0"/><stop stop-color="#b3a5da" offset=".60887"/><stop stop-color="#b3a5da" offset="1"/></linearGradient><linearGradient id="linearGradient1336" x2="1" gradientTransform="matrix(161.59 178.26 178.26 -161.59 1098.6 900.65)" gradientUnits="userSpaceOnUse"><stop stop-color="#afa0d8" offset="0"/><stop stop-color="#cec6e6" offset="1"/></linearGradient><linearGradient id="linearGradient1358" x2="1" gradientTransform="matrix(22.789 68.368 68.368 -22.789 899.72 915.68)" gradientUnits="userSpaceOnUse"><stop stop-color="#887bae" offset="0"/><stop stop-color="#796d9b" offset="1"/></linearGradient><linearGradient id="linearGradient1380" x2="1" gradientTransform="matrix(-107.33 0 0 107.33 1028.1 1103.6)" gradientUnits="userSpaceOnUse"><stop stop-color="#afa0d8" offset="0"/><stop stop-color="#887bae" offset="1"/></linearGradient><linearGradient id="linearGradient1402" x2="1" gradientTransform="matrix(75.72 -71.87 -71.87 -75.72 1036.7 1068.9)" gradientUnits="userSpaceOnUse"><stop stop-color="#afa0d8" offset="0"/><stop stop-color="#cec6e6" offset="1"/></linearGradient><linearGradient id="linearGradient1603" x2="1" gradientTransform="matrix(211.53 -106.55 -106.55 -211.53 836.79 935.84)" gradientUnits="userSpaceOnUse" xlink:href="#linearGradient1282"/><linearGradient id="linearGradient1605" x2="1" gradientTransform="matrix(153.69 225.42 225.42 -153.69 984.02 730.83)" gradientUnits="userSpaceOnUse" xlink:href="#linearGradient1306"/><linearGradient id="linearGradient1607" x2="1" gradientTransform="matrix(206.85 0 0 206.85 -.025 2103.6)" gradientUnits="userSpaceOnUse" xlink:href="#linearGradient1318"/><linearGradient id="linearGradient1609" x2="1" gradientTransform="matrix(161.59 178.26 178.26 -161.59 1098.6 900.65)" gradientUnits="userSpaceOnUse" xlink:href="#linearGradient1336"/><linearGradient id="linearGradient1611" x2="1" gradientTransform="matrix(22.789 68.368 68.368 -22.789 899.72 915.68)" gradientUnits="userSpaceOnUse" xlink:href="#linearGradient1358"/><linearGradient id="linearGradient1613" x2="1" gradientTransform="matrix(-107.33 0 0 107.33 1028.1 1103.6)" gradientUnits="userSpaceOnUse" xlink:href="#linearGradient1380"/><linearGradient id="linearGradient1615" x2="1" gradientTransform="matrix(75.72 -71.87 -71.87 -75.72 1036.7 1068.9)" gradientUnits="userSpaceOnUse" xlink:href="#linearGradient1402"/></defs><g transform="matrix(1.3333 0 0 -1.3333 -1057.3 1666.8)"><path d="m1000.2 750-207.1 105.62 207.1 101.48z" fill="url(#linearGradient1603)"/><g transform="translate(1000.2 750)"><path d="m0 0-207.1 105.62 207.1 101.48z" fill="none" stroke="#726691" stroke-miterlimit="10" stroke-width=".05"/></g><path d="m1000.2 957.1 206.77-101.92-206.77-105.18z" fill="url(#linearGradient1605)"/><g transform="translate(1000.2 957.1)"><path d="m0 0 206.77-101.92-206.77-105.18z" fill="none" stroke="url(#linearGradient1607)" stroke-miterlimit="10" stroke-width=".05"/></g><path d="m1122.5 1016.8 84.479-161.61-206.77 101.92z" fill="url(#linearGradient1609)"/><g transform="translate(1122.5 1016.8)"><path d="m0 0 84.479-161.62-206.77 101.92z" fill="none" stroke="#b5a7db" stroke-miterlimit="10" stroke-width=".05"/></g><path d="m878 1017.1 122.16-59.955-207.1-101.48z" fill="url(#linearGradient1611)"/><g transform="translate(878 1017.1)"><path d="m0 0 122.16-59.955-207.1-101.48z" fill="none" stroke="#8073a3" stroke-miterlimit="10" stroke-width=".05"/></g><path d="m1000.2 957.1v292.9l-122.16-232.94z" fill="url(#linearGradient1613)"/><g transform="translate(1000.2 957.1)"><path d="m0 0v292.9l-122.16-232.94z" fill="none" stroke="#9688bd" stroke-miterlimit="10" stroke-width=".05"/></g><path d="m1000.2 957.1v292.9l122.29-233.2z" fill="url(#linearGradient1615)"/><g transform="translate(1000.2 957.1)"><path d="m0 0v292.9l122.29-233.2z" fill="none" stroke="#afa0d8" stroke-miterlimit="10" stroke-width=".05"/></g><path d="m1000.2 750-207.1 105.62 207.1 101.48z" fill="url(#linearGradient1603)"/><g transform="translate(1000.2 750)"><path d="m0 0-207.1 105.62 207.1 101.48z" fill="none" stroke="#726691" stroke-miterlimit="10" stroke-width=".05"/></g><path d="m1000.2 957.1 206.77-101.92-206.77-105.18z" fill="url(#linearGradient1605)"/><g transform="translate(1000.2 957.1)"><path d="m0 0 206.77-101.92-206.77-105.18z" fill="none" stroke="url(#linearGradient1607)" stroke-miterlimit="10" stroke-width=".05"/></g><path d="m1122.5 1016.8 84.479-161.61-206.77 101.92z" fill="url(#linearGradient1609)"/><g transform="translate(1122.5 1016.8)"><path d="m0 0 84.479-161.62-206.77 101.92z" fill="none" stroke="#b5a7db" stroke-miterlimit="10" stroke-width=".05"/></g><path d="m878 1017.1 122.16-59.955-207.1-101.48z" fill="url(#linearGradient1611)"/><g transform="translate(878 1017.1)"><path d="m0 0 122.16-59.955-207.1-101.48z" fill="none" stroke="#8073a3" stroke-miterlimit="10" stroke-width=".05"/></g><path d="m1000.2 957.1v292.9l-122.16-232.94z" fill="url(#linearGradient1613)"/><g transform="translate(1000.2 957.1)"><path d="m0 0v292.9l-122.16-232.94z" fill="none" stroke="#9688bd" stroke-miterlimit="10" stroke-width=".05"/></g><path d="m1000.2 957.1v292.9l122.29-233.2z" fill="url(#linearGradient1615)"/><g transform="translate(1000.2 957.1)"><path d="m0 0v292.9l122.29-233.2z" fill="none" stroke="#afa0d8" stroke-miterlimit="10" stroke-width=".05"/></g></g></svg>
