<svg fill="none" height="80" width="80" xmlns="http://www.w3.org/2000/svg"><rect fill="#fff" height="80" rx="40" width="80"/><path clip-rule="evenodd" d="M8 51.127V40C8 22.327 22.327 8 40 8c8.717 0 16.62 3.486 22.392 9.14l-6.803 4.25A24.178 24.178 0 0 0 40 15.724c-13.407 0-24.276 10.869-24.276 24.276h7.724zm16.294 7.384A24.18 24.18 0 0 0 40 64.276c13.407 0 24.276-10.869 24.276-24.276h-7.724L72 28.69V40c0 17.673-14.327 32-32 32-8.77 0-16.718-3.529-22.498-9.245zm27.982-7.89h-8.828L40 45.963l-3.448 4.658h-8.827l7.997-10.437-7.998-10.805H36l4 5.221 4-5.22h8.277l-7.998 10.804z" fill="#000" fill-rule="evenodd"/></svg>