<svg fill="none" height="144" width="144" xmlns="http://www.w3.org/2000/svg"><path d="m71.85 143.7c39.682 0 71.85-32.168 71.85-71.85s-32.168-71.85-71.85-71.85-71.85 32.168-71.85 71.85 32.168 71.85 71.85 71.85z" fill="#1d2229"/><path d="m59.562 65.112h-12.031v12.031h12.031v-12.03zm-12.031-12.031h-12.031v12.031h12.03v-12.031zm-12.033 12.031h-12.031v12.031h12.03v-12.03zm12.032 12.031h-12.03v12.03h12.03l.001-12.03zm68.391-21.47c-.848-8.849-8.485-11.82-18.131-12.667v-5.668h-7.468v5.344c-1.963 0-3.97.038-5.965.075v-5.424h-7.464v5.667c-1.617.03-11.55.022-11.55.022l-.023 6.585 6.233.035v43.157h-6.23l-.056 6.492c1.81 0 9.863.035 11.608.046v5.595h7.464v-5.462c2.047.044 4.031.062 5.967.06v5.404h7.47v-5.57c12.561-.716 21.356-3.876 22.448-15.668.886-9.498-3.579-13.732-10.709-15.456 4.333-2.214 7.042-6.093 6.41-12.569zm-10.465 26.54c0 9.278-15.883 8.217-20.95 8.22v-16.449c5.065 0 20.941-1.447 20.943 8.228h.007zm-3.467-23.207c0 8.44-13.253 7.45-17.473 7.45v-14.918c4.226.002 17.478-1.335 17.473 7.469z" fill="#fff"/></svg>