<svg width="155" height="155" viewBox="0 0 155 155" fill="none" xmlns="http://www.w3.org/2000/svg">
    <circle cx="77.2098" cy="77.2098" r="77.2098" fill="url(#paint0_linear_6460_288065)" />
    <path
        d="M119.385 66.5765L77.212 23.5117L35.0349 66.5765L56.1215 88.1068L77.212 66.5765L98.2986 88.1068L119.385 66.5765Z"
        fill="white" />
    <path
        d="M35.2427 125.402L35.2426 125.402L35.247 125.404C36.6088 126.143 38.1185 126.51 39.7711 126.51C40.9974 126.51 41.9876 126.363 42.7257 126.054C43.4436 125.753 43.9983 125.374 44.3687 124.906C44.6918 124.522 44.9415 124.148 45.112 123.786H45.3108V125.793V126.039H45.557H49.661H49.9073V125.793V113.75V113.504H49.661H39.7039H39.4576V113.75V117.518V117.764H39.7039H45.0417V117.854C45.0417 119.105 44.6872 120.122 43.9919 120.922C43.316 121.701 42.2207 122.116 40.6458 122.116C39.0852 122.116 37.9019 121.641 37.0613 120.717C36.2131 119.762 35.7789 118.502 35.7789 116.912V111.127C35.7789 109.512 36.2141 108.266 37.0585 107.359C37.9001 106.454 39.0628 105.991 40.5785 105.991C41.6022 105.991 42.431 106.187 43.0787 106.563L43.0786 106.563L43.0839 106.566C43.7377 106.924 44.2167 107.415 44.5295 108.041L44.5294 108.041L44.5324 108.047C44.8706 108.681 45.0417 109.392 45.0417 110.185V110.454V110.7H45.2879H49.661H49.9073V110.454V110.319C49.9073 107.643 49.0933 105.499 47.4442 103.919C45.8154 102.315 43.5144 101.529 40.5785 101.529C37.6155 101.529 35.2392 102.362 33.4789 104.052C31.7126 105.726 30.846 108.12 30.846 111.194V116.845C30.846 118.894 31.2331 120.652 32.0193 122.109L32.0193 122.109L32.0216 122.113C32.8269 123.54 33.9006 124.638 35.2427 125.402ZM59.8572 124.022L59.8584 124.023C61.6636 125.689 64.0833 126.51 67.0897 126.51C70.096 126.51 72.5158 125.689 74.3209 124.023L74.3221 124.022C76.1335 122.327 77.0239 119.922 77.0239 116.845V111.194C77.0239 108.118 76.1338 105.723 74.3215 104.05C72.5166 102.361 70.0966 101.529 67.0897 101.529C64.0827 101.529 61.6627 102.361 59.8577 104.05C58.0455 105.723 57.1554 108.118 57.1554 111.194V116.845C57.1554 119.922 58.0458 122.327 59.8572 124.022ZM84.4629 125.793V126.039H84.7091H99.9139H100.16V125.793V121.756V121.51H99.9139H89.3957V102.246V102H89.1495H84.7091H84.4629V102.246V125.793ZM106.059 125.793V126.039H106.305H115.993C119.194 126.039 121.665 125.233 123.364 123.581L123.192 123.405L123.364 123.581C125.086 121.905 125.927 119.443 125.927 116.24V111.799C125.927 108.597 125.087 106.146 123.364 104.492C121.666 102.817 119.195 102 115.993 102H106.305H106.059V102.246V106.148V106.394H106.305H109.154V121.645H106.305H106.059V121.891V125.793ZM119.811 107.858L119.813 107.86C120.589 108.719 120.995 109.975 120.995 111.665V116.374C120.995 118.04 120.589 119.298 119.811 120.181C119.046 121.05 117.815 121.51 116.06 121.51H114.086V106.529H116.06C117.815 106.529 119.046 106.989 119.811 107.858ZM70.7799 120.678C69.9178 121.582 68.6995 122.048 67.0897 122.048C65.5042 122.048 64.2841 121.583 63.3982 120.677C62.5321 119.768 62.0882 118.545 62.0882 116.98V111.059C62.0882 109.494 62.5321 108.271 63.3983 107.362C64.2841 106.456 65.5042 105.991 67.0897 105.991C68.6995 105.991 69.9178 106.457 70.7799 107.361C71.6468 108.27 72.0911 109.494 72.0911 111.059V116.98C72.0911 118.545 71.6468 119.769 70.7799 120.678Z"
        fill="#1F2333" stroke="#1F2333" stroke-width="0.492513" />
    <defs>
        <linearGradient id="paint0_linear_6460_288065" x1="39.3462" y1="141.09" x2="140.692" y2="39.7436"
            gradientUnits="userSpaceOnUse">
            <stop stop-color="#FDCEAA" />
            <stop offset="1" stop-color="#E4BA85" />
        </linearGradient>
    </defs>
</svg>