<svg width="709" height="709" viewBox="0 0 709 709" fill="none" xmlns="http://www.w3.org/2000/svg">
<path d="M654.247 0H54.5661C24.4301 0 0 24.4301 0 54.5661V654.247C0 684.383 24.4301 708.813 54.5661 708.813H654.247C684.383 708.813 708.813 684.383 708.813 654.247V54.5661C708.813 24.4301 684.383 0 654.247 0Z" fill="#D642DB" style="fill:#D642DB;fill:color(display-p3 0.8388 0.2576 0.8588);fill-opacity:1;"/>
<path d="M599.774 152.226V206.746H545.299C515.172 206.746 490.733 231.185 490.733 261.312V533.87H436.212V206.746H381.692V588.39H327.171V206.746H272.651V533.87H218.13V261.312C218.13 231.185 193.691 206.746 163.564 206.746H109.089V152.226H599.774Z" fill="white" style="fill:white;fill-opacity:1;"/>
</svg>
