<svg width="24" height="24" viewBox="0 0 24 24" fill="none" xmlns="http://www.w3.org/2000/svg">
<g clip-path="url(#clip0_3462_106260)">
<path d="M24 12C24 5.37258 18.6274 0 12 0C5.37258 0 0 5.37258 0 12C0 18.6274 5.37258 24 12 24C18.6274 24 24 18.6274 24 12Z" fill="url(#paint0_linear_3462_106260)"/>
<path d="M17.2911 10.2908C17.5299 8.69402 16.3142 7.83564 14.6518 7.26302L15.1911 5.10002L13.8744 4.77189L13.3494 6.87789C13.0033 6.79164 12.6478 6.71027 12.2946 6.62964L12.8233 4.50977L11.5074 4.18164L10.9678 6.34389C10.6813 6.27864 10.4001 6.21414 10.1271 6.14627L10.1286 6.13952L8.31282 5.68614L7.96257 7.09239C7.96257 7.09239 8.93945 7.31627 8.91882 7.33014C9.45207 7.46327 9.54844 7.81614 9.53232 8.09589L8.91807 10.56C8.95482 10.5694 9.00244 10.5829 9.05494 10.6039C9.01107 10.593 8.96419 10.581 8.91582 10.5694L8.05482 14.0213C7.98957 14.1833 7.8242 14.4263 7.45145 14.334C7.46457 14.3531 6.49445 14.0951 6.49445 14.0951L5.84082 15.6023L7.5542 16.0294C7.87295 16.1093 8.18532 16.1929 8.49282 16.2716L7.94794 18.4594L9.26307 18.7875L9.8027 16.623C10.1619 16.7205 10.5107 16.8105 10.8519 16.8953L10.3142 19.0496L11.6308 19.3778L12.1757 17.1941C14.4208 17.619 16.1091 17.4476 16.8197 15.417C17.3923 13.782 16.7912 12.8389 15.6099 12.2239C16.4702 12.0255 17.1182 11.4596 17.2911 10.2908ZM14.2828 14.5091C13.8759 16.1441 11.1231 15.2603 10.2306 15.0386L10.9536 12.1403C11.8461 12.363 14.7081 12.804 14.2828 14.5091ZM14.6901 10.2671C14.3188 11.7544 12.0276 10.9988 11.2843 10.8135L11.9398 8.18477C12.6831 8.37002 15.0767 8.71577 14.6901 10.2671Z" fill="white"/>
<path d="M12 21.5L12.2245 22.191H12.9511L12.3633 22.618L12.5878 23.309L12 22.882L11.4122 23.309L11.6367 22.618L11.0489 22.191H11.7755L12 21.5Z" fill="white"/>
<path d="M12 0.5L12.2245 1.19098H12.9511L12.3633 1.61803L12.5878 2.30902L12 1.88197L11.4122 2.30902L11.6367 1.61803L11.0489 1.19098H11.7755L12 0.5Z" fill="white"/>
<path d="M22.5 11L22.7245 11.691H23.4511L22.8633 12.118L23.0878 12.809L22.5 12.382L21.9122 12.809L22.1367 12.118L21.5489 11.691H22.2755L22.5 11Z" fill="white"/>
<path d="M1.5 11L1.72451 11.691H2.45106L1.86327 12.118L2.08779 12.809L1.5 12.382L0.912215 12.809L1.13673 12.118L0.548943 11.691H1.27549L1.5 11Z" fill="white"/>
<path d="M2.49951 7L2.72403 7.69098H3.45057L2.86278 8.11803L3.0873 8.80902L2.49951 8.38197L1.91173 8.80902L2.13624 8.11803L1.54846 7.69098H2.275L2.49951 7Z" fill="white"/>
<path d="M4.49951 3.7002L4.72403 4.39118H5.45057L4.86278 4.81823L5.0873 5.50921L4.49951 5.08216L3.91173 5.50921L4.13624 4.81823L3.54846 4.39118H4.275L4.49951 3.7002Z" fill="white"/>
<path d="M7.99951 1.6001L8.22403 2.29108H8.95057L8.36278 2.71813L8.5873 3.40911L7.99951 2.98206L7.41173 3.40911L7.63624 2.71813L7.04846 2.29108H7.775L7.99951 1.6001Z" fill="white"/>
<path d="M21.5996 7L21.3751 7.69098H20.6486L21.2363 8.11803L21.0118 8.80902L21.5996 8.38197L22.1874 8.80902L21.9629 8.11803L22.5507 7.69098H21.8241L21.5996 7Z" fill="white"/>
<path d="M19.4995 3.7002L19.275 4.39118H18.5485L19.1362 4.81823L18.9117 5.50921L19.4995 5.08216L20.0873 5.50921L19.8628 4.81823L20.4506 4.39118H19.724L19.4995 3.7002Z" fill="white"/>
<path d="M16 1.6001L15.7755 2.29108H15.0489L15.6367 2.71813L15.4122 3.40911L16 2.98206L16.5878 3.40911L16.3633 2.71813L16.9511 2.29108H16.2245L16 1.6001Z" fill="white"/>
<path d="M2.69995 17.0999L2.92447 16.4089H3.65101L3.06322 15.9818L3.28774 15.2908L2.69995 15.7179L2.11217 15.2908L2.33668 15.9818L1.74889 16.4089H2.47544L2.69995 17.0999Z" fill="white"/>
<path d="M5 20.3999L5.22451 19.7089H5.95106L5.36327 19.2819L5.58779 18.5909L5 19.0179L4.41221 18.5909L4.63673 19.2819L4.04894 19.7089H4.77549L5 20.3999Z" fill="white"/>
<path d="M8 22.3999L8.22451 21.7089H8.95106L8.36327 21.2819L8.58779 20.5909L8 21.0179L7.41221 20.5909L7.63673 21.2819L7.04894 21.7089H7.77549L8 22.3999Z" fill="white"/>
<path d="M21.3999 17.0999L21.1754 16.4089H20.4488L21.0366 15.9818L20.8121 15.2908L21.3999 15.7179L21.9877 15.2908L21.7632 15.9818L22.351 16.4089H21.6244L21.3999 17.0999Z" fill="white"/>
<path d="M19 20.3999L18.7755 19.7089H18.0489L18.6367 19.2819L18.4122 18.5909L19 19.0179L19.5878 18.5909L19.3633 19.2819L19.9511 19.7089H19.2245L19 20.3999Z" fill="white"/>
<path d="M16 22.3999L15.7755 21.7089H15.0489L15.6367 21.2819L15.4122 20.5909L16 21.0179L16.5878 20.5909L16.3633 21.2819L16.9511 21.7089H16.2245L16 22.3999Z" fill="white"/>
</g>
<defs>
<linearGradient id="paint0_linear_3462_106260" x1="0.174648" y1="-4.92192" x2="25.3098" y2="21.0096" gradientUnits="userSpaceOnUse">
<stop offset="0.265" stop-color="#FFA640"/>
<stop offset="0.475" stop-color="#FF6442"/>
<stop offset="0.74" stop-color="#FFA44F"/>
</linearGradient>
<clipPath id="clip0_3462_106260">
<rect width="24" height="24" fill="white"/>
</clipPath>
</defs>
</svg>
