<svg width="24" height="24" viewBox="0 0 24 24" fill="none" xmlns="http://www.w3.org/2000/svg">
<g clip-path="url(#clip0_3462_108730)">
<path d="M24 12C24 5.37258 18.6274 0 12 0C5.37258 0 0 5.37258 0 12C0 18.6274 5.37258 24 12 24C18.6274 24 24 18.6274 24 12Z" fill="url(#paint0_linear_3462_108730)"/>
<path d="M14.999 9.37501H16.499C16.499 7.24725 14.4328 6.27675 12.749 6.05325V4.5H11.249V6.05325C9.56528 6.27675 7.49902 7.24725 7.49902 9.37501C7.49902 11.4045 9.49853 12.4598 11.249 12.6975V16.425C10.163 16.2368 8.99903 15.657 8.99903 14.625H7.49902C7.49902 16.5668 9.31778 17.7143 11.249 17.952V19.5H12.749V17.9475C14.4328 17.724 16.499 16.7528 16.499 14.625C16.499 12.4973 14.4328 11.5268 12.749 11.3033V7.575C13.7465 7.75426 14.999 8.28076 14.999 9.37501ZM8.99903 9.37501C8.99903 8.28076 10.2515 7.75426 11.249 7.575V11.1743C10.2208 10.9845 8.99903 10.4228 8.99903 9.37501ZM14.999 14.625C14.999 15.7193 13.7465 16.2458 12.749 16.425V12.825C13.7465 13.0043 14.999 13.5308 14.999 14.625Z" fill="white"/>
<path d="M12 21.5L12.2245 22.191H12.9511L12.3633 22.618L12.5878 23.309L12 22.882L11.4122 23.309L11.6367 22.618L11.0489 22.191H11.7755L12 21.5Z" fill="white"/>
<path d="M12 0.5L12.2245 1.19098H12.9511L12.3633 1.61803L12.5878 2.30902L12 1.88197L11.4122 2.30902L11.6367 1.61803L11.0489 1.19098H11.7755L12 0.5Z" fill="white"/>
<path d="M22.5 11L22.7245 11.691H23.4511L22.8633 12.118L23.0878 12.809L22.5 12.382L21.9122 12.809L22.1367 12.118L21.5489 11.691H22.2755L22.5 11Z" fill="white"/>
<path d="M1.5 11L1.72451 11.691H2.45106L1.86327 12.118L2.08779 12.809L1.5 12.382L0.912215 12.809L1.13673 12.118L0.548943 11.691H1.27549L1.5 11Z" fill="white"/>
<path d="M2.49951 7L2.72403 7.69098H3.45057L2.86278 8.11803L3.0873 8.80902L2.49951 8.38197L1.91173 8.80902L2.13624 8.11803L1.54846 7.69098H2.275L2.49951 7Z" fill="white"/>
<path d="M4.49951 3.7002L4.72403 4.39118H5.45057L4.86278 4.81823L5.0873 5.50921L4.49951 5.08216L3.91173 5.50921L4.13624 4.81823L3.54846 4.39118H4.275L4.49951 3.7002Z" fill="white"/>
<path d="M7.99951 1.6001L8.22403 2.29108H8.95057L8.36278 2.71813L8.5873 3.40911L7.99951 2.98206L7.41173 3.40911L7.63624 2.71813L7.04846 2.29108H7.775L7.99951 1.6001Z" fill="white"/>
<path d="M21.5996 7L21.3751 7.69098H20.6486L21.2363 8.11803L21.0118 8.80902L21.5996 8.38197L22.1874 8.80902L21.9629 8.11803L22.5507 7.69098H21.8241L21.5996 7Z" fill="white"/>
<path d="M19.4995 3.7002L19.275 4.39118H18.5485L19.1362 4.81823L18.9117 5.50921L19.4995 5.08216L20.0873 5.50921L19.8628 4.81823L20.4506 4.39118H19.724L19.4995 3.7002Z" fill="white"/>
<path d="M16 1.6001L15.7755 2.29108H15.0489L15.6367 2.71813L15.4122 3.40911L16 2.98206L16.5878 3.40911L16.3633 2.71813L16.9511 2.29108H16.2245L16 1.6001Z" fill="white"/>
<path d="M2.69995 17.0999L2.92447 16.4089H3.65101L3.06322 15.9818L3.28774 15.2908L2.69995 15.7179L2.11217 15.2908L2.33668 15.9818L1.74889 16.4089H2.47544L2.69995 17.0999Z" fill="white"/>
<path d="M5 20.3999L5.22451 19.7089H5.95106L5.36327 19.2819L5.58779 18.5909L5 19.0179L4.41221 18.5909L4.63673 19.2819L4.04894 19.7089H4.77549L5 20.3999Z" fill="white"/>
<path d="M8 22.3999L8.22451 21.7089H8.95106L8.36327 21.2819L8.58779 20.5909L8 21.0179L7.41221 20.5909L7.63673 21.2819L7.04894 21.7089H7.77549L8 22.3999Z" fill="white"/>
<path d="M21.3999 17.0999L21.1754 16.4089H20.4488L21.0366 15.9818L20.8121 15.2908L21.3999 15.7179L21.9877 15.2908L21.7632 15.9818L22.351 16.4089H21.6244L21.3999 17.0999Z" fill="white"/>
<path d="M19 20.3999L18.7755 19.7089H18.0489L18.6367 19.2819L18.4122 18.5909L19 19.0179L19.5878 18.5909L19.3633 19.2819L19.9511 19.7089H19.2245L19 20.3999Z" fill="white"/>
<path d="M16 22.3999L15.7755 21.7089H15.0489L15.6367 21.2819L15.4122 20.5909L16 21.0179L16.5878 20.5909L16.3633 21.2819L16.9511 21.7089H16.2245L16 22.3999Z" fill="white"/>
</g>
<defs>
<linearGradient id="paint0_linear_3462_108730" x1="0.174648" y1="-4.92192" x2="25.3098" y2="21.0096" gradientUnits="userSpaceOnUse">
<stop offset="0.265" stop-color="#59F5EE"/>
<stop offset="0.475" stop-color="#51A3DE"/>
<stop offset="0.74" stop-color="#39C45C"/>
</linearGradient>
<clipPath id="clip0_3462_108730">
<rect width="24" height="24" fill="white"/>
</clipPath>
</defs>
</svg>
