<svg width="170" height="170" fill="none" xmlns="http://www.w3.org/2000/svg"><path d="M85 170c46.944 0 85-38.056 85-85S131.944 0 85 0 0 38.056 0 85s38.056 85 85 85z" fill="#004CA8"/><path d="M129.457 127.596c-37.69 7.614-74.513-16.813-82.173-54.285-3.831-18.156.104-36.29 9.466-50.935-28.386 13.046-45.174 44.27-38.663 76.333 7.66 37.472 44.482 61.899 82.173 54.285 19.427-3.805 34.994-15.343 45.134-30.757-5.055 2.302-10.109 4.218-15.937 5.359z" fill="#002C7F"/><path d="M80.542 123.08c-12.407-1.379-20.259-9.588-21.1-20.637-.085-1.102.82-2 1.924-2h5.858c1.104 0 1.987.9 2.092 2 .76 7.922 6.154 12.604 15.607 12.604 10.223 0 15.699-5.476 15.699-12.048 0-18.62-40.526-9.128-40.526-36.51 0-9.128 8.397-18.62 20.446-20.081v-8.953a2 2 0 0 1 2-2h4.397a2 2 0 0 1 2 2v8.953c10.645 1.717 18.384 10.216 19.266 20.638.094 1.1-.811 1.998-1.915 1.998h-5.858c-1.105 0-1.987-.9-2.12-1.996-.896-7.367-6.708-12.608-13.754-12.608-9.128 0-14.97 6.207-14.97 12.048 0 18.62 40.527 9.128 40.527 36.511 0 9.858-8.032 18.62-21.176 20.446v8.953a2 2 0 0 1-2 2h-4.397a2 2 0 0 1-2-2v-9.318z" fill="#fff"/><path fill-rule="evenodd" clip-rule="evenodd" d="M150.434 115.644l4.46 3.168a1.65 1.65 0 0 1-.193 2.807l-14.44 7.523c-1.147.598-2.504-.297-2.406-1.586l1.271-16.877c.096-1.28 1.553-1.964 2.599-1.221l4 2.841c10.21-23.205 6.437-51.25-11.838-71.075-24.421-26.494-65.568-28.363-92.286-4.34a.836.836 0 0 1-1.17-.048l-2.724-2.954a.82.82 0 0 1 .053-1.164c29.02-26.145 73.751-24.13 100.294 4.665 20.135 21.844 24.056 52.863 12.38 78.261zM21.62 54.526l-4.46-3.168a1.65 1.65 0 0 1 .192-2.807l14.44-7.524c1.147-.597 2.504.297 2.407 1.587L32.928 59.49c-.097 1.28-1.553 1.964-2.6 1.22l-4-2.84c-10.21 23.205-6.436 51.249 11.838 71.075 24.422 26.494 65.569 28.363 92.286 4.339a.836.836 0 0 1 1.171.049l2.723 2.954a.82.82 0 0 1-.053 1.164c-29.019 26.145-73.75 24.13-100.293-4.665-20.136-21.844-24.056-52.863-12.38-78.261z" fill="#BEE179"/></svg>