<svg fill="none" height="80" viewBox="0 0 80 80" width="80" xmlns="http://www.w3.org/2000/svg"><path d="m40 80c22.1668 0 40-17.8332 40-40s-17.8332-40-40-40-40 17.8332-40 40 17.8332 40 40 40z" fill="#2775ca"/><g fill="#fff"><path d="m50.9992 46.333c0-5.8332-3.5-7.8332-10.5-8.6664-5-.6668-6-2-6-4.3336s1.6668-3.8332 5-3.8332c3 0 4.6668 1 5.5 3.5.1668.5.6668.8332 1.1668.8332h2.6664c.6668 0 1.1668-.5 1.1668-1.1664v-.1668c-.6668-3.6668-3.6668-6.5-7.5-6.8332v-4c0-.6668-.5-1.1668-1.3332-1.3336h-2.5c-.6668 0-1.1668.5-1.3336 1.3336v3.8332c-5 .6668-8.1664 4-8.1664 8.1668 0 5.5 3.3332 7.6664 10.3332 8.5 4.6668.8332 6.1668 1.8332 6.1668 4.5s-2.3336 4.5-5.5 4.5c-4.3336 0-5.8336-1.8336-6.3336-4.3336-.1664-.6664-.6664-1-1.1664-1h-2.8336c-.6664 0-1.1664.5-1.1664 1.1668v.1668c.6664 4.1664 3.3332 7.1664 8.8332 8v4c0 .6664.5 1.1664 1.3332 1.3332h2.5c.6668 0 1.1668-.5 1.3336-1.3332v-4c5-.8336 8.3332-4.3336 8.3332-8.8336z"/><path d="m31.4993 63.8334c-13-4.6664-19.6668-19.1664-14.8332-32 2.5-7 8-12.3332 14.8332-14.8332.6668-.3332 1-.8332 1-1.6668v-2.3332c0-.6668-.3332-1.1668-1-1.3332-.1668 0-.5 0-.6668.1664-15.8332 5-24.49996 21.8336-19.5 37.6668 3 9.3332 10.1668 16.5 19.5 19.5.6668.3332 1.3336 0 1.5-.6668.1668-.1664.1668-.3332.1668-.6664v-2.3336c0-.5-.5-1.1664-1-1.5zm17.6668-52c-.6668-.3332-1.3336 0-1.5.6668-.1668.1668-.1668.3332-.1668.6668v2.3332c0 .6668.5 1.3332 1 1.6668 13 4.6664 19.6668 19.1664 14.8332 32-2.5 7-8 12.3332-14.8332 14.8332-.6668.3332-1 .8332-1 1.6668v2.3332c0 .6668.3332 1.1668 1 1.3332.1668 0 .5 0 .6668-.1664 15.8332-5 24.5-21.8336 19.5-37.6668-3-9.5-10.3336-16.6668-19.5-19.6668z"/></g></svg>