<?xml version="1.0" encoding="UTF-8"?><svg id="USDS-coin" xmlns="http://www.w3.org/2000/svg" xmlns:xlink="http://www.w3.org/1999/xlink" viewBox="0 0 1713.23 1713.23"><defs><style>.cls-1{fill:url(#radial-gradient);}.cls-2{fill:url(#linear-gradient);}.cls-3{fill:#fff;}.cls-4{opacity:.42;}.cls-5{opacity:.5;}</style><radialGradient id="radial-gradient" cx="856.62" cy="856.62" fx="856.62" fy="856.62" r="771.79" gradientUnits="userSpaceOnUse"><stop offset="0" stop-color="blue"/><stop offset=".16" stop-color="#0000f8"/><stop offset=".4" stop-color="#0000e6"/><stop offset=".67" stop-color="#0000c8"/><stop offset=".96" stop-color="#00009e"/><stop offset="1" stop-color="#009"/></radialGradient><linearGradient id="linear-gradient" x1="856.62" y1="1713.23" x2="856.62" y2="0" gradientUnits="userSpaceOnUse"><stop offset=".22" stop-color="#b22234"/><stop offset="1" stop-color="red"/></linearGradient></defs><g id="USDS-group"><circle id="Inner-blue" class="cls-1" cx="856.62" cy="856.62" r="771.79"/><g id="Stars" class="cls-5"><g id="Star-group5" class="cls-4"><polygon id="Star20" class="cls-3" points="549.06 88.82 579.31 150.1 646.94 159.92 598 207.63 609.55 274.98 549.06 243.18 488.58 274.98 500.13 207.63 451.19 159.92 518.82 150.1 549.06 88.82"/><polygon id="Star19" class="cls-3" points="856.62 88.82 886.86 150.1 954.49 159.92 905.55 207.63 917.11 274.98 856.62 243.18 796.13 274.98 807.68 207.63 758.74 159.92 826.37 150.1 856.62 88.82"/><polygon id="Star18" class="cls-3" points="1164.17 88.82 1194.41 150.1 1262.04 159.92 1213.11 207.63 1224.66 274.98 1164.17 243.18 1103.68 274.98 1115.23 207.63 1066.3 159.92 1133.93 150.1 1164.17 88.82"/></g><g id="Star-group4" class="cls-4"><polygon id="Star17" class="cls-3" points="241.51 421.74 271.76 483.02 339.38 492.85 290.45 540.55 302 607.9 241.51 576.1 181.02 607.9 192.58 540.55 143.64 492.85 211.27 483.02 241.51 421.74"/><polygon id="Star16" class="cls-3" points="549.06 421.74 579.31 483.02 646.94 492.85 598 540.55 609.55 607.9 549.06 576.1 488.58 607.9 500.13 540.55 451.19 492.85 518.82 483.02 549.06 421.74"/><polygon id="Star15" class="cls-3" points="856.62 421.74 886.86 483.02 954.49 492.85 905.55 540.55 917.11 607.9 856.62 576.1 796.13 607.9 807.68 540.55 758.74 492.85 826.37 483.02 856.62 421.74"/><polygon id="Star14" class="cls-3" points="1164.17 421.74 1194.41 483.02 1262.04 492.85 1213.11 540.55 1224.66 607.9 1164.17 576.1 1103.68 607.9 1115.23 540.55 1066.3 492.85 1133.93 483.02 1164.17 421.74"/><polygon id="Star13" class="cls-3" points="1471.72 421.74 1501.97 483.02 1569.59 492.85 1520.66 540.55 1532.21 607.9 1471.72 576.1 1411.23 607.9 1422.79 540.55 1373.85 492.85 1441.48 483.02 1471.72 421.74"/></g><g id="Star-group3" class="cls-4"><polygon id="Star12" class="cls-3" points="241.51 754.66 271.76 815.94 339.38 825.77 290.45 873.47 302 940.82 241.51 909.02 181.02 940.82 192.58 873.47 143.64 825.77 211.27 815.94 241.51 754.66"/><polygon id="Star11" class="cls-3" points="549.06 754.66 579.31 815.94 646.94 825.77 598 873.47 609.55 940.82 549.06 909.02 488.58 940.82 500.13 873.47 451.19 825.77 518.82 815.94 549.06 754.66"/><polygon id="Star10" class="cls-3" points="1164.17 754.66 1194.41 815.94 1262.04 825.77 1213.11 873.47 1224.66 940.82 1164.17 909.02 1103.68 940.82 1115.23 873.47 1066.3 825.77 1133.93 815.94 1164.17 754.66"/><polygon id="Star9" class="cls-3" points="1471.72 754.66 1501.97 815.94 1569.59 825.77 1520.66 873.47 1532.21 940.82 1471.72 909.02 1411.23 940.82 1422.79 873.47 1373.85 825.77 1441.48 815.94 1471.72 754.66"/></g><g id="Star-group2" class="cls-4"><polygon id="Star8" class="cls-3" points="241.51 1087.58 271.76 1148.86 339.38 1158.69 290.45 1206.39 302 1273.74 241.51 1241.94 181.02 1273.74 192.58 1206.39 143.64 1158.69 211.27 1148.86 241.51 1087.58"/><polygon id="Star7" class="cls-3" points="549.06 1087.58 579.31 1148.86 646.94 1158.69 598 1206.39 609.55 1273.74 549.06 1241.94 488.58 1273.74 500.13 1206.39 451.19 1158.69 518.82 1148.86 549.06 1087.58"/><polygon id="Star6" class="cls-3" points="856.62 1087.58 886.86 1148.86 954.49 1158.69 905.55 1206.39 917.11 1273.74 856.62 1241.94 796.13 1273.74 807.68 1206.39 758.74 1158.69 826.37 1148.86 856.62 1087.58"/><polygon id="Star5" class="cls-3" points="1164.17 1087.58 1194.41 1148.86 1262.04 1158.69 1213.11 1206.39 1224.66 1273.74 1164.17 1241.94 1103.68 1273.74 1115.23 1206.39 1066.3 1158.69 1133.93 1148.86 1164.17 1087.58"/><polygon id="Star4" class="cls-3" points="1471.72 1087.58 1501.97 1148.86 1569.59 1158.69 1520.66 1206.39 1532.21 1273.74 1471.72 1241.94 1411.23 1273.74 1422.79 1206.39 1373.85 1158.69 1441.48 1148.86 1471.72 1087.58"/></g><g id="Star-group1" class="cls-4"><polygon id="Star3" class="cls-3" points="549.06 1420.5 579.31 1481.78 646.94 1491.61 598 1539.31 609.55 1606.67 549.06 1574.86 488.58 1606.67 500.13 1539.31 451.19 1491.61 518.82 1481.78 549.06 1420.5"/><polygon id="Star2" class="cls-3" points="856.62 1420.5 886.86 1481.78 954.49 1491.61 905.55 1539.31 917.11 1606.67 856.62 1574.86 796.13 1606.67 807.68 1539.31 758.74 1491.61 826.37 1481.78 856.62 1420.5"/><polygon id="Star1" class="cls-3" points="1164.17 1420.5 1194.41 1481.78 1262.04 1491.61 1213.11 1539.31 1224.66 1606.67 1164.17 1574.86 1103.68 1606.67 1115.23 1539.31 1066.3 1491.61 1133.93 1481.78 1164.17 1420.5"/></g></g><path id="outer-ring" class="cls-2" d="M856.62,91.92c103.27,0,203.41,20.21,297.63,60.06,91.05,38.51,172.84,93.66,243.1,163.92,70.26,70.26,125.41,152.05,163.92,243.1,39.85,94.22,60.06,194.35,60.06,297.63s-20.21,203.41-60.06,297.63c-38.51,91.05-93.66,172.84-163.92,243.1-70.26,70.26-152.05,125.41-243.1,163.92-94.22,39.85-194.35,60.06-297.63,60.06s-203.41-20.21-297.63-60.06c-91.05-38.51-172.84-93.66-243.1-163.92-70.26-70.26-125.41-152.05-163.92-243.1-39.85-94.22-60.06-194.35-60.06-297.63s20.21-203.41,60.06-297.63c38.51-91.05,93.66-172.84,163.92-243.1,70.26-70.26,152.05-125.41,243.1-163.92,94.22-39.85,194.35-60.06,297.63-60.06M856.62,0C383.52,0,0,383.52,0,856.62s383.52,856.62,856.62,856.62,856.62-383.52,856.62-856.62S1329.71,0,856.62,0h0Z"/><g id="US-symbol"><path id="USDs" class="cls-3" d="M797.63,956.91c0-30.3-.08-60.61.1-90.91.02-3.79-.96-5.24-4.68-6.22-20.74-5.41-40.99-12.21-59.64-23.08-35.08-20.45-54.69-50.92-58.97-91.24-2.13-20.04-1.51-39.89,5.05-59.21,9.58-28.23,27.86-49.64,52.2-66.2,19.01-12.94,39.93-21.54,62.31-26.62,2.67-.61,3.76-1.54,3.73-4.54-.18-15.21-.03-30.41-.14-45.62-.02-2.41.51-3.22,3.09-3.19,13.87.13,27.75.14,41.62,0,2.67-.03,3.06.95,3.05,3.27-.09,13.65.03,27.31-.1,40.96-.03,2.66.81,3.24,3.36,3.33,10.09.37,20.17.98,30.25,1.61,4.74.3,4.73.42,4.73-4.16,0-13.99.05-27.97-.05-41.96-.01-2.24.47-3.05,2.89-3.03,13.99.11,27.97.11,41.96,0,2.43-.02,2.92.84,2.91,3.06-.08,17.09.07,34.19-.14,51.28-.04,3.41,1.05,4.72,4.19,5.74,26.7,8.68,50.41,22.35,69.98,42.71,21.66,22.52,34.44,49.46,39.53,80.18,1.31,7.89,1.99,15.84,2.28,23.84.08,2.11-.36,2.93-2.67,2.95-18.65.2-37.29.46-55.93.88-2.96.07-2.81-1.49-2.88-3.46-.69-18.91-5.45-36.55-16.53-52.18-9.2-12.98-21.38-22.37-35.42-29.55-1.8-.92-2.66-.79-2.47,1.46.07.77,0,1.55,0,2.33,0,52.5.03,105.01-.08,157.51,0,3.25.96,4.44,4.09,5.32,23.7,6.62,46.52,15.33,67.1,29.16,32.05,21.54,51.82,51.22,58.09,89.37,1.83,11.14.92,22.61-.38,33.88-3.65,31.57-15.5,59.48-37.4,82.8-18.4,19.6-40.96,32.67-66.07,41.64-7.41,2.65-14.95,4.94-22.64,6.61-2.22.48-2.76,1.48-2.75,3.61.07,16.87-.01,33.74.1,50.62.02,2.64-.75,3.34-3.35,3.32-13.76-.12-27.53-.12-41.29,0-2.49.02-3.16-.65-3.14-3.14.12-14.65,0-29.3.11-43.96.02-2.45-.54-3.22-3.12-3.11-10.87.46-21.75.61-32.62.16-2.57-.11-2.6,1.13-2.6,2.98.03,14.43-.08,28.86.09,43.29.04,3.14-.95,3.82-3.91,3.78-13.54-.15-27.08-.15-40.63,0-2.71.03-3.28-.83-3.26-3.37.11-16.32-.06-32.64.15-48.95.04-3.34-1.08-4.42-4.17-5.21-37.18-9.54-69.65-27.29-95.63-55.94-24.57-27.1-38.65-59.16-44.1-95.15-.83-5.48-1.21-11.03-1.97-16.52-.39-2.79.35-3.87,3.37-4,13.3-.59,26.59-1.42,39.89-2.16,4.88-.27,9.77-.38,14.62-.85,2.64-.26,3.3.54,3.5,3.16,1.84,24.03,8.76,46.35,23.26,65.9,14.95,20.15,34.89,33.44,58.28,41.95,3.19,1.16,2.88-.46,2.88-2.53-.02-30.86-.02-61.72-.02-92.58ZM931.24,973.85c0,8.65,0,17.3,0,25.96,0,16.64,0,33.28,0,49.92,0,1.49-.52,3.26,2.33,2.29,15.49-5.27,29.85-12.51,41.69-24.03,19.77-19.23,26.28-43.42,23.94-69.9-1.27-14.31-8.94-26.52-19.5-36.55-12.92-12.27-28.69-19.4-45.13-25.42-2.97-1.09-3.41-.34-3.4,2.53.1,25.07.06,50.14.06,75.21ZM845.29,967.8c0,8.87,0,17.75,0,26.62,0,21.3,0,42.6,0,63.9,0,1.71-.5,3.49,2.47,3.5,10.65.06,21.29.05,31.94-.17,3.19-.07,3.94-1.19,3.94-4.32-.1-57.02-.1-114.04,0-171.05,0-2.74-.72-3.79-3.43-4.36-10.51-2.2-21.12-3.97-31.35-7.36-3.52-1.17-3.56-1.08-3.56,2.72,0,30.17,0,60.35,0,90.52ZM797.41,797.3c.11-.73.2-1.06.2-1.38.01-45.81,0-91.62.07-137.43,0-2.57-.95-2.33-2.71-1.73-10.43,3.57-20.37,8.15-29.43,14.46-14.32,9.99-25.37,22.44-29.37,40.03-1.92,8.44-1.58,17-.96,25.51,1.23,16.88,7.3,31.41,21.36,41.81,12.22,9.04,26.21,14.13,40.84,18.74ZM883.42,819.74c.05-.96.14-1.84.14-2.71,0-54.25-.02-108.51.08-162.76,0-2.87-1.22-3.3-3.49-3.43-10.41-.6-20.82-1.18-31.21-1.96-2.99-.23-3.72.69-3.71,3.62.09,51.37.08,102.74.01,154.11,0,2.39.61,3.59,3.05,4.07,3.03.6,5.99,1.61,8.99,2.4,8.65,2.29,17.06,5.5,26.15,6.66Z"/></g><g id="logo"><g id="TST-floor"><path class="cls-3" d="M996.96,1382.72H403.99v-159.48h592.96c84.06,0,155.07-51,155.07-111.37v-236.02h159.48v236.02c0,149.35-141.11,270.86-314.56,270.86Z"/></g><g id="TST-top"><path class="cls-3" d="M559.74,871.82h-159.48v-226.75c0-173.45,141.11-314.56,314.56-314.56h598.16v159.48h-598.16c-85.51,0-155.07,69.57-155.07,155.07v226.75Z"/></g></g></g></svg>