<?xml version="1.0" encoding="utf-8"?>
<!-- Generator: Adobe Illustrator 27.9.0, SVG Export Plug-In . SVG Version: 6.00 Build 0)  -->
<svg version="1.1" id="USDS-Logo-Dark_Background-RGB"
	 xmlns="http://www.w3.org/2000/svg" xmlns:xlink="http://www.w3.org/1999/xlink" x="0px" y="0px" viewBox="0 0 2117.8 483.2"
	 style="enable-background:new 0 0 2117.8 483.2;" xml:space="preserve">
<style type="text/css">
	.st0{fill:#FFFFFF;}
	.st1{fill:url(#Element_00000020389441567051532200000003753477008150389895_);}
</style>
<g id="USDS-Logo-Dark_Background-RGB_00000136406577171402401310000010037317689861542540_">
	<path id="USDS-Logotype-White_Version-RGB" class="st0" d="M820.7,458.8c-86.9,0-155-53.4-155-153.8V33.7h69.9v267.1
		c0,58.7,32.3,91,85.1,91c53.4,0,85.1-32.3,85.1-91V33.7h70.5V305C976.3,405.4,908.2,458.8,820.7,458.8z M1342.3,131.2l-63.4,20
		c-4.1-25.8-25.8-64-81.6-64c-42.3,0-71.6,28.2-71.6,59.9c0,26.4,16.4,46.4,48.7,53.4l59.9,12.3c73.4,14.7,112.7,61.1,112.7,119.8
		c0,64.6-52.2,126.2-147.4,126.2c-105.7,0-154.4-68.1-160.9-128l65.8-18.8c4.1,43.4,35.2,83.4,95.1,83.4c49.9,0,75.7-25.2,75.7-57.5
		c0-27-20-48.7-55.8-56.4l-58.7-12.3c-63.4-12.9-105.7-54.6-105.7-116.8c0-69.9,64-127.4,141.5-127.4
		C1294.7,24.9,1332.9,84.8,1342.3,131.2z M1488.8,385.4h74c72.2,0,132.1-46.4,132.1-142.7c0-97.5-59.3-144.4-131.5-144.4h-74.6
		V385.4z M1565.1,450h-146.8V33.7h147.4c113.3,0,202.6,75.2,202.6,209C1768.2,376,1677.8,450,1565.1,450z M2113.1,131.2l-63.4,20
		c-4.1-25.8-25.8-64-81.6-64c-42.3,0-71.6,28.2-71.6,59.9c0,26.4,16.4,46.4,48.7,53.4l59.9,12.3c73.4,14.7,112.7,61.1,112.7,119.8
		c0,64.6-52.2,126.2-147.4,126.2c-105.7,0-154.4-68.1-160.9-128l65.8-18.8c4.1,43.4,35.2,83.4,95.1,83.4c49.9,0,75.7-25.2,75.7-57.5
		c0-27-20-48.7-55.8-56.4l-58.7-12.3c-63.4-12.9-105.7-54.6-105.7-116.8c0-69.9,64-127.4,141.5-127.4
		C2065.6,24.9,2103.7,84.8,2113.1,131.2z"/>
	<g id="USDS-Logomark-RGB">
		
			<radialGradient id="Element_00000024003184646893472940000012549404442412305542_" cx="1269.3573" cy="822.7803" r="0.9997" gradientTransform="matrix(4.741704e-14 -774.379 774.379 4.741704e-14 -636902.25 983523.75)" gradientUnits="userSpaceOnUse">
			<stop  offset="0" style="stop-color:#FFD232"/>
			<stop  offset="1" style="stop-color:#FF6D6D"/>
		</radialGradient>
		
			<circle id="Element" style="fill:url(#Element_00000024003184646893472940000012549404442412305542_);" cx="241.6" cy="241.6" r="241.6"/>
		<path id="Element-2" class="st0" d="M149.2,305.1h-34.4c2.8,53.7,47.7,100.3,127.3,100.3c79.3,0,129.8-43.5,129.8-99.6
			c0-106.6-161-100.7-161-162.4c0-17.2,13-37.5,43.2-37.5c33.7,0,73.3,26.3,76.1,60h34c-3.5-54.4-56.5-92.3-123.8-92.3
			c-69.8,0-122.4,40.7-122.4,98.2c0,109.8,161,95.4,161,163.1c0,21-13,38.6-45.6,38.6C192.7,373.5,151.6,345.1,149.2,305.1z
			 M178,151.4c0,83.5,159.6,67,159.6,156.1c0,26.7-17.5,50.2-38.6,56.1c7.4-7,13-22.5,13-37.2c0-82.4-160-71.2-160-155.8
			c0-28.4,18.2-51.2,41-58.2C184.3,123,178,136.7,178,151.4z"/>
	</g>
</g>
</svg>
