<svg fill="none" height="181" width="181" xmlns="http://www.w3.org/2000/svg"><radialGradient id="a" cx="0" cy="0" gradientTransform="rotate(38.32 -24.948 39.714) scale(197.563)" gradientUnits="userSpaceOnUse" r="1"><stop offset="0" stop-color="#0a0a0a"/><stop offset="1" stop-color="#373737"/></radialGradient><linearGradient id="b" gradientUnits="userSpaceOnUse" x1="126.758" x2="35.508" y1="135.275" y2="50.275"><stop offset="0" stop-color="#fff"/><stop offset="1" stop-color="#f1f1f1"/></linearGradient><path d="M90.5 180.275c49.706 0 90-40.294 90-90s-40.294-90-90-90-90 40.294-90 90 40.294 90 90 90z" fill="url(#a)"/><path clip-rule="evenodd" d="M97.475 21.031H83.512v20.703H62.513c-15.39 0-27.982 12.481-27.982 27.736s12.592 27.736 27.982 27.736h.007v.002h55.964c7.695 0 13.991 6.241 13.991 13.868s-6.296 13.868-13.991 13.868H62.52v13.868h20.992v20.705h13.963v-20.705h21.009c15.39 0 27.982-12.481 27.982-27.736S133.874 83.34 118.484 83.34h-.007v-.002H62.513c-7.695 0-13.99-6.24-13.99-13.868 0-7.627 6.295-13.868 13.99-13.868h55.964V41.734H97.475zM62.513 138.81c-15.39 0-27.982-12.481-27.982-27.736h13.991c0 7.628 6.296 13.868 13.991 13.868zm83.949-69.34c0-15.255-12.591-27.736-27.982-27.736v13.868c7.696 0 13.991 6.24 13.991 13.868z" fill="url(#b)" fill-rule="evenodd"/></svg>