<svg width="800" height="800" fill="none" xmlns="http://www.w3.org/2000/svg"><g clip-path="url(#clip0_4603_65122)"><circle cx="400" cy="400" r="400" fill="#122A5F"/><path fill-rule="evenodd" clip-rule="evenodd" d="M620 400c0-121.503-98.498-220-220-220v-80c20.71 0 40.931 2.099 60.46 6.095C597.165 134.069 700 255.025 700 400c0 165.685-134.315 300-300 300-130.622 0-241.746-83.481-282.93-200h86.918C240.402 571.234 314.506 620 400 620c121.502 0 220-98.497 220-220zM134.602 260c50.3 95.156 150.276 160 265.398 160v-80c-98.596 0-182.044-64.86-210.003-154.24A301.011 301.011 0 0 0 134.602 260zm89.235-102.857C240.953 238.734 313.322 300 400 300c55.229 0 100 44.772 100 100 0 55.229-44.771 100-100 100H250.311c32.29 48.239 87.281 80 149.689 80 99.411 0 180-80.589 180-180s-80.589-180-180-180c-55.228 0-100-44.772-100-100v-2.929a299.15 299.15 0 0 0-76.163 40.072z" fill="#fff"/></g><defs><clipPath id="clip0_4603_65122"><path fill="#fff" d="M0 0H800V800H0z"/></clipPath></defs></svg>