<svg width="342" height="342" viewBox="0 0 342 342" fill="none" xmlns="http://www.w3.org/2000/svg">
<rect width="341.015" height="341.015" rx="170.508" fill="#6C77E9"/>
<path d="M133.95 202.482C136.094 219.046 150.869 233.097 170.489 233.097C191.733 233.097 207.297 216.623 207.297 198.324C207.297 180.025 191.733 163.551 170.489 163.551C165.533 163.551 160.886 164.448 156.674 166.055C148.002 161.554 142.533 153.007 142.133 144.105C150.647 139.902 160.283 137.532 170.489 137.532C205.081 137.532 233.124 164.75 233.124 198.324C233.124 231.899 205.081 259.116 170.489 259.116C135.897 259.116 107.854 231.899 107.854 198.324C107.854 192.09 108.821 186.075 110.618 180.412C116.546 189.418 124.551 196.981 133.95 202.482Z" fill="#FAFBF5"/>
<path d="M134.19 192.606C126.009 186.95 119.289 179.433 114.684 170.691C119.289 161.949 126.009 154.432 134.19 148.776C135.744 157.46 140.774 165.336 148.121 170.691C140.774 176.046 135.744 183.922 134.19 192.606Z" fill="#FAFBF5"/>
<path d="M206.788 148.776C214.969 154.432 221.69 161.949 226.294 170.691C221.69 179.433 214.969 186.95 206.788 192.606C205.234 183.922 200.205 176.046 192.857 170.691C200.205 165.336 205.234 157.46 206.788 148.776Z" fill="#FAFBF5"/>
<path d="M184.304 175.327C180.092 176.934 175.445 177.831 170.489 177.831C149.245 177.831 133.682 161.357 133.682 143.058C133.682 124.759 149.245 108.285 170.489 108.285C190.109 108.285 204.884 122.336 207.028 138.9C216.427 144.401 224.432 151.964 230.361 160.97C232.157 155.308 233.124 149.292 233.124 143.058C233.124 109.483 205.081 82.2656 170.489 82.2656C135.897 82.2656 107.854 109.483 107.854 143.058C107.854 176.632 135.897 203.85 170.489 203.85C180.695 203.85 190.332 201.48 198.845 197.278C198.446 188.375 192.976 179.828 184.304 175.327Z" fill="#FAFBF5"/>
<rect x="155.754" y="60.1582" width="29.4751" height="40.5283" rx="7.36878" fill="#FAFBF5"/>
<rect x="155.754" y="237.005" width="29.4751" height="40.5283" rx="7.36878" fill="#FAFBF5"/>
</svg>
