<?xml version="1.0" encoding="UTF-8" standalone="no"?>
<svg
   width="2574"
   height="2574"
   viewBox="0 0 2574 2574"
   fill="none"
   version="1.1"
   id="svg1"
   xmlns="http://www.w3.org/2000/svg"
   xmlns:svg="http://www.w3.org/2000/svg">
  <defs
     id="defs1" />
  <circle
     style="fill:#000000"
     id="path2"
     cx="1287"
     cy="1287"
     r="1287" />
  <path
     fill-rule="evenodd"
     clip-rule="evenodd"
     d="m 1535.0285,559.84192 h 71.5985 c 391.9156,0 709.6164,318.94894 709.6164,712.39188 v 51.319 c 0,393.4421 -317.7008,712.391 -709.6164,712.391 v -331.086 c 209.771,0 379.8185,-170.7195 379.8185,-381.305 v -51.319 c 0,-190.0037 -138.4286,-347.54838 -319.565,-376.53261 L 964.03113,1601.2964 v -64.7179 h 0.002 V 1133.0659 Z M 1100.5891,2035.9758 H 971.82143 c -394.64299,0 -714.56481,-321.1731 -714.56481,-717.357 v -49.1117 c 0,-391.91955 316.4767,-709.63297 706.86972,-709.63297 v 331.08823 c -208.2501,0 -377.07021,169.48024 -377.07021,378.54474 v 49.1117 c 0,210.7271 168.08565,382.0386 377.0022,386.191 l 639.36837,-641.8686 v 468.2289 z"
     fill="#edff97"
     id="path1"
     style="stroke-width:0.800073" />
</svg>
