<svg width="40" height="40" viewBox="0 0 40 40" fill="none" xmlns="http://www.w3.org/2000/svg">
<path d="M20 39.5C9.23045 39.5 0.5 30.7696 0.5 20C0.5 9.23045 9.23045 0.5 20 0.5C30.7696 0.5 39.5 9.23045 39.5 20C39.5 30.7696 30.7696 39.5 20 39.5Z" stroke="#E7E5E4" style="stroke:#E7E5E4;stroke:color(display-p3 0.9059 0.8980 0.8941);stroke-opacity:1;"/>
<mask id="mask0_591_6765" style="mask-type:alpha" maskUnits="userSpaceOnUse" x="4" y="4" width="32" height="32">
<path fill-rule="evenodd" clip-rule="evenodd" d="M20 4C11.1634 4 4 11.1634 4 20C4 28.8366 11.1634 36 20 36C20.9321 36 21.8455 35.9203 22.7339 35.7673C22.2607 34.6046 22 33.3327 22 32C22 26.4772 26.4772 22 32 22C33.3327 22 34.6046 22.2607 35.7673 22.7339C35.9203 21.8455 36 20.9321 36 20C36 11.1634 28.8366 4 20 4Z" fill="#D9D9D9" style="fill:#D9D9D9;fill:color(display-p3 0.8510 0.8510 0.8510);fill-opacity:1;"/>
</mask>
<g mask="url(#mask0_591_6765)">
<rect width="32" height="32" transform="translate(4 4)" fill="#EFF7FD" style="fill:#EFF7FD;fill:color(display-p3 0.9373 0.9686 0.9922);fill-opacity:1;"/>
<g clip-path="url(#clip0_591_6765)">
<path fill-rule="evenodd" clip-rule="evenodd" d="M24.6151 18.2283C25.4867 19.3186 26.0119 20.7038 26.0119 22.2057C26.0119 23.7077 25.4755 25.1318 24.576 26.2332L24.4977 26.3278L24.4754 26.2054C24.4586 26.1052 24.4363 25.9995 24.4139 25.8939C23.9669 23.9302 22.5031 22.2447 20.0893 20.8762C18.4634 19.9583 17.5304 18.8514 17.2845 17.5942C17.1281 16.782 17.2454 15.9643 17.4689 15.2633C17.698 14.5624 18.0332 13.9783 18.3182 13.6279L19.2568 12.4875C19.4189 12.2872 19.7318 12.2872 19.8938 12.4875L24.6151 18.2283ZM26.0957 17.0879L19.8156 9.44466C19.6982 9.30002 19.4692 9.30002 19.3518 9.44466L13.0661 17.0879L13.0438 17.1158C11.8928 18.5454 11.2 20.3589 11.2 22.3337C11.2 26.9341 14.9546 30.6667 19.5809 30.6667C24.2072 30.6667 27.9619 26.9341 27.9619 22.3337C27.9619 20.3589 27.269 18.5454 26.1125 17.1158L26.0957 17.0879ZM14.5691 18.2061L15.1278 17.5218L15.1446 17.6498C15.1558 17.7499 15.1725 17.85 15.1949 17.9502C15.558 19.8471 16.8599 21.4325 19.0278 22.6563C20.9163 23.7244 22.0114 24.9537 22.3299 26.3055C22.464 26.8673 22.4863 27.4236 22.4304 27.9076L22.4248 27.9354L22.3969 27.9465C21.5476 28.3582 20.5866 28.5918 19.5753 28.5918C16.0274 28.5918 13.1499 25.7325 13.1499 22.2057C13.1499 20.6926 13.6807 19.2964 14.5691 18.2061Z" fill="#4DA2FF" style="fill:#4DA2FF;fill:color(display-p3 0.3020 0.6353 1.0000);fill-opacity:1;"/>
</g>
</g>
<rect x="24" y="24" width="16" height="16" rx="8" fill="#1C1917" style="fill:#1C1917;fill:color(display-p3 0.1098 0.0980 0.0902);fill-opacity:1;"/>
<path d="M37.0821 28.8358C37.0821 29.2361 36.7611 29.56 36.366 29.56C35.9709 29.56 35.6499 29.2361 35.6499 28.8358C35.6499 28.4355 35.9709 28.1116 36.366 28.1116C36.7611 28.1116 37.0821 28.4355 37.0821 28.8358ZM28.35 28.9001C28.35 29.3004 28.029 29.6242 27.6339 29.6242C27.2387 29.6242 26.9178 29.3004 26.9178 28.9001C26.9178 28.4998 27.2387 28.1759 27.6339 28.1759C28.029 28.1759 28.35 28.4998 28.35 28.9001ZM28.35 30.6348C28.35 31.0351 28.029 31.359 27.6339 31.359C27.2387 31.359 26.9178 31.0351 26.9178 30.6348C26.9178 30.2345 27.2387 29.9106 27.6339 29.9106C28.029 29.9106 28.35 30.2345 28.35 30.6348ZM28.3515 32.3695C28.3515 32.7698 28.0305 33.0937 27.6354 33.0937C27.2403 33.0937 26.9193 32.7698 26.9193 32.3695C26.9193 31.9692 27.2403 31.6453 27.6354 31.6453C28.0305 31.6453 28.3515 31.9692 28.3515 32.3695ZM28.6897 34.0612C28.6897 34.4615 28.3687 34.7854 27.9736 34.7854C27.5784 34.7854 27.2575 34.4615 27.2575 34.0612C27.2575 33.6609 27.5784 33.337 27.9736 33.337C28.3687 33.337 28.6897 33.6609 28.6897 34.0612ZM29.6466 35.4899C29.6466 35.8902 29.3256 36.214 28.9305 36.214C28.5354 36.214 28.2144 35.8902 28.2144 35.4899C28.2144 35.0895 28.5354 34.7657 28.9305 34.7657C29.3256 34.7657 29.6466 35.0895 29.6466 35.4899ZM31.072 36.4381C31.072 36.8384 30.751 37.1622 30.3559 37.1622C29.9608 37.1622 29.6398 36.8384 29.6398 36.4381C29.6398 36.0377 29.9608 35.7139 30.3559 35.7139C30.751 35.7139 31.072 36.0377 31.072 36.4381ZM32.7477 36.7643C32.7477 37.1646 32.4267 37.4884 32.0315 37.4884C31.6364 37.4884 31.3154 37.1646 31.3154 36.7643C31.3154 36.3639 31.6364 36.0401 32.0315 36.0401C32.4267 36.0401 32.7477 36.3639 32.7477 36.7643ZM34.4205 36.4181C34.4205 36.8184 34.0995 37.1422 33.7044 37.1422C33.3093 37.1422 32.9883 36.8184 32.9883 36.4181C32.9883 36.0178 33.3093 35.6939 33.7044 35.6939C34.0995 35.6939 34.4205 36.0178 34.4205 36.4181ZM35.8289 35.4435C35.8289 35.8438 35.5079 36.1676 35.1128 36.1676C34.7177 36.1676 34.3967 35.8438 34.3967 35.4435C34.3967 35.0431 34.7177 34.7193 35.1128 34.7193C35.5079 34.7193 35.8289 35.0431 35.8289 35.4435ZM36.7612 33.9998C36.7612 34.4001 36.4402 34.7239 36.0451 34.7239C35.65 34.7239 35.329 34.4001 35.329 33.9998C35.329 33.5995 35.65 33.2756 36.0451 33.2756C36.4402 33.2756 36.7612 33.5995 36.7612 33.9998ZM37.0821 32.3052C37.0821 32.7055 36.7611 33.0294 36.366 33.0294C35.9709 33.0294 35.6499 32.7055 35.6499 32.3052C35.6499 31.9049 35.9709 31.581 36.366 31.581C36.7611 31.581 37.0821 31.9049 37.0821 32.3052ZM37.0821 30.5705C37.0821 30.9708 36.7611 31.2947 36.366 31.2947C35.9709 31.2947 35.6499 30.9708 35.6499 30.5705C35.6499 30.1702 35.9709 29.8463 36.366 29.8463C36.7611 29.8463 37.0821 30.1702 37.0821 30.5705ZM30.3303 28.9296C30.3303 29.3299 30.0093 29.6537 29.6142 29.6537C29.2191 29.6537 28.8981 29.3299 28.8981 28.9296C28.8981 28.5292 29.2191 28.2054 29.6142 28.2054C30.0093 28.2054 30.3303 28.5292 30.3303 28.9296ZM30.3303 30.7708C30.3303 31.1711 30.0093 31.4949 29.6142 31.4949C29.2191 31.4949 28.8981 31.1711 28.8981 30.7708C28.8981 30.3705 29.2191 30.0466 29.6142 30.0466C30.0093 30.0466 30.3303 30.3705 30.3303 30.7708ZM30.3514 32.6107C30.3514 33.011 30.0304 33.3348 29.6353 33.3348C29.2402 33.3348 28.9192 33.011 28.9192 32.6107C28.9192 32.2104 29.2402 31.8865 29.6353 31.8865C30.0304 31.8865 30.3514 32.2104 30.3514 32.6107ZM31.1136 34.2286C31.1136 34.6289 30.7926 34.9528 30.3975 34.9528C30.0024 34.9528 29.6814 34.6289 29.6814 34.2286C29.6814 33.8283 30.0024 33.5044 30.3975 33.5044C30.7926 33.5044 31.1136 33.8283 31.1136 34.2286ZM32.7736 34.8686C32.7736 35.269 32.4526 35.5928 32.0575 35.5928C31.6624 35.5928 31.3414 35.269 31.3414 34.8686C31.3414 34.4683 31.6624 34.1445 32.0575 34.1445C32.4526 34.1445 32.7736 34.4683 32.7736 34.8686ZM34.4152 34.1711C34.4152 34.5715 34.0942 34.8953 33.6991 34.8953C33.304 34.8953 32.983 34.5715 32.983 34.1711C32.983 33.7708 33.304 33.447 33.6991 33.447C34.0942 33.447 34.4152 33.7708 34.4152 34.1711ZM35.1162 32.5177C35.1162 32.918 34.7953 33.2418 34.4001 33.2418C34.005 33.2418 33.684 32.918 33.684 32.5177C33.684 32.1173 34.005 31.7935 34.4001 31.7935C34.7953 31.7935 35.1162 32.1173 35.1162 32.5177ZM35.1249 30.677C35.1249 31.0773 34.8039 31.4012 34.4088 31.4012C34.0137 31.4012 33.6927 31.0773 33.6927 30.677C33.6927 30.2767 34.0137 29.9528 34.4088 29.9528C34.8039 29.9528 35.1249 30.2767 35.1249 30.677ZM35.1249 28.8358C35.1249 29.2361 34.8039 29.56 34.4088 29.56C34.0137 29.56 33.6927 29.2361 33.6927 28.8358C33.6927 28.4355 34.0137 28.1116 34.4088 28.1116C34.8039 28.1116 35.1249 28.4355 35.1249 28.8358Z" fill="url(#paint0_linear_591_6765)" stroke="#E7E5E4" style="stroke:#E7E5E4;stroke:color(display-p3 0.9059 0.8980 0.8941);stroke-opacity:1;" stroke-width="0.0733333"/>
<defs>
<linearGradient id="paint0_linear_591_6765" x1="31.9999" y1="28.075" x2="31.9999" y2="37.5251" gradientUnits="userSpaceOnUse">
<stop stop-color="#D6D3D1" style="stop-color:#D6D3D1;stop-color:color(display-p3 0.8392 0.8275 0.8196);stop-opacity:1;"/>
<stop offset="1" stop-color="#A8A29E" style="stop-color:#A8A29E;stop-color:color(display-p3 0.6588 0.6353 0.6196);stop-opacity:1;"/>
</linearGradient>
<clipPath id="clip0_591_6765">
<rect width="16.7619" height="21.3333" fill="white" style="fill:white;fill-opacity:1;" transform="translate(11.2 9.33337)"/>
</clipPath>
</defs>
</svg>
