<svg width="24" height="24" viewBox="0 0 24 24" fill="none" xmlns="http://www.w3.org/2000/svg">
<path opacity="0.6" d="M11.8136 6.17638C11.8124 6.16662 11.8124 6.15674 11.8136 6.14698V6.13794L11.8203 6.1199L11.8281 6.11086C11.8312 6.10614 11.8345 6.1016 11.8382 6.09729L11.8483 6.08941C11.8521 6.08568 11.8562 6.08225 11.8605 6.0792L14.9518 4.33195C14.9688 4.32204 14.988 4.31684 15.0077 4.31684C15.0273 4.31684 15.0466 4.32204 15.0636 4.33195C15.0805 4.34181 15.0945 4.35594 15.1043 4.37298C15.1141 4.39002 15.1193 4.40936 15.1195 4.42907V7.85475L16.9563 8.89272V2.62645C16.9575 2.46769 16.9157 2.31162 16.8352 2.17521C16.7548 2.03881 16.6389 1.92728 16.5002 1.85275C16.3714 1.78056 16.2265 1.74268 16.0792 1.74268C15.932 1.74268 15.7871 1.78056 15.6584 1.85275L11.0321 4.46861C10.7095 4.65106 10.4408 4.91708 10.2538 5.23927C10.0667 5.56147 9.96795 5.9282 9.96777 6.30173V12.9656L11.8046 11.9264L11.8136 6.17638Z" fill="#00C6A8"/>
<path d="M20.2225 7.24175C20.24 7.25165 20.2544 7.26607 20.2645 7.28355C20.2745 7.30103 20.2797 7.32092 20.2795 7.34113C20.2795 7.36114 20.2742 7.38078 20.2642 7.39804C20.2542 7.41531 20.2398 7.4296 20.2225 7.4394L17.3057 9.08843L19.1381 10.123L22.7 8.10914C22.8362 8.03377 22.9496 7.92261 23.0284 7.7874C23.1071 7.65219 23.1481 7.49799 23.1472 7.34113C23.1483 7.18407 23.1074 7.02962 23.0286 6.89419C22.9499 6.75877 22.8363 6.64742 22.7 6.57195L18.0927 3.9674C17.8156 3.81058 17.5066 3.72018 17.1895 3.70312V5.5272L20.2225 7.24175Z" fill="#00C6A8"/>
<path d="M6.88501 13.7472V14.7196L9.75263 13.0988V6.30846C9.75251 5.89438 9.86164 5.48774 10.0688 5.13041C10.2759 4.77308 10.5735 4.47795 10.931 4.27542L15.5572 1.66072C15.6755 1.59377 15.8052 1.54973 15.9395 1.53085L13.4308 0.112233C13.4058 0.0977111 13.38 0.0845051 13.3537 0.0726904C13.2302 0.0171118 13.0956 -0.00837722 12.9606 -0.00170651C12.8256 0.00496421 12.6942 0.0436452 12.5767 0.11113L7.95042 2.72583C7.62758 2.90841 7.3587 3.17455 7.17144 3.49693C6.98418 3.81931 6.88533 4.18626 6.88501 4.56005V13.7449V13.7472Z" fill="#00C6A8"/>
<path d="M14.9632 8.0219L12.0386 6.36951V9.60205L18.0757 13.0153C18.4332 13.2178 18.7308 13.5129 18.9379 13.8702C19.145 14.2276 19.2542 14.6342 19.254 15.0483V20.2088C19.2539 20.3607 19.2231 20.511 19.1635 20.6505L21.6857 19.224C21.8186 19.1473 21.929 19.0363 22.0054 18.9023C22.0819 18.7683 22.1216 18.6162 22.1205 18.4616V13.301C22.1206 12.9276 22.0221 12.5608 21.8352 12.2386C21.6484 11.9164 21.3798 11.6504 21.0573 11.4679L19.0864 10.3542L14.9632 8.0219Z" fill="#00C6A8"/>
<path opacity="0.6" d="M17.1315 14.8142C17.1355 14.8169 17.1392 14.8199 17.1427 14.8232C17.1494 14.8275 17.1555 14.8328 17.1606 14.839L17.1718 14.856C17.176 14.8619 17.1794 14.8683 17.1818 14.8752C17.1824 14.8831 17.1824 14.891 17.1818 14.8989C17.1823 14.9034 17.1823 14.9079 17.1818 14.9124V18.407C17.1817 18.4267 17.1765 18.446 17.1667 18.4631C17.1569 18.4801 17.1428 18.4943 17.1259 18.5041C17.1092 18.5148 17.0898 18.5203 17.07 18.5199C17.0508 18.5199 17.032 18.5148 17.0153 18.5052L13.9788 16.7896L12.1476 17.8242L17.7207 20.9754C17.853 21.0514 18.0029 21.0906 18.1551 21.089C18.3074 21.0874 18.4564 21.0451 18.5872 20.9663C18.7192 20.8895 18.8286 20.7787 18.9044 20.6451C18.9802 20.5116 19.0197 20.3601 19.0187 20.2062V15.0457C19.0185 14.6721 18.9198 14.3054 18.7328 13.9832C18.5457 13.661 18.277 13.395 17.9544 13.2126L12.0291 9.86029V11.934L17.1315 14.8142Z" fill="#00C6A8"/>
<path opacity="0.6" d="M3.00024 4.75361C2.87105 4.67981 2.72488 4.64183 2.57647 4.64342C2.42806 4.64501 2.28272 4.68611 2.15509 4.76265C2.02696 4.83779 1.92072 4.94579 1.8471 5.07568C1.77349 5.20558 1.73511 5.35281 1.73585 5.50249V10.698C1.7362 11.0362 1.81709 11.3694 1.97173 11.6693L3.57266 10.7657V7.33787C3.57247 7.31807 3.57746 7.29858 3.58708 7.28134C3.59669 7.26409 3.61062 7.24968 3.62747 7.23959C3.64447 7.22968 3.66375 7.22448 3.68337 7.22448C3.703 7.22448 3.72227 7.22968 3.73927 7.23959L6.66279 8.89314V6.82282L3.00024 4.75361Z" fill="#00C6A8"/>
<path d="M6.92714 3.48062L6.0898 3.00738C5.95954 2.93271 5.8119 2.89451 5.66215 2.8967C5.5124 2.89888 5.36595 2.94135 5.23788 3.01979L2.74365 4.42936C2.87255 4.44838 2.99684 4.49127 3.11033 4.55587L6.6644 6.56404V4.5615C6.66413 4.18503 6.7543 3.81414 6.92714 3.48062Z" fill="#00C6A8"/>
<path opacity="0.6" d="M22.8167 8.30539L19.3733 10.2515L21.1687 11.268C21.4914 11.4509 21.7656 11.7097 21.9681 12.0225L22.7071 11.6046C22.8433 11.5292 22.9567 11.418 23.0355 11.2828C23.1142 11.1476 23.1552 10.9934 23.1543 10.8365V8.01288C23.0623 8.13225 22.9475 8.23171 22.8167 8.30539Z" fill="#00C6A8"/>
<path opacity="0.6" d="M9.97755 23.1188C9.97676 23.2724 10.0162 23.4236 10.0918 23.5568C10.1673 23.6901 10.2764 23.8009 10.408 23.8779C10.5389 23.9566 10.6882 23.9989 10.8405 24.0005C10.9929 24.0021 11.143 23.9629 11.2755 23.8869L13.9319 22.3847L15.9018 21.2722C16.1883 21.1096 16.4327 20.8809 16.615 20.6047L15.0174 19.7011L11.981 21.4179H11.9732C11.9732 21.4179 11.9676 21.4179 11.9642 21.4179C11.9523 21.4233 11.9393 21.426 11.9262 21.4258C11.9128 21.4259 11.8994 21.4232 11.8871 21.4179H11.8781C11.8571 21.4084 11.8397 21.3922 11.8289 21.3716C11.8289 21.3716 11.8289 21.3716 11.8289 21.3659C11.826 21.359 11.8238 21.3518 11.8222 21.3445C11.8212 21.3373 11.8212 21.3301 11.8222 21.323C11.8222 21.323 11.8222 21.323 11.8222 21.3162V18.0193L9.98541 19.0573L9.97755 23.1188Z" fill="#00C6A8"/>
<path d="M1.1529 13.9339L5.76011 16.5385C6.07095 16.7124 6.42046 16.8036 6.77579 16.8036C7.13113 16.8036 7.48064 16.7124 7.79148 16.5385L13.7604 13.1625L11.9292 12.1268L6.83448 15.0069C6.82932 15.0101 6.82365 15.0124 6.81772 15.0137H6.80877C6.79911 15.0148 6.78938 15.0148 6.77973 15.0137C6.77044 15.0148 6.76106 15.0148 6.75178 15.0137H6.74058C6.73545 15.0121 6.73058 15.0098 6.72606 15.0069L3.63709 13.2596C3.61982 13.2498 3.6054 13.2356 3.59538 13.2183C3.58536 13.201 3.58008 13.1814 3.58004 13.1614C3.58008 13.1414 3.58536 13.1217 3.59538 13.1044C3.6054 13.0871 3.61982 13.0729 3.63709 13.0631L6.67017 11.3486V9.27713L3.74774 10.9295L1.16295 12.3899C1.02677 12.4656 0.91336 12.577 0.834649 12.7123C0.755937 12.8477 0.714842 13.0021 0.715754 13.1591C0.712596 13.3161 0.751572 13.471 0.828535 13.6074C0.905497 13.7438 1.01759 13.8567 1.1529 13.9339Z" fill="#00C6A8"/>
<path opacity="0.6" d="M11.8704 17.7266L16.8487 14.912L13.9867 13.2946L7.89929 16.7349C7.55557 16.9289 7.16829 17.0304 6.77459 17.0297C6.38091 17.0302 5.99367 16.9287 5.6499 16.7349L1.04269 14.1303C0.91208 14.0568 0.797901 13.9569 0.70729 13.8367V16.6604C0.706378 16.8174 0.747419 16.9717 0.826131 17.1071C0.904842 17.2425 1.0183 17.3539 1.15448 17.4295L5.76169 20.0341C6.07254 20.208 6.42204 20.2993 6.77738 20.2993C7.13272 20.2993 7.48222 20.208 7.79306 20.0341L11.8715 17.7277L11.8704 17.7266Z" fill="#00C6A8"/>
<path d="M9.75263 19.1802L7.89791 20.2283C7.58723 20.4035 7.24045 20.5033 6.88501 20.5197V21.3691C6.88516 21.5259 6.92667 21.6798 7.00527 21.815C7.08387 21.9501 7.19673 22.0617 7.3322 22.1382L9.84434 23.558C9.7848 23.4189 9.75398 23.269 9.75378 23.1175L9.75263 19.1802Z" fill="#00C6A8"/>
</svg>
