<!--?xml version="1.0" encoding="UTF-8"?--><svg id="Layer_1" xmlns="http://www.w3.org/2000/svg" xmlns:xlink="http://www.w3.org/1999/xlink" viewBox="0 0 1998 1998"><defs><style>.cls-1{fill:url(#linear-gradient);}.cls-1,.cls-2,.cls-3,.cls-4{stroke-width:0px;}.cls-2{fill:#000;}.cls-3{fill:url(#linear-gradient-2);}.cls-4{fill:#fff;}</style><linearGradient id="linear-gradient" x1="998.94" y1="1324.78" x2="998.94" y2="604.78" gradientUnits="userSpaceOnUse"><stop offset="0" stop-color="#282c34"></stop><stop offset="1" stop-color="#50555e"></stop></linearGradient><linearGradient id="linear-gradient-2" x1="1234.44" y1="1590.56" x2="779.61" y2="340.9" gradientUnits="userSpaceOnUse"><stop offset="0" stop-color="#ffbd38"></stop><stop offset=".29" stop-color="#fdc538"></stop><stop offset=".76" stop-color="#fade3a"></stop><stop offset="1" stop-color="#f8ed3c"></stop></linearGradient></defs><rect class="cls-4" x="-.53" y="0" width="1998.94" height="1998"></rect><rect class="cls-1" x="638.94" y="604.78" width="720" height="720"></rect><path class="cls-3" d="M1628.46,588.42c0-65.19-44.99-121.76-108.51-136.43l-489.74-113.12c-20.74-4.79-42.29-4.79-63.02,0l-489.74,113.12c-63.52,14.67-108.51,71.24-108.51,136.43v708.92c0,54.5,31.62,104.05,81.06,127l473.07,223.68c47.88,22.64,103.39,22.64,151.27,0l473.07-223.68c49.43-22.95,81.06-72.5,81.06-127v-708.92ZM1348.57,1136.37c0,2.37-.94,4.64-2.62,6.32l-169.7,169.7c-1.68,1.68-3.95,2.62-6.32,2.62h-512.17c-4.93,0-8.93-4-8.93-8.93v-681.87c0-4.93,4-8.93,8.93-8.93h157.07c4.93,0,8.93,4,8.93,8.93v506.93c0,4.93,4,8.93,8.93,8.93h69.6c4.93,0,8.93-4,8.93-8.93v-506.93c0-4.93,4-8.93,8.93-8.93h157.07c4.93,0,8.93,4,8.93,8.93v506.93c0,4.93,4,8.93,8.93,8.93h69.6c4.93,0,8.93-4,8.93-8.93v-506.93c0-4.93,4-8.93,8.93-8.93h157.07c4.93,0,8.93,4,8.93,8.93v512.17Z"></path><path class="cls-2" d="M920.17,625.54h157.07c4.93,0,8.93,4,8.93,8.93v-10.27c0-4.93-4-8.93-8.93-8.93h-157.07c-4.93,0-8.93,4-8.93,8.93v10.27c0-4.93,4-8.93,8.93-8.93Z"></path><path class="cls-2" d="M1086.17,1141.4c0,4.93,4,8.93,8.93,8.93h69.6c4.93,0,8.93-4,8.93-8.93v-10.27c0,4.93-4,8.93-8.93,8.93h-69.6c-4.93,0-8.93-4-8.93-8.93v10.27Z"></path><path class="cls-2" d="M823.77,1141.4c0,4.93,4,8.93,8.93,8.93h69.6c4.93,0,8.93-4,8.93-8.93v-10.27c0,4.93-4,8.93-8.93,8.93h-69.6c-4.93,0-8.93-4-8.93-8.93v10.27Z"></path><path class="cls-2" d="M657.77,625.54h157.07c4.93,0,8.93,4,8.93,8.93v-10.27c0-4.93-4-8.93-8.93-8.93h-157.07c-4.93,0-8.93,4-8.93,8.93v10.27c0-4.93,4-8.93,8.93-8.93Z"></path><path class="cls-2" d="M1339.64,615.27h-157.07c-4.93,0-8.93,4-8.93,8.93v10.27c0-4.93,4-8.93,8.93-8.93h157.07c4.93,0,8.93,4,8.93,8.93v-10.27c0-4.93-4-8.93-8.93-8.93Z"></path></svg>