<svg fill="none" height="80" viewBox="0 0 80 80" width="80" xmlns="http://www.w3.org/2000/svg" xmlns:xlink="http://www.w3.org/1999/xlink"><clipPath id="a"><path d="m0 0h80v80h-80z"/></clipPath><g clip-path="url(#a)"><circle cx="40" cy="40" fill="#fff" r="40"/><g fill="#5a5564"><path d="m65.2318 16.7895-2.1966 2.1966c5.2414 5.7319 8.148 13.2178 8.148 20.9848 0 7.7671-2.9066 15.253-8.148 20.9848l2.1966 2.1966c5.829-6.3226 9.0652-14.6074 9.0652-23.207s-3.2362-16.8843-9.0652-23.207z"/><path d="m19.0369 16.9796c5.7319-5.2414 13.2178-8.14806 20.9848-8.14806 7.7671 0 15.2529 2.90666 20.9848 8.14806l2.1966-2.1966c-6.3227-5.82901-14.6074-9.06523-23.207-9.06523s-16.8844 3.23622-23.207 9.06523z"/><path d="m16.9806 60.9773c-5.2352-5.7306-8.13805-13.212-8.13805-20.9739s2.90285-15.2432 8.13805-20.9738l-2.1966-2.1966c-5.82903 6.3227-9.06525 14.6074-9.06525 23.207 0 8.5997 3.23622 16.8844 9.06525 23.2071z"/><path d="m60.9768 63.0059c-5.7319 5.2414-13.2178 8.1481-20.9849 8.1481-7.767 0-15.2529-2.9067-20.9848-8.1481l-2.1966 2.1966c6.3227 5.829 14.6074 9.0652 23.2071 9.0652 8.5996 0 16.8843-3.2362 23.207-9.0652z"/></g><path d="m53.8684 32.6709c-.4393-4.5836-4.3932-6.1212-9.3941-6.5898v-6.3116h-3.866v6.1944c-1.0178 0-2.0575 0-3.0899 0v-6.1944h-3.8367v6.3555h-7.8419v4.1369s2.8556-.0512 2.8117 0c.5149-.0566 1.0316.0888 1.4414.4057.4097.3169.6805.7805.7552 1.293v17.3971c-.011.1807-.0582.3575-.1386.5197-.0805.1622-.1927.3067-.33.4248-.1347.1204-.2924.2123-.4635.2701-.1711.0579-.3522.0806-.5323.0667.0512.044-2.8117 0-2.8117 0l-.7322 4.6202h7.7687v6.458h3.866v-6.3628h3.0899v6.3335h3.8733v-6.3848c6.5312-.3954 11.0855-2.0062 11.6566-8.1201.4613-4.9203-1.8525-7.1169-5.5501-8.0029 2.2479-1.1056 3.639-3.1558 3.3242-6.5092zm-5.4183 13.7507c0 4.8032-8.2299 4.254-10.8511 4.254v-8.5228c2.6212.0074 10.8511-.7468 10.8511 4.2688zm-1.7939-12.0081c0 4.3932-6.868 3.8587-9.0499 3.8587v-7.7467c2.1819 0 9.0499-.6882 9.0499 3.888z" fill="#f09242"/><path d="m39.9927 80c-7.9106-.0014-15.6432-2.3484-22.2201-6.7442-6.5768-4.3959-11.70257-10.6431-14.72916-17.9518-3.0266021-7.3088-3.818118-15.3508-2.274476-23.1094 1.543646-7.7585 5.353126-14.8852 10.946736-20.4789 5.5937-5.59361 12.7204-9.40309 20.4789-10.946736 7.7586-1.543642 15.8006-.7521261 23.1094 2.274476 7.3087 3.02659 13.5559 8.15236 17.9518 14.72916 4.3958 6.5769 6.7428 14.3095 6.7442 22.2201.001 5.2541-1.0332 10.4569-3.0434 15.3113-2.0102 4.8543-4.9571 9.2651-8.6723 12.9803s-8.126 6.6621-12.9803 8.6723c-4.8544 2.0102-10.0572 3.0444-15.3113 3.0434zm0-76.88082c-7.2881.00579-14.4109 2.17208-20.4682 6.22506-6.0572 4.05296-10.77697 9.81066-13.56267 16.54546-2.7857 6.7347-3.5123 14.1441-2.08798 21.2917 1.42433 7.1476 4.93565 13.7125 10.09015 18.865 5.1545 5.1524 11.7208 8.6611 18.869 10.0826 7.1481 1.4215 14.5572.692 21.2909-2.0964 6.7336-2.7884 12.4895-7.5104 16.54-13.5693 4.0506-6.0588 6.2141-13.1825 6.217-20.4706.0019-4.8441-.9511-9.641-2.8044-14.1166-1.8533-4.4755-4.5706-8.5418-7.9965-11.9664-3.426-3.4246-7.4934-6.14029-11.9696-7.99181-4.4763-1.85153-9.2736-2.80256-14.1177-2.79871z" fill="#282138"/></g></svg>