<svg fill="none" height="80" width="80" xmlns="http://www.w3.org/2000/svg"><clipPath id="a"><path d="M0 0h80v80H0z"/></clipPath><g clip-path="url(#a)"><circle cx="40" cy="40" fill="#fff" r="40"/><path d="M65.232 16.79l-2.197 2.196a31.097 31.097 0 0 1 0 41.97l2.197 2.196a34.238 34.238 0 0 0 0-46.414zm-46.195.19a31.097 31.097 0 0 1 41.97 0l2.196-2.197a34.238 34.238 0 0 0-46.414 0zM16.98 60.977a31.097 31.097 0 0 1 0-41.947l-2.197-2.197a34.238 34.238 0 0 0 0 46.414zm43.996 2.029a31.097 31.097 0 0 1-41.97 0l-2.197 2.196a34.238 34.238 0 0 0 46.415 0z" fill="#5a5564"/><path d="M53.868 32.67c-.439-4.583-4.393-6.12-9.394-6.589V19.77h-3.866v6.194h-3.09V19.77h-3.836v6.355H25.84v4.137s2.855-.051 2.812 0a1.999 1.999 0 0 1 2.196 1.699v17.397a1.356 1.356 0 0 1-.468.944 1.338 1.338 0 0 1-.996.337c.05.044-2.812 0-2.812 0l-.732 4.62h7.769v6.458h3.866v-6.363h3.09v6.334h3.873v-6.385c6.53-.395 11.085-2.006 11.656-8.12.462-4.92-1.852-7.117-5.55-8.003 2.248-1.106 3.64-3.156 3.324-6.51zM48.45 46.423c0 4.803-8.23 4.254-10.851 4.254v-8.523c2.621.007 10.851-.747 10.851 4.269zm-1.794-12.008c0 4.393-6.868 3.858-9.05 3.858v-7.746c2.182 0 9.05-.689 9.05 3.888z" fill="#f09242"/><path d="M39.993 80a40 40 0 1 1 .014-80 40 40 0 0 1-.014 80zm0-76.88a36.86 36.86 0 1 0 .058 73.717 36.86 36.86 0 0 0-.058-73.718z" fill="#282138"/></g></svg>