<svg fill="none" height="52" viewBox="0 0 52 52" width="52" xmlns="http://www.w3.org/2000/svg" xmlns:xlink="http://www.w3.org/1999/xlink"><linearGradient id="a" gradientUnits="userSpaceOnUse" x1="3.55651" x2="48.0024" y1="33.6872" y2="17.5077"><stop offset="0" stop-color="#29bcfa"/><stop offset=".43" stop-color="#6464e4"/><stop offset="1" stop-color="#b45afa"/></linearGradient><path d="m51.3038 28.834-1.9413-7.5674c-.0556-.2225-.2349-.3956-.4575-.4513l-7.4993-1.8486c-.0557-.0123-.1175-.0185-.1732-.0185-.1792-.0185-.3647.0371-.5007.1731l-12.6556 12.6556-1.6754-6.5411c-.0557-.2226-.235-.3957-.4575-.4513l-6.4422-1.5889 12.6494-12.6494c.0742-.0742.1175-.1669.1484-.2597.0556-.1236.0742-.2658.0371-.40182l-1.9413-7.56737c-.0557-.22257-.235-.39568-.4575-.45132l-7.4994-1.8485611c-.1484-.0370949-.2968-.01236499-.4266.0494599h-.0062c-.0371.0185474-.068.0432782-.1051.0680072-.0309.02473-.0742.037095-.0989.068008l-21.58921 21.576896s-.037094.0618-.061823.0927c-.136015.1608-.1854753.371-.1236505.575l2.0958635 7.3139c.06182.2102.22257.3709.42659.4266l7.0233 2.0154 2.01553 7.0172c.0618.2102.2225.3709.4265.4266l7.0481 2.0216 2.0216 7.0481c.0619.2102.2226.3709.4266.4266l7.3448 2.1082c.0557.0185.1175.0247.1731.0247.0124 0 .0248-.0062.0433-.0062h.0124c.1607 0 .3215-.0618.4451-.1854l21.5954-21.5955c.0742-.0742.1175-.1669.1484-.2596.0556-.1237.0742-.2659.0371-.4019zm-9.6818 8.3896-1.5765-6.1515 3.4931-3.487 6.0032 1.7249-7.9136 7.9198zm-12.2474 12.2475-1.5766-6.1515 6.3185-6.3185 6.0032 1.7249zm4.8717-14.3681-1.5085-5.2551 5.4221 1.3354-3.9136 3.9136zm4.7729-3.0047 1.3849 5.3974-5.2737-1.5148 3.8888-3.8887zm.1793-1.9474-6.1454-1.5147 7.8951-7.8951 1.7063 5.9538zm-7.6724.0061 1.7063 5.9538-6.2876 6.2876-6.1453-1.5147zm16.7174-8.2288 1.5765 6.1515-5.9599-1.7125-1.7064-5.9414zm-28.3714 18.0404-1.5766-6.1515 2.2752-2.2752 6.0032 1.7249zm.8284-10.3247-1.5085-5.2551 5.422 1.3354-3.9135 3.9135zm6.1578 2.3988-5.2737-1.5147 3.8888-3.8888 1.3849 5.3973zm-7.1655-1.3849-2.2443 2.2443-6.1453-1.5147 6.6832-6.6833zm-7.0728-19.5181 1.7064 5.9538-6.34323 6.3432-6.14539-1.5147zm9.3665-9.36645 1.7064 5.95374-3.4004 3.40041-6.1454-1.51475zm.7295 16.42685-1.5765-6.1454 3.4374-3.43743 6.0032 1.71873zm-7.3757-2.1144-1.5085-5.2551 5.422 1.3354-3.9135 3.9135zm4.7729-3.0047 1.3849 5.3973-5.2675-1.5147 3.8888-3.8888zm-4.8965 4.8965 6.0032 1.7188-10.8008 10.8008-1.57657-6.1454zm14.0651-15.00484 1.5765 6.15157-5.9599-1.71255-1.7063-5.94137zm-27.75314 20.16724 5.42204 1.3354-3.91351 3.9136-1.50853-5.2552zm2.39262 6.1392 3.88878-3.8888 1.38487 5.3974-5.26747-1.5147zm8.77292 9.2676-1.7063-5.9414 6.0897 1.5024 1.5765 6.1515zm7.7961 3.5549 5.4221 1.3354-3.9135 3.9135-1.5086-5.2551zm2.3926 6.1392 3.8888-3.8888 1.3849 5.3973-5.2737-1.5147z" fill="url(#a)"/></svg>