<svg width="14211" height="3000" viewBox="0 0 14211 3000" fill="none" xmlns="http://www.w3.org/2000/svg">
<rect width="3000" height="3000" fill="black"></rect>
<path d="M309.974 1423.95C309.974 1494.91 252.448 1552.44 181.487 1552.44C110.526 1552.44 53 1494.91 53 1423.95C53 1352.99 110.526 1295.46 181.487 1295.46C252.448 1295.46 309.974 1352.99 309.974 1423.95Z" fill="white"></path>
<path fill-rule="evenodd" clip-rule="evenodd" d="M2403.47 2130.91H2151.84L2249.18 1471.82H2075.26L2104.86 1273.85H2278.78C2321.33 998.167 2465.65 852 2685.83 852C2745.03 852 2811.64 864.952 2889.35 889.004L2861.6 1096.23C2809.79 1079.58 2763.54 1068.47 2717.28 1068.47C2613.67 1068.47 2554.46 1135.08 2530.41 1273.85H2696.13H2709.88H2947.76L2820.1 2130.5H2568.47L2666.63 1471.82H2500.81L2403.47 2130.91ZM1729.66 1431.12C1648.25 1431.12 1590.89 1482.92 1561.29 1584.68H1851.77V1568.03C1851.77 1477.37 1809.22 1431.12 1729.66 1431.12ZM2047.89 1854.81L2001.64 2078.69C1909.13 2124.95 1798.12 2149 1683.4 2149C1426.22 2149 1265.25 1989.88 1265.25 1732.7C1265.25 1453.32 1450.27 1257.2 1738.91 1257.2C1968.33 1257.2 2099.7 1394.11 2099.7 1638.34C2099.7 1667.94 2097.85 1699.4 2094.15 1732.7H1526.13C1526.13 1737.58 1525.62 1742.47 1525.13 1747.08C1524.7 1751.2 1524.28 1755.11 1524.28 1758.6C1524.28 1880.72 1598.29 1947.33 1737.06 1947.33C1820.32 1947.33 1922.08 1914.02 2047.89 1854.81ZM383.931 2130.5H222.963L101.197 1613.27C125.863 1623.74 152.997 1629.54 181.485 1629.54C237.393 1629.54 288.089 1607.22 325.149 1571.01L363.579 1756.75L628.159 1273.85H781.727L866.837 1743.8L1129.57 1273.85H1386.75L894.59 2130.5H728.071L635.56 1680.89L383.931 2130.5Z" fill="white"></path>
<rect x="3737" width="3000" height="3000" fill="white"></rect>
<path d="M4004.07 1420.58C4004.07 1494.1 3944.47 1553.7 3870.95 1553.7C3797.43 1553.7 3737.83 1494.1 3737.83 1420.58C3737.83 1347.06 3797.43 1287.46 3870.95 1287.46C3944.47 1287.46 4004.07 1347.06 4004.07 1420.58Z" fill="black"></path>
<path fill-rule="evenodd" clip-rule="evenodd" d="M6173.07 2153.04H5912.37L6013.22 1470.18H5833.02L5863.7 1265.06H6043.89C6087.98 979.439 6237.5 828 6465.62 828C6526.96 828 6595.97 841.419 6676.48 866.339L6647.73 1081.04C6594.05 1063.78 6546.13 1052.28 6498.21 1052.28C6390.86 1052.28 6329.51 1121.29 6304.59 1265.06H6476.29H6490.54H6737L6604.73 2152.61H6344.03L6445.73 1470.18H6273.92L6173.07 2153.04ZM5474.96 1428C5390.61 1428 5331.19 1481.68 5300.52 1587.11H5601.48V1569.86C5601.48 1475.93 5557.39 1428 5474.96 1428ZM5804.67 1866.99L5756.75 2098.94C5660.9 2146.86 5545.89 2171.78 5427.04 2171.78C5160.58 2171.78 4993.81 2006.92 4993.81 1740.47C4993.81 1451.01 5185.5 1247.81 5484.54 1247.81C5722.25 1247.81 5858.35 1389.67 5858.35 1642.7C5858.35 1673.37 5856.43 1705.96 5852.6 1740.47H5264.1C5264.1 1745.53 5263.56 1750.58 5263.06 1755.36C5262.61 1759.63 5262.18 1763.68 5262.18 1767.3C5262.18 1893.82 5338.86 1962.83 5482.63 1962.83C5568.89 1962.83 5674.32 1928.33 5804.67 1866.99ZM4080.69 2152.61H3913.92L3787.76 1616.73C3813.32 1627.58 3841.43 1633.58 3870.95 1633.58C3928.87 1633.58 3981.39 1610.46 4019.79 1572.94L4059.61 1765.39L4333.73 1265.06H4492.84L4581.02 1751.97L4853.22 1265.06H5119.68L4609.77 2152.61H4437.25L4341.4 1686.79L4080.69 2152.61Z" fill="black"></path>
<rect x="7474" width="3000" height="3000" fill="#1B3CF7"></rect>
<path d="M7812.63 1424.85C7812.63 1494.06 7756.53 1550.16 7687.32 1550.16C7618.11 1550.16 7562 1494.06 7562 1424.85C7562 1355.63 7618.11 1299.53 7687.32 1299.53C7756.53 1299.53 7812.63 1355.63 7812.63 1424.85Z" fill="#37FDBD"></path>
<path fill-rule="evenodd" clip-rule="evenodd" d="M9854.48 2114.36H9609.06L9704 1471.53H9534.37L9563.24 1278.44H9732.87C9774.37 1009.56 9915.13 867 10129.9 867C10187.6 867 10252.6 879.632 10328.4 903.091L10301.3 1105.2C10250.8 1088.96 10205.7 1078.13 10160.6 1078.13C10059.5 1078.13 10001.8 1143.1 9978.29 1278.44H10139.9H10153.3H10385.3L10260.8 2113.96H10015.4L10111.2 1471.53H9949.42L9854.48 2114.36ZM9197.29 1431.83C9117.89 1431.83 9061.95 1482.36 9033.08 1581.61H9316.4V1565.37C9316.4 1476.94 9274.89 1431.83 9197.29 1431.83ZM9507.68 1845.08L9462.57 2063.43C9372.34 2108.54 9264.06 2132 9152.18 2132C8901.34 2132 8744.35 1976.81 8744.35 1725.97C8744.35 1453.48 8924.8 1262.2 9206.32 1262.2C9430.08 1262.2 9558.21 1395.74 9558.21 1633.94C9558.21 1662.81 9556.4 1693.49 9552.79 1725.97H8998.79C8998.79 1730.74 8998.29 1735.5 8997.81 1739.99C8997.39 1744.02 8996.99 1747.83 8996.99 1751.24C8996.99 1870.34 9069.17 1935.3 9204.51 1935.3C9285.72 1935.3 9384.97 1902.82 9507.68 1845.08ZM7884.77 2113.96H7727.77L7609.01 1609.49C7633.07 1619.7 7659.53 1625.36 7687.32 1625.36C7741.84 1625.36 7791.29 1603.59 7827.44 1568.27L7864.92 1749.43L8122.97 1278.44H8272.75L8355.76 1736.8L8612.01 1278.44H8862.84L8382.83 2113.96H8220.42L8130.19 1675.45L7884.77 2113.96Z" fill="#37FDBD"></path>
<rect x="11211" width="3000" height="3000" fill="#37FDBD"></rect>
<path d="M11549.6 1424.85C11549.6 1494.06 11493.5 1550.16 11424.3 1550.16C11355.1 1550.16 11299 1494.06 11299 1424.85C11299 1355.63 11355.1 1299.53 11424.3 1299.53C11493.5 1299.53 11549.6 1355.63 11549.6 1424.85Z" fill="#1B3CF7"></path>
<path fill-rule="evenodd" clip-rule="evenodd" d="M13591.5 2114.36H13346.1L13441 1471.53H13271.4L13300.2 1278.44H13469.9C13511.4 1009.56 13652.1 867 13866.9 867C13924.6 867 13989.6 879.632 14065.4 903.091L14038.3 1105.2C13987.8 1088.96 13942.7 1078.13 13897.6 1078.13C13796.5 1078.13 13738.8 1143.1 13715.3 1278.44H13876.9H13890.3H14122.3L13997.8 2113.96H13752.4L13848.2 1471.53H13686.4L13591.5 2114.36ZM12934.3 1431.83C12854.9 1431.83 12799 1482.36 12770.1 1581.61H13053.4V1565.37C13053.4 1476.94 13011.9 1431.83 12934.3 1431.83ZM13244.7 1845.08L13199.6 2063.43C13109.3 2108.54 13001.1 2132 12889.2 2132C12638.3 2132 12481.3 1976.81 12481.3 1725.97C12481.3 1453.48 12661.8 1262.2 12943.3 1262.2C13167.1 1262.2 13295.2 1395.74 13295.2 1633.94C13295.2 1662.81 13293.4 1693.49 13289.8 1725.97H12735.8C12735.8 1730.74 12735.3 1735.5 12734.8 1739.99C12734.4 1744.02 12734 1747.83 12734 1751.24C12734 1870.34 12806.2 1935.3 12941.5 1935.3C13022.7 1935.3 13122 1902.82 13244.7 1845.08ZM11621.8 2113.96H11464.8L11346 1609.49C11370.1 1619.7 11396.5 1625.36 11424.3 1625.36C11478.8 1625.36 11528.3 1603.59 11564.4 1568.27L11601.9 1749.43L11860 1278.44H12009.7L12092.8 1736.8L12349 1278.44H12599.8L12119.8 2113.96H11957.4L11867.2 1675.45L11621.8 2113.96Z" fill="#1B3CF7"></path>
</svg>
