<svg xmlns="http://www.w3.org/2000/svg" xml:space="preserve" width="297mm" height="210mm" style="shape-rendering:geometricPrecision; text-rendering:geometricPrecision; image-rendering:optimizeQuality; fill-rule:evenodd; clip-rule:evenodd"
viewBox="0 0 297 210"
 xmlns:xlink="http://www.w3.org/1999/xlink">
 <defs>
  <style type="text/css">
   <![CDATA[
    .fil0 {fill:#1B3CF7}
    .fil1 {fill:#37FDBD}
   ]]>
  </style>
 </defs>
 <g id="Layer_x0020_1">
  <metadata id="CorelCorpID_0Corel-Layer"/>
  <g id="_252009936">
   <rect id="_252010104" class="fil0" x="131.331" y="87.831" width="34.338" height="34.338" rx="17.169" ry="17.169"/>
   <g>
    <path id="_252009576" class="fil1" d="M143.707 101.388c0,0.9213 -0.7468,1.6682 -1.6681,1.6682 -0.9213,-0.0001 -1.6682,-0.7468 -1.6682,-1.6682 0,-0.9214 0.7469,-1.6682 1.6682,-1.6682 0.9214,0 1.6681,0.7468 1.6681,1.6682z"/>
    <path id="_252009528" class="fil1" d="M144.668 110.561l-2.0899 0 -1.581 -6.7155c0.3203,0.136 0.6725,0.2113 1.0424,0.2113 0.7258,0 1.3841,-0.2898 1.8653,-0.76l0.4989 2.4116 3.4352 -6.2698 1.9938 0 1.1051 6.1017 3.4111 -6.1017 3.339 0 -6.3898 11.1224 -2.162 0 -1.2011 -5.8374 -3.267 5.8374z"/>
   </g>
  </g>
 </g>
</svg>
