<svg xmlns="http://www.w3.org/2000/svg" xml:space="preserve" width="42.3332mm" height="42.3332mm" style="shape-rendering:geometricPrecision; text-rendering:geometricPrecision; image-rendering:optimizeQuality; fill-rule:evenodd; clip-rule:evenodd"
viewBox="0 0 42.3332 42.3332"
 xmlns:xlink="http://www.w3.org/1999/xlink">
 <defs>
  <style type="text/css">
   <![CDATA[
    .fil0 {fill:#1B3CF7}
    .fil1 {fill:#37FDBD}
   ]]>
  </style>
 </defs>
 <g id="Layer_x0020_1">
  <metadata id="CorelCorpID_0Corel-Layer"/>
  <g id="_478990952">
   <rect id="_478991048" class="fil0" x="1.16662e-005" y="1.16662e-005" width="42.3332" height="42.3332" rx="21.1666" ry="21.1666"/>
   <g>
    <path id="_478990568" class="fil1" d="M15.2579 16.7134c0,1.1358 -0.9207,2.0565 -2.0565,2.0565 -1.1358,0 -2.0567,-0.9207 -2.0567,-2.0565 0,-1.136 0.9209,-2.0567 2.0567,-2.0567 1.1359,0 2.0565,0.9207 2.0565,2.0567z"/>
    <path id="_478990832" class="fil1" d="M16.4419 28.0227l-2.5766 0 -1.949 -8.2791c0.3948,0.1675 0.829,0.2604 1.2851,0.2604 0.8948,0 1.7063,-0.3572 2.2996,-0.9369l0.6151 2.9731 4.2349 -7.7296 2.4581 0 1.3624 7.5223 4.2054 -7.5223 4.1164 0 -7.8775 13.7121 -2.6655 0 -1.4808 -7.1966 -4.0276 7.1966z"/>
   </g>
  </g>
 </g>
</svg>
