<svg fill="none" height="513" width="512" xmlns="http://www.w3.org/2000/svg"><linearGradient id="a" gradientUnits="userSpaceOnUse" x1="486" x2="486" y1="479.5" y2="43.5"><stop offset="0" stop-color="#8d54ff"/><stop offset="1" stop-color="#0075ef"/></linearGradient><circle cx="256" cy="256.5" fill="url(#a)" r="256"/><path clip-rule="evenodd" d="M321.054 181.543c-1.38 3.066-5.697 3.165-7.216.166l-36.981-73.016a4 4 0 0 0-3.568-2.193H238.7a4 4 0 0 0-3.569 2.193l-36.981 73.016c-1.519 2.999-5.836 2.9-7.216-.166l-32.723-72.685a4 4 0 0 0-3.647-2.358h-29.883c-2.903 0-4.839 2.995-3.647 5.642l51.87 115.214a4 4 0 0 0 3.647 2.358h34.339a3.998 3.998 0 0 0 3.568-2.192l37.968-74.963c1.48-2.924 5.656-2.924 7.136 0l37.968 74.963a4 4 0 0 0 3.568 2.192h34.339a4 4 0 0 0 3.647-2.358l51.87-115.214c1.192-2.647-.744-5.642-3.647-5.642h-29.882a4 4 0 0 0-3.648 2.358zm58.157 80.778a4 4 0 0 1-4 4H136.782a4 4 0 0 1-4-4v-11.642a4 4 0 0 1 4-4h238.429a4 4 0 0 1 4 4zM273.288 406.5a4 4 0 0 0 3.569-2.193l36.981-73.016c1.519-2.999 5.836-2.9 7.216.166l32.723 72.685a4 4 0 0 0 3.648 2.358h29.882c2.903 0 4.839-2.995 3.647-5.642l-51.87-115.214a4 4 0 0 0-3.647-2.358h-34.339a4 4 0 0 0-3.568 2.192l-37.968 74.963c-1.48 2.924-5.656 2.924-7.136 0l-37.968-74.963a3.998 3.998 0 0 0-3.568-2.192h-34.339a4 4 0 0 0-3.647 2.358l-51.87 115.214c-1.192 2.647.744 5.642 3.647 5.642h29.883a4 4 0 0 0 3.647-2.358l32.723-72.685c1.38-3.066 5.697-3.165 7.216-.166l36.981 73.016a4 4 0 0 0 3.569 2.193z" fill="#fff" fill-rule="evenodd"/></svg>