<svg width="64" height="64" viewBox="0 0 64 64" fill="none" xmlns="http://www.w3.org/2000/svg">
<g clip-path="url(#clip0_1_2)">
<mask id="mask0_1_2" style="mask-type:luminance" maskUnits="userSpaceOnUse" x="0" y="0" width="64" height="64">
<path d="M64 0H0V64H64V0Z" fill="white"/>
</mask>
<g mask="url(#mask0_1_2)">
<path d="M32 64C49.6731 64 64 49.6731 64 32C64 14.3269 49.6731 0 32 0C14.3269 0 0 14.3269 0 32C0 49.6731 14.3269 64 32 64Z" fill="#1A82FF"/>
<path d="M32.083 60.1451C26.1097 60.1451 20.1604 58.1998 15.3339 54.6671L16.8175 52.6468C21.2172 55.8666 26.6391 57.6403 32.083 57.6403C34.6181 57.6403 37.133 57.2635 39.5582 56.5213L40.2946 58.9165C37.6312 59.732 34.869 60.1451 32.0849 60.1451H32.083ZM43.2034 57.8486L42.2105 55.5485C42.3571 55.4863 42.5017 55.4222 42.6465 55.3565C49.9275 52.0652 55.1717 45.7059 57.0346 37.9113L59.4744 38.4928C57.432 47.0461 51.675 54.0235 43.6796 57.6384C43.5202 57.7096 43.3609 57.781 43.2034 57.8486ZM12.9361 52.7016C10.1428 50.1399 7.92638 47.0809 6.35112 43.6087C4.68426 39.9354 3.83984 36.0408 3.83984 32.0329C3.83984 31.0436 3.89296 30.0416 3.99919 29.0561L6.49398 29.3213C6.39874 30.219 6.34928 31.1314 6.34928 32.0329C6.34928 35.6824 7.11861 39.2296 8.63709 42.5756C10.0732 45.7389 12.0899 48.5254 14.6341 50.8566L12.9361 52.7016ZM60.0276 35.4465L57.5382 35.1358C57.6701 34.0825 57.738 33.0129 57.738 31.9524C57.738 28.3028 56.9686 24.7556 55.4501 21.4095C54.0819 18.3963 52.1824 15.7194 49.8011 13.4521L51.5321 11.6402C54.1477 14.1288 56.2341 17.0689 57.7361 20.3765C59.403 24.0499 60.2474 27.9444 60.2474 31.9524C60.2474 33.1153 60.1741 34.291 60.0294 35.4465H60.0276ZM6.94642 26.5384L4.49559 26.0026C5.41694 21.8064 7.31276 17.8149 9.98157 14.4596C12.7804 10.9399 16.2864 8.21184 20.4059 6.34865C20.7227 6.20421 21.0451 6.06708 21.3639 5.93725L22.3145 8.25389C22.0232 8.37274 21.7301 8.4989 21.4407 8.63055C17.6894 10.3274 14.4949 12.8123 11.947 16.0175C9.51631 19.0746 7.78718 22.7133 6.94642 26.5401V26.5384ZM47.6489 11.6219C43.1759 8.21915 37.6184 6.345 32.0024 6.345C29.6285 6.345 27.2656 6.67595 24.9832 7.3287L24.2927 4.92064C26.8004 4.20389 29.394 3.84003 32.0024 3.84003C38.1642 3.84003 44.2602 5.89703 49.1692 9.62889L47.6489 11.6201V11.6219Z" fill="white"/>
<path d="M28.5361 19.2036C28.723 19.4252 28.9118 19.6432 29.1023 19.8594C30.0235 19.6469 30.9815 19.5297 31.967 19.5297C37.768 19.5297 42.6569 23.4239 44.168 28.7414C44.4574 28.8036 44.745 28.8659 45.0363 28.919C47.335 29.3421 48.7821 29.5931 49.6851 29.7451C48.4818 21.0354 41.0084 14.3295 31.967 14.3295C29.747 14.3295 27.6204 14.7342 25.6586 15.4742C26.4956 16.61 27.7083 18.1669 28.5344 19.2036H28.5361Z" fill="white"/>
<path d="M44.7047 33.7108C47.4194 33.2126 48.9671 32.9451 49.8445 32.8041C49.85 32.6099 49.8555 32.414 49.8555 32.218C49.8555 32.022 49.8519 31.8241 49.8445 31.6281C48.9671 31.4852 47.4194 31.2196 44.7047 30.7215C44.6571 30.7123 44.6076 30.7031 44.56 30.694C44.6205 31.194 44.6552 31.7014 44.6552 32.218C44.6552 32.7345 44.6205 33.24 44.5619 33.7401C44.6095 33.731 44.659 33.7217 44.7066 33.7126L44.7047 33.7108Z" fill="white"/>
<path d="M27.1166 44.0691C27.1441 44.0361 27.1716 44.005 27.199 43.9739C22.5556 42.089 19.2805 37.5373 19.2805 32.218C19.2805 26.8986 22.5556 22.345 27.199 20.4603C27.1716 20.4273 27.1423 20.3943 27.1148 20.3631C27.1148 20.3631 25.1238 17.861 23.9404 16.229C18.0918 19.1706 14.0785 25.2263 14.0785 32.2198C14.0785 39.2133 18.0918 45.2671 23.9404 48.2088C25.1238 46.5749 27.1166 44.0728 27.1166 44.0728V44.0691Z" fill="white"/>
<path d="M45.0362 35.5133C44.7469 35.5664 44.4574 35.6268 44.1699 35.6909C42.6586 41.0084 37.7699 44.9044 31.9689 44.9044C30.9815 44.9044 30.0235 44.7873 29.1022 44.5748C28.9117 44.789 28.723 45.007 28.538 45.2286C27.7119 46.2673 26.4994 47.8241 25.6604 48.9599C27.6221 49.6999 29.7487 50.1046 31.9689 50.1046C41.0101 50.1046 48.4835 43.3969 49.687 34.6871C48.7839 34.8374 47.3369 35.0901 45.0381 35.5133H45.0362Z" fill="white"/>
<path d="M23.1747 41.4736C25.7007 38.966 29.736 36.8266 34.612 35.3594C34.6139 35.3594 34.6156 35.3575 34.6193 35.3558H34.6175C34.6175 35.3558 34.6156 35.3594 34.6139 35.3594C32.0696 36.7936 29.7049 38.5778 27.6405 40.6384C26.8694 41.4078 26.1311 42.2228 25.4406 43.0654L25.3471 43.1808C25.9114 43.5234 26.503 43.82 27.1185 44.0729C27.7137 43.3585 28.3475 42.6624 29.0051 42.0066H29.007C33.328 37.693 38.7554 34.83 44.7084 33.7126C44.7651 33.2218 44.7981 32.7235 44.7981 32.218C44.7981 31.7125 44.7651 31.2124 44.7084 30.7215C38.7554 29.6041 33.3261 26.7411 29.0051 22.4294C28.3513 21.7736 27.7174 21.0794 27.1185 20.3631C26.5011 20.6159 25.9078 20.9145 25.3454 21.257L25.4387 21.3706C26.1311 22.2169 26.8711 23.032 27.6386 23.7976C29.7066 25.8601 32.0714 27.6443 34.6193 29.0803C29.7396 27.6094 25.7044 25.4718 23.1785 22.9605L23.1546 22.9368C22.6875 23.3819 22.2534 23.8618 21.856 24.3728C23.4165 25.9096 25.4461 27.309 27.8914 28.5271H27.8896C30.0455 29.6005 32.5146 30.5219 35.178 31.2509H19.2127C19.189 31.5696 19.1725 31.892 19.1725 32.2161C19.1725 32.5404 19.189 32.8628 19.2127 33.1815H35.1816C32.5184 33.9086 30.0455 34.83 27.8932 35.9053C25.4479 37.1234 23.4202 38.5228 21.8577 40.0595C22.2534 40.5706 22.6875 41.0505 23.1565 41.4956L23.1803 41.4718L23.1747 41.4736Z" fill="white"/>
<path opacity="0.2" d="M52.0023 51.8686C62.9743 40.8215 62.9156 22.9715 51.8685 11.9996C40.8215 1.02762 22.9715 1.08623 11.9995 12.1333L52.0023 51.8686Z" fill="white"/>
<path d="M39.5339 22.0355C41.741 23.6804 43.395 26.025 44.168 28.7432C44.4575 28.8055 44.745 28.8678 45.0363 28.9209C47.3351 29.344 48.7821 29.595 49.6851 29.747C49.0092 24.8526 46.3515 20.5921 42.5506 17.7969L39.5339 22.0374V22.0355Z" fill="url(#paint0_linear_1_2)"/>
<path d="M39.5356 42.3967C41.7429 40.7519 43.3969 38.4074 44.1699 35.6891C44.4593 35.6267 44.7469 35.5645 45.0381 35.5114C47.3369 35.0882 48.784 34.8374 49.687 34.6852C49.0111 39.5796 46.3533 43.8402 42.5525 46.6354L39.5356 42.395V42.3967Z" fill="url(#paint1_linear_1_2)"/>
</g>
</g>
<defs>
<linearGradient id="paint0_linear_1_2" x1="46.8606" y1="36.506" x2="43.9116" y2="22.4623" gradientUnits="userSpaceOnUse">
<stop stop-color="#1A82FF" stop-opacity="0.5"/>
<stop offset="1" stop-color="white"/>
</linearGradient>
<linearGradient id="paint1_linear_1_2" x1="46.8606" y1="27.9262" x2="43.9116" y2="41.97" gradientUnits="userSpaceOnUse">
<stop stop-color="#1A82FF" stop-opacity="0.5"/>
<stop offset="1" stop-color="white"/>
</linearGradient>
<clipPath id="clip0_1_2">
<rect width="64" height="64" fill="white"/>
</clipPath>
</defs>
</svg>
