<svg xmlns="http://www.w3.org/2000/svg" viewBox="0 0 100.001 100"><path d="M50 0A50 50 0 1 1 0 50 50.018 50.018 0 0 1 50 0z" fill="#003371"/><path d="M75.334 24.74a8.077 8.077 0 0 0-11.402 0L44.3 44.313a8.02 8.02 0 0 0 0 11.367l19.633 19.57a8.077 8.077 0 0 0 11.402 0 8.02 8.02 0 0 0 0-11.365L63.296 51.893a2.673 2.673 0 0 1 0-3.795l12.038-11.99a8.02 8.02 0 0 0 0-11.367z" fill="#04795b"/><path d="M63.929 75.248a8.048 8.048 0 1 0 11.4-11.364L55.696 44.312a8.048 8.048 0 0 0-11.4 11.364z" fill="#0db50a"/><path d="M55.701 44.312L36.068 24.741a8.05 8.05 0 1 0-11.401 11.366l12.028 11.991a2.674 2.674 0 0 1 0 3.795L24.667 63.884A8.05 8.05 0 0 0 36.068 75.25l13.928-13.893L55.7 55.68a8.02 8.02 0 0 0 0-11.367zm13.927-5.848a8.036 8.036 0 1 0-8.06-8.036 8.048 8.048 0 0 0 8.06 8.036z" fill="#0ae33a"/></svg>