<svg fill="none" height="1163" viewBox="0 0 1163 1163" width="1163" xmlns="http://www.w3.org/2000/svg"><circle cx="581.073" cy="581.17" fill="#ff4500" r="581.045"/><path clip-rule="evenodd" d="m551.899 287.873v215.56c0 7.394 5.994 13.387 13.388 13.387s13.388-5.993 13.388-13.387v-215.56h265.961c16.422 0 29.734 13.312 29.734 29.734v256.168h-215.876c-7.394 0-13.388 5.994-13.388 13.388s5.994 13.389 13.388 13.389h215.876v244.182c0 16.42-13.312 29.733-29.734 29.733h-527.127c-16.421 0-29.733-13.313-29.733-29.733v-527.127c0-16.422 13.312-29.734 29.733-29.734zm26.776 374.306c0-7.394-5.994-13.388-13.388-13.388s-13.388 5.994-13.388 13.388v212.28h26.776z" fill="#121212" fill-rule="evenodd"/></svg>