<?xml version="1.0" encoding="UTF-8"?>
<svg version="1.1" xmlns="http://www.w3.org/2000/svg" width="1000" height="1000">
<path d="M0 0 C1.29095078 -0.00705963 2.58190155 -0.01411926 3.91197205 -0.02139282 C8.06111208 -0.04093729 12.21019326 -0.04608524 16.359375 -0.046875 C17.06662846 -0.04716957 17.77388191 -0.04746414 18.50256729 -0.04776764 C39.83688545 -0.04920365 60.94802738 0.13944295 82.109375 3.203125 C83.17273071 3.35584869 83.17273071 3.35584869 84.25756836 3.51165771 C177.55093801 17.00506459 264.79558801 54.4387342 337.109375 115.203125 C337.61968262 115.62851563 338.12999023 116.05390625 338.65576172 116.4921875 C355.45547144 130.52117265 372.27252008 145.55171025 386.453125 162.26953125 C388.36923077 164.50649435 390.36450356 166.66116078 392.359375 168.828125 C397.39386566 174.41445697 401.98902972 180.29480068 406.58203125 186.24316406 C408.15621679 188.26323464 409.75491657 190.26172208 411.359375 192.2578125 C445.0184448 234.38606339 470.58532702 283.30401407 488.109375 334.203125 C488.46193359 335.21971191 488.81449219 336.23629883 489.17773438 337.28369141 C504.69814097 382.49815922 514.1338138 431.09518079 514.3125 478.97265625 C514.31955963 480.23995071 514.32661926 481.50724518 514.33389282 482.8129425 C514.35140715 486.88054488 514.358585 490.9479928 514.359375 495.015625 C514.35981686 496.05660465 514.35981686 496.05660465 514.36026764 497.1186142 C514.36171857 518.28308657 514.13556451 539.21244707 511.109375 560.203125 C510.95665131 561.26808197 510.95665131 561.26808197 510.80084229 562.35455322 C501.58187951 626.12725075 481.85819409 688.46339215 449.109375 744.203125 C448.59149414 745.08677734 448.07361328 745.97042969 447.54003906 746.88085938 C433.31192637 771.01798458 417.13848846 793.75310284 399.109375 815.203125 C398.67866699 815.71875 398.24795898 816.234375 397.80419922 816.765625 C384.06974708 833.17536845 369.45787024 849.61830716 353.109375 863.48046875 C350.67548369 865.57684779 348.33803075 867.7670988 345.984375 869.953125 C340.24070695 875.18466902 334.20665609 879.95468964 328.05322266 884.69189453 C326.0386888 886.25807948 324.04740254 887.85052064 322.05859375 889.44921875 C300.63089031 906.57025352 277.35805266 920.87635058 253.32080078 933.99316406 C251.25401764 935.12398513 249.19520206 936.26823008 247.13671875 937.4140625 C225.78708561 949.15689076 203.0931535 958.2192499 180.109375 966.203125 C179.0869873 966.55858398 178.06459961 966.91404297 177.01123047 967.28027344 C131.76629806 982.80656731 82.97395611 992.23124309 35.0859375 992.40625 C33.79366745 992.41330963 32.5013974 992.42036926 31.16996765 992.42764282 C27.02476427 992.44715364 22.87962001 992.45233466 18.734375 992.453125 C18.0276553 992.45341957 17.32093559 992.45371414 16.59280014 992.45401764 C-4.37442863 992.45542965 -25.10283999 992.2922046 -45.890625 989.203125 C-46.9398111 989.05040131 -46.9398111 989.05040131 -48.01019287 988.89459229 C-141.3425761 975.28229132 -228.51282072 938.02130874 -300.890625 877.203125 C-301.40093262 876.77773438 -301.91124023 876.35234375 -302.43701172 875.9140625 C-319.23672144 861.88507735 -336.05377008 846.85453975 -350.234375 830.13671875 C-352.15048077 827.89975565 -354.14575356 825.74508922 -356.140625 823.578125 C-361.17511566 817.99179303 -365.77027972 812.11144932 -370.36328125 806.16308594 C-371.93746679 804.14301536 -373.53616657 802.14452792 -375.140625 800.1484375 C-388.43615038 783.50515918 -400.35469736 765.72022503 -410.890625 747.203125 C-411.27879395 746.5215332 -411.66696289 745.83994141 -412.06689453 745.13769531 C-414.62794555 740.6196243 -417.14376352 736.07830331 -419.62890625 731.51806641 C-420.45896331 729.9951173 -421.29221195 728.47390263 -422.12890625 726.95458984 C-457.16284106 663.18448708 -477.82142599 586.40053747 -478.09375 513.43359375 C-478.10080963 512.16629929 -478.10786926 510.89900482 -478.11514282 509.5933075 C-478.13265715 505.52570512 -478.139835 501.4582572 -478.140625 497.390625 C-478.14091957 496.69663857 -478.14121414 496.00265213 -478.14151764 495.2876358 C-478.14296857 474.12316343 -477.91681451 453.19380293 -474.890625 432.203125 C-474.73790131 431.13816803 -474.73790131 431.13816803 -474.58209229 430.05169678 C-461.09722037 336.76933099 -423.65784229 249.50053223 -362.890625 177.203125 C-362.45991699 176.6875 -362.02920898 176.171875 -361.58544922 175.640625 C-347.85099708 159.23088155 -333.23912024 142.78794284 -316.890625 128.92578125 C-314.45673369 126.82940221 -312.11928075 124.6391512 -309.765625 122.453125 C-304.02195695 117.22158098 -297.98790609 112.45156036 -291.83447266 107.71435547 C-289.8199388 106.14817052 -287.82865254 104.55572936 -285.83984375 102.95703125 C-243.71457985 69.29354744 -194.78976471 43.72718289 -143.890625 26.203125 C-142.87403809 25.85056641 -141.85745117 25.49800781 -140.81005859 25.13476562 C-95.98977061 9.74966597 -47.45349227 0.17313371 0 0 Z " fill="#FEFEFF" transform="translate(481.890625,3.796875)"/>
<path d="M0 0 C0 50.16 0 100.32 0 152 C10.78840576 151.97381592 21.57681152 151.94763184 32.69213867 151.9206543 C67.18931729 151.84044771 101.68649625 151.78480631 136.18374385 151.74467335 C141.53989522 151.73841963 146.89604631 151.73194804 152.25219727 151.7253418 C153.85170415 151.72337447 153.85170415 151.72337447 155.4835243 151.7213674 C172.7619825 151.69959573 190.04035774 151.6601645 207.31876668 151.61423602 C225.04077012 151.56752039 242.76273004 151.53971497 260.48479253 151.52955753 C271.42512725 151.52268821 282.36522749 151.50097245 293.30549005 151.46041767 C300.80205576 151.4340397 308.2984998 151.42598777 315.79510858 151.43249311 C320.12388355 151.43570373 324.45224808 151.43069464 328.78095055 151.40397263 C332.74195283 151.37969844 336.70226743 151.37837384 340.66330091 151.39550553 C342.09811827 151.39762383 343.53297798 151.39123121 344.96771159 151.37558409 C346.91482722 151.35557939 348.86220257 151.36929696 350.80935955 151.38476086 C351.89194221 151.38286225 352.97452487 151.38096365 354.08991307 151.37900752 C358.04676874 152.22337323 359.53021191 153.85164846 362 157 C364.39621033 164.39605805 364.11622305 175.27040409 360.9421947 182.36411357 C357.54394175 187.7262607 352.94292173 191.93753414 348.34155273 196.25366211 C346.87014488 197.7169257 345.40382046 199.18531582 343.94218445 200.65834045 C339.99153338 204.61130374 335.97455859 208.48972502 331.9411571 212.35797191 C327.71732386 216.43325208 323.55988701 220.57520236 319.39479065 224.71034241 C311.50442841 232.52429464 303.55779817 240.27824872 295.58840376 248.01149231 C285.65423628 257.65693183 275.79513077 267.37804847 265.93554688 277.09960938 C255.86478434 287.0249948 245.7872514 296.94290338 235.66294861 306.81370544 C234.88502272 307.57268666 234.10709683 308.33166788 233.30559742 309.11364853 C229.67070412 312.65980069 226.0331886 316.2031661 222.39013672 319.74093628 C216.82691806 325.15717373 211.31089354 330.53058221 206.29479694 336.4680624 C204.62931616 338.43857418 202.84457644 340.26233427 201.00830078 342.07348633 C200.31133087 342.76392532 199.61436096 343.45436432 198.89627075 344.16572571 C198.16995453 344.88060654 197.44363831 345.59548737 196.6953125 346.33203125 C195.12747557 347.88724016 193.55977098 349.44258249 191.9921875 350.99804688 C189.54484087 353.42044578 187.09590749 355.84120022 184.64453125 358.25952148 C182.2612872 360.61269082 179.88419603 362.97193685 177.5078125 365.33203125 C176.76935089 366.05703323 176.03088928 366.78203522 175.27005005 367.52900696 C174.5919931 368.20368515 173.91393616 368.87836334 173.21533203 369.57348633 C172.31767624 370.45995598 172.31767624 370.45995598 171.40188599 371.36433411 C169.77055647 373.05956412 169.77055647 373.05956412 169 376 C169.58265625 376.15855469 170.1653125 376.31710937 170.765625 376.48046875 C210.00654072 387.64808785 248.40745821 410.86588937 281 435 C281.94488281 435.68707031 282.88976562 436.37414062 283.86328125 437.08203125 C296.67125483 446.49716415 308.44711224 457.10044797 320 468 C321.01513672 468.95132813 321.01513672 468.95132813 322.05078125 469.921875 C326.27886745 474.00416513 329.94681736 478.48444059 333.62109375 483.06640625 C335.18589572 484.99607173 336.78184534 486.90095955 338.41015625 488.77734375 C360.24973548 514.00880691 375.41922616 545.94983197 380.65771484 578.89550781 C380.95718372 580.73675014 381.31196131 582.56882279 381.67578125 584.3984375 C386.74781616 612.34638495 382.50523951 644.49553087 372.71337891 671.03100586 C371.95233019 673.13157324 371.26414021 675.24881795 370.578125 677.375 C364.30481004 696.27796809 355.25692306 714.28662464 343 730 C342.37609375 730.81597656 341.7521875 731.63195312 341.109375 732.47265625 C318.74787211 761.15173821 289.1250863 781.61955524 255 794 C253.7934375 794.46019531 252.586875 794.92039062 251.34375 795.39453125 C215.78368883 808.68883834 177.16555706 812.22329515 139.4375 812.25 C138.44511322 812.25100708 137.45272644 812.25201416 136.43026733 812.25305176 C119.76126812 812.2416616 103.52461463 811.30911646 87 809 C84.78000461 808.71830283 82.55995226 808.43705424 80.33984375 808.15625 C38.57568435 802.58892712 -5.42037941 786.84137591 -32.07128906 752.46508789 C-49.2619691 729.4913537 -56.63169303 702.29211866 -52.68212891 673.69873047 C-50.16161724 660.79280708 -41.70643085 648.95065949 -31.1875 641.3125 C-14.60839911 630.29331003 3.75962809 628.22599909 23.25 632.0625 C29.79361429 633.90589468 35.39573777 637.21585315 41 641 C41.90878906 641.60134766 41.90878906 641.60134766 42.8359375 642.21484375 C51.8421389 648.90992998 57.7899504 660.98300322 59.68359375 671.8671875 C61.25921495 687.46778255 60.51506378 700.98156851 51 714 C45.88790611 720.04594155 40.35597441 724.90520315 33 728 C32.34 728 31.68 728 31 728 C32.30123126 736.55094826 38.22187391 742.14620155 44.921875 747.20703125 C68.5054712 762.54810191 98.87601577 766.16004297 126.44384766 766.92822266 C128.28499193 766.97992241 130.12581512 767.04355005 131.96630859 767.11474609 C155.12236319 767.95171192 177.15179142 764.79365348 199 757 C200.42505859 756.54367187 200.42505859 756.54367187 201.87890625 756.078125 C231.55191666 746.23031368 254.30807832 723.4774436 268.8984375 696.48828125 C283.06152277 667.8737221 287.13227601 637.65092781 286 606 C285.96777344 604.68644531 285.93554688 603.37289062 285.90234375 602.01953125 C284.4782615 572.04077405 265.40622072 541.83535005 245.2890625 520.44140625 C243.34272738 518.36553688 241.50857547 516.24689349 239.6875 514.0625 C197.62222751 465.88938935 131.50478331 444.97593774 71 433 C65.47182081 393.83081397 65.47182081 393.83081397 75.28943825 379.45212173 C82.76698279 369.79093878 91.98956123 361.68942104 101.18707275 353.71264648 C105.18114233 350.20245466 109.04636388 346.55584869 112.92382812 342.91796875 C117.29395813 338.83298412 121.67344922 334.76419195 126.1441803 330.78921509 C126.82026337 330.18793793 127.49634644 329.58666077 128.19291687 328.96716309 C129.43806836 327.86442437 130.68692584 326.76584617 131.94061279 325.67282104 C135.61832134 322.41891254 138.825593 318.9567039 142.01971722 315.2312336 C146.07109596 310.66644495 150.45906492 306.42040063 154.78466797 302.11767578 C155.85817973 301.04608698 156.93146124 299.97426748 158.00453186 298.90223694 C160.3002187 296.60969134 162.59744447 294.31870347 164.89590073 292.02893448 C168.52884267 288.40958653 172.15790295 284.78636298 175.78640747 281.16256714 C183.47963538 273.48040019 191.17711034 265.80249521 198.875 258.125 C207.2074495 249.81458299 215.53915302 241.50342584 223.86601174 233.18740642 C227.47543204 229.58297436 231.08727757 225.98099547 234.70098567 222.38086247 C236.9412776 220.14800829 239.17951515 217.91310363 241.41718864 215.67762566 C242.45760454 214.63908769 243.49888739 213.60141743 244.54108238 212.56466484 C245.95927189 211.15365135 247.3741269 209.73928871 248.78878784 208.32473755 C249.5825778 207.5331682 250.37636776 206.74159885 251.19421196 205.92604256 C253.05811223 204.12169988 253.05811223 204.12169988 254 202 C170.18 202 86.36 202 0 202 C0.09058199 249.39555188 0.09058199 249.39555188 0.20898438 296.79101562 C0.22703238 303.19246358 0.24489603 309.593912 0.26245117 315.99536133 C0.2657627 317.198706 0.2657627 317.198706 0.26914114 318.42636067 C0.30443486 331.34891613 0.32933618 344.27147154 0.35034702 357.19405722 C0.37217046 370.47295336 0.40528248 383.7517874 0.44870156 397.03063065 C0.47510604 405.21313059 0.4928837 413.39555326 0.49934604 421.57809366 C0.50463444 427.20216225 0.52096581 432.82613392 0.54566566 438.45015042 C0.55956366 441.68666414 0.56724878 444.92297305 0.56500816 448.1595211 C0.55694714 465.18700759 0.56813911 482.10260376 7.6875 497.9375 C8.03562744 498.7325293 8.38375488 499.52755859 8.74243164 500.34667969 C14.21703422 512.36692246 22.5396988 521.20552165 34.5 526.9375 C53.23408389 533.43663504 73.46454896 528.83002721 91 521 C95.00849613 519.03004437 98.81169957 516.85634577 102.5859375 514.46875 C105 513 105 513 107 513 C107.12509012 516.94668939 107.21502442 520.89258657 107.2746582 524.84082031 C107.31169623 526.83179353 107.37528228 528.82221653 107.43945312 530.8125 C107.55508541 539.97057708 106.39750313 546.85386201 100.33789062 553.94506836 C91.8158078 562.62569547 78.67364384 567.78078727 67.3125 571.4375 C66.59022217 571.67218994 65.86794434 571.90687988 65.1237793 572.14868164 C42.52006442 578.93506854 16.65676198 577.90181493 -6 572 C-6.71929687 571.81808105 -7.43859375 571.63616211 -8.1796875 571.44873047 C-38.36198163 563.6016145 -61.3105886 544.6674252 -77 518 C-81.55818161 509.95734178 -84.55685215 501.89713007 -87 493 C-87.350625 491.79085938 -87.70125 490.58171875 -88.0625 489.3359375 C-92.8713356 472.25749929 -93.28124749 456.00646004 -93.22705078 438.35986328 C-93.2264859 435.77655034 -93.22680472 433.19323707 -93.22793579 430.60992432 C-93.22897862 425.07274551 -93.22276549 419.53561426 -93.21146011 413.99844742 C-93.1951257 405.99288721 -93.18998903 397.98734973 -93.18748413 389.98177467 C-93.18311941 376.98962715 -93.16984369 363.99750491 -93.15087891 351.00537109 C-93.13248831 338.3933932 -93.11834742 325.78142221 -93.10986328 313.16943359 C-93.10933783 312.39051888 -93.10881239 311.61160417 -93.10827102 310.80908598 C-93.10566072 306.90104824 -93.10313336 302.99301044 -93.10064721 299.08497262 C-93.07995284 266.72329267 -93.04310379 234.36165979 -93 202 C-127.98 202 -162.96 202 -199 202 C-199 186.49 -199 170.98 -199 155 C-196 152 -196 152 -194.02226734 151.63085651 C-192.88707928 151.63500458 -192.88707928 151.63500458 -191.72895813 151.63923645 C-190.42278534 151.63305046 -190.42278534 151.63305046 -189.09022522 151.6267395 C-188.13788498 151.63752533 -187.18554474 151.64831116 -186.2043457 151.65942383 C-184.69676193 151.65876671 -184.69676193 151.65876671 -183.15872192 151.65809631 C-179.83087861 151.66018925 -176.50353674 151.6835445 -173.17578125 151.70703125 C-170.87078629 151.7126254 -168.56578776 151.71689635 -166.26078796 151.71989441 C-160.18946512 151.73135739 -154.11835704 151.76083726 -148.04711914 151.79400635 C-141.85370794 151.82467582 -135.6602621 151.83839307 -129.46679688 151.85351562 C-117.31110347 151.88570541 -105.15556958 151.93691945 -93 152 C-92.99166336 141.64589347 -93.01579183 131.29240411 -93.0802784 120.93848038 C-93.10923244 116.12959217 -93.12740306 111.32118772 -93.12011719 106.51220703 C-93.11348345 101.86284465 -93.1362368 97.21443478 -93.17855453 92.56526947 C-93.18961425 90.80009099 -93.19045101 89.03481507 -93.18042374 87.26963043 C-93.12810397 76.69574436 -93.54309939 67.93345694 -100 59 C-106.84609072 52.27223476 -114.58792781 49.68756509 -123.9375 48.8125 C-126.598125 48.544375 -129.25875 48.27625 -132 48 C-132 41.4 -132 34.8 -132 28 C-123.68354607 25.90209935 -115.35469124 23.87733627 -107 21.9375 C-105.91460937 21.68162109 -104.82921875 21.42574219 -103.7109375 21.16210938 C-97.37124155 19.69066443 -91.04323919 18.46114552 -84.61669922 17.43579102 C-81.55990646 16.92670583 -78.56859908 16.25050506 -75.5625 15.5 C-71.27904969 14.47746614 -67.04859375 13.6708995 -62.6875 13.0625 C-57.14429178 12.2592327 -51.78639554 11.00894288 -46.37280273 9.60620117 C-34.83331201 6.63725643 -23.16096471 4.27867046 -11.390625 2.4375 C-7.41883845 1.7106371 -4.04793988 0 0 0 Z " fill="#0E62FF" transform="translate(408,94)"/>
</svg>
