<?xml version="1.0" encoding="UTF-8"?>
<svg id="Layer_1" xmlns="http://www.w3.org/2000/svg" version="1.1" viewBox="0 0 1920 1080">
  <!-- Generator: Adobe Illustrator 29.0.1, SVG Export Plug-In . SVG Version: 2.1.0 Build 192)  -->
  <defs>
    <style>
      .st0 {
        fill: #fff;
      }
    </style>
  </defs>
  <path id="Logo" class="st0" d="M1143,425.5v138.1s-62.6,86.2-62.6,86.2c-10.7,3.1-22.5,4.7-35.6,4.7-30.7,0-54.8-8.6-72-25.7-17.3-17.1-25.9-41.1-25.9-71.8v-73.6l42-57.9h3.7v131.1c0,18.4,4.4,32.5,13.3,42,8.9,9.6,21.8,14.4,38.8,14.4,35,0,52.5-18.8,52.5-56.4v-131.1h45.8ZM826.5,649l120.3-165.6h-46.5l-34.8,51.4-34-51.4h-50l57.8,80.8-62.4,84.8h49.6ZM910.4,591.1l-25,34.4,15.4,23.5h51.1l-41.5-57.9Z"/>
</svg>