<?xml version="1.0" encoding="UTF-8" standalone="no"?>
<svg
   fill="none"
   height="24.74"
   width="24.74"
   version="1.1"
   id="svg5"
   xmlns="http://www.w3.org/2000/svg"
   xmlns:svg="http://www.w3.org/2000/svg">
  <defs
     id="defs5" />
  <clipPath
     id="a">
    <path
       d="M 0,0 H 22 V 24.088 H 0 Z"
       transform="translate(0,0.754)"
       id="path1" />
  </clipPath>
  <g
     clip-path="url(#a)"
     id="g5"
     transform="translate(1.2204886,-0.4207381)">
    <path
       d="M 13.62,11.877 15.287,9.043 19.783,16.054 19.785,17.4 19.77,8.14 A 0.698,0.698 0 0 0 19.448,7.585 L 11.354,2.923 a 0.713,0.713 0 0 0 -0.69,0.045 L 10.635,2.986 2.78,7.545 2.75,7.558 A 0.695,0.695 0 0 0 2.344,8.15 l 0.012,7.546 4.187,-6.5 C 7.07,8.336 8.219,8.058 9.285,8.073 l 1.252,0.033 -7.374,11.841 0.869,0.501 7.462,-12.33 3.299,-0.012 -7.443,12.641 3.101,1.787 0.371,0.213 a 0.71,0.71 0 0 0 0.5,0.01 l 8.207,-4.763 -1.569,0.91 z m 0.636,9.177 -3.133,-4.923 1.912,-3.25 4.114,6.494 -2.894,1.679 z"
       fill="#2d374b"
       id="path2" />
    <path
       d="m 11.123,16.13 3.133,4.924 2.894,-1.68 -4.115,-6.493 -1.912,3.25 z m 8.662,1.27 -0.002,-1.346 -4.496,-7.011 -1.668,2.834 4.34,7.028 1.57,-0.91 a 0.697,0.697 0 0 0 0.256,-0.508 z"
       fill="#28a0f0"
       id="path3" />
    <path
       d="M 0.946,18.669 3.162,19.947 10.536,8.106 9.284,8.073 C 8.218,8.058 7.069,8.335 6.542,9.197 l -4.187,6.499 -1.41,2.167 v 0.806 z m 13.846,-10.563 -3.299,0.012 -7.462,12.33 2.608,1.504 0.71,-1.205 z"
       fill="#ffffff"
       id="path4" />
    <path
       d="M 21.175,8.089 A 2.104,2.104 0 0 0 20.189,6.398 l -8.2,-4.722 a 2.13,2.13 0 0 0 -1.882,0 C 10.04,1.71 2.133,6.3 2.133,6.3 A 2.103,2.103 0 0 0 0.946,8.085 v 9.778 L 2.355,15.696 2.342,8.151 A 0.695,0.695 0 0 1 2.632,7.627 C 2.669,7.6 10.71,2.939 10.736,2.927 a 0.712,0.712 0 0 1 0.618,-0.004 l 8.094,4.662 c 0.192,0.122 0.312,0.33 0.322,0.556 v 9.346 a 0.681,0.681 0 0 1 -0.242,0.507 l -1.569,0.91 -0.81,0.47 -2.894,1.68 -2.934,1.703 a 0.71,0.71 0 0 1 -0.5,-0.01 l -3.472,-2 -0.71,1.205 3.12,1.799 a 54.872,54.872 0 0 0 0.496,0.276 c 0.222,0.108 0.54,0.17 0.828,0.17 0.264,0 0.521,-0.048 0.764,-0.143 l 8.525,-4.943 c 0.49,-0.38 0.777,-0.952 0.803,-1.572 z"
       fill="#96bedc"
       id="path5" />
  </g>
</svg>
