<svg width="68" height="74" fill="none" xmlns="http://www.w3.org/2000/svg"><path d="M20.29 63.667a.14.14 0 0 1 .098.042.137.137 0 0 1 .04.1v5.94c0 2.82-1.763 4.206-4.098 4.206-2.336 0-4.098-1.385-4.098-4.205v-5.941a.141.141 0 0 1 .142-.142h1.408a.142.142 0 0 1 .138.142v5.848c0 1.967 1.028 2.745 2.429 2.745 1.4 0 2.424-.778 2.424-2.745v-5.848a.141.141 0 0 1 .142-.142h1.375zm24.207 5.059a5.245 5.245 0 1 1-5.245-5.215 5.152 5.152 0 0 1 5.245 5.215zm-8.843 0a3.59 3.59 0 1 0 3.598-3.67 3.543 3.543 0 0 0-3.598 3.67zm23.2 5.058h-1.43a.141.141 0 0 1-.13-.194l3.795-9.774a.205.205 0 0 1 .197-.134h1.788a.212.212 0 0 1 .198.134l3.777 9.774a.142.142 0 0 1-.13.194h-1.43a.145.145 0 0 1-.131-.093l-3.051-8.046a.138.138 0 0 0-.26 0l-3.055 8.046a.138.138 0 0 1-.138.093zm-57.283 0H.14a.141.141 0 0 1-.131-.194l3.78-9.774a.212.212 0 0 1 .198-.134h1.788a.205.205 0 0 1 .198.134l3.784 9.774a.142.142 0 0 1-.13.194H8.194a.138.138 0 0 1-.13-.093l-3.051-8.046a.141.141 0 0 0-.265 0l-3.05 8.046a.145.145 0 0 1-.127.093zm53.075-.228l-2.839-3.628c1.602-.301 2.54-1.385 2.54-3.043 0-1.903-1.24-3.203-3.434-3.203h-3.96a.212.212 0 0 0-.212.212 1.348 1.348 0 0 0 1.349 1.345h2.648c1.33 0 1.963.681 1.963 1.661s-.618 1.672-1.963 1.672h-3.785a.216.216 0 0 0-.212.213v4.842a.141.141 0 0 0 .142.142h1.352a.142.142 0 0 0 .138-.142V70.03h1.542l2.466 3.215a1.404 1.404 0 0 0 1.117.55h1.025a.14.14 0 0 0 .16-.16.141.141 0 0 0-.037-.078zm-22.915 0l-2.838-3.628c1.602-.301 2.54-1.385 2.54-3.043 0-1.903-1.24-3.203-3.434-3.203h-3.96a.213.213 0 0 0-.212.212 1.348 1.348 0 0 0 1.349 1.345h2.648c1.33 0 1.963.681 1.963 1.661s-.618 1.672-1.963 1.672h-3.785a.216.216 0 0 0-.212.213v4.842a.142.142 0 0 0 .142.142h1.36a.142.142 0 0 0 .137-.142V70.03h1.56l2.463 3.215a1.404 1.404 0 0 0 1.118.55h1.024a.141.141 0 0 0 .1-.237z" fill="#000"/><path d="M33.524 4.097a5.93 5.93 0 0 1 5.33 3.293l16.763 33.525a5.96 5.96 0 0 1-5.33 8.627H16.761a5.96 5.96 0 0 1-5.33-8.627L28.193 7.39a5.93 5.93 0 0 1 5.33-3.293zm0-4.097a10.058 10.058 0 0 0-8.996 5.558L7.766 39.082a10.057 10.057 0 0 0 8.996 14.558h33.524a10.057 10.057 0 0 0 8.996-14.558L42.52 5.558A10.058 10.058 0 0 0 33.524 0z" fill="#70D44B"/></svg>