<svg width="96" height="96" fill="none" xmlns="http://www.w3.org/2000/svg"><path d="M23.02 14.704L48.5 0l25.48 14.704-9.367 5.433L48.5 10.864l-16.113 9.273-9.368-5.433zM73.98 33.25l-9.367-5.432L48.5 37.089l-16.113-9.272-9.368 5.432v10.864l16.113 9.272V71.93l9.368 5.432 9.368-5.432V53.385l16.113-9.272V33.25zm0 29.409V51.793l-9.367 5.432V68.09l9.368-5.432zm6.652 3.84L64.52 75.77v10.864L90 71.93V42.52l-9.368 5.432v18.545zm-9.368-42.521l9.368 5.432v10.864L90 34.841V23.977l-9.368-5.433-9.368 5.433zM39.132 79.703v10.865L48.5 96l9.368-5.432V79.703L48.5 85.136l-9.368-5.433zM23.02 62.658l9.368 5.432V57.225l-9.368-5.432v10.865zm16.113-38.681l9.368 5.432 9.368-5.432-9.368-5.433-9.368 5.433zm-22.764 5.432l9.368-5.432-9.368-5.433L7 23.977V34.84l9.368 5.432V29.41zm0 18.544L7 42.521V71.93l25.48 14.704V75.77l-16.112-9.272V47.953z" fill="#F1B90C"/></svg>