<?xml version="1.0" encoding="UTF-8"?><svg id="Layer_1" xmlns="http://www.w3.org/2000/svg" viewBox="0 0 2253.59 2000"><defs><style>.cls-1{fill:#fff;stroke-width:0px;}</style></defs><path class="cls-1" d="M1126.8,745.85c-56.96,0-107.96-29.45-136.44-78.77L605.21,0h1043.18l-385.15,667.08c-28.48,49.32-79.48,78.77-136.44,78.77Z"/><path class="cls-1" d="M1483.31,951.7c-56.96,0-107.97-29.45-136.45-78.78-28.48-49.32-28.48-108.22,0-157.55L1732,48.31l521.59,903.39h-770.29Z"/><path class="cls-1" d="M605.21,2000l385.15-667.07c28.48-49.32,79.48-78.77,136.44-78.77s107.96,29.45,136.44,78.77l385.15,667.07H605.21Z"/><path class="cls-1" d="M1346.87,1284.64c-28.49-49.32-28.49-108.22,0-157.55,28.48-49.32,79.49-78.77,136.45-78.77h770.29l-521.59,903.38-385.14-667.05Z"/><path class="cls-1" d="M0,951.7L521.6,48.31l385.13,667.06c28.49,49.32,28.49,108.22,0,157.55-28.48,49.33-79.49,78.78-136.45,78.78H0Z"/><path class="cls-1" d="M0,1048.31h770.29c56.96,0,107.97,29.45,136.45,78.77,28.48,49.33,28.48,108.23,0,157.55l-385.13,667.05L0,1048.31Z"/></svg>