<svg xmlns="http://www.w3.org/2000/svg" width="600" height="600" viewBox="0 0 600 600" fill="none">
<script xmlns="" id="exodus-extension" data-extension-id="aholpfdialjgjfhomihkjbmgjidlcdno" data-prioritize-exodus="true"/><path fill-rule="evenodd" clip-rule="evenodd" d="M300.002 68.5715L99.7899 184.286V415.715L300.002 531.429L500.215 415.715V184.286L300.002 68.5715ZM308.41 10.2554C303.207 7.24819 296.796 7.24819 291.593 10.2554L53.5429 147.838C48.3397 150.846 45.135 156.404 45.135 162.417V437.583C45.135 443.597 48.3397 449.155 53.5429 452.162L291.593 589.744C296.796 592.752 303.207 592.752 308.41 589.744L546.461 452.162C551.664 449.155 554.869 443.597 554.869 437.583V162.417C554.869 156.404 551.664 150.846 546.461 147.838L308.41 10.2554Z" fill="#FF9211"/>
<path d="M300.002 152.396L172.307 226.198V373.803L299.161 447.118C299.682 447.419 300.002 447.975 300.002 448.577V473.848C300.002 475.143 298.6 475.954 297.48 475.306L153.388 392.026C149.486 389.771 147.081 385.603 147.081 381.092V218.908C147.081 214.397 149.486 210.229 153.388 207.973L293.695 126.882C297.598 124.627 302.406 124.627 306.308 126.882L450.975 210.191C452.088 210.831 452.098 212.434 450.995 213.09C442.457 218.159 438.085 220.414 428.534 225.731C428.016 226.019 427.383 226.016 426.87 225.721L300.002 152.396Z" fill="#FF9211"/>
<path d="M321.023 303.115C321.023 302.493 321.366 301.922 321.915 301.629L448.882 233.979C450.002 233.382 451.353 234.194 451.353 235.465V400.038C451.353 400.639 451.035 401.193 450.516 401.494L323.55 475.294C322.427 475.946 321.023 475.137 321.023 473.839V303.115Z" fill="#FF9211"/>
</svg>