<?xml version="1.0" encoding="UTF-8"?>
<svg id="Layer_1" xmlns="http://www.w3.org/2000/svg" viewBox="0 0 1080 1080">
  <defs>
    <style>
      .cls-1 {
        fill: #262626;
      }

      .cls-2 {
        fill: #38ff9c;
      }
    </style>
  </defs>
  <circle class="cls-1" cx="540" cy="540" r="540"/>
  <g>
    <path class="cls-2" d="M611.03,505.74c-9.7,0-19.39-3.7-26.79-11.1-14.8-14.8-14.8-38.78,0-53.58l97.97-97.97c14.8-14.8,38.78-14.8,53.58,0,14.8,14.8,14.8,38.78,0,53.58l-97.97,97.97c-7.4,7.4-17.09,11.1-26.79,11.1Z"/>
    <path class="cls-2" d="M540,929c-214.5,0-389-174.5-389-389s174.5-389,389-389,389,174.5,389,389-174.5,389-389,389ZM540,226.77c-172.71,0-313.23,140.51-313.23,313.23s140.51,313.23,313.23,313.23,313.23-140.51,313.23-313.23-140.51-313.23-313.23-313.23Z"/>
    <path class="cls-2" d="M371,745.02c-9.7,0-19.39-3.7-26.79-11.1-14.8-14.8-14.8-38.79,0-53.58l97.97-97.97c14.8-14.8,38.79-14.8,53.58,0,14.8,14.8,14.8,38.79,0,53.58l-97.97,97.97c-7.4,7.4-17.1,11.1-26.79,11.1Z"/>
    <path class="cls-2" d="M531.53,403.62c-67.73,4.86-122.48,59.32-127.07,127.1-.25,3.67-1.85,7.13-4.46,9.73l-55.03,55.11c-3.12,3.13-8.5,1.72-9.62-2.55-4.47-17.07-7.23-35.38-7.23-53.57,0-117.13,95.29-212.43,212.43-212.43,19.09,0,37.6,2.53,55.22,7.28,3.56.96,4.74,5.43,2.13,8.04l-56.88,56.91c-2.54,2.54-5.91,4.12-9.49,4.38Z"/>
    <path class="cls-2" d="M679.48,538.04l56.91-56.88c2.61-2.61,7.08-1.43,8.04,2.13,4.75,17.61,7.28,36.12,7.28,55.22,0,117.13-95.29,212.43-212.43,212.43-18.19,0-36.5-2.76-53.57-7.23-4.27-1.12-5.68-6.49-2.55-9.62l55.11-55.03c2.61-2.6,6.06-4.21,9.73-4.46,67.78-4.59,122.24-59.35,127.1-127.07.26-3.59,1.84-6.95,4.38-9.49Z"/>
  </g>
</svg>