<svg width="363" height="363" viewBox="0 0 363 363" fill="none" xmlns="http://www.w3.org/2000/svg">
<path d="M153.297 2.18457C54.5657 17.5968 -13.2277 110.471 2.18457 209.203C17.5968 307.934 110.471 375.728 209.203 360.315C307.934 344.903 375.728 252.029 360.315 153.297C344.903 54.5657 252.029 -13.2277 153.297 2.18457ZM156.951 25.5918C168.199 23.8361 179.365 23.3279 190.289 23.9603C175.985 41.611 154.422 59.7711 121.968 73.3613C91.27 86.2218 59.7875 99.4326 35.6187 121.249C55.9538 72.1091 100.669 34.3777 156.951 25.5918ZM25.5918 205.549C24.2691 197.075 23.6606 188.646 23.7054 180.331C26.6313 172.117 30.354 164.631 34.9014 157.819C55.6025 126.845 92.2874 111.479 131.122 95.2147C175.359 76.6921 201.612 50.2587 216.944 27.8201C225.132 29.7428 233.12 32.2964 240.819 35.4585C238.73 42.0428 235.359 50.4815 229.934 59.8884C218.281 80.0864 194.475 108.991 147.25 131.948C115.893 147.19 76.8827 166.167 53.8396 208.788C47.449 220.611 42.4501 233.824 38.8064 248.576C32.5071 235.256 27.9778 220.834 25.5918 205.549ZM57.421 278.579C67.6692 197.002 111.726 175.558 157.624 153.24C199.521 132.864 225.502 108.068 241.617 85.579C234.822 123.23 217.376 159.078 189.498 192.539C160.922 226.828 132.596 268.63 139.246 318.677C139.92 323.763 140.952 328.841 142.328 333.889C108.683 325.258 78.7922 305.659 57.421 278.579ZM207.691 207.706C257.401 148.059 268.216 89.6991 268.544 51.2477C268.548 50.8875 268.543 50.5525 268.547 50.1922C295.069 67.8718 316.198 93.4785 328.131 124.225C326.603 134.019 323.563 147.801 317.473 162.934C301.976 201.44 275.05 230.244 237.408 248.541C211.891 260.952 183.908 276.23 161.969 302.961C162.318 267.408 183.901 236.248 207.691 207.706ZM205.56 336.906C193.131 338.847 180.799 339.261 168.77 338.31C168.474 337.564 168.189 336.818 167.917 336.069C185.551 304.879 212.693 286.903 247.761 269.859C300.122 244.398 326.005 204.151 338.624 173.78C342.458 253.099 285.754 324.388 205.56 336.906Z" fill="#F0F0F0"/>
</svg>
