<svg fill="none" height="65" width="65" xmlns="http://www.w3.org/2000/svg"><clipPath id="a"><path d="M0 0h64v64H0z" transform="translate(.822 .71)"/></clipPath><g clip-path="url(#a)"><path d="M32.822 64.71c17.673 0 32-14.326 32-32 0-17.673-14.327-32-32-32s-32 14.327-32 32c0 17.674 14.327 32 32 32z" fill="#13b5ec"/><path clip-rule="evenodd" d="M35.222 26.51l7.2-4.2v8.4zm7.2 18l-9.6 5.6-9.6-5.6v-9.8l9.6 5.6 9.6-5.6zm-19.2-22.2l7.2 4.2-7.2 4.2zm10.8 6.2l7.2 4.2-7.2 4.2zm-2.4 8.4l-7.2-4.2 7.2-4.2zm9.6-16.6l-8.4 4.8-8.4-4.8 8.4-5zm-20.4-.8v26.2l12 6.8 12-6.8v-26.2l-12-6.8z" fill="#fff" fill-rule="evenodd"/></g></svg>