<?xml version="1.0" encoding="UTF-8"?>
<svg id="logosandtypes_com" data-name="logosandtypes com" xmlns="http://www.w3.org/2000/svg" viewBox="0 0 150 150">
  <defs>
    <style>
      .cls-1 {
        fill: #ff5f00;
      }

      .cls-2 {
        fill: none;
      }
    </style>
  </defs>
  <g id="Layer_3" data-name="Layer 3">
    <path id="Layer_3-2" data-name="Layer 3-2" class="cls-2" d="M0,0H150V150H0V0Z"/>
  </g>
  <g id="Symbol">
    <path class="cls-1" d="M88.45,8.36c-.7-.12-1.37,.33-1.49,1.04l-8.49,48.15h-6.33L63.64,9.4c-.12-.7-.79-1.16-1.49-1.04C32.01,14.2,8.91,39.87,7,71.25h0c-.07,.59-.1,3.33-.08,4.22h0c0,33.29,23.77,60.99,55.28,67.12,.7,.12,1.37-.33,1.49-1.04l8.49-48.15h6.33l8.45,48.24c.12,.7,.79,1.16,1.49,1.04,30.14-5.88,53.21-31.55,55.15-62.94h0c.07-.59,.1-3.33,.08-4.22h0c.04-33.33-23.73-61.03-55.23-67.16Z"/>
  </g>
</svg>