<svg width="2011" height="1173" viewBox="0 0 2011 1173" fill="none" xmlns="http://www.w3.org/2000/svg">
<path d="M235.93 841.1H298.14L339.62 925.09H422.57L370.73 820.1L401.83 715.11H318.88L294 799.11H235.93V715.11H152.98V925.09H235.93V841.1Z" fill="#F4FF00"/>
<path d="M671.42 715.12H495.15L432.94 925.1H515.89L528.33 883.1H638.24L650.68 925.1H733.63L671.42 715.12ZM540.77 841.1L562.54 767.61H604.02L625.8 841.1H540.77Z" fill="#F4FF00"/>
<path d="M1791.25 715.12H1614.98L1552.77 925.1H1635.72L1648.17 883.1H1758.08L1770.52 925.1H1853.47L1791.26 715.12H1791.25ZM1660.6 841.1L1682.38 767.61H1723.85L1745.63 841.1H1660.61H1660.6Z" fill="#F4FF00"/>
<path d="M1158.75 715.12H982.48L920.27 925.1H1003.22L1015.66 883.1H1125.57L1138.01 925.1H1220.96L1158.74 715.12H1158.75ZM1028.1 841.1L1049.88 767.61H1091.36L1113.13 841.1H1028.1Z" fill="#F4FF00"/>
<path d="M1449.07 875.22L1385.83 715.11H1240.66V925.09H1323.61V767.61H1344.35L1406.56 925.09H1532.03V715.11H1449.07V875.22Z" fill="#F4FF00"/>
<path d="M785.48 767.61V925.09H868.43V767.61H935.82L951.38 715.11H702.53L718.08 767.61H785.48Z" fill="#F4FF00"/>
<path d="M1122.93 380.55L1189.33 156.43H1100.79L1012.26 313.02V156.43H923.72L857.32 380.55H910.44L857.32 559.84H1012.26V448.18L1145.07 605.78L1234.16 470.19L1057.09 380.55H1122.93Z" fill="#F4FF00"/>
</svg>
