<?xml version="1.0" encoding="UTF-8" standalone="no"?>
<!-- Generator: Adobe Illustrator 25.4.1, SVG Export Plug-In . SVG Version: 6.00 Build 0)  -->

<svg
   version="1.0"
   id="katman_1"
   x="0px"
   y="0px"
   viewBox="0 0 908.79999 908.79999"
   xml:space="preserve"
   width="908.79999"
   height="908.79999"
   xmlns="http://www.w3.org/2000/svg"
   xmlns:svg="http://www.w3.org/2000/svg"><defs
   id="defs3" />
<style
   type="text/css"
   id="style1">
	.st0{fill-rule:evenodd;clip-rule:evenodd;fill:url(#SVGID_1_);}
</style>
<linearGradient
   id="SVGID_1_"
   gradientUnits="userSpaceOnUse"
   x1="-47.953499"
   y1="887.74799"
   x2="840.43982"
   y2="903.98163"
   gradientTransform="matrix(1,0,0,-1,56.569048,1352.2724)">
	<stop
   offset="0"
   style="stop-color:#29CCB9"
   id="stop1" />
	<stop
   offset="0.4948"
   style="stop-color:#0091FF"
   id="stop2" />
	<stop
   offset="1"
   style="stop-color:#FF66B7"
   id="stop3" />
</linearGradient>
<path
   class="st0"
   d="m 219.36905,769.37236 c -95.3,-71.2 -157.000002,-184.9 -157.000002,-313 0,-215.6 174.800002,-390.399996 390.400002,-390.399996 178,0 372.3,106.399996 419.3,269.199996 -52.5,-182 -220.3,-315.199996 -419.3,-315.199996 -241,0 -436.400002,195.399996 -436.400002,436.399996 0,241 195.400002,436.4 436.400002,436.4 241,0 436.4,-195.4 436.4,-436.4 v -23 h -24 c -0.7,0 -1.8,0 -3.2,0 -2.8,0 -6.9,-0.1 -12.1,-0.3 -10.3,-0.3 -24.6,-1 -40.6,-2.4 -32.7,-2.8 -70.1,-8.4 -95.5,-18.6 -40.9,-16.3 -64,-38 -90.4,-63.3 l -1.5,-1.5 c -26.4,-25.4 -56.1,-53.9 -107.6,-78.2 -50.7,-23.9 -106.8,-20 -148,-11.6 -20.9,4.3 -38.9,10 -51.6,14.6 -6.4,2.3 -11.5,4.4 -15.1,5.9 -20.7,8.7 -40.9,19.1 -61.2,28.6 0,0 39.9,11 59.7,17.1 0.7,0.2 1.8,0.6 3.3,1.1 2.9,1 7.2,2.5 12.4,4.6 10.4,4.2 24.1,10.6 37.6,19.3 21.3,13.7 39,30.9 46.2,52.1 -45.2,5.9 -87.6,25.8 -119.4,44.5 -19.2,11.3 -35.2,22.6 -46.4,31.1 -5.6,4.2 -10.1,7.8 -13.1,10.3 -2.6,2.1 -43.4,38.1 -43.4,38.1 0,0 52.7,5.6 78.7,10.8 17.3,3.5 40.6,9.1 64.9,17.6 24.4,8.5 49.1,19.7 69.6,34 20.5,14.3 35.6,30.9 43,49.8 21.6,55.2 0.4,109 -42.2,139.2 -42.1,30 -106,37.1 -169.9,-6.8 z m 148.9,68.3 c 17.2,-5.6 33.2,-13.7 47.7,-23.9 57.9,-41.2 88.4,-116.6 58.3,-193.4 -11.8,-30.2 -34.4,-53.3 -59.5,-70.8 -25.1,-17.5 -54,-30.4 -80.8,-39.7 -17.6,-6.1 -34.6,-10.9 -49.4,-14.5 5.3,-3.4 11,-7 17,-10.5 35.4,-20.8 79.9,-39.9 122.6,-39.9 64.4,0 112.3,19.7 158,40.9 4.2,1.9 8.3,3.9 12.5,5.9 40.9,19.2 83.8,39.3 133.7,39.3 48.4,0 86.1,-13.7 112.1,-27.8 -23.1,193.6 -187.9,343.6 -387.7,343.6 -29,0 -57.3,-3.2 -84.5,-9.2 z m 422.6,-362.7 c -17.2,5.9 -38,10.1 -62.4,10.1 -39.1,0 -72.8,-15.7 -115.5,-35.6 -3.8,-1.8 -7.6,-3.5 -11.5,-5.3 -42.8,-19.8 -92.2,-40.8 -156.6,-44.6 -8.6,-42.6 -40.9,-71.8 -68.6,-89.5 -3.1,-2 -6.2,-3.9 -9.2,-5.6 2.8,-0.6 5.6,-1.3 8.5,-1.9 37.2,-7.7 81.6,-9.6 119.2,8.1 44.6,21 69.8,45.2 96,70.3 l 0.9,0.9 c 27,25.9 55.5,53 105.2,72.9 27.5,11 63.3,16.9 94,20.2 z"
   id="path3"
   style="fill:url(#SVGID_1_)" />
</svg>
