<svg fill="none" height="70" width="70" xmlns="http://www.w3.org/2000/svg"><clipPath id="a"><path d="M0 0h70v70H0z"/></clipPath><g clip-path="url(#a)"><path d="M35 70c19.33 0 35-15.67 35-35S54.33 0 35 0 0 15.67 0 35s15.67 35 35 35z" fill="#ff0420"/><path d="M24.799 44.303c-2.084 0-3.792-.49-5.123-1.472-1.313-.998-1.97-2.416-1.97-4.255 0-.386.044-.858.131-1.419.228-1.26.552-2.776.972-4.544 1.191-4.816 4.265-7.224 9.22-7.224 1.35 0 2.558.227 3.626.683 1.068.437 1.909 1.103 2.522 1.996.613.876.92 1.926.92 3.152 0 .368-.044.832-.132 1.393a59.5 59.5 0 0 1-.946 4.544c-.613 2.4-1.672 4.195-3.178 5.386-1.506 1.173-3.52 1.76-6.042 1.76zm.367-3.783c.981 0 1.813-.29 2.496-.867.7-.578 1.2-1.462 1.498-2.653.402-1.647.709-3.083.919-4.309a6.02 6.02 0 0 0 .105-1.13c0-1.593-.832-2.39-2.495-2.39-.981 0-1.822.29-2.523.867-.682.578-1.173 1.463-1.47 2.653-.316 1.174-.631 2.61-.946 4.309a5.61 5.61 0 0 0-.105 1.103c0 1.611.84 2.417 2.521 2.417zm11.137 3.52c-.193 0-.342-.061-.447-.184a.628.628 0 0 1-.079-.473l3.625-17.075a.752.752 0 0 1 .29-.473.801.801 0 0 1 .498-.184h6.988c1.944 0 3.503.403 4.676 1.209 1.19.805 1.786 1.97 1.786 3.494 0 .437-.052.893-.157 1.366-.438 2.014-1.322 3.502-2.653 4.465-1.314.963-3.118 1.445-5.412 1.445h-3.546l-1.209 5.753a.753.753 0 0 1-.289.473.8.8 0 0 1-.499.184zm9.299-10.035c.735 0 1.375-.202 1.918-.604.56-.403.928-.981 1.103-1.734.052-.298.079-.56.079-.788 0-.508-.15-.893-.447-1.156-.298-.28-.806-.42-1.524-.42H43.58l-.998 4.702z" fill="#fff"/></g></svg>