<svg fill="none" height="19" width="18" xmlns="http://www.w3.org/2000/svg"><clipPath id="a"><path d="M0 0h17v18H0z" transform="translate(.5 .42)"/></clipPath><g clip-path="url(#a)"><path d="M13.328 6.32c-.313-.194-.72-.194-1.067 0L9.813 7.822 8.15 8.8l-2.448 1.5c-.313.195-.72.195-1.068 0L2.69 9.129a1.134 1.134 0 0 1-.534-.946V5.867c0-.393.187-.75.534-.947l1.914-1.141c.313-.195.72-.195 1.067 0l1.915 1.14c.312.195.533.555.533.948v1.5l1.663-1.01V4.854c0-.392-.187-.749-.534-.947L5.705 1.756c-.312-.195-.72-.195-1.067 0L1.034 3.908a1.061 1.061 0 0 0-.534.947v4.338c0 .393.187.749.534.947l3.607 2.153c.313.194.721.194 1.068 0l2.448-1.47 1.662-1.01 2.448-1.47c.313-.194.721-.194 1.068 0l1.914 1.142c.313.194.534.554.534.947v2.314c0 .393-.187.75-.534.947l-1.914 1.174c-.313.194-.72.194-1.068 0l-1.914-1.142a1.134 1.134 0 0 1-.534-.946v-1.502L8.157 12.29v1.501c0 .393.187.75.534.947l3.607 2.153c.313.194.72.194 1.068 0l3.607-2.153c.313-.194.534-.554.534-.947V9.452c0-.392-.187-.748-.534-.946z" fill="#8247e5"/></g></svg>