<svg xmlns="http://www.w3.org/2000/svg" width="400" height="400" viewBox="0 0 400 400">
<g>
<path d="M 400.00,400.00 L 0.00,400.00 L 0.00,0.00 L 400.00,0.00 M 120.79,115.97 L 119.62,116.23 L 118.49,116.53 L 118.05,116.74 L 117.24,117.20 L 117.00,117.50 L 116.27,118.08 L 115.60,118.42 L 115.20,118.56 L 113.49,119.00 L 112.63,119.01 L 109.54,119.59 L 107.32,120.45 L 106.50,121.00 L 103.71,122.41 L 102.77,122.73 L 102.34,122.83 L 101.53,122.99 L 101.22,122.99 L 99.42,123.51 L 98.49,124.26 L 98.32,124.75 L 97.24,126.98 L 96.38,128.14 L 95.91,128.52 L 94.95,129.15 L 94.47,129.25 L 93.52,129.28 L 93.07,129.04 L 91.25,128.51 L 90.29,128.67 L 89.98,128.96 L 89.49,129.66 L 89.48,130.17 L 89.61,131.28 L 89.97,131.94 L 90.47,133.20 L 90.58,134.01 L 90.51,134.47 L 90.30,135.42 L 90.06,136.01 L 89.49,137.28 L 89.07,138.09 L 87.60,141.40 L 87.25,142.39 L 87.14,142.80 L 86.97,143.54 L 86.97,143.78 L 86.51,145.57 L 85.85,146.93 L 85.44,147.47 L 84.89,148.71 L 84.63,149.85 L 84.56,150.53 L 84.43,153.52 L 84.56,155.18 L 84.95,158.53 L 85.32,160.03 L 85.72,161.48 L 85.96,162.11 L 86.45,163.27 L 86.74,163.71 L 87.62,166.08 L 87.75,167.86 L 87.57,168.71 L 87.40,170.30 L 87.58,171.18 L 87.87,171.62 L 88.60,172.53 L 89.23,173.07 L 90.68,174.25 L 91.73,175.02 L 95.14,177.94 L 95.95,178.81 L 96.21,179.17 L 96.62,179.82 L 96.63,180.02 L 96.88,182.75 L 97.15,183.23 L 97.51,183.52 L 97.77,183.63 L 98.99,183.99 L 99.75,183.99 L 101.13,184.18 L 102.03,184.50 L 102.47,184.76 L 103.36,185.36 L 103.80,185.77 L 104.69,186.65 L 105.15,187.20 L 107.79,190.42 L 121.07,190.27 L 124.74,190.22 L 126.84,190.17 L 127.73,190.13 L 129.40,190.06 L 130.10,190.02 L 131.39,189.92 L 131.92,189.85 L 132.89,189.72 L 133.27,189.64 L 133.96,189.47 L 134.22,189.36 L 135.03,188.90 L 135.21,188.59 L 136.56,187.56 L 137.23,187.46 L 137.64,187.47 L 138.51,187.55 L 139.03,187.66 L 140.53,187.88 L 141.22,187.87 L 141.44,187.78 L 141.80,187.52 L 141.88,187.29 L 142.00,186.75 L 142.00,186.35 L 142.23,185.39 L 142.65,184.86 L 143.02,184.62 L 143.87,184.18 L 144.49,183.97 L 145.85,183.56 L 146.75,183.35 L 149.49,182.79 L 150.80,182.70 L 151.36,182.82 L 152.44,183.19 L 153.06,183.58 L 154.37,184.51 L 155.27,185.22 L 158.23,187.89 L 159.06,188.77 L 159.37,189.15 L 159.93,189.88 L 160.08,190.14 L 160.75,191.70 L 161.25,193.12 L 161.52,193.97 L 162.61,197.67 L 163.12,199.70 L 164.09,203.77 L 164.43,205.53 L 164.73,207.21 L 164.82,207.91 L 164.97,209.19 L 164.98,209.63 L 165.43,212.20 L 165.74,212.96 L 165.92,213.27 L 166.29,213.83 L 166.50,214.00 L 167.56,215.51 L 168.00,216.81 L 168.00,217.40 L 168.45,219.58 L 169.12,221.07 L 169.57,221.72 L 170.52,222.95 L 171.04,223.35 L 172.07,224.00 L 172.53,224.00 L 174.01,224.72 L 175.12,225.78 L 175.57,226.46 L 177.19,228.36 L 178.38,229.31 L 178.84,229.45 L 179.72,229.90 L 180.47,230.40 L 180.89,230.73 L 182.67,232.19 L 183.50,233.03 L 186.14,235.68 L 186.98,236.52 L 187.35,236.88 L 188.03,237.55 L 188.27,237.78 L 189.12,238.82 L 189.48,239.58 L 189.56,240.05 L 189.67,241.05 L 189.64,241.70 L 189.52,243.09 L 189.39,243.99 L 188.30,247.79 L 187.10,250.48 L 186.39,251.69 L 184.94,253.97 L 184.24,254.73 L 183.55,255.43 L 183.24,255.64 L 182.64,255.97 L 182.38,255.98 L 181.75,256.14 L 181.18,256.40 L 180.85,256.58 L 179.43,257.45 L 178.73,258.00 L 176.41,259.46 L 174.91,259.90 L 174.06,259.85 L 172.24,259.57 L 171.06,259.15 L 169.84,258.68 L 169.13,258.38 L 167.65,257.72 L 166.80,257.32 L 163.69,255.72 L 162.26,254.80 L 161.77,254.28 L 160.89,253.20 L 160.55,252.49 L 159.89,250.91 L 159.54,249.83 L 158.56,245.32 L 158.43,243.84 L 158.42,243.15 L 158.46,241.83 L 158.54,241.27 L 158.51,237.46 L 158.21,236.21 L 157.97,235.57 L 157.43,234.25 L 157.06,233.54 L 155.60,230.01 L 155.27,228.87 L 155.16,228.38 L 155.00,227.44 L 155.00,227.10 L 154.40,224.71 L 153.51,223.05 L 152.95,222.44 L 151.45,220.31 L 150.78,218.80 L 150.74,218.24 L 150.29,216.94 L 149.75,216.54 L 149.42,216.67 L 148.20,216.59 L 147.26,216.14 L 146.88,215.77 L 144.51,213.81 L 142.73,212.64 L 141.74,212.12 L 139.69,211.14 L 138.58,210.73 L 136.29,209.94 L 135.07,209.62 L 132.56,209.03 L 131.24,208.82 L 128.53,208.43 L 127.11,208.32 L 124.22,208.15 L 122.72,208.14 L 119.67,208.18 L 118.09,208.28 L 114.20,208.63 L 111.84,208.94 L 110.76,209.15 L 108.65,209.59 L 107.68,209.87 L 105.78,210.47 L 104.89,210.84 L 101.47,212.48 L 99.86,213.61 L 96.70,216.10 L 95.06,217.72 L 91.74,221.24 L 90.11,223.23 L 89.56,224.11 L 88.61,225.79 L 88.36,226.58 L 88.00,228.12 L 88.00,228.90 L 87.87,229.97 L 87.65,230.88 L 87.50,231.39 L 86.76,233.53 L 86.29,234.52 L 85.52,236.33 L 85.22,237.31 L 85.18,237.72 L 85.16,238.50 L 85.24,238.86 L 85.48,239.55 L 85.70,239.89 L 86.27,241.58 L 86.20,242.66 L 85.92,243.09 L 85.21,245.04 L 85.02,246.63 L 85.08,247.50 L 85.27,249.26 L 85.51,250.14 L 86.08,251.88 L 86.50,252.67 L 87.16,254.11 L 87.63,255.29 L 87.87,255.93 L 88.76,258.62 L 89.05,259.81 L 89.89,262.22 L 90.73,263.79 L 91.36,264.64 L 92.74,266.39 L 93.71,267.42 L 94.72,268.48 L 95.30,269.06 L 96.52,270.27 L 97.22,270.94 L 104.32,277.75 L 114.20,278.88 L 118.27,279.31 L 120.89,279.57 L 122.06,279.67 L 124.28,279.85 L 125.14,279.91 L 126.68,280.00 L 127.10,280.00 L 128.75,279.88 L 130.02,279.68 L 130.72,279.53 L 133.70,278.79 L 135.31,278.27 L 138.57,277.12 L 140.14,276.45 L 143.20,275.06 L 144.49,274.32 L 146.29,273.34 L 147.35,272.83 L 147.82,272.65 L 149.56,272.14 L 150.32,272.18 L 151.80,272.49 L 152.57,272.96 L 154.18,274.10 L 155.16,275.00 L 157.86,277.12 L 158.65,277.61 L 158.97,277.76 L 159.55,278.00 L 159.72,278.00 L 160.57,278.22 L 160.87,278.54 L 160.82,278.75 L 160.86,279.40 L 160.98,280.13 L 161.08,280.60 L 161.58,282.76 L 161.94,284.00 L 162.97,288.50 L 163.26,290.13 L 163.37,290.90 L 163.57,292.38 L 163.63,293.00 L 164.46,298.09 L 165.34,301.53 L 165.87,303.07 L 166.42,304.57 L 166.71,305.24 L 167.28,306.52 L 167.57,307.05 L 168.15,308.03 L 168.43,308.38 L 168.98,308.99 L 169.24,309.13 L 170.48,310.38 L 171.00,311.51 L 171.00,312.06 L 171.71,313.80 L 172.78,314.85 L 173.50,315.18 L 175.27,316.18 L 176.00,316.80 L 176.00,316.98 L 176.39,317.42 L 177.02,317.85 L 177.47,318.11 L 178.46,318.67 L 179.06,318.97 L 180.31,319.59 L 181.00,319.90 L 182.94,320.85 L 184.08,321.47 L 184.53,321.75 L 185.35,322.29 L 185.61,322.50 L 186.00,322.89 L 186.00,323.01 L 186.51,323.70 L 187.27,324.09 L 187.75,324.18 L 188.51,324.27 L 189.25,324.33 L 190.96,324.44 L 192.07,324.49 L 194.45,324.61 L 195.79,324.66 L 198.57,324.76 L 200.02,324.81 L 203.46,324.90 L 205.34,324.93 L 206.11,324.93 L 207.55,324.90 L 208.15,324.86 L 209.25,324.76 L 209.72,324.67 L 211.40,324.22 L 212.17,323.80 L 213.73,322.81 L 214.77,322.06 L 218.30,319.90 L 219.37,319.40 L 219.81,319.24 L 220.61,319.00 L 220.87,319.00 L 221.86,318.72 L 222.66,318.27 L 223.12,317.93 L 225.07,316.32 L 226.11,315.23 L 228.21,312.88 L 229.16,311.61 L 230.95,309.02 L 231.56,307.81 L 233.21,304.94 L 233.80,304.04 L 234.08,303.66 L 234.61,302.94 L 234.82,302.70 L 235.57,301.44 L 235.92,300.31 L 236.03,299.55 L 236.22,297.88 L 236.26,296.79 L 236.31,294.44 L 236.28,292.95 L 236.31,289.86 L 236.40,288.05 L 236.47,287.33 L 236.63,286.03 L 236.73,285.63 L 236.96,285.00 L 237.08,285.00 L 237.73,284.34 L 238.01,283.37 L 238.02,282.75 L 238.22,280.79 L 238.63,279.72 L 239.03,279.22 L 239.98,278.21 L 240.74,277.65 L 242.45,276.45 L 243.67,275.69 L 246.78,273.58 L 247.57,272.96 L 247.85,272.72 L 248.33,272.28 L 248.40,272.15 L 248.91,271.86 L 249.47,271.80 L 249.83,271.83 L 251.46,272.11 L 252.43,272.44 L 254.42,273.19 L 255.36,273.69 L 257.16,274.74 L 257.79,275.31 L 259.52,276.50 L 260.66,277.00 L 261.05,277.00 L 261.93,277.13 L 262.79,277.34 L 263.31,277.49 L 265.61,278.21 L 266.82,278.68 L 269.53,279.53 L 271.33,279.84 L 272.47,279.87 L 273.67,279.88 L 274.37,279.85 L 275.85,279.78 L 276.72,279.71 L 278.58,279.56 L 279.67,279.45 L 281.99,279.22 L 283.35,279.08 L 295.50,277.81 L 302.28,271.15 L 304.31,269.13 L 305.45,267.95 L 305.94,267.41 L 307.65,265.39 L 308.27,264.44 L 309.38,262.53 L 309.84,261.42 L 310.70,259.05 L 311.17,257.50 L 312.97,250.35 L 313.78,245.83 L 313.97,243.83 L 314.13,241.88 L 314.15,240.99 L 314.16,239.28 L 314.11,238.53 L 313.97,237.10 L 313.84,236.52 L 313.54,235.43 L 313.33,235.03 L 312.40,232.88 L 312.01,231.61 L 312.01,231.28 L 311.79,230.12 L 311.46,229.06 L 311.22,228.43 L 310.11,225.71 L 309.44,224.32 L 308.06,221.59 L 307.45,220.61 L 306.88,219.72 L 306.64,219.44 L 306.22,219.00 L 306.09,219.00 L 305.46,218.78 L 304.86,218.44 L 304.50,218.19 L 302.92,217.01 L 302.11,216.25 L 299.92,214.27 L 298.60,213.16 L 297.99,212.70 L 295.59,211.09 L 294.30,210.54 L 292.99,210.03 L 292.25,209.83 L 290.74,209.43 L 289.87,209.27 L 288.06,208.95 L 287.00,208.80 L 284.79,208.52 L 283.50,208.37 L 280.72,208.08 L 279.07,207.93 L 278.34,207.87 L 275.62,207.72 L 274.50,207.74 L 272.38,207.83 L 271.41,207.97 L 269.50,208.32 L 268.50,208.59 L 264.17,209.69 L 262.81,210.02 L 262.23,210.16 L 261.15,210.40 L 260.78,210.48 L 259.13,211.25 L 257.64,212.26 L 256.74,212.98 L 254.86,214.54 L 253.82,215.50 L 251.69,217.52 L 250.57,218.66 L 248.36,220.94 L 247.12,222.26 L 246.60,222.84 L 245.63,223.95 L 245.23,224.46 L 244.49,225.43 L 244.19,225.88 L 243.15,227.64 L 242.81,228.54 L 242.23,230.41 L 241.99,231.56 L 241.58,233.99 L 241.35,235.79 L 241.27,236.70 L 241.13,238.53 L 241.10,239.37 L 241.06,241.00 L 241.09,241.67 L 241.04,245.23 L 240.81,247.42 L 240.60,248.42 L 240.13,250.35 L 239.80,251.21 L 239.09,252.86 L 238.65,253.57 L 237.72,254.91 L 237.17,255.46 L 236.03,256.47 L 235.39,256.85 L 234.05,257.51 L 233.32,257.71 L 231.80,258.00 L 230.98,258.00 L 228.97,258.28 L 227.59,258.69 L 227.10,258.95 L 225.97,259.20 L 225.02,259.14 L 224.47,259.01 L 223.31,258.69 L 222.68,258.45 L 221.39,257.91 L 220.71,257.56 L 217.97,256.00 L 216.66,255.01 L 214.12,252.93 L 213.12,251.79 L 210.86,248.12 L 209.86,245.37 L 209.66,244.09 L 209.51,242.84 L 209.52,242.29 L 209.59,241.25 L 209.71,240.84 L 210.01,240.08 L 210.26,239.85 L 210.81,239.49 L 211.18,239.49 L 212.61,239.21 L 213.45,238.82 L 213.68,238.58 L 213.88,238.16 L 213.52,238.25 L 213.12,238.48 L 212.22,238.76 L 212.15,238.38 L 212.37,237.89 L 213.56,234.97 L 214.14,234.18 L 214.83,233.53 L 215.29,233.17 L 217.42,231.68 L 218.67,231.02 L 222.17,228.71 L 223.11,227.91 L 223.46,227.54 L 224.06,226.83 L 224.19,226.55 L 224.81,225.60 L 225.41,224.88 L 225.78,224.52 L 227.39,223.05 L 228.24,222.50 L 230.63,220.65 L 231.27,220.02 L 231.51,219.74 L 231.93,219.21 L 232.03,219.00 L 234.51,212.09 L 235.41,207.42 L 235.51,204.95 L 235.79,201.15 L 236.09,198.81 L 236.31,197.74 L 236.77,195.64 L 237.06,194.69 L 237.69,192.83 L 238.07,191.99 L 238.86,190.36 L 239.33,189.63 L 240.30,188.22 L 240.85,187.60 L 241.99,186.40 L 242.63,185.87 L 243.96,184.87 L 244.70,184.44 L 249.10,181.86 L 252.60,183.92 L 256.00,185.55 L 257.21,186.00 L 257.77,186.17 L 258.84,186.47 L 259.28,186.55 L 261.99,187.37 L 263.61,188.15 L 264.05,188.55 L 265.37,189.22 L 266.75,189.56 L 267.74,189.68 L 269.94,189.89 L 271.40,189.95 L 272.92,190.00 L 273.78,190.02 L 275.57,190.05 L 276.57,190.06 L 281.38,190.09 L 283.96,190.10 L 284.99,190.09 L 286.87,190.05 L 287.59,190.00 L 288.91,189.88 L 289.41,189.79 L 290.31,189.57 L 290.65,189.42 L 291.27,189.08 L 291.53,188.85 L 292.45,187.77 L 293.05,186.94 L 294.15,185.61 L 294.91,184.93 L 295.31,184.70 L 296.97,184.00 L 297.95,184.00 L 300.53,183.35 L 301.25,182.84 L 301.59,182.50 L 302.25,181.74 L 302.56,181.27 L 304.53,178.60 L 306.08,176.71 L 306.74,176.02 L 308.97,173.33 L 310.12,171.52 L 310.57,170.54 L 311.37,168.51 L 311.66,167.36 L 312.18,164.95 L 312.37,163.55 L 313.17,159.09 L 313.52,157.62 L 313.69,156.98 L 314.04,155.77 L 314.20,155.32 L 314.74,153.51 L 314.88,152.48 L 314.85,151.99 L 314.70,150.98 L 314.51,150.42 L 314.05,149.22 L 313.69,148.48 L 312.50,144.99 L 312.22,143.74 L 312.13,143.16 L 312.00,142.04 L 312.00,141.58 L 311.90,139.97 L 311.72,139.16 L 311.56,138.85 L 311.20,138.31 L 310.94,138.13 L 310.37,137.81 L 310.00,137.71 L 308.69,136.98 L 308.17,136.22 L 308.09,135.71 L 308.06,134.62 L 308.22,133.97 L 308.68,132.60 L 309.09,131.83 L 309.62,129.98 L 309.47,128.99 L 309.21,128.68 L 308.56,128.21 L 308.11,128.23 L 307.14,128.47 L 306.59,128.92 L 305.22,129.45 L 304.14,129.45 L 303.63,129.32 L 302.67,128.96 L 302.35,128.67 L 301.86,128.04 L 301.91,127.66 L 301.99,125.95 L 301.84,125.08 L 301.66,124.74 L 301.20,124.15 L 300.84,123.93 L 300.04,123.55 L 299.50,123.41 L 298.23,123.02 L 297.20,122.64 L 296.64,122.41 L 294.31,121.41 L 293.29,120.89 L 290.13,119.56 L 289.15,119.25 L 288.75,119.15 L 287.99,119.00 L 287.74,119.00 L 285.64,118.58 L 283.92,117.98 L 283.17,117.59 L 279.58,116.50 L 276.73,116.20 L 275.27,116.26 L 272.40,116.50 L 271.15,116.82 L 269.96,117.17 L 269.44,117.39 L 268.48,117.86 L 268.12,118.15 L 265.75,119.46 L 264.06,120.00 L 263.42,120.00 L 262.17,120.30 L 261.18,120.80 L 260.62,121.17 L 259.48,122.02 L 258.87,122.56 L 257.62,123.72 L 256.98,124.41 L 253.34,127.71 L 252.17,128.55 L 251.67,128.85 L 250.73,129.35 L 250.39,129.44 L 248.39,130.61 L 247.56,131.95 L 247.36,132.95 L 246.36,135.25 L 245.27,136.22 L 244.53,136.40 L 243.33,136.93 L 242.75,137.53 L 242.54,138.05 L 242.15,139.26 L 241.99,140.18 L 241.83,141.17 L 241.75,141.75 L 241.59,143.00 L 241.51,143.73 L 240.93,150.04 L 240.78,152.19 L 240.72,153.16 L 240.63,155.00 L 240.62,155.71 L 240.47,158.40 L 240.27,159.70 L 240.10,160.17 L 239.69,161.01 L 239.39,161.32 L 238.72,161.88 L 238.25,162.13 L 236.66,163.46 L 236.00,164.52 L 236.00,164.97 L 235.65,166.79 L 235.07,167.65 L 234.63,167.89 L 233.64,168.25 L 233.01,168.23 L 231.64,168.07 L 230.84,167.79 L 229.28,167.34 L 228.50,167.25 L 228.18,167.31 L 227.60,167.50 L 227.33,167.72 L 226.80,168.24 L 226.51,168.63 L 225.78,169.50 L 225.35,169.83 L 225.16,169.88 L 224.76,169.89 L 224.55,169.79 L 224.12,169.50 L 223.87,169.25 L 222.05,168.37 L 220.32,168.00 L 219.45,168.00 L 216.70,167.45 L 215.06,166.62 L 214.54,166.05 L 213.49,165.24 L 212.50,164.70 L 211.88,164.43 L 209.15,163.40 L 207.58,162.97 L 204.37,162.21 L 202.87,162.00 L 201.41,161.83 L 200.76,161.80 L 199.51,161.79 L 199.00,161.85 L 197.63,162.01 L 196.45,162.14 L 195.77,162.21 L 192.88,162.52 L 191.50,162.66 L 187.45,163.51 L 186.39,163.93 L 185.97,164.17 L 185.23,164.67 L 185.00,164.94 L 183.85,165.76 L 182.61,166.38 L 181.82,166.69 L 180.13,167.32 L 179.19,167.62 L 177.26,168.18 L 176.27,168.42 L 169.03,170.12 L 165.46,167.40 L 162.28,164.47 L 160.77,162.36 L 160.26,161.07 L 159.78,159.72 L 159.59,158.96 L 159.24,157.36 L 159.10,156.45 L 158.85,154.54 L 158.75,153.45 L 158.58,151.17 L 158.51,149.87 L 158.30,146.26 L 158.15,144.22 L 158.07,143.36 L 157.91,141.76 L 157.81,141.11 L 157.62,139.91 L 157.50,139.44 L 157.26,138.58 L 157.12,138.26 L 156.83,137.70 L 156.65,137.51 L 155.89,137.00 L 155.38,137.00 L 154.69,136.73 L 154.18,136.30 L 153.91,135.99 L 152.86,134.52 L 152.47,133.57 L 150.87,130.97 L 150.24,130.28 L 149.93,130.03 L 149.32,129.60 L 149.04,129.51 L 147.01,128.30 L 145.65,127.04 L 145.08,126.33 L 144.06,124.88 L 143.80,124.25 L 143.58,123.63 L 143.55,123.38 L 143.56,122.90 L 143.67,122.73 L 143.81,122.18 L 143.55,122.16 L 143.27,122.33 L 142.17,122.35 L 141.33,121.90 L 140.99,121.49 L 140.22,120.91 L 139.48,120.57 L 139.03,120.43 L 137.07,120.00 L 136.03,120.00 L 132.79,119.49 L 131.10,118.66 L 130.50,118.00 L 129.35,117.16 L 128.31,116.70 L 127.70,116.53 L 125.05,115.97 L 123.63,115.92 M 198.22,73.56 L 192.79,74.05 L 190.20,74.62 L 187.65,75.23 L 186.44,75.60 L 184.08,76.40 L 183.00,76.86 L 180.90,77.83 L 179.98,78.37 L 178.22,79.50 L 177.50,80.11 L 175.52,81.41 L 174.11,82.05 L 173.58,82.15 L 172.13,83.05 L 171.54,84.15 L 171.49,84.90 L 170.91,86.72 L 170.16,87.91 L 169.69,88.40 L 168.73,89.26 L 168.27,89.48 L 167.38,89.73 L 167.05,89.53 L 166.78,89.66 L 166.60,90.02 L 166.52,90.32 L 166.22,91.77 L 166.16,92.77 L 165.74,95.64 L 165.54,96.45 L 165.43,96.76 L 165.20,97.31 L 165.09,97.45 L 164.63,98.72 L 164.34,100.12 L 164.21,101.03 L 163.97,102.95 L 163.87,104.02 L 163.69,106.21 L 163.63,107.33 L 163.52,109.55 L 163.50,110.59 L 163.47,112.61 L 163.50,113.45 L 163.58,115.02 L 163.66,115.54 L 163.85,116.41 L 164.00,116.50 L 164.71,117.43 L 165.01,118.34 L 165.01,118.81 L 165.20,119.74 L 165.48,120.63 L 165.70,121.19 L 166.18,122.37 L 166.48,123.04 L 167.11,124.44 L 167.47,125.20 L 169.04,128.36 L 169.92,129.99 L 171.74,133.24 L 172.65,134.71 L 175.04,137.91 L 176.85,139.61 L 177.94,140.30 L 180.29,141.60 L 181.75,142.15 L 184.89,143.20 L 186.85,143.70 L 190.92,144.57 L 193.04,144.84 L 197.32,145.26 L 199.37,145.30 L 203.34,145.26 L 205.05,145.06 L 206.69,144.84 L 207.40,144.68 L 208.76,144.33 L 209.32,144.11 L 212.27,143.33 L 214.51,143.00 L 215.41,143.00 L 218.44,142.41 L 220.40,141.51 L 221.10,140.91 L 223.12,139.24 L 224.31,138.34 L 224.62,138.16 L 225.34,137.46 L 226.05,136.60 L 226.48,136.02 L 227.38,134.79 L 227.87,134.08 L 228.86,132.60 L 229.36,131.82 L 230.85,129.56 L 231.80,128.19 L 232.22,127.61 L 233.03,126.55 L 233.34,126.18 L 233.88,125.57 L 234.03,125.48 L 234.61,124.51 L 234.68,123.56 L 234.52,123.08 L 234.41,122.13 L 234.46,121.30 L 234.53,120.84 L 234.94,118.85 L 235.32,117.91 L 235.85,116.08 L 236.13,114.63 L 236.22,113.82 L 236.50,110.42 L 236.47,108.66 L 236.32,105.17 L 236.08,103.67 L 235.82,102.24 L 235.65,101.64 L 235.29,100.52 L 235.07,100.11 L 234.03,97.51 L 233.45,95.47 L 233.32,94.61 L 232.63,92.12 L 232.30,91.41 L 232.13,91.13 L 231.77,90.64 L 231.60,90.50 L 230.29,88.94 L 229.31,87.39 L 228.92,86.59 L 227.33,84.22 L 226.05,82.89 L 225.50,82.59 L 223.93,81.61 L 223.11,80.98 L 222.96,80.78 L 222.00,79.91 L 221.04,79.26 L 220.43,78.91 L 217.68,77.51 L 216.03,76.83 L 212.60,75.51 L 210.89,74.99 L 207.55,74.08 L 206.17,73.88 L 202.26,73.54 L 199.58,73.49 Z" fill="rgb(0,0,0)"/>
<path d="M 125.05,115.97 L 127.70,116.53 L 128.31,116.70 L 129.35,117.16 L 130.50,118.00 L 131.10,118.66 L 132.79,119.49 L 136.03,120.00 L 137.07,120.00 L 139.03,120.43 L 139.48,120.57 L 140.22,120.91 L 140.99,121.49 L 141.33,121.90 L 142.17,122.35 L 143.27,122.33 L 143.55,122.16 L 143.81,122.18 L 143.67,122.73 L 143.56,122.90 L 143.55,123.38 L 143.58,123.63 L 143.80,124.25 L 144.06,124.88 L 145.08,126.33 L 145.65,127.04 L 147.01,128.30 L 149.04,129.51 L 149.32,129.60 L 149.93,130.03 L 150.24,130.28 L 150.87,130.97 L 152.47,133.57 L 152.86,134.52 L 153.91,135.99 L 154.18,136.30 L 154.69,136.73 L 155.38,137.00 L 155.89,137.00 L 156.65,137.51 L 156.83,137.70 L 157.12,138.26 L 157.26,138.58 L 157.50,139.44 L 157.62,139.91 L 157.81,141.11 L 157.91,141.76 L 158.07,143.36 L 158.15,144.22 L 158.30,146.26 L 158.51,149.87 L 158.58,151.17 L 158.75,153.45 L 158.85,154.54 L 159.10,156.45 L 159.24,157.36 L 159.59,158.96 L 159.78,159.72 L 160.26,161.07 L 160.77,162.36 L 162.28,164.47 L 165.46,167.40 L 169.03,170.12 L 176.27,168.42 L 177.26,168.18 L 179.19,167.62 L 180.13,167.32 L 181.82,166.69 L 182.61,166.38 L 183.85,165.76 L 185.00,164.94 L 185.23,164.67 L 185.97,164.17 L 186.39,163.93 L 187.45,163.51 L 191.50,162.66 L 192.88,162.52 L 195.77,162.21 L 196.45,162.14 L 197.63,162.01 L 199.00,161.85 L 199.51,161.79 L 200.76,161.80 L 201.41,161.83 L 202.87,162.00 L 204.37,162.21 L 207.58,162.97 L 209.15,163.40 L 211.88,164.43 L 212.50,164.70 L 213.49,165.24 L 214.54,166.05 L 215.06,166.62 L 216.70,167.45 L 219.45,168.00 L 220.32,168.00 L 222.05,168.37 L 223.87,169.25 L 224.12,169.50 L 224.55,169.79 L 224.76,169.89 L 225.16,169.88 L 225.35,169.83 L 225.78,169.50 L 226.51,168.63 L 226.80,168.24 L 227.33,167.72 L 227.60,167.50 L 228.18,167.31 L 228.50,167.25 L 229.28,167.34 L 230.84,167.79 L 231.64,168.07 L 233.01,168.23 L 233.64,168.25 L 234.63,167.89 L 235.07,167.65 L 235.65,166.79 L 236.00,164.97 L 236.00,164.52 L 236.66,163.46 L 238.25,162.13 L 238.72,161.88 L 239.39,161.32 L 239.69,161.01 L 240.10,160.17 L 240.27,159.70 L 240.47,158.40 L 240.62,155.71 L 240.63,155.00 L 240.72,153.16 L 240.78,152.19 L 240.93,150.04 L 241.51,143.73 L 241.59,143.00 L 241.75,141.75 L 241.83,141.17 L 241.99,140.18 L 242.15,139.26 L 242.54,138.05 L 242.75,137.53 L 243.33,136.93 L 244.53,136.40 L 245.27,136.22 L 246.36,135.25 L 247.36,132.95 L 247.56,131.95 L 248.39,130.61 L 250.39,129.44 L 250.73,129.35 L 251.67,128.85 L 252.17,128.55 L 253.34,127.71 L 256.98,124.41 L 257.62,123.72 L 258.87,122.56 L 259.48,122.02 L 260.62,121.17 L 261.18,120.80 L 262.17,120.30 L 263.42,120.00 L 264.06,120.00 L 265.75,119.46 L 268.12,118.15 L 268.48,117.86 L 269.44,117.39 L 269.96,117.17 L 271.15,116.82 L 272.40,116.50 L 275.27,116.26 L 276.73,116.20 L 279.58,116.50 L 283.17,117.59 L 283.92,117.98 L 285.64,118.58 L 287.74,119.00 L 287.99,119.00 L 288.75,119.15 L 289.15,119.25 L 290.13,119.56 L 293.29,120.89 L 294.31,121.41 L 296.64,122.41 L 297.20,122.64 L 298.23,123.02 L 299.50,123.41 L 300.04,123.55 L 300.84,123.93 L 301.20,124.15 L 301.66,124.74 L 301.84,125.08 L 301.99,125.95 L 301.91,127.66 L 301.86,128.04 L 302.35,128.67 L 302.67,128.96 L 303.63,129.32 L 304.14,129.45 L 305.22,129.45 L 306.59,128.92 L 307.14,128.47 L 308.11,128.23 L 308.56,128.21 L 309.21,128.68 L 309.47,128.99 L 309.62,129.98 L 309.09,131.83 L 308.68,132.60 L 308.22,133.97 L 308.06,134.62 L 308.09,135.71 L 308.17,136.22 L 308.69,136.98 L 310.00,137.71 L 310.37,137.81 L 310.94,138.13 L 311.20,138.31 L 311.56,138.85 L 311.72,139.16 L 311.90,139.97 L 312.00,141.58 L 312.00,142.04 L 312.13,143.16 L 312.22,143.74 L 312.50,144.99 L 313.69,148.48 L 314.05,149.22 L 314.51,150.42 L 314.70,150.98 L 314.85,151.99 L 314.88,152.48 L 314.74,153.51 L 314.20,155.32 L 314.04,155.77 L 313.69,156.98 L 313.52,157.62 L 313.17,159.09 L 312.37,163.55 L 312.18,164.95 L 311.66,167.36 L 311.37,168.51 L 310.57,170.54 L 310.12,171.52 L 308.97,173.33 L 306.74,176.02 L 306.08,176.71 L 304.53,178.60 L 302.56,181.27 L 302.25,181.74 L 301.59,182.50 L 301.25,182.84 L 300.53,183.35 L 297.95,184.00 L 296.97,184.00 L 295.31,184.70 L 294.91,184.93 L 294.15,185.61 L 293.05,186.94 L 292.45,187.77 L 291.53,188.85 L 291.27,189.08 L 290.65,189.42 L 290.31,189.57 L 289.41,189.79 L 288.91,189.88 L 287.59,190.00 L 286.87,190.05 L 284.99,190.09 L 283.96,190.10 L 281.38,190.09 L 276.57,190.06 L 275.57,190.05 L 273.78,190.02 L 272.92,190.00 L 271.40,189.95 L 269.94,189.89 L 267.74,189.68 L 266.75,189.56 L 265.37,189.22 L 264.05,188.55 L 263.61,188.15 L 261.99,187.37 L 259.28,186.55 L 258.84,186.47 L 257.77,186.17 L 257.21,186.00 L 256.00,185.55 L 252.60,183.92 L 249.10,181.86 L 244.70,184.44 L 243.96,184.87 L 242.63,185.87 L 241.99,186.40 L 240.85,187.60 L 240.30,188.22 L 239.33,189.63 L 238.86,190.36 L 238.07,191.99 L 237.69,192.83 L 237.06,194.69 L 236.77,195.64 L 236.31,197.74 L 236.09,198.81 L 235.79,201.15 L 235.51,204.95 L 235.41,207.42 L 234.51,212.09 L 232.03,219.00 L 231.93,219.21 L 231.51,219.74 L 231.27,220.02 L 230.63,220.65 L 228.24,222.50 L 227.39,223.05 L 225.78,224.52 L 225.41,224.88 L 224.81,225.60 L 224.19,226.55 L 224.06,226.83 L 223.46,227.54 L 223.11,227.91 L 222.17,228.71 L 218.67,231.02 L 217.42,231.68 L 215.29,233.17 L 214.83,233.53 L 214.14,234.18 L 213.56,234.97 L 212.37,237.89 L 212.15,238.38 L 212.22,238.76 L 213.12,238.48 L 213.52,238.25 L 213.88,238.16 L 213.68,238.58 L 213.45,238.82 L 212.61,239.21 L 211.18,239.49 L 210.81,239.49 L 210.26,239.85 L 210.01,240.08 L 209.71,240.84 L 209.59,241.25 L 209.52,242.29 L 209.51,242.84 L 209.66,244.09 L 209.86,245.37 L 210.86,248.12 L 213.12,251.79 L 214.12,252.93 L 216.66,255.01 L 217.97,256.00 L 220.71,257.56 L 221.39,257.91 L 222.68,258.45 L 223.31,258.69 L 224.47,259.01 L 225.02,259.14 L 225.97,259.20 L 227.10,258.95 L 227.59,258.69 L 228.97,258.28 L 230.98,258.00 L 231.80,258.00 L 233.32,257.71 L 234.05,257.51 L 235.39,256.85 L 236.03,256.47 L 237.17,255.46 L 237.72,254.91 L 238.65,253.57 L 239.09,252.86 L 239.80,251.21 L 240.13,250.35 L 240.60,248.42 L 240.81,247.42 L 241.04,245.23 L 241.09,241.67 L 241.06,241.00 L 241.10,239.37 L 241.13,238.53 L 241.27,236.70 L 241.35,235.79 L 241.58,233.99 L 241.99,231.56 L 242.23,230.41 L 242.81,228.54 L 243.15,227.64 L 244.19,225.88 L 244.49,225.43 L 245.23,224.46 L 245.63,223.95 L 246.60,222.84 L 247.12,222.26 L 248.36,220.94 L 250.57,218.66 L 251.69,217.52 L 253.82,215.50 L 254.86,214.54 L 256.74,212.98 L 257.64,212.26 L 259.13,211.25 L 260.78,210.48 L 261.15,210.40 L 262.23,210.16 L 262.81,210.02 L 264.17,209.69 L 268.50,208.59 L 269.50,208.32 L 271.41,207.97 L 272.38,207.83 L 274.50,207.74 L 275.62,207.72 L 278.34,207.87 L 279.07,207.93 L 280.72,208.08 L 283.50,208.37 L 284.79,208.52 L 287.00,208.80 L 288.06,208.95 L 289.87,209.27 L 290.74,209.43 L 292.25,209.83 L 292.99,210.03 L 294.30,210.54 L 295.59,211.09 L 297.99,212.70 L 298.60,213.16 L 299.92,214.27 L 302.11,216.25 L 302.92,217.01 L 304.50,218.19 L 304.86,218.44 L 305.46,218.78 L 306.09,219.00 L 306.22,219.00 L 306.64,219.44 L 306.88,219.72 L 307.45,220.61 L 308.06,221.59 L 309.44,224.32 L 310.11,225.71 L 311.22,228.43 L 311.46,229.06 L 311.79,230.12 L 312.01,231.28 L 312.01,231.61 L 312.40,232.88 L 313.33,235.03 L 313.54,235.43 L 313.84,236.52 L 313.97,237.10 L 314.11,238.53 L 314.16,239.28 L 314.15,240.99 L 314.13,241.88 L 313.97,243.83 L 313.78,245.83 L 312.97,250.35 L 311.17,257.50 L 310.70,259.05 L 309.84,261.42 L 309.38,262.53 L 308.27,264.44 L 307.65,265.39 L 305.94,267.41 L 305.45,267.95 L 304.31,269.13 L 302.28,271.15 L 295.50,277.81 L 283.35,279.08 L 281.99,279.22 L 279.67,279.45 L 278.58,279.56 L 276.72,279.71 L 275.85,279.78 L 274.37,279.85 L 273.67,279.88 L 272.47,279.87 L 271.33,279.84 L 269.53,279.53 L 266.82,278.68 L 265.61,278.21 L 263.31,277.49 L 262.79,277.34 L 261.93,277.13 L 261.05,277.00 L 260.66,277.00 L 259.52,276.50 L 257.79,275.31 L 257.16,274.74 L 255.36,273.69 L 254.42,273.19 L 252.43,272.44 L 251.46,272.11 L 249.83,271.83 L 249.47,271.80 L 248.91,271.86 L 248.40,272.15 L 248.33,272.28 L 247.85,272.72 L 247.57,272.96 L 246.78,273.58 L 243.67,275.69 L 242.45,276.45 L 240.74,277.65 L 239.98,278.21 L 239.03,279.22 L 238.63,279.72 L 238.22,280.79 L 238.02,282.75 L 238.01,283.37 L 237.73,284.34 L 237.08,285.00 L 236.96,285.00 L 236.73,285.63 L 236.63,286.03 L 236.47,287.33 L 236.40,288.05 L 236.31,289.86 L 236.28,292.95 L 236.31,294.44 L 236.26,296.79 L 236.22,297.88 L 236.03,299.55 L 235.92,300.31 L 235.57,301.44 L 234.82,302.70 L 234.61,302.94 L 234.08,303.66 L 233.80,304.04 L 233.21,304.94 L 231.56,307.81 L 230.95,309.02 L 229.16,311.61 L 228.21,312.88 L 226.11,315.23 L 225.07,316.32 L 223.12,317.93 L 222.66,318.27 L 221.86,318.72 L 220.87,319.00 L 220.61,319.00 L 219.81,319.24 L 219.37,319.40 L 218.30,319.90 L 214.77,322.06 L 213.73,322.81 L 212.17,323.80 L 211.40,324.22 L 209.72,324.67 L 209.25,324.76 L 208.15,324.86 L 207.55,324.90 L 206.11,324.93 L 205.34,324.93 L 203.46,324.90 L 200.02,324.81 L 198.57,324.76 L 195.79,324.66 L 194.45,324.61 L 192.07,324.49 L 190.96,324.44 L 189.25,324.33 L 188.51,324.27 L 187.75,324.18 L 187.27,324.09 L 186.51,323.70 L 186.00,323.01 L 186.00,322.89 L 185.61,322.50 L 185.35,322.29 L 184.53,321.75 L 184.08,321.47 L 182.94,320.85 L 181.00,319.90 L 180.31,319.59 L 179.06,318.97 L 178.46,318.67 L 177.47,318.11 L 177.02,317.85 L 176.39,317.42 L 176.00,316.98 L 176.00,316.80 L 175.27,316.18 L 173.50,315.18 L 172.78,314.85 L 171.71,313.80 L 171.00,312.06 L 171.00,311.51 L 170.48,310.38 L 169.24,309.13 L 168.98,308.99 L 168.43,308.38 L 168.15,308.03 L 167.57,307.05 L 167.28,306.52 L 166.71,305.24 L 166.42,304.57 L 165.87,303.07 L 165.34,301.53 L 164.46,298.09 L 163.63,293.00 L 163.57,292.38 L 163.37,290.90 L 163.26,290.13 L 162.97,288.50 L 161.94,284.00 L 161.58,282.76 L 161.08,280.60 L 160.98,280.13 L 160.86,279.40 L 160.82,278.75 L 160.87,278.54 L 160.57,278.22 L 159.72,278.00 L 159.55,278.00 L 158.97,277.76 L 158.65,277.61 L 157.86,277.12 L 155.16,275.00 L 154.18,274.10 L 152.57,272.96 L 151.80,272.49 L 150.32,272.18 L 149.56,272.14 L 147.82,272.65 L 147.35,272.83 L 146.29,273.34 L 144.49,274.32 L 143.20,275.06 L 140.14,276.45 L 138.57,277.12 L 135.31,278.27 L 133.70,278.79 L 130.72,279.53 L 130.02,279.68 L 128.75,279.88 L 127.10,280.00 L 126.68,280.00 L 125.14,279.91 L 124.28,279.85 L 122.06,279.67 L 120.89,279.57 L 118.27,279.31 L 114.20,278.88 L 104.32,277.75 L 97.22,270.94 L 96.52,270.27 L 95.30,269.06 L 94.72,268.48 L 93.71,267.42 L 92.74,266.39 L 91.36,264.64 L 90.73,263.79 L 89.89,262.22 L 89.05,259.81 L 88.76,258.62 L 87.87,255.93 L 87.63,255.29 L 87.16,254.11 L 86.50,252.67 L 86.08,251.88 L 85.51,250.14 L 85.27,249.26 L 85.08,247.50 L 85.02,246.63 L 85.21,245.04 L 85.92,243.09 L 86.20,242.66 L 86.27,241.58 L 85.70,239.89 L 85.48,239.55 L 85.24,238.86 L 85.16,238.50 L 85.18,237.72 L 85.22,237.31 L 85.52,236.33 L 86.29,234.52 L 86.76,233.53 L 87.50,231.39 L 87.65,230.88 L 87.87,229.97 L 88.00,228.90 L 88.00,228.12 L 88.36,226.58 L 88.61,225.79 L 89.56,224.11 L 90.11,223.23 L 91.74,221.24 L 95.06,217.72 L 96.70,216.10 L 99.86,213.61 L 101.47,212.48 L 104.89,210.84 L 105.78,210.47 L 107.68,209.87 L 108.65,209.59 L 110.76,209.15 L 111.84,208.94 L 114.20,208.63 L 118.09,208.28 L 119.67,208.18 L 122.72,208.14 L 124.22,208.15 L 127.11,208.32 L 128.53,208.43 L 131.24,208.82 L 132.56,209.03 L 135.07,209.62 L 136.29,209.94 L 138.58,210.73 L 139.69,211.14 L 141.74,212.12 L 142.73,212.64 L 144.51,213.81 L 146.88,215.77 L 147.26,216.14 L 148.20,216.59 L 149.42,216.67 L 149.75,216.54 L 150.29,216.94 L 150.74,218.24 L 150.78,218.80 L 151.45,220.31 L 152.95,222.44 L 153.51,223.05 L 154.40,224.71 L 155.00,227.10 L 155.00,227.44 L 155.16,228.38 L 155.27,228.87 L 155.60,230.01 L 157.06,233.54 L 157.43,234.25 L 157.97,235.57 L 158.21,236.21 L 158.51,237.46 L 158.54,241.27 L 158.46,241.83 L 158.42,243.15 L 158.43,243.84 L 158.56,245.32 L 159.54,249.83 L 159.89,250.91 L 160.55,252.49 L 160.89,253.20 L 161.77,254.28 L 162.26,254.80 L 163.69,255.72 L 166.80,257.32 L 167.65,257.72 L 169.13,258.38 L 169.84,258.68 L 171.06,259.15 L 172.24,259.57 L 174.06,259.85 L 174.91,259.90 L 176.41,259.46 L 178.73,258.00 L 179.43,257.45 L 180.85,256.58 L 181.18,256.40 L 181.75,256.14 L 182.38,255.98 L 182.64,255.97 L 183.24,255.64 L 183.55,255.43 L 184.24,254.73 L 184.94,253.97 L 186.39,251.69 L 187.10,250.48 L 188.30,247.79 L 189.39,243.99 L 189.52,243.09 L 189.64,241.70 L 189.67,241.05 L 189.56,240.05 L 189.48,239.58 L 189.12,238.82 L 188.27,237.78 L 188.03,237.55 L 187.35,236.88 L 186.98,236.52 L 186.14,235.68 L 183.50,233.03 L 182.67,232.19 L 180.89,230.73 L 180.47,230.40 L 179.72,229.90 L 178.84,229.45 L 178.38,229.31 L 177.19,228.36 L 175.57,226.46 L 175.12,225.78 L 174.01,224.72 L 172.53,224.00 L 172.07,224.00 L 171.04,223.35 L 170.52,222.95 L 169.57,221.72 L 169.12,221.07 L 168.45,219.58 L 168.00,217.40 L 168.00,216.81 L 167.56,215.51 L 166.50,214.00 L 166.29,213.83 L 165.92,213.27 L 165.74,212.96 L 165.43,212.20 L 164.98,209.63 L 164.97,209.19 L 164.82,207.91 L 164.73,207.21 L 164.43,205.53 L 164.09,203.77 L 163.12,199.70 L 162.61,197.67 L 161.52,193.97 L 161.25,193.12 L 160.75,191.70 L 160.08,190.14 L 159.93,189.88 L 159.37,189.15 L 159.06,188.77 L 158.23,187.89 L 155.27,185.22 L 154.37,184.51 L 153.06,183.58 L 152.44,183.19 L 151.36,182.82 L 150.80,182.70 L 149.49,182.79 L 146.75,183.35 L 145.85,183.56 L 144.49,183.97 L 143.87,184.18 L 143.02,184.62 L 142.65,184.86 L 142.23,185.39 L 142.00,186.35 L 142.00,186.75 L 141.88,187.29 L 141.80,187.52 L 141.44,187.78 L 141.22,187.87 L 140.53,187.88 L 139.03,187.66 L 138.51,187.55 L 137.64,187.47 L 137.23,187.46 L 136.56,187.56 L 135.21,188.59 L 135.03,188.90 L 134.22,189.36 L 133.96,189.47 L 133.27,189.64 L 132.89,189.72 L 131.92,189.85 L 131.39,189.92 L 130.10,190.02 L 129.40,190.06 L 127.73,190.13 L 126.84,190.17 L 124.74,190.22 L 121.07,190.27 L 107.79,190.42 L 105.15,187.20 L 104.69,186.65 L 103.80,185.77 L 103.36,185.36 L 102.47,184.76 L 102.03,184.50 L 101.13,184.18 L 99.75,183.99 L 98.99,183.99 L 97.77,183.63 L 97.51,183.52 L 97.15,183.23 L 96.88,182.75 L 96.63,180.02 L 96.62,179.82 L 96.21,179.17 L 95.95,178.81 L 95.14,177.94 L 91.73,175.02 L 90.68,174.25 L 89.23,173.07 L 88.60,172.53 L 87.87,171.62 L 87.58,171.18 L 87.40,170.30 L 87.57,168.71 L 87.75,167.86 L 87.62,166.08 L 86.74,163.71 L 86.45,163.27 L 85.96,162.11 L 85.72,161.48 L 85.32,160.03 L 84.95,158.53 L 84.56,155.18 L 84.43,153.52 L 84.56,150.53 L 84.63,149.85 L 84.89,148.71 L 85.44,147.47 L 85.85,146.93 L 86.51,145.57 L 86.97,143.78 L 86.97,143.54 L 87.14,142.80 L 87.25,142.39 L 87.60,141.40 L 89.07,138.09 L 89.49,137.28 L 90.06,136.01 L 90.30,135.42 L 90.51,134.47 L 90.58,134.01 L 90.47,133.20 L 89.97,131.94 L 89.61,131.28 L 89.48,130.17 L 89.49,129.66 L 89.98,128.96 L 90.29,128.67 L 91.25,128.51 L 93.07,129.04 L 93.52,129.28 L 94.47,129.25 L 94.95,129.15 L 95.91,128.52 L 96.38,128.14 L 97.24,126.98 L 98.32,124.75 L 98.49,124.26 L 99.42,123.51 L 101.22,122.99 L 101.53,122.99 L 102.34,122.83 L 102.77,122.73 L 103.71,122.41 L 106.50,121.00 L 107.32,120.45 L 109.54,119.59 L 112.63,119.01 L 113.49,119.00 L 115.20,118.56 L 115.60,118.42 L 116.27,118.08 L 117.00,117.50 L 117.24,117.20 L 118.05,116.74 L 118.49,116.53 L 119.62,116.23 L 120.79,115.97 L 123.63,115.92 M 120.74,121.20 L 117.33,121.49 L 115.23,121.77 L 114.25,121.96 L 110.53,122.87 L 108.85,123.59 L 105.58,125.19 L 104.00,126.31 L 100.83,128.76 L 99.17,130.35 L 96.06,133.75 L 94.28,136.16 L 93.54,137.41 L 92.14,139.96 L 91.58,141.28 L 90.56,143.94 L 90.18,145.30 L 89.52,148.04 L 89.33,149.43 L 89.03,152.21 L 89.01,153.61 L 89.05,156.39 L 89.20,157.78 L 89.59,160.54 L 89.91,161.90 L 90.63,164.60 L 91.11,165.91 L 92.15,168.51 L 92.79,169.76 L 94.15,172.23 L 94.95,173.40 L 96.61,175.70 L 97.56,176.78 L 99.53,178.87 L 100.62,179.83 L 102.87,181.69 L 104.11,182.52 L 106.65,184.11 L 108.02,184.79 L 110.84,186.07 L 112.34,186.58 L 114.74,187.21 L 116.64,187.58 L 117.67,187.73 L 119.75,187.99 L 120.77,188.07 L 122.78,188.19 L 123.67,188.19 L 127.24,188.02 L 129.32,187.73 L 130.36,187.47 L 132.45,186.84 L 133.64,186.37 L 136.14,185.31 L 137.68,184.57 L 141.64,182.82 L 143.86,181.99 L 144.87,181.72 L 146.85,181.27 L 147.85,181.16 L 149.91,181.00 L 151.07,181.00 L 154.25,181.10 L 155.84,181.31 L 156.50,181.52 L 157.75,182.03 L 158.35,182.43 L 159.59,183.34 L 160.33,183.99 L 162.73,186.69 L 163.96,188.86 L 164.44,190.24 L 164.90,191.68 L 165.10,192.49 L 165.48,194.18 L 165.64,195.13 L 165.97,197.12 L 166.11,198.24 L 166.38,200.56 L 166.51,201.86 L 167.14,206.14 L 167.78,208.82 L 168.21,210.09 L 169.15,212.59 L 169.75,213.78 L 171.03,216.14 L 171.81,217.28 L 173.45,219.52 L 174.42,220.62 L 176.45,222.81 L 177.62,223.89 L 180.07,226.05 L 181.46,227.13 L 184.36,229.30 L 185.98,230.40 L 189.46,233.54 L 191.36,236.05 L 192.05,237.40 L 193.25,240.14 L 193.52,241.48 L 193.73,242.82 L 193.74,243.46 L 193.71,244.72 L 193.59,245.30 L 192.11,249.92 L 190.62,252.68 L 189.61,253.90 L 187.44,256.25 L 186.09,257.27 L 183.21,259.23 L 181.50,260.07 L 178.74,261.31 L 177.02,261.95 L 176.21,262.18 L 174.61,262.57 L 173.86,262.67 L 172.37,262.81 L 171.65,262.79 L 168.86,262.46 L 167.51,261.92 L 164.83,260.58 L 163.46,259.54 L 160.47,256.79 L 159.02,254.81 L 158.50,253.61 L 158.02,252.35 L 157.81,251.64 L 157.43,250.16 L 157.28,249.32 L 156.98,247.57 L 156.86,246.57 L 156.62,244.48 L 156.52,243.29 L 155.77,238.11 L 154.99,234.82 L 154.47,233.26 L 153.34,230.20 L 152.65,228.77 L 151.17,225.97 L 150.31,224.68 L 148.50,222.15 L 147.48,221.00 L 145.35,218.77 L 144.17,217.78 L 141.74,215.86 L 140.41,215.02 L 137.69,213.44 L 136.22,212.78 L 133.26,211.71 L 131.08,211.16 L 129.92,210.96 L 125.11,210.40 L 122.61,210.44 L 117.60,210.72 L 115.25,211.18 L 112.93,211.70 L 111.85,212.03 L 109.75,212.75 L 108.80,213.19 L 103.71,216.16 L 100.48,218.64 L 99.01,220.06 L 96.19,223.02 L 94.99,224.61 L 92.77,227.86 L 91.95,229.53 L 90.70,232.41 L 90.13,234.23 L 89.96,235.25 L 89.66,237.39 L 89.59,238.73 L 89.54,240.12 L 89.52,240.91 L 89.50,242.56 L 89.50,243.50 L 89.52,246.12 L 89.56,247.64 L 89.60,248.32 L 89.79,250.81 L 89.97,251.86 L 90.42,253.86 L 90.76,254.84 L 91.54,256.84 L 92.09,258.00 L 95.08,263.00 L 97.59,266.17 L 99.05,267.62 L 102.10,270.40 L 103.77,271.60 L 107.20,273.85 L 109.00,274.72 L 112.08,276.05 L 113.99,276.67 L 114.99,276.87 L 117.05,277.21 L 118.27,277.30 L 120.87,277.42 L 122.50,277.44 L 124.96,277.43 L 126.39,277.40 L 127.03,277.36 L 129.41,277.13 L 130.52,276.88 L 132.74,276.27 L 134.03,275.76 L 135.37,275.21 L 136.13,274.88 L 137.71,274.17 L 138.63,273.75 L 141.87,272.33 L 143.84,271.57 L 144.74,271.27 L 146.49,270.74 L 147.30,270.56 L 148.88,270.25 L 149.62,270.18 L 152.48,270.13 L 153.83,270.43 L 156.52,271.25 L 157.93,271.97 L 161.29,274.50 L 162.23,275.60 L 162.64,276.23 L 163.43,277.55 L 163.78,278.30 L 164.43,279.85 L 164.71,280.71 L 165.24,282.51 L 165.45,283.50 L 165.85,285.55 L 166.00,286.68 L 166.28,289.00 L 166.38,290.26 L 167.03,294.99 L 167.73,298.00 L 168.21,299.44 L 169.27,302.26 L 169.93,303.59 L 171.33,306.21 L 172.16,307.44 L 173.90,309.84 L 174.89,310.95 L 176.96,313.13 L 178.12,314.13 L 180.52,316.06 L 181.83,316.94 L 184.55,318.62 L 186.02,319.37 L 188.31,320.50 L 189.26,320.87 L 191.11,321.50 L 192.11,321.66 L 194.24,321.89 L 195.66,321.90 L 197.16,321.89 L 198.04,321.87 L 199.90,321.81 L 201.00,321.76 L 205.81,321.47 L 208.37,321.19 L 209.43,320.99 L 211.42,320.54 L 212.30,320.23 L 214.00,319.56 L 214.85,319.12 L 218.94,316.66 L 221.43,314.82 L 222.56,313.79 L 224.72,311.68 L 225.68,310.52 L 227.53,308.14 L 228.33,306.85 L 229.85,304.20 L 230.49,302.77 L 231.68,299.86 L 232.16,298.31 L 233.02,295.13 L 233.33,293.45 L 233.87,290.01 L 234.02,288.20 L 234.33,285.06 L 234.59,283.23 L 234.76,282.42 L 235.11,280.88 L 235.33,280.19 L 235.81,278.88 L 236.11,278.29 L 237.44,276.09 L 238.41,275.12 L 240.54,273.23 L 241.99,272.25 L 245.82,270.44 L 247.18,270.13 L 247.89,270.07 L 249.35,270.00 L 250.13,270.06 L 251.72,270.24 L 252.58,270.42 L 254.33,270.85 L 255.28,271.16 L 257.22,271.83 L 258.27,272.26 L 260.43,273.19 L 261.61,273.74 L 264.07,274.89 L 265.49,275.51 L 266.12,275.77 L 268.48,276.64 L 269.60,276.89 L 271.84,277.29 L 273.18,277.37 L 274.57,277.44 L 275.36,277.45 L 277.03,277.47 L 278.00,277.47 L 280.62,277.44 L 282.12,277.40 L 282.77,277.36 L 285.15,277.14 L 286.16,276.91 L 288.11,276.35 L 289.17,275.88 L 290.25,275.39 L 290.85,275.08 L 292.11,274.43 L 292.83,274.04 L 297.67,270.97 L 300.56,268.63 L 301.83,267.30 L 304.28,264.56 L 305.35,263.02 L 307.38,259.84 L 308.25,258.08 L 309.39,255.36 L 309.92,253.55 L 310.08,252.49 L 310.35,250.22 L 310.41,248.77 L 310.47,247.24 L 310.48,246.37 L 310.50,244.54 L 310.50,243.50 L 310.48,240.40 L 310.45,238.65 L 310.42,237.91 L 310.24,235.25 L 310.04,234.22 L 309.56,232.28 L 309.15,231.33 L 308.22,229.38 L 307.54,228.15 L 303.67,222.47 L 300.68,219.20 L 299.01,217.82 L 295.56,215.25 L 293.70,214.24 L 289.89,212.40 L 287.88,211.77 L 283.81,210.70 L 281.71,210.46 L 277.46,210.19 L 275.31,210.36 L 270.99,210.91 L 268.84,211.51 L 264.54,212.92 L 262.44,213.96 L 258.41,216.24 L 255.98,217.93 L 254.90,218.87 L 252.81,220.81 L 251.89,221.87 L 250.13,224.07 L 249.37,225.27 L 247.92,227.75 L 247.32,229.09 L 246.18,231.85 L 245.73,233.35 L 244.89,236.42 L 244.58,238.07 L 244.04,241.46 L 243.87,243.28 L 243.44,246.99 L 243.08,249.17 L 242.86,250.14 L 242.39,251.98 L 242.10,252.79 L 241.48,254.34 L 241.11,255.02 L 240.33,256.33 L 239.87,256.90 L 238.89,258.01 L 238.33,258.50 L 237.13,259.45 L 236.45,259.89 L 235.01,260.73 L 234.19,261.13 L 230.26,262.47 L 227.61,262.78 L 226.24,262.63 L 223.46,262.15 L 222.00,261.61 L 219.00,260.33 L 217.39,259.38 L 214.57,257.51 L 212.89,256.17 L 212.15,255.45 L 210.74,254.00 L 210.15,253.23 L 209.02,251.69 L 208.57,250.89 L 207.75,249.27 L 207.45,248.44 L 206.93,246.77 L 206.79,245.92 L 206.59,244.22 L 206.61,243.36 L 206.74,241.65 L 206.93,240.79 L 208.03,237.32 L 209.07,235.35 L 209.84,234.43 L 211.57,232.59 L 212.79,231.59 L 214.08,230.58 L 214.83,230.04 L 216.40,228.91 L 217.31,228.30 L 221.09,225.43 L 223.39,223.36 L 224.42,222.26 L 226.41,220.02 L 227.28,218.84 L 228.95,216.43 L 229.66,215.17 L 230.99,212.62 L 231.53,211.30 L 232.53,208.63 L 232.89,207.25 L 233.54,204.47 L 233.72,203.05 L 234.00,200.18 L 234.00,198.72 L 234.51,193.15 L 235.36,189.94 L 236.02,188.60 L 237.49,186.09 L 238.45,185.10 L 240.52,183.31 L 241.76,182.69 L 244.38,181.64 L 245.88,181.39 L 249.00,181.10 L 250.75,181.24 L 254.35,181.72 L 256.31,182.26 L 260.34,183.54 L 262.51,184.49 L 264.86,185.49 L 266.26,186.05 L 266.89,186.28 L 269.30,187.09 L 270.41,187.34 L 272.63,187.75 L 273.85,187.85 L 276.41,187.98 L 278.00,187.99 L 284.80,187.35 L 289.06,186.27 L 291.04,185.41 L 294.90,183.49 L 296.68,182.21 L 300.12,179.44 L 301.68,177.75 L 304.17,174.92 L 305.58,173.17 L 306.16,172.34 L 307.26,170.70 L 307.70,169.88 L 308.52,168.25 L 308.84,167.41 L 309.43,165.69 L 309.64,164.77 L 310.02,162.87 L 310.15,161.83 L 310.36,159.67 L 310.41,158.45 L 310.49,155.93 L 310.49,154.50 L 310.47,151.56 L 310.44,149.87 L 310.41,149.13 L 310.24,146.46 L 310.06,145.39 L 309.65,143.39 L 309.32,142.46 L 308.58,140.60 L 308.05,139.53 L 305.76,135.52 L 304.04,133.09 L 303.08,131.99 L 301.10,129.87 L 300.01,128.94 L 297.78,127.14 L 296.58,126.37 L 294.11,124.91 L 292.79,124.31 L 290.10,123.18 L 288.68,122.75 L 285.77,121.97 L 284.24,121.72 L 281.13,121.29 L 279.50,121.21 L 272.40,121.41 L 268.13,122.14 L 266.15,122.83 L 262.30,124.41 L 260.45,125.55 L 256.81,128.07 L 254.99,129.70 L 250.45,134.48 L 248.12,137.82 L 247.25,139.66 L 245.69,143.50 L 245.15,145.72 L 244.65,148.00 L 244.45,149.24 L 244.07,151.77 L 243.93,153.15 L 243.53,156.54 L 243.22,158.55 L 243.05,159.44 L 242.69,161.15 L 242.49,161.90 L 242.05,163.35 L 241.80,163.99 L 240.70,166.36 L 239.98,167.32 L 238.41,169.10 L 237.40,169.90 L 235.19,171.43 L 233.73,172.23 L 232.99,172.51 L 231.49,173.01 L 230.72,173.14 L 229.15,173.32 L 228.33,173.29 L 226.64,173.17 L 225.73,172.99 L 223.87,172.55 L 222.86,172.22 L 220.78,171.47 L 219.64,170.98 L 217.29,169.91 L 216.00,169.27 L 212.85,167.85 L 210.87,167.18 L 209.79,166.96 L 207.53,166.56 L 206.14,166.44 L 204.70,166.32 L 203.88,166.27 L 202.19,166.19 L 201.22,166.15 L 198.24,166.05 L 196.56,166.02 L 195.85,166.03 L 193.28,166.14 L 192.18,166.36 L 190.04,166.90 L 188.82,167.39 L 187.55,167.92 L 186.82,168.26 L 185.28,168.97 L 184.37,169.40 L 178.43,171.75 L 174.81,172.68 L 173.17,172.83 L 170.00,172.92 L 168.59,172.65 L 165.89,171.89 L 164.70,171.20 L 162.46,169.61 L 161.51,168.50 L 159.73,166.07 L 159.01,164.55 L 157.70,161.28 L 157.22,159.34 L 156.38,155.24 L 156.14,152.88 L 154.97,145.81 L 153.80,141.68 L 152.97,139.84 L 151.17,136.28 L 149.99,134.65 L 147.46,131.45 L 145.88,129.91 L 140.59,125.65 L 136.83,123.54 L 134.79,122.83 L 132.71,122.18 L 131.62,121.94 L 129.41,121.51 L 128.24,121.38 L 125.88,121.16 L 124.63,121.13 L 122.08,121.13 M 202.26,73.54 L 206.17,73.88 L 207.55,74.08 L 210.89,74.99 L 212.60,75.51 L 216.03,76.83 L 217.68,77.51 L 220.43,78.91 L 221.04,79.26 L 222.00,79.91 L 222.96,80.78 L 223.11,80.98 L 223.93,81.61 L 225.50,82.59 L 226.05,82.89 L 227.33,84.22 L 228.92,86.59 L 229.31,87.39 L 230.29,88.94 L 231.60,90.50 L 231.77,90.64 L 232.13,91.13 L 232.30,91.41 L 232.63,92.12 L 233.32,94.61 L 233.45,95.47 L 234.03,97.51 L 235.07,100.11 L 235.29,100.52 L 235.65,101.64 L 235.82,102.24 L 236.08,103.67 L 236.32,105.17 L 236.47,108.66 L 236.50,110.42 L 236.22,113.82 L 236.13,114.63 L 235.85,116.08 L 235.32,117.91 L 234.94,118.85 L 234.53,120.84 L 234.46,121.30 L 234.41,122.13 L 234.52,123.08 L 234.68,123.56 L 234.61,124.51 L 234.03,125.48 L 233.88,125.57 L 233.34,126.18 L 233.03,126.55 L 232.22,127.61 L 231.80,128.19 L 230.85,129.56 L 229.36,131.82 L 228.86,132.60 L 227.87,134.08 L 227.38,134.79 L 226.48,136.02 L 226.05,136.60 L 225.34,137.46 L 224.62,138.16 L 224.31,138.34 L 223.12,139.24 L 221.10,140.91 L 220.40,141.51 L 218.44,142.41 L 215.41,143.00 L 214.51,143.00 L 212.27,143.33 L 209.32,144.11 L 208.76,144.33 L 207.40,144.68 L 206.69,144.84 L 205.05,145.06 L 203.34,145.26 L 199.37,145.30 L 197.32,145.26 L 193.04,144.84 L 190.92,144.57 L 186.85,143.70 L 184.89,143.20 L 181.75,142.15 L 180.29,141.60 L 177.94,140.30 L 176.85,139.61 L 175.04,137.91 L 172.65,134.71 L 171.74,133.24 L 169.92,129.99 L 169.04,128.36 L 167.47,125.20 L 167.11,124.44 L 166.48,123.04 L 166.18,122.37 L 165.70,121.19 L 165.48,120.63 L 165.20,119.74 L 165.01,118.81 L 165.01,118.34 L 164.71,117.43 L 164.00,116.50 L 163.85,116.41 L 163.66,115.54 L 163.58,115.02 L 163.50,113.45 L 163.47,112.61 L 163.50,110.59 L 163.52,109.55 L 163.63,107.33 L 163.69,106.21 L 163.87,104.02 L 163.97,102.95 L 164.21,101.03 L 164.34,100.12 L 164.63,98.72 L 165.09,97.45 L 165.20,97.31 L 165.43,96.76 L 165.54,96.45 L 165.74,95.64 L 166.16,92.77 L 166.22,91.77 L 166.52,90.32 L 166.60,90.02 L 166.78,89.66 L 167.05,89.53 L 167.38,89.73 L 168.27,89.48 L 168.73,89.26 L 169.69,88.40 L 170.16,87.91 L 170.91,86.72 L 171.49,84.90 L 171.54,84.15 L 172.13,83.05 L 173.58,82.15 L 174.11,82.05 L 175.52,81.41 L 177.50,80.11 L 178.22,79.50 L 179.98,78.37 L 180.90,77.83 L 183.00,76.86 L 184.08,76.40 L 186.44,75.60 L 187.65,75.23 L 190.20,74.62 L 192.79,74.05 L 198.22,73.56 L 199.58,73.49 M 196.37,76.38 L 192.52,77.01 L 190.66,77.56 L 186.99,78.82 L 185.25,79.66 L 181.85,81.49 L 180.27,82.60 L 177.22,84.96 L 175.86,86.32 L 173.26,89.17 L 172.15,90.76 L 170.08,94.05 L 169.28,95.84 L 168.10,98.99 L 167.49,101.21 L 167.26,102.37 L 166.59,107.09 L 166.59,109.50 L 166.81,114.31 L 167.26,116.59 L 167.76,118.85 L 168.10,119.92 L 168.82,122.02 L 169.27,123.00 L 173.06,129.51 L 176.12,133.28 L 177.91,134.87 L 181.69,137.87 L 183.84,139.08 L 188.33,141.31 L 190.85,142.15 L 194.24,143.08 L 195.98,143.31 L 199.48,143.62 L 201.25,143.54 L 204.79,143.25 L 206.53,142.88 L 210.01,142.02 L 211.70,141.38 L 215.02,139.98 L 216.60,139.10 L 219.69,137.20 L 221.12,136.07 L 223.88,133.70 L 225.11,132.35 L 227.46,129.55 L 228.44,128.00 L 231.31,122.48 L 232.68,118.64 L 233.10,116.68 L 233.78,112.74 L 233.86,110.76 L 233.84,106.81 L 233.58,104.86 L 232.89,100.99 L 232.30,99.11 L 230.95,95.41 L 230.03,93.66 L 228.03,90.23 L 226.79,88.65 L 224.16,85.59 L 222.61,84.23 L 219.32,81.60 L 217.23,80.23 L 216.13,79.68 L 213.86,78.65 L 212.55,78.22 L 209.79,77.40 L 208.13,77.00 L 202.23,76.17 L 198.30,76.14 Z" fill="rgb(19,4,3)"/>
<path d="M 124.63,121.13 L 125.88,121.16 L 128.24,121.38 L 129.41,121.51 L 131.62,121.94 L 132.71,122.18 L 134.79,122.83 L 136.83,123.54 L 140.59,125.65 L 145.88,129.91 L 147.46,131.45 L 149.99,134.65 L 151.17,136.28 L 152.97,139.84 L 153.80,141.68 L 154.97,145.81 L 156.14,152.88 L 156.38,155.24 L 157.22,159.34 L 157.70,161.28 L 159.01,164.55 L 159.73,166.07 L 161.51,168.50 L 162.46,169.61 L 164.70,171.20 L 165.89,171.89 L 168.59,172.65 L 170.00,172.92 L 173.17,172.83 L 174.81,172.68 L 178.43,171.75 L 184.37,169.40 L 185.28,168.97 L 186.82,168.26 L 187.55,167.92 L 188.82,167.39 L 190.04,166.90 L 192.18,166.36 L 193.28,166.14 L 195.85,166.03 L 196.56,166.02 L 198.24,166.05 L 201.22,166.15 L 202.19,166.19 L 203.88,166.27 L 204.70,166.32 L 206.14,166.44 L 207.53,166.56 L 209.79,166.96 L 210.87,167.18 L 212.85,167.85 L 216.00,169.27 L 217.29,169.91 L 219.64,170.98 L 220.78,171.47 L 222.86,172.22 L 223.87,172.55 L 225.73,172.99 L 226.64,173.17 L 228.33,173.29 L 229.15,173.32 L 230.72,173.14 L 231.49,173.01 L 232.99,172.51 L 233.73,172.23 L 235.19,171.43 L 237.40,169.90 L 238.41,169.10 L 239.98,167.32 L 240.70,166.36 L 241.80,163.99 L 242.05,163.35 L 242.49,161.90 L 242.69,161.15 L 243.05,159.44 L 243.22,158.55 L 243.53,156.54 L 243.93,153.15 L 244.07,151.77 L 244.45,149.24 L 244.65,148.00 L 245.15,145.72 L 245.69,143.50 L 247.25,139.66 L 248.12,137.82 L 250.45,134.48 L 254.99,129.70 L 256.81,128.07 L 260.45,125.55 L 262.30,124.41 L 266.15,122.83 L 268.13,122.14 L 272.40,121.41 L 279.50,121.21 L 281.13,121.29 L 284.24,121.72 L 285.77,121.97 L 288.68,122.75 L 290.10,123.18 L 292.79,124.31 L 294.11,124.91 L 296.58,126.37 L 297.78,127.14 L 300.01,128.94 L 301.10,129.87 L 303.08,131.99 L 304.04,133.09 L 305.76,135.52 L 308.05,139.53 L 308.58,140.60 L 309.32,142.46 L 309.65,143.39 L 310.06,145.39 L 310.24,146.46 L 310.41,149.13 L 310.44,149.87 L 310.47,151.56 L 310.49,154.50 L 310.49,155.93 L 310.41,158.45 L 310.36,159.67 L 310.15,161.83 L 310.02,162.87 L 309.64,164.77 L 309.43,165.69 L 308.84,167.41 L 308.52,168.25 L 307.70,169.88 L 307.26,170.70 L 306.16,172.34 L 305.58,173.17 L 304.17,174.92 L 301.68,177.75 L 300.12,179.44 L 296.68,182.21 L 294.90,183.49 L 291.04,185.41 L 289.06,186.27 L 284.80,187.35 L 278.00,187.99 L 276.41,187.98 L 273.85,187.85 L 272.63,187.75 L 270.41,187.34 L 269.30,187.09 L 266.89,186.28 L 266.26,186.05 L 264.86,185.49 L 262.51,184.49 L 260.34,183.54 L 256.31,182.26 L 254.35,181.72 L 250.75,181.24 L 249.00,181.10 L 245.88,181.39 L 244.38,181.64 L 241.76,182.69 L 240.52,183.31 L 238.45,185.10 L 237.49,186.09 L 236.02,188.60 L 235.36,189.94 L 234.51,193.15 L 234.00,198.72 L 234.00,200.18 L 233.72,203.05 L 233.54,204.47 L 232.89,207.25 L 232.53,208.63 L 231.53,211.30 L 230.99,212.62 L 229.66,215.17 L 228.95,216.43 L 227.28,218.84 L 226.41,220.02 L 224.42,222.26 L 223.39,223.36 L 221.09,225.43 L 217.31,228.30 L 216.40,228.91 L 214.83,230.04 L 214.08,230.58 L 212.79,231.59 L 211.57,232.59 L 209.84,234.43 L 209.07,235.35 L 208.03,237.32 L 206.93,240.79 L 206.74,241.65 L 206.61,243.36 L 206.59,244.22 L 206.79,245.92 L 206.93,246.77 L 207.45,248.44 L 207.75,249.27 L 208.57,250.89 L 209.02,251.69 L 210.15,253.23 L 210.74,254.00 L 212.15,255.45 L 212.89,256.17 L 214.57,257.51 L 217.39,259.38 L 219.00,260.33 L 222.00,261.61 L 223.46,262.15 L 226.24,262.63 L 227.61,262.78 L 230.26,262.47 L 234.19,261.13 L 235.01,260.73 L 236.45,259.89 L 237.13,259.45 L 238.33,258.50 L 238.89,258.01 L 239.87,256.90 L 240.33,256.33 L 241.11,255.02 L 241.48,254.34 L 242.10,252.79 L 242.39,251.98 L 242.86,250.14 L 243.08,249.17 L 243.44,246.99 L 243.87,243.28 L 244.04,241.46 L 244.58,238.07 L 244.89,236.42 L 245.73,233.35 L 246.18,231.85 L 247.32,229.09 L 247.92,227.75 L 249.37,225.27 L 250.13,224.07 L 251.89,221.87 L 252.81,220.81 L 254.90,218.87 L 255.98,217.93 L 258.41,216.24 L 262.44,213.96 L 264.54,212.92 L 268.84,211.51 L 270.99,210.91 L 275.31,210.36 L 277.46,210.19 L 281.71,210.46 L 283.81,210.70 L 287.88,211.77 L 289.89,212.40 L 293.70,214.24 L 295.56,215.25 L 299.01,217.82 L 300.68,219.20 L 303.67,222.47 L 307.54,228.15 L 308.22,229.38 L 309.15,231.33 L 309.56,232.28 L 310.04,234.22 L 310.24,235.25 L 310.42,237.91 L 310.45,238.65 L 310.48,240.40 L 310.50,243.50 L 310.50,244.54 L 310.48,246.37 L 310.47,247.24 L 310.41,248.77 L 310.35,250.22 L 310.08,252.49 L 309.92,253.55 L 309.39,255.36 L 308.25,258.08 L 307.38,259.84 L 305.35,263.02 L 304.28,264.56 L 301.83,267.30 L 300.56,268.63 L 297.67,270.97 L 292.83,274.04 L 292.11,274.43 L 290.85,275.08 L 290.25,275.39 L 289.17,275.88 L 288.11,276.35 L 286.16,276.91 L 285.15,277.14 L 282.77,277.36 L 282.12,277.40 L 280.62,277.44 L 278.00,277.47 L 277.03,277.47 L 275.36,277.45 L 274.57,277.44 L 273.18,277.37 L 271.84,277.29 L 269.60,276.89 L 268.48,276.64 L 266.12,275.77 L 265.49,275.51 L 264.07,274.89 L 261.61,273.74 L 260.43,273.19 L 258.27,272.26 L 257.22,271.83 L 255.28,271.16 L 254.33,270.85 L 252.58,270.42 L 251.72,270.24 L 250.13,270.06 L 249.35,270.00 L 247.89,270.07 L 247.18,270.13 L 245.82,270.44 L 241.99,272.25 L 240.54,273.23 L 238.41,275.12 L 237.44,276.09 L 236.11,278.29 L 235.81,278.88 L 235.33,280.19 L 235.11,280.88 L 234.76,282.42 L 234.59,283.23 L 234.33,285.06 L 234.02,288.20 L 233.87,290.01 L 233.33,293.45 L 233.02,295.13 L 232.16,298.31 L 231.68,299.86 L 230.49,302.77 L 229.85,304.20 L 228.33,306.85 L 227.53,308.14 L 225.68,310.52 L 224.72,311.68 L 222.56,313.79 L 221.43,314.82 L 218.94,316.66 L 214.85,319.12 L 214.00,319.56 L 212.30,320.23 L 211.42,320.54 L 209.43,320.99 L 208.37,321.19 L 205.81,321.47 L 201.00,321.76 L 199.90,321.81 L 198.04,321.87 L 197.16,321.89 L 195.66,321.90 L 194.24,321.89 L 192.11,321.66 L 191.11,321.50 L 189.26,320.87 L 188.31,320.50 L 186.02,319.37 L 184.55,318.62 L 181.83,316.94 L 180.52,316.06 L 178.12,314.13 L 176.96,313.13 L 174.89,310.95 L 173.90,309.84 L 172.16,307.44 L 171.33,306.21 L 169.93,303.59 L 169.27,302.26 L 168.21,299.44 L 167.73,298.00 L 167.03,294.99 L 166.38,290.26 L 166.28,289.00 L 166.00,286.68 L 165.85,285.55 L 165.45,283.50 L 165.24,282.51 L 164.71,280.71 L 164.43,279.85 L 163.78,278.30 L 163.43,277.55 L 162.64,276.23 L 162.23,275.60 L 161.29,274.50 L 157.93,271.97 L 156.52,271.25 L 153.83,270.43 L 152.48,270.13 L 149.62,270.18 L 148.88,270.25 L 147.30,270.56 L 146.49,270.74 L 144.74,271.27 L 143.84,271.57 L 141.87,272.33 L 138.63,273.75 L 137.71,274.17 L 136.13,274.88 L 135.37,275.21 L 134.03,275.76 L 132.74,276.27 L 130.52,276.88 L 129.41,277.13 L 127.03,277.36 L 126.39,277.40 L 124.96,277.43 L 122.50,277.44 L 120.87,277.42 L 118.27,277.30 L 117.05,277.21 L 114.99,276.87 L 113.99,276.67 L 112.08,276.05 L 109.00,274.72 L 107.20,273.85 L 103.77,271.60 L 102.10,270.40 L 99.05,267.62 L 97.59,266.17 L 95.08,263.00 L 92.09,258.00 L 91.54,256.84 L 90.76,254.84 L 90.42,253.86 L 89.97,251.86 L 89.79,250.81 L 89.60,248.32 L 89.56,247.64 L 89.52,246.12 L 89.50,243.50 L 89.50,242.56 L 89.52,240.91 L 89.54,240.12 L 89.59,238.73 L 89.66,237.39 L 89.96,235.25 L 90.13,234.23 L 90.70,232.41 L 91.95,229.53 L 92.77,227.86 L 94.99,224.61 L 96.19,223.02 L 99.01,220.06 L 100.48,218.64 L 103.71,216.16 L 108.80,213.19 L 109.75,212.75 L 111.85,212.03 L 112.93,211.70 L 115.25,211.18 L 117.60,210.72 L 122.61,210.44 L 125.11,210.40 L 129.92,210.96 L 131.08,211.16 L 133.26,211.71 L 136.22,212.78 L 137.69,213.44 L 140.41,215.02 L 141.74,215.86 L 144.17,217.78 L 145.35,218.77 L 147.48,221.00 L 148.50,222.15 L 150.31,224.68 L 151.17,225.97 L 152.65,228.77 L 153.34,230.20 L 154.47,233.26 L 154.99,234.82 L 155.77,238.11 L 156.52,243.29 L 156.62,244.48 L 156.86,246.57 L 156.98,247.57 L 157.28,249.32 L 157.43,250.16 L 157.81,251.64 L 158.02,252.35 L 158.50,253.61 L 159.02,254.81 L 160.47,256.79 L 163.46,259.54 L 164.83,260.58 L 167.51,261.92 L 168.86,262.46 L 171.65,262.79 L 172.37,262.81 L 173.86,262.67 L 174.61,262.57 L 176.21,262.18 L 177.02,261.95 L 178.74,261.31 L 181.50,260.07 L 183.21,259.23 L 186.09,257.27 L 187.44,256.25 L 189.61,253.90 L 190.62,252.68 L 192.11,249.92 L 193.59,245.30 L 193.71,244.72 L 193.74,243.46 L 193.73,242.82 L 193.52,241.48 L 193.25,240.14 L 192.05,237.40 L 191.36,236.05 L 189.46,233.54 L 185.98,230.40 L 184.36,229.30 L 181.46,227.13 L 180.07,226.05 L 177.62,223.89 L 176.45,222.81 L 174.42,220.62 L 173.45,219.52 L 171.81,217.28 L 171.03,216.14 L 169.75,213.78 L 169.15,212.59 L 168.21,210.09 L 167.78,208.82 L 167.14,206.14 L 166.51,201.86 L 166.38,200.56 L 166.11,198.24 L 165.97,197.12 L 165.64,195.13 L 165.48,194.18 L 165.10,192.49 L 164.90,191.68 L 164.44,190.24 L 163.96,188.86 L 162.73,186.69 L 160.33,183.99 L 159.59,183.34 L 158.35,182.43 L 157.75,182.03 L 156.50,181.52 L 155.84,181.31 L 154.25,181.10 L 151.07,181.00 L 149.91,181.00 L 147.85,181.16 L 146.85,181.27 L 144.87,181.72 L 143.86,181.99 L 141.64,182.82 L 137.68,184.57 L 136.14,185.31 L 133.64,186.37 L 132.45,186.84 L 130.36,187.47 L 129.32,187.73 L 127.24,188.02 L 123.67,188.19 L 122.78,188.19 L 120.77,188.07 L 119.75,187.99 L 117.67,187.73 L 116.64,187.58 L 114.74,187.21 L 112.34,186.58 L 110.84,186.07 L 108.02,184.79 L 106.65,184.11 L 104.11,182.52 L 102.87,181.69 L 100.62,179.83 L 99.53,178.87 L 97.56,176.78 L 96.61,175.70 L 94.95,173.40 L 94.15,172.23 L 92.79,169.76 L 92.15,168.51 L 91.11,165.91 L 90.63,164.60 L 89.91,161.90 L 89.59,160.54 L 89.20,157.78 L 89.05,156.39 L 89.01,153.61 L 89.03,152.21 L 89.33,149.43 L 89.52,148.04 L 90.18,145.30 L 90.56,143.94 L 91.58,141.28 L 92.14,139.96 L 93.54,137.41 L 94.28,136.16 L 96.06,133.75 L 99.17,130.35 L 100.83,128.76 L 104.00,126.31 L 105.58,125.19 L 108.85,123.59 L 110.53,122.87 L 114.25,121.96 L 115.23,121.77 L 117.33,121.49 L 120.74,121.20 L 122.08,121.13 M 274.35,122.61 L 272.72,122.96 L 271.13,123.35 L 270.43,123.63 L 269.08,124.24 L 268.53,124.63 L 266.50,125.60 L 264.99,126.00 L 264.39,126.00 L 261.55,126.51 L 259.64,127.35 L 258.69,127.98 L 256.80,129.39 L 255.89,130.28 L 254.09,132.18 L 253.25,133.29 L 251.59,135.61 L 250.84,136.91 L 249.40,139.57 L 248.77,141.00 L 247.59,143.93 L 247.12,145.47 L 246.27,148.58 L 245.98,150.18 L 245.04,155.38 L 244.51,158.23 L 244.28,159.40 L 243.84,161.55 L 243.64,162.41 L 243.25,164.00 L 243.06,164.62 L 242.69,165.77 L 242.49,166.22 L 242.09,167.06 L 241.86,167.40 L 240.89,168.63 L 240.21,169.27 L 238.78,170.46 L 237.56,171.37 L 236.87,171.83 L 233.98,173.69 L 232.64,174.40 L 229.96,175.73 L 228.69,176.24 L 228.22,176.31 L 227.34,176.35 L 226.95,176.20 L 226.15,175.82 L 225.67,175.48 L 223.55,174.43 L 222.02,174.00 L 221.43,174.00 L 219.40,173.41 L 218.00,172.55 L 217.50,172.00 L 215.74,170.59 L 214.50,170.00 L 214.05,170.00 L 212.57,169.69 L 211.63,169.23 L 211.34,168.94 L 210.17,168.41 L 208.88,168.13 L 208.04,168.03 L 206.24,167.85 L 205.21,167.80 L 203.07,167.72 L 201.94,167.72 L 197.26,167.82 L 195.07,168.02 L 192.94,168.25 L 192.00,168.40 L 190.21,168.73 L 189.50,168.93 L 185.14,170.55 L 183.77,171.19 L 183.18,171.50 L 182.08,172.13 L 181.69,172.41 L 180.05,173.38 L 178.85,173.86 L 178.14,174.02 L 176.66,174.29 L 175.76,174.37 L 173.85,174.48 L 172.69,174.48 L 169.28,174.38 L 167.53,174.16 L 166.79,173.93 L 165.34,173.38 L 164.58,172.93 L 162.99,171.91 L 162.00,171.18 L 158.67,168.44 L 157.07,166.75 L 156.54,165.89 L 155.63,164.15 L 155.38,163.19 L 155.02,161.18 L 155.00,160.00 L 154.89,158.34 L 154.74,157.01 L 154.63,156.26 L 154.11,153.04 L 153.74,151.23 L 152.95,147.53 L 152.48,145.67 L 151.52,141.99 L 151.01,140.32 L 149.17,136.50 L 147.35,134.04 L 146.20,132.88 L 143.75,130.64 L 142.35,129.62 L 139.44,127.67 L 137.86,126.83 L 134.64,125.26 L 132.98,124.65 L 129.62,123.55 L 127.94,123.21 L 124.61,122.66 L 123.00,122.63 L 119.85,122.72 L 118.40,123.04 L 116.10,123.67 L 114.41,124.23 L 113.52,124.56 L 109.88,126.05 L 108.10,126.92 L 104.62,128.71 L 103.19,129.59 L 101.83,130.47 L 101.27,130.89 L 100.23,131.70 L 99.87,132.06 L 98.57,133.79 L 97.58,135.45 L 97.05,136.47 L 95.96,138.61 L 95.41,139.80 L 94.32,142.23 L 93.79,143.48 L 92.77,145.99 L 92.32,147.22 L 91.46,149.62 L 91.11,150.71 L 90.49,152.80 L 90.30,153.65 L 90.00,155.23 L 90.00,155.76 L 90.15,157.34 L 90.39,158.59 L 90.56,159.27 L 91.38,162.05 L 91.90,163.22 L 93.75,167.42 L 94.40,168.91 L 94.69,169.61 L 95.27,170.95 L 95.50,171.50 L 96.54,173.44 L 97.44,174.76 L 97.97,175.42 L 100.29,178.01 L 101.59,179.14 L 104.25,181.23 L 105.51,181.91 L 106.75,182.53 L 107.31,182.71 L 108.40,183.00 L 108.87,183.00 L 111.08,183.28 L 112.29,183.69 L 112.55,183.95 L 113.59,184.56 L 114.64,184.94 L 115.29,185.11 L 118.21,185.72 L 119.83,185.91 L 123.10,186.19 L 124.47,186.16 L 125.78,186.09 L 126.29,186.01 L 127.22,185.81 L 127.50,185.66 L 129.86,184.82 L 131.84,184.44 L 132.72,184.41 L 135.48,183.92 L 137.14,183.30 L 137.59,182.93 L 139.50,181.71 L 141.08,180.99 L 141.98,180.69 L 145.80,179.59 L 147.78,179.30 L 149.74,179.05 L 150.67,179.01 L 152.47,178.96 L 153.26,179.02 L 154.76,179.20 L 155.35,179.38 L 156.40,179.80 L 156.71,180.11 L 158.41,181.08 L 160.09,181.68 L 160.96,181.86 L 163.16,182.53 L 163.66,182.79 L 163.82,182.91 L 164.05,183.15 L 164.04,183.26 L 164.13,183.82 L 164.29,184.42 L 164.42,184.79 L 165.01,186.49 L 165.41,187.43 L 166.01,189.22 L 166.42,190.72 L 166.61,191.56 L 167.30,195.08 L 167.48,196.68 L 168.61,203.18 L 169.73,207.58 L 170.38,209.55 L 171.04,211.46 L 171.38,212.31 L 172.06,213.93 L 172.39,214.60 L 173.05,215.82 L 173.37,216.26 L 173.98,216.99 L 174.26,217.14 L 175.82,218.54 L 176.76,219.87 L 177.01,220.53 L 177.79,221.72 L 178.65,222.63 L 179.21,223.12 L 181.78,225.12 L 183.29,225.97 L 188.10,229.45 L 189.59,230.82 L 190.25,231.53 L 191.50,232.95 L 192.00,233.64 L 193.74,236.27 L 194.50,237.72 L 194.72,238.43 L 195.06,239.87 L 195.12,240.73 L 195.16,242.56 L 195.11,243.75 L 194.37,248.50 L 193.36,251.43 L 192.63,252.72 L 191.04,255.18 L 190.05,256.17 L 187.96,257.98 L 186.76,258.59 L 183.98,260.18 L 183.12,260.73 L 182.76,260.99 L 182.09,261.48 L 181.86,261.67 L 180.65,262.29 L 179.40,262.67 L 178.60,262.83 L 176.87,263.13 L 175.86,263.25 L 173.75,263.46 L 172.58,263.52 L 170.29,263.63 L 169.01,263.67 L 168.47,263.68 L 166.58,263.64 L 165.92,263.53 L 164.78,263.23 L 164.36,262.96 L 163.59,262.34 L 163.21,261.89 L 161.25,260.05 L 159.64,258.86 L 158.94,258.49 L 157.91,257.68 L 157.27,256.90 L 156.98,256.38 L 156.40,255.26 L 156.13,254.57 L 155.61,253.11 L 155.37,252.24 L 154.90,250.43 L 154.69,249.38 L 154.28,247.21 L 154.09,245.98 L 153.73,243.44 L 153.56,242.02 L 153.25,239.10 L 153.11,237.50 L 152.91,235.40 L 152.78,234.23 L 152.72,233.76 L 152.43,232.11 L 152.23,231.60 L 151.80,230.78 L 151.48,230.57 L 150.77,230.25 L 150.27,230.18 L 149.18,229.82 L 148.55,229.38 L 148.28,229.04 L 147.76,228.28 L 147.53,227.77 L 147.08,226.65 L 146.86,225.93 L 145.78,223.16 L 145.42,222.51 L 145.26,222.31 L 144.96,222.00 L 144.84,222.00 L 144.22,221.74 L 143.57,221.33 L 143.15,221.03 L 141.28,219.61 L 140.25,218.70 L 138.46,217.28 L 137.09,216.30 L 136.36,215.83 L 134.91,214.93 L 134.22,214.54 L 132.86,213.82 L 132.28,213.57 L 129.87,212.75 L 128.11,212.36 L 127.16,212.24 L 123.24,211.98 L 121.19,212.14 L 117.05,212.65 L 115.06,213.19 L 111.18,214.45 L 109.49,215.35 L 105.66,217.22 L 104.62,217.66 L 104.24,217.79 L 103.58,218.00 L 103.43,218.00 L 102.78,218.32 L 102.16,218.81 L 101.79,219.16 L 100.14,220.83 L 99.29,221.82 L 97.61,223.86 L 97.00,224.73 L 96.45,225.56 L 96.27,225.89 L 96.00,226.47 L 96.00,226.64 L 95.79,227.23 L 95.47,227.87 L 95.23,228.28 L 94.11,230.12 L 93.39,231.16 L 92.08,233.33 L 91.46,234.73 L 91.26,235.50 L 90.92,237.14 L 90.83,238.15 L 90.69,240.32 L 90.66,241.71 L 90.90,247.62 L 91.42,251.08 L 91.86,252.57 L 92.87,255.42 L 93.56,256.63 L 95.07,258.92 L 96.02,259.87 L 98.13,262.38 L 98.61,263.14 L 98.77,263.45 L 99.00,264.03 L 99.00,264.22 L 99.37,265.67 L 99.94,266.53 L 100.36,266.88 L 101.28,267.50 L 101.82,267.70 L 102.97,268.00 L 103.58,268.00 L 105.59,268.71 L 106.92,269.75 L 107.36,270.42 L 108.80,271.80 L 110.24,272.69 L 111.13,273.10 L 112.99,273.90 L 114.02,274.25 L 116.11,274.92 L 117.17,275.18 L 119.29,275.65 L 120.30,275.80 L 122.24,276.04 L 123.08,276.06 L 124.65,276.01 L 125.22,275.86 L 126.21,275.47 L 126.42,275.13 L 126.96,274.74 L 127.60,274.46 L 128.03,274.32 L 129.99,273.78 L 131.14,273.59 L 135.10,272.29 L 137.69,270.85 L 138.70,269.96 L 140.70,268.34 L 141.82,267.69 L 142.43,267.53 L 143.71,267.32 L 144.56,267.35 L 146.46,267.48 L 147.79,267.62 L 151.20,268.10 L 153.25,268.49 L 154.17,268.73 L 155.95,269.25 L 156.75,269.55 L 158.28,270.20 L 158.97,270.58 L 161.52,272.26 L 162.55,273.37 L 164.46,275.76 L 165.25,277.28 L 166.66,280.21 L 167.26,281.86 L 167.42,282.67 L 167.66,284.30 L 167.67,285.26 L 167.62,287.29 L 167.52,288.60 L 167.38,291.50 L 167.41,293.08 L 167.49,293.72 L 167.69,294.91 L 167.86,295.38 L 168.23,296.25 L 168.49,296.59 L 169.52,298.55 L 169.96,300.02 L 169.97,300.59 L 170.46,302.29 L 171.21,303.70 L 171.75,304.50 L 172.93,306.16 L 173.64,307.02 L 175.12,308.76 L 175.92,309.62 L 177.57,311.32 L 178.40,312.09 L 180.08,313.59 L 180.88,314.22 L 182.45,315.39 L 183.14,315.79 L 184.47,316.48 L 185.00,316.59 L 187.50,317.38 L 189.31,318.15 L 190.00,318.53 L 191.05,319.01 L 191.75,319.20 L 193.25,319.55 L 194.12,319.67 L 197.85,320.03 L 199.80,320.02 L 201.74,319.97 L 202.65,319.90 L 204.43,319.72 L 205.20,319.59 L 206.66,319.29 L 207.21,319.09 L 208.20,318.66 L 208.46,318.40 L 209.39,317.74 L 210.24,317.31 L 210.75,317.12 L 212.92,316.42 L 214.00,316.27 L 216.23,315.77 L 217.52,315.19 L 218.18,314.71 L 219.53,313.58 L 220.33,312.73 L 221.16,311.84 L 221.62,311.30 L 222.59,310.17 L 223.14,309.51 L 226.61,304.85 L 228.32,301.84 L 228.97,300.13 L 229.59,298.37 L 229.87,297.39 L 230.40,295.37 L 230.64,294.22 L 231.12,291.83 L 231.35,290.47 L 231.81,287.63 L 232.05,286.00 L 232.93,281.44 L 233.70,278.78 L 234.19,277.62 L 235.22,275.44 L 235.85,274.51 L 237.19,272.77 L 237.97,272.06 L 239.64,270.73 L 240.60,270.22 L 242.62,269.29 L 243.78,268.96 L 246.19,268.39 L 247.55,268.23 L 250.38,268.00 L 251.97,268.00 L 254.15,268.02 L 255.37,268.05 L 255.88,268.08 L 257.72,268.26 L 258.41,268.47 L 259.68,268.96 L 260.26,269.37 L 261.44,270.31 L 262.16,271.00 L 263.83,272.42 L 264.90,273.11 L 265.44,273.35 L 266.54,273.74 L 267.14,273.85 L 268.38,274.00 L 269.09,274.00 L 271.95,274.29 L 272.69,274.49 L 272.96,274.61 L 273.42,274.86 L 273.50,275.00 L 274.86,275.73 L 276.42,275.96 L 277.43,275.95 L 279.59,275.85 L 280.79,275.67 L 283.25,275.23 L 284.50,274.89 L 286.92,274.06 L 288.64,273.34 L 289.51,272.92 L 292.99,271.08 L 294.55,270.06 L 296.05,269.04 L 296.71,268.54 L 297.95,267.55 L 298.44,267.08 L 299.32,266.18 L 299.59,265.79 L 300.00,265.05 L 300.00,264.76 L 300.23,263.78 L 300.59,263.00 L 300.86,262.58 L 302.12,260.82 L 302.92,260.07 L 305.04,257.52 L 306.22,255.51 L 306.68,254.37 L 307.53,252.02 L 307.82,250.75 L 308.33,248.15 L 308.46,246.79 L 308.62,244.03 L 308.57,242.62 L 308.38,239.79 L 308.15,238.37 L 307.59,235.55 L 307.18,234.18 L 306.26,231.46 L 305.66,230.17 L 303.19,226.05 L 301.10,223.30 L 299.98,222.11 L 298.87,220.96 L 298.33,220.46 L 297.27,219.53 L 296.77,219.16 L 295.82,218.51 L 295.40,218.31 L 294.62,218.00 L 294.31,218.00 L 293.40,217.78 L 292.58,217.44 L 292.11,217.19 L 290.08,216.01 L 289.09,215.26 L 286.92,213.94 L 285.26,213.22 L 284.34,212.94 L 282.47,212.44 L 281.47,212.28 L 279.45,212.01 L 278.40,211.96 L 274.15,211.98 L 272.06,212.34 L 269.99,212.77 L 268.99,213.06 L 267.03,213.72 L 266.12,214.14 L 264.13,215.11 L 262.97,215.74 L 262.50,216.02 L 261.66,216.55 L 261.40,216.76 L 261.00,217.13 L 261.00,217.23 L 260.68,217.72 L 260.19,218.20 L 259.82,218.50 L 258.10,219.81 L 257.00,220.50 L 254.17,222.63 L 253.52,223.28 L 253.32,223.55 L 253.00,224.05 L 253.00,224.21 L 252.74,224.94 L 252.34,225.63 L 252.05,226.04 L 250.65,227.83 L 249.75,228.76 L 248.09,230.66 L 247.33,231.80 L 247.09,232.40 L 246.69,233.64 L 246.59,234.39 L 246.45,236.00 L 246.43,237.04 L 246.18,240.72 L 246.04,241.67 L 245.95,242.00 L 245.77,242.56 L 245.68,242.65 L 245.42,243.21 L 245.26,243.84 L 245.20,244.24 L 245.00,246.07 L 245.00,247.10 L 244.70,250.79 L 244.16,252.94 L 243.69,253.95 L 242.61,255.93 L 241.83,256.93 L 240.10,258.94 L 238.95,260.05 L 234.92,263.92 L 226.88,263.54 L 224.00,263.34 L 222.28,263.15 L 221.50,263.01 L 218.57,262.35 L 217.26,261.78 L 214.70,260.47 L 213.37,259.50 L 212.03,258.47 L 211.32,257.86 L 209.86,256.58 L 209.06,255.84 L 207.05,253.41 L 205.90,251.47 L 205.47,250.48 L 204.73,248.51 L 204.58,247.66 L 204.42,246.06 L 204.62,245.54 L 204.76,244.69 L 204.74,243.96 L 204.68,243.54 L 204.33,241.79 L 203.98,240.96 L 203.38,239.21 L 203.29,238.31 L 203.45,237.88 L 203.91,237.00 L 204.38,236.46 L 205.51,235.26 L 206.37,234.43 L 208.93,231.73 L 209.53,231.01 L 209.71,230.75 L 210.00,230.29 L 210.00,230.20 L 210.23,229.82 L 210.60,229.50 L 210.86,229.31 L 212.13,228.55 L 212.94,228.19 L 214.72,227.19 L 216.06,226.26 L 216.78,225.69 L 219.77,223.17 L 221.26,221.68 L 224.20,218.60 L 225.44,217.08 L 226.63,215.56 L 227.12,214.85 L 228.05,213.45 L 228.38,212.82 L 229.46,210.36 L 230.06,208.51 L 230.31,207.46 L 230.76,205.25 L 230.94,203.98 L 231.27,201.31 L 231.39,199.78 L 232.39,193.27 L 233.45,189.25 L 234.11,187.58 L 234.77,185.98 L 235.12,185.30 L 235.83,184.02 L 236.20,183.54 L 236.92,182.66 L 237.28,182.40 L 237.99,182.00 L 238.34,181.99 L 239.91,181.60 L 241.35,181.02 L 242.05,180.66 L 246.07,179.12 L 248.82,178.61 L 250.21,178.61 L 253.00,178.77 L 254.39,179.11 L 257.15,179.96 L 258.50,180.64 L 264.79,183.49 L 268.62,184.87 L 270.37,185.31 L 273.75,186.01 L 275.29,186.12 L 278.27,186.17 L 279.62,185.94 L 283.76,185.07 L 286.70,184.28 L 288.16,183.82 L 291.05,182.85 L 292.36,182.33 L 294.87,181.28 L 295.87,180.76 L 297.09,179.87 L 298.02,178.97 L 298.54,178.39 L 300.69,175.77 L 301.80,174.16 L 304.01,170.79 L 304.98,169.05 L 306.80,165.58 L 307.40,164.03 L 308.33,160.51 L 308.63,157.86 L 308.64,156.43 L 308.56,153.53 L 308.39,152.04 L 307.97,149.04 L 307.63,147.55 L 306.89,144.60 L 306.42,143.20 L 305.39,140.45 L 304.79,139.20 L 303.52,136.81 L 302.81,135.79 L 301.32,133.90 L 300.52,133.20 L 298.74,131.38 L 298.33,130.84 L 298.20,130.62 L 298.00,130.21 L 298.00,130.08 L 297.70,129.63 L 297.24,129.26 L 296.90,129.07 L 295.28,128.26 L 294.25,127.93 L 291.01,126.70 L 290.00,126.25 L 289.57,126.05 L 288.77,125.64 L 288.50,125.47 L 286.17,124.30 L 284.47,123.66 L 283.57,123.42 L 279.88,122.64 L 278.02,122.56 M 107.72,176.29 L 108.00,176.72 L 108.00,177.00 L 107.82,177.53 L 107.54,177.71 L 106.87,178.00 L 106.44,178.00 L 105.52,177.71 L 105.33,177.28 L 105.50,177.00 L 106.21,176.29 L 106.80,176.00 L 107.06,176.00 M 202.23,76.17 L 208.13,77.00 L 209.79,77.40 L 212.55,78.22 L 213.86,78.65 L 216.13,79.68 L 217.23,80.23 L 219.32,81.60 L 222.61,84.23 L 224.16,85.59 L 226.79,88.65 L 228.03,90.23 L 230.03,93.66 L 230.95,95.41 L 232.30,99.11 L 232.89,100.99 L 233.58,104.86 L 233.84,106.81 L 233.86,110.76 L 233.78,112.74 L 233.10,116.68 L 232.68,118.64 L 231.31,122.48 L 228.44,128.00 L 227.46,129.55 L 225.11,132.35 L 223.88,133.70 L 221.12,136.07 L 219.69,137.20 L 216.60,139.10 L 215.02,139.98 L 211.70,141.38 L 210.01,142.02 L 206.53,142.88 L 204.79,143.25 L 201.25,143.54 L 199.48,143.62 L 195.98,143.31 L 194.24,143.08 L 190.85,142.15 L 188.33,141.31 L 183.84,139.08 L 181.69,137.87 L 177.91,134.87 L 176.12,133.28 L 173.06,129.51 L 169.27,123.00 L 168.82,122.02 L 168.10,119.92 L 167.76,118.85 L 167.26,116.59 L 166.81,114.31 L 166.59,109.50 L 166.59,107.09 L 167.26,102.37 L 167.49,101.21 L 168.10,98.99 L 169.28,95.84 L 170.08,94.05 L 172.15,90.76 L 173.26,89.17 L 175.86,86.32 L 177.22,84.96 L 180.27,82.60 L 181.85,81.49 L 185.25,79.66 L 186.99,78.82 L 190.66,77.56 L 192.52,77.01 L 196.37,76.38 L 198.30,76.14 M 199.17,77.89 L 195.31,77.98 L 193.36,78.14 L 192.61,78.29 L 191.23,78.65 L 190.66,78.92 L 189.58,79.52 L 189.06,79.94 L 186.22,81.84 L 183.96,83.11 L 183.00,83.54 L 179.76,85.45 L 177.51,87.15 L 176.51,88.06 L 174.63,89.88 L 174.00,90.68 L 173.44,91.45 L 173.27,91.78 L 173.00,92.39 L 173.00,92.62 L 172.60,93.89 L 172.02,94.84 L 171.65,95.21 L 171.02,96.15 L 170.54,97.11 L 170.30,97.71 L 169.32,100.37 L 168.95,101.81 L 168.29,104.67 L 168.09,106.07 L 168.11,106.63 L 168.23,107.68 L 168.41,108.18 L 168.86,109.18 L 169.21,109.78 L 170.00,111.29 L 170.28,112.10 L 170.30,112.48 L 170.25,113.24 L 170.11,113.66 L 169.74,114.55 L 169.45,115.12 L 168.79,116.68 L 168.63,117.61 L 168.72,118.15 L 169.01,119.28 L 169.34,120.04 L 170.12,121.72 L 170.72,122.88 L 173.56,127.15 L 174.61,128.33 L 175.14,128.81 L 176.20,129.69 L 176.69,129.98 L 179.36,132.08 L 180.13,132.88 L 180.43,133.27 L 180.97,134.03 L 181.12,134.36 L 182.67,136.21 L 184.37,137.47 L 185.48,138.07 L 187.84,139.25 L 189.20,139.77 L 192.01,140.74 L 193.50,141.11 L 194.49,141.29 L 195.17,141.36 L 196.65,141.47 L 197.50,141.49 L 201.14,141.51 L 202.89,141.38 L 208.19,140.47 L 211.54,139.40 L 212.99,138.71 L 214.38,137.99 L 215.00,137.60 L 216.16,136.81 L 216.65,136.40 L 217.53,135.56 L 217.86,135.14 L 218.41,134.28 L 218.55,133.85 L 219.84,132.13 L 221.27,131.10 L 222.06,130.83 L 223.67,129.90 L 224.74,128.93 L 225.26,128.31 L 226.29,126.98 L 226.77,126.22 L 227.70,124.64 L 228.12,123.78 L 229.61,120.26 L 230.01,118.52 L 230.35,116.80 L 230.41,116.00 L 230.45,114.44 L 230.35,113.76 L 230.14,111.94 L 230.12,110.95 L 230.18,110.56 L 230.32,109.85 L 230.46,109.59 L 230.78,109.14 L 231.00,109.00 L 231.48,108.31 L 231.64,107.57 L 231.65,107.09 L 231.61,106.06 L 231.52,105.46 L 231.30,104.20 L 231.13,103.50 L 230.28,100.57 L 229.65,99.01 L 228.25,95.87 L 227.39,94.40 L 224.53,90.40 L 222.23,87.83 L 221.05,86.73 L 218.69,84.70 L 217.65,84.04 L 216.65,83.45 L 216.21,83.27 L 215.39,83.00 L 215.06,83.00 L 213.52,82.44 L 212.70,81.62 L 212.53,81.10 L 211.43,79.57 L 210.11,78.83 L 209.07,78.58 L 207.97,78.35 L 207.31,78.26 L 205.92,78.10 L 205.10,78.05 L 203.39,77.95 L 202.40,77.93 L 200.34,77.89 Z" fill="rgb(234,148,54)"/>
<path d="M 190.00,318.53 L 189.31,318.15 L 187.50,317.38 L 185.00,316.59 L 184.47,316.48 L 183.14,315.79 L 182.45,315.39 L 180.88,314.22 L 180.08,313.59 L 178.40,312.09 L 177.57,311.32 L 175.92,309.62 L 175.12,308.76 L 173.64,307.02 L 172.93,306.16 L 171.75,304.50 L 171.21,303.70 L 170.46,302.29 L 169.97,300.59 L 169.96,300.02 L 169.52,298.55 L 168.49,296.59 L 168.23,296.25 L 167.86,295.38 L 167.69,294.91 L 167.49,293.72 L 167.41,293.08 L 167.38,291.50 L 167.52,288.60 L 167.62,287.29 L 167.67,285.26 L 167.66,284.30 L 167.42,282.67 L 167.26,281.86 L 166.66,280.21 L 165.25,277.28 L 164.46,275.76 L 162.55,273.37 L 161.52,272.26 L 158.97,270.58 L 158.28,270.20 L 156.75,269.55 L 155.95,269.25 L 154.17,268.73 L 153.25,268.49 L 151.20,268.10 L 147.79,267.62 L 146.46,267.48 L 144.56,267.35 L 143.71,267.32 L 142.43,267.53 L 141.82,267.69 L 140.70,268.34 L 138.70,269.96 L 137.69,270.85 L 135.10,272.29 L 131.14,273.59 L 129.99,273.78 L 128.03,274.32 L 127.60,274.46 L 126.96,274.74 L 126.42,275.13 L 126.21,275.47 L 125.22,275.86 L 124.65,276.01 L 123.08,276.06 L 122.24,276.04 L 120.30,275.80 L 119.29,275.65 L 117.17,275.18 L 116.11,274.92 L 114.02,274.25 L 112.99,273.90 L 111.13,273.10 L 110.24,272.69 L 108.80,271.80 L 107.36,270.42 L 106.92,269.75 L 105.59,268.71 L 103.58,268.00 L 102.97,268.00 L 101.82,267.70 L 101.28,267.50 L 100.36,266.88 L 99.94,266.53 L 99.37,265.67 L 99.00,264.22 L 99.00,264.03 L 98.77,263.45 L 98.61,263.14 L 98.13,262.38 L 96.02,259.87 L 95.07,258.92 L 93.56,256.63 L 92.87,255.42 L 91.86,252.57 L 91.42,251.08 L 90.90,247.62 L 90.66,241.71 L 90.69,240.32 L 90.83,238.15 L 90.92,237.14 L 91.26,235.50 L 91.46,234.73 L 92.08,233.33 L 93.39,231.16 L 94.11,230.12 L 95.23,228.28 L 95.47,227.87 L 95.79,227.23 L 96.00,226.64 L 96.00,226.47 L 96.27,225.89 L 96.45,225.56 L 97.00,224.73 L 97.61,223.86 L 99.29,221.82 L 100.14,220.83 L 101.79,219.16 L 102.16,218.81 L 102.78,218.32 L 103.43,218.00 L 103.58,218.00 L 104.24,217.79 L 104.62,217.66 L 105.66,217.22 L 109.49,215.35 L 111.18,214.45 L 115.06,213.19 L 117.05,212.65 L 121.19,212.14 L 123.24,211.98 L 127.16,212.24 L 128.11,212.36 L 129.87,212.75 L 132.28,213.57 L 132.86,213.82 L 134.22,214.54 L 134.91,214.93 L 136.36,215.83 L 137.09,216.30 L 138.46,217.28 L 140.25,218.70 L 141.28,219.61 L 143.15,221.03 L 143.57,221.33 L 144.22,221.74 L 144.84,222.00 L 144.96,222.00 L 145.26,222.31 L 145.42,222.51 L 145.78,223.16 L 146.86,225.93 L 147.08,226.65 L 147.53,227.77 L 147.76,228.28 L 148.28,229.04 L 148.55,229.38 L 149.18,229.82 L 150.27,230.18 L 150.77,230.25 L 151.48,230.57 L 151.80,230.78 L 152.23,231.60 L 152.43,232.11 L 152.72,233.76 L 152.78,234.23 L 152.91,235.40 L 153.11,237.50 L 153.25,239.10 L 153.56,242.02 L 153.73,243.44 L 154.09,245.98 L 154.28,247.21 L 154.69,249.38 L 154.90,250.43 L 155.37,252.24 L 155.61,253.11 L 156.13,254.57 L 156.40,255.26 L 156.98,256.38 L 157.27,256.90 L 157.91,257.68 L 158.94,258.49 L 159.64,258.86 L 161.25,260.05 L 163.21,261.89 L 163.59,262.34 L 164.36,262.96 L 164.78,263.23 L 165.92,263.53 L 166.58,263.64 L 168.47,263.68 L 169.01,263.67 L 170.29,263.63 L 172.58,263.52 L 173.75,263.46 L 175.86,263.25 L 176.87,263.13 L 178.60,262.83 L 179.40,262.67 L 180.65,262.29 L 181.86,261.67 L 182.09,261.48 L 182.76,260.99 L 183.12,260.73 L 183.98,260.18 L 186.76,258.59 L 187.96,257.98 L 190.05,256.17 L 191.04,255.18 L 192.63,252.72 L 193.36,251.43 L 194.37,248.50 L 195.11,243.75 L 195.16,242.56 L 195.12,240.73 L 195.06,239.87 L 194.72,238.43 L 194.50,237.72 L 193.74,236.27 L 192.00,233.64 L 191.50,232.95 L 190.25,231.53 L 189.59,230.82 L 188.10,229.45 L 183.29,225.97 L 181.78,225.12 L 179.21,223.12 L 178.65,222.63 L 177.79,221.72 L 177.01,220.53 L 176.76,219.87 L 175.82,218.54 L 174.26,217.14 L 173.98,216.99 L 173.37,216.26 L 173.05,215.82 L 172.39,214.60 L 172.06,213.93 L 171.38,212.31 L 171.04,211.46 L 170.38,209.55 L 169.73,207.58 L 168.61,203.18 L 167.48,196.68 L 167.30,195.08 L 166.61,191.56 L 166.42,190.72 L 166.01,189.22 L 165.41,187.43 L 165.01,186.49 L 164.42,184.79 L 164.29,184.42 L 164.13,183.82 L 164.04,183.26 L 164.05,183.15 L 163.82,182.91 L 163.66,182.79 L 163.16,182.53 L 160.96,181.86 L 160.09,181.68 L 158.41,181.08 L 156.71,180.11 L 156.40,179.80 L 155.35,179.38 L 154.76,179.20 L 153.26,179.02 L 152.47,178.96 L 150.67,179.01 L 149.74,179.05 L 147.78,179.30 L 145.80,179.59 L 141.98,180.69 L 141.08,180.99 L 139.50,181.71 L 137.59,182.93 L 137.14,183.30 L 135.48,183.92 L 132.72,184.41 L 131.84,184.44 L 129.86,184.82 L 127.50,185.66 L 127.22,185.81 L 126.29,186.01 L 125.78,186.09 L 124.47,186.16 L 123.10,186.19 L 119.83,185.91 L 118.21,185.72 L 115.29,185.11 L 114.64,184.94 L 113.59,184.56 L 112.55,183.95 L 112.29,183.69 L 111.08,183.28 L 108.87,183.00 L 108.40,183.00 L 107.31,182.71 L 106.75,182.53 L 105.51,181.91 L 104.25,181.23 L 101.59,179.14 L 100.29,178.01 L 97.97,175.42 L 97.44,174.76 L 96.54,173.44 L 95.50,171.50 L 95.27,170.95 L 94.69,169.61 L 94.40,168.91 L 93.75,167.42 L 91.90,163.22 L 91.38,162.05 L 90.56,159.27 L 90.39,158.59 L 90.15,157.34 L 90.00,155.76 L 90.00,155.23 L 90.30,153.65 L 90.49,152.80 L 91.11,150.71 L 91.46,149.62 L 92.32,147.22 L 92.77,145.99 L 93.79,143.48 L 94.32,142.23 L 95.41,139.80 L 95.96,138.61 L 97.05,136.47 L 97.58,135.45 L 98.57,133.79 L 99.87,132.06 L 100.23,131.70 L 101.27,130.89 L 101.83,130.47 L 103.19,129.59 L 104.62,128.71 L 108.10,126.92 L 109.88,126.05 L 113.52,124.56 L 114.41,124.23 L 116.10,123.67 L 118.40,123.04 L 119.85,122.72 L 123.00,122.63 L 124.61,122.66 L 127.94,123.21 L 129.62,123.55 L 132.98,124.65 L 134.64,125.26 L 137.86,126.83 L 139.44,127.67 L 142.35,129.62 L 143.75,130.64 L 146.20,132.88 L 147.35,134.04 L 149.17,136.50 L 151.01,140.32 L 151.52,141.99 L 152.48,145.67 L 152.95,147.53 L 153.74,151.23 L 154.11,153.04 L 154.63,156.26 L 154.74,157.01 L 154.89,158.34 L 155.00,160.00 L 155.02,161.18 L 155.38,163.19 L 155.63,164.15 L 156.54,165.89 L 157.07,166.75 L 158.67,168.44 L 162.00,171.18 L 162.99,171.91 L 164.58,172.93 L 165.34,173.38 L 166.79,173.93 L 167.53,174.16 L 169.28,174.38 L 172.69,174.48 L 173.85,174.48 L 175.76,174.37 L 176.66,174.29 L 178.14,174.02 L 178.85,173.86 L 180.05,173.38 L 181.69,172.41 L 182.08,172.13 L 183.18,171.50 L 183.77,171.19 L 185.14,170.55 L 189.50,168.93 L 190.21,168.73 L 192.00,168.40 L 192.94,168.25 L 195.07,168.02 L 197.26,167.82 L 201.94,167.72 L 203.07,167.72 L 205.21,167.80 L 206.24,167.85 L 208.04,168.03 L 208.88,168.13 L 210.17,168.41 L 211.34,168.94 L 211.63,169.23 L 212.57,169.69 L 214.05,170.00 L 214.50,170.00 L 215.74,170.59 L 217.50,172.00 L 218.00,172.55 L 219.40,173.41 L 221.43,174.00 L 222.02,174.00 L 223.55,174.43 L 225.67,175.48 L 226.15,175.82 L 226.95,176.20 L 227.34,176.35 L 228.22,176.31 L 228.69,176.24 L 229.96,175.73 L 232.64,174.40 L 233.98,173.69 L 236.87,171.83 L 237.56,171.37 L 238.78,170.46 L 240.21,169.27 L 240.89,168.63 L 241.86,167.40 L 242.09,167.06 L 242.49,166.22 L 242.69,165.77 L 243.06,164.62 L 243.25,164.00 L 243.64,162.41 L 243.84,161.55 L 244.28,159.40 L 244.51,158.23 L 245.04,155.38 L 245.98,150.18 L 246.27,148.58 L 247.12,145.47 L 247.59,143.93 L 248.77,141.00 L 249.40,139.57 L 250.84,136.91 L 251.59,135.61 L 253.25,133.29 L 254.09,132.18 L 255.89,130.28 L 256.80,129.39 L 258.69,127.98 L 259.64,127.35 L 261.55,126.51 L 264.39,126.00 L 264.99,126.00 L 266.50,125.60 L 268.53,124.63 L 269.08,124.24 L 270.43,123.63 L 271.13,123.35 L 272.72,122.96 L 274.35,122.61 L 278.02,122.56 L 279.88,122.64 L 283.57,123.42 L 284.47,123.66 L 286.17,124.30 L 288.50,125.47 L 288.77,125.64 L 289.57,126.05 L 290.00,126.25 L 291.01,126.70 L 294.25,127.93 L 295.28,128.26 L 296.90,129.07 L 297.24,129.26 L 297.70,129.63 L 298.00,130.08 L 298.00,130.21 L 298.20,130.62 L 298.33,130.84 L 298.74,131.38 L 300.52,133.20 L 301.32,133.90 L 302.81,135.79 L 303.52,136.81 L 304.79,139.20 L 305.39,140.45 L 306.42,143.20 L 306.89,144.60 L 307.63,147.55 L 307.97,149.04 L 308.39,152.04 L 308.56,153.53 L 308.64,156.43 L 308.63,157.86 L 308.33,160.51 L 307.40,164.03 L 306.80,165.58 L 304.98,169.05 L 304.01,170.79 L 301.80,174.16 L 300.69,175.77 L 298.54,178.39 L 298.02,178.97 L 297.09,179.87 L 295.87,180.76 L 294.87,181.28 L 292.36,182.33 L 291.05,182.85 L 288.16,183.82 L 286.70,184.28 L 283.76,185.07 L 279.62,185.94 L 278.27,186.17 L 275.29,186.12 L 273.75,186.01 L 270.37,185.31 L 268.62,184.87 L 264.79,183.49 L 258.50,180.64 L 257.15,179.96 L 254.39,179.11 L 253.00,178.77 L 250.21,178.61 L 248.82,178.61 L 246.07,179.12 L 242.05,180.66 L 241.35,181.02 L 239.91,181.60 L 238.34,181.99 L 237.99,182.00 L 237.28,182.40 L 236.92,182.66 L 236.20,183.54 L 235.83,184.02 L 235.12,185.30 L 234.77,185.98 L 234.11,187.58 L 233.45,189.25 L 232.39,193.27 L 231.39,199.78 L 231.27,201.31 L 230.94,203.98 L 230.76,205.25 L 230.31,207.46 L 230.06,208.51 L 229.46,210.36 L 228.38,212.82 L 228.05,213.45 L 227.12,214.85 L 226.63,215.56 L 225.44,217.08 L 224.20,218.60 L 221.26,221.68 L 219.77,223.17 L 216.78,225.69 L 216.06,226.26 L 214.72,227.19 L 212.94,228.19 L 212.13,228.55 L 210.86,229.31 L 210.60,229.50 L 210.23,229.82 L 210.00,230.20 L 210.00,230.29 L 209.71,230.75 L 209.53,231.01 L 208.93,231.73 L 206.37,234.43 L 205.51,235.26 L 204.38,236.46 L 203.91,237.00 L 203.45,237.88 L 203.29,238.31 L 203.38,239.21 L 203.98,240.96 L 204.33,241.79 L 204.68,243.54 L 204.74,243.96 L 204.76,244.69 L 204.62,245.54 L 204.42,246.06 L 204.58,247.66 L 204.73,248.51 L 205.47,250.48 L 205.90,251.47 L 207.05,253.41 L 209.06,255.84 L 209.86,256.58 L 211.32,257.86 L 212.03,258.47 L 213.37,259.50 L 214.70,260.47 L 217.26,261.78 L 218.57,262.35 L 221.50,263.01 L 222.28,263.15 L 224.00,263.34 L 226.88,263.54 L 234.92,263.92 L 238.95,260.05 L 240.10,258.94 L 241.83,256.93 L 242.61,255.93 L 243.69,253.95 L 244.16,252.94 L 244.70,250.79 L 245.00,247.10 L 245.00,246.07 L 245.20,244.24 L 245.26,243.84 L 245.42,243.21 L 245.68,242.65 L 245.77,242.56 L 245.95,242.00 L 246.04,241.67 L 246.18,240.72 L 246.43,237.04 L 246.45,236.00 L 246.59,234.39 L 246.69,233.64 L 247.09,232.40 L 247.33,231.80 L 248.09,230.66 L 249.75,228.76 L 250.65,227.83 L 252.05,226.04 L 252.34,225.63 L 252.74,224.94 L 253.00,224.21 L 253.00,224.05 L 253.32,223.55 L 253.52,223.28 L 254.17,222.63 L 257.00,220.50 L 258.10,219.81 L 259.83,218.50 L 260.19,218.20 L 260.68,217.72 L 261.00,217.23 L 261.00,217.13 L 261.40,216.76 L 261.66,216.55 L 262.50,216.02 L 262.97,215.74 L 264.13,215.11 L 266.12,214.14 L 267.03,213.72 L 268.99,213.06 L 269.99,212.77 L 272.06,212.34 L 274.15,211.98 L 278.40,211.96 L 279.45,212.01 L 281.47,212.28 L 282.47,212.44 L 284.34,212.94 L 285.26,213.22 L 286.92,213.94 L 289.09,215.26 L 290.08,216.01 L 292.11,217.19 L 292.58,217.44 L 293.40,217.78 L 294.31,218.00 L 294.62,218.00 L 295.40,218.31 L 295.82,218.51 L 296.77,219.16 L 297.27,219.53 L 298.33,220.46 L 298.87,220.96 L 299.98,222.11 L 301.10,223.30 L 303.19,226.05 L 305.66,230.17 L 306.26,231.46 L 307.18,234.18 L 307.59,235.55 L 308.15,238.37 L 308.38,239.79 L 308.57,242.62 L 308.62,244.03 L 308.46,246.79 L 308.33,248.15 L 307.82,250.75 L 307.53,252.02 L 306.68,254.37 L 306.22,255.51 L 305.04,257.52 L 302.92,260.07 L 302.12,260.82 L 300.86,262.58 L 300.59,263.00 L 300.23,263.78 L 300.00,264.76 L 300.00,265.05 L 299.59,265.79 L 299.32,266.18 L 298.44,267.08 L 297.95,267.55 L 296.71,268.54 L 296.05,269.04 L 294.55,270.06 L 292.99,271.08 L 289.51,272.92 L 288.64,273.34 L 286.92,274.06 L 284.50,274.89 L 283.25,275.23 L 280.79,275.67 L 279.59,275.85 L 277.43,275.95 L 276.42,275.96 L 274.86,275.73 L 273.50,275.00 L 273.42,274.86 L 272.96,274.61 L 272.69,274.49 L 271.95,274.29 L 269.09,274.00 L 268.38,274.00 L 267.14,273.85 L 266.54,273.74 L 265.44,273.35 L 264.90,273.11 L 263.83,272.42 L 262.16,271.00 L 261.44,270.31 L 260.26,269.37 L 259.68,268.96 L 258.41,268.47 L 257.72,268.26 L 255.88,268.08 L 255.37,268.05 L 254.15,268.02 L 251.97,268.00 L 250.38,268.00 L 247.55,268.23 L 246.19,268.39 L 243.78,268.96 L 242.62,269.29 L 240.60,270.22 L 239.64,270.73 L 237.97,272.06 L 237.19,272.77 L 235.85,274.51 L 235.22,275.44 L 234.19,277.62 L 233.70,278.78 L 232.93,281.44 L 232.05,286.00 L 231.81,287.63 L 231.35,290.47 L 231.12,291.83 L 230.64,294.22 L 230.40,295.37 L 229.87,297.39 L 229.59,298.37 L 228.97,300.13 L 228.32,301.84 L 226.61,304.85 L 223.14,309.51 L 222.59,310.17 L 221.62,311.30 L 221.16,311.84 L 220.33,312.73 L 219.53,313.58 L 218.18,314.71 L 217.52,315.19 L 216.23,315.77 L 214.00,316.27 L 212.92,316.42 L 210.75,317.12 L 210.24,317.31 L 209.39,317.74 L 208.46,318.40 L 208.20,318.66 L 207.21,319.09 L 206.66,319.29 L 205.20,319.59 L 204.43,319.72 L 202.65,319.90 L 201.74,319.97 L 199.80,320.02 L 197.85,320.03 L 194.12,319.67 L 193.25,319.55 L 191.75,319.20 L 191.05,319.01 M 108.00,177.00 L 108.00,176.72 L 107.72,176.29 L 107.06,176.00 L 106.80,176.00 L 106.21,176.29 L 105.50,177.00 L 105.33,177.28 L 105.52,177.71 L 106.44,178.00 L 106.87,178.00 L 107.54,177.71 L 107.82,177.53 M 193.50,141.11 L 192.01,140.74 L 189.20,139.77 L 187.84,139.25 L 185.48,138.07 L 184.37,137.47 L 182.67,136.21 L 181.12,134.36 L 180.97,134.03 L 180.43,133.27 L 180.13,132.88 L 179.36,132.08 L 176.69,129.98 L 176.20,129.69 L 175.14,128.81 L 174.61,128.33 L 173.56,127.15 L 170.72,122.88 L 170.12,121.72 L 169.34,120.04 L 169.01,119.28 L 168.72,118.15 L 168.63,117.61 L 168.79,116.68 L 169.45,115.12 L 169.74,114.55 L 170.11,113.66 L 170.25,113.24 L 170.30,112.48 L 170.28,112.10 L 170.00,111.29 L 169.21,109.78 L 168.86,109.18 L 168.41,108.18 L 168.23,107.68 L 168.11,106.63 L 168.09,106.07 L 168.29,104.67 L 168.95,101.81 L 169.32,100.37 L 170.30,97.71 L 170.54,97.11 L 171.02,96.15 L 171.65,95.21 L 172.02,94.84 L 172.60,93.89 L 173.00,92.62 L 173.00,92.39 L 173.27,91.78 L 173.44,91.45 L 174.00,90.68 L 174.63,89.88 L 176.51,88.06 L 177.51,87.15 L 179.76,85.45 L 183.00,83.54 L 183.96,83.11 L 186.22,81.84 L 189.06,79.94 L 189.58,79.52 L 190.66,78.92 L 191.23,78.65 L 192.61,78.29 L 193.36,78.14 L 195.31,77.98 L 199.17,77.89 L 200.34,77.89 L 202.40,77.93 L 203.39,77.95 L 205.10,78.05 L 205.92,78.10 L 207.31,78.26 L 207.97,78.35 L 209.07,78.58 L 210.11,78.83 L 211.43,79.57 L 212.53,81.10 L 212.70,81.62 L 213.52,82.44 L 215.06,83.00 L 215.39,83.00 L 216.21,83.27 L 216.65,83.45 L 217.65,84.04 L 218.69,84.70 L 221.05,86.73 L 222.23,87.83 L 224.53,90.40 L 227.39,94.40 L 228.25,95.87 L 229.65,99.01 L 230.28,100.57 L 231.13,103.50 L 231.30,104.20 L 231.52,105.46 L 231.61,106.06 L 231.65,107.09 L 231.64,107.57 L 231.48,108.31 L 231.00,109.00 L 230.78,109.14 L 230.46,109.59 L 230.32,109.85 L 230.18,110.56 L 230.12,110.95 L 230.14,111.94 L 230.35,113.76 L 230.45,114.44 L 230.41,116.00 L 230.35,116.80 L 230.01,118.52 L 229.61,120.26 L 228.12,123.78 L 227.70,124.64 L 226.77,126.22 L 226.29,126.98 L 225.26,128.31 L 224.74,128.93 L 223.67,129.90 L 222.06,130.83 L 221.27,131.10 L 219.84,132.13 L 218.55,133.85 L 218.41,134.28 L 217.86,135.14 L 217.53,135.56 L 216.65,136.40 L 216.16,136.81 L 215.00,137.60 L 214.38,137.99 L 212.99,138.71 L 211.54,139.40 L 208.19,140.47 L 202.89,141.38 L 201.14,141.51 L 197.50,141.49 L 196.65,141.47 L 195.17,141.36 L 194.49,141.29 Z" fill="rgb(252,147,31)"/>
</g>
</svg>