<svg width="201" height="201" viewBox="0 0 201 201" fill="none" xmlns="http://www.w3.org/2000/svg">
<rect x="0.143555" y="0.0966797" width="200" height="200" rx="100" fill="#141416"/>
<path d="M117.999 121.324C84.9254 131.247 57.5666 145.719 40.441 162.677L39.6849 163.429C44.2388 167.734 49.2323 171.584 54.6303 174.857L55.7907 173.439C60.4677 167.734 65.4788 162.222 70.7009 157.024C84.7144 143.077 100.75 131.002 118.016 121.307L117.999 121.324Z" fill="#F5F5F5"/>
<path d="M12.6426 106.624C13.9613 124.317 20.5372 140.539 30.8583 153.734L31.3331 153.262C41.9355 142.814 55.738 133.312 72.3889 125.034C86.9826 117.772 103.739 111.542 121.796 106.624H12.6426Z" fill="#F5F5F5"/>
<path d="M79.9494 33.9117C109.541 63.3642 146.782 82.8417 187.626 90.2267C182.703 46.5642 145.498 12.5967 100.293 12.5967C88.354 12.5967 76.978 14.9767 66.5865 19.2642C70.8064 24.3392 75.3076 29.2742 79.9494 33.9117Z" fill="#F5F5F5"/>
<path d="M40.441 37.5167C57.5666 54.4917 84.9254 68.9467 117.999 78.8867C100.732 69.1742 84.6968 57.1167 70.6833 43.1692C65.4788 37.9892 60.4677 32.4767 55.7731 26.7542L54.6127 25.3367C49.2148 28.6092 44.2213 32.4592 39.6849 36.7642L40.441 37.5167Z" fill="#F5F5F5"/>
<path d="M79.9494 166.282C75.29 170.919 70.7888 175.854 66.5865 180.929C76.9604 185.217 88.354 187.597 100.293 187.597C145.498 187.597 182.703 153.629 187.644 109.949C146.799 117.334 109.559 136.812 79.967 166.264L79.9494 166.282Z" fill="#F5F5F5"/>
<path d="M72.3888 75.1592C55.738 66.8817 41.9355 57.3792 31.3331 46.9317L30.8583 46.4592C20.5372 59.6542 13.9613 75.8767 12.6426 93.5692H121.779C103.721 88.6517 87.0001 82.4392 72.3888 75.1592Z" fill="#F5F5F5"/>
</svg>
