<svg xmlns="http://www.w3.org/2000/svg" xmlns:xlink="http://www.w3.org/1999/xlink" viewBox="0 0 800 800" width="800" height="800" preserveAspectRatio="xMidYMid meet" style="width: 100%; height: 100%; transform: translate3d(0px, 0px, 0px); content-visibility: visible;"><defs><clipPath id="__lottie_element_2"><rect width="800" height="800" x="0" y="0"></rect></clipPath><clipPath id="__lottie_element_4"><path d="M0,0 L1728,0 L1728,1728 L0,1728z"></path></clipPath></defs><g clip-path="url(#__lottie_element_2)"><g clip-path="url(#__lottie_element_4)" transform="matrix(1.2367000579833984,0,0,1.2367000579833984,-668.2998046875,-668.5087890625)" opacity="1" style="display: block;"><g transform="matrix(1.2994699478149414,0,0,1.2994699478149414,725.31494140625,727.8936767578125)" opacity="1" style="display: block;"><g opacity="1" transform="matrix(1,0,0,1,131.17999267578125,104.73999786376953)"><path stroke-linecap="round" stroke-linejoin="miter" fill-opacity="0" stroke-miterlimit="10" stroke="#FFF" stroke-opacity="1" stroke-width="35px" d=" M119.06700134277344,-87.47000122070312 C119.06700134277344,-87.47000122070312 -26.440000534057617,-87.23999786376953 -26.440000534057617,-87.23999786376953 C-74.62000274658203,-87.23999786376953 -113.68000030517578,-48.18000030517578 -113.68000030517578,0 C-113.68000030517578,48.18000030517578 -74.62000274658203,87.23999786376953 -26.440000534057617,87.23999786376953 C-26.440000534057617,87.23999786376953 113.68000030517578,87.23999786376953 113.68000030517578,87.23999786376953"></path></g></g><g transform="matrix(1.2994699478149414,0,0,1.2994699478149414,643.7398681640625,841.25927734375)" opacity="1" style="display: block;"><g opacity="1" transform="matrix(1,0,0,1,0,0)"><path stroke-linecap="round" stroke-linejoin="miter" fill-opacity="0" stroke-miterlimit="10" stroke="#FFF" stroke-opacity="1" stroke-width="35px" d=" M2.309000015258789,17.5 C2.309000015258789,17.5 338.4200134277344,17.5 338.4200134277344,17.5"></path></g></g><g transform="matrix(1.2994699478149414,0,0,1.2994699478149414,620.9991455078125,621.3760986328125)" opacity="1" style="display: block;"><g opacity="1" transform="matrix(1,0,0,1,186.7100067138672,186.7100067138672)"><path stroke-linecap="round" stroke-linejoin="miter" fill-opacity="0" stroke-miterlimit="10" stroke="#FFF" stroke-opacity="1" stroke-width="35px" d=" M0,-169.2100067138672 C93.4520034790039,-169.2100067138672 169.2100067138672,-93.4520034790039 169.2100067138672,0 C169.2100067138672,93.4520034790039 93.4520034790039,169.2100067138672 0,169.2100067138672 C-93.4520034790039,169.2100067138672 -169.2100067138672,93.4520034790039 -169.2100067138672,0 C-169.2100067138672,-93.4520034790039 -93.4520034790039,-169.2100067138672 0,-169.2100067138672z"></path></g></g><g transform="matrix(1.2994699478149414,0,0,1.2994699478149414,621.4991455078125,621.3760986328125)" opacity="1" style="display: block;"><g opacity="1" transform="matrix(1,0,0,1,186.7100067138672,186.7100067138672)"><path stroke-linecap="round" stroke-linejoin="miter" fill-opacity="0" stroke-miterlimit="10" stroke="#FFF" stroke-opacity="1" stroke-width="35px" d="M0 0"></path></g></g></g></g></svg>